<svg xmlns="http://www.w3.org/2000/svg" viewBox="0 0 346.39 85.19"><g data-name="レイヤー 2"><path d="M345.88.83c2.38 3.09-4.17 4.55-5.95 5.16-4.88 1.67-9.81 3.14-14.73 4.65-1.94.6-3.89 1.17-5.83 1.79a31 31 0 01-5.24 1.49 1.06 1.06 0 00-.52.16 1.22 1.22 0 01-.17.15.86.86 0 01-.48 0c-.32 0-.5.32-.85.36a19.8 19.8 0 00-3.12 1l-3.76 1.14a.85.85 0 00-.54.33 12.07 12.07 0 00-1.24.32c-.41.16-.81.15-1.21.28l-1.11.36c-2.25.73-4.5 1.49-6.75 2.24l-3.58 1.2c-1.1.38-1.81.64-2.66.87-.37.17-1 .27-1.21.39-.76.23-1.58.49-1.71.55-.83.33-1.66.67-2.5 1a22.77 22.77 0 01-5.33 1.34c-.29 0-.53 1.75-.6 2a8.19 8.19 0 01-1.11 1.95c-2.3 3.75-4.49 7.8-7.53 11.05-.56.61-1 1.3-1.58 1.9a28.64 28.64 0 01-4.39 3.84c-1.49 1-3.28 1.55-4.91.51a5.59 5.59 0 01-2.39-2.25 7.54 7.54 0 01-.54-3.39 19.28 19.28 0 01.28-2.73 20.07 20.07 0 011.12-4.17 17.57 17.57 0 011-2.06 9.84 9.84 0 01.67-1.29c.24-.31.64-.62.69-1-.59.27-1.21.46-1.81.71-2.32.92-4.3 1.86-6.88 1.86.05 0-.7 1.55-.77 1.68a11.24 11.24 0 01-.55 1.33c-.66.91-1.16 1.92-1.76 2.86a10 10 0 01-1 1.39c-1.07 1.18-1.82 2.6-2.8 3.85a39.46 39.46 0 01-3.22 3.62 38.34 38.34 0 01-5.89 4.73c-2 1.36-4.6 2.52-7 1.33a3.21 3.21 0 01-1.08-.85 4.66 4.66 0 01-1-2.46 12.16 12.16 0 01.19-3.13c.18-1.26.37-2.52.62-3.77s.65-2.31.85-3.51a14.9 14.9 0 011.26-3.24 17.8 17.8 0 011.89-3.35 119.47 119.47 0 00-13.94 5.69 4 4 0 00-.86.47 5.38 5.38 0 01-.64.54 2.59 2.59 0 01-1.46.27c-.72 0-1.43-.09-2.14-.19a2 2 0 01-.75-.22 1.39 1.39 0 010-2.08 4.54 4.54 0 012.17-1 56.11 56.11 0 009.14-3.83c4.24-2 8.66-3.53 13.07-5.09a3.63 3.63 0 011.07-.25 1.72 1.72 0 011.65 1.83 3.31 3.31 0 01-1.24 1.91l-2.18 2.08a3.29 3.29 0 00-.53.59c-.09.13-.15.27-.23.41s-.37.49-.55.74-.32.52-.47.79a30 30 0 00-3 8.06 30.65 30.65 0 00-.62 4.37c0 .44-.27 1.64 0 2 .42.51.94.37 1.46.13a29.62 29.62 0 004.29-2.24 18.26 18.26 0 003.05-2.71 70.25 70.25 0 004.72-5.48 39.64 39.64 0 002.43-3.35 36.6 36.6 0 002.23-4.31q.48-1.08 1-2.16a5.77 5.77 0 01.68-1.3 2.3 2.3 0 011.28-.93 2.19 2.19 0 011.42.49c.34.21.52.64 1 .67 1.12.06 2.33-.94 3.28-1.45 1.16-.62 2.28-1.3 3.42-1.93s2.13-1 3.15-1.6c.55-.31 3.51-2.19 4-1.22a4.35 4.35 0 01.95 2.2c0 .06-.68.86-.76 1a3.3 3.3 0 01-.52.89c-.33.3-.56.35-.83.74-1.23 1.72-2.47 3.43-3.59 5.23a17.58 17.58 0 00-2.3 5.95 7.33 7.33 0 00-.15 4.07 1.63 1.63 0 00.82 1 1.81 1.81 0 001.36-.15 4.83 4.83 0 001.8-1.35 13 13 0 011.93-2c2-1.7 3.26-4 4.92-5.93a18.23 18.23 0 001-1.69c.58-.91 1.29-1.71 1.84-2.64.44-.75 1-1.41 1.42-2.16a14.58 14.58 0 001.32-3.25 25.86 25.86 0 01.87-3.16 2.22 2.22 0 011.65-1.32 1.37 1.37 0 011.12.58 2.22 2.22 0 001.86.78c.48 0 11.29-3.91 14.09-4.88 3.54-1.11 7-2.49 10.55-3.58 2.92-.9 5.86-1.74 8.8-2.61 1.44-.43 2.88-.87 4.31-1.33 2.78-.88 5.56-1.77 8.36-2.57 1.39-.4 2.78-.78 4.17-1.13.82-.2 1.66-.26 2.47-.48 1.93-.54 3.72-1.44 5.68-1.89.46-.11.95-.11 1.41-.25a1.46 1.46 0 00.75-.54c.2-.21.49-.3.69-.5a7.57 7.57 0 00.44-.66A3 3 0 01345.1.3a1.67 1.67 0 01.78.53zM200.65 19.74c1.19-.52 1.93.66 2 1.72.18 1.7-.74 3.13-1.73 4.42a5 5 0 01-3.17 2.05 1.69 1.69 0 01-1.28-.29 2.19 2.19 0 01-.54-2.12c.41-2.25 2.29-3.95 4-5.34a3.08 3.08 0 01.72-.44zm-3.4 17.14c.84-.23 1.91 0 2 1a2.38 2.38 0 01-.25 1.22c-4.73 11.07-6.48 23.23-11.21 34.3-1.25 2.94-2.89 6.5-5.65 8.36a7.45 7.45 0 01-9.1-.74 9.66 9.66 0 01-1.89-3.92c-.38-1.16-.83-2.72.16-3.72.74-.75 2.6-.57 2.9.56a3.14 3.14 0 010 1.06 4.13 4.13 0 00.45 2.49 3.83 3.83 0 004.56 1.9c2-.71 3.38-3 4.3-4.8 2.18-4.09 3.35-8.57 4.74-13l3.6-11.39 3.31-10.48a5 5 0 011.46-2.6 1.88 1.88 0 01.62-.24zM1.9 66.18c3.1-1.29 5.71-2.73 8.8-4.05 2-1 4.09-1.92 6.05-3 1.72-1 3.45-1.89 5.18-2.82 1-.51 1.93-1 2.89-1.56l.24-.13.46-.25c1.33-.74 2.69-1.44 4.08-2.08a21.84 21.84 0 012-1 2.07 2.07 0 012.84 1.84c.24 2.77-1.45 5.66-3.05 7.77a51.37 51.37 0 00-5.08 8.33 27.84 27.84 0 00-1.94 4.28 35.17 35.17 0 00-.85 4.67c0 .23 0 .72.35.59a.61.61 0 00.3-.25 105.73 105.73 0 0110-9.94 78.57 78.57 0 017.1-5.91c2.41-1.79 5-3.78 7.92-4.63a5.84 5.84 0 013.46.26 3.36 3.36 0 011.65 1.78 6.59 6.59 0 01.24 1.68L54 70h.31c.27 0 1.19-1.7 1.37-2a38.39 38.39 0 015.55-6.26 11.6 11.6 0 014.21-2.52 7 7 0 013.53-.39c1.55.34 1.79 1.57 2.25 2.92.21.64-.12 4-.45 6.35a.45.45 0 00.59.49 7.71 7.71 0 001.89-1.24c1.06-.77 2.13-1.5 3.21-2.23 2.16-1.46 4.33-2.9 6.4-4.47.94-.71 4.32-1.44 5.17-.39a16 16 0 011.54 2.1l.18.31a4.29 4.29 0 00.63.94 4.14 4.14 0 004.3 1c2.71-1.31 5.26-3 7.88-4.49 1.85-1 3.68-2.07 5.5-3.13a15.07 15.07 0 004.75-3.54c.93-1.22 2.77-1.21 4.15-1.55q2.86-.72 5.68-1.56c4-1.19 7.9-2.66 11.81-4.06a11.32 11.32 0 013.26-.88c1.43 0 2.81 1.39 1.25 2.84-.18.17-1.37 1.14-1.6 1.33a29.83 29.83 0 00-4.89 5.57c-2.1 2.87-3.78 5.83-3.64 9.47a.46.46 0 00.06.23.44.44 0 00.19.1 5.06 5.06 0 001.49.21 8.38 8.38 0 004.43-1.9c4.71-3.34 9.45-7.28 12.1-12.52.25-.48.61-.85.82-1.35a9.68 9.68 0 01.67-1.82 2.42 2.42 0 011.95-.81 1.61 1.61 0 011 .32c.29.28.21.75.54.87a5.91 5.91 0 000 .94c0-.37 2.62-1.61 2.91-1.77a14.79 14.79 0 013-.73c4.33-1.14 8.62-2.42 12.9-3.75l6.42-2 3.2-1a4.94 4.94 0 012.68-.49c1.25.36 1.13 2.79.29 3.44a3.81 3.81 0 01-1 .49c-2.31.83-4.76 1.13-7.12 1.82-1.73.5-3.43 1.1-5.15 1.65-3.25 1.06-6.5 2.14-9.8 3.05a24.88 24.88 0 00-4.16 1.33c-1.55.73-3.15 1.46-4.62 2.3a4.77 4.77 0 01-1.81.06c-.69 0-1.88 2.63-2.23 3.13-2.7 3.86-6.46 6.81-10.1 9.71a21.69 21.69 0 01-4.11 2.41 5.8 5.8 0 01-2.78.6 6.57 6.57 0 01-2.41-.33 5.48 5.48 0 01-3.24-3.41c-.95-2.42.08-5.15 1.2-7.31a33.11 33.11 0 011.7-2.86c.42-.64.84-1.28 1.28-1.91a6.74 6.74 0 00.47-.62.78.78 0 000-.84c-.36-.27-2.64 1.09-4.08 1.52-2.23.68-4.47 1.3-6.73 1.89-1.43.37-3.08.44-4.18 1.46a11.75 11.75 0 01-1 .87 73 73 0 01-8.74 5.41c-1.52.84-3 1.68-4.5 2.61a27.64 27.64 0 01-4.75 2.72c-2.09.8-3.77.2-5.78-.6-1.7-.68-3.25-2.8-4.1-4.36a1.44 1.44 0 00-.77.18c-.36.12-.66.43-1.21.71a21.6 21.6 0 00-2.32 1.6c-1.14.8-2.28 1.61-3.41 2.43q-2.91 2.11-5.77 4.29a3.07 3.07 0 01-2.43.87c-.66-.06-1.77-.31-2.11-1-1.1-1.5-.74-3.34-.55-5.07.11-1 .24-1.91.38-2.86 0-.43.49-1.76.21-2.13a.25.25 0 00-.14-.08 2.49 2.49 0 00-2.67.81 11 11 0 00-3 3c-1 1.18-2.16 2.13-3.12 3.31a41.76 41.76 0 00-3.76 5.5 30 30 0 00-2.48 4.9 6.56 6.56 0 01-1 1.86 1.82 1.82 0 01-2.31.15.68.68 0 01-.27-.23 1.29 1.29 0 01-.1-.44c-.09-.37-.3-.42-.34-.86a5.81 5.81 0 01.26-1.59c.22-1 .51-2.08.68-3.13.37-2.4.58-4.82 1-7.19.4-2.08 1.05-4.42.38-6.51-.43-1.4-4 1-4.6 1.42a56.72 56.72 0 00-7.2 5.23c-2.82 2.43-5.44 5.09-8.06 7.73-1.66 1.67-3.27 3.39-4.83 5.14-1.24 1.39-2.49 3.81-4.62 3.78a2.21 2.21 0 01-1.92-1.42 1.81 1.81 0 01-.1-.69A35.06 35.06 0 0122.1 70.2a57.34 57.34 0 016.15-10.76c.76-1.09 2.14-2.44 2.33-3.78a5.25 5.25 0 00-2.28 1.06c-.67.45-1.4.66-2.1 1l-3.15 1.68c-2.37 1.26-4.73 2.58-7.14 3.78C9.72 66.3 5.47 68.25 2 69.74c-2 .98-3.24-2.25-.1-3.56z" fill="#fff" fill-rule="evenodd" data-name="レイヤー 1"/></g></svg>