<svg xmlns="http://www.w3.org/2000/svg" viewBox="0 0 740.44 75.63"><g data-name="レイヤー 2"><path d="M11.31 8.52s1.47 1.14 2.4 2c-.09.33-.36.48-.81.48H.21L0 10.14h5.49v-2.7H1.26L1 6.54h4.49V4.2H.75l-.24-.87h5V.21l2.88.3c0 .42-.3.66-.93.78v2H9.6l1.23-1.62s1.47 1.17 2.37 2c-.09.33-.36.45-.75.45h-5v2.42h1.88l1.2-1.47S11.91 6.15 12.75 7c-.09.33-.33.48-.75.48H7.44v2.7H10zm15 3.42a25.34 25.34 0 011.71 1.89.69.69 0 01-.75.45h-2.16v6.06a2.19 2.19 0 01-1.47.57h-.36v-1.62h-3.54v5.28c0 1.53-.36 2.64-2.91 2.91a2.09 2.09 0 00-.57-1.38 4.66 4.66 0 00-2.34-.75v-.45s2.73.18 3.3.18.63-.15.63-.57v-5.22h-4.41l-.27-.87h4.68v-4.14h-5.34l-.06-.28a2.67 2.67 0 01-1.17.51v10.3c0 1.5-.3 2.43-2.79 2.7A2.43 2.43 0 008 26.13a4.43 4.43 0 00-2.1-.69V25s2.37.18 2.91.18.63-.15.63-.57v-3.52H3.81v5.76c0 .18-.75.66-1.53.66H2V12.36l2 .93h5.12l.93-1.17 2.37 1.77-.12-.48h5.55v-4h-4l-.27-.87h5.32a33.7 33.7 0 002.43-4.26h-4.14a20.83 20.83 0 01-4.47 4.56l-.36-.3A25 25 0 0017.13.09l3 .81c-.09.3-.3.45-1.05.39a22.86 22.86 0 01-1.26 2.1h3.6l1.23-1.26 2.22 2c-.21.21-.57.27-1.17.3a41.46 41.46 0 01-4 4.05h3.63l1-1.08 1.92 1.77a2.52 2.52 0 01-1.14.51v3.72h.27zm-22.5 2.22v2.49h5.61v-2.49zm5.61 6.06v-2.67H3.81v2.67zm10.32-6.81h3.54v-4h-3.54zm3.54.87h-3.54v4.14h3.54zm30.06-7.74a6.66 6.66 0 012.13.57 3.55 3.55 0 011.83 2.4c0 .6-.72.84-1.92 1.26a49.44 49.44 0 00-7.32 3.42c-2.4 1.38-5.7 3.9-5.7 6.69 0 1.77 1.68 3.18 6.36 3.18a42.51 42.51 0 007.38-.84c1 0 2 .27 2 1.17 0 .39-.48.75-1.08.93a31.45 31.45 0 01-7.65.72C44.1 26 41 24.33 41 21.21c0-3.39 3.48-6.3 5.46-7.71a5.2 5.2 0 01-1.82-2.5 34.66 34.66 0 01-1.32-6.27 1.06 1.06 0 00-.84-1 11.89 11.89 0 00-1.65-.39v-.63a7 7 0 011.92-.3c1.35 0 2.94 1 3 1.65a15.27 15.27 0 00-.21 1.56 19 19 0 00.66 4.56 4.27 4.27 0 001.65 2.46c2.15-1.36 5.25-2.92 6.36-3.52.48-.24.6-.45.39-.84A3.26 3.26 0 0053.07 7zm43.73 17.01s1.68 1.32 2.67 2.31c-.06.33-.33.45-.75.45H72.68l-.27-.87H85V18h-9.6l-.27-.9h18.4l1.41-1.74s1.65 1.23 2.64 2.16a.72.72 0 01-.78.48H87v7.47h8.55zM76.58 5.19A5.19 5.19 0 0175 9.33c-.72.63-1.8.78-2.19.12s0-1.26.66-1.68a6.55 6.55 0 002.13-5.31h.54a11.55 11.55 0 01.36 1.83H85V0l3.06.33c-.06.39-.36.69-1 .78v3.18h9L97.37 3l2.37 2.28c-.18.24-.57.27-1.14.3a25.72 25.72 0 01-4.32 3.69L93.89 9A40.86 40.86 0 0096 5.19h-5.8v6.39c0 .42.12.51 1.17.51h5.37c.42 0 .42-.09.54-.36a16.62 16.62 0 00.87-3.24h.39l.09 3.33c.66.24.81.48.81.87 0 .87-.87 1.23-5.4 1.23H91c-2.28 0-2.7-.48-2.7-2V5.19h-3.8c-1 5.91-4.23 8.91-11.28 10.59l-.15-.45c6-2.13 8.37-5.1 9.12-10.14zm46.49 19.47c7.35-1.29 10.89-5.07 10.89-10.5s-4-8.76-8.91-8.76c-.36 0-.72 0-1.08.06a5.6 5.6 0 011.29 3.18 15 15 0 01-.93 4.83c-1.26 3.6-4.74 9.42-7.8 9.42-2 0-4.11-3.18-4.11-6.87a11.5 11.5 0 014-8.43 12.93 12.93 0 018.75-3.21c6.18 0 11 4.05 11 10.26 0 5-3.12 10.08-12.93 10.71zm-.21-19a11.41 11.41 0 00-5.67 3 9.65 9.65 0 00-3.09 6.93c0 2.88 1.32 5.07 2.55 5.07 2 0 4.74-4.74 6-7.59a14.12 14.12 0 001.05-4.67 5.24 5.24 0 00-.84-2.76zm48.53 6.64v6.21h1.29l1.29-1.8s1.53 1.29 2.43 2.19c-.09.3-.33.45-.75.45h-26.31l-.24-.84h4.65V12.3h-4.62l-.24-.84h4.86V5.91a20.23 20.23 0 01-4.41 3.48L149 9a27 27 0 006.24-9l3 1.38a1.19 1.19 0 01-1.23.39 22.21 22.21 0 01-1.65 2.37l.54.24h16l1.44-1.8s1.59 1.29 2.55 2.19c-.06.33-.36.48-.78.48h-3.66v6.21h1.38l1.35-1.8s1.59 1.26 2.52 2.16c-.06.33-.33.48-.75.48zm-17.25 8.22c.66 3.69-1.08 5.82-2.52 6.6-.84.54-2 .57-2.28-.12s.15-1.17.78-1.56a6 6 0 003.51-5zm1.41-9.06h3.3V5.25h-3.3zm0 7.05h3.3V12.3h-3.3zm2.58 2.31c4.47 3.87 2.25 7.89.63 6a13.68 13.68 0 00-1-5.88zm2.52-15.57v6.21h3.54V5.25zm0 7.05v6.21h3.54V12.3zm3 8.46c6.09 3.27 4.41 7.65 2.52 6a13.24 13.24 0 00-2.88-5.76zm2.4-15.51v6.21h3.48V5.25zm3.48 7.05h-3.48v6.21h3.48zm0 8.1c8.49 3 7.2 8.4 4.8 6.84-.6-2.22-3.09-5-5.16-6.57zm43.64 3.45s1.71 1.32 2.7 2.28c-.06.3-.33.45-.78.45h-26.52l-.21-.87H201v-3.39h-10.06l-.27-.9H201v-3h-6.7V19c0 .21-.84.66-1.65.66h-.3v-11l2.13 1H201V6.78h-11.92l-.27-.87H201V3.15c-3.3.3-6.78.48-10.05.51l-.09-.6a119.13 119.13 0 0019.44-3l2 2c-.27.21-.84.21-1.56-.12-2.22.36-4.89.72-7.77 1v2.97h8.43l1.41-1.77s1.65 1.26 2.67 2.19c-.09.3-.39.45-.81.45H203V9.6h6.48l1.08-1.2 2.44 1.86a2.35 2.35 0 01-1.29.6v8a3.23 3.23 0 01-1.65.54h-.3v-1H203v3h7l1.35-1.62s1.59 1.17 2.52 2a.68.68 0 01-.75.48H203v3.39h8.7zM194.3 10.5v3h6.7v-3zm6.72 7v-3.13h-6.72v3.12zm2-7v3h6.78v-3zm6.78 7v-3.13H203v3.12zm43.58-9.07a2.39 2.39 0 01-1.26.48c-.27 8.76-1 15.42-2.43 17.07a4.91 4.91 0 01-3.69 1.38 1.74 1.74 0 00-.63-1.53 12.59 12.59 0 00-3.54-1v-.54c1.62.18 4.26.42 5 .42a1.41 1.41 0 001.23-.42c1.17-1 1.74-7.53 2-15.69h-8.91c-.6 7.59-2.82 14.22-13 19l-.36-.54c8.64-4.89 10.74-11.16 11.21-18.45h-9.51l-.27-.87h9.84c.12-2.43.12-5 .12-7.62l3.27.36c-.09.42-.36.75-1.08.84 0 2.19-.06 4.35-.18 6.42h8.58L251 6.42zm32.1.27a5.06 5.06 0 012.22.81 3.5 3.5 0 011.62 2.34c0 .54-.3.63-1.47 1a57.88 57.88 0 00-8.55 3.39c.09 1.71.09 3.9.09 4.86 0 .72-.33 1.17-.93 1.17s-1-.33-1-1.14.12-2.34.15-4c-2.91 1.65-5 3.57-5 5.34s1.92 2.4 4.77 2.4c4.44 0 6.18-.93 7.62-.93 1.05 0 1.59.36 1.59.93s-.15.84-1.11 1.11a32.72 32.72 0 01-6.72.81c-5.58 0-7.41-1.74-7.41-4.11s2.73-4.77 6.24-7c-.12-2.55-.69-3.48-2.25-3.48s-3.66 1.68-4.92 3c-1.05 1.14-1.89 2.55-2.61 2.58s-1-.45-1-1.2 1.11-1.56 2.46-3a28.94 28.94 0 004.2-5.49 18.26 18.26 0 01-2.16.15c-2.46 0-3-.66-4.17-3l.63-.39c1.2 1.26 1.71 1.89 3.93 1.89a14.55 14.55 0 002.67-.3 11.74 11.74 0 001-2.64c.15-.54.06-.75-.54-1a5.91 5.91 0 00-1.68-.42v-.55a6.42 6.42 0 011.71-.3c.93 0 2.88.51 2.88 1.23 0 .42-.24.63-.57 1.29-.21.48-.6 1.23-1 2a29.56 29.56 0 003.9-1.29c1.26-.57 1.47-.84 1.92-.84.66 0 1.29.24 1.29.81 0 .39-.27.66-.84.93a35.14 35.14 0 01-7.23 2.22 35.62 35.62 0 01-2.88 4.23c-.12.15 0 .3.18.18a7.61 7.61 0 013.3-1c1.89 0 3 1.29 3.33 3.54 2.43-1.32 5.49-2.55 7.29-3.51.51-.27.57-.54.15-1a4.26 4.26 0 00-1.47-1zm40.92 14.79s1.77 1.32 2.85 2.34c-.09.33-.36.48-.78.48H302l-.24-.9h12.6v-8.73h-9l-.24-.84h9.24V8.22h-6.75a26.61 26.61 0 01-5.64 7l-.39-.3a39.14 39.14 0 006.66-13.74l3.15 1c-.12.36-.51.63-1.17.6a36.06 36.06 0 01-2.1 4.62h6.24V.12l3.12.36c-.09.42-.33.72-1.05.84v6h6.78l1.53-1.86a33.39 33.39 0 012.79 2.25c-.09.33-.39.48-.81.48h-10.34v7.62h5.67l1.56-1.81s1.71 1.32 2.79 2.28c-.06.3-.36.45-.78.45h-9.24v8.73h8.46zm32.67-12.18a4.06 4.06 0 011.59-.18c.93.12 2.13.84 2.13 1.41a15.61 15.61 0 01-.24 1.65c-.09.57-.27 1.65-.51 2.7a16.29 16.29 0 013.3 2.37 2.15 2.15 0 01.72 1.74.77.77 0 01-.84.84c-.75 0-1.56-1.26-3.81-2.88-1.68 4.14-5.37 6.87-10.83 8.1l-.45-.69c4.77-1.47 8.19-4.5 9.69-8.49a17.41 17.41 0 00-9.9-2.85h-.06c-1.32 2.52-2.85 5.79-3.72 7-.93 1.35-1.8 2.1-3.18 2.1-1.68 0-2.61-2.55-2.19-4.68.63-2.91 4.17-5 8-5.52l.15-.27c1.41-2.58 4.11-6.9 4.83-8.28.24-.48.09-.63-.3-.51-1.08.36-2.94 1.08-4.08 1.56-.51.21-.93.69-1.47.69a3.33 3.33 0 01-2.43-1.92 5.27 5.27 0 01-.18-1.59l.57-.18c.45.81.75 1.56 1.62 1.56a27.9 27.9 0 005.31-1.2c1.05-.33 1.2-.81 1.68-.81.81 0 2.52 1.2 2.52 1.89s-1.08.93-1.74 1.74a70.71 70.71 0 00-4.68 7.08l-.06.12h.15a23.13 23.13 0 019.73 2.19 9.16 9.16 0 00.27-2.79.86.86 0 00-.48-.93 4.54 4.54 0 00-1.14-.42zm-11 3.87c-3.21.48-5.67 2.22-6.18 4.14-.33 1.29.27 2.64 1.08 2.64s1.2-.42 1.86-1.32 2.17-3.42 3.26-5.46zm55.51.15c-.06.42-.33.69-1.08.81v10.47c0 .24-.81.66-1.56.66h-.36V24.9h-19.14v2c0 .24-.81.63-1.53.63h-.36V15l3 .33c-.06.42-.33.69-1.08.81V24h8.46V12.42h-7v1.08c0 .24-.81.63-1.53.63h-.4V2.88l3 .33c-.06.39-.33.66-1.08.78v7.53h7V.24l3.08.33c-.09.42-.33.72-1 .84v10.11h7.2V2.88l3 .33c-.06.39-.36.66-1.08.78v9.39c0 .21-.84.6-1.56.6h-.36v-1.56H392V24h8.67v-9zm22.76-12.81a4.67 4.67 0 012-.63c1.23 0 3.09.66 3.09 1.41S431 4.47 431 5.22c0 .39 0 1-.06 1.71 5-.54 6.87-.81 7.5-.81 1.05 0 2.61.57 2.61 1.53 0 .54-.27.78-.84.78a38.36 38.36 0 00-9.27-.21v4.62a5.71 5.71 0 011.26 4.05c0 5.49-4.14 8.85-9.93 10.29l-.39-.75c3.66-1.35 6.66-3.48 7.74-6.42-2.94 1.35-5.34-1-5.34-4a4 4 0 013.93-4.23 5.31 5.31 0 011.23.15c0-.9-.09-2.19-.15-3.54a67.91 67.91 0 00-7.95 1.47c-1.35.33-1.95.81-2.73.81-1 0-2.4-1.35-2.73-2.19a5.8 5.8 0 01-.29-1.8l.56-.21c.66 1 1.23 2 2.25 2s7.29-.9 10.83-1.29c0-1.08-.09-2.1-.15-2.85-.06-.6-.21-.78-.69-.93a12 12 0 00-2-.21zm3.87 13.41c0-1.95-1-2.94-2.25-2.94a2.61 2.61 0 00-2.46 2.85 2.59 2.59 0 002.43 2.88c1.5 0 2.28-.72 2.28-2.79zM460.36 2a6.45 6.45 0 011.89-.21c1.08.06 3 .78 3 1.47a13.77 13.77 0 01-.78 2.4c-.15.54-.33 1.29-.57 2.13a27.61 27.61 0 003.78-1.59 2.78 2.78 0 011-.42c.51 0 1.29.3 1.29.84s-.33.87-1.44 1.35a42.44 42.44 0 01-5.19 1.68c-.42 1.47-.93 3.09-1.47 4.53a72.4 72.4 0 01-4.62 11c-.42.69-.72 1-1.32 1s-.87-.54-.87-1.23.27-.93.72-1.74a40.81 40.81 0 004.68-9.48c.39-1.11.78-2.37 1.14-3.63a19 19 0 01-3.45.36c-1.74 0-3.17-.66-4.17-2.94l.51-.39c1.29 1.14 2.19 1.71 3.66 1.71a17.12 17.12 0 003.9-.48 29.48 29.48 0 00.75-3.9 1 1 0 00-.63-1.2 13.51 13.51 0 00-1.89-.51zm5.28 16.77a8.61 8.61 0 001 2.85c1 1.62 2.88 2.31 5.46 2.31a28.28 28.28 0 004.83-.57c.69 0 1.47.33 1.47 1s-.78.93-1.65 1.11a18.58 18.58 0 01-4 .39c-3.48 0-6.24-1.05-7.17-3.69a8.55 8.55 0 01-.66-3.33zm1.71-7a15.31 15.31 0 015.43-1.08 10 10 0 014.05.72c.69.36 1.08.81 1.08 1.32s-.51.69-1.23.75a5.62 5.62 0 00-1.77.48 36.48 36.48 0 00-3.36 1.56l-.39-.54a35 35 0 003.15-2.19c.24-.18.15-.33-.12-.42a8.15 8.15 0 00-2.64-.36 18.4 18.4 0 00-4 .48zm39.16-4.24c5.28.54 8.4 4.23 8.4 8.76s-3 9.21-13.56 9.84l-.15-.72c9.3-1.53 11.58-5.7 11.58-9.57a7.24 7.24 0 00-6.66-7.14 40.9 40.9 0 01-2.64 6.15c-.57 1.05-1.08 2-1.59 2.76.18.09.33.21.51.3.57.3 1.08.69 1.08 1.29s-.39.78-.93.78a3.42 3.42 0 01-1.83-.78 14.71 14.71 0 01-2.43 2.31 6.86 6.86 0 01-4.29 1.71c-1.74 0-2.52-1.77-2.52-3.6 0-4.11 2.76-7.38 4.38-8.76-.21-.72-.42-1.41-.63-2a8.14 8.14 0 00-2.73-3.27l.39-.42a7.67 7.67 0 012 .87A4.17 4.17 0 01497 8.49l.33 1.32a13.35 13.35 0 017.35-2.34 22.59 22.59 0 00.63-3c.06-.69-.27-.87-.81-1a6.67 6.67 0 00-1.83-.21l-.06-.63a4.78 4.78 0 011.74-.42c1.38 0 3.36 1.17 3.36 1.95 0 .6-.45 1-.72 1.83zM499.4 18a13.29 13.29 0 01-2.07-3.21 24.31 24.31 0 01-1-2.67 10.8 10.8 0 00-3.24 6.66c0 1.68.6 2.37 1.44 2.37a4.38 4.38 0 002.92-1.15 11.64 11.64 0 001.95-2zm4.92-9.36a11.5 11.5 0 00-6.69 2.36 17 17 0 001.29 3.42 8.48 8.48 0 001.62 2.13A15.57 15.57 0 00502 14.1a36.14 36.14 0 002.32-5.43zm31.18 5.67c-.62 1.56-2 5-2.33 6.09a8 8 0 00-.51 2.16c0 .87.59 1.83.59 2.55a.79.79 0 01-.86.9c-.54 0-1-.48-1.41-1.11a13.62 13.62 0 01-1.74-6.72 26.88 26.88 0 011.44-7.92 17.5 17.5 0 00.74-3.48c0-1.08-.68-2.07-1.67-3.15l.48-.39a6.77 6.77 0 011.52.9c.64.51 2 1.89 2 3.15 0 .69-.42 1.23-1.14 3a17.81 17.81 0 00-1.92 7.35 4.61 4.61 0 00.48 2.58c.18.36.39.42.66 0 .66-1.05 2.34-4.8 3-6.33zm3 2.58a11.64 11.64 0 00.88 2.61c1 1.77 2.61 2.82 6.29 2.82a28.52 28.52 0 005.1-.54c.81 0 1.59.27 1.59 1 0 1.2-2.78 1.56-6 1.56-4.67 0-7.23-1.56-8.12-4.62a9.23 9.23 0 01-.39-2.67zm.33-9.39A15.44 15.44 0 01546 5.64a9.94 9.94 0 014.17.63c.63.27.91.69.91 1.05s-.19.66-.82.75a8.13 8.13 0 00-2.46.57 48.78 48.78 0 00-4.91 2.73l-.51-.54c1.35-1 3.47-2.52 4.11-3.06.35-.33.33-.54-1.66-.54a18.74 18.74 0 00-5.69 1zm40.1 5.1v14.34a1.82 1.82 0 01-1.56.6h-.27V23c-1.68.54-4 1.2-6.9 2a.91.91 0 01-.66.66l-1.35-2.16c.69-.06 1.68-.18 2.88-.33V12.6h-2c0 4.59-.33 10.68-4.17 14.94l-.45-.33c2.55-4.5 2.76-10 2.76-15.06V4.41l2.25 1H583a43.71 43.71 0 002.14-5.23l3 .81c-.12.36-.51.6-1.17.6a34.22 34.22 0 01-3.18 3.87h3.93l1.44-1.71s1.59 1.2 2.58 2.1c-.09.33-.36.48-.78.48H569v5.37h5V9.27h-3.5l-.24-.84h6.87L578.24 7s1.29 1 2.1 1.83c-.09.3-.36.45-.78.45h-3.69v2.42h2.52l1.11-1.41s1.29 1.05 2.07 1.83c-.06.33-.33.48-.75.48zm-9.3-12c5.58 2.07 4 5.76 2.13 4.38a13 13 0 00-2.43-4.17zm7.47 12h-4.26v2.7h4.26zm0 3.6h-4.26v2.73h4.26zm-4.26 6.72l4.26-.6V19.8h-4.26zM576.65.18c5.13 2.34 3.24 6.15 1.44 4.59a10.74 10.74 0 00-1.8-4.41zm12.66 12a24.09 24.09 0 01-3.09 9 14.65 14.65 0 005.78 4.59l-.09.3a1.91 1.91 0 00-1.65 1.47 14.54 14.54 0 01-4.92-5 18.58 18.58 0 01-5.64 4.95l-.3-.39a19.21 19.21 0 005.16-5.94 29.88 29.88 0 01-2.27-7.16 16.2 16.2 0 01-2.46 3.36l-.45-.3a29.14 29.14 0 003.45-10.17l2.88.69c-.09.36-.42.63-1.08.66-.3 1.05-.63 2.07-1 3.06H588l1.23-1.62s1.44 1.14 2.31 2c-.06.33-.33.48-.75.48zm-6.06 0a9.55 9.55 0 01-.48 1 23.32 23.32 0 002.49 6.54 26 26 0 002-7.5zm26.57 9.93c2.13 2.43 4.5 2.79 9.75 2.79 3.63 0 8.49 0 12.18-.12v.42a1.72 1.72 0 00-1.5 1.62h-10.66c-5.54 0-8-.69-10.19-4.11a41.91 41.91 0 01-3.84 4.05.58.58 0 01-.3.72l-1.41-2.4c1-.48 2.64-1.41 4.14-2.34v-9h-3.84l-.15-.84h3.57l1.17-1.53 2.55 2.13a2.47 2.47 0 01-1.47.54zM604.78 1c7.14 2.49 5.49 7.38 3.3 5.73a11.57 11.57 0 00-3.63-5.49zm24.14 14.6s1.57 1.2 2.56 2.1c-.1.33-.37.48-.79.48h-19.22l-.24-.87h5.55v-3.57h-4.08l-.24-.87h4.32v-2.79l2.64.27c-.06.33-.27.54-.75.66v1.86h4.47v-2.79l2.61.27c0 .33-.25.54-.75.66v1.86h1.56l1.26-1.56s1.43 1.11 2.34 1.95a.73.73 0 01-.78.48H625v3.57h2.58zm-17.27 7.68a18.69 18.69 0 006-4.71l2.67 1.43c-.21.3-.66.39-1.38.27a21.47 21.47 0 01-7.05 3.48zm.6-20.94l-.25-.87h5.67l1-1L620.71 2a1.71 1.71 0 01-1.05.51v3.25c0 .21-.91.63-1.5.63h-.27v-1h-3.84v2.4c0 .3.06.39.81.39h3.78a.47.47 0 00.44-.18 7.42 7.42 0 00.61-1.59h.36l.09 1.59c.57.18.75.33.75.66 0 .72-.78 1-4.17 1h-2.25c-1.83 0-2.1-.39-2.1-1.53V3.66l2.07.9h3.45V2.34zm6.42 15h4.47v-3.6h-4.47zm3.12-15l-.28-.87h5.86l1-1 2.09 1.62a1.9 1.9 0 01-1 .48v3.19c0 .21-.91.63-1.53.63h-.28v-1h-3.86v2.4c0 .3.06.39.8.39h4.11c.3 0 .34 0 .42-.18a7.31 7.31 0 00.67-1.74h.36l.01 1.74c.57.21.75.36.75.69 0 .72-.79 1-4.35 1h-2.4c-1.86 0-2.16-.39-2.16-1.53v-4.5l2.07.9h3.53V2.34zm.63 16.66c10.65 2 7.19 6.24 5.33 4.47a15.23 15.23 0 00-5.51-4zm28.13-16a5.81 5.81 0 012.52-.75c1.11 0 2.31.36 2.46.9a31.35 31.35 0 001.65 4.44 23.19 23.19 0 005.1-2.76 1.74 1.74 0 011.77.21c.27.33.09.84-.33 1.2A22.49 22.49 0 01658 9.09a31.94 31.94 0 005.28 6.48c.72.69 1 1 1 1.47 0 .84-.42 2-1.08 2s-1.08-.45-1.92-.93a14.73 14.73 0 00-7.35-2c-3.36 0-6 1.86-6 4.32s2.67 3.9 7.35 3.9c2.28 0 3.27-.33 4.32-.33.9 0 1.56.36 1.56 1s-1.44 1.35-5.19 1.35c-5 0-9.57-1.59-9.57-5.67 0-3.24 3.48-5.67 8.07-5.67a21.79 21.79 0 016.53 1.04c.3.06.36 0 .15-.21a52.71 52.71 0 01-4.59-6.3 26.23 26.23 0 01-6.45 1.14c-2.85 0-4-1-5.61-3.33l.54-.48c1.83 1.47 2.7 2.1 5.07 2.1a23.05 23.05 0 005.6-.97 42.23 42.23 0 00-2.07-3.81c-.51-.78-1.26-.72-3-.69zm54.84 17.58c-1.31 1.86-3.6 3.72-6.14 3.72-2.14 0-3.6-1.29-3.6-3.93 0-3.33 1.26-6.81 1.26-10 0-1.89-.55-2.88-2-2.88-2.55 0-6.06 2.7-9.06 6a60.3 60.3 0 00.3 8.85c.06.75.14 1.38.14 2 0 1-.42 2.43-1.25 2.43-.54 0-.84-.33-1-1a9.06 9.06 0 00-.5-1.89 26 26 0 00-2.22-3.9l-1.95 2.73c-.36.51-.63.9-1.08.9s-.78-.45-.78-1.05a1.92 1.92 0 01.63-1.5 74.64 74.64 0 006.57-8.52c.08-.87.15-1.68.27-2.49-1 .54-2.07 1.14-2.82 1.56s-.93 1.08-1.44 1.08a3.35 3.35 0 01-2.46-2.13 4 4 0 01-.12-1.32l.54-.15c.44.9.9 1.41 1.44 1.41.75 0 3.84-1.47 5.07-2.13.24-1.92.44-3.48.48-4.35 0-.69-.15-.81-.69-1a13.41 13.41 0 00-1.59-.42V2a5.53 5.53 0 011.83-.33c1.23 0 2.76 1.32 2.76 2.19 0 .63-.36.9-.69 2.1-.15.45-.36 1.23-.6 2.22.47.33 1.08.9 1.08 1.2s-.33.6-.7 1.08a11.48 11.48 0 00-1 1.26c2.85-2.58 6.38-5.31 9.45-5.31 2.07 0 3.35 1.26 3.35 4.05 0 2.34-1.28 6.63-1.28 9.69 0 1.62.68 2.28 2.12 2.28a7.15 7.15 0 005.14-2.43zm-20.9-5.34c-.82 1.26-1.8 2.64-2.74 4 .85 1.17 1.92 2.61 2.35 3.12.27.3.42.27.42-.21.03-1.45-.12-4.21-.03-6.91zM722.38 2a6.41 6.41 0 011.89-.21c1.08.06 3 .78 3 1.47a13.77 13.77 0 01-.78 2.4c-.15.54-.33 1.29-.57 2.13a27.61 27.61 0 003.78-1.59 2.78 2.78 0 011-.42c.51 0 1.29.3 1.29.84s-.33.87-1.44 1.35a42.44 42.44 0 01-5.19 1.68c-.42 1.47-.93 3.09-1.47 4.53a72.4 72.4 0 01-4.62 11c-.42.69-.72 1-1.32 1s-.87-.54-.87-1.23.27-.93.72-1.74a40.81 40.81 0 004.68-9.48c.39-1.11.78-2.37 1.14-3.63a19 19 0 01-3.45.36c-1.74 0-3.18-.66-4.17-2.94l.51-.39c1.29 1.14 2.19 1.71 3.66 1.71a17.12 17.12 0 003.9-.48 29.48 29.48 0 00.75-3.9 1 1 0 00-.63-1.2 13.51 13.51 0 00-1.89-.51zm5.28 16.77a8.61 8.61 0 001 2.85c1.05 1.62 2.88 2.31 5.46 2.31a28.28 28.28 0 004.83-.57c.69 0 1.47.33 1.47 1s-.78.93-1.65 1.11a18.58 18.58 0 01-4 .39c-3.48 0-6.24-1.05-7.17-3.69a8.55 8.55 0 01-.66-3.33zm1.71-7a15.31 15.31 0 015.43-1.08 10 10 0 014.05.72c.69.36 1.08.81 1.08 1.32s-.51.69-1.23.75a5.62 5.62 0 00-1.77.48 36.48 36.48 0 00-3.36 1.56l-.39-.54a35 35 0 003.15-2.19c.24-.18.15-.33-.12-.42a8.15 8.15 0 00-2.64-.36 18.4 18.4 0 00-4 .48zM41.87 54c-.3 1-.75 1.26-1.38 1.26a1.13 1.13 0 01-1.08-.63c.48-3.15 3.66-4.35 6.75-4.35 4.14 0 6.48 2.37 6.48 5.58 0 2.49-1.65 4.83-5.07 5.55 3.84.45 5.69 2.64 5.69 6 0 3.9-3.11 6.36-7.68 6.36-3.77 0-6.35-1.5-7-4.29a1.18 1.18 0 011.17-1c.69 0 1 .33 1.35 1.38l.72 2.22a7.14 7.14 0 003.09.54c3.54 0 5.55-2.07 5.55-5.37S48.62 62 44.78 62h-1.47v-1.07h1.47c2.94 0 5.19-1.68 5.19-5 0-2.82-1.65-4.59-4.47-4.59a7.57 7.57 0 00-3 .54zm26.6 4.56a3 3 0 002 1.17 5.22 5.22 0 002.67-.93c2.82-1.44 7.44-4.08 11.91-4.08 5.49 0 8.31 3.39 8.31 7.11 0 3.9-2.37 6.42-5.61 8-2.67 1.29-7 2-11.67 1.71l-.08-.86c4-.24 7.23-.72 10.23-2.19 3.39-1.59 5-3.81 5-7S88.9 56 85 56c-3.66 0-7.71 2.67-10 4.08s-3 2.22-3.9 2.22a3.94 3.94 0 01-2.64-1.74 4.37 4.37 0 01-.48-1.68zm49.28 14.1c7.35-1.29 10.89-5.07 10.89-10.5s-4-8.76-8.91-8.76c-.36 0-.72 0-1.08.06a5.6 5.6 0 011.29 3.18 15 15 0 01-.93 4.83c-1.26 3.6-4.74 9.42-7.8 9.42-2 0-4.11-3.18-4.11-6.87a11.52 11.52 0 014-8.43 13 13 0 018.76-3.21c6.18 0 11 4 11 10.26 0 5-3.12 10.08-12.93 10.71zm-.21-19a11.41 11.41 0 00-5.67 3 9.65 9.65 0 00-3.09 6.93c0 2.88 1.32 5.07 2.55 5.07 2 0 4.74-4.74 6-7.59a14.12 14.12 0 001.08-4.62 5.24 5.24 0 00-.87-2.81zm40.13 6.94c1.08 4.83 4.29 9.84 12.93 13.14l-.06.33c-1 .12-1.77.48-2 1.56-8.16-3.78-10.53-9.81-11.43-15h-.42c-1 6.39-3.93 11.34-13.46 14.88l-.36-.54c8.27-3.72 10.89-8.46 11.72-14.34h-10l-.26-.87h10.37c.27-2.4.3-5 .33-7.8h-11.45l-.27-.9h22.43l1.56-1.89s1.77 1.32 2.85 2.31c-.09.33-.39.48-.81.48h-12.12a75.11 75.11 0 01-.42 7.8h8l1.5-1.89s1.74 1.35 2.79 2.28c-.09.33-.36.48-.78.48zm44.18-3.96A12.93 12.93 0 00210 66.3v.3a2.31 2.31 0 00-1.83 1.68c-3.87-2.28-5.88-5.76-6.84-11.13-.84 4.56-3.21 8.37-10.44 11.13l-.39-.51c6.27-2.88 8.37-6.57 9.06-11.13h-3.9l-.21-.78a23.74 23.74 0 01-12.65 13.53l-.33-.39a25.52 25.52 0 0011.85-16.11H189c-.36.63-.72 1.26-1.11 1.86 5.13.9 4.29 4.32 2.49 3.39a7.37 7.37 0 00-2.82-2.88 23.25 23.25 0 01-2.22 2.79c5.34 1.5 4.2 5.1 2.4 4a8.07 8.07 0 00-2.74-3.61 19.93 19.93 0 01-2.43 2.13l-.36-.36A31.07 31.07 0 00188.77 48l2.91 1c-.15.36-.51.6-1.17.54-.33.87-.72 1.71-1.11 2.52h4.83l1.23-1.23 2.13 2c-.24.27-.54.36-1.2.39-.27.87-.54 1.74-.87 2.58h4.17a65.18 65.18 0 00.24-7l2.88.3c-.06.39-.3.66-1 .75-.06 2.1-.09 4.08-.3 6h4.35l1.42-1.85a31.43 31.43 0 012.58 2.19c-.09.33-.36.48-.78.48zm-14.19 11.79c.66 3.78-1.2 5.91-2.61 6.69-.84.51-2 .6-2.25-.06s.15-1.14.75-1.5a6.21 6.21 0 003.63-5.13zm4.38.24c4.44 4 2.22 8.07.54 6.15a13.32 13.32 0 00-1-6zm5.73-.15c5.91 3.63 4.08 8.07 2.19 6.36a13.93 13.93 0 00-2.58-6.15zM203.08 50c5.46 1.5 3.87 5.13 2.07 3.84a8.21 8.21 0 00-2.4-3.6zm.27 18.33c8.07 3.33 6.81 8.34 4.56 6.84-.66-2.16-3.06-4.95-4.92-6.57zM226.34 55a4.7 4.7 0 003 1.53 65.16 65.16 0 006.69-.72c4.68-.66 4.23-1.41 5-1.41 1.11 0 2.79.63 2.79 1.32 0 .45-.27.78-1.11.9-1.14.15-4.95.57-7.62.87.93.42 1.71.93 1.71 1.5s-.36 1-.45 1.89c-.15 1.29-.36 4.14-.48 6.27 2.31-.21 4.62-.36 6.57-.45a14.16 14.16 0 002-.33c1.23 0 3.6 1 3.6 2.07 0 .51-.33.78-.9.78a57.53 57.53 0 00-5.79-.78A62.62 62.62 0 00228 69.63a12.65 12.65 0 01-2.34.72c-.9 0-2.31-1.32-2.64-2a3.7 3.7 0 01-.39-1.65l.57-.24a3.16 3.16 0 002.37 1.59c.87 0 4.47-.39 8.52-.78.15-2.22.24-5.61.24-7a3.65 3.65 0 00-1-2.67c-2 .27-3.66.6-4.38.6a2.87 2.87 0 01-1.86-1 6.85 6.85 0 01-1.29-2zm34.26 5.06l.36-.33a10.36 10.36 0 012.11 1.53 4.45 4.45 0 011.93 3.06c0 .63-.3 1.08-.94 1.08-.95 0-1-1.17-1.83-2.79a13.74 13.74 0 00-1.63-2.55zm2.4 14.67l-.37-.54c7.95-4.14 12.48-11.88 12.48-14.16 0-.48-.42-.84-1.59-1.32l.15-.45a5.53 5.53 0 011.41 0c1.11.18 2.55 1.5 2.55 2.25 0 .48-.51.72-.84 1.41A24.65 24.65 0 01263 74.73zm2.9-16.23l.37-.33a10.4 10.4 0 012.21 1.59 3.89 3.89 0 011.59 2.88.94.94 0 01-1 1c-.89 0-.89-1.23-1.62-2.7a12.63 12.63 0 00-1.57-2.44zm27.23-.21l.3-.66a31.49 31.49 0 014 1.26c1.83.75 2.94 1.83 2.94 3a.87.87 0 01-.87.93c-.93 0-1.41-1.08-3-2.25a21 21 0 00-3.37-2.28zm22.14-1.68l.69.45c-3.42 6-9.75 11.25-16.38 14.91-.6.36-.93 1.14-1.71 1.14a6.11 6.11 0 01-3.48-2.22 5 5 0 01-.66-2l.48-.27c.81 1 1.74 2 2.76 2 2.03-.03 12.9-6.51 18.3-14.01zm-18.12-4.08l.33-.69a29.74 29.74 0 013.78 1.29c2 1 2.94 2 2.94 3.06a.9.9 0 01-.87 1c-.84 0-1.44-1.2-3-2.49a18.55 18.55 0 00-3.18-2.17zM331.42 60a3.76 3.76 0 002.34 1.14 39.16 39.16 0 005-.54c3.36-.51 3.18-1.11 3.75-1.11 1 0 2.46.57 2.46 1.17 0 .42-.27.78-.93.84-.9.09-3.48.33-5.7.57.75.33 1.32.78 1.32 1.29a11.29 11.29 0 01-.3 1.44c-.12 1-.33 2.88-.42 4.44 1.65-.12 3.27-.24 4.59-.3a9.42 9.42 0 001.71-.33c1 0 3 .93 3 1.8a.73.73 0 01-.81.75 42.93 42.93 0 00-5-.66 42.35 42.35 0 00-9.42.93 11.32 11.32 0 01-2 .6 3.47 3.47 0 01-2.19-1.68 4.42 4.42 0 01-.27-1.35l.39-.18a2.57 2.57 0 001.91 1.18c.78 0 3.48-.27 6.42-.57.12-1.62.18-3.93.18-5a3 3 0 00-.66-2.1c-1.53.21-2.67.45-3.27.45a2.23 2.23 0 01-1.52-.98 5.25 5.25 0 01-.93-1.56zm53.41-4.44l.69.45c-3.6 6.39-9.18 11.19-15.75 15.39-.6.36-.93 1.11-1.59 1.11-1.17 0-3-1.41-3.57-2.31a6.42 6.42 0 01-.63-2l.48-.3c.9 1 1.86 2 2.82 2 2.31 0 13.29-7.9 17.55-14.34zm-20.16-2.82c3.42 1 7.56 3 7.56 5.31a1 1 0 01-1.05 1.11c-.48 0-.87-.33-1.65-1.26a20.2 20.2 0 00-5.22-4.53zm34.71 5.55l.3-.66a31.49 31.49 0 014 1.26c1.83.75 2.94 1.83 2.94 3a.87.87 0 01-.87.93c-.93 0-1.41-1.08-3-2.25a21 21 0 00-3.37-2.28zm22.14-1.68l.69.45c-3.42 6-9.75 11.25-16.38 14.91-.6.36-.93 1.14-1.71 1.14a6.11 6.11 0 01-3.48-2.22 5 5 0 01-.66-2l.48-.27c.81 1 1.74 2 2.76 2 2.04-.03 12.9-6.51 18.3-14.01zm-18.12-4.08l.33-.69a29.74 29.74 0 013.78 1.29c2 1 2.94 2 2.94 3.06a.9.9 0 01-.87 1c-.84 0-1.44-1.2-3-2.49a18.55 18.55 0 00-3.18-2.17zm35.6 4.56a6.44 6.44 0 011.83-.39c1 0 2.52.54 2.52 1s-.15.84-.09 1.47.3 1.68.57 2.79c2.13-.54 5.61-1.47 6.54-1.77.51-.15.87-.63 1.2-.63a3.3 3.3 0 012.31 2.07c0 .45-.81.51-1.2.9a33 33 0 01-5 4.65l-.36-.33a26.72 26.72 0 003.48-5.13c.15-.33 0-.36-.27-.3-1 .21-4.2 1.14-6.39 1.77.78 3 1.83 6.87 2.31 8.46a9.29 9.29 0 01.57 2.1c0 .69-.27 1.08-.93 1.08s-1.26-.72-1.41-1.68c-.36-2.22-1.41-6.81-2.13-9.51-1.29.39-2.7.87-3.21 1-.87.33-1.2.84-1.71.84a3.12 3.12 0 01-2.13-1.53 6.06 6.06 0 01-.21-1.32l.36-.18c.39.42.78 1 1.44 1a39.25 39.25 0 005.13-1.11 28.31 28.31 0 00-1.26-4c-.27-.6-.87-.75-1.86-.87zm31.16-.09v-.63a5 5 0 011.74-.21c1.05.09 3.18 1.23 3.18 2.13 0 .63-.57.84-.72 1.59a20 20 0 01-9.24 12.81l-.51-.63c4.77-3.72 7.8-10 7.8-13.59 0-.96-1.53-1.32-2.25-1.47zm5.84-3.87a5.44 5.44 0 012-.36c1.2 0 3.15 1.08 3.15 1.8s-.6.66-.69 1.59c-.15 1.38-.39 9.54-.39 11.79 0 .42.18.48.48.39a35 35 0 0011.31-8.1l.63.51a35.11 35.11 0 01-11.07 9.51c-.69.42-1.08 1.26-1.68 1.26s-1.86-1.44-1.86-2 .33-.72.42-1.92c.15-1.71.33-9.78.15-12.66 0-.75-.84-1-2.37-1.17zm38.6-2.55a7.23 7.23 0 012.19-.45c1.32 0 2.94 1 2.94 1.47 0 .69-.42.72-.54 1.86-.09.87-.15 2.22-.15 3.3a26.22 26.22 0 005.55-1c1.08 0 2.67.75 2.67 1.53a.72.72 0 01-.75.75 64.66 64.66 0 00-7.47.09c0 2.79 0 7.56.06 9.78.06 1.83.24 2.52.24 3.27 0 1.23-.9 2.55-1.77 2.55s-.81-1-1.41-1.56a17.7 17.7 0 00-3.24-1.8l.24-.54c1.2.3 2.73.66 3.54.78.39.06.6-.09.63-.42.12-1.26.06-6 0-9.54-2.76 4.14-8.46 8.79-13.65 11.1l-.45-.63c5-3.09 10.53-8.22 13-12.69-2.19.24-4.32.63-5.85.9a19.26 19.26 0 01-2.73.66c-.81 0-2.16-1.32-2.43-2a5.17 5.17 0 01-.21-1.68l.57-.24c.69 1.17 1.26 1.8 2 1.77 1.86 0 6.51-.57 9.69-.9 0-1.59 0-3.39-.06-4.44 0-.54-.21-.72-.75-.93a7.28 7.28 0 00-1.92-.36zm36.87-.3a5.33 5.33 0 011.95.33c1.17.39 2.49 1.71 2.49 2.49 0 .57-.54.51-1.35 1.41-1.11 1.23-2.58 2.85-4.56 4.74.84.54 1.53 1 1.53 1.47a13.24 13.24 0 00-.27 1.56c-.21 4.35-.06 8.94-.06 10.74 0 1.11-.27 1.47-.9 1.47-1 0-1.5-1.44-1.5-2.43 0-.54.24-1.14.36-2.13a76.29 76.29 0 00.27-8.4 2.07 2.07 0 00-.45-1.32 42.22 42.22 0 01-11.25 7.11l-.39-.72a47.69 47.69 0 0014.88-12.69 3.62 3.62 0 00.81-1.53c0-.48-.51-.9-1.77-1.53zM574.29 57v-.63a5 5 0 011.74-.21c1.05.09 3.18 1.23 3.18 2.13 0 .63-.57.84-.72 1.59a20 20 0 01-9.24 12.81l-.51-.63c4.77-3.72 7.8-10 7.8-13.59 0-.96-1.54-1.32-2.25-1.47zm5.88-3.84a5.44 5.44 0 012-.36c1.2 0 3.15 1.08 3.15 1.8s-.6.66-.69 1.59c-.15 1.38-.39 9.54-.39 11.79 0 .42.18.48.48.39A35 35 0 00596 60.24l.63.51a35.11 35.11 0 01-11.07 9.51c-.69.42-1.08 1.26-1.68 1.26s-1.86-1.44-1.86-2 .33-.72.42-1.92c.15-1.71.33-9.78.15-12.66 0-.75-.84-1-2.37-1.17zm47.13 3.54a5.06 5.06 0 012.22.81 3.5 3.5 0 011.62 2.34c0 .54-.3.63-1.47 1a57.88 57.88 0 00-8.55 3.39c.09 1.71.09 3.9.09 4.86 0 .72-.33 1.17-.93 1.17s-1-.33-1-1.14.12-2.34.15-4c-2.91 1.65-5 3.57-5 5.34s1.92 2.4 4.77 2.4c4.44 0 6.18-.93 7.62-.93 1 0 1.59.36 1.59.93s-.15.84-1.11 1.11a32.72 32.72 0 01-6.72.81c-5.58 0-7.41-1.74-7.41-4.11s2.73-4.77 6.24-7c-.12-2.55-.69-3.48-2.25-3.48s-3.66 1.68-4.92 3c-1 1.14-1.89 2.55-2.61 2.58s-1-.45-1-1.2 1.11-1.56 2.46-3a28.94 28.94 0 004.2-5.49 18.26 18.26 0 01-2.16.15c-2.46 0-3-.66-4.17-3l.63-.39c1.2 1.26 1.71 1.89 3.93 1.89a14.55 14.55 0 002.67-.3 11.74 11.74 0 001-2.64c.15-.54.06-.75-.54-1a5.91 5.91 0 00-1.68-.42v-.57a6.42 6.42 0 011.71-.3c.93 0 2.88.51 2.88 1.23 0 .42-.24.63-.57 1.29-.21.48-.6 1.23-1 2a29.56 29.56 0 003.9-1.29c1.26-.57 1.47-.84 1.92-.84.66 0 1.29.24 1.29.81 0 .39-.27.66-.84.93a35.14 35.14 0 01-7.26 2.22 35.62 35.62 0 01-2.88 4.23c-.12.15 0 .3.18.18a7.61 7.61 0 013.3-1c1.89 0 3 1.29 3.33 3.54 2.43-1.32 5.49-2.55 7.29-3.51.51-.27.57-.54.15-1a4.26 4.26 0 00-1.47-1zm28.95-8.28s1.56 1.2 2.52 2.1c-.09.33-.36.48-.78.48h-4.62v4.2h1.8l1.08-1.2 2.31 1.8a2.35 2.35 0 01-1.29.6v17.85a2.27 2.27 0 01-1.53.66h-.27v-2.16h-9v2c0 .21-.66.69-1.47.69h-.33V54.27l1.92.93h1.74V51h-4.23l-.21-.87h11zM653.1 63.3c-1.2 0-1.38-.42-1.38-1.35v-5.88h-1.83v1.29c0 2.16-.24 5.37-3.15 7.53l-.3-.36v2.37h9v-3.69a9.47 9.47 0 01-1.5.09zm-6.66-7.23v8.34c1.89-2.31 2-4.95 2-7.08v-1.26zm9 15.78v-4.08h-9v4.08zM651.72 51h-1.83v4.2h1.83zm1.5 5.07v5.4c0 .3.06.39.33.39h1.32a1.06 1.06 0 00.42-.09h.18v-5.7zm17.7 16.41c.63.24.81.48.81.84 0 .9-1 1.23-5.76 1.23h-3.3c-2.4 0-2.94-.45-2.94-2.07V57.39l2.22 1h5.67V51h-8l-.27-.9h7.86l1.14-1.26 2.58 2a2.69 2.69 0 01-1.5.66v9.81a2.45 2.45 0 01-1.56.63h-.3v-2.69h-6V72c0 .57.18.75 1.38.75h3c1.44 0 2.52 0 2.91-.06a.56.56 0 00.6-.42 43.14 43.14 0 001-4.59h.39zm27.75-23.73c-.09.36-.49.48-1.21.54 2.64 3.78 7.62 7 12.9 9.12l-.06.45a2.26 2.26 0 00-1.77 1.56C703.58 58 699 54 696.89 49.65 694.1 54 688.25 59 682.58 61.53l-.24-.45c5.14-2.85 11.19-8.88 12.78-13.2zm5 14.43l2.49 1.92a2.47 2.47 0 01-1.26.6v8.94c0 .21-1.08.63-1.74.63h-.3v-2h-13.08v1.53c0 .21-.86.66-1.7.66h-.33V63.45l2.18 1h12.66zM701 57.12s1.59 1.23 2.61 2.16c-.09.3-.39.45-.81.45h-13.31l-.24-.87h10.4zm1.86 15.3v-7.11h-13.08v7.11z" fill="#fff" data-name="レイヤー 1"/></g></svg>