<svg xmlns="http://www.w3.org/2000/svg" viewBox="0 0 672.35 27.69"><g data-name="レイヤー 2"><path d="M3.27 6C3 7 2.52 7.26 1.89 7.26a1.13 1.13 0 01-1.08-.63c.48-3.15 3.66-4.35 6.75-4.35C11.7 2.28 14 4.65 14 7.86c0 2.49-1.65 4.83-5.07 5.55 3.84.45 5.7 2.64 5.7 6 0 3.9-3.12 6.36-7.68 6.36-3.78 0-6.36-1.5-7-4.29a1.18 1.18 0 011.17-1c.69 0 1.05.33 1.35 1.38l.72 2.22a7.14 7.14 0 003.09.54c3.54 0 5.55-2.07 5.55-5.37S10 14 6.18 14H4.71v-1.07h1.47c2.94 0 5.19-1.68 5.19-5 0-2.82-1.65-4.59-4.47-4.59a7.57 7.57 0 00-3 .54zm26.31 4.56a3 3 0 002 1.17 5.22 5.22 0 002.67-.93c2.82-1.44 7.44-4.08 11.91-4.08 5.49 0 8.31 3.39 8.31 7.11 0 3.9-2.37 6.42-5.61 8-2.67 1.29-7 1.95-11.67 1.71l-.06-.81c4-.24 7.23-.72 10.23-2.19 3.39-1.59 5-3.81 5-7C52.35 10.11 50 8 46.14 8c-3.66 0-7.71 2.67-10 4.08s-3 2.22-3.9 2.22a3.94 3.94 0 01-2.64-1.74 4.37 4.37 0 01-.48-1.68zm48.98 14.1c7.35-1.29 10.89-5.07 10.89-10.5s-4-8.76-8.91-8.76c-.36 0-.72 0-1.08.06a5.6 5.6 0 011.29 3.18 15 15 0 01-.93 4.83c-1.26 3.6-4.74 9.42-7.8 9.42-2 0-4.11-3.18-4.11-6.87a11.52 11.52 0 014-8.43 13 13 0 018.76-3.21c6.18 0 11 4.05 11 10.26 0 5-3.12 10.08-12.93 10.71zm-.21-19a11.41 11.41 0 00-5.67 3 9.65 9.65 0 00-3.09 6.93c0 2.88 1.32 5.07 2.55 5.07 2 0 4.74-4.74 6-7.59a14.12 14.12 0 001.05-4.67 5.24 5.24 0 00-.84-2.76zM120 7.5c2.64 2.94 7.56 5.1 12 6.15v.33a2 2 0 00-1.68 1.65c-4.53-1.56-8.85-4.38-11.13-8.13H119V14a2.09 2.09 0 01-1.62.6h-.3V8a29.94 29.94 0 01-12.54 8.34l-.3-.48A30.61 30.61 0 00114.8 7.5h-9.9l-.27-.9h12.42V3.3c-3.3.3-6.78.51-10.11.51l-.09-.6A102.6 102.6 0 00125.9.06l2.1 2.13c-.24.21-.81.21-1.53-.06-2.13.33-4.71.69-7.5 1V6.6h8.55l1.38-1.71s1.59 1.2 2.58 2.13c-.06.33-.36.48-.78.48zm5.19 6.78l2.34 1.77a2.13 2.13 0 01-1.17.57V26.7c0 .21-1 .66-1.65.66h-.3v-1.83h-12.76v1.32c0 .21-.81.66-1.62.66h-.33v-13l2.1.93h12.33zm-13.53 2V20h12.74v-3.68zm12.75 8.31v-3.77h-12.76v3.81zm22.53-23.27l.39-.39a4.57 4.57 0 011.44.66 4.58 4.58 0 012 2.76 7 7 0 01-.39 1.77 23.93 23.93 0 00-.69 3c-.12.63.12.66.45.06 1.41-2.49 3.51-4.29 5.46-4.29 3.6 0 5.25 3.87 5.25 9.21 0 6.21-2.76 11.22-10.8 13.32l-.33-.69c7.26-2.91 9-7.47 9-12.84 0-4.89-1.35-7.8-3.45-7.8-1.41 0-3.3 1.35-4.35 3.36a12.07 12.07 0 00-1.56 5.73c0 1.2.18 2.07.18 3.06a.86.86 0 01-.84 1 1.06 1.06 0 01-1.05-.75 8.37 8.37 0 01-.45-2.79c0-3.24 1.44-9 1.44-10.65s-.44-2.29-1.7-3.73zm35.93 1.62a5 5 0 011.95-.39c1.23 0 3.45 1.05 3.45 1.8s-.6 1-.93 1.74S186.59 8 186 9.27a15.35 15.35 0 012.51-.27c2.25 0 3.54 1.23 3.54 4.77S191 21.6 189.2 23.82a4.49 4.49 0 01-3.63 1.89c-1 0-1.2-.42-1.59-1.29-.21-.45-.42-.81-2.1-2.25l.36-.48c1.56 1 2.91 1.8 3.6 1.8a2.62 2.62 0 002.4-1.56 18.51 18.51 0 002.1-8.61c0-2.19-.51-3.12-2.19-3.12a11.7 11.7 0 00-2.7.45c-.87 2-1.89 4.29-2.85 6.3a76.36 76.36 0 01-4.44 8.16c-.45.72-.78.93-1.23.93a1 1 0 01-.9-1.11 2 2 0 01.48-1.38 47 47 0 004.68-7.41c.72-1.44 1.53-3.21 2.25-5-1.11.36-2.13.72-2.73 1a7.09 7.09 0 01-2.46.84c-.78 0-1.89-1.14-2.13-2.1a3.83 3.83 0 01.06-1.74l.6-.09c.33.81.54 1.77 1.41 1.77a53.5 53.5 0 005.88-1.2 24.59 24.59 0 001.56-4.83.73.73 0 00-.48-.78 7.87 7.87 0 00-2.28-.45zM194.39 9a7.8 7.8 0 015.13 2.49 8.16 8.16 0 011.86 5.51c0 1.2-.39 2.19-1.26 2.22s-.81-.84-1.68-1a18.65 18.65 0 00-3.54.15l-.18-.72a33.16 33.16 0 003.84-.9c.63-.24.72-.51.69-1.29a6.8 6.8 0 00-1.25-3.37 5.85 5.85 0 00-4-2.34zm1.23-5.19a11 11 0 013.42 2c.75.69 1.05 1.2 1.05 1.77a.72.72 0 01-.72.81c-.48 0-.84-.69-1.41-1.44a13.09 13.09 0 00-2.76-2.64zm2.7-1.95a11.49 11.49 0 013.42 1.77 2.38 2.38 0 011.11 1.86c0 .51-.24.75-.69.75s-.78-.69-1.44-1.44a14.22 14.22 0 00-2.79-2.4zm27.05 6.66s1.47 1.14 2.4 2c-.09.33-.36.48-.81.48h-12.69l-.21-.9h5.49V7.44h-4.23l-.24-.9h4.47V4.2h-4.74l-.24-.87h5V.21l2.88.3c0 .42-.3.66-.93.78v2h2.16l1.23-1.62s1.47 1.17 2.37 2c-.09.33-.36.45-.75.45h-5v2.42h1.89l1.2-1.47S226 6.15 226.81 7c-.09.33-.33.48-.75.48h-4.56v2.7h2.58zm15 3.42a25.34 25.34 0 011.71 1.89.69.69 0 01-.75.45h-2.19v6.06a2.19 2.19 0 01-1.47.57h-.36v-1.62h-3.51v5.28c0 1.53-.36 2.64-2.91 2.91a2.09 2.09 0 00-.57-1.38 4.66 4.66 0 00-2.34-.75v-.45s2.73.18 3.3.18.63-.15.63-.57v-5.22h-4.41l-.27-.87h4.68v-4.14h-5.34l-.06-.27a2.67 2.67 0 01-1.17.51v10.29c0 1.5-.3 2.43-2.79 2.7a2.43 2.43 0 00-.51-1.38 4.43 4.43 0 00-2.1-.69V25s2.37.18 2.91.18.63-.15.63-.57v-3.52h-5.61v5.76c0 .18-.75.66-1.53.66H216V12.36l2 .93h5.16l.93-1.17 2.37 1.77-.12-.48h5.55v-4h-4l-.27-.87H233a33.7 33.7 0 002.43-4.26h-4.14a20.83 20.83 0 01-4.47 4.56l-.36-.3a25 25 0 004.73-8.45l3 .81c-.09.3-.3.45-1 .39a22.86 22.86 0 01-1.26 2.1h3.6l1.23-1.26 2.22 2c-.21.21-.57.27-1.17.3a41.46 41.46 0 01-4 4.05h3.63l1-1.08 1.92 1.77a2.52 2.52 0 01-1.14.51v3.72h.27zm-22.53 2.22v2.49h5.61v-2.49zm5.61 6.06v-2.67h-5.61v2.67zm10.32-6.81h3.54v-4h-3.51zm3.54.87h-3.51v4.14h3.54zm29.79-7.74a6.66 6.66 0 012.13.57 3.55 3.55 0 011.83 2.4c0 .6-.72.84-1.92 1.26a49.44 49.44 0 00-7.32 3.42c-2.4 1.38-5.7 3.9-5.7 6.69 0 1.77 1.68 3.18 6.36 3.18a42.51 42.51 0 007.38-.84c1.05 0 2 .27 2 1.17 0 .39-.48.75-1.08.93a31.45 31.45 0 01-7.65.72c-5.25 0-8.4-1.71-8.4-4.83 0-3.39 3.48-6.3 5.46-7.71a5.2 5.2 0 01-1.79-2.5 34.66 34.66 0 01-1.32-6.27 1.06 1.06 0 00-.84-1 11.89 11.89 0 00-1.65-.39v-.63a7 7 0 011.92-.3c1.35 0 2.94 1 3 1.65a15.27 15.27 0 00-.21 1.56 19 19 0 00.66 4.56 4.27 4.27 0 001.65 2.46c2.22-1.32 5.31-2.88 6.42-3.48.48-.24.6-.45.39-.84A3.26 3.26 0 00266.83 7zm43.43 17.01s1.68 1.32 2.67 2.31c-.06.33-.33.45-.75.45h-26.31l-.27-.87h12.6V18h-9.6l-.27-.9H307l1.41-1.74s1.65 1.23 2.64 2.16a.72.72 0 01-.78.48h-9.78v7.47H309zM290 5.19a5.19 5.19 0 01-1.56 4.14c-.72.63-1.8.78-2.19.12s0-1.26.66-1.68a6.55 6.55 0 002.13-5.31h.54a11.55 11.55 0 01.42 1.83h8.49V0l3.06.33c-.06.39-.36.69-1 .78v3.18h9L310.83 3l2.37 2.28c-.18.24-.57.27-1.14.3a25.72 25.72 0 01-4.32 3.69l-.39-.27a40.86 40.86 0 002.13-3.84h-5.82v6.39c0 .42.12.51 1.17.51h5.37c.42 0 .42-.09.54-.36a16.62 16.62 0 00.87-3.24h.39l.09 3.33c.66.24.81.48.81.87 0 .87-.87 1.23-5.4 1.23h-3.09c-2.28 0-2.7-.48-2.7-2v-6.7H298c-1 5.91-4.23 8.91-11.28 10.59l-.15-.45c6-2.13 8.37-5.1 9.12-10.14zm46.23 19.47c7.35-1.29 10.89-5.07 10.89-10.5s-4-8.76-8.91-8.76c-.36 0-.72 0-1.08.06a5.6 5.6 0 011.29 3.18 15 15 0 01-.93 4.83c-1.26 3.6-4.74 9.42-7.79 9.42-2 0-4.12-3.18-4.12-6.87a11.56 11.56 0 014-8.43 13 13 0 018.76-3.21c6.18 0 10.95 4.05 10.95 10.26 0 5-3.12 10.08-12.93 10.71zm-.21-19a11.41 11.41 0 00-5.67 3 9.65 9.65 0 00-3.09 6.93c0 2.88 1.32 5.07 2.55 5.07 2 0 4.74-4.74 6-7.59a14.35 14.35 0 001.07-4.62 5.15 5.15 0 00-.88-2.81zm48.23 6.64v6.21h1.29l1.29-1.8s1.53 1.26 2.43 2.19c-.09.3-.33.45-.75.45H362.2l-.24-.84h4.65V12.3H362l-.24-.84h4.86V5.91a20.23 20.23 0 01-4.41 3.48l-.37-.39a27 27 0 006.24-9l3 1.38a1.19 1.19 0 01-1.23.39 22.21 22.21 0 01-1.65 2.37l.54.24h16l1.44-1.8s1.59 1.29 2.55 2.19c-.06.33-.36.48-.78.48h-3.66v6.21h1.38l1.33-1.8s1.59 1.26 2.52 2.16c-.06.33-.33.48-.75.48zM367 20.52c.66 3.69-1.08 5.82-2.52 6.6-.84.54-2 .57-2.28-.12s.15-1.17.78-1.56a6 6 0 003.51-5zm1.41-9.06h3.3V5.25h-3.3zm0 7.05h3.3V12.3h-3.3zm2.59 2.31c4.47 3.87 2.25 7.89.63 6a13.68 13.68 0 00-1.06-5.82zm2.52-15.57v6.21h3.54V5.25zm0 7.05v6.21h3.54V12.3zm3 8.46c6.09 3.27 4.41 7.65 2.52 6a13.24 13.24 0 00-2.89-5.76zm2.4-15.51v6.21h3.48V5.25zm3.48 7.05h-3.48v6.21h3.48zm0 8.1c8.49 3 7.2 8.4 4.8 6.84-.6-2.22-3.09-5-5.16-6.57zm43.33 3.45s1.71 1.32 2.7 2.28c-.06.3-.33.45-.78.45h-26.52l-.21-.87h12.66v-3.39H403.5l-.27-.9h10.35v-3h-6.72V19c0 .21-.84.66-1.65.66h-.3v-11l2.13 1h6.54V6.78h-11.94l-.27-.87h12.21V3.15c-3.3.3-6.78.48-10.05.51l-.09-.6a119.13 119.13 0 0019.44-3l2 2c-.27.21-.84.21-1.56-.12-2.22.36-4.89.72-7.77 1v2.97H424l1.41-1.77s1.65 1.26 2.67 2.19c-.09.3-.39.45-.81.45h-11.7V9.6H422l1.08-1.2 2.46 1.86a2.35 2.35 0 01-1.29.6v8a3.23 3.23 0 01-1.65.54h-.3v-1h-6.78v3h7l1.35-1.62s1.59 1.17 2.52 2a.68.68 0 01-.75.48h-10.08v3.39h8.7zM406.86 10.5v3h6.72v-3zm6.72 7v-3.13h-6.72v3.12zm2-7v3h6.78v-3zm6.78 7v-3.13h-6.78v3.12zm43.28-9.07a2.39 2.39 0 01-1.26.48c-.27 8.76-1 15.42-2.43 17.07a4.91 4.91 0 01-3.72 1.38 1.74 1.74 0 00-.63-1.53 12.59 12.59 0 00-3.54-1v-.54c1.62.18 4.26.42 5 .42a1.41 1.41 0 001.23-.42c1.17-1 1.74-7.53 2-15.69h-8.91c-.6 7.59-2.82 14.22-13.05 19L440 27c8.67-4.86 10.77-11.13 11.28-18.42h-9.51l-.27-.87h9.84c.12-2.43.12-5 .12-7.62l3.27.36c-.09.42-.36.75-1.08.84 0 2.19-.06 4.35-.18 6.42h8.58l1.2-1.32zm31.8.27a5.06 5.06 0 012.22.81 3.5 3.5 0 011.62 2.34c0 .54-.3.63-1.47 1a57.88 57.88 0 00-8.55 3.39c.09 1.71.09 3.9.09 4.86 0 .72-.33 1.17-.93 1.17s-1-.33-1-1.14.12-2.34.15-4c-2.91 1.65-5 3.57-5 5.34s1.92 2.4 4.77 2.4c4.44 0 6.18-.93 7.62-.93 1.05 0 1.59.36 1.59.93s-.15.84-1.11 1.11a32.72 32.72 0 01-6.72.81c-5.58 0-7.41-1.74-7.41-4.11s2.73-4.77 6.24-7c-.12-2.55-.69-3.48-2.25-3.48s-3.66 1.68-4.92 3c-1.05 1.14-1.89 2.55-2.61 2.58s-1-.45-1-1.2 1.11-1.56 2.46-3a28.94 28.94 0 004.2-5.49 18.26 18.26 0 01-2.16.15c-2.46 0-3-.66-4.17-3l.63-.39c1.2 1.26 1.71 1.89 3.93 1.89a14.55 14.55 0 002.67-.3 11.74 11.74 0 001-2.64c.15-.54.06-.75-.54-1a5.91 5.91 0 00-1.68-.42v-.55a6.42 6.42 0 011.71-.3c.93 0 2.88.51 2.88 1.23 0 .42-.24.63-.57 1.29-.21.48-.6 1.23-1 2A29.56 29.56 0 00492 4.74c1.26-.57 1.47-.84 1.92-.84.66 0 1.29.24 1.29.81 0 .39-.27.66-.84.93a35.14 35.14 0 01-7.23 2.22 35.62 35.62 0 01-2.88 4.23c-.12.15 0 .3.18.18a7.61 7.61 0 013.3-1c1.89 0 3 1.29 3.33 3.54 2.43-1.32 5.49-2.55 7.29-3.51.51-.27.57-.54.15-1a4.26 4.26 0 00-1.47-1zm40.62 14.79s1.77 1.32 2.85 2.34c-.09.33-.36.48-.78.48h-26.52l-.24-.9H526v-8.73h-9l-.24-.84H526V8.22h-6.75a26.61 26.61 0 01-5.64 7l-.39-.3a39.14 39.14 0 006.66-13.74l3.15 1c-.12.36-.51.63-1.17.6a36.06 36.06 0 01-2.1 4.62H526V.12l3.12.36c-.09.42-.33.72-1.05.84v6h6.78l1.53-1.86a33.39 33.39 0 012.79 2.25c-.09.33-.39.48-.81.48H528v7.62h5.67l1.6-1.81s1.71 1.32 2.79 2.28c-.06.3-.36.45-.78.45H528v8.73h8.46zm32.37-12.18a4.06 4.06 0 011.59-.18c.93.12 2.13.84 2.13 1.41a15.61 15.61 0 01-.24 1.65c-.09.57-.27 1.65-.51 2.7a16.29 16.29 0 013.3 2.37 2.15 2.15 0 01.72 1.74.77.77 0 01-.84.84c-.75 0-1.56-1.26-3.81-2.88-1.68 4.14-5.37 6.87-10.83 8.1l-.45-.69c4.77-1.47 8.19-4.5 9.69-8.49a17.41 17.41 0 00-9.9-2.85h-.06c-1.32 2.52-2.85 5.79-3.72 7-.93 1.35-1.8 2.1-3.18 2.1-1.68 0-2.61-2.55-2.19-4.68.63-2.91 4.17-5 8-5.52l.15-.27c1.41-2.58 4.11-6.9 4.83-8.28.24-.48.09-.63-.3-.51-1.08.36-2.94 1.08-4.08 1.56-.51.21-.93.69-1.47.69a3.33 3.33 0 01-2.43-1.92 5.27 5.27 0 01-.18-1.59l.57-.18c.45.81.75 1.56 1.62 1.56a27.9 27.9 0 005.31-1.2c1.05-.33 1.2-.81 1.68-.81.81 0 2.52 1.2 2.52 1.89s-1.08.93-1.74 1.74a70.71 70.71 0 00-4.68 7.08l-.06.12h.13a23.13 23.13 0 019.75 2.19 9.16 9.16 0 00.27-2.79.86.86 0 00-.48-.93 4.54 4.54 0 00-1.14-.42zm-11 3.87c-3.21.48-5.67 2.22-6.18 4.14-.33 1.29.27 2.64 1.08 2.64s1.2-.42 1.86-1.32 2.12-3.42 3.26-5.46zm55.21.15c-.06.42-.33.69-1.08.81v10.47c0 .24-.81.66-1.56.66h-.36V24.9H592.5v2c0 .24-.81.63-1.53.63h-.36V15l3 .33c-.06.42-.33.69-1.08.81V24H601V12.42h-7v1.08c0 .24-.81.63-1.53.63h-.36V2.88l3 .33c-.06.39-.33.66-1.08.78v7.53h7V.24l2.97.33c-.09.42-.33.72-1 .84v10.11h7.2V2.88l3 .33c-.06.39-.36.66-1.08.78v9.39c0 .21-.84.6-1.56.6h-.36v-1.56H603V24h8.67v-9zM637.1 2.52a4.67 4.67 0 012-.63c1.24 0 3.09.66 3.09 1.41s-.45 1.17-.51 1.92c0 .39 0 1-.06 1.71 5-.54 6.87-.81 7.5-.81 1.05 0 2.61.57 2.61 1.53 0 .54-.27.78-.84.78a38.36 38.36 0 00-9.27-.21v4.62a5.71 5.71 0 011.38 4.05c0 5.49-4.14 8.85-9.92 10.29l-.4-.75c3.66-1.35 6.66-3.48 7.75-6.42-3 1.35-5.34-1-5.34-4a4 4 0 013.91-4.25 5.31 5.31 0 011.23.15c0-.9-.09-2.19-.15-3.54a67.51 67.51 0 00-7.95 1.47c-1.35.33-2 .81-2.72.81-1 0-2.41-1.35-2.74-2.19a6.11 6.11 0 01-.3-1.8l.57-.21c.66 1 1.23 2 2.25 2s7.29-.9 10.83-1.29c0-1.08-.09-2.1-.15-2.85-.06-.6-.21-.78-.69-.93a12 12 0 00-2-.21zm3.9 13.41c0-1.93-1-2.93-2.28-2.93a2.61 2.61 0 00-2.46 2.85 2.59 2.59 0 002.43 2.88c1.5-.01 2.31-.73 2.31-2.8zm22.92 7.53a4.22 4.22 0 114.23 4.23 4.24 4.24 0 01-4.23-4.23zm1 0a3.19 3.19 0 103.2-3.18 3.19 3.19 0 00-3.12 3.18z" fill="#fff" data-name="レイヤー 1"/></g></svg>