<svg xmlns="http://www.w3.org/2000/svg" viewBox="0 0 445.47 27.63"><g data-name="レイヤー 2"><path d="M11.31 8.58s1.47 1.14 2.4 2c-.09.33-.36.48-.81.48H.21L0 10.2h5.49V7.5H1.26L1 6.6h4.49V4.26H.75l-.24-.87h5V.27l2.88.3c0 .42-.3.66-.93.78v2H9.6l1.23-1.62s1.47 1.17 2.37 2c-.09.33-.36.45-.75.45h-5V6.6h1.88l1.2-1.47S11.91 6.21 12.75 7c-.09.33-.33.48-.75.48H7.44v2.7H10zm15 3.42a25.34 25.34 0 011.71 1.89.69.69 0 01-.75.45h-2.16v6.06a2.19 2.19 0 01-1.47.57h-.36v-1.62h-3.54v5.28c0 1.53-.36 2.64-2.91 2.91a2.09 2.09 0 00-.57-1.38 4.66 4.66 0 00-2.34-.75V25s2.73.18 3.3.18.63-.15.63-.57v-5.26h-4.41l-.27-.87h4.68v-4.14h-5.34l-.06-.27a2.67 2.67 0 01-1.17.51v10.29c0 1.5-.3 2.43-2.79 2.7A2.43 2.43 0 008 26.19a4.43 4.43 0 00-2.1-.69V25s2.37.18 2.91.18.63-.15.63-.57v-3.46H3.81v5.76c0 .18-.75.66-1.53.66H2V12.42l2 .93h5.12l.93-1.17L12.42 14l-.12-.48h5.55v-4h-4l-.27-.87h5.32a33.7 33.7 0 002.43-4.26h-4.14a20.83 20.83 0 01-4.47 4.56l-.36-.3a25 25 0 004.77-8.5l3 .81c-.09.3-.3.45-1.05.39a22.86 22.86 0 01-1.26 2.1h3.6l1.23-1.26 2.22 2c-.21.21-.57.27-1.17.3a41.46 41.46 0 01-4 4.05h3.63l1-1.08 1.92 1.77a2.52 2.52 0 01-1.14.51v3.72h.27zm-22.5 2.22v2.49h5.61v-2.49zm5.61 6.06v-2.67H3.81v2.67zm10.32-6.81h3.54v-4h-3.54zm3.54.87h-3.54v4.14h3.54zM56 6.6a6.66 6.66 0 012.13.57A3.55 3.55 0 0160 9.57c0 .6-.72.84-1.92 1.26a49.44 49.44 0 00-7.32 3.42c-2.4 1.38-5.7 3.9-5.7 6.69 0 1.77 1.68 3.18 6.36 3.18a42.51 42.51 0 007.38-.84c1.05 0 2 .27 2 1.17 0 .39-.48.75-1.08.93a31.45 31.45 0 01-7.65.72c-5.25 0-8.4-1.71-8.4-4.83 0-3.39 3.48-6.3 5.46-7.71A5.2 5.2 0 0147.34 11 34.66 34.66 0 0146 4.74a1.06 1.06 0 00-.84-1 11.89 11.89 0 00-1.65-.39v-.63a7 7 0 011.92-.3c1.35 0 2.94 1 3 1.65a15.27 15.27 0 00-.21 1.56 19 19 0 00.66 4.56 4.27 4.27 0 001.65 2.46c2.22-1.32 5.31-2.88 6.42-3.48.48-.24.6-.45.39-.84a3.26 3.26 0 00-1.53-1.26zm46.47 17.01s1.68 1.32 2.67 2.31c-.06.33-.33.45-.75.45H78.08l-.27-.87h12.6V18h-9.6l-.27-.9h18.39l1.41-1.74s1.66 1.26 2.66 2.19a.72.72 0 01-.78.48h-9.8v7.47H101zM82 5.25a5.19 5.19 0 01-1.56 4.14c-.72.63-1.8.78-2.19.12s0-1.26.66-1.68A6.55 6.55 0 0081 2.52h.54a11.55 11.55 0 01.36 1.83h8.49V.09l3.06.33c-.06.39-.36.69-1 .78v3.15h9L102.77 3l2.37 2.28c-.18.24-.57.27-1.14.3a25.72 25.72 0 01-4.32 3.72l-.39-.21a40.86 40.86 0 002.13-3.84H95.6v6.39c0 .42.12.51 1.17.51h5.37c.42 0 .42-.09.54-.36a16.62 16.62 0 00.87-3.24h.39l.09 3.33c.66.24.81.48.81.87 0 .87-.87 1.23-5.4 1.23h-3.09c-2.28 0-2.7-.48-2.7-1.95V5.25H89.9c-1 5.91-4.23 8.91-11.28 10.59l-.15-.45c6-2.13 8.37-5.1 9.12-10.14zm37.9 14.85c3.6 1.14 5.49 2.67 6.48 4.11a3.3 3.3 0 01.72 2 1.2 1.2 0 01-1.23 1.35c-.63 0-1-.36-1.44-1.26a13.87 13.87 0 00-4.86-5.7zm49.17-7.74v6.21h1.29l1.29-1.8s1.53 1.23 2.43 2.23c-.09.3-.33.45-.75.45H147l-.24-.84h4.65v-6.25h-4.62l-.24-.84h4.86V6A20.23 20.23 0 01147 9.45l-.36-.36a27 27 0 006.24-9l3 1.38a1.19 1.19 0 01-1.23.39A22.21 22.21 0 01153 4.2l.54.24h16l1.46-1.8s1.59 1.29 2.55 2.19c-.06.33-.36.48-.78.48h-3.66v6.21h1.38l1.35-1.8s1.59 1.26 2.52 2.16c-.06.33-.33.48-.75.48zm-17.25 8.22c.66 3.69-1.08 5.82-2.52 6.6-.84.54-2 .57-2.28-.12s.15-1.17.78-1.56a6 6 0 003.51-4.95zm1.41-9.06h3.3V5.31h-3.3zm0 7.05h3.3v-6.21h-3.3zm2.58 2.31c4.47 3.87 2.25 7.89.63 6a13.68 13.68 0 00-1.05-5.88zm2.52-15.57v6.21h3.54V5.31zm0 7.05v6.21h3.54v-6.21zm3 8.46c6.09 3.27 4.41 7.65 2.52 6a13.24 13.24 0 00-2.85-5.76zm2.4-15.51v6.21h3.48V5.31zm3.48 7.05h-3.48v6.21h3.48zm0 8.1c8.49 3 7.2 8.4 4.8 6.84-.6-2.22-3.09-5-5.16-6.57zm46.35 3.45s1.71 1.32 2.7 2.28c-.06.3-.33.45-.78.45H189l-.21-.87h12.66v-3.39h-10.12l-.27-.9h10.35v-3h-6.72v.6c0 .21-.84.66-1.65.66h-.3V8.7l2.13 1h6.54V6.84h-11.94L189.2 6h12.21V3.21c-3.3.3-6.78.48-10 .51l-.09-.6a119.13 119.13 0 0019.44-3l2 2c-.27.21-.84.21-1.56-.12-2.22.36-4.89.72-7.77 1v3h8.43l1.41-1.77s1.65 1.26 2.67 2.19c-.09.3-.39.45-.81.45h-11.7v2.79h6.48l1.09-1.2 2.46 1.86a2.35 2.35 0 01-1.29.6v8a3.23 3.23 0 01-1.65.54h-.3v-1h-6.78v3h7l1.35-1.62s1.59 1.17 2.52 2a.68.68 0 01-.75.48h-10.17v3.39h8.7zm-18.87-13.35v3h6.72v-3zm6.72 7v-3.13h-6.72v3.12zm2-7v3h6.78v-3zm6.78 7v-3.13h-6.78v3.12zm46.27-9.07a2.39 2.39 0 01-1.26.51c-.27 8.76-1 15.42-2.43 17.07a4.91 4.91 0 01-3.72 1.38 1.74 1.74 0 00-.63-1.53 12.59 12.59 0 00-3.54-1v-.54c1.62.18 4.26.42 5 .42a1.41 1.41 0 001.23-.42c1.17-1 1.74-7.53 2-15.69h-8.91c-.6 7.59-2.82 14.22-13.05 19l-.36-.54c8.67-4.86 10.77-11.13 11.28-18.42h-9.51l-.27-.87h9.84c.12-2.43.12-5 .12-7.62l3.27.36c-.09.42-.36.75-1.08.84 0 2.19-.06 4.35-.18 6.42h8.58l1.2-1.32zm34.8.27a5.06 5.06 0 012.22.81 3.5 3.5 0 011.62 2.34c0 .54-.3.63-1.47 1a57.88 57.88 0 00-8.55 3.39c.09 1.71.09 3.9.09 4.86 0 .72-.33 1.17-.93 1.17s-1-.33-1-1.14.12-2.34.15-4c-2.91 1.65-5 3.57-5 5.34s1.92 2.4 4.77 2.4c4.44 0 6.18-.93 7.62-.93 1.05 0 1.59.36 1.59.93s-.15.84-1.11 1.11a32.72 32.72 0 01-6.72.81c-5.58 0-7.41-1.74-7.41-4.11s2.73-4.77 6.24-7c-.12-2.55-.69-3.48-2.25-3.48s-3.66 1.68-4.92 3c-1.05 1.14-1.89 2.55-2.61 2.58s-1-.45-1-1.2 1.11-1.56 2.46-3a28.94 28.94 0 004.2-5.49 18.26 18.26 0 01-2.16.15c-2.46 0-3-.66-4.17-3l.63-.39c1.2 1.26 1.71 1.89 3.93 1.89a14.55 14.55 0 002.67-.3 11.74 11.74 0 001-2.64c.15-.54.06-.75-.54-1a5.91 5.91 0 00-1.68-.42v-.55a6.42 6.42 0 011.71-.3c.93 0 2.88.51 2.88 1.23 0 .42-.24.63-.57 1.29-.21.48-.6 1.23-1 2a29.56 29.56 0 003.9-1.29c1.26-.57 1.47-.84 1.92-.84.66 0 1.29.24 1.29.81 0 .39-.27.66-.84.93a35.14 35.14 0 01-7.22 2.2 35.62 35.62 0 01-2.88 4.23c-.12.15 0 .3.18.18a7.61 7.61 0 013.3-1c1.89 0 3 1.29 3.33 3.54 2.43-1.32 5.49-2.55 7.29-3.51.51-.27.57-.54.15-1a4.26 4.26 0 00-1.47-1zm22.91-.42c0 3.48-.3 8.31-4.14 11.58l-.36-.36c2.4-3.33 2.61-7.44 2.61-11.19V2.73l2.25 1h11c-.15-1.2-.24-2.46-.27-3.72l3 .3c-.06.36-.3.69-1 .78 0 .87.09 1.74.18 2.64h6L334.75 2s1.47 1.26 2.34 2.16c-.06.3-.33.45-.75.45h-8.73a21.1 21.1 0 002.19 6.9 24.08 24.08 0 002.4-5.34l2.88 1.11a1.07 1.07 0 01-1.17.51 21.74 21.74 0 01-3.12 5.31 12.48 12.48 0 003.45 3.3c.42.33.63.33.87-.12a20.64 20.64 0 001.08-2.85l.39.09-.39 3.66c.81 1 .9 1.35.69 1.68-.6.87-2.28.21-3.54-.63a15.63 15.63 0 01-3.84-3.72 18.25 18.25 0 01-5.16 3.66l-.36-.39a18.91 18.91 0 004.65-4.53 23.22 23.22 0 01-2.94-8.64h-11.52zm.54 11.31c.63 3.48-.87 5.64-2.16 6.48-.78.48-1.86.6-2.22-.06s.15-1.23.78-1.62a6.15 6.15 0 003.06-4.83zm8.7-14s1.41 1.14 2.31 2c-.09.33-.36.48-.78.48h-9.51l-.24-.9h7zm-5.58 11a2.08 2.08 0 01-1.53.6h-.3V9.57l2 .87h4.14l1-1.11 2.34 1.77a2.36 2.36 0 01-1.2.54v4.44c0 .21-1 .6-1.59.6h-.27V15.6h-4.56zM330.25 25c.69.21.87.42.87.78 0 .93-1 1.26-6.48 1.26h-4c-2.61 0-3.09-.42-3.09-1.92v-6.07l2.79.3a.94.94 0 01-.87.75v4.68c0 .42.12.51 1.44.51h3.78c1.71 0 3 0 3.54-.06a.6.6 0 00.66-.36 16.91 16.91 0 00.87-3.12h.39zm-12.42-13.66v3.39h4.56v-3.39zm3.39 7c7 1.2 6.15 5.61 4 4.53a11.1 11.1 0 00-4.22-4.24zM329.14.12c5.37.33 4.17 3.84 2.34 2.82a6.82 6.82 0 00-2.61-2.52zm1.62 19.32c8.19 2.82 6.81 8.07 4.44 6.54-.6-2.13-2.88-4.74-4.77-6.24zm23.29-15.72v-.63a8.31 8.31 0 011.95-.21c1.41.06 3.48 1.59 3.48 2.43 0 .63-.57.84-.84 2.25a79.13 79.13 0 00-1 11.76c0 3.81 1.11 5.25 4.41 5.25a13.92 13.92 0 0011.37-6.42l.66.45a13.39 13.39 0 01-12 8c-4 0-6.09-1.95-6.09-7.08 0-4.65.72-11.7.72-13.44 0-1.08-.18-1.41-.69-1.71a6 6 0 00-1.97-.65zm12.63 6.69a12.85 12.85 0 00-3-2.88L364 7a11.81 11.81 0 013.66 2 2.64 2.64 0 011.23 2.1.65.65 0 01-.72.69c-.44.06-.83-.54-1.49-1.38zm3-2.58A13.58 13.58 0 00366.41 5l.39-.51a11.27 11.27 0 013.69 1.83 3 3 0 011.38 2.19.65.65 0 01-.69.72c-.51.04-.84-.53-1.53-1.4zm32 2.88c0 1.38.11 5.34.29 7.71 0 .27.07.54.1.78a17.58 17.58 0 014.31 1.38c1.87.84 4.41 2.4 4.41 4a.79.79 0 01-.87.87c-.89 0-1.86-1.71-4.73-3.33a12.61 12.61 0 00-2.91-1.2c0 .39.06.81.06 1.32 0 2.52-1.89 4.2-5.55 4.2-3.12 0-5.31-1.35-5.31-3.48 0-2.79 3.48-4.05 7.08-4.05.69 0 1.35 0 1.95.09-.09-2.28-.36-6.42-.36-8.46s-.06-5.28-.12-5.88a1.06 1.06 0 00-.82-1.08 9.16 9.16 0 00-2.09-.3l-.06-.63a6.8 6.8 0 012.22-.45c1.56 0 3.42 1 3.42 1.71s-.36.93-.6 1.83a23.45 23.45 0 00-.39 3.6h.87a16.7 16.7 0 003.87-.6 11.38 11.38 0 011.88-.66c1.17 0 1.75.39 1.75 1 0 .36-.33.72-1.12 1a21.08 21.08 0 01-5.27.81 5.43 5.43 0 01-2-.57zm-1.11 9.78a18.23 18.23 0 00-2.91-.24c-2.88 0-5 1.08-5 2.52 0 1.05 1.11 1.89 3.36 1.89 3.71 0 4.52-1.32 4.55-4.17zm29.49-10.8c.48 1.23 1 1.89 1.71 1.89 1.32 0 5.25-2.43 8.46-2.43s5.24 2.46 5.24 6.45c0 6.63-5.15 10.32-13.25 11.58l-.24-.69c7.29-1.77 11.34-5.31 11.34-11.25 0-3.21-1.41-5-3.28-5s-4.88 1.86-6 2.61c-.66.45-1.2 1.05-1.95 1.05a3.33 3.33 0 01-2.43-2 3.67 3.67 0 01-.12-2.07zm2.34-8.16l.36-.48a9.47 9.47 0 005.67 1.74c.86 0 1.92-.24 2.4-.24 1.08 0 2.34.48 2.34 1.29 0 .39-.37.6-1 .63a9.86 9.86 0 00-2.16.3c-1.5.42-4 1.44-5.46 2l-.27-.57c1.26-.69 2.64-1.44 3.48-2a7.9 7.9 0 01-5.36-2.67z" fill="#fff" data-name="レイヤー 1"/></g></svg>