<svg xmlns="http://www.w3.org/2000/svg" viewBox="0 0 251.98 127.22"><g data-name="レイヤー 2"><path d="M82.6 38a70.62 70.62 0 00-6.17-11.71A52.58 52.58 0 0067.67 16a42.65 42.65 0 00-11.06-7.33A39.12 39.12 0 0042.53 5.5c-9.77-.38-21.69 3.24-23.17 18.1a15 15 0 003 10.23 29.47 29.47 0 008.12 7.66A74.79 74.79 0 0042 47.57q6.45 2.76 13.18 5.62t13.19 6.18a53.22 53.22 0 0111.56 7.93A36.3 36.3 0 0188 78a32.27 32.27 0 013 14.57 34.11 34.11 0 01-3.32 15.58 30.81 30.81 0 01-9 10.79 37.94 37.94 0 01-13.09 6.26 60.29 60.29 0 01-16 2 57.53 57.53 0 01-9.58-.85q-5-.87-9.59-1.91l-8.39-1.91a28.93 28.93 0 00-6-.86 11.66 11.66 0 00-3.88.65l-3.87 1.38q-1.65-10.47-3.87-20.47T0 82.78l2.4-1.28a133.63 133.63 0 008 13.4A81 81 0 0021 107.65a58.26 58.26 0 0013 9.63 31.73 31.73 0 0015.39 3.86 43.92 43.92 0 0010.33-1.2 26.3 26.3 0 008.76-3.77 18.58 18.58 0 006-6.72 21.43 21.43 0 002.22-10.22 20.51 20.51 0 00-5.34-14.45 51.48 51.48 0 00-13.28-10.13 156.78 156.78 0 00-17.24-8 126.92 126.92 0 01-17.24-8.29A50.67 50.67 0 0110.33 47.5Q5 41.25 5 31.66a30.17 30.17 0 0110.21-23.1 33.19 33.19 0 0110.88-6.35A38.92 38.92 0 0139.27 0a74.24 74.24 0 0112.26.92Q57 1.85 62.14 3q5.34 1.11 10.51 2.12a57 57 0 0011.06 1c0 5.54.09 10.91.28 16.14S84.57 32.7 85.18 38zm158.48-25.63s-17.61-1.64-45.86-1.64-45.85 1.64-45.85 1.64V2.25S167 3.89 195.22 3.89s45.86-1.64 45.86-1.64zM138.46 40c6.53.34 19 .74 23.6.67 3.69-.06 7.35-.07 11-.19s7.28-.31 11-.55v2.21a45.4 45.4 0 00-9.83 1.86 14.32 14.32 0 00-6.08 3.69 13.73 13.73 0 00-3.15 6.17 39.68 39.68 0 00-.92 9.31v23.12A34.3 34.3 0 00167 101c5 10.67 17.26 17 33.28 17a36.7 36.7 0 0027.32-12.07 30.65 30.65 0 007.75-21.11V70.18a100.9 100.9 0 00-.65-12.45 21.37 21.37 0 00-2.58-8.3 12.34 12.34 0 00-5.44-4.88 30.77 30.77 0 00-9-2.4v-2.21c3.8.24 7.58.43 11.34.55s7.52.19 11.34.19c3.19 0 8.63-.07 11.7-.19v1.93a11.64 11.64 0 00-5.44 3.32 16.25 16.25 0 00-3.41 6.91c-.8 3-1.2 8.31-1.2 13.47v18.14c0 19.53-10.14 29-14.75 32.45-6.72 5.09-15.86 10.51-31.38 10.51-22.88 0-39.44-11.31-44.25-22.68-2.23-5.26-4.05-10.87-4.05-17.51V57.35a24.84 24.84 0 00-1-8 10 10 0 00-3-4.51 12.58 12.58 0 00-5-2.4z" fill="#fff" data-name="レイヤー 1"/></g></svg>