<svg xmlns="http://www.w3.org/2000/svg" viewBox="0 0 188.18 21.81"><g data-name="レイヤー 2"><path d="M0 .35l.62.06H2a10.43 10.43 0 001.49-.1A18.88 18.88 0 016 .18a7.83 7.83 0 012.6.41 5.93 5.93 0 012.07 1.2A5.44 5.44 0 0112 3.71a6.43 6.43 0 01.49 2.59 6.91 6.91 0 01-.78 3.37A6.4 6.4 0 019.65 12a8 8 0 01-3 1.19 10.87 10.87 0 01-3.56 0v4.6c0 .61.05 1.16.09 1.61a9.35 9.35 0 00.13 1.13 6.83 6.83 0 00.17.76v.06H0v-.05a6.83 6.83 0 00.17-.76c0-.31.1-.68.14-1.13s.07-1 .09-1.61 0-1.34 0-2.17V3.92C.4 3.3.35 2.76.31 2.31S.22 1.47.17 1.17A6.83 6.83 0 000 .41zm3.09 11.71a7.56 7.56 0 002.63 0 4.42 4.42 0 002.05-.91A4.46 4.46 0 009.1 9.32a7.75 7.75 0 00.48-2.9 8.54 8.54 0 00-.25-2.16 4.69 4.69 0 00-.74-1.66 3.43 3.43 0 00-1.24-1.06 4 4 0 00-1.74-.37c-.42 0-.79 0-1.1.05l-.79.11c-.25 0-.46.11-.63.16zm23.78 3.57v2.17c0 .61.13 1.2.13 1.61s.08.82.14 1.13.11.55.16.76v.06h-3.52v-.06c.06-.21.11-.46.17-.76s.09-.68.13-1.13.06-1 .09-1.6 0-1.34 0-2.18V3.92c0-.62-.06-1.16-.09-1.61S24 1.49 24 1.18s-.11-.56-.17-.77V.35l.61.06h1.34a10.43 10.43 0 001.49-.1 18.81 18.81 0 012.48-.13 8.4 8.4 0 012.61.38 6.06 6.06 0 012.07 1.11 5.25 5.25 0 011.37 1.79 5.67 5.67 0 01.49 2.41 6.78 6.78 0 01-.27 2 6.25 6.25 0 01-.76 1.63 6.07 6.07 0 01-1.18 1.3 6.68 6.68 0 01-1.54.94l5.14 7.23c.25.36.49.67.71.93a7.2 7.2 0 00.63.68 3.86 3.86 0 00.58.47 2.19 2.19 0 00.57.29v.06h-4.23a2.68 2.68 0 00-.29-.74 8.08 8.08 0 00-.56-.92l-5.19-7.35h-2.19a8 8 0 01-.84-.11zm0-4.44a7 7 0 00.8.13h.8a5.79 5.79 0 002-.33A4 4 0 0032 10a4.79 4.79 0 001-1.68A7.22 7.22 0 0033.36 6a7.23 7.23 0 00-.25-2 4.31 4.31 0 00-.74-1.52 3.37 3.37 0 00-1.24-1 4.12 4.12 0 00-1.74-.35 11.06 11.06 0 00-1.61.1 6.08 6.08 0 00-.91.22zM59.23 0a12.52 12.52 0 014.52.8A10.6 10.6 0 0167.33 3a10.23 10.23 0 012.36 3.5 11.38 11.38 0 01.85 4.5 12 12 0 01-.32 2.74 11.14 11.14 0 01-1 2.55 10.45 10.45 0 01-1.53 2.22 9.75 9.75 0 01-2.07 1.76 10 10 0 01-2.57 1.15 10.57 10.57 0 01-3 .42 12.73 12.73 0 01-4.5-.84A10.41 10.41 0 0152 18.81a10 10 0 01-2.36-3.45 11.36 11.36 0 01-.85-4.48 12.07 12.07 0 01.32-2.74A11.55 11.55 0 0150 5.58a11 11 0 011.53-2.23 10 10 0 012.06-1.77 10.07 10.07 0 012.6-1.16A10.64 10.64 0 0159.23 0zm.84 20.49a7.39 7.39 0 003-.58 6.49 6.49 0 002.32-1.7 7.88 7.88 0 001.52-2.72 11.37 11.37 0 00.54-3.64 15.85 15.85 0 00-.52-4.18 10 10 0 00-1.55-3.34 7.23 7.23 0 00-2.58-2.21 7.52 7.52 0 00-3.57-.8 7.39 7.39 0 00-3 .58 6.33 6.33 0 00-2.32 1.67 7.88 7.88 0 00-1.52 2.7 11.27 11.27 0 00-.54 3.63 16.34 16.34 0 00.51 4.18 10.14 10.14 0 001.54 3.37 7.42 7.42 0 002.56 2.23 7.59 7.59 0 003.61.81zM82.63.29h2.49l1.49-.03 1.74-.05L90 .18a15.27 15.27 0 014 .52 8.93 8.93 0 013.37 1.73 8.31 8.31 0 012.3 3.15 11.94 11.94 0 01.85 4.79 13.69 13.69 0 01-.45 3.66 10.14 10.14 0 01-1.17 2.87A8.8 8.8 0 0197 19a10.48 10.48 0 01-2.47 1.45 13.59 13.59 0 01-2.89.84 19.5 19.5 0 01-3.18.26h-1.42l-1.66-.08-1.57-.08h-1.15v-.09c.05-.21.11-.46.16-.76s.1-.68.14-1.13.07-1 .09-1.61 0-1.34 0-2.17V3.9q0-.94-.09-1.62c0-.46-.08-.84-.14-1.15s-.11-.57-.16-.78zm3.2 1.32v13.46c0 .97 0 1.92.06 2.82s.07 1.64.11 2.24l.55.06c.22 0 .47 0 .72.06h1.36a15 15 0 002.1-.14 8.57 8.57 0 002.08-.52 7.6 7.6 0 001.89-1 6.49 6.49 0 001.56-1.72 9.18 9.18 0 001-2.55 14.42 14.42 0 00.38-3.5 13.25 13.25 0 00-.55-4 8 8 0 00-1.59-2.95 6.59 6.59 0 00-2.6-1.81 9.33 9.33 0 00-3.55-.62h-1.89l-.93.06zm41.93 4.48V3.92c0-.62 0-1.16-.09-1.61a11.43 11.43 0 00-.13-1.14 7.05 7.05 0 00-.16-.76V.35H130v.06a6.83 6.83 0 00-.17.76 11.43 11.43 0 00-.13 1.14c0 .45-.06 1-.09 1.61s0 1.34 0 2.17V14a9.54 9.54 0 01-.6 3.58 6.32 6.32 0 01-1.75 2.42 6.53 6.53 0 01-2.56 1.38 11.66 11.66 0 01-3.27.43 12.86 12.86 0 01-3.3-.41 7.12 7.12 0 01-2.67-1.32 6.32 6.32 0 01-1.78-2.38 8.73 8.73 0 01-.64-3.55V3.92c0-.62-.05-1.16-.09-1.61a11.06 11.06 0 00-.14-1.14c0-.3-.11-.55-.16-.76V.35h3.51v.06c-.06.21-.11.46-.17.76s-.1.68-.14 1.14-.07 1-.08 1.61 0 1.34 0 2.17v8.22a6.9 6.9 0 00.52 2.88A4.59 4.59 0 00117.6 19a4.82 4.82 0 001.93.93 9.18 9.18 0 004.42 0 4.75 4.75 0 001.93-.93 4.67 4.67 0 001.36-1.8 6.9 6.9 0 00.52-2.88zm31.95-2.52l-.13.06A8.66 8.66 0 00156.84 2a9.59 9.59 0 00-3.53-.63 9.44 9.44 0 00-3.38.58 7.21 7.21 0 00-2.64 1.67 7.69 7.69 0 00-1.73 2.7A10 10 0 00145 9.9a14 14 0 00.59 4.18 9.71 9.71 0 001.74 3.37 8.11 8.11 0 002.89 2.23 9.51 9.51 0 004.05.81 8.6 8.6 0 001.67-.17 8.18 8.18 0 001.61-.52A8.41 8.41 0 00159 19a7.24 7.24 0 001.23-1.12l.16.1-1.17 3a12 12 0 01-2.42.65 16 16 0 01-7.63-.55 11.34 11.34 0 01-3.87-2.22 10.06 10.06 0 01-2.52-3.45 10.86 10.86 0 01-.9-4.48 10.63 10.63 0 01.36-2.74 11 11 0 011.05-2.56 10.33 10.33 0 011.69-2.23 11.23 11.23 0 012.31-1.77A11.9 11.9 0 01150.1.42a12.91 12.91 0 013.37-.42 15.63 15.63 0 015.25.86zm18.17-1.93a29.39 29.39 0 00-3.12.15q-1.39.16-2.4.33c-.78.15-1.48.31-2.1.49l.43-2.38h17.06l.43 2.38c-.63-.18-1.33-.34-2.11-.49s-1.48-.22-2.4-.33a29.39 29.39 0 00-3.12-.15v16.17c0 .61.06 1.16.09 1.61s.08.82.13 1.13.11.55.17.76v.06h-3.5v-.07a7.05 7.05 0 00.16-.76c.05-.31.09-.68.13-1.13s.07-1 .09-1.61 0-1.34 0-2.17z" fill="#fff" data-name="レイヤー 1"/></g></svg>