<svg xmlns="http://www.w3.org/2000/svg" viewBox="0 0 141.73 71.56"><g data-name="レイヤー 2"><path d="M46.46 21.36A39.73 39.73 0 0043 14.78 29.73 29.73 0 0038.06 9a24.22 24.22 0 00-6.22-4.1 22.42 22.42 0 00-7.92-1.78c-5.5-.21-12.2 1.83-13 10.18A8.45 8.45 0 0012.6 19a16.54 16.54 0 004.56 4.3 41.47 41.47 0 006.49 3.43l7.41 3.16q3.78 1.6 7.41 3.47A30.32 30.32 0 0145 37.85a20.45 20.45 0 014.56 6 18.14 18.14 0 011.71 8.19 19.06 19.06 0 01-1.87 8.76 17.14 17.14 0 01-5 6.07 21.58 21.58 0 01-7.4 3.55 34.12 34.12 0 01-9 1.14 31.86 31.86 0 01-5.39-.49q-2.8-.48-5.39-1.07l-4.72-1.07a16.26 16.26 0 00-3.37-.48 6.56 6.56 0 00-2.13.36l-2.18.78q-.93-5.9-2.18-11.52T0 46.56l1.35-.72a74.76 74.76 0 004.51 7.53 45.92 45.92 0 006 7.18A32.77 32.77 0 0019.13 66a17.91 17.91 0 008.66 2.16 24.71 24.71 0 005.81-.67 14.76 14.76 0 004.93-2.12 10.59 10.59 0 003.37-3.78 12.08 12.08 0 001.24-5.75 11.54 11.54 0 00-3-8.13A28.77 28.77 0 0032.67 42 88.19 88.19 0 0023 37.48a73.25 73.25 0 01-9.7-4.65 28.71 28.71 0 01-7.46-6.11 13.22 13.22 0 01-3-8.91 17 17 0 011.56-7.35 16.87 16.87 0 014.2-5.64 18.58 18.58 0 016.11-3.58A21.85 21.85 0 0122.09 0 41.08 41.08 0 0129 .52q3 .48 6 1.14t5.91 1.19a32.31 32.31 0 006.22.57q0 4.67.16 9.08c.1 2.94.33 5.89.67 8.86zM135.59 7s-9.9-1-25.79-1S84 7 84 7V1.27s9.91.92 25.79.92 25.79-.92 25.79-.92zM77.88 22.5c3.67.19 10.67.42 13.27.38 2.08 0 4.13 0 6.17-.11s4.1-.17 6.17-.31v1.25a24.9 24.9 0 00-5.49 1 8 8 0 00-3.43 2.08 7.77 7.77 0 00-1.76 3.47 22.32 22.32 0 00-.52 5.24v13a19.26 19.26 0 001.61 8.25c2.82 6 9.71 9.59 18.72 9.59A20.64 20.64 0 00128 59.58a17.26 17.26 0 004.35-11.88v-8.23a57.27 57.27 0 00-.36-7 12.07 12.07 0 00-1.45-4.67 7 7 0 00-3.06-2.74 17 17 0 00-5.08-1.35v-1.25c2.14.14 4.27.25 6.38.31s4.23.11 6.37.11c1.8 0 4.86 0 6.59-.11v1.09a6.55 6.55 0 00-3.06 1.87 9 9 0 00-1.92 3.88 34.5 34.5 0 00-.67 7.58v10.2c0 11-5.71 16.3-8.3 18.26a27.17 27.17 0 01-17.65 5.91c-12.88 0-22.14-6.36-24.9-12.76A24.72 24.72 0 0183 49V32.26a14 14 0 00-.57-4.51 5.61 5.61 0 00-1.71-2.54 7 7 0 00-2.8-1.35z" fill="#fff" data-name="レイヤー 1"/></g></svg>