<svg xmlns="http://www.w3.org/2000/svg" viewBox="0 0 221.55 37.06"><g data-name="レイヤー 2"><path d="M13.13 16.41l-.34.05a4.86 4.86 0 00-.55-1.2 5 5 0 00-1-1.17 5 5 0 00-3.38-1.25 4.76 4.76 0 00-1.43.22 3.34 3.34 0 00-1.17.65 3 3 0 00-.8 1.06 3.6 3.6 0 00-.29 1.49 4 4 0 00.74 2.28 13.43 13.43 0 001.87 2.15c.75.71 1.56 1.42 2.43 2.14a27.44 27.44 0 012.43 2.24 12.32 12.32 0 011.87 2.51 5.81 5.81 0 01.74 2.86 6.78 6.78 0 01-.44 2.43A5.9 5.9 0 0112.49 35a7 7 0 01-2.35 1.5 9.13 9.13 0 01-3.4.57 10.16 10.16 0 01-2.19-.22 12.62 12.62 0 01-1.85-.55 10.23 10.23 0 01-1.52-.73C.74 35.29.34 35 0 34.79l.24-4.64h.39a8.4 8.4 0 00.74 2.1 5.54 5.54 0 001.21 1.62 5.34 5.34 0 001.64 1.05 5.2 5.2 0 002 .38 4 4 0 002.87-1 3.42 3.42 0 001.06-2.61 4.22 4.22 0 00-.72-2.38 11.26 11.26 0 00-1.82-2.09 48.97 48.97 0 00-2.35-2 24.09 24.09 0 01-2.36-2.14 10.76 10.76 0 01-1.82-2.49 6.46 6.46 0 01-.69-3.09 6.36 6.36 0 01.53-2.6 5.89 5.89 0 011.46-2 6.77 6.77 0 012.23-1.31 8.38 8.38 0 012.84-.46 11.25 11.25 0 013.38.43 11.57 11.57 0 012.06.81zM40.43 20a7.15 7.15 0 00-1.3-4.73 4.33 4.33 0 00-3.46-1.52 5.74 5.74 0 00-1.8.33 13 13 0 00-2 .89 18.75 18.75 0 00-2.07 1.31 18.51 18.51 0 00-1.9 1.58V27c0 1.39 0 2.6.05 3.63s.08 1.92.14 2.67.14 1.38.22 1.88a10.15 10.15 0 00.27 1.27v.1h-5.66v-.1a12.06 12.06 0 00.28-1.27 17.21 17.21 0 00.22-1.88q.09-1.12.15-2.67t.06-3.63V9.55q0-2.09-.06-3.63t-.15-2.67a17.21 17.21 0 00-.22-1.88A12.06 12.06 0 0022.92.1V0h5.64v.1a10.15 10.15 0 00-.27 1.27c-.08.5-.15 1.13-.22 1.88s-.07 1.64-.14 2.67-.05 2.24-.05 3.63v6.25A24.8 24.8 0 0130 14.06a23.33 23.33 0 012.45-1.54 14.86 14.86 0 012.59-1.09 8.5 8.5 0 012.63-.43 7.18 7.18 0 013.23.66 6.36 6.36 0 012.18 1.73 7.09 7.09 0 011.22 2.46 10.59 10.59 0 01.37 2.79v11.99c0 1.03.09 1.92.15 2.67s.14 1.38.22 1.88a10.15 10.15 0 00.27 1.27v.1h-5.59v-.1a12.06 12.06 0 00.28-1.32c.09-.5.16-1.13.22-1.88s.11-1.64.15-2.67.06-2.24.06-3.63zM60 28a7.22 7.22 0 001.28 4.74 4.27 4.27 0 003.45 1.51 5.57 5.57 0 001.76-.33 14.21 14.21 0 002-.87 19.59 19.59 0 002.08-1.29 16.32 16.32 0 001.92-1.56V21c0-1.38 0-2.59-.06-3.62s-.09-1.92-.14-2.67-.13-1.38-.22-1.88-.19-.93-.28-1.27v-.1h5.64v.1a10.15 10.15 0 00-.27 1.27c-.08.5-.16 1.13-.22 1.88s-.12 1.64-.15 2.67 0 2.24 0 3.62v9.63c0 1.03.08 1.92.15 2.67s.14 1.38.22 1.88a10.15 10.15 0 00.27 1.27v.1h-5.61v-.1c.09-.41.2-.93.3-1.56a21.75 21.75 0 00.23-2.49q-1 .85-2.16 1.68a20.05 20.05 0 01-2.41 1.49 14.88 14.88 0 01-2.54 1.06 8.41 8.41 0 01-2.53.41 7.25 7.25 0 01-3.24-.66 6.24 6.24 0 01-2.17-1.74 6.83 6.83 0 01-1.22-2.44 10.51 10.51 0 01-.38-2.8V21c0-1.38 0-2.59-.05-3.62s-.08-1.92-.14-2.67-.14-1.38-.22-1.88A10.15 10.15 0 0055 11.6v-.1h5.64v.1a10.15 10.15 0 00-.27 1.27c-.08.5-.15 1.13-.22 1.88s-.11 1.64-.15 2.67 0 2.24 0 3.62zm66.05-8a7.2 7.2 0 00-1.29-4.73 4.33 4.33 0 00-3.47-1.52 5.74 5.74 0 00-1.79.33 13.08 13.08 0 00-2 .89 19.31 19.31 0 00-4 2.89v12.77c0 1.03.09 1.92.15 2.67s.14 1.38.22 1.88a10.15 10.15 0 00.27 1.27v.1h-5.64v-.1a12.06 12.06 0 00.28-1.27c.09-.5.16-1.13.22-1.88s.11-1.64.15-2.67.06-2.24.06-3.63V9.55q0-2.09-.06-3.63T109 3.25c-.06-.75-.13-1.38-.22-1.88a12.06 12.06 0 00-.23-1.27V0h5.64v.1a10.15 10.15 0 00-.27 1.27c-.08.5-.15 1.13-.22 1.88s-.11 1.64-.15 2.67 0 2.24 0 3.63v6.25a24.8 24.8 0 012.16-1.74 22.34 22.34 0 012.45-1.54 14.86 14.86 0 012.59-1.09 8.5 8.5 0 012.55-.43 7.24 7.24 0 013.23.66 6.23 6.23 0 012.17 1.73 6.92 6.92 0 011.22 2.46 10.2 10.2 0 01.38 2.79v11.99c0 1.03.08 1.92.15 2.67s.14 1.38.22 1.88a10.15 10.15 0 00.33 1.22v.1h-5.64v-.1c.09-.34.19-.76.28-1.27s.16-1.13.22-1.88.1-1.64.14-2.67.06-2.24.06-3.63zm13.41 9.3a6.75 6.75 0 01.8-3.35 7.72 7.72 0 012.11-2.41 11.68 11.68 0 013-1.63 22.48 22.48 0 013.49-1 30 30 0 013.57-.49c1.17-.09 2.24-.15 3.22-.16V19a8.25 8.25 0 00-.42-2.78 5 5 0 00-1.17-1.94 4.72 4.72 0 00-1.82-1.15 6.9 6.9 0 00-2.33-.38 10 10 0 00-1.73.15 9.82 9.82 0 00-1.77.49 12.46 12.46 0 00-1.93.93 20.67 20.67 0 00-2.19 1.48l-.24-.14 1.66-3.44a11.14 11.14 0 011.59-.6 14.52 14.52 0 011.58-.38 14.87 14.87 0 011.65-.21q.84-.06 1.77-.06a13.83 13.83 0 014.39.62 8.23 8.23 0 013 1.71 6.54 6.54 0 011.7 2.54 8.88 8.88 0 01.51 3.16v8q0 2.09.06 3.63c0 1 .09 1.92.14 2.67s.14 1.38.22 1.88a11.79 11.79 0 00.29 1.27v.1h-5.4v-.1a5.05 5.05 0 00.18-.88c0-.32.08-.71.11-1.17a12.29 12.29 0 01-1.21.9 10.16 10.16 0 01-1.58.85 11 11 0 01-4.36.84 9.79 9.79 0 01-6.57-2 7.06 7.06 0 01-2.32-5.69zm16.19-7.11a41.5 41.5 0 00-4.27.26 11.5 11.5 0 00-3.63 1 5.72 5.72 0 00-3.45 5.69 6.15 6.15 0 001.44 4.4 5.22 5.22 0 004 1.51 6.52 6.52 0 002.13-.33 7.16 7.16 0 001.71-.83 5.93 5.93 0 001.26-1.1 5.36 5.36 0 00.78-1.16c0-.62.05-1.3.05-2.06v-7.38zM192.26 21c0-1.38 0-2.59-.06-3.62s-.09-1.92-.15-2.67a17.21 17.21 0 00-.22-1.88 12.06 12.06 0 00-.28-1.27v-.1h5.64v.1a8.48 8.48 0 00-.33 1.36 18.12 18.12 0 00-.2 2.08c.6-.51 1.22-1 1.88-1.49a15.43 15.43 0 012-1.29 11.84 11.84 0 012.08-.91 6.89 6.89 0 012.14-.34 9.64 9.64 0 011.15.06 6.55 6.55 0 01.88.17c.26.08.49.16.71.25l.61.25-1.2 4.67-.42-.1a3.21 3.21 0 00-1.09-1.72 3.43 3.43 0 00-2.2-.65 5.1 5.1 0 00-1.59.27 10.14 10.14 0 00-1.68.74 18.21 18.21 0 00-1.71 1.1c-.57.42-1.13.85-1.66 1.31 0 .47-.05 1-.05 1.54V27c0 1.39 0 2.6.05 3.63s.08 1.92.14 2.67.14 1.38.22 1.88a10.15 10.15 0 00.27 1.27v.1h-5.64v-.1a12.06 12.06 0 00.28-1.27 17.21 17.21 0 00.22-1.88q.09-1.12.15-2.67t.06-3.63zm24.36 0c0-1.38 0-2.59-.06-3.62s-.09-1.92-.15-2.67a17.21 17.21 0 00-.22-1.88 12.06 12.06 0 00-.28-1.27v-.1h5.64v.1c-.09.34-.18.76-.27 1.27s-.15 1.13-.22 1.88-.11 1.64-.14 2.67 0 2.24 0 3.62v9.63c0 1.03.08 1.92.14 2.67s.14 1.38.22 1.88.18.93.27 1.27v.1h-5.64v-.1a12.06 12.06 0 00.28-1.27 17.21 17.21 0 00.22-1.88q.09-1.12.15-2.67t.06-3.63zm-.51-16.9a2.47 2.47 0 01.21-1 2.51 2.51 0 01.55-.83 2.45 2.45 0 01.81-.56 2.58 2.58 0 011-.21 2.54 2.54 0 011 .21 2.64 2.64 0 01.83.56 2.7 2.7 0 01.56.83 2.47 2.47 0 01.21 1 2.53 2.53 0 01-.68 1.9 2.53 2.53 0 01-1.88.76 2.58 2.58 0 01-1-.21 2.45 2.45 0 01-.81-.56 2.61 2.61 0 01-.55-.83 2.54 2.54 0 01-.25-1.06z" fill="#fff" data-name="レイヤー 1"/></g></svg>