<svg xmlns="http://www.w3.org/2000/svg" viewBox="0 0 150.88 48.66"><g data-name="レイヤー 2"><path d="M17 18.55a10.34 10.34 0 00-.33-2.78 5.41 5.41 0 00-.95-1.94 4.08 4.08 0 00-1.5-1.15 5 5 0 00-2-.38 5.25 5.25 0 00-1.64.3 12.55 12.55 0 00-1.87.79 21 21 0 00-1.93 1.16A18.1 18.1 0 005 16v13.12c0 1.03.09 1.92.15 2.67s.14 1.38.22 1.88a10.15 10.15 0 00.27 1.27V35H0v-.1a12.06 12.06 0 00.28-1.27c.09-.5.16-1.13.22-1.88s.11-1.64.15-2.67.06-2.24.06-3.63v-5.9q0-2.08-.06-3.63T.5 13.26c-.06-.75-.13-1.38-.22-1.88A12.06 12.06 0 000 10.11V10h5.64v.1a7.59 7.59 0 00-.31 1.43c-.07.57-.15 1.3-.23 2.18.65-.52 1.35-1 2.1-1.54a20.65 20.65 0 012.31-1.34 15.33 15.33 0 012.38-.95 7.91 7.91 0 012.37-.37 7.4 7.4 0 012.46.37 6.13 6.13 0 011.88 1 6 6 0 011.4 1.5 7.23 7.23 0 01.84 1.83c.67-.57 1.4-1.14 2.19-1.7a20.49 20.49 0 012.4-1.51A15.27 15.27 0 0128 9.94a8.3 8.3 0 012.55-.42 7.25 7.25 0 013.24.66A6.33 6.33 0 0136 11.91a6.92 6.92 0 011.22 2.46 10.6 10.6 0 01.38 2.79v8.3c0 1.39 0 2.6.05 3.63s.08 1.92.14 2.67.15 1.38.24 1.88a12.06 12.06 0 00.28 1.27V35h-5.72v-.1a12.06 12.06 0 00.28-1.27c.09-.5.17-1.13.24-1.88s.11-1.64.14-2.67 0-2.24 0-3.63v-6.9A7.2 7.2 0 0032 13.82a4.35 4.35 0 00-3.47-1.52 5.42 5.42 0 00-1.67.3 11.47 11.47 0 00-1.89.8 19.34 19.34 0 00-2 1.19A18.64 18.64 0 0021.19 16a3.79 3.79 0 010 .58v8.86q0 2.09.06 3.63t.15 2.67a17.21 17.21 0 00.22 1.88 12.06 12.06 0 00.38 1.29V35h-5.69v-.1a10.15 10.15 0 00.27-1.27c.08-.5.15-1.13.22-1.88s.11-1.64.14-2.67 0-2.24 0-3.63zm35.88 7.91a7.28 7.28 0 001.28 4.74 4.29 4.29 0 003.46 1.51 5.77 5.77 0 001.75-.32 14.41 14.41 0 002-.88 19.48 19.48 0 002.07-1.29 16.32 16.32 0 001.92-1.56c0-.47.05-1 .05-1.5v-7.6q0-2.08-.06-3.63t-.15-2.67c-.06-.75-.13-1.38-.22-1.88a12.06 12.06 0 00-.28-1.27V10h5.64v.1a10.15 10.15 0 00-.27 1.27c-.08.5-.15 1.13-.22 1.88s-.11 1.64-.15 2.67 0 2.24 0 3.63v9.53c0 1.03.09 1.92.15 2.67s.14 1.38.22 1.88a10.15 10.15 0 00.27 1.27v.1h-5.62v-.1c.1-.4.2-.93.3-1.56a21.44 21.44 0 00.24-2.49q-1 .86-2.16 1.68A20.17 20.17 0 0160.68 34a15.8 15.8 0 01-2.54 1.07 8.67 8.67 0 01-2.53.4 7.21 7.21 0 01-3.23-.66 6.23 6.23 0 01-2.17-1.73A6.9 6.9 0 0149 30.66a10.5 10.5 0 01-.37-2.8V15.93c0-1.03-.08-1.92-.15-2.67s-.14-1.38-.22-1.88a10.15 10.15 0 00-.27-1.27V10h5.64v.1a12.35 12.35 0 00-.27 1.27c-.08.5-.15 1.13-.22 1.88s-.11 1.64-.14 2.67 0 2.24 0 3.63zm28.36-6.9q0-2.08-.06-3.63c0-1-.09-1.92-.14-2.67s-.13-1.38-.22-1.88-.19-.93-.28-1.27V10h5.64v.1a10.15 10.15 0 00-.27 1.27c-.08.5-.16 1.13-.22 1.88s-.12 1.64-.15 2.67-.05 2.24-.05 3.63v12.92a20.08 20.08 0 01-.72 5.71 15.45 15.45 0 01-2 4.28 17.27 17.27 0 01-3 3.33q-1.7 1.47-3.65 2.87l-.46-.59a16.51 16.51 0 002.76-3.2 15.2 15.2 0 001.68-3.55 19.65 19.65 0 00.9-4.08 43.82 43.82 0 00.23-4.77zm-.51-16.95a2.47 2.47 0 01.21-1 2.79 2.79 0 01.55-.83A2.58 2.58 0 0183.34 0a2.63 2.63 0 011.87.77 2.64 2.64 0 01.56.83 2.47 2.47 0 01.21 1 2.53 2.53 0 01-.76 1.88 2.53 2.53 0 01-1.88.76 2.58 2.58 0 01-1.85-.77 2.79 2.79 0 01-.55-.83 2.54 2.54 0 01-.21-1.03zm20.33 23.85a7.28 7.28 0 001.28 4.74 4.28 4.28 0 003.45 1.51 5.77 5.77 0 001.76-.32 14.93 14.93 0 002-.88 19.48 19.48 0 002.07-1.29 16.32 16.32 0 001.92-1.56v-9.1q0-2.08-.06-3.63c0-1-.09-1.92-.15-2.67s-.13-1.38-.22-1.88a12.06 12.06 0 00-.28-1.27V10h5.64v.1a10.15 10.15 0 00-.27 1.27c-.08.5-.15 1.13-.22 1.88s-.11 1.64-.15 2.67-.05 2.24-.05 3.63v5.9c0 1.39 0 2.6.05 3.63s.09 1.92.15 2.67.14 1.38.22 1.88a10.15 10.15 0 00.27 1.27v.1h-5.57v-.1c.1-.4.2-.93.3-1.56a21.44 21.44 0 00.24-2.49q-1 .86-2.16 1.68a20.17 20.17 0 01-2.42 1.47 15.8 15.8 0 01-2.54 1.07 8.72 8.72 0 01-2.53.4 7.18 7.18 0 01-3.23-.66 6.36 6.36 0 01-2.18-1.73 7 7 0 01-1.22-2.45 10.5 10.5 0 01-.37-2.8v-8.3c0-1.39 0-2.6-.05-3.63s-.08-1.92-.15-2.67-.14-1.38-.22-1.88a10.15 10.15 0 00-.27-1.27V10h5.64v.1a10.15 10.15 0 00-.27 1.27c-.08.5-.15 1.13-.22 1.88s-.11 1.64-.14 2.67 0 2.24 0 3.63zm32.34 0a7.28 7.28 0 001.28 4.74 4.3 4.3 0 003.46 1.51 5.88 5.88 0 001.76-.32 14.31 14.31 0 002-.88 20.66 20.66 0 002.1-1.29 15.43 15.43 0 001.91-1.56v-9.1q0-2.08-.06-3.63t-.15-2.67a17.21 17.21 0 00-.22-1.88 12.06 12.06 0 00-.28-1.27V10h5.64v.1a10.15 10.15 0 00-.27 1.27c-.08.5-.15 1.13-.22 1.88s-.11 1.64-.14 2.67-.05 2.24-.05 3.63v5.9c0 1.39 0 2.6.05 3.63s.08 1.92.14 2.67.14 1.38.22 1.88a10.15 10.15 0 00.27 1.27v.1h-5.64v-.1c.1-.4.2-.93.31-1.56a24.3 24.3 0 00.23-2.49q-1 .86-2.16 1.68A19.41 19.41 0 01141.2 34a15.43 15.43 0 01-2.54 1.07 8.6 8.6 0 01-2.52.4 7.25 7.25 0 01-3.24-.66 6.23 6.23 0 01-2.17-1.73 6.88 6.88 0 01-1.22-2.45 10.12 10.12 0 01-.38-2.8V15.9c0-1.03-.08-1.92-.15-2.67s-.13-1.38-.22-1.88a12.65 12.65 0 00-.26-1.27V10h5.63v.1a12.65 12.65 0 00-.26 1.27c-.08.5-.16 1.13-.22 1.88s-.12 1.64-.15 2.67 0 2.24 0 3.63z" fill="#fff" data-name="レイヤー 1"/></g></svg>