<svg xmlns="http://www.w3.org/2000/svg" viewBox="0 0 161 34.86"><g data-name="レイヤー 2"><g data-name="レイヤー 1"><path d="M10.69 5.61a.78.78 0 000 .21 2.09 2.09 0 000 .24 4.17 4.17 0 00.12.94 8.92 8.92 0 00.44 1.28l3.26 7.78 3.31-7.67c.14-.34.28-.71.44-1.11a3.47 3.47 0 00.23-1.22 2.07 2.07 0 000-.29.53.53 0 00-.06-.16h2.46a5.21 5.21 0 00-.62.92 17.54 17.54 0 00-.8 1.66l-5 11.56h-.8L8.87 8.91c-.16-.4-.34-.78-.52-1.15s-.37-.7-.54-1-.31-.53-.44-.76l-.26-.38zM24.54 11V9c0-.55-.05-1.08-.08-1.5a10.32 10.32 0 00-.12-1c-.05-.28-.11-.52-.16-.71h3.12a4.57 4.57 0 00-.15.71c0 .28-.09.63-.13 1s-.06.92-.08 1.5 0 1.26 0 2v5.31c0 .55 0 1.08.08 1.5s.08.77.13 1.05a4.57 4.57 0 00.15.71v.06h-3.16v-.06c.05-.19.11-.43.16-.71a10.32 10.32 0 00.12-1.05c0-.42.06-.92.08-1.5s0-1.26 0-2zm-.29-9.49a1.31 1.31 0 01.12-.61 1.51 1.51 0 01.3-.47 1.33 1.33 0 01.46-.31 1.4 1.4 0 01.58-.12 1.37 1.37 0 01.58.12 1.4 1.4 0 01.78.78 1.31 1.31 0 01.12.56 1.46 1.46 0 01-.42 1.06 1.46 1.46 0 01-1.06.42 1.4 1.4 0 01-.58-.12 1.33 1.33 0 01-.46-.31 1.51 1.51 0 01-.3-.47 1.37 1.37 0 01-.12-.58zM38.7 19.85a8.36 8.36 0 01-2.85-.48A6.63 6.63 0 0133.54 18 6.53 6.53 0 0132 15.69a8 8 0 01-.57-3.11 7.91 7.91 0 01.52-2.87 7.18 7.18 0 011.44-2.29 6.6 6.6 0 012.14-1.51 6.31 6.31 0 012.64-.55 7.05 7.05 0 012.62.48 6.09 6.09 0 012.08 1.41 6.63 6.63 0 011.39 2.29 9.19 9.19 0 01.56 3.09H34.19a10.35 10.35 0 00.44 2.57 6.29 6.29 0 001 2 4.38 4.38 0 001.55 1.25 4.67 4.67 0 002.05.43 6 6 0 001.5-.18 5 5 0 001.27-.54 4.92 4.92 0 001-.78 4.71 4.71 0 00.77-1l.16.08-1 2.44a8.34 8.34 0 01-1.76.64 9.84 9.84 0 01-2.47.31zm-1.82-8.34h5.24a9.25 9.25 0 00-.47-2.14 5.8 5.8 0 00-.87-1.6 3.93 3.93 0 00-1.26-1 3.71 3.71 0 00-1.6-.35 3 3 0 00-1.46.35 3.31 3.31 0 00-1.15 1 5.27 5.27 0 00-.8 1.61 8.13 8.13 0 00-.35 2.16h1.3zm21.04-4.65l3.65 9.19 3.05-7.61c.06-.17.14-.35.22-.56s.15-.41.22-.63.11-.42.16-.61a2.15 2.15 0 00.07-.53 1.12 1.12 0 000-.29.6.6 0 00-.05-.16h2.46a5.06 5.06 0 00-.6.85 15.46 15.46 0 00-.82 1.73L61.39 19.8h-.78l-3.52-8.56-3.53 8.56h-.78L48.29 8.91c-.16-.4-.33-.78-.52-1.15s-.37-.7-.53-1-.32-.54-.45-.73a3.5 3.5 0 00-.26-.38h3.64a.78.78 0 000 .21 2.32 2.32 0 000 .24 4.23 4.23 0 00.13.94 12 12 0 00.43 1.28l3 7.72 3.67-9.18zm32.67 3.53a6 6 0 00-.18-1.56 2.88 2.88 0 00-.54-1.08A2.12 2.12 0 0089 7.1a2.72 2.72 0 00-1.09-.21 3.36 3.36 0 00-.92.16 7 7 0 00-1 .45 10.31 10.31 0 00-1.08.65 9.9 9.9 0 00-1 .79v7.32c0 .55 0 1.08.08 1.5s.08.77.12 1.05.1.52.15.71v.06h-3.18v-.06c0-.19.1-.43.15-.71s.09-.63.13-1.05.06-.92.08-1.5 0-1.26 0-2V9c0-.55 0-1.08-.08-1.5s-.08-.77-.13-1-.1-.52-.15-.71h3.15a4.24 4.24 0 00-.17.8c0 .32-.08.73-.13 1.22.37-.29.76-.58 1.18-.86a12 12 0 011.29-.75 8.19 8.19 0 011.33-.53 4.44 4.44 0 011.33-.21 4.17 4.17 0 011.38.21 3.3 3.3 0 011 .56 3 3 0 01.76.83 3.87 3.87 0 01.48 1c.37-.32.78-.64 1.22-1a10.28 10.28 0 011.37-.84 8.91 8.91 0 011.43-.61 4.9 4.9 0 011.43-.23 4.14 4.14 0 011.87.32 3.57 3.57 0 011.22 1 3.88 3.88 0 01.68 1.38 5.87 5.87 0 01.21 1.56v6.65c0 .55.05 1.08.08 1.5s.08.77.13 1.05.11.52.16.71v.06h-3.15v-.06c0-.19.11-.43.16-.71s.09-.63.13-1.05.06-.92.08-1.5 0-1.26 0-2v-3.9a4 4 0 00-.7-2.65 2.41 2.41 0 00-1.94-.85 3.43 3.43 0 00-.94.16 6.31 6.31 0 00-1.06.46 10.55 10.55 0 00-1.06.66 10.44 10.44 0 00-1 .8 1.84 1.84 0 010 .33v7c0 .55 0 1.08.08 1.5a10.32 10.32 0 00.12 1.05 5.94 5.94 0 00.16.71v.06h-3.15v-.06c.05-.19.1-.43.15-.71a10.32 10.32 0 00.12-1.05c0-.42.07-.92.08-1.5s0-1.26 0-2zm15.83 2.19a7.11 7.11 0 012.16-5.16A7.28 7.28 0 01111 5.91a7.73 7.73 0 012.94-.55 8.15 8.15 0 012.9.51 7.14 7.14 0 012.38 1.46 6.82 6.82 0 011.59 2.29 7.63 7.63 0 01.58 3 7.56 7.56 0 01-.49 2.71 6.71 6.71 0 01-1.45 2.29 7 7 0 01-2.35 1.6 8.14 8.14 0 01-3.19.59 8.3 8.3 0 01-2.88-.5 7.07 7.07 0 01-2.37-1.45 6.94 6.94 0 01-1.6-2.29 7.55 7.55 0 01-.64-2.99zm7.76 6.27a4.06 4.06 0 001.78-.38 3.84 3.84 0 001.4-1.11 5.34 5.34 0 00.92-1.76 7.77 7.77 0 00.32-2.35 11.27 11.27 0 00-.31-2.74 6.62 6.62 0 00-.94-2.19 4.3 4.3 0 00-1.56-1.44 4.45 4.45 0 00-2.2-.52 4.17 4.17 0 00-1.78.37 4.09 4.09 0 00-1.4 1.09 4.9 4.9 0 00-.92 1.74 7.71 7.71 0 00-.33 2.35 11 11 0 00.32 2.75 6.88 6.88 0 001 2.2 4.55 4.55 0 001.52 1.47 4.43 4.43 0 002.18.52zM125.75 11V9c0-.55 0-1.08-.08-1.5s-.08-.77-.12-1-.11-.52-.16-.71h3.16a3.93 3.93 0 00-.19.77 9.54 9.54 0 00-.11 1.16q.5-.42 1.05-.84a9.65 9.65 0 011.09-.88 6.69 6.69 0 011.17-.51 4.05 4.05 0 011.19-.19 4.19 4.19 0 01.65 0 3.3 3.3 0 01.49.09l.4.14.34.14-.63 2.68h-.23a1.88 1.88 0 00-.62-1 1.92 1.92 0 00-1.27-.35 2.91 2.91 0 00-.89.15 5.13 5.13 0 00-.94.42 8.64 8.64 0 00-1 .62c-.32.23-.63.47-.93.73v7.37c0 .55.05 1.08.08 1.5s.08.77.13 1.05a4.57 4.57 0 00.15.71v.06h-3.16v-.06c0-.19.1-.43.16-.71s.09-.63.12-1.05.06-.92.08-1.5 0-1.26 0-2zm18.32 8.85a8.26 8.26 0 01-2.84-.48 6.63 6.63 0 01-2.31-1.4 6.4 6.4 0 01-1.55-2.28 8 8 0 01-.57-3.11 7.71 7.71 0 01.52-2.87 7.16 7.16 0 011.43-2.29 6.82 6.82 0 012.14-1.51 6.35 6.35 0 012.65-.55 7 7 0 012.61.48 6.13 6.13 0 012.09 1.41 6.78 6.78 0 011.39 2.29 9.2 9.2 0 01.55 3.09h-10.62a10.82 10.82 0 00.44 2.57 6.09 6.09 0 001 2 4.43 4.43 0 001.54 1.25 4.72 4.72 0 002.06.43 6 6 0 001.5-.18 5 5 0 001.27-.51 5.13 5.13 0 001.8-1.74l.16.08-1 2.44a8.24 8.24 0 01-1.77.64 9.73 9.73 0 01-2.49.24zm-1.82-8.34h5.24a9.27 9.27 0 00-.49-2.19 5.57 5.57 0 00-.88-1.6 3.73 3.73 0 00-1.26-1 3.65 3.65 0 00-1.6-.35 3 3 0 00-1.45.35 3.43 3.43 0 00-1.16 1 5.26 5.26 0 00-.79 1.61 8.54 8.54 0 00-.36 2.16h1.3z" fill="#fff"/><path fill="none" stroke="#fff" stroke-miterlimit="10" stroke-width=".5" d="M0 34.41l161 .2"/></g></g></svg>