<svg xmlns="http://www.w3.org/2000/svg" viewBox="0 0 530.48 39.03"><g data-name="レイヤー 2"><path d="M10.44 13.52c5.92 2.36 8 4.76 8 8.8 0 5.08-4.28 8.15-10.12 8.15A16.13 16.13 0 010 28.16l.2-6h2l1 5.28a8.92 8.92 0 004.92 1.23c4.36 0 7.28-2 7.28-5.67 0-2.88-1.68-4.32-5.84-6l-1.64-.64C3.44 14.56.6 12 .6 7.84.6 2.84 4.76 0 10 0a11.32 11.32 0 017 2.28l-.2 5.6h-2.04l-1-5.08a7 7 0 00-3.76-1C6.32 1.8 3.64 3.56 3.64 7c0 2.92 1.88 4.64 5.08 5.88zm37.13 15.03v1.28l-5.68.37-.32-4c-2.24 2.76-5 4.19-7.8 4.19-3.6 0-5.72-2-5.68-7.91l.12-11.12-3.32-.56V9.52l6-.52.4.44-.2 6.08v6.72c0 4.16 1.28 5.59 3.88 5.59a9.07 9.07 0 006.52-3.19l.08-13.28-3.28-.56V9.52L44.21 9l.44.44-.16 6.08v12.56zM84.81 17.8h10.08v2.32H84.81zm28.53-4.28c5.92 2.36 8 4.76 8 8.8 0 5.08-4.28 8.15-10.12 8.15a16.12 16.12 0 01-8.31-2.31l.2-6h2l1 5.28a8.9 8.9 0 004.89 1.23c4.35 0 7.27-2 7.27-5.67 0-2.88-1.68-4.32-5.84-6l-1.64-.64c-4.47-1.8-7.31-4.32-7.31-8.52 0-5 4.16-7.84 9.44-7.84a11.31 11.31 0 017 2.28l-.2 5.6h-2.12l-1-5.08a7 7 0 00-3.84-1c-3.65 0-6.33 1.76-6.33 5.2 0 2.92 1.89 4.64 5.08 5.88zm37.96 8.76l-.3 7.55h-22.2V28.4l4.2-.4c.12-3.8.12-7.68.12-11.6v-2.2c0-3.88 0-7.8-.12-11.64l-4.16-.44V.68h21.4l.28 7.52h-2l-1.08-5.76h-10.9c-.12 3.76-.12 7.68-.12 11.76h7l.6-4.32h1.64V20H144l-.56-4.2h-7c0 4.44 0 8.36.12 12.24h11.72l1-5.76zm36.29-20.2l-3.72.52v27.56h-1.32L164.72 5.48v22.4l4.64.52v1.43h-10.24V28.4l3.76-.48v-25l-.36-.52-3.24-.4V.68h6.24l16.55 23.16V2.64l-4.67-.56V.68h10.23zm17.5 11.44c5.92 2.36 8 4.76 8 8.8 0 5.08-4.28 8.15-10.12 8.15a16.13 16.13 0 01-8.32-2.31l.2-6h2l1 5.28a8.92 8.92 0 004.92 1.23c4.36 0 7.28-2 7.28-5.67 0-2.88-1.68-4.32-5.84-6l-1.64-.64c-4.48-1.8-7.32-4.32-7.32-8.52 0-5 4.16-7.84 9.44-7.84a11.32 11.32 0 017 2.28l-.2 5.6h-2.12l-1-5.08a7 7 0 00-3.84-1c-3.64 0-6.32 1.76-6.32 5.2 0 2.92 1.88 4.64 5.08 5.88zm41.52-11c-.08 3.8-.08 7.68-.08 11.64v2.2c0 3.84 0 7.76.08 11.6l4.19.44v1.43h-11.91V28.4L243 28c.08-3.76.08-7.68.08-12.36h-15c0 4.64 0 8.56.12 12.32l4.16.44v1.43h-11.79V28.4l4.16-.44c.12-3.8.12-7.68.12-11.6v-2.2c0-3.88 0-7.8-.12-11.64l-4.16-.44V.68h11.88v1.4l-4.16.44c-.12 3.72-.12 7.56-.12 11.44h15c0-3.84 0-7.68-.08-11.44l-4.15-.44V.68h11.86v1.4zm40.63-.44l-3.8.48-.08 15.68c0 8.64-4.08 12.23-10.16 12.23S262.8 27 262.8 18.84V14.2c0-3.92 0-7.84-.08-11.72l-3.72-.4V.68h11.76v1.4l-4.52.48v15.32c0 7.52 2.92 10 7.52 10 5.32 0 7.88-3 7.88-10.8V2.6l-4.72-.56V.68h10.4zm47.55 35.63A10.23 10.23 0 01329.6 39c-5.32 0-8.12-4.12-8.16-8.72-6.08-.91-11.28-6.23-11.28-15.07 0-9.41 6.36-15.21 13.2-15.21s13.08 5.48 13.08 15.24c0 8.8-5.4 14.39-11.64 15.15.08 4.28 2.4 6.76 6.08 6.76a11.05 11.05 0 003.51-.64zm-11.43-9c6.24 0 9.19-6.55 9.19-13.47S329.6 1.8 323.36 1.8s-9.28 6.56-9.28 13.44 2.92 13.47 9.28 13.47zm48.12-26.63l-3.8.48-.08 15.68c0 8.64-4.08 12.23-10.16 12.23S347 27 347 18.84V14.2c0-3.92 0-7.84-.08-11.72l-3.72-.4V.68H355v1.4l-4.52.48v15.32c0 7.52 2.92 10 7.52 10 5.32 0 7.88-3 7.88-10.8V2.6l-4.72-.56V.68h10.4zm31.69 26.32v1.43h-11.56V28.4L396 28l-2.64-8h-10.27l-2.6 7.88 4.2.52v1.43h-9.59V28.4l3.59-.48L387.93.4h2.24l9.4 27.6zm-10.36-10l-4.6-13.84-4.56 13.84zm39.55 3.48l-.36 8h-21.32V28.4l4.16-.44c.12-3.84.12-7.72.12-11.56v-2.24c0-4 0-7.84-.12-11.64l-4.16-.44V.68h11.88v1.4l-4.16.44c-.12 3.84-.12 7.76-.12 11.84v2.8c0 3.24 0 7.08.12 10.88H429l1.28-6.16zm15.76-19.36c-.12 3.8-.12 7.68-.12 11.64v2.2c0 3.84 0 7.76.12 11.6l4.16.44v1.43H440.4V28.4l4.16-.44c.12-3.8.12-7.68.12-11.6v-2.2c0-3.88 0-7.8-.12-11.64l-4.16-.44V.68h11.88v1.4zm25.7-.08c-.12 3.8-.12 7.72-.12 11.72v2.2c0 3.84 0 7.76.12 11.6l4.6.44v1.43h-12.76V28.4l4.64-.4c.08-3.8.08-7.68.08-11.6v-2.2c0-3.92 0-7.88-.08-11.72H463l-1.12 5.84h-2l.32-7.6h23.68l.4 7.6h-2l-1.12-5.84zm32.09 15.88c0 3.92 0 6.76.08 9.64l4.6.44v1.43h-12.76V28.4l4.6-.44c.08-2.84.08-5.68.08-9.6l-7.88-15.88-3.4-.4V.68h11.6v1.4l-4.36.48 6.6 13.92 6.6-13.88-4.2-.52V.68h9.92v1.4l-3.84.56zm14.49-.52h10.08v2.32H520.4z" fill="#fff" data-name="レイヤー 1"/></g></svg>