<svg xmlns="http://www.w3.org/2000/svg" viewBox="0 0 166.28 107.52"><defs><style>.cls-1{fill:#141414;stroke:#fff;stroke-linecap:round;stroke-linejoin:round;stroke-width:0.5px;}</style></defs><title>how_to_img02</title><g id="レイヤー_2" data-name="レイヤー 2"><g id="レイヤー_1-2" data-name="レイヤー 1"><rect class="cls-1" x="0.25" y="65.24" width="165.78" height="42.02"/><polygon class="cls-1" points="23.22 0.25 143.06 0.25 166.03 65.24 0.25 65.24 23.22 0.25"/><polygon class="cls-1" points="155.73 36.1 10.55 36.1 15.24 22.83 151.04 22.83 155.73 36.1"/><rect class="cls-1" x="113.01" y="65.24" width="16.55" height="42.02"/><polygon class="cls-1" points="113 65.24 103.16 0.25 115.12 0.25 129.56 65.24 113 65.24"/><polygon class="cls-1" points="98.53 55.66 97.34 45.22 86.85 45.86 107.66 26.7 113.79 31.85 98.53 55.66"/><polygon class="cls-1" points="129.83 55.66 131.02 45.22 141.51 45.86 120.7 26.7 114.57 31.85 129.83 55.66"/><path class="cls-1" d="M119.25,29.11l-2.65-3.52s3.76-.72,9.08-5.43,7.91-10.14,13.4-9.83,8.8,7.67,8.8,15.26Z"/><path class="cls-1" d="M119.25,29.11s4.11,0,9.79-4.11,13.53-8.57,17-4.83,2.09,10.15-4.57,11.6-22.26,0-22.26,0Z"/><path class="cls-1" d="M109.88,29.11l2.65-3.52s-3.76-.72-9.08-5.43S95.54,10,90.05,10.33s-8.8,7.67-8.8,15.26Z"/><path class="cls-1" d="M109.88,29.11s-4.11,0-9.79-4.11-13.53-8.57-17-4.83S81,30.32,87.62,31.77s22.26,0,22.26,0Z"/><rect class="cls-1" x="107.66" y="22.36" width="13.83" height="10.3"/></g></g></svg>