<svg xmlns="http://www.w3.org/2000/svg" viewBox="0 0 397.17 36.75"><g data-name="レイヤー 2"><path d="M19.72 13c1.44 7.56 5.68 15.64 17.55 21.07l-.08.44a2.78 2.78 0 00-2.76 2.2C23.32 30.63 20.12 21.08 19 13.08 17.84 22.4 14.16 30.67.44 36.71L0 36c11.68-6.23 15.12-14 16.16-23H.76L.4 11.88h15.88c.32-3.72.32-7.64.32-11.72l4.28.44c-.12.6-.44 1-1.36 1.16-.08 3.44-.12 6.84-.44 10.12h11.51l2.2-2.76s2.44 1.88 3.92 3.28c-.08.44-.44.64-1 .64zm32.2 14.32c-2.56 0-3.12-.76-3.12-2.68v-10.8l-4.8.92-.52-1.08 5.36-1V.8l3.8.44c0 .52-.4.88-1.32 1v9.96l5.56-1.08 1.28-2.88s2.44 1.4 3.84 2.44c0 .48-.36.72-.88.84l-9.84 1.88v10.48c0 .68.16 1 1.2 1h2.28c1.08 0 2 0 2.32-.08a.62.62 0 00.6-.44A50.66 50.66 0 0058.8 19h.48l.16 5.56c.84.32 1 .6 1 1.12 0 1.12-1.16 1.68-5.76 1.68zM81.19 5.2a3.2 3.2 0 01-1.72.64C79 21.32 78 31.12 75.92 33.59a5.93 5.93 0 01-4.84 2 2.46 2.46 0 00-.68-2 13.68 13.68 0 00-4.08-1.24l.08-.68c1.8.16 4.76.45 5.72.45a2 2 0 001.67-.57c1.72-1.67 2.68-11.67 3.08-26.07h-8.23c-1 16-3.24 26.35-16.88 31.23l-.48-.64C63.12 31 65 20 65.8 5.48h-7.92l-.36-1.16h18.91L78 2.48zm14.53-2.64a7.51 7.51 0 012.36-.48 6 6 0 012.92.68c.68.4.52 1.12-1 6.24 3.84-1.2 4.64-2.16 5.4-2.16A1.36 1.36 0 01106.92 8c0 .72-.92 1.28-1.36 1.52a27.8 27.8 0 01-6.32 2C97.84 15.92 95 23.28 91.68 28c-.56.8-1 1.44-1.8 1.44s-1.16-.84-1.16-1.56a3 3 0 01.72-1.88A46.85 46.85 0 0097 12a21.83 21.83 0 01-3.16.24c-3 0-4.36-1.12-5.64-4l.8-.52C90.68 9.16 91.56 10 94.32 10a15.19 15.19 0 003.4-.44 33.26 33.26 0 00.72-4.32c0-.84-.16-1.16-.84-1.44a11.59 11.59 0 00-1.88-.64zM110 9.44a11.28 11.28 0 015.51.48c2.44.92 3.68 2.48 3.68 4.08 0 .92-.4 1.44-1.16 1.44-.92 0-1.6-.64-3.32-.52a6.17 6.17 0 00-3.71 1.56 4.67 4.67 0 00-1 3.6c0 1.2.44 3.72.76 6.12A18.59 18.59 0 01117 29c1.91 1.24 2.75 2.36 2.75 3.35 0 .81-.36 1.28-1 1.28s-1.24-.67-2.12-1.47a15.71 15.71 0 00-5.63-3.64c0 .6.08 1.12.08 1.6 0 3.31-2.44 5.23-6.52 5.23s-6.4-2-6.4-4.35c0-3 3.24-5.28 8.56-5.28.64 0 1.24 0 1.8.08-.12-1.76-.32-3.56-.32-5.12a6.48 6.48 0 011.92-5 12.61 12.61 0 014.43-2.56c.84-.44.69-1 0-1.48a7.67 7.67 0 00-4.59-1.2zm-1.32 18.44a18.62 18.62 0 00-3.44-.32c-3.64 0-5.56 1.52-5.56 3S101.08 33 104 33c3.84 0 4.72-1.92 4.72-4.28zM159.77 5.2s2.32 1.76 3.68 3c-.12.44-.44.6-1 .6h-19.36c-.2 2.6-.44 5-.84 7.36h11.6l1.6-1.64 3 2.56a2.53 2.53 0 01-1.64.64c-.44 8.4-1.52 15.47-3.48 17.27a6.55 6.55 0 01-4.76 1.6 2 2 0 00-.88-1.92 18.12 18.12 0 00-4.84-1.28v-.68c2.16.21 6 .56 7 .56a2 2 0 001.68-.52c1.36-1.12 2.24-7.71 2.64-15.39H142c-1.68 8.48-5.48 14.88-14.56 19.35l-.36-.52c9.8-6.63 12.36-15.55 12.84-27.39h-12.75l-.32-1.12h16.84V0l4.12.44c-.08.56-.48 1-1.44 1.08v6.2h11.4zm7.99 13.36l.64-.56a4.63 4.63 0 002.6 1.48 3.43 3.43 0 001.92-1c1.83-1.72 5.11-5.44 6.63-7.12a3.57 3.57 0 012.68-1.44 4.58 4.58 0 013.36 1.6c4.32 4.12 8.4 10.36 16.4 14.68a2.72 2.72 0 011.6 2.4 1.17 1.17 0 01-1.28 1.32c-1.48 0-4.92-2.48-8.32-5.84s-6.6-7.68-9.76-11a2.79 2.79 0 00-2-1c-.48 0-1 .32-1.56 1-1.44 1.68-4.28 5.48-5.8 7.44-1 1.32-1.6 2.16-2.71 2.16a5.81 5.81 0 01-3.48-2 5.23 5.23 0 01-.92-2.12zm57.97 14.27c9.8-1.71 14.52-6.75 14.52-14S235 7.16 228.37 7.16c-.48 0-1 0-1.44.08a7.46 7.46 0 011.72 4.24 20.05 20.05 0 01-1.24 6.44c-1.68 4.8-6.32 12.56-10.4 12.56-2.68 0-5.48-4.24-5.48-9.16a15.37 15.37 0 015.32-11.24 17.29 17.29 0 0111.68-4.28c8.24 0 14.6 5.4 14.6 13.68 0 6.64-4.16 13.44-17.24 14.27zm-.28-25.35a15.22 15.22 0 00-7.56 4 12.87 12.87 0 00-4.12 9.24c0 3.84 1.76 6.76 3.4 6.76 2.64 0 6.32-6.32 8-10.12a18.83 18.83 0 001.44-6.16 7 7 0 00-1.16-3.72zm35.01-3.24a11.9 11.9 0 013.12-.8c1.72 0 3.92 1 4 1.8s-.56 1-.44 2.28.36 2.28.68 4c1.72-.44 3.32-.88 4.76-1.32 1.68-.56 2.32-1 2.68-1 1.16-.08 3 .28 3 1.24 0 .68-.59 1-1.59 1.24-2.2.44-6 1.24-8.44 1.8.48 2.28 1 4.56 1.4 6.68 3.16-.72 7.4-1.84 8.75-2.28 1.13-.32 1.32-.52 1.68-.56 1.8-.12 3.44.52 3.44 1.4 0 .52-.24 1-1.28 1.12A83.62 83.62 0 00270 22c.84 3.76 1.56 6.92 2 8.48a17.11 17.11 0 01.76 3.75c0 .6-.28 1.24-1.08 1.24s-1.76-1.24-2-2.27c-.2-.69-.48-3.16-.88-5.4-.24-1.4-.56-3.28-1-5.28-2.84.72-6.56 1.76-8.68 2.52-1.48.52-1.88 1.12-2.76 1.12a5.39 5.39 0 01-3.16-1.76 5.58 5.58 0 01-.76-1.92l.68-.44c1 .92 1.64 1.32 2.24 1.32 1.16 0 8.08-1.64 12.08-2.68-.52-2.6-1-5.16-1.4-6.72-2.16.48-4.28 1-5.84 1.52-1.12.36-1.36.8-2.08.8A5.54 5.54 0 01255 14.4a3.77 3.77 0 01-.64-1.76l.68-.32c.64.64 1.2 1.36 2.12 1.36a85 85 0 008.46-1.68A38.67 38.67 0 00264 6.08c-.44-.84-2-.76-3.44-1zm16.71.52a13.94 13.94 0 014.44 2.84c1 1 1.36 1.64 1.32 2.44a.94.94 0 01-1 1c-.64 0-1-.92-1.76-2a18.47 18.47 0 00-3.55-3.64zm3.48-2.52a16.05 16.05 0 014.48 2.48 3.41 3.41 0 011.32 2.56c0 .68-.36 1-.92 1s-1-1-1.84-2a18.42 18.42 0 00-3.56-3.4zm19.53 6.68c2.28 0 15-1.36 16.92-1.76 1-.24 1.56-.88 2.24-.88 1.16 0 4 2.08 4 3.2 0 .88-1.28 1.56-1.83 2.88-4.2 10-11.36 17.43-23.16 22l-.6-1C309.14 27.6 316.5 19 319 9.68c.16-.6-.08-.68-.48-.68-1.76 0-13.12 1.6-15.4 2.12-1.08.24-2 1-2.72 1-1.2 0-3.08-1.92-3.48-2.92a8.11 8.11 0 01-.42-2.2l.76-.28c.64.92 1.52 2.2 2.92 2.2zM336 3.76a12.2 12.2 0 012.56-.48c1.68 0 4.4 1.52 4.4 2.44s-.72 1-.88 2.28c-.2 1.92-.28 4.84-.32 7a34.19 34.19 0 019.87 3.68c1.21.76 2.25 1.76 2.25 3a1.29 1.29 0 01-1.29 1.36c-1.31 0-1.75-1.36-4.15-3.2a31.36 31.36 0 00-6.68-3.44c0 2.76-.08 9.32 0 13.56 0 1.75.12 3 .12 3.63 0 1-.4 1.52-1.28 1.52-1.32 0-2-2.19-2-3.56 0-.88.36-1.59.52-3.11.32-3 .32-9.52.32-12.56 0-3.2 0-7.56-.24-9.56-.12-1.28-1-1.52-3.12-1.76zM374.7 19c-.84 2.08-2.68 6.6-3.12 8.12a10.62 10.62 0 00-.68 2.88c0 1.16.8 2.43.8 3.39a1.07 1.07 0 01-1.16 1.2c-.72 0-1.36-.63-1.88-1.47a18.2 18.2 0 01-2.32-9 35.85 35.85 0 011.92-10.56 24.5 24.5 0 001-4.64c0-1.44-.92-2.76-2.24-4.2l.64-.52a9.43 9.43 0 012 1.2c.84.68 2.6 2.52 2.6 4.2 0 .92-.56 1.64-1.52 4a23.75 23.75 0 00-2.56 9.8c0 2.12.32 2.92.64 3.44s.52.56.88 0c.88-1.4 3.12-6.4 4-8.44zm4 3.44a15.46 15.46 0 001.16 3.56c1.36 2.36 3.48 3.76 8.4 3.76a38 38 0 006.79-.72c1.08 0 2.12.36 2.12 1.28 0 1.6-3.71 2.07-8 2.07-6.24 0-9.64-2.07-10.84-6.15a12.78 12.78 0 01-.52-3.56zm.44-12.44a20.5 20.5 0 019.56-2.48 13.24 13.24 0 015.55.84c.84.36 1.21.92 1.21 1.4s-.25.88-1.08 1a10.83 10.83 0 00-3.28.76 65.17 65.17 0 00-6.56 3.64l-.68-.72c1.8-1.28 4.64-3.36 5.48-4.08.48-.44.44-.72-2.2-.72a25.06 25.06 0 00-7.6 1.32z" fill="#fff" data-name="レイヤー 1"/></g></svg>