<svg xmlns="http://www.w3.org/2000/svg" viewBox="0 0 168.43 163.18"><defs><style>.cls-1,.cls-2,.cls-5{fill:#141414;}.cls-1,.cls-3,.cls-4,.cls-5{stroke:#fff;stroke-linecap:round;stroke-linejoin:round;stroke-width:0.5px;}.cls-3,.cls-4{fill:none;}.cls-4{stroke-dasharray:1.12 1.12;}.cls-5{stroke-dasharray:1.1 1.1;}</style></defs><title>how_to_img01</title><g id="レイヤー_2" data-name="レイヤー 2"><g id="レイヤー_1-2" data-name="レイヤー 1"><path class="cls-1" d="M6,70.7c-2.55.84-1.56,6.88-.77,12.23,1,6.55-.51,42.36-.94,48.67S2.77,149,2.77,149l51.76-18.11V59Z"/><polygon class="cls-1" points="66.18 55.92 2.7 80.03 2.7 75.21 66.18 51.1 66.18 55.92"/><polygon class="cls-1" points="66.18 51.1 2.7 75.21 0.25 74.03 63.73 49.92 66.18 51.1"/><polygon class="cls-1" points="0.25 74.03 2.7 75.21 2.7 80.03 0.25 78.85 0.25 74.03"/><path class="cls-1" d="M8,156.25s-1.56-15.76-1.16-25.81S8.1,112.93,10.6,95.11c1.13-8,.8-26.46-4.6-24.41L58.9,50.61c5.67-1.68,4.3,15,3.26,21.86-1.69,11.2-3.59,28.36-4,38.41s2.72,25.27,2.72,25.27Z"/><line class="cls-2" x1="60.12" y1="131.99" x2="7.61" y2="151.94"/><line class="cls-3" x1="60.12" y1="131.99" x2="59.61" y2="132.19"/><line class="cls-4" x1="58.56" y1="132.59" x2="8.65" y2="151.54"/><line class="cls-3" x1="8.13" y1="151.74" x2="7.61" y2="151.94"/><path class="cls-3" d="M93.23,16.16s-.47-5.87,8-5.87,21.69,16,24.87,32.43c3.38,17.5-2.92,36.23-2.92,36.23"/><path class="cls-3" d="M85.76,11.8s-.38-6.9,8.42-10.3,18.63.66,25.15,6.24,13.32,19.85,16.82,31.36,11.93,22.26,20,27.18"/><path class="cls-3" d="M90.68,17.76a3.89,3.89,0,0,0-4.92,1.52c-2.18,2.93-.72,13,0,16.38"/><path class="cls-3" d="M85.76,14S83.3,13.7,82,16.72s-1.8,9.08,0,17.12,7.6,25.21,7.6,25.21"/><path class="cls-3" d="M107.61,60a30.39,30.39,0,0,1,1.08,4.29"/><path class="cls-3" d="M131.23,118.21s7.14,3.17,9.85,6.23"/><path class="cls-3" d="M133.38,143.11s4.63,5.72,7.7,6.31,8.84-2.83,11.43-8.25,10.4-22,12.17-35.52"/><path class="cls-3" d="M138.91,122.55s1.23-11.9,3-16.26"/><path class="cls-3" d="M145.08,81.72s.48,8,0,10.21-4.67,16.13-4.67,16.13,0-2.24,7.86-4,18.26,1.06,19.44,4c0,0,1.06-23.92,0-27.57S166.65,72.71,161,70s-18.58-3.72-18.58-3.72-7.78,10.31-14.75,13c-4.54,1.72-7,2.48-7,2.48"/><path class="cls-3" d="M140.41,108.06c-.19.65.23.89.64,1"/><path class="cls-3" d="M167.71,108.06c0,1.46-1.72,1.83-3.78,2"/><path class="cls-3" d="M151.19,143.4s-1.31,8.36-1.12,12.39a16.89,16.89,0,0,0,1.57,6.58"/><path class="cls-3" d="M85.72,90.19s1-10.47,3.14-10.58,5.92,18.46,6.94,30-2.41,34.09-.22,43.29,3.77,10,3.77,10a43.7,43.7,0,0,1,11.86-7.57c6.27-2.42,20.31-5.46,21.55-7.48s.16-24-2.54-35.3S119.84,59.73,93.8,57.76C83.21,57,79,83.78,79,100.86s-2.51,38.67-5.76,39.06-2.63-14.5-2.63-14.5"/><path class="cls-3" d="M84.65,24a27.23,27.23,0,0,0,2,10.61c4.66,12,9.16,19.58,13.13,21.67S112.39,62.87,116,61c3.26-1.71,9.18-7.33,10.72-14.35"/><path class="cls-1" d="M66,125s-7.39-7.89-10.51-9.83-5-3.6-4.77-4.87S63.25,58.43,64.92,52.2,71.59,39,73.49,36.59s5.89-7.88,8.06-4.85"/><path class="cls-3" d="M95,137.88s-1.23-2.53-7.07,0-11.49,5-16.16,5.52-5.46-15.35-5.89-20,.28-46.14-.3-47.62-1.5-1.7-1.5-1.7"/><path class="cls-3" d="M69.18,50.44s1.47-4.69,2.75-4.68,1,12.81.62,17.6-2,50.76-2,53.49"/><path class="cls-3" d="M91.31,58.11s-1.66-6.45-2.53-9.24-2.38-8.43-2.38-8.43"/><line class="cls-3" x1="92.85" y1="51.87" x2="94.97" y2="57.88"/><path class="cls-3" d="M104,59.15s.44,1.26.63,2.09"/><path class="cls-3" d="M99.59,58.92s-.56-3-1.11-3.49"/><path class="cls-3" d="M141.05,85.54a21.55,21.55,0,0,1,3.19,9.54"/><path class="cls-3" d="M91.31,14.43s.13-3.56,4.31-5.81,8.72-1.16,12.53.39"/><path class="cls-3" d="M88.85,12.34S88.57,5.6,97.4,3.82s16.73,3.1,21.3,7.74,11,17.51,13.17,25.8,10,24.79,12,26.41"/><path class="cls-3" d="M128.62,39.45c1.32,3.95,4,25.54,2.61,34.6"/><path class="cls-3" d="M95.82,15.33a7.18,7.18,0,0,1,.08-3.85"/><path class="cls-3" d="M97.55,13.79a6.82,6.82,0,0,1,.28-3.1"/><path class="cls-3" d="M99.73,12.58a4,4,0,0,1,0-2.22"/><path class="cls-3" d="M85.76,19.28a3,3,0,0,1,2.63,0"/><path class="cls-3" d="M84.84,21.88s1-1,1.86-.78"/><path class="cls-3" d="M85.19,20.41a2.54,2.54,0,0,1,2.26-.25"/><path class="cls-3" d="M134.14,51.87s2.37,13.06,3.7,15.66"/><path class="cls-3" d="M120.28,19a121.15,121.15,0,0,1,8.34,15.75"/><path class="cls-3" d="M87.9,137.88s2,8.94,1.68,15a17.39,17.39,0,0,1-3.18,9.48"/><path class="cls-5" d="M97.83,160.36A38.58,38.58,0,0,1,108,154.12c5.32-2,12.54-4.09,16.73-5.23s8-3.13,8.44-3.89"/></g></g></svg>