<svg xmlns="http://www.w3.org/2000/svg" viewBox="0 0 320.17 36.76"><g data-name="レイヤー 2"><path d="M1.4 22.4c0 5.08 1 9.11 10.24 9.11 6.92 0 9.76-1.55 10.84-1.55s2.2.56 2.2 1.4-.44 1.11-1.64 1.52a37.35 37.35 0 01-11 1.31C1.92 34.19-1.08 29.44.32 22.4zm5.2-7.76c2-1.28 4.52-2.92 6-3.88.44-.28.4-.4-.16-.44-4.68.08-7.56-.24-10.52-3.48l.6-.72a12.64 12.64 0 008 2.2c4.76 0 5.68-.84 7.24-.84s3.56.76 3.56 1.68c0 .72-.4 1-1.4 1.2a26.55 26.55 0 00-4.32 1.12c-2 .72-5.64 2.56-8.4 4zm14-11.28a15 15 0 014.56 2.72 3.21 3.21 0 011.4 2.4.91.91 0 01-1 1c-.6 0-1-.88-1.8-1.92a19.68 19.68 0 00-3.68-3.48zM24.08.92a14.48 14.48 0 014.56 2.32 3.11 3.11 0 011.44 2.48c0 .68-.28 1-.88 1s-1-.92-1.92-1.92a21.35 21.35 0 00-3.68-3.2zm42.6 6.76a3.44 3.44 0 01-1.76.8v27a3.19 3.19 0 01-2.28 1h-.4v-2.6h-19v1.71c0 .36-1 1-2.16 1h-.48V5.4l2.92 1.36h5.8A42.3 42.3 0 0050.88.08l4.56.8c-.12.52-.56.88-1.4.92a31.41 31.41 0 01-3.48 5h11.28L63.36 5zM43.24 8v7.28h19V8zm0 8.44v7.48h19V16.4zm19 16.31v-7.67h-19v7.63zM91.36 1.68c-.16.44-.52.68-1.52.56-2.6 5.48-7.6 12-14.64 15.8l-.36-.52C80.8 13.16 85.32 6 87.32.12zM103 14.16l3.08 2.56a2.62 2.62 0 01-1.6.6c-.52 8.8-1.68 15.72-3.6 17.56a6.53 6.53 0 01-4.72 1.55 2.12 2.12 0 00-.88-1.92 16.07 16.07 0 00-4.56-1.2v-.68c2 .2 5.6.53 6.6.53a2 2 0 001.68-.53c1.4-1.16 2.36-7.63 2.8-15.63H92c-.68 6.64-2.8 14.12-15.12 19.67L76.4 36c10.8-6 12.4-13.11 12.76-19h-8.4l-.36-1.2h21.08zM97.6 0c2.52 6.2 8.84 11.8 14.6 14.6l-.12.44a3 3 0 00-2.48 2.08A32.93 32.93 0 0196.92.4zm35.3 2.44c3.2.32 5.16 1.48 6.2 2.64a4.52 4.52 0 011.32 2.84c0 .92-.44 1.32-1.12 1.32s-1.36-.36-2.44-.44a43 43 0 00-7.48.08c-1.2.16-1.68.32-1.68 1.12s1.6 2.84 2.76 4.56c5.6-2.8 10.8-5 15.32-5 4.84 0 8 2.8 8 6.72 0 4.32-3.84 6.56-8.32 6.56a11.63 11.63 0 01-8.68-4.4l.72-.64a12.13 12.13 0 007.84 2.76c3.44 0 5.84-1.8 5.84-4.8s-2.4-4.84-5.56-4.84c-4.12 0-9.12 2.4-14.08 5.28a92.44 92.44 0 016.12 12.36 18.3 18.3 0 011.34 5.27c0 1.12-.52 1.92-1.4 1.92-.64 0-1.08-.4-1.4-1.48-.28-.84-.68-3.07-1.48-5.67a54.2 54.2 0 00-5-11.28c-1.16.68-2.32 1.4-3.44 2.08-2 1.2-2.48 2-3.6 2a5.42 5.42 0 01-3.52-2.28 4.32 4.32 0 01-.56-2.24l.84-.36c.61.88 1.44 1.92 2.36 1.92a9.24 9.24 0 003.44-1.24l3.36-1.72a23.46 23.46 0 00-2.12-2.92c-.72-.88-1.56-1.52-1.16-3.08.44-2 2.08-1.8 3.32-1.88 3.32-.28 6.64-.44 7.8-.56.56 0 .72-.32.44-1-.48-.92-1.76-2.12-4.32-2.84zm31.17 19.96c0 5.08 1 9.11 10.24 9.11 6.91 0 9.75-1.55 10.83-1.55s2.2.56 2.2 1.4-.44 1.11-1.64 1.52a37.32 37.32 0 01-10.95 1.31c-10.16 0-13.16-4.75-11.76-11.79zm5.2-7.76c2-1.28 4.52-2.92 6-3.88.44-.28.4-.4-.16-.44-4.68.08-7.56-.24-10.52-3.48l.6-.72a12.64 12.64 0 008 2.2c4.75 0 5.67-.84 7.24-.84s3.55.76 3.55 1.68c0 .72-.4 1-1.4 1.2a26.49 26.49 0 00-4.31 1.12c-2 .72-5.64 2.56-8.4 4zm14-11.28a15 15 0 014.56 2.72 3.21 3.21 0 011.4 2.4.91.91 0 01-1 1c-.6 0-1-.88-1.8-1.92a19.68 19.68 0 00-3.68-3.48zm3.47-2.44a14.48 14.48 0 014.56 2.32 3.11 3.11 0 011.44 2.48c0 .68-.28 1-.88 1s-1-.92-1.92-1.92a21.35 21.35 0 00-3.68-3.2zm46.75 15.16c-.28.4-.63.52-1.47.28a42.36 42.36 0 01-8.52 5.16 27.25 27.25 0 0011.75 10.07l-.12.33a3.22 3.22 0 00-2.71 2.08c-7.24-4.35-11.88-11.55-13.76-21.87h-.76a28.85 28.85 0 01-4.48 3.16c7.88 6.12 8.12 16.8 5.08 20-.8 1-2.2 1.44-4.44 1.4a2.11 2.11 0 00-.84-1.72 11.08 11.08 0 00-3.4-1v-.68c1.64.16 4.52.32 5.48.32a1.26 1.26 0 001.12-.4c1.08-1.27 1.56-4.23 1-7.59a52.06 52.06 0 01-18.72 8.83l-.28-.67c6.84-2.29 14.2-6.64 18.24-11.44-.28-.76-.6-1.56-1-2.32a55.39 55.39 0 01-15.56 7.32l-.32-.64c5.16-2 11.12-5.6 14.48-9.08a14.89 14.89 0 00-1.6-2 55.28 55.28 0 01-12 4.8l-.36-.68a48 48 0 0013.7-7.58h-9.36L204.3 11h20.56l1.76-2.28s.72.56 1.56 1.24c.64-1 1.43-2.6 2-3.84h-26a6.77 6.77 0 01-2.28 5.2c-1 .72-2.44.88-3 0a1.84 1.84 0 011-2.24 7.47 7.47 0 003.2-6.48h.72a15 15 0 01.44 2.4h11.28V.12l4.12.44c-.08.56-.48 1-1.44 1.08V5h12.08l1.64-1.76 3.08 3c-.29.28-.73.36-1.53.4a26.1 26.1 0 01-4.8 3.8c.45.36.89.76 1.29 1.12-.08.44-.48.6-1 .6h-9.48a31.16 31.16 0 003.56 8.6 44.06 44.06 0 007-6.88zm24.2-.08a2.51 2.51 0 01-1.64.64c-.28 11-1.12 16.23-2.76 17.95a5.22 5.22 0 01-3.8 1.4 2.2 2.2 0 00-.6-1.8 6.46 6.46 0 00-2.8-.92v-.72c1.28.12 3.28.32 4.08.32a1.8 1.8 0 001.36-.44c1.08-1 1.76-6.27 2-16.07h-4.48c-.48 7.52-1.92 14.72-7.28 20.31l-.68-.64c5.4-7.63 5.36-17.63 5.44-26.95H242l-.28-1.16h6.84V.4l3.92.4c-.08.52-.4.88-1.28 1v6h2.56l1.88-2.44s2.12 1.72 3.4 3c-.08.4-.52.6-1 .6h-8.56c0 2-.08 4.08-.2 6.12h4l1.44-1.64zm11.48 7.24c.92 4.44 3.44 8.47 10 10.91v.48a2.4 2.4 0 00-2.32 2.12c-5.88-2.88-7.72-8.43-8.48-13.51-1 5.92-3.88 10.27-13 13.51l-.44-.72c7.52-3.24 10-7.43 10.76-12.79h-8.32L257 22h8.8a64.23 64.23 0 00.32-6.44h-3.36a19.73 19.73 0 01-4.68 5.2l-.56-.44A27.79 27.79 0 00262.69 9l3.8 1.2c-.16.48-.6.8-1.48.8a24.55 24.55 0 01-1.6 3.44h9.36l1.8-2.36s2.08 1.64 3.36 2.88c-.12.4-.52.6-1.08.6h-8a63.7 63.7 0 01-.36 6.44h5.12l1.84-2.32s2.12 1.68 3.36 2.84a1 1 0 01-1 .64zm-13.12-10.12a33.47 33.47 0 006.2-13l3.92 1.24c-.16.44-.64.76-1.48.72a32 32 0 01-2.2 4.56h10.68l1.88-2.4s2.16 1.76 3.44 2.96c-.12.44-.48.64-1 .64h-15.72a22.73 22.73 0 01-5.16 5.76zM286.1 8.8a3.57 3.57 0 002.52 2c2.08 0 9.8-2.32 16.4-3.84a54 54 0 019.08-1.64 8.18 8.18 0 012.84.44c.88.4 1.19.84 1.19 1.4s-.48 1-1.35 1-2-.12-3.44-.12a13.43 13.43 0 00-6.72 1.48c-1.8 1.08-5.8 4.8-5.8 12.8 0 4.36 1.8 6.16 3.4 7.16 2.6 1.56 6.12 1.31 7.76 1.31 1 0 2.28.68 2.28 1.68s-1.08 1.32-2.88 1.32c-2.32 0-6.28-.16-9-2.24-2.52-1.83-3.84-4.23-3.84-8.75 0-4.72 1.48-10 6-13.56.28-.24.24-.48-.2-.36A84.47 84.47 0 00291.78 13a6.72 6.72 0 01-2.44 1 5 5 0 01-3.84-3.12 9.81 9.81 0 01-.16-1.88zm24.56 4.84a15.2 15.2 0 014.56 2.68 3.34 3.34 0 011.36 2.4.93.93 0 01-1 1c-.59 0-1-.92-1.83-2a22.63 22.63 0 00-3.68-3.48zm3.52-2.64a15.84 15.84 0 014.51 2.32 3.14 3.14 0 011.48 2.48c0 .68-.31 1-.92 1s-1-.92-1.88-1.92a20.45 20.45 0 00-3.71-3.2z" fill="#fff" data-name="レイヤー 1"/></g></svg>