<svg xmlns="http://www.w3.org/2000/svg" viewBox="0 0 2607.01 2722.4"><defs><style>.cls-3{fill:#fff}</style></defs><g id="レイヤー_2" data-name="レイヤー 2"><g id="レイヤー_1-2" data-name="レイヤー 1"><path d="M474.15 2388.2s5.07 4 5.07 4.18 2.41 8.8 2.41 8.8l-.43 3.52-8.81 14.09-6.16 1.32s-2.86-.66-2.86-.44.88 3.3.88 3.3l-2.86.88 2.42 3.3-6.82 3.74-5.28-1.54 2 3.74s-6.39 1.1-6.39 1.54.89 4.19.89 4.19l-2.21 1.09-3.07-.43-.89 4.39s-9.9-4.18-11.88 2.42l5.72 5.5s-2.86 3.31 3.09 6.83l.87 3.3-5.72-4.84-4.84 4.62-5.06 11.22s1.54 5.06 1.32 5.06a17.14 17.14 0 012.86-2.85c0 .21 1.76 2.64 1.76 2.85s-15 11.89-15 11.89l-2.87-1.11 1.32-7s-2.85-4.85-2.85-5.07 1.53-4.62 1.53-4.62l5.29-7s6.82.22 4.84-7l-4.62-11.67.88-2.42 2.2 2.21 3.52-2.87 1.76.89 5.06-6 .66-2.42 2.42-1.32.88 1.32s9.25-5.72 9.25-6.16 2.42-4.18 2.19-4.18-8.81-3.81-8.81-3.81l-2.42-5.51-.44-4.39.22-2.43 7.71.45 5.5 2-2 4.62 3.74 3.08 7.26-3.08s.22-6.6 6.82-8.37l-.66-3.08a17.73 17.73 0 0010.12-14.08l.44-2.64zm-307.2 253.29l4.86 8.15 2 4.62 3.74.22 1.76 2.42 6.38 5.5s-12.32.66-15 1.77l-4.62-1.32-2.2-3.09s4-.66 3.74-.66a28.54 28.54 0 01-2.42-4.39 15 15 0 011.54-2l.22-4.18 2-.44-2-6.6zm-125 58.53l5.72-5.71s4.41 3.52 4.18 3.52 5.28-.66 5.28-.66a30 30 0 01.45-4.18c.21-.23 4-3.53 4-3.53l2.86-3.52s1.54-3.74 1.54-4 .66-4 .66-4h3.52l-1.32 5.06-3.74 6.38-4.18 5.51-.88 15.18-3.74.44-2 2.2-5.29.22-2-2.64-.66-2.42 2.86-2.2-1.54-4.41-4.17.66-1.55-2zm-30.37-.43l4.41 4 12.76 5.5-4.62 10.12-2.42 3.08-4.4-1.1-7.71-.22-4-4.18v2.42H.98l-.88-2.64 5.28-4.84 3.3 2.42-.21-7.92 3.07-6.6zm585-1151l-1.2.6-2.52 10.56 1.32.72 1.44-.11 1.08-1.09-.12-10.68zm.48 12.49l-.6 5.76-2.88 3-.12 2.64 2 1.8-2.64.24-2 2.88.35 1.56 2.17.84-.48 1.68-3-.12-2-3.6-1.55 3.37 3.24 2.15a15.83 15.83 0 002.28-.11c0-.13 4.8-2 4.8-2l4-5.17 3-5.28s-2.16-1.56-1.8-1.56a18.77 18.77 0 002.52-1l-.84-1.68 2.28-.24 1-1.32-1.68-1.32 2.64-1.09 1.44-2.76v-6.48l-3.6.13.12 3.11h-1.68l-.36 3-6.48 1.56zm-38.25 9.75c.24-.24 1.92-2.16 1.92-2.16l3-.6.6-1.44 1.32-.12a41.45 41.45 0 011.68 4.08c-.12.12-2.16 1.08-2.16 1.08l-.6 1.92h-1.92l-2.16-2.28s-1.92-.24-1.68-.48zm4 13.92l-1.44 4.57.36 2.64.72 1.44-.72 1.32-1.32 1-1.08 2.64.84 1.2v1.68l-1.56.12a6.77 6.77 0 01-.48-1.44s-1.56.6-1.56.84a18.72 18.72 0 01-.6 1.92l-3.12.84-1.33 1.32 1.33.24 2.4-1.08.35 1.68 1 1.32a17.17 17.17 0 01-1.8 1.32 14.7 14.7 0 00-2.28.24l-1.8 1.68s.12 1.44 0 1.44a37.85 37.85 0 003.24 2.28c.12 0 2.16 2.52 2.16 2.52s-.24 2-.24 1.92-.13 3.36-.13 3.36v3.36l.37 2.41s2.64 1.56 2.52 1.44a25.17 25.17 0 010-3l-.6-1.92 1.8-1 1.68.72.36-2.64-1.08-2.16 1-1.44.84-3 .12-2.4 2.88 1.2 1.2-1.92 3.24-2.52.24-2.88-1.8-1.44-3.72 1.68-3.36.6.12-4.56 1-5.28 2.4-5.88-1.68-2.41 1-3.36-1.32-.6zm1.32-6.84c0-.12 2.4 2.76 2.4 2.76l-1.32.6.84 3.12-2.28-1.32-.24-4.2a6.7 6.7 0 00.6-1zm-15.73 35.89l4.09.84 1.56 1.2.35 4.33-.12 2.39-4-1.67-2.88-.12-1.08-3.37-.24-2.88 2.28-.72zm-2.51 6.48l2.27 3.85-1.43 5.28-1.57 1.68-3.36-6.49-2.64-.6v-2.16l1.92-1.32 1.44 1.69 2.17 1.2-.72-2.52 1.43 1.07.49-1.68zm-8.05 5l3 1.92 1.44 3.49-2.76 4-3.91-1.05-1.8-2.41.84-4.43 1.32-.25 1.56 3.85 1.68-.61-1.44-4.44zm-17.64 12.85l4.32-1.92s.6 2 .72 1.92 1.56-1.92 1.56-1.92l1.44 1.92.6-4.56s1.32.84 1.32.72 1.92-3.24 1.92-3.24l2.16 5.28 2.52 1.08-1.08 5.64.36 1.56 5 4.68-.72 1.68-7.8.24-1.08-2-4 1.2-.12 3.37 2.4 1.43v2l-1.92 2.53a7.33 7.33 0 01-1.68-.13c0-.12-.48-2.51-.48-2.51l-1.2-1.32-7.68-.37-.73 1.69h-2.51l-.25-1.57-3.11-.72.72-3.24 1.44-.12v2.19l2.52.24 2.16-6.48-1.81-4.32.84-1.56-1.07-2.64-.25-3.84 1.69-2 2.52.11 1.44 1.93-.24 3.12zm61.61-233.44s1.16-4.79 1.16-5 1.81-5.45 1.81-5.45l6.44.66 3.47-6.6 2-1.49 6.27 4.29-2.31 3 2 .83-2.31 4.29-2.64-2.47-1.32 2.14 3.79 2.31.33 2.64-.33 2.81s-1 3.3-8.74 11.72l-1.16 2.31 1.49.66-1.49 4.95 2.64-2.31-1 6.1 2 1-1.15 3.46-3 3.14-1.82-1.82.17-5.61-1.49-1-2.48 3.47-2.14-1.32 1.48-2.81-1.48-.66-2 3.63s-5.61 1.16-5.61.66.16-2.15.16-2.15l4.46-.33.66-6.76 3.3-3.47h-3.16l.5-3.46 3-5.45 3-1.32-4.46-4.62zm-9.57 30.53l2.64-.16.17 3.46 4.12-.66 2.15 1.16-1.82-2.64a16.61 16.61 0 001.65-.66c-.16 0 3.3 4.12 3.3 4.12l2.65-.16 2.47-.66 2.15.16-2.15 2.31-3.63.66-1 5.94-2 1.82s-3 10.89-3 11.06a62.64 62.64 0 01-6.27 5.12c-.17-.17-2.15-3.64-2.15-3.64l-2.64 1.49 1-9.74 1.16-9.41 1.15-9.57zm49.85 61.55l2.87-1.2 6.49 1.68-1.32 4.2 4 3s-.12 1.08-.24 1.08-3-.48-3-.48-.24 2-.24 1.92a14.52 14.52 0 012.28-.12v3.48s-6.72-1.2-7 3.84l-3.13-.23-1.2-1.93.37-1.92-2.53.24-1.32-3 3.48.12-2.16-2-.23-4.2 3.59 1.32-1.55-2.52.84-3.24zm49.84 119.34l-3.63 1.65-4.62 4 3.3 3.3 6.6.33 5.61-4.29 6.93-1 4.29 3.63 3 7.93-.33 6.93-2.32 3.3.66 2.31-4.62 4.62-4.29.66-4.95 5.61-4.29.33-4.95-4.95-.66-4 8.25-6.27v-3.63l-2-.33-.66-2.31 1-2-5.61-.66-5.28-1.32-6.28 5.94-6.27-2-.66 3-6.6 12.54s-5.28 1.32-5.28 1.65-5.94 7.26-5.94 7.26l-4.62.66 3.3-3 3.63-6.6 1.65-2.64-3-2.64 4.62-.66 2.64-5.28-2.81 2.31-3.79-5.12.33-2.14-3.47-2.15 1.16-2.8-3.14-.17-1.48 1.32-3.3-2.64-2.81-7.76s-2.81-5.11-2.81-5.28a20.32 20.32 0 00-2-1.81l.17-4.46 1.81-1.49-.49-5.44 2.14-3.14 1.16-4.45 3.63.82.66 1.65 1.3 1.21.17 2.31 2.14-1 .66 1.32-3 3.46 1 2.64 3-2.31 1.16.5 3.13.66 1.82 3.63-1.32 2.48-.17 4.78h-1.48l-.17-3-1 .66s-.49 4-.16 4 2.47-.16 2.47-.16l-.16 2.14-1.65 1a9.18 9.18 0 01-.17 2.15c-.16 0 6.11 3.79 6.11 3.79l.33-2.8 1.49 1.48 1.65-3.79 1.15 1.15 1-1 3.14 1.65 3.46 1.82.17 1.15s3.79-.33 3.63-.33-4.29-4.45-4.29-4.45l1.32-.5-.5-1-2.14-.82-2.15-4.29-.16-4.29 1.65-1.82.66-4-7.1-7.26h-2.47l-3.14 3.63-.83-.66.17-2.31-3-2.64-2.15-.17-1.65-3.13 1.32-2.48-5-1-1.15 2.14-4.3.83-.82-2.15 2.15-1.48-.83-3.14-2 .33v-3l-1-2.31-3 2.48-.83-3.8-4.95.33-.82-7.92 6.1-4.95-3.13.33-1.49-1.49-.33-1.65 1.32-.33v-5.28l7.76 1 2.14-3.63 1.16.82-1 3.64 4.46 1.65 2.64-2.31 1.81.82 2-1 1.07-.1.09 3.9-3 5.94 5 5.94s.33 4.62 0 4.29 2.64 5.28 2.64 5.28l10.23.66 2.31 6.6-2.64 1 1.65 4.95 4.95 2.31 6.61 7.92 10.23 3 4.95 1-4 5.61zm18.48-36.31l10.57-11.88 9.57-8.25v-10.57l-3.63-1-6.93 3.3-.66 2.31-2.31.33-1.65-4-12.88-6.27-17.82.66-5.94-.33.33-2.64 7.59-2.31 6.27-5.28-5.94 1 1.32-3-3 .33-2.31-2.64 6.6-.33 1.65-2-.33-2.31 5.61-3.63 2.31.66-.66 3 5 1.65-1.32 3.3 4.29-.33 8.92-1.32 3.3-6.27 1-3.64h-2.31l-4.29 3-.67 2-6.27-2.64-2-2.65 1.65-2 2 3 3.63 1 6.94-6.28 4.62-4.29-.66-5.94 2.64-7.92 4.29-1.65v-3.33l4.62.66 1 1.65s3.63 1.65 8.58-2.64l2-4.62 8.92.66 2.31-2h5.94l5.28 5.94 4.62-2 2.64-5.29 5.28-1.32-2.75 13.96-2.64 4 3 1.32-.66 5.61s10.57 19.48 10.9 19.48a30.66 30.66 0 003.3-1.65l5.54 2.24.33 6.93-2.31 6.93-15.85-2-10.89 9.24-2.64 7.93s-4 5.61-4 5.94 2 9.24 2 9.24l-3.63 1.65 1 5.28 4.95 3.63-4 10.24-5.61-2.65-11.23-5.28-3 7.27-8.58-1.33-.33 3.64-7.59 4.95 2 5.94-9.24.33.11-4.18-.23-4.62-2.26-3.08-1.55-5.29-2.53-1-1.32-6.6zm-55.45-6.27l-5-5.94 3-5.94 2.53 2.64 2.64 3.74s1.1-.66 1.1-.88-1.1-2.64-1.1-2.64l1.54-5.72 1.32-2.21-.22-3.3-2.86-.43s-5.06-5.73-4.84-5.73a33.12 33.12 0 002.2-3.74l3.3 4 1.32-1.1-2.2-6.38 2.42-1.1 2.64-3.08 4.4.22 3.52 3.08-2 4.62 3.08 3.52s3.52 2.86 5.95.22l1-3.19 5.94.33 17.82-.66 12.88 6.27 1.65 4 2.31-.33.66-2.31 6.93-3.3 3.63 1v10.45l-9.57 8.25-10.57 11.88 1.32 6.6-7.26-.66-.66-1.32-4.62-4-8.91 10.9-2.31-2 .33 2.65 3.63 6.6 2.64 7.26 3.47 2.31-.2 2.53-2-.17-4.95-1-10.23-3-6.61-7.92-4.95-2.31-1.65-4.95 2.64-1-2.31-6.6-10.23-.66s-3-5.61-2.64-5.28 0-4.29 0-4.29zm75.59 98.7l.66-3.3 2-1.32-3.63-3 8.91-7.93 4.62-3-1.65-3-6.93 1.65-6.6 2-5.94 1-.33-2.64 8.58-5.61 2.31-2.64 4.95-3s.33-5.94 0-6.27 0-3.63 0-3.63l-3.3-6.61-4.95-1.32-.33-3.63-7.92-4.95-2.64-10.56 9.24-.33-2-5.94 7.59-4.95.33-3.64 8.58 1.33 3-7.27 11.23 5.28 5.61 2.65 7.26 5.28 3.63 1 3 3.63 3-2.31s1.32-6.27 1.65-6.6-4.95-6-4.95-6l2.31-5.28 3-.66 8.26.66 5.61 6.27 5 9.25 4.62 12.21-.66 9.57 4.62 4 4 3.3-5.94 1.33s-5.22 8.78-3.3 8.91l-4.29 4-2.64 6.93-3.3-1-2.31 8.25-2.31 3.63-5.29.66-4.62 11.89 4.62 9.24 2.65 1.65.33 5.28 4 4.29-6 6.27-1 3.64 6 6.93v5.28l-10.24-2.31-4.29 6.93-5.61-2.31-6.93 4.62h-12.54l-4-2.64-3-4-4.62-4.62-6.27 5.61-8.25 3h-6.27l-4.63-5.28 1.33-4.29 3.3-4.95h3.3v-4.22l4-3.31s1.65-9.24 1.65-9.57 7.92-8.25 7.92-8.25v-4.95l-3-.33zm-21.95-5.94l4.46-.83s2.14 3.3 2.31 3.14 3.3-2.81 3.3-2.81l3 .66-4.29 12.54.16 2.15-3.79 2.64-2.81-.16-.33-3.63-1.65 2.31-4.62-.33-1.32-1.82-1.65 3.14-2.48-.5.33-2.8s-2.64-2-2.31-2.15.33-3.14.33-3.14l11.39-8.41zm-30.79 26.57l-4-.17-1.65-4.29 2.8-9.24s4.79-6.6 3.8-11.72l-2.81-2.14 2.48-1.32 1 1.81 2.15.83 5.28-4 8.09.49s.49 12.05.82 11.88-.16 8.42-.16 8.42l1.32-.82 1.32 2.64-1.65 1.65v3.13l-3 3.14-1-4-1.81 1.32-1.65 4h3.13l-1.15 1.81-3.47.83-4 6.93-5.11 1.65 2.27 6.95a14 14 0 01-2.64.33c0-.16-3.47-5.77-3.47-5.77l1.32-5-4.62-.83 4.95-6.44 1.49-2.14zm33.67-5l2.15.33-2.32 4.29-5 1.32 2.15-1.65.66-2.81 2.31-1.48zm6.11-34l2.64-.17 1 1.49-.66 3.46.16 3.47-4.62.5 1.32-4.3-2.8-.49 3-4zm-25.38 105.18l2.64-6.93s7.26-10.89-2.31-18.82l2.64-4.95 1-3.3-3.52-2.53.88-3.74 3.74-2.42 5.06.22 1.1 1.76 4 .44 2.43-1.76 2.19-4.84 4.63 5.28h6.27l8.25-3 6.27-5.61 4.62 4.62 3 4 4 2.64-1.33 5.61 6.94 4.62 1 4.3 3.63 5.94 4.95.66 4 5.94-2.64 6.93 1 3.63 9.9 3.63-1.32 3 4.29 2 4 13.21 2.32-3.3 4 3.63h3.3l2.31-1 4 7.59-1 9.24-3.3 2-.33 3.63-5.61-1.32s-10.57 6.28-9.25 13.54l8.59 5.28.33 1.65-3.3 2.64.66 2 4-.66s-4.62 6.93-5 6.93-6.28.33-6.28.33l-2.31 6.6-1.32 4-11.55 6.6h-4.29l-10.56 6.27-4.3 6.6-2.31-.66 2-3.3.66-4.62-2.31-2s7.27-4.62 7.27-5 4.29-9.25 4.29-9.25l-1.65-2.31 3.63-5.94 1.65-11.22s-5.61-14.86-10.24-16.18l-1-5.61.66-4.29-6.27-.66-4.95-4 3-5 5.94-1.32 3.3 2 .67 5.94 3 .66s4 1.65 5.61-8.25l2.64-4-3.3-5.94-6.27-2-4-2.64s-11.88 3.64-8.91 9.91l-2 4.95-2.31 3 .33 3-1 3-3.63 5.28-.66 4.29s-1 20.8 14.85 25.75l-1.32 5.94-2.31 3 1.32.66-1 2.64-3.3-.66-1.32 2.64-3.63-1.32-4 .66.33-3.3s.33-8.58-13.86-7.59l-9.58-2v2.31l-7.26.33 1.65-3.63-3.63-1.32 2.31-2-4.62-2.31 3-1.32v-3l-4.29-2-4.29-6.27 4.62-2.32 5.61 4.3c2 .66 27.4-23.11-3-44.9l-2.31-5zm-8.4-49.18l2-1.32.33-3.3 4.62.49 1.49-1.65 3.47 3.8-2.32 2v1.48h2.32l.16 1.82-2.64 2-1.82 5.94-1.48-1.48-3.47-2.15v-4l-2.64-3.63zm17.17-15.85l1.65 2.64-2.48 3-2.8.33.33-4.3 3.3-1.65zm62.05 235.36s13.54-9.74 9.41-25.91l5.12-9.41 1.48-4.13s-.66-.82-.82-.82 3.46-5.28 3.46-5.28 2.31-2.31 2.31-2 3 7.09 3 7.09l-1.32 1 .33 8.92s-2 3.63-2.15 3.79.33 8.42.16 8.58-2.14 1.82-2.14 1.82-.5 3.8-.66 4.13a20 20 0 01-3.47 1.48l-3.3 8.91 1.49 6.11-1.32 6.77s-7.59-.17-8.59 4.29l-2.64-2.48.66-3.46-.16-5.28-.83-4.13zm-37 0l11.72 7.1 5.94 3.63-.33 7.76-5.77 8.25-5.94 3-11.23-.33-2.31-3.8-.66-4-3.46-7.26-.5-5.12 4.79-.82 4.95-8.42zm-135.72 276.62c.44 0 13-4.41 13-4.41l4-4.84 6.61-1.53s3.74 1.53 3.74.87.66-4 .66-4l4.18.22s.22 3.53.22 3.3a27.47 27.47 0 011.76-2.64l.22-5.06a29.58 29.58 0 003.08-2.42c0-.22 7.7-2.64 7.7-2.64l-2 5.72 2-.88s.22 2.42.66 2.42a38 38 0 004.41-2.64s-1.55-6.38-1.77-6.38 3.52-4.62 3.52-4.84 1.11 6.16 1.11 6.16l2.42 2-.89 5.51s-4.39 3.07-4.62 3.07-4.18-.43-4.18-.43l-7.7 9.67-1.1 2.65-6.38 2.2s-2-1.76-2-1.54 0 5.06-.22 5.06a19.84 19.84 0 00-2.2 2s3.74 4.18 4 4.18-7.27 3.74-7.27 3.74l.23 4-7-1.54s3.74 3.74 3.51 3.74-3.51.66-3.51.66l-4.18-2.42-2.43-8.14-4.84-.66s-3.74.44-4 0-5.72-4.18-5.28-4.4 4.84-2.2 4.84-2.2l6.16 1.32 4.62-1.76s-11.44-3.08-11-3.08zm-.66 14.08l7.26-.88-3.52 3.08s3.74 5.06 4.18 5.06 9.91 2.87 9.91 2.87-2 6.16-2.21 5.94-2.64-3.3-2.64-3.3l-1.75 3.3s-2.64-.66-2.64-.89-.23-3.3-.23-3.52-4 3.09-4 3.09v-7.71s-2.86-1.53-3.08-1.53-1.32-5.51-1.32-5.51zm76.36-16.51l4-2.64 5.51-4.62s3.52 2 3.3 2.21-6.17 9-6.39 9.24-3.52 1.54-3.52 1.54l-3.08-2.2.22-3.53zm-107.2 76.15c.22-.22 2.64-3.3 2.64-3.3l-2-4.85.22-5.28s.44-7.7.88-7.7 8.36-.22 8.36-.22l-.43 9 6.37 6v2.86l-4.17 10.12-7.27.44-1.1-3.52s-3.74-3.3-3.52-3.52zm-30.37 41.37a33.85 33.85 0 016.16-2c.66 0 7.05-3.08 7.05-3.08l-3.09 3.3-4.18 6.38-2.85.22-2.64 3.52s-4 .66-4.19.66a33.12 33.12 0 01-2.2-3.74l-.22-5.28s6.16.22 6.16 0zm-19.58 45.11l3.3-3.08 2 2 1.54 4.18-1.54.89-3.52-1.11-1.76-2.86zm146.87-614.55l1.49-3.47 2.81-.17 5.28 5.12v-2.81l1.32-.49.49 5.94-2.47-.16-3 2.31-1.32-4.13-4.63-2.14zm2.64 4c0 .33.33 3.13.33 3.13a12.26 12.26 0 01-1.32 1.82c-.16 0-2-.5-2-.5l.5-3.3s2.47-1.48 2.47-1.15zm-4.62 6.27s-1.81 7.26-2 7.26l-3.13.16-.83 3.14-2 4 1.65.33-2.8 4.29-4.13-1.32-1-3.46 1.48.49 2.15-5.61 1.82-3.47 4.95-1.48 2.47-4.29zm107.78-41.76l6.93-4.62 5.61 2.31 4.29-6.93 10.24 2.31v-5.28l-6-6.93 1-3.64 6-6.27-4-4.29-.33-5.28-2.65-1.65-4.62-9.24 4.62-11.89 5.29-.66 2.31-3.63 2.31-8.25 3.3 1 2.64-6.93 4.29-4c-1.92-.13 3.27-8.91 3.3-8.91l5.94-1.33 3.63 4 5.29-1 6.27-3 3.63 4-1.32 4 6.6 2.31s2.64-2 3-2.31 12.21-.66 12.21-.66l3.63-7.27 11.23 2-.66 6.6 1 4.29-1.32 2.64.33 3s-2.64-.66-2.64-1-4.29 4-4.29 4l-3.3 4 2 .66-2.65 4.62-3.3 1-2.64 4.62.66 5 2.31-1.32 1.65 3.63-4 3.3-3.63-1.65-.66 4.29h2.31l1 3.3-4 1.32-1.32 7.26s-4.62 5.28-9.57 28.39c0 0-7.26 25.42-8.58 31.69 0 0-1.32 11.55 3.63 12.87l-3.3 8.91v6l.33 4.62s-7.27 5.28-7.6 11.22c0 0-.33 7.59 0 7.59s-3 2.31-3 2.31l2 3.3-4.62 6 1.65 3.63a7.21 7.21 0 01-1.65 1c-.33 0-2.64-4.29-2.64-4.29l-3.63 2-3.63-1.65.66-5-5.28-3.64-3.3-1 .33-3.63 3.3-2 1-9.24-4-7.59-2.31 1h-3.3l-4-3.63-2.32 3.3-4-13.21-4.29-2 1.32-3-9.9-3.63-1-3.63 2.64-6.93-4-5.94-4.95-.66-3.63-5.94-1-4.3-6.94-4.62 1.33-5.61zm4.28-138.7l-4.95-3.63-1-5.28 3.63-1.65s-2-8.91-2-9.24 4-5.94 4-5.94l2.64-7.93 10.89-9.24 15.85 2 2.31-6.93-.37-6.97 6.6 1 3.63 3h14.2l4.62-4.62 4.95-6.61 5.94-.66 1-2.31 6.27 1.65 6.27 6.28 3.3 5.94.66 5.94-1 3.3.66 4.29-3.3 6.27.33 2.64-3-1.65-5.28.66 2.64 3.3v1.66l-5.61.66v2.26s-4.29 1-4.62.66l-2-2s-6.27-1.32-3.3 6.6c0 0-1 8.58 6.27 7.26l3.63 1 9.24-4 10.9 4.62 10.89-3-3.63 6.27.66 2.31-4.29 2.31-.33 3.63-2 3s4.62 2 4.62 1.65 4.29-2.64 4.29-2.64l2 1.32-5.61 5.29 7.59 1.65.33-2.64 1.32 2.31h3.63c-.33 0 3.63-4.63 3.63-4.63s0 6.94-.33 6.94-8.25.66-8.25.66l-1.32 3.3s-2 4.62-2.31 4.62 3.63 4.29 3.63 4.29l3-.66 2.48 2.81 1.65-2.48.82 2.64 4.29-1.32 3.14.83s.49 1.32.33 1.32-4.62.66-4.62.66v1.15l-2.31-.82-.83 2.14-2.47-1.32v4l2.47-1 1 1.16-4.45 2.8-2.48 2.48 1 2 1-1.32 1.16 1.65.33-2 2.8.49-.16 1.16s-3.3 4.13-3.47 4.13-2.8-1.16-2.8-1.16v2l-5-1-.66 4-1.48-2.31-.33 4.62-2.31 1.82-1-4.29.66-6.6-11.23-2-3.63 7.27s-11.88.33-12.21.66-3 2.31-3 2.31l-6.6-2.31 1.32-4-3.63-4-6.27 3-5.29 1-3.63-4-4-3.3-4.62-4 .66-9.57-4.62-12.21-5-9.25-5.61-6.27-8.26-.66-3 .66-2.31 5.28s5.28 5.62 4.95 6-1.65 6.6-1.65 6.6l-3 2.31-3-3.63-3.63-1-7.26-5.28 4-10.24zm221.19-127l.6-1.92 4.56.6 1 2.28 3-.37-.35 1.81-1.44.36-5.56 6.07-2 .24-.12-5.89 2 .61v-2.6l-1.68-1.19zm5.29-6.48l3.59-.49.49 2.28 2.27-.12-2.15 2.89-1.56-1.45-1.81 1.2-1.68-1.79.85-2.52zm-11.05-4.57l1.68-2.52 3.6-1.32 1.68.72 2 4.2.6 4.44-2.99 1.72-2.88-.49-4.08 2.64-1.32-2.27 1.2-2 2.52.24.6-4.08-2.64-1.33zm-35.52 171.24l-2.2.66-1.76-.88.66-2.2-6.82.88-2.64 2.2 3.08 1.1-6 .44s-.43-4-.21-4 3.08-2 3.08-2l-2.64-1.76 1.54-2.2 1.76 1.1 1.32-.66-1.1-2.64-2.64-2.2-.22-3.08-2.87.88-3.52-2.2-.66 3.3-1.32 2.42-2.19-1.54 2-1.54.21-3.74 2-1.32 3.31 2.64 3.08-1.32-2-2.87 1.75-2-3.3-3.3 5.28.66v-1.32l-6.37-2.64.66-3.3-1.32-2.42-2.64 2.64-1.32-3.3 3.3-1.76 3.3.44 1.09 4 4.62 1.33-.43-5.07 2.42-1.54.22-4.18-5.06-1.76.87-3.08 3.31-2.42a10.72 10.72 0 01-2.42-.88c0-.22-6.38.88-6.38.88l-2.2.88-5.04-2.33 4.62-3.52.66-4.19-3.3 2.64-.44-1.32.66-6.37 2.42-4-4-1.1-2.42-1.76-2.86 2.2-1.76-.66-2.42 2-4.62 3.08-3.08.89s-5.28 3.3-5.28 3.07-.66 2.21-.66 2.21l-2 1.54-2.86-.45 1.54-1.75-.22-1.32-2.87 1.75-4 2.87-3.07 1.09s4.62-4.62 4.62-4.83 5.71-4.41 5.71-4.41l1.32 1.55.45-1.32a16 16 0 002 1.09c.21 0 .87-1.32.87-1.32l-2.41-1.54s2-1.1 1.75-1.1 1.55.89 1.77 1.1-.22-2.2-.22-2.2l2.64-.88 2 1.1 2.2-2.42a6.85 6.85 0 01.88 1.32c0 .22 2-.44 2-.44l-.22-1.76 2.86-1.1c2.86-1.32 12.77-8.36 12.77-8.36 3.73-8.36 12.76-11.66 12.76-11.66 15.18-7.05 13.86-13.87 13.86-13.87l2.64-1.1-.22-4-.66-4 2.2-5.72-.88-2.42.67-3.09 3.3.23 1.53-2 1.32-3.74.22-6.61 2.87-1.32 6.16-6.16 6.38-1.1.22-4.84-2-1.32 4.18-3.08 3.08 3.74s2.42 4.62 2.2 4.62 3.74 2.42 3.74 2.42l3.09 8.36 3.51 5.07 5.29 2.41 4.62-1.75 6.38-1.32 3.08-3.09 4.4-1.53 2.86 1.32 5.06-.89 11.23 2.21 4.4-4.19 5.12-4.96 2.42 1.21 3.63.33 2.53 2.2-.88 3.41 1 7.93-2.75 5.83-3.52-.22-9.24.66-4.63 5.65h-13.87l-7.59.33-3.63 5.28-2.64 1-3-2.31-8.26 17.17-4 2.31v4l-2.64 4 1.32 5-5.28 7.59-5.28 2-12.83-.86-2.64 2.31 5 10.9 4.29 4.62-2.65 4.29-7.26 3.3-3 3.63-.33 5.28-2.64.66-5.61 8.25-6.27-6.6-2 1.32 3.3 8.25 2.31 1 1.65 19.14-3 2 .33 2.31-3.63-.11zm110.91-119l6.6 2 7.27-.33 6.31 5.91 4.95-1.32 1-3 2.59-1.26 5.94 2.64 3.63 12.87-1.65 3.3 11.89 1 2 5-3.64 3 5 7.26 11.29 2.31-2.42 3.85-4.29 6.93-.33 2.31-3.3 5.94 1.34 1.32-2.31 4-2 13.86-4-5.94h-3.29l-.33-4.65-4.62-4.29-2.31-.66-.33-4.3s-11.55-5.28-9.9-9.57l-9.57-3.63-8.26-.66-2.31-3s-10.23-1-17.16 3.3l-1.61 2.67-10.9 5.28-4.78 1-4.79 2.64 1 .83 4.95-1.32 3.8-1.49.33 1.82-5.28 2.31-5.78.16-2.47 2-2.64 1.65-2.15-.66-2.64 1.65.66.82v2.64l-3.14 1-.16 1.49 3.3.82-2.64 2 1.81 1.82.33 7.92s-2.14 2.64-2.8 2.64-2 1.32-2 1.32l.49 3.63-2.47-.49-3.14 3.13-2.47 5.95-2.65 1-1.65 8.08s-8.91-7.75-10.89 9.41l1.49 4.46-.17 4.29-2 1.65s-3 .16-3 .66-.5 6.44-.5 6.44l3.8 2.47 2.81 4.46.33 4.29-5.61-.66.49-2.31-3.3-3.47-7.1-1.48-2.47.29-1.49 2.64-3.63 1.48-4.27-1.12-4-4.13-2.15-.33-4.62 1.82-.33 2-2-.66.33-3.3 3.47-5.45-.66-1.82 3.63-4.29 2 .33-.17-4.62-5.61-.33-.33-2.31 3-2-1.65-19.14-2.31-1-3.3-8.25 2-1.32 6.27 6.6 5.61-8.25 2.64-.66.33-5.28 3-3.63 7.26-3.3 2.64-4.29-4.29-4.62-5-10.9 2.64-2.31 12.87.66 5.28-2 5.28-7.59-1.32-5 2.64-4v-4l4-2.31 8.24-17.07 3 2.31 2.64-1 3.63-5.28 7.59-.33h13.84l4.62-5.61 9.24-.66 3.52.22 3.74 3.1zm92.93-49l1.28-1.58 1.23.7.22 1.72 1.77.13-.53 4.32-3.44-1.29-.53-4.06zm-90.62 27.53l.33-2.64 5.94-4.29 4.3 1 .66-3 11.88-2.6 3.63 5.28 4.29-2 2.64-3.63 6.6-.33 2.6-1.65-.33-3.3 14.2-3.63 9.57 1.32 5.28 1.65 1.32-1 1.65-4.46 2.68.09s2.8-4 9.81-2.1l.7-2.11 1.93.35.35 2.11-.35 2.62 5.78 2.8-3.5 7-1.23 5.79s.35 8.06.18 8.06a20.31 20.31 0 001.4 2.8l2.1.18-.35-2.28 1.4.35a8.79 8.79 0 006 7.36l.18 4.73-2.81 3.5-3.68 1.58.7 2.46h4.91c.18 0 2.28-.35 2.28-.35s.18 1.75.18 1.57a15.41 15.41 0 00-3 .7c.18 0 .18.88.18.88l3.51-.18a12.31 12.31 0 011.57-1.4 7.78 7.78 0 011.22 1.05l-10.32 6.19h-2.8a22 22 0 01-1.76 2.45l-3.15-.35-.53 4-2.62.52-.53 2.63-11.56 6.66-3.16.35-3.85 4.56 2.62.35a28.17 28.17 0 00-2.27 2.45 11.89 11.89 0 01.17 2.45l-4.73.18-1.34 4.13-11.35-2.38-5-7.26 3.64-3-2-5-11.89-1 1.65-3.3-3.63-12.87-5.88-2.57-2.64 1.32-1 3-4.9 1.26-6.27-5.94-7.27.33-6.6-2-3.74-3.08 2.75-5.83-1-7.93.88-3.41 3.41-1.21zm-8.58-6.93l.33-8.25-.33-7.92-6.27-5.29.33-2.31 5.61 3.63 3.63-1 1 1.65 7.26-6.93 9.58-5.28 5-3 1-3.63 4-1 7.92 3.3h8.25l-.33-3.3 3 1.65 1.47-4.24 2.64 3-.64 5.58 2.32 1.65.33-2.31 3.3-2 3 2.31 1.32-.66.33 4-.66 2.31 11.22 6.6 2.31-2.31 6.27 7.43-1.65 4.46-1.32 1-5.28-1.65-9.57-1.32-14.2 3.63.33 3.3-2.64 1.65-6.6.33-2.64 3.63-4.29 2-3.64-5.31-11.88 2.64-.66 3-4.3-1-5.94 4.29-.33 2.64-3.41 1.21-2.53-2.2-3.63-.33-2.42-1.25 3.41-4.4zm54.76-58.33l1.57 1.67 4.44-.23 4.2-3.48 4.08.59 1.68-1.8 5.16-.11-3 2 2.4 1.19-.48 3.61-1.56 3.47 1.08.61-1.8 4.92-1.68-2.16-2.16.11-1.08 1-.84-.6.6-1.44 1.8-.25h1.56l-.48-1.32-1.56-.84-1.56 1-1.81.36-2 6.72-1.93.36 1.45-6.12-1.45-2.29-3.36-.48-2.64 2.41-2.16.23-.35-1.55 1.79-3.13.12-1.79-2.16-.6 2.16-2zm-205.61 77.73l6.16-5.5 4.62 2.43 2.2 3.73 2.86 2.43 4-2.86 3.75-.66.66-2.87 2.86.23 1.53.88 2.21-.66-2.64 2.64-2.91.21-.43 2-4.19-.21-1.09 4 .87 4.18-2.42-2-2.64.22.22-2.64-4.84-1.76-1.32 2.42-4.84.22-1.1 2.2-.88-2.64-2.64-2v-4zm-10-66.25l-.6 11.35 5.3 3.63s2.87 12.4 2.72 12.4 4.68.6 4.68.6a22.62 22.62 0 00.46 2.87 28 28 0 003.84-1.57l-.44 4.08 1.32 4-2 2.64-2.64 2.64 1 14.19-4.29 4.62-4.95 1.32 1.65 7.6s1.65 4.95 2.31 4.95-3.63 1.65-4 1.65-1-4.29-1-4.29l-5.62-5.61c.33.33-3 2-3 2l-3.63-2.64-7.59-4.63-5.28-4-3.3-2.31-2.64 2.31v2.64l-4.62-2.64 6.27-4.62-7.59-4.95-13.87 2-4.62 7.92-6.27-2.31-.33-2-4.95-1.65 1.65 3-4.62 2.31s-5-6.93-5.29-7.26-4 11.22-4 11.22l-7.59 5-6.93-2.65-3 2-2-3 1-2.64-7.59-7.92s-5.29-1.65-5.62-1.65-5.94 8.91-5.94 8.91l-5.28 4.29-2 3.64-3.3-4.3h2.64l.66-14.19-5-5.28.66-4 5.94-6.6s-.66-6.61-.66-6.94-4.29-6.93-4.29-6.93l2.31-8.58 3.63 1.32 9.57-3-2-3s-4.95-1-5.61-1.32 2.31-4 2.31-4 4.62 3.63 4.29 3.3 6.28-1.65 6.28-1.65l5.28 1.65 3 4.62 5.61-.66 10.89-1.65 2.31-3.3s5.94-.66 5.94-.33 6-9.57 6-9.57l-.33-2a16.09 16.09 0 001-2.31c0-.33 3.63-.33 3.63-.33l5.94-6.6s-.66-2.64-.66-3 2-2 2-2l2.64-.33v-3l3-2.31 2 3 4.51-3.52 1.1 2.86-.44 3.08 2.64 1.76v5.28l-1.54 2.42-.21 3.52-3.53 2.87 3.08 3.52v4.31l2 1.54 3.31-.88 4.83.88-2.85 6.82 1.53 5.28 4.41 3.74 6.16-.66 4-4 4.18 4 .66-3.52 2.86-3.52 1.54.22-2.2-7.48 3.75-5.07 3.73-1.09 1.65 3.5zm128.19-72.27v3.63l-1.65 1.65-.68 10.24 7.59 9.57-.66 9.58 4 8.25-2 7.26 7.26 9.57-.66 10.57-1.09 2.2-.88 2.42-2.64-2.2v2l-1.76 1.1v4.18a33.12 33.12 0 01-3.74 2.2l-1.76-1.76-4.84-.66-2.2 1.1-.66-2 1.76-2-.44-2.86-2-1.32-1.32 2.42-12.32 5.06-3.3-1.76-.89 6.16-4.4 2-9.24-.66-.66 2-7.71.58v2h-2.86v-1.54l-3.74-.22s-1.54 4-1.32 4.41-3.52-.23-3.52-.23l.21 2.64 2.43.66-2.87 2.21-5.94-.23v2.21l-5.5 2.64-4.4-3.3s-2.64 3.73-2.64 4-3.08-.23-3.08-.23l-1.1-3.52h1.76l1.1-1.76-4.18-1.54-.88-5.06-1.55-3.74-2.85-4.4-2.64 1.1s-6.39-1.76-6.82-1.76-6.17 2.2-6.17 2.2v3.3s-9.46 7.7-9.68 7.92a12.48 12.48 0 000 2.87l1.32 2.41a28 28 0 01-3.84 1.57 22.62 22.62 0 01-.46-2.87s-4.84-.6-4.68-.6-2.72-12.4-2.72-12.4l-5.3-3.63.6-11.35-1.65-3.5-.66-3.3-2-.44 1.76-3.31 3.09-1.76 2-2.2 2.2-4-1.11-3.08 4.85-9.68-3.08-1.76 2.85-3.75 6.39-2 2.86-7.48 5.06 3.09 1.76-2.43 2.2.88 5.07-.66v1.76l1.75.22 2.64-2.41-.43-1.55 2-.66 1.75 2 8.15.44 7.92-5.28 5.94.45.44-1.77 2.42.66.22-4.4-6.38-2.64 5.94-7h5.29l4.18-6.83 10.78-12.1 3.08 3.3 5.94-.21 1.76-2 6.38 3.73.44-1.75 7.27.21 2.64 1.32 8.91-1 2.31 1.65 5.28 6.94zm-48.69 104.36l2.64 2.51-3.84 2.65h-2.64l-.47-2.15 4.32-3zm-8.65 1.79l-2 2.17-.6-1.32-4.2-1.45-.72-1.79 1.21-1 3.71 1.32 1.8.12.84 1.92zm.84.37l1.08-1.69 1.21 2-.12 1.09-2 1.2-.13-2.64zm7.81-8.16l4.68-3.49.84 1.92 2.88-3.84 1.56.48-2.52 5.28.12 3.25-5.76.72-2.28-1.09-.24-2.28.72-.95zm22.8-4l1.93-4.45 5-.72 1.45 1.8-5.16 5.16-2 .37-1.22-2.12zm8.65-10.69l2.52.24 4.08 5-1.92 1.2 1 1.08-1.79 2.76-2.64-2.88-2.29-3.6 1.09-3.84zm-67.73 25.95l.23-3.53 1.54-2.19 4 1.53.44 2-3.52 1.11.22 1.54h2.86l-.22 4.18 3.3-1.32 1.1 2.42-2-.22-4.4 8.8-1.1-.88 2.2-4.4-1.32-2.42-6.16 1.76-2.43-2 6.6-4.18-1.32-2.2zm-7.48-2.87l-.66-3.07-3.3-3.3-.44-4.85 4 .89 2.87 4.18 2.41.87.45-2.64-1.54-2.64-1.55.23-.66-3.3 4.85-.45.43 7.05-.21 2.86-2 3.08 2 2.86v1.54l-6 2-.21-2.2 2.41-3.09-1.09-2.19m-17.17-5.5l-1.1-2.43 2-2 .44-1.76 3.08-1.54 1.32-1.54 2.2 2.2-6.16 6.82-1.76.23zm104.87-108.37l.33-3.3 3 1.32 9.57-3-2.64-6.6 1.65-2.31 4.62 2.31 7.6-2-2-6.27 6.27-2 3.3-12.22 8.25 3.64 2.31-1 9.9 4.29 3 5.28 2.31-.33 2.31-5.28 6.6-1.65.66-3.3 7.59-2.32-1 5.29 10.23.66 3.63 4.29 4.28 12.31 8.91-5.28 5.28 1.65 8.25-6.27.5 2.47-2.48 1.82.66 3.3 2.64 1.65.33 4.62-4.62-.66-2 7.92-2.64.33-.33 5-5.61 2.64 1.65 3.63-.33 4.29-2.64 3 3 4.95-2.64 9.24 4.29 1.65 3 6.94-.5 4.45-3.79-.49-4.29 1.65-1.65-1.65h-2.66v3.3l4 1.65-2.37 2.2-4.29 3.3.66 2.7-3 2-4 2.64-4.29.66-.66-2.31-5.94-1-6.6 1.65 1.32 1.65 6.6-.66 2 2-1.65 4-2.31.33-.33 2.64-2.31-2-1.65 2-.33 3.64-1.65 2.64-2 3.63-5.2-2.42h-6v3l-3.63.33-3.63-8.92-.33 4.63-3.3-.66-.66-7.93-3 2.64-7.92 5.62-10.23 2.64-5.29-.66.66-10.57-7.26-9.57 2-7.26-4-8.25.66-9.58-7.51-9.55.66-10.23 1.65-1.65v-3.63l-5.28-6.94 2.31-2.31zm-3.15-59.5l-.81 3.06c7.59 12.87 17.16 7.25 17.16 7.25l3.3-4.29h3l4.29-2.64 7.59-1.65c10.89 6.93 33.67 2.64 33.67 2.64l8.91-2.31 3.3 1.32c24.76-2.64 24.76-6.6 24.76-6.6l2.64-3.63 4 .33 3.8-1.49 3.13 5.45 2.91 15.87 4.29 2-1 5.28 4.63 3.3v9.58l-7.93 6.93-3.79-.5-.5-2.47-8.25 6.27-5.28-1.65-8.9 5.26-4.3-12.21-3.63-4.29-10.23-.66 1-5.29-7.59 2.32-.66 3.3-6.6 1.65-2.31 5.28-2.31.33-3-5.28-9.9-4.29-2.31 1-8.25-3.64-3.3 12.22-6.27 2 2 6.27-7.6 2-4.62-2.31-1.65 2.31 2.64 6.6-9.57 3-3-1.32-.33 3.3-2.31 2.31-2.31-1.65-8.91 1-2.64-1.32 2-7.92 4.17-2.2-1.09-5.72-2.64-.66 2.41-3.3 13.21-3.83-.66-5.72-1.1-5.73 3.08-2.19-.44-6.61 1.4-.14-.54-1.54-1.92-.77-2.39-1.4-5.08-5.39-1.87-2.44-1.25-2.42 1.92-1.84h2.46l1.38-.12zm-20.29 59.62v.06l-.43 1.69-6.38-3.73-1.76 2-5.94.21-3.08-3.3-10.78 12.1-4.18 6.83h-5.29l-5.94 7 6.38 2.64-.22 4.4-2.42-.66-.44 1.77-5.94-.45-7.92 5.28-8.15-.44-1.75-2-2 .66.43 1.55-2.64 2.41-1.75-.22v-1.76l-5.07.66-2.2-.88-1.76 2.43-5.06-3.09-2.86 7.48-6.39 2-2.85 3.75 3.08 1.76-4.85 9.68 1.11 3.08-2.2 4-2 2.2-3.09 1.76-1.76 3.31 2 .44.66 3.3-3.73 1.09-3.75 5.07 2.2 7.48-1.54-.22-2.86 3.52-.66 3.52-4.18-4-4 4-6.16.66-4.41-3.74-1.53-5.28 2.85-6.82-4.83-.88-3.31.88-2-1.54v-4.18l-3.08-3.52 3.53-2.87.21-3.52 1.54-2.42v-5.28l-2.64-1.76.44-3.08-1.1-2.86 6.83-.66s13.2-1.54 11.88-9.9l7.7-4.19 2-3.73 2.86-1.77 2-5.06 2.2-.88 3.3.44 1.32-5.5 4.41-4.84 12.76-9.9s6.82-3.09 7-3.09a53.74 53.74 0 002.2-5.28l6.6-4.62.66-5.28 17.39-12.1s13-2.64 10.56-16.95a41.05 41.05 0 01-4.84-1.54c0-.22-.22-2.2 0-2.2s7.26-2 7.26-2l6.16.44.44-1.1-3.51-2.42 7.48-1.1 5.72-3.74 11.88-.66 1.1-4.4 5.06 1.32 2.86-2.86-.88-2 4.84-.66s-.43-2.87 0-2.87a27.87 27.87 0 013.6 1.62l1.75 4.4 6.17-1.54 5.72-.88 6.6.88.22 1.54-5.06.44-1.5.9-1.38.12h-2.46l-1.91 1.79-4.87-.06s-2.07 2.77-2.15 2.77 1.15 4.23 1.15 4.23l-2.61 3.69 3.38.54 3 1.61 4.24-2.15 7.38 3 .16 1.08 2-.63.44 6.61-3.12 2.19 1.1 5.73.66 5.72-13.21 3.74-2.41 3.3 2.64.66 1.09 5.72-4.17 2.2-2 7.92-7.27-.21zm-1.54-48.64l-3.52-2.2h-6.6l-3.3 2.42-5.5.66 3.52 6.6 1.32-1.76 10.16-2.39h2.42l1.1-1.54.44-1.76zm6.15-84l3.12 1.73-.52 3-1.38 2.25-5.21 3.82.52-7.12 3.47-3.64zm-14.23 8l-2.25-.17.17-3.47 2.6-3.82 2.64-.21s1.55-2.43 1.9-2.43 3-.18 3-.18l.86 1a15.72 15.72 0 001.74-1.73c0-.17 1.38.52 1.38.52l-.69 3.3-3.64.52 1.21 2.08-.52 2.95-3.3.17-.69-3.64-2.43.86.35 3.83.35 1.9-2.61-1.56zm3.82 3.82h3.82l.17 1.22 2.78.86-.35 1.74-5.73-.69a20.66 20.66 0 01-.69-3.13zm28.63-40.09c0 .18 9 7.29 9 7.29s-.7 10.07-.52 10.07-2.58 1.24-2.58 1.24l.18 3.3-5.56-1.22-2.81 1.53-2.95-.52.52-2.25-4.3-3.13-1-5.89 1.18-4.82 3.81-4.16s5-1.56 5-1.39zm119.11 141.65l7.93-6.93v-9.58l-4.63-3.3 1-5.28-4.3-1.96-3-15.84-3.1-5.47 13.7-6.77 11.22 2.31 4-2.64h13.2l8.26 1.32.66 4.63-2 3.63 6.28 5.94 1.32 3.3 11.55-2.64-.36 6.23 1 9.24-4.62 4-5.61-3.63-3 7.26 1.65 6.61 14.19 8.25 3-2.64 5.61-.33 4.62 8.58-.66 3.3 2.69 1.36 2-2.64 5.28 1-.33 3.3 10.23 3 1.32 4.62-2.64 5.45-2.64-.82-1.65 3.3 2.64.66-1 5.94 11.55 5.94-4 1 .66 3h2.31l-3.63 10.23 4.9 10.12-5.28 6.1-8.25-3.46-4 2-1.25 2.26-3.63-1.32-3.59 1.32 2.31 4-4-2.64-2.31 3.3-12.21 2-4.29-2.31-4.62.66-24.43-17.16-26.08 1-2-6.28-1.32 6.28-2.64 5.28-10.07.16.5-4.45-3-6.94-4.29-1.65 2.68-9.25-3-4.95 2.64-3 .33-4.29-1.65-3.63 5.61-2.64.33-5 2.64-.33 2-7.92 4.62.66-.33-4.62-2.64-1.65-.66-3.3 2.48-1.82 3.79.5zm24.73 125.59l-1.2-5.4 2-4.45 3 .84 2.64-1.56 1.2-6.36 4.2-5.28.36-2.88 2.53-2.76 2.87-.13 1.57-5.28 2.51-3h1.92l1.69-1.69h1.58l6-8.28 3.6 4.2-3.24 4-.36 3.85-4.2 4.91-3.48 4.33-2.17 4.56-.23 7.08 5.88 8.65.24 1.79s-11.64 5-15.49 8.89c0 0-4.2 0-7 2l-.6-2.41-1-1.2h-2.16v-1.06l1.68-2.29v-1.92l-1.44 1.2-3-.35zm74.3-107.44l-1.32-4.62-10.23-3 .33-3.3-5.28-1-1.93 2.72-2.65-1.32.66-3.3-4.62-8.58-5.61.33-3 2.64-14.19-8.25-1.65-6.61 3-7.26 5.61 3.63 4.62-4-1-9.24.33-6.27-11.55 2.64-1.32-3.3-6.28-5.94 2-3.63-.66-4.63 6.24 1.17 4.17-1.91 2-4 5.23.24 5.12-4.53-.24-1.66 14.87-4 6.19 5.48 2.14 4.76-.41 3.83h-1.19l-.11-2-2.7 1.53-1.43 5.11-6.57 8.07.47 2.26 1.79.6.12-2.62 4.52-5-.24 3 2 .83.23 1.78-3.45-.23v2l7.14 3.21.6-1.42 1.66.11.12 4-2.26 3.09.72 2.5 4-4 3.81.71.47-3.93-4.4.59-1.3-5.56 8.1-2.49 4.27-4.88-.71 3.69 2.62 2.33-3.52 4.18 3.3 2.64-1.54 5.28 6.38 5.72v4.84l10.35 1.54 8.14 3.53 2-1.55 4.18.66 5.17 4.41 2 4.29 3-.66-3.3 7.92 3 8.25-4.62 15.19 5.94 11.55-.33 6.93 3.31 2.31 3-.66 10.56 8.25-2.31 2 1.65 1.65 2.8 6.44-2 3.9-4.55-.5-.71-3.85-6.37-1.11-3.23 5.66-7.59-.91-6.06-1.92-3.44-6.22 1.81-4.46-7.26-11.55-2.31-3.63-4.29-.33.66-5.28h-4.62l-1.32 3.63 2.31.33v3l-2.64.33-6.5-4.37-.33-5.28-10.89-3.3-1.32-3.8 2.64-5.45zm6.6 44.9l-4.95-10.24 3.63-10.23h-2.31l-.66-3 4-1-11.55-5.94 1-5.94-2.64-.66 1.65-3.3 2.64.82 1.32 3.8 10.89 3.3.33 5.28 6.28 4.29 2.64-.33v-3l-2.31-.33 1.32-3.63h4.62l-.66 5.28 4.29.33 2.31 3.63 7.26 11.55-1.81 4.46-2.48 3.8-.33 3.3-2.31 4-2.31 11.22h2.64l.33 2.64-3 3.3.66 2.31 2.31 2 .66 9.58-2 3 1 1.32-.33 2-2.16 2.29-5.11-.66-9.89 5.92-1.67-2.26-10.23 3h-4.29l-6.6 4-.33-2.64-7.92 2-.33 2.64-9.91 1.32-1.15-4.29 4.12-2 7.93-3 10.23-9.9 11.88-13.54 3.3-6.93-.33-5.66-5.94-5.61 1-2.15 5.28-6.1zm53.81 135.33l.33 3-5.28 1.32 1.65 3-1.65 3 2.64 2-16.84 10.89-4 2.31-12.54-3-12.55-3.3-12.21-6.93-2.31-9.24-4 .33-.66-2 4.95-1.65 1.32-5-20.14-11.88-4.29-7.59-3-2-6.27-.33 1-4.95 4-3.64-4-.66 3-4.29 6.6-5.28-6.6-4.62 1-5.28 1.71-2.64 5.28-1.32v-4.62l-3-.66-2.31-6.61-6.27-3.3 3.14-5.61 1.15 4.29 9.91-1.32.33-2.64 7.92-2 .33 2.64 6.6-4h4.29l10.23-3 1.65 2.31 9.91-5.94 5.14.78.5 3 1.32 8.91 5 2.31 1.32 5.28-2 2.32-4.62-2-13.21 18.48 5.95 5-.66 3.3 2.64 1 3 4.62-4.29 7.6 3 4.62 5.28-3.3 7.59 1.32 5-2 4.46 2 1.46 2.28-.07 4.48-.12 3.78 2.85.88 5.07 6.38 4.18 2.42 3.63.55-3.3 6.27zm-31.69-91.76l.33-2-1-1.32 2-3-.66-9.58-2.31-2-.66-2.31 3-3.3-.33-2.64h-2.64l2.31-11.22 2.31-4 .33-3.3 2.48-3.8 3.44 6.22 6.06 1.92 7.59.91 3.23-5.66 6.37 1.11.71 3.85 4.55.5 2-3.9 3.14 7.85-4 11.22 6.6 5.28 3.3-2 2.64 1.65.66 4.29 4.29-1.65.66 4.3-2 5.61-10.23 2.31-3 5.94 5.94 8.58-3.63 2 4 7.26-4.95 6.94 2.64 2.64-.61 10.63-.66 8-7.26-1.1-6.38 7.26h-5.06l-2 3.52-.89 5.07-2.46-1.34-.08 6.84-1.79-2.86-4.46-2-5 2-7.59-1.32-5.28 3.3-3-4.62 4.29-7.6-3-4.62-2.64-1 .66-3.3-5.95-5 13.21-18.48 4.62 2 2-2.32-1.32-5.28-5-2.31-1.17-8.84-.5-3 2.15-2.31zm13.75-126.76l.66-3.08 5.94 1.32 4.62-3.74-.21-6.16 2.85-4.84 4.41 3.3 12.76-6.6.66-4.41 5.94 1.11.44-3.09-3.52-9.67 1.1-3.31 2.64-.88 3.74 2 6.82 3.53.93 4.68 3 .15.22 9 3.1 1.55 2.42-2.42 2.64 5.06 3.52 17.16-2 2-1.54 9-1.42 6.93 3 3.19-.55 4.62 4.95 3-2 6.6v5.61l-2 1-.33 8.25-5.28 10.89-10.89 5.61-8.52-3.65-3.63.66-3-1.65-2.64 2.31 4 1.65-3.63 3.63.66 2.31-7.26 4.29-1.65-1.65 2.31-2-10.56-8.25-3 .66-3.31-2.31.33-6.93-5.94-11.55 4.62-15.19-3-8.25 3.3-7.92-3 .66-2-4.29-5.17-4.41 4.4-5.5zm39.61 18.49l6.39-5.73c3.08-3.51 3.78-13.53-3.75-13.2l-2.64-5.94.89-1.76v-5.28l-3.3-1.32-.89 6.6-3.08-.44.44-2.86-1.76.22-.44 3.3h-2.2l-1.32-1.76-3.52 4.62.88 2-1.1 1.32-.22 2.87 3.3 3.3-.22 5.05-2 1.32-2.86.45v3.08c-5.5 1.76-5.94 6.38-5.94 6.38-7.71 4.4-3.3 9.68-3.3 9.68l-.66 5.07-4.18 5.71-2 6.83 4.18 3.3 1.32-2.64-.22-4 3.3-4.19v-6.6l1.76.66 3.08-2.86 6.82-1.1.88-4.84 5.5-3.74 6.82-3.52zm26.92 3.54l1.73-2.1 4.51.45.67-2.85 2.77.45 1.05 4 7.43 9.08 2.11.38.14-2.56 2 1.74 2.22 3.14 6.72 6 .08 5.61-9.35 3.52-2.34 8.2 1.32 2-1.32 3.63s-4 10.23-8.26 13.2c0 0-5.28 8.59-3.63 13.54l2.64 2-.66 7.59 4.63 1.32a10.81 10.81 0 018.25 5.94 24.56 24.56 0 006.93 3l8.25 4.3 6.06 3.08-.45 3.3 1.77 1.1 1.53-1.33 2.43 1.11-.45 4.18-1.32 3.04-3.08.22-2.81 3.07 4.84.88a25.08 25.08 0 00-2.41 2.64c.21 0 2.85 7 2.85 7l-5.49 3.3-6.83-.21-3.08-2 7.7-.45-.44-2.2-7.92-.44-3.3-1.32-1.1 2h-2l3.3-5.5-2.42-1.54-.88 1.32-2.42-.88-1.76 3.3 2.64 1.1-8.15 5.72.66-3.3-3.52.44-.66 4.84h-1.53l-.89-3.73-3.08.66 1.33 3.51-3.31 2.86-1.76-1.75-9.68 5.71-2.42-2.19-6.6 5.94-.89 3.74 3.75 1.76-4.18 4.4-1.76-3.52s-5.73 5.5-5.73 5.28 5.28 1.1 5.28 1.1l-.21 2.86 3.51 2-1.75 2.42.43 4-2.41.66-.71-2.7-3.53-1.54-1.32 4.18 3.08.44-.21 2.2-2.64.66-.23 3.3-3.3.45.89-2.43h-2.65l-.22 4-4 1.32s-6.6 8.81-7.92 15.63l-1.87 5-3.63-.55-4.18-2.42-5.07-6.38-2.85-.88.12-3.78.07-4.48.41-6.26 2.47 1.32.89-5.07 2-3.52h5.06l6.38-7.26 7.26 1.1.66-8 .66-10.56-2.64-2.64 4.95-6.94-4-7.26 3.63-2-5.86-8.63 3-5.94 10.23-2.31 2-5.61-.66-4.3-4.29 1.65-.66-4.29-2.64-1.65-3.3 2-6.6-5.28 4-11.22-3.14-7.76-2.8-6.44 7.26-4.29-.66-2.31 3.63-3.63-4-1.65 2.64-2.31 3 1.65 3.63-.66 8.59 3.63 10.89-5.61 5.28-10.89.33-8.25 2-1v-5.61l2-6.6-4.95-3 .55-4.62 3.81.24zm-100.31-39.5l2 .18-.37-2.94h2.76s-.74 5.7-.74 5.52a18.89 18.89 0 012.23 1.8s4.59-.92 5-.92 4.23-5 4.23-5l4.05-1.1.56 3.13a13.35 13.35 0 00-2.76-.19c-.19.19-1.48 4.78-1.48 4.78l5.7.19 7-2.39a29.17 29.17 0 00-.37-4 37.7 37.7 0 012.58-2.94l2.76 3.13 2.57-1.66-2.2-3 1.65-.73 1.84 1.1s2.4-3.49 2.4-3.67-5.53-4.17-5.53-4.17l1.1-1.47s7.18 3.32 7.35 3.32h2.55l6.26-.74.91-2.58-1.65-2-.19-1.84 1.11-1.1.18-2.58-2-1.1-.19-2.4 6.44-5.33 2.39 9.2a15.56 15.56 0 00-1.46 1.84c0 .18 2.2 2.76 2.2 2.76l3.68-2.58 1.84-8.82c.73-8.1-10.67-16.75-10.67-16.75s-.18-2.2-.18-3.86.54-3.68-2.21-6.25-.74-5-.74-5c4.42-1.11 7.36-14.72 7.36-14.72a17.1 17.1 0 007-9.38l2.76-2.95-1.28-5.42 5.94.16 6.5-5.81 2.33 3.59 3.62 1 3.05 3.93 1.42 7.78 6.35-.11 3.84 4.06 2.19-.11 2.63-2 8 .55 9.35 8.15.33 2.29h3.07l1.87-1.42 4.56-.63 1.57 1.82-3.77 3-.33 6.27 9.92 13.22 1 4-5 6.6-27.73 4-.66 3-12.87-4-6.6 2.64-2.8 9.55-1.61 4.1-6.82-3.53-3.74-2-2.64.88-1.1 3.31 3.57 9.62-.44 3.09-5.94-1.11-.66 4.41-12.76 6.6-4.41-3.3-2.85 4.84.21 6.16-4.62 3.74-5.94-1.32-.66 3.08-4.4 5.5-4.18-.66-2 1.55-8.14-3.53-10.35-1.54v-4.84l-6.38-5.72 1.52-5.28-3.3-2.64 3.52-4.18-.11 3.87zm149.44-205l5.15-2.14 2.86 1.5 2.43-1.14.15-2.15 1.21-1 1.57 2.43-.85 1.14 1 1.87s-6.5 1.71-6.58 1.71-1.64 1.79-1.64 1.79l-3-.22-2.3-3.79zm35.09-25.74l-3.3 4.62s-10.79-2-14.09 2l-.44 2.85s-3.74 3.09-2.64 5.29l-3.52 1.54-.88 2-1.54.44-2-2.2-3.3-.44-.89-1.54 2.21-1.77-2-1.09-3.75 2 .66 2.42-4.4 7.26 1.55 1.32s0 3.52-.23 3.52-2.41-.22-2.41 0-1.11 4.4-.89 4.4 2.64 1.1 2.64 1.1l2.21-.87.21-1.77s3.52 0 3.52.22 3.3 11.22 7.27.22c0 0-.88-3.08 4.18-2.86l-.22 14.09-.18 4.55-6.13-.5-11 5.67-4.29 21.45-5.61 3.64 2.61 5.61-3 8.25 2.66 7.88-2.66 17.21 2.31 6.6-2.31 2 .87 3.88-.32 3.05 2.7 4.26 3.15.68.15 2.54-7.35 10.09.22 4.05-2.81 5.87-4.56.63-1.87 1.42h-3.07l-.33-2.28-9.31-8.12-8-.55-2.63 2-2.19.11-3.84-4.06-6.35.11-1.46-7.81-3-3.94-3.62-1-2.38-3.58 2.86-2.42 2.64-4.84 4.2-.9s42.3-41.79 44.23-70.4l-1.32-2.42 1.76-4-.22-5.28-2-1.32-2.64-7.05.88-4.4-.66-4.62s-1.76-4.62-3.3-.22c0 0-2 2.42-1.76-2.2 0 0-1.32-6.82 3.3-9.46l-.22-2.21s3.52-.87 2.2-8.8l2.86-4-.44-2.42s7.92-2 11.67-5.28c0 0 6.6 3.3 11.88-1.32l5.72-2.42s5.28-2.86 5.94-5.28c0 0 5.94-3.52 10.79-3.08 0 0 9-5.07 13.2-2.86l2.86 2.86s-2 2.2 1.1 5.28a5.43 5.43 0 01-4 2.86c-2.64-4.18-13.43 5.28-6.83 10.34l.89 3.3zm35.53 118.65l5.31-7.14-.49-3.21 5.45-11.16 4.52-2.13.58-21.15.63-1.94-.95-4.35s-1.8-3-1.8-3.06l.09-5.67s-1.62-1.62-1.71-1.62-.54-7-.54-7l-4.77-.9-2.86-4-3.26-.08-3.73 1.68-8.52 1.2-1.56 1.8s-6.48-.24-6.36 5.4l.12 4.56-2.33 4.8-.48 3.12-4.2 2.65-1.68 3-9.24-1.45a16.59 16.59 0 01-14.88-1.32l-6.52-5.52s-8.29-3.84-2.64-9.6l2.52-3.72-.6-1.32 2.1-3.22-6.13-.5-11 5.67-4.25 21.45-5.61 3.64 2.61 5.61-3 8.25 2.66 7.88-2.66 17.21 2.31 6.6-2.31 2 .87 3.88-.32 3.05 4.16-.49 5.85-7.1 8.26 4-1 6.93 4.29-1.65 6.6-11.88 12.29-9.96h13.54l23.36 8.35 5.24.12 2.09-1.71zm-96.42 155.65l-.95 4.52-2-1.74-.14 2.56-2.11-.38-7.43-9.08-1.05-4-2.77-.45-.67 2.85-4.51-.45-1.73 2.1-3.81-.24-3-3.19 1.42-6.93 1.54-9 2-2-3.52-17.16-2.64-5.06-2.39 2.42-3.08-1.54-.22-9-3-.15-.93-4.68 1.61-4.1 2.8-9.55 6.6-2.64 12.87 4 .66-3 27.73-4 5-6.6-1-4-9.9-13.21.33-6.27 3.77-3-1.57-1.82 2.81-5.87-.22-4 7.35-10.06-.15-2.54-3.3-.74-2.59-4.27 4.16-.49 5.85-7.1 8.26 4-1 6.93 4.29-1.65 6.6-11.88 12.27-9.95h13.54l23.36 8.35 5.24.12v3l6.08 3.73-1 6.27-7 10.21 2.31 3-4.29 9.91 5.61 5-14.85 22.37-4.29-2-9.24 9.58v3.63l9.24 4.29 10.56 15.51-1.65 4 4 12.87 7.27-2 1.61 8.57-3.31 4-4 15.89.22 3.7-4.3.09-7.79 6.51h-2.72c-.18 0-7.79-5.43-7.79-5.43l-5.44-2.17-3.26 2.35-7.43 2-2.35-2.9s-3.26-2.17-3.08-2.17-4.53-.36-4.53-.36l-5.07-8.16-5.62-4.16.18-3.44-2.72.36-.49 2.89s-3.62 2.17-3.26 2.17-8.74 2.33-8.74 2.33l-3.81.54-1.19-1.27-2.72-.36-8.7 15.76s-.17 5.8 0 5.8-.72 1.63-.72 1.63m0 0s.91-1.63.72-1.63 0-5.8 0-5.8l8.7-15.76 2.72.36 1.27 1.27 3.81-.54s9-2.36 8.69-2.36 3.23-2.14 3.23-2.14l.54-2.9 2.72-.36-.18 3.44 5.62 4.16 5.07 8.16s4.71.36 4.53.36 3.08 2.17 3.08 2.17l2.35 2.9 7.43-2 3.26-2.35 5.44 2.17s7.61 5.43 7.79 5.43h2.72l7.79-6.51 4.3-.09-1.56 3.87 3.16 3.84-.3 3.16 7.42-1.67 4.82-2.78 7.86 3.4 6.77-1-2.89 3.6 1.74 1.88v3.2l-3.48 6.38-8.54 9.88-.14 5.88-4.27 3.21-3.21 8.14-3.61.94-.53 3.34-6.54 1.2-4.55 3.74-1.33 7.21 2.27 7.35-1 2.67-3.66 1.18c-7.61.41-31.26 10.06-31.26 10.06l-6-.14c-.13 0-6.93 1.36-6.93 1.36.27-1.36 4.35-10 4.35-10.19a17.09 17.09 0 012.58 0 33.88 33.88 0 001.63 3c.14 0 2.31.68 2.45.68a4.46 4.46 0 00.54-1.77 7.58 7.58 0 01-.68-1.49s4.49.27 4.49.13 4.48-3.39 4.48-3.39l.68 1.22s1.5-2.17 1.63-2.31 3.4-1.63 3.4-1.63l-.68-1.77 2.59-1.76s1.09.54 1.09.4-.14 5.58-.14 5.58l1.5-.55v-3.94l3-.13c.13 0 0-1.36 0-1.36l-2.72-.68.41-4.08 1.08-1.36c-2-5.85-6.39-3.54-6.39-3.54l-2.31-.54c-6.25-1.63-6 5.3-6 5.3h-1.5a9.82 9.82 0 00-.95-1.63l-10.6-.27c-4.62 1.49-5-.55-5-.55-2.72-7.34-5.58-5.3-5.58-5.3l.14-3.53 1.36-1.77.68-2.31-.14-2.31-1.09.14-1.08 3-2 2.71c-3.68 8.43-1.09 12.92-1.09 12.92 6.93 5.44 4.76 7.88 4.76 7.88-6.8.82-13.87-7.47-13.87-7.47 6.25-12.24-1.63-17.27-1.77-17.27s.68-10.32.68-10.32c1.9-2.45 4.49-10.61 4.49-10.61l2-2-.41-2-5.3 2.18-5.17 6.39-3.4-1.83-.08-5.61-6.72-6-2.22-3.14 1-4.9zm101.63-162.39l-.49-3.21 5.45-11.16 4.52-2.13.58-21.15.63-1.94 3.08-1.76 8.58-10.34-1.32-6.82 16.73 2.2-2 8.8 6.38 3.74 2-4.4 20.2-3.04 2.43-8.14 4.62-.44 4.18-9.91 13.42-3.3 6.17 4.62 1.75 11.87 9.47 5.06.66 5.28-3.08 5.07 2.64 2v3.52l-7.27 2.85-4 1.55-5.72 1.09.22 3.75-5.5 2.86-5.94 8.8-1.54 9 .22 8.58 9.68 3.75 6.6-2 7.92 1.53 2 13.65-5.73 2.86 3.3 8.81-.22 4.39-5.06 2 5.28 4.41 1.1 2.86-1.1 9.68 7.71 5.28.66 3.3 2.31 3.8-1 2.64-4 1-1.54 3.53-7 .66-.21-5.07-10.13-1.1-2.42 3.09-3.71-2.39 1.1-3.07-9-4.41-9 14.08-4.18-2.64-5.72 11.89 4.62 4.18-5.5 5.28 3.68 9.46-1.52 2.75-1.2 6.09-1.71-1.2-2.78 3.45-.27 6.22 2 2s-.4 3.72-.4 3.85-4.12 1.28-4.12 1.28l3.32 7-1.2 3.71-26.2 15.39-.13 2.91-5.17 1.35-6.77 1-7.85-3.36-4.82 2.79-7.42 1.67.3-3.16-3.16-3.84 1.56-3.87-.22-3.7 4-15.89 3.31-4-1.65-8.58-7.27 2-4-12.87 1.65-4-10.57-15.49-9.24-4.29v-3.63l9.24-9.58 4.29 2 14.85-22.46-5.61-5 4.29-9.91-2.31-3 6.94-10.19 1-6.27-6.09-3.73v-3l2.09-1.71 5.31-7.14zm40.65 52.29l2.8 3.22 3.21-2.29-.15-1.43-1.87-1-3.94 1.56zm-57.59 172.85l-2.27-7.35 1.33-7.21 4.55-3.74 6.54-1.2.53-3.34 3.61-.94 3.21-8.14 4.27-3.21.14-5.88 8.54-9.88 3.48-6.41v-3.2l-1.74-1.85 2.88-3.61 5.17-1.35.13-2.91 26.21-15.35 1.2-3.71-3.33-7.07s4.11-1.19 4.11-1.32.4-3.85.4-3.85l-2-2 .27-6.22 2.78-3.45 1.71 1.2 1.2-6.09 1.53-2.71 2.2 4.18 2.2 9.25.23 7.7-1.55 2.42 1.55 2.2v4l-2.43 5.07 1.32 5.28 4 2.86 3.31-2.64 4.83 3.08 3.53 12.32s4 3.52 4.18 3.52 5.28.66 5.28.66l4.4-4.18-2-13.87 1.32-4.18-.22-8.14 5.72-4 3.3 5.5s6.16 0 6.16.22.45 4.85.45 4.85l20.22-3.09 4-2.19h8.81l1.1 12.1-2.64 4-.66 5.94 4.84 5.94.87 3.52 8.15 1.76-1.8 3.84-2.39 7.52 2.6 1.17.46 4.72-1.64 1.65 2.59 2.59 3.77 2.36v3.51l-1.18 6.13-5.65 3.53c-.71 12.25-.37 4.37-.37 4.37l-1.65 3.63-1.81 3-1.49-.16-3.17 2.62-1.88 5.19.71 6.36h-2.57c-.24 0-.94-2.36-.94-2.36a33.94 33.94 0 00-3.06 2.36c.23 0-1.18 2.83-.94 2.83s-7.54 3.53-7.31 3.77-7.78-4.72-7.78-4.72a19.06 19.06 0 011.88-2.69c.24 0-1.88-3-1.88-3l-2.82-.94s.23-4 .23-4.25 3.54-3.53 3.54-3.53c-4.24-4-.22-1.68-.22-1.68h-.83l-.33-2.15-.82-2.64.49-3.14s1.47-3.59 1.47-3.82-2.13-.3-2.13-.3.25-3.48.25-3.24a36.19 36.19 0 003.05-3l-1.88-6.63 2-8.39 10.56.87 1.1-3.07-4.84-5.51-5.5-3.52-10.67-2.53-5.42 2.83c-13.43-.71-10.36 6.83-10.36 6.83l-1.42.24c-6.84 4.24-1.65 9.43-1.65 9.43-1.89 4-9.42 4.24-9.42 4.24l-5.89 3.77-4.46 8.27 1.41 3.77-3.77 5.66-.47 2.59c-18.14 12-6.83 21.44-6.83 21.44-2.36.71-6.84-2.12-6.84-2.12-20.5-10.89-37.5-4.29-37.5-4.29-5.89-2.83-25-3.77-25-3.77l-7.53-.26 1-2.67zm4.34-4l4 4 4.21.6.48-2.4 1-1.68.95-.6.13-2.4-1.08-.49-2.41 2.17-.24 2.76-1.8.12.6-4.2 2.29-2.64 2.39-2.29-.23-1.32-1.81-.11-1.2 2.27-.72-.47-1.79.12-1.2 1.92a5.84 5.84 0 01-1.44-.12 4.46 4.46 0 00-.13-.6l1.8-1-.23-1.92-1.57-.47-1.19 1.19-.13 2.29-2.16 1.67 1.56 3.61zm13.35-288.88s26.84-8.35 33.67-15.4l3.52-.44 7.7-8.36s4 3.08 14.3.66c0 0 18.93-15.63 19.15-17.61l.88-2 11-5.5s7.26-11 7.7-13.2l-.21-1.76 2.19-.44 3.31-5.06 4.62-3.53c-.21-.43 5.48-6.53 7.48-19.58l3.52-10.12s5.72-7.93 7.48-7.93l20.45-13.4 5.06-.88s16.94-2.42 30.59-28.61l-.44-2 1.54-3.52 1.32-19.59s1.32-6.37 4.4-9.24l2-6.82 3.3-5.06 5.06 2.86 4.84 1.76 7.92 2.2-.66 13.21 4.19 4.39h7l8.14 9.25-4.4 6.82-7.86 4.86-7.48-1.76-2.87 5.51.66 14.08-2.86 2.42-2.19 12.54-1.55 2.86 3.08 5.94 5.5 2.2 3.09 3.53-8.37 8.8-4.86 9.45-6.15 3.75-.22 6.39 3.74 9.46-2 3.3-14.3-2-3.31 7.7-18.48 1.54-1.32 5.72 2.64 1.32v6.38l-6.59 13.44 3.3 4.4 2.42-1.1 3.74 5.72-2.64 8.8 2.42 7-1.54 11.45-6.6-2.21-.26-3.68-8.14-7.92-1.32 5.5-4 3.74-7.92 1.09 1.1 11.67-3.08-1.32-2.64 2.42.44 5.72-10.34 2.2-.44 6.61-4.4 2.41-6.16-2-.66 2.87-2.42.22v-3.52l-2.64-2 3.15-5.07-.66-5.28-9.47-5.02-1.75-11.89-6.17-4.62-13.42 3.3-4.18 9.91-4.62.44-2.43 8.16-20.24 3.08-2 4.4-6.38-3.74 2-8.8-16.73-2.2 1.32 6.82-8.58 10.34-3.08 1.76-.95-4.35s-1.8-3-1.8-3.06l.09-5.67s-1.62-1.62-1.71-1.62-.54-7-.54-7l-4.77-.9-2.86-4 2.64-1.55zm84.59-171.56l3.84.27-1.1 2.6-.27 7.94-1.37 1.78-.41 4s-15.6 22.85 4.79 15.88c6-3 2.88 3 1.92 5.88l-.69 2.32s-5.47 6.44-4.65 12l-2.06.68-4.23 4.38h-1.51l-6.44 5.89-6.43 1.23s-7.79 5.61-10.39.41c2.05-2.74 2.05-1.64 6-3a14.73 14.73 0 003-6.3 19.18 19.18 0 01-1.51-2c.14 0 2.6-3.56 2.6-3.56a5.11 5.11 0 004.24-4.52l-3.83-4.1s-5.06-1.1-4.92 5.06l-2.88-1.91 1.1-13.55 6.43-8.9s7.11-11.22 13.68-13l.42-3.56 2.46-4.65 2.18-1.23zm-31.56 334.19l5.5-5.28-4.62-4.18 5.72-11.89 4.18 2.64 9-14.08 9 4.41-1.05 3.07 3.74 2.43 2.42-3.09 10.13 1.1.21 5.07 7-.66 1.54-3.53 4-1 5.06 1.7 2.2 3.75 5.06.66 4.64 3.48 5-1.87 2 2.8 4 10.4 4.29 5.12 6.44 2.14 2.64 2.64-.52 5.52.57 5.47-1.79 6.6-7.93 6.13-7.6 2.55-2.83 3.2-2.3 5-4 2.19-20.24 3.09s-.45-4.62-.45-4.85-6.16-.22-6.16-.22l-3.3-5.5-5.72 4 .22 8.14-1.32 4.12 2 13.87-4.4 4.18s-5.06-.66-5.28-.66-4.18-3.52-4.18-3.52l-3.53-12.32-4.83-3.08-3.31 2.64-4-2.86-1.32-5.28 2.43-5.07v-4l-1.55-2.2 1.55-2.42-.23-7.7-2.2-9.25-2.15-4.14-3.74-9.46zm102 6.82l5 2.2 2.42 5.73h10.31l5.94 2 8.15 10.34 1.54-10.34-4-3.3 2-1.77 2.2 1.77 3.74-4 9.43 3.53 8.58 9.47 9 1.7.22 2.92-5.23 2.83-2.64 2.42-1.53-2.64-.8 3c-7.38-2.67-2.47 4.5-1.4 3.13l-.89 4.18c-4-2.26-4.17 4.17-2 3.3l.44 5.07s-2.64 1.1-2.42 1.32 2.67 1.82 2.67 1.82l-1.75.88v1.76l3.51.88 2.2 2.42 4 .66 1.32 1.32-4 5.72c-7.26.22-5.28 6.38-5.28 6.38l2.43.88a15 15 0 00-.67 1.76c0 .22-6.6.22-6.6.22l-.22-2.42 1.33-1.54-.27-2.42-1.54-.66v-1.76l2 .22v-2.42l-2.42-.66-3.51-4.82.22-3.52-3.08-2.48s-2 1.32-1.76 1.32-4-.66-4-.66l-5.72-1.75c-22.45.66-29.49 10.78-29.71 10.78s.22 10.78.22 10.78l-3.3 1.1-8.15-1.76-.87-3.52-4.84-5.94.66-5.94 2.64-4-1.1-12.1h-8.74l2.3-5 2.83-3.2 7.54-2.55 7.93-6.13 1.79-6.6-.57-5.47.52-5.52 4 1zm-20.35-28.38l2.41.87 3.09-2.41 8.36 4.62 4.62-.23 5.06 2.87 10.13.88 3.3 4.62 7.48 4.84 15.18-4.84-.22 4.4 4.67-2.42 2.86 1.1 3.09-3.3 10.33 1.54 1.11-3.3 8.8 2 4.81 2.12-.83 2.78 2.08 2.14-.59 1.93 2.55 3.47-1.15 2.23-2.39.08v4.12l-1.65 1.9-5.78 3-3.3 3.3.44 2.85.22 4.57-9-1.7-8.6-9.49-9.46-3.52-3.74 4-2.2-1.77-2 1.77 4 3.3-1.54 10.34-8.15-10.34-5.94-2h-10.33l-2.42-5.73-5-2.2-4-1-2.64-2.64-6.44-2.14-4.2-5.15-4-10.4-2-2.8 2.92-4.29zm-24.87-3.47l1-2.64-2.31-3.8-.66-3.3 5.05-6.33 5.72.66 4.62-5.5 5.94-2.64 12.11-4.18 2.64-3.53-.23-3.52 7.71-11.66 19.8 5.51 3.56-3.14 10.35 9.24 14.08-2.85 2.21 2.19 3.51-1.32 1.68-2.51 2.58 2.36.78 2.62-.9.41.17 2.35 3.74 6.18.4 3.58 4.59.36 4.08 6.5-.1 4.22 1.83 4.53 4.12 5.25 3.28 6.89-1.65 3.19.25 7.71-4.9-2.14-8.8-2-1.11 3.3-10.29-1.52-3.09 3.3-2.81-1.1-4.62 2.42.22-4.4-15.23 4.84-7.48-4.84-3.3-4.62-10.13-.88-5.06-2.87-4.62.23-8.36-4.62-3.09 2.41-2.41-.87-2.92 4.29-5 1.87-4.62-3.52-5.06-.66-2.2-3.75-5.06-1.7zm64.48-120.43l5.71 3.3-5.49 7.7 1.76 4.18-4.85 11.45 6.39 5.06h8.14l2 3.52-5.94 8.59-1.54 7-5.07 9.91 5.73 5.72v2.64l6.6 5.5 15.84.22 3 6.29-1.68 2.51-3.53 1.35-2.21-2.19-14.08 2.85-10.31-9.24-3.52 3.09-19.8-5.51-7.75 11.66.23 3.52-2.64 3.53-12.11 4.18-5.94 2.64-4.62 5.5-5.72-.61-5.06 6.38-7.71-5.28 1.1-9.68-1.1-2.86-5.28-4.46 5.06-2 .22-4.39-3.3-8.81 5.73-2.86-2-13.65-7.92-1.53-6.6 2-9.68-3.75-.22-8.58 1.54-9 5.94-8.8 5.5-2.86-.22-3.75 5.73-1.12 4-1.55 7.27-2.85 2.42-.22.66-2.87 6.16 2 4.4-2.41.44-6.61 10.34-2.2-.44-5.72 2.64-2.42 3.08 1.32-1.1-11.67 7.92-1.09 4-3.74 1.32-5.5 8.03 7.91.22 3.73 6.6 2.21-.22 2.42 3.74-.88 12.33 3.52-4.18 7.26zm93.08-2.42l.66 4.62-.22 10.34 3.3 5.73-7.26 2.85 2.2 9 .71 12.35-4.62 9.25-2.42 6.82-4.4-2.64-4 2.42-3.3-1.32-.66 4-9.46.44-.87 3.08-4.19 2.2-1.08 3.7-4.18-1.76-3.08 2.42-1.76 7.71-8.58 4.62-5 .06-2.61-2.36-3-6.29-15.79-.22-6.6-5.5v-2.64l-5.73-5.72 5.07-9.91 1.54-7 5.94-8.59-2-3.52h-8.14l-6.39-5.06 4.85-11.45-1.76-4.18 5.49-7.7-5.71-3.3 4.18-7.26 7.26-6.85 14.08-6.39 18.93-9.9 8.58-6.82 13.42-.22 14.31 4.84 6.16 9 5.94 2 .66 11.44-.44 7.7zm-48.61 98.37l3.3 5.5 2.86 3.08 4.62 6.6 4.84 5.29 8.59 4.39 11.88 5.07 2.62 3.48 4.62-2.85 4.18.87 3.74-2.64 4.4 1.11 4.19-3.75 7.69-1.32 2.21-1.32 3.08 1.55 3.08-5.94 5.1 4.2 7.26 8.14 5.5 1.55 2.65 1.76 1.32 5.28 9.24 6.55 2.64-.66 2.39 1.37-.67 5.1-2.86-2.64-9.91 2.64-3.3-1.32s-33.26 12.32-32.12 46.84l1.54 1.76-1.54 8.8 1.32.44-2.87 9.48-2.64-.44-3.07 5.28a14.84 14.84 0 01-2-1.54c.21 0-1.77 1.76-1.77 1.76h-4.11l-2.64 3.08s-12.1-4-14.09 6.17c0 0-13.2 2.64-12.54 13.64 0 0 .23 9.24-14.52 6.16 0 0 1.54-5.06-7.27-6.82l8.37-2.86h2.2l-.22-4.41-2.86-1.53-1.1-4.41 3.52-2.64-2.2-1.54-.44-2.19s3.3-2-.66-5.29c0 0-1.54-7.92 5.5-7.48 0 0-.66-10.78-8.14-12.32 0 0 4.62-3.08 4.4-3.08s.44-4.63.44-4.63a44.89 44.89 0 015.06 1.32 26.37 26.37 0 002.64-2.42l-2-5.28s15-6.16 16.5-14.52c0 0 7.05-2 1.77-8.59 0 0-6-6.82-6-6.6s-7-1.32-7-1.32-2.86.89-2.64 1.1 1.52 2.4 1.52 2.4l-3.52 2.64-3-2.1 1.65-1.9v-4.11l2.39-.08 1.15-2.23-2.55-3.47.59-1.93-2.08-2.14.77-2.78-.29-7.71 1.69-3.19-3.3-6.89-4.1-5.25-1.85-4.53.1-4.22-4.08-6.5.83-3zm105.39-92.65l-3.08.44s-6.39 14.08-6.39 21.13c0 0-15 23.76-9 36.53l-4 8.36-2.42.44s-3.74 25.09 26 67.56l3.08 4.13-3.08.49-8.8-6.38-1.32-5.28-2.65-1.76-5.5-1.55-7.23-8.14-5.06-4.17-3.08 5.94-3.08-1.55-2.21 1.32-7.69 1.32-4.19 3.75-4.4-1.11-3.74 2.64-4.18-.87-4.66 2.82-2.64-3.51-11.88-5.07-8.59-4.39-4.84-5.29-4.62-6.6-2.86-3.08-3.3-5.5-.83 3-4.59-.36-.4-3.58-3.74-6.18-.17-2.35.9-.41-.78-2.62 5-.06 8.58-4.62 1.76-7.71 3.08-2.42 4.21 1.81 1.1-3.74 4.19-2.2.87-3.08 9.46-.44.66-4 3.3 1.32 4-2.42 4.4 2.64 2.42-6.82 4.6-9.21-.66-12.32-2.2-9 7.26-2.85-3.3-5.73.22-10.34-.66-4.62.44-7.7 4 .44 3.08 4.84 4.62 1.32.22 5.72 9.91 4.84 6.82-7.48 5.72-1.32-2.64-7 2.2-2.2 4.18 5.06 17 5.06 1.32 4.18zm-61.67 96.5l1.65 3.13 8.08 2.81 4-.16 3.14 3-1.86 2.78 5.62-.33 3.46 1.16 3.63 3.3 2-.5-.33-2.14-8.25-14-1.32-1.65-.49-3-2.5-3.84-5.78-1 2.31 4.29 4.46 3.14.66 2.31-1.82 2.31-10.23-.5-2.31-.16-1.15-1.82-3 .83zm35.65 4.29l-1.16 1.16 1.65.82-1.65 2.15 3.79 2.64.16 3 3.63 5.28-3-.33-.33 1.15 3.65 4 .12-4 1.35-2.83-1.82-2.15-1.76-4.62-2.81-8.58-2.64-2-1-5.78-2.64-2.47 1.48 3.46.83 6.44 2.15 2.64zm-134-127.86l-2.42-7 2.64-8.8-3.74-5.72-2.42 1.1-3.3-4.4 6.6-13.43v-6.38l-2.64-1.32 1.32-5.72 18.48-1.54 3.31-7.7 14.3 2 2-3.3-3.74-9.46.22-6.39 6.16-3.74 4.84-9.46 8.37-8.8 3.74-1.1 3.52 3.3 5.94-2.2 7.26.66 2.86 1.54 2.21 5.72 6.82-2.2 7.48 5.94 4-3.3 6.82 1.54 6.82-7.7-2.86-3.52.88-17.61 7.05 2.64 6.37-3.3 6.83 4 1.1 5.94 11.81-1.63 9.68 3.3v9.9l7.71 2.42 9.46-1.33.44-11.88 7 .44 3.08 7.27 2.48.49.66 6.27 2.14 4.79s5.78 48.85.17 63.21c0 0-2 15-1.16 17.33 0 0-4.45 7.43-2.14 14.2 0 0-3 6.27-6.11 8.25 0 0-9.41 1-12.21 5.44l-.83 1.82-.38 2.31-17-5.06-4.18-5.06-2.2 2.2 2.64 7-5.72 1.32-6.82 7.48-9.91-4.84-.22-5.72-4.62-1.32-2.96-4.76-4-.44-.66-11.44-5.94-2-6.16-9-14.24-4.89-13.42.22-8.58 6.82-18.93 9.9-14.07 6.39-7.26 6.82-12.33-3.52-3.74.88.22-2.42 1.54-11.45zm89.24-62.27s-7.59-.66-10.24 3l5.12 9.9 5.78 1.65 3.3-4.29-.17-5.28-4.12-1.65.33-3.3zm160.78-170.33l-4.62-3.63 1.32 5.61s-1.15 1.65-1.81 1.15-3.63-6.6-3.63-6.6c-1.49 4.29.49 7.6.66 7.6s-2.48 1.81-2.48 1.81c-11.22 4-1 9.57-1 9.57l-.17 3.47-3 .16c-1.81 4.79-8.74 4.79-8.74 4.79v3.3s8.41 1.32 8.41 1.16-.16 3.13-.16 3.13l-6.77 5.28 3.14 4.63 3.3-1.49c2.31 1 .82 7.59.82 7.59l-2.64-3.46-2.31.82c2.31 1-.49 5.78-.49 5.78l5 .66-.17 2.14-6.93.33 1.65 5.12 3.3-2s7.43 2.48 3 3.14-4.95 2.8-4.95 2.8c4.62 1.49 5.45 6.77 5.45 6.77l-1.65 4.62-5.45-4-1-4-4.62-.83 2.81-3-3.3-3.13-4.79 1.15-.17-3.14c-14.85-2.14-20.46 5.78-20.46 5.78l-1.16 4.95-2.14-4.29c-2-6.6-7.93.5-7.93.5-5.44 8.91 1.49 4 1.49 4l1.32 3.63-3.47 2c-17.82 17.49-13 47.37-13 47.37l.38 2.8-7-.44-.44 11.88-9.46 1.33-7.71-2.42v-9.9l-9.68-3.3-11.88 1.53-1.1-5.94-6.83-4-6.37 3.3-7.05-2.64.44-11 14.09-2.65 6.38-12.76-.76-11.3 5.28-9.9 9.46-13.86-6.8-10.6 3.08-4-4.18-10.79 5.94 1.77 2.2-8.59 3.3-8.8-4.62-.88-.88-5.94-4.4-3.74-.66-2.64 5.06-1.1 6.82-.66 6.17-5.07 2-3.73 3.3.22 6.82-.66 5.28 4.62 6.82 2.42 3.74 4.18 16.07-.22v3.52l-3.31 2.86 10.13 10.12 10.32-9.2 11.67 4.84 6.82-15.4-.66-12.33 10.56 1.11 4.18 2.19 4.84 14.53zM1641 894.32l7-13.09 1-3.24 2.28-.12a8.32 8.32 0 015.52-4.56s.6-4.56 3.85-4.68c0 0 5.4-6.48 8.28-23.17l.36-2.64 2.52-1.92 3.84-15.12-.76-2.88 12.32 1.1 7-3.3.44 5.5 9.46 5.06 16.29 4.18 4.62-.87 2.2 4 6.15.87 2 7.48 5.5 4.19 3.3-.22.44 2.86.66 2.64 4.4 3.74.88 5.94 4.62.88-3.3 8.8-2.2 8.59-5.94-1.77 4.18 10.79-3.08 4 6.82 10.57-9.46 13.86-5.28 9.9.66 11.44-6.38 12.76-14.09 2.65-.44 11-.88 17.61 2.86 3.52-6.82 7.7-6.82-1.54-4 3.3-7.48-5.94-6.82 2.2-2.21-5.75-2.86-1.54-7.26-.66-5.94 2.2-3.52-3.3-3.74 1.1-3.09-3.53-5.5-2.2-3.08-5.94 1.55-2.86 2.19-12.54 2.86-2.42-.66-14.08 2.87-5.51 7.48 1.76 7.92-4.84 4.4-6.82-8.14-9.25h-7l-4.19-4.39.66-13.21-7.92-2.2-4.88-1.77-5.06-2.86-.58-1.42zm251.67-98.93c-.22 0 0 2.64 0 2.64l-9.24.89 3.74 2.41-.44 2.21s-3.3-.66-3.3-.45.44 2.64.44 2.64l5.94.45.22 3.3s-8.58 2.41-8.58 2.64v1.75l4.62.66s-3.3 3.31-3.08 3.53-4.18.44-4.18.44l6.16 5.06-2.86 3.08s-6.6-3.3-6.38-3.3.66 4.84.66 4.84l5.5 1.32-6.38 1.54 4 3.3h-10.17a29.19 29.19 0 01-1.32-4l-3.73 4 4 4.19-3.3 2.19 1.75 3.09-2.64 2-3.52-7.92-4.18-.66v4.17l-4.18-2.19-10.56-1.11.66 12.33-6.82 15.4-11.69-4.86-10.34 9.24-10.13-10.12 3.31-2.86v-3.52l-16.07.22-3.77-4.18-6.82-2.42-5.28-4.62-6.82.66-.66-5.29 3.52-9.9-4.62-.66.21-7.7 4.41-5.29-2.64-1.53.21-5.07-6.37-7.92-5.28-13.2 7.92-20.69 6.16-6.6 2-9.24-4-5.72 6.82-8.59-5.95-3.52.45-7.48 9 1.54-2.86-10.12-.22-15.62 3.08-2.86-1.76-10.13 8.14-6.82.66-2.64 2.64 2.64 3.74 1.54 10.35-5.72-.66-2.42 11.44-4.62 10.56-7.05 4.18 5.07 9.24-6 8.81 3.75 5.28-4 .66-3.75 6.6-2.42 2.86-2.64 4 4.73s11.23 19.48 11.56 24.1c0 0-8.92 5.94 1.32 5.61l3.3 5s-11.55 4.29-1 11.56l4 4.62 3.3.33 2.64 8.58s-6.6-.66 1 8.58c0 0 3.63 14.2-2 36.64l7.26-7.92 1 9.57s7.27 3 0 5.94c0 0-2.64 6.39-2.86 5.95-9-1.11-4.84 10.78 1.1 2.42 0 0 4.85-4.62 4.4.44a6.7 6.7 0 00-2.42 5.72h-5.94l-4 4.84 3.08.44-2 3.08c-2.59-2.12-10.4 4.18.44 2.2 0 0 2.86.22 2.64.22zm-205.74-97.22s-4.8 7.94-5.92 8.66l-1 9.29 3.77 4.73s6.49 1.52 8.33 4.24c0 0 1.28-5.52 1.53-6.8l1.68-2.57v-12.74l-8.42-4.81zm.25.89l6.8 5v11.06s-3.44 3.77-5.77 3.69a17.82 17.82 0 01-5.68-1.77s-1.76.72-.73-4.56l.49-5.54 4.89-7.92zm57 151.79l-3.3.22-5.5-4.19-2-7.48-6.15-.87-2.2-4-4.62.87-16.29-4.18-9.46-5.06-.44-5.5-7 3.3-12.41-1.06 1.71-3.44 2.19-4.24.1-2.58s-1.51-.41-1.65-.41a13.9 13.9 0 01.14-2.32l1.92-1.78.13-5.33 1-1.51 3.69-.28c12.59-21.74 10.26-52.1 10.26-52.1l-.69-5.47-1.5-8.21c-7.93-15.45-18.46-11.48-18.46-11.48s-.69 4-.69 4.1-4.23.41-4.23.41l-7.11-.68-.82-5.34-1.79.28-1.36-4.79 1.77-1.23-1.91-.68-.55-6.84 2.87 3.55 6.57 3 4.65-.82c17.1-15.31 15.59-29.81 15.59-29.81 4.51-8.21 3.57-11.19 3.57-11.19 2.65-13.65-4-12.33-4-12.33l-4-6.16 7.48 1.1.89-4.4 6.82-1.32 1.76 3.74 24-.44 1.77-4.84h7.92l11.5 6.58 9.24.87 17-4 1.32-4.62 3.34-2.58 3.6-.6.25 1.91-4.15.85-.23 3.15.84.77.69 3.77 1.77 2.15 1.77-1.54 10.16-.4.88 9.9-2.86.45-1.76 12.54-.66 2.64-8.14 6.82 1.76 10.13-3.08 2.86.22 15.62 2.86 10.12-9-1.54-.45 7.48 5.95 3.52-6.86 8.65 4 5.72-2 9.24-6.16 6.6-7.92 20.69 5.28 13.2 6.37 7.92-.21 5.07 2.64 1.53-4.41 5.29-.21 7.7 4.62.66-3.52 9.9.66 5.29-3.3-.22-2 3.73-6.17 5.07-6.82.66m-67.15-205.32s-.66-7.7-2.86-11.88l-5.28-.22-.22-4s11-7.26 13.87-15.85l6.37-3.52 4.85 3.08s7.48-1.1 8.8-5.72c0 0 4.4 4.84 8.58-6.6 0 0 5.5-20.47 4.18-32.13l-2.42-3.3-4-.22-.22-2.86 5.06 1.1s5.28-4.19 3.09-12.54l1.32-3.53 5.28 3.08s7.48 13.87 14.3.88c0 0 5.94-1.09 11.22 6.17 0 0-1.76 22.66 3.53 36.74 0 0 7.92 18.93 19.58-2.41l-1.54-4.85 2.86-8.14 10.56 6.6.22 2.86 3.08.89 4.62 1.75s7.49 18.49 17.83-9l1.76-15.4 2.42-3.3s2.2-11.45-8.36-18.05c0 0-4.18-2-5.28 4.62l-2.39 3.1-6.16 3.73-3.08.66s-3.07-5.28-7.92.66c0 0-4.62-.21-5.94 1.77 0 0-5.72-.45-7.92 4 0 0-5.06 3.08-5.29-6.39l1.55-3.73s5.06-23.33 5.94-25.31l7.48-11.66-1.32-2.64 2-3.31s5.94 9.25 16.06 7.93l4.85 2.86s18.26 27.72 35.65 4l-.66 6.6s-9.47 25.3-6.6 35.87c0 0-2.87 48 11 69.54 0 0 2.2 5.72 7.7 2l11.22 11.66-2.86 2.64-6.6 2.42-.66 3.75-5.28 4-8.81-3.75-9.24 6-4.18-5.07-10.56 7.05-11.44 4.62.66 2.42-10.35 5.72-3.75-1.6-2.61-2.76 1.76-12.54 2.86-.45-.88-9.9-10.16.4-.54-2.07.31-1.08 1.62 2.39 1.46-.7-.93-2.38.7-1.15 2.31 2 1-3.08-2.92-3.47-3.69.39-.25-1.91-3.6.6-3.34 2.58-1.32 4.62-17 4-9.24-.87-11.44-6.61h-7.92l-1.77 4.84-24 .44-1.74-3.73-6.82 1.32-.89 4.4-7.48-1.1.22-7.92zm612.76-378.65l7.27.33.33 3.31h-6.28l-1.32-3.64zm41.27-22.11l3.3-3 4 1.32.66 2.64-7.92-1zm-25.73 27.11l3.3-3.31 4.29-.66.33 1.32-2 2.32h-3.3l-.66 1.65-2-1.32zm-61.4-38.63l-1.65-5.28-1.65-9.57 4.29-3 3-5.94 26.08-18.16s4.29 0 2.31-8.58c-.33.66 17.17-19.8 17.17-19.8l7.59-6.61 2.31-9.24s7.26-5 6.93-11.55c.66 1 5.94-8.25 13.86-.66-.33.66 13.21 15.84 37.63 3.63 0 1-4.62 10.23-8.58 12.54 0 .66-5.94-6.27-12.87 3.63 0 1-7.59 10.24-20.47 7.59.33.67-13.86 1.66-12.21 10.9.33.66-15.84 3.3-18.82 15.51l1.32 5-5-1.32-4.95 9.25s3 5.28-11.88 6.6c.33.33-8.91 6.6-8.91 6.6s-1 21.13-4.3 26.08c.66 1-1.32-1.65-1.32-1.65l1-7.93-10.89 2zm119.5-12.21l13.86-3.3-1-2.31 11.88-4.29 9.24 5.94-1.32 3.3-26.08 13.5-5.28-4.63-1.32-8.25zm37-104.64c1.65 10.9 13.86 6.6 5.94-3.63.66 1 5.61-.33 5.61-.33l3 2.64s10.89-2.64 11.22-14.52c-10.23-1.32-17.16-14.86.66-5.28-.33 1 7.6-1.65 6.93-10.57.67.66 12.55-2.31 19.81-12.54.33 0 5-1.65 5-1.65l2.31-14.86h4.29s2.31 6 13.21 1c-.33 0-2.31-14.86 15.18-15.19.66 1.32 3.3-.33 3-7.26.33.66-2.64-12.21-2.64-12.21l7.26-8.59 4 2.64 7.12 17.83s15.84 5.94 30.7-1.65c.33.66 14.52-10.56 16.17-16.18 0 .66 19.15-15.18 19.15-15.18s16.5-7.26 23.1 3a26.77 26.77 0 01-1 3.63s-12.21 6.27-1 9.9c0 1.32-4 9.25-4 9.25l-6.6.66s-13.21-5.28-28.06 7.59c.66.33-9.57 5-9.57 5s-11.23 0-15.52 5.28a95.4 95.4 0 00-28.71 22.78c0 1-19.81 12.87-26.41 3.63 3-7.92-19.81 1.65-8.25 6.27-4.3 13.53-11.23 14.86-9.91 14.86.33.66-8.25 3.63-8.25 3.63s-15.51 8.58-21.79 22.77c0 .33-5.28 8.59-15.84 4.95-.66.66-12.21 8.59-12.87 17.5.33.33-2.64 1-2.64 1s-15.85 0-7.27-11.55a10.48 10.48 0 003.63-1.32s6.28-1.32 2-7.6c.33.66 1.65-5.28 1-5.61zm-83.19 138s-8.25 2.64-7.92 3.3 6.27 7.92 6.27 7.92l6.6-3.63 1-5.28-5.94-2.31zm-93.74.33c1.76 6.16 1.76 15.85 6.6 21.57-.44.43 6.16 11.44 19.36 14.08.44 0 17.61-16.29 17.61-16.29 7.37 3.63 15.56 1.21 16 1.21s.18 7.59-18.63 8c0 .88-3.52 4.4-3.52 4.4l-3.08.44s-2.73 10.77-3.77 13.71c-8.8-.35-13.31-2.84-34 5.52.44 0-8.11-6.56-11.39 11 1.75-.44-5.86 2.73-5.86 2.73s-.53 3.58-3.46 4.86c-5.93 2.58-16.5 2.59-16.34-7.5-.45.44-9.25-2.64-11.89 8.8 0 .44 6.16 5.28 6.16 5.28-.2 1.53-28.17-2.2-28.17-1.76.52 1.74-7.48 2.2-17.6-5.72-34.33.44-57.22 26.85-73.06 42.25s-31.8 40.19-34.44 53.84c.19.27 3.58 6.21 3.58 6.21l-3 17.41s-5.72 5.73-6.6 16.29c0 .44-8.81-6.6-8.81-6.6a38.69 38.69 0 01-2.64-4.4c0-.45-20.24-13.65-20.68-13.65s-10.12.44-20.25-7.48c.89 0-7-2.64-7-2.64l-19.37-8.37-5.28-4.83h-3.07s-16.73-9.69-22-18c-3.52-3.08-12.77-2.2-16.28-4.84s-15-19.37-47.1-17.17c-22.88 7.49-29.76 15.71-38.29 21.57 1.76 0-10.57 2.2-19.81 17.61-.05 3.64-4.84.43-4.84.43a24.67 24.67 0 01-3.52-3.52 7 7 0 00-2.28-3.3s-2.56-14.3-7-13.42c1.76.88-6.17-4.4-6.17-4.4s-1.75-15.85-20.68-7.92c0 .44-6.16-4.84-12.32-2.64.88.44-19.81 13.64-18.93 43.12.88 2.65 5.29 3.53 11 1.77 0 1.32 17.61 16.28 17.61 16.28s16.72-4 17.17-3.52 3.08 2.2 3.08 2.2 5.72 5.29 5.28 5.29.88 7.48 9.24 11c-.88.45 10.12 15.85 17.6 12.77-.43.88 8.37 4.84 8.81 4.84s1.32 3.08.88 3.08 2.54 3.56 2.98 3.56-4.4 2.2-8.81 2.2c.45.89-1.32 8.37-13.64 9.24.44.89-9.69-7.44-13.65-6.12-1.54.51-7.5-1.81-8.2-1.69-1.11.18-6.61 5.94-5.73 4.82 6-10.68-9.13-16.48-9.75-2.72a25.38 25.38 0 01-7.56 6.6s-13.2-.44-11 10.12v12.33l-5 2.25a25.47 25.47 0 00-18.78 14.91c.44 0-6.6-6.17-11.88-3.08 2 1.29-22.09-14.92-1.77-44a31.62 31.62 0 00.89-5.28h3.08c1.06-.2 10.14-24.29-9.25-39.17.44.88-10.56-3.08-10.56-3.08l-5.28-10.12-5.28-1.32s-4.4-2.64-4-3.09.44-5.28.44-5.28l-1.27-3.58 2-4.12c-.35-.87 10.7 0 4.18-33.29.8 1.57-.54-10 18.48-10.12 6.09 0 5.73-.82 7.54-4.7 2.73-.33 6.55-4.1 6.55-4.1l4.84-8.36 5 4c-1 5.4 9.74 4.55 7-3.09 0 0 7.31-8.43 7.31-8.88s.89-3.51.89-3.51c.12.2 3.67-3.21 14.08-9.69-.88 0 .88-4 .88-4l-11.44-16.29s-13.56-6.91-7.46-15.46c.37-1.79.44-5.62 1.38-7.77.45 0 4.58.91 8.22-.83 3.34-1.61 2.23-5.37 6.22-5.86 0 0 8.14 10.64 12.76 11-.05 0 8.43 8.8 15.85 8.8.44.44 0 8.8 8.36 2.2 1.92 2.56 10.56-3.57 16.72-3.08 0 .44-2.64 4.84 1.77 6.16 0 .45 12.76 5.29 12.76 5.29 0 .31 25.33-7.32 28.6-32.57.45 1.32-7.92-15.41-7.92-15.41s5.28-7 .44-13.2c-.89-2.45-1.2-4.76-1.76-5.29 0 0-6.16-17.6 17.61-23.32 0 0 13.2-1.76 15.4-24.21 1.32 1.32-1.76-35.21-1.76-35.21s15.41-16.28 12.32-30.81c.89 1.77 9.69-27.28-21.12-81.42 1.32-.44 0-5.72 0-5.72s5.28-.88 4.84-10.56c0 1.76 5.28-6.61 5.28-6.61l-1.76-2.2-1.32-4.4 1.76-3.07s4 6.6 10.12 4.83c0 .45 12.77 3.52 14.09-13.2a57.73 57.73 0 016.6-1.32l3.52 6.6 6.16 7.48 14.53 9.69s23.32 29 32.56 36.09 5.29 21.12 33.46 46.21 38.29 33 55 41.37c.88.44 1.76 17.61 88.46 33.45.45.88 5.11.38 5.11.38.69 7.77-.17 10.71 4.58 15.47 0 0 16.54 12.06 49.1 7.67 5.29-3.26 38-32.8 40.26-33.57 0 .45 6.35-4.59 6.15-8.88 5-2.26 7.45-6.41 10.56-11.88 2.07 1.16 4.14 10.13 4 10.13-.68 1-1.76 11-11.45 18 .45.88-1.75 7.92-1.75 8.36s-13.21 13.21-15 23.77c.44.88 0 4 0 4l-3.52 6.16a49.13 49.13 0 008.8 18.49c-.44.44 5.47 3.71 5.47 3.71s11.31 2.11 14.87 4.51c0 0 3.16 3-.1 4.7l-5.28-.29 3.07-1.92-.09-2.39-7.48-.68 1.63-1.34-6-1.63-.57 2.4 2.4 1.53s-.49-1.56 1.28 4.6zm-130.06-73.61l-32.68-9.57s11.55 17.49 17.83 11.22c.66 1.65 10.89 3.3 10.89 3.3l4-4.95zM1826.54 351.2l-3.63 5s-4.29-1.32-4.29-1 .66 7.59.66 7.59l2.64 1 4.95-4.62 6.27.33c3.17-1.56-4.09-9.48-6.6-8.25zM1776 372.28s-6.23 3.67-5.9 6.65c3.46 4.85 6.93 4 7.59 4a7.74 7.74 0 006.27-6.94c-5-4.83-8-3.67-8-3.67zm.71 4s1.42-.47 1.57 1.58.08 1.18-1.65 1.66-1.26.08-1.5-1.74 1.58-1.5 1.58-1.5zm35.64-338.35l7.59 3s6.6 6.93 5.28 11.22-10.56 5-10.56 5.28-8.25-4-9.57-9.9 7.26-9.57 7.26-9.57zm-15.19-23.44V31l-2 4.62-2-1.32.33-4.29s-4.29-6.93-3.3-13.54c.33.33 6.93-2 6.93-2zm-135.55 1570.48s2.86-.66 3.08-.22 5.28 5.07 5.28 5.07a8.63 8.63 0 012.2.21 49.56 49.56 0 01.66 5.29l-2.64 2.64-4.84-2s0-4-.22-4h-2s-2-3.52-2-3.31.44-3.74.44-3.74zm-25.09-123c0-.22 3.52-.44 3.52-.44a24.9 24.9 0 012.86 2.2c0 .22 0 5.06-.22 4.84s-3.08 2.2-3.3 2.2-3.74.44-3.74.44l-1.54-4s2.42-5.06 2.42-5.28zm-22-39.83l.44 2.86a17.1 17.1 0 01-1.53 2.64c-.23 0-.66 7.7-.66 7.7l-3.09-2.42s.44-3.3.44-3.52 1.32-3.52 1.1-3.52 3.3-3.74 3.3-3.74zm6.89-47.07l5.7 1.42s3.72 3.73 3.72 3.83v9.64l-5.36.23s-3.95-4.17-3.95-4.28-.11-10.84-.11-10.84z" stroke-width=".25" stroke="#fff" stroke-miterlimit="10"/><path d="M203.43 234.66l.47-1.49s.28-2.43.28-2.71-.38-1.77-.38-1.77l3.18-4.2-1.12-2v-4l2.15-1.77 1.3 1.77 1.59-.56v-2l-.56-1.4-1.68-2.06L207 212l-1-1.3-1.49-1.22v-1.86l-2.24.84-1.12-1-3.19-.86.12 2-3.3 6.93L182.85 229l-10.23 9.9-7.93 3-4.12 2 1.15 4.29 9.91-1.32.33-2.64 7.92-2 .33 2.64 6.6-4h4.29l8.81-2.56 1.93-3z" transform="translate(1020.81 1193.64)" opacity=".6" fill="#fff"/><circle class="cls-3" cx="1214.25" cy="1423.58" r="5"/><path class="cls-3" d="M4.34 40.36c2.08.82 2.8 1.66 2.8 3.08 0 1.78-1.49 2.85-3.54 2.85a5.57 5.57 0 01-2.91-.81l.07-2.1h.71l.34 1.85a3.1 3.1 0 001.72.43c1.53 0 2.55-.68 2.55-2 0-1-.59-1.51-2-2.1l-.58-.22c-1.61-.62-2.6-1.5-2.6-2.97 0-1.75 1.45-2.75 3.3-2.75a4 4 0 012.47.8l-.07 2h-.74l-.34-1.82a2.48 2.48 0 00-1.35-.35c-1.27 0-2.17.62-2.17 1.82 0 1 .66 1.63 1.78 2.06zm13.99 3.06l-.1 2.65h-7.78v-.5l1.46-.16V36.5l-1.46-.15v-.49H18l.1 2.63h-.69l-.38-2h-3.87v4.11h2.45l.21-1.51h.57v3.54h-.57l-.2-1.47h-2.5v4.29h4.1l.37-2zm13.38-7.07l-1.3.18v9.65h-.47l-6.24-8.64v7.84l1.63.19v.5h-3.6v-.5l1.32-.17v-8.74l-.13-.18-1.14-.15v-.47H24L29.78 44v-7.46l-1.64-.19v-.49h3.58zm6.82 4.01c2.08.82 2.8 1.66 2.8 3.08 0 1.78-1.49 2.85-3.54 2.85a5.57 5.57 0 01-2.91-.81l.07-2.1h.71l.34 1.85a3.1 3.1 0 001.72.43c1.53 0 2.55-.68 2.55-2 0-1-.59-1.51-2.05-2.1l-.57-.22c-1.57-.63-2.56-1.51-2.56-3 0-1.75 1.45-2.75 3.3-2.75a4 4 0 012.47.8l-.07 2h-.74l-.34-1.78a2.48 2.48 0 00-1.35-.35c-1.27 0-2.21.62-2.21 1.82 0 1 .66 1.63 1.78 2.06zm15.23-3.86v8.91l1.47.16v.5h-4.17v-.5l1.45-.14V41.1H47.3c0 1.62 0 3 .05 4.31l1.45.16v.5h-4.16v-.5l1.46-.16V36.5l-1.46-.15v-.49h4.16v.49l-1.45.15c-.05 1.31-.05 2.65-.05 4h5.24v-4l-1.45-.15v-.49h4.17v.49zm14.91-.15l-1.33.17v5.49c0 3-1.43 4.28-3.56 4.28s-3.64-1.21-3.64-4.07v-5.73l-1.3-.14v-.49h4.06v.49l-1.59.17v5.36c0 2.64 1 3.52 2.63 3.52 1.87 0 2.76-1 2.76-3.78v-5.08l-1.7-.19v-.49h3.64zM10.62 14.4c-.2.22-.45.27-1 .3a14.38 14.38 0 01-8.45 7.55l-.24-.35a14.23 14.23 0 006.84-7.35H1.58l-.23-.73h6.42l1.08-1zM23.55 13c-.2.25-.4.35-.95.18A32.64 32.64 0 0117 16.7a20.15 20.15 0 007.1 3.75l-.05.27a1.89 1.89 0 00-1.38 1.4c-4.07-1.85-7.55-4.6-9.4-9.8v8.28c0 1.27-.32 2.17-2.72 2.37a1.39 1.39 0 00-.58-1.1 5.6 5.6 0 00-2.37-.62v-.38s2.8.13 3.4.13.6-.12.6-.49v-9.5H6.5v.6a2 2 0 01-1.37.52h-.25V2.2l1.74.8h4.18c.22-.87.57-2.14.72-3l2.8.6c-.1.35-.42.55-.92.55-.4.52-1.15 1.27-1.68 1.85h6.5l.93-1 2 1.55a2 2 0 01-1.07.5v7.4a2.18 2.18 0 01-1.38.55h-.25v-.95h-5.23v.37a12.37 12.37 0 003.27 4.92 32.23 32.23 0 004.95-4.67zM6.5 3.72v2.93h12V3.72zm0 6.6h12V7.37h-12zm26.57-3.85c1.07 3.75-.07 6-1.07 7-.68.62-1.68.8-2 .27s0-1 .45-1.42a6.47 6.47 0 002.2-5.8zm4.35-5.27c-.08.33-.25.58-.9.68v8.27c0 5.1-1.13 9.85-6.12 12.82l-.33-.35c4-3.07 4.87-7.52 4.87-12.5V1zm1.8 11.87a10.73 10.73 0 00-1.88-5.62l.33-.18c4.9 3.35 3.12 7.38 1.55 5.8zm5.1-11.49c-.08.34-.28.59-.9.7V22c0 .25-.7.64-1.28.64h-.32V1.33zm2.37 11.62c0-2-1.42-4.38-2.72-5.85l.3-.18c5.8 3.2 4.15 7.58 2.42 6.03zm4.9-12c-.05.32-.25.6-.9.69v20.45c0 .25-.67.66-1.27.66h-.33V1z" transform="translate(1020.81 1193.64)"/><path fill="none" stroke-width=".5" stroke="#fff" stroke-miterlimit="10" d="M1214.26 1423.58l-112.64-172.53h-80.81"/></g></g></svg>