<svg xmlns="http://www.w3.org/2000/svg" viewBox="0 0 419.02 46.65"><g data-name="レイヤー 2"><path d="M19.75 41.15v1.6H0v-1.6l7.9-.95c0-3 .1-6 .1-8.9V10.8l-7.5.85v-1.8l10.8-2.8.75.6-.2 7.75v15.9c0 2.95.05 5.9.1 8.9zm13.17 1c9.8-3.3 14.45-8.75 15.6-16.5a10.1 10.1 0 01-7.5 3c-5.9 0-10.55-4.1-10.5-10.75S35.17 6.8 41.77 6.8c6.8 0 11.1 5.45 11.1 14.2 0 10.3-5.85 19.3-19.55 22.75zm15.8-18.75c.05-.55.05-1.1.05-1.7 0-8.75-3-12.85-7.2-12.85-3.8 0-7 3-7 8.65s3.35 8.55 7.75 8.55a8.76 8.76 0 006.4-2.65zm19.81-1.8a19.07 19.07 0 015.65-.85c6.9 0 11.61 3.95 11.61 11s-4.91 11.7-12.46 11.7c-5.3 0-8.85-2.4-10-7.2a2.35 2.35 0 012.35-1.65c1.4 0 2 .7 2.65 3l1 3.25a13.27 13.27 0 003.71.55c5.65 0 8.75-3.6 8.75-9.2 0-5.8-3.46-8.9-8.75-8.9a16.81 16.81 0 00-5.46.85l-1.4-.3 1.15-16.3h17.55v3.75h-15.6zm30.14 20.55c9.8-3.3 14.45-8.75 15.6-16.5a10.1 10.1 0 01-7.5 3c-5.9 0-10.55-4.1-10.5-10.75s4.65-11.1 11.25-11.1c6.8 0 11.1 5.45 11.1 14.2 0 10.3-5.85 19.3-19.55 22.75zm15.8-18.75v-1.7c0-8.75-3-12.85-7.2-12.85-3.8 0-7 3-7 8.65s3.35 8.55 7.75 8.55a8.76 8.76 0 006.45-2.65zm57.44 5.4s2.9 2.25 4.65 3.85c-.1.55-.55.8-1.3.8h-17.85v12c0 .25-1.1 1.1-2.85 1.1H154v-13.1h-22.74l-.4-1.4h8.7v-14.8l4 1.7H154v-9.3h-11.44a43.16 43.16 0 01-11.45 11.5l-.55-.55c4.7-4.6 9.75-12.3 12.8-20.6l5.1 2.1a1.68 1.68 0 01-2 .85 58.3 58.3 0 01-2.95 5.2h23.9l2.59-3.1s2.8 2.1 4.65 3.8c-.15.55-.65.8-1.35.8h-15.9V19h9l2.3-2.95s2.75 2.1 4.4 3.65c-.1.5-.65.75-1.3.75h-14.39v11.6h11.9zM154 32.05V20.4h-11v11.65zm40.82-20.6A39.45 39.45 0 01186 17.8l-.55-.6A46.2 46.2 0 00198.72.65l5.3 1.5c-.2.55-.7.85-2 .9 15.55 4.15 12.7 11.65 9.4 9.7-1.45-2.9-5.05-6.5-9.9-9.15a46.51 46.51 0 01-6.52 7.65h8.85l2-2.5s2.3 1.8 3.75 3.15c-.15.55-.6.8-1.3.8h-13.2zm15.35 3l4 3A4.77 4.77 0 01212 18.5v10.7a4.42 4.42 0 01-2.65 1h-.5v-1.6h-14.5a22.2 22.2 0 01-.4 3l2.8 1.2h11.75l1.7-1.85 3.85 2.85a3.4 3.4 0 01-1.95.95V44.9c-.05.3-1.65 1-2.7 1h-.4v-2.85h-12.88v2.5a2.88 2.88 0 01-2.55 1.05h-.5V35.1a20.75 20.75 0 01-6.7 9.8l-.6-.55c5-6.4 5.75-14 5.75-20.9V14.8l3.7 1.6h13.15zm-1.3 12.75v-4h-14.25v.2c0 1.2 0 2.45-.1 3.8zm-14.25-9.35v3.9h14.25v-3.9zm1.5 16.45v7.25H209V34.3zm24.5 1.15c0 .5-1.3 1.1-2.45 1.1h-.6V5.25l4.85.5c-.15.7-.6 1.2-1.8 1.35zm10.81-33.1c-.15.7-.65 1.15-1.86 1.3V41.9c0 2.65-.54 4.3-4.95 4.75a3.45 3.45 0 00-1.05-2.35c-.65-.55-1.85-.95-3.95-1.2v-.85s4.7.4 5.7.4c.85 0 1.1-.3 1.1-1V1.8zm37.06 29.9c4.7 4.75 13.05 8.65 19.95 10.4l-.1.55a3.4 3.4 0 00-2.75 2.6c-7-2.6-14.25-7.5-18.45-13.55h-.4v13.4c0 .25-1.1 1-2.75 1h-.55v-13.1c-5.1 5.15-12.55 9.35-20.7 12.1l-.45-.85a54.31 54.31 0 0018-12.55h-16.3l-.45-1.45h19.95v-4.9h-14.7l-.4-1.5h15.05v-4.6h-17.1l-.4-1.5h12.35a13.65 13.65 0 00-3.55-6.55h-11.5l-.45-1.45h16.9V.9l4.6.5c-.05.65-.5 1.1-1.5 1.25v7.65h5.1V.9l4.7.5c-.1.65-.55 1.1-1.6 1.3v7.6h1.8A60 60 0 00278 1.9l4.6 1.7c-.3.6-.95.9-2.05.75a40.75 40.75 0 01-6.35 6h7.15l2.25-2.8s2.6 1.95 4.25 3.5c-.15.55-.65.75-1.35.75h-12.01l2.65.8a1.74 1.74 0 01-1.95.9 42.89 42.89 0 01-4.75 4.85h8.45l2.2-2.7a52 52 0 014.1 3.4c-.1.55-.6.8-1.3.8h-17.15v4.6h9.6l2.15-2.55s2.35 1.85 3.9 3.25c-.15.55-.65.8-1.35.8h-14.3v4.9h14l2.35-2.85s2.6 2 4.25 3.55c-.15.55-.65.75-1.35.75zm-19.15-30.2c9.55 3.25 7 9.75 4 7.5-.45-2.4-2.6-5.45-4.6-7.1zm7.2 9.7c4.65 2.25 5.1 5.35 4.1 6.55h8.05a52.53 52.53 0 003.6-6.55zm108.6 30.6c1 .4 1.25.75 1.25 1.45 0 1.4-1.45 2-7.15 2h-3.45c-3.25 0-4-.95-4-3.35V13.7h-11.15a56.55 56.55 0 01-2.1 12.9c8.6 5.25 7.8 10.55 4.25 9.2a25.37 25.37 0 00-5.45-5.9c-2.75 6.4-7.7 12.1-16.7 16.7l-.6-.85c8.2-5.1 12.5-11.15 14.75-17.85a57.14 57.14 0 00-9.79-5.85l.45-.65a58.27 58.27 0 0110.15 3.65 59.18 59.18 0 001.5-11.35h-14.01l-.45-1.5h14.6c.1-3.6.1-7.35.1-11.2l5.3.55a1.7 1.7 0 01-1.7 1.4c-.05 3.15-.1 6.25-.25 9.25h10.6l1.9-2 3.9 3.35a3.16 3.16 0 01-2 .8v27.2c0 .85.2 1.2 1.5 1.2h2.8c1.25 0 2.25 0 2.65-.1a.84.84 0 00.8-.6 75.74 75.74 0 001.5-7.5h.65zM419 12.45a3.72 3.72 0 01-2.1 1V30.6c-.05.3-1.75 1-2.85 1h-.55v-4.1H399v17.8c0 .5-1.45 1.35-2.7 1.35h-.65V27.5h-14.58v3.6c0 .35-1.35 1.1-2.75 1.1h-.5V9.65l3.6 1.7h14.2V.8l5.15.6c-.1.7-.5 1.2-1.8 1.4v8.55h14l1.9-2.1zM395.62 26V12.8h-14.55V26zm17.9 0V12.8H399V26z" fill="#fff" data-name="レイヤー 1"/></g></svg>