<svg xmlns="http://www.w3.org/2000/svg" viewBox="0 0 555.66 155.28"><g data-name="レイヤー 2"><path d="M176.77 26.28v-.07a1.12 1.12 0 00.06-.26v-.32a6.16 6.16 0 00-.14-1.21 10.71 10.71 0 00-.58-1.64L174 18h-11.17l-2 4.64-.56 1.42a4.33 4.33 0 00-.3 1.57 1.38 1.38 0 000 .38.5.5 0 00.07.2v.07h-3.59v-.07a6 6 0 00.79-1.19c.32-.57.66-1.28 1-2.13L168.37.54h1.41L179.32 22c.22.5.46 1 .7 1.46s.46.9.67 1.28.4.69.57.95.27.42.33.49v.07zm-11.39-9.83h7.93l-4.97-11.23-4.86 11.23zm42.92 8.79a3 3 0 001-.19 4.82 4.82 0 001-.53 8.14 8.14 0 00.93-.76 10.29 10.29 0 00.84-.91l.17.09-1.14 2.83c-.14.07-.31.16-.52.25a5 5 0 01-.74.29 8.25 8.25 0 01-1 .22 7.76 7.76 0 01-1.37.1 5 5 0 01-3.66-1.27 5.32 5.32 0 01-1.31-4V9.65l-3 .11V8.21h2.96c0-.83 0-1.57-.07-2.21s-.06-1.19-.1-1.67-.09-.87-.15-1.2-.12-.6-.18-.83h4.07v.07a7.29 7.29 0 00-.2.83c-.06.33-.11.73-.15 1.19s-.07 1-.1 1.67 0 1.38-.06 2.22h2.17l1.93-.07 1.48-.09c.4 0 .67-.06.8-.08l-.32 1.79h-1.88c-.56 0-1.21 0-1.93-.05h-2.25v11.96a5.43 5.43 0 00.23 1.77 2.83 2.83 0 00.62 1.06 1.91 1.91 0 00.86.53 3.29 3.29 0 001.07.14zm9.58-8a9.09 9.09 0 012.77-6.62 9.21 9.21 0 013-1.95 10 10 0 013.83-.67 10.5 10.5 0 013.73.66 9.29 9.29 0 013 1.87 8.68 8.68 0 012.05 3 9.76 9.76 0 01.75 3.9 9.55 9.55 0 01-.64 3.48 8.59 8.59 0 01-1.86 3 9 9 0 01-3 2 10.27 10.27 0 01-4.1.77 10.6 10.6 0 01-3.71-.65 9.18 9.18 0 01-3-1.87 8.86 8.86 0 01-2.06-2.94 9.72 9.72 0 01-.76-3.98zm10 8.07a5.29 5.29 0 002.29-.49 5 5 0 001.8-1.42 6.69 6.69 0 001.18-2.27 10.06 10.06 0 00.42-3 14.62 14.62 0 00-.4-3.53 8.88 8.88 0 00-1.21-2.81 5.77 5.77 0 00-2-1.86 5.83 5.83 0 00-2.83-.66 5.43 5.43 0 00-2.29.48 5.17 5.17 0 00-1.8 1.4 6.45 6.45 0 00-1.18 2.24 9.94 9.94 0 00-.43 3 14.2 14.2 0 00.42 3.54 8.78 8.78 0 001.15 2.82 5.94 5.94 0 002 1.89 5.64 5.64 0 002.85.67zM256.46 9.9l4.69 11.81 3.92-9.79.28-.71c.11-.27.2-.54.28-.81s.16-.54.22-.79a3.65 3.65 0 00.08-.68 2 2 0 000-.38.62.62 0 00-.07-.2v-.07H269v.07a6.41 6.41 0 00-.76 1.1 19.74 19.74 0 00-1.07 2.22l-6.24 14.86h-1l-4.53-11-4.54 11h-1l-5.77-14a22.165 22.165 0 00-1.36-2.76l-.57-.94a5.38 5.38 0 00-.33-.48v-.07h4.67v.07a1.2 1.2 0 00-.05.26v.32a5 5 0 00.17 1.2 13.71 13.71 0 00.55 1.65l3.92 9.93 4.7-11.81zm26.64 16.7a10.64 10.64 0 01-3.65-.62 8.46 8.46 0 01-3-1.8 8.33 8.33 0 01-2-2.94 10.41 10.41 0 01-.73-4 9.87 9.87 0 01.67-3.68 9.07 9.07 0 011.85-2.94A8.36 8.36 0 01279 8.67a8.22 8.22 0 013.4-.71 8.89 8.89 0 013.36.63 7.57 7.57 0 012.68 1.81 8.67 8.67 0 011.79 2.93 12 12 0 01.71 4H277.2a13.67 13.67 0 00.57 3.31 8.07 8.07 0 001.28 2.52 5.52 5.52 0 002 1.61 6 6 0 002.64.56 8 8 0 001.93-.23 6.86 6.86 0 001.64-.66 6.94 6.94 0 001.32-1 5.75 5.75 0 001-1.24l.22.11-1.3 3.13a11 11 0 01-2.27.83 12.67 12.67 0 01-3.13.33zm-2.33-10.73h3.52q1.77 0 3.21-.06a11.9 11.9 0 00-.6-2.74 7.22 7.22 0 00-1.12-2.07 4.93 4.93 0 00-1.62-1.3 4.68 4.68 0 00-2.06-.45 4.06 4.06 0 00-1.87.44 4.46 4.46 0 00-1.49 1.3 7 7 0 00-1 2.06 11 11 0 00-.45 2.79h1.67zm17.68-9c0-1 0-1.86-.05-2.61s-.06-1.38-.1-1.92-.1-1-.16-1.36-.13-.66-.2-.91V0H302v.07a8.61 8.61 0 00-.2.91c-.05.37-.11.82-.15 1.36s-.09 1.18-.11 1.92 0 1.62 0 2.61v15.15c0 .75.06 1.38.11 1.92s.1 1 .15 1.35a8.32 8.32 0 00.2.92v.07h-4.06v-.07c.07-.25.13-.55.2-.92s.12-.81.16-1.35.07-1.18.1-1.92.05-1.62.05-2.61zm32.93 18.37a3 3 0 001.05-.19 4.82 4.82 0 001-.53 8.14 8.14 0 00.93-.76 10.29 10.29 0 00.84-.91l.17.09-1.14 2.83-.52.25a5.45 5.45 0 01-.74.29 8.69 8.69 0 01-1 .22 7.83 7.83 0 01-1.37.1 5.06 5.06 0 01-3.67-1.27 5.36 5.36 0 01-1.3-4V9.65l-3 .11V8.21h2.96c0-.83 0-1.57-.07-2.21s-.06-1.19-.1-1.67-.09-.87-.15-1.2-.12-.6-.18-.83h4.06v.07a7.49 7.49 0 00-.19.83c-.06.33-.11.73-.15 1.19s-.08 1-.11 1.67 0 1.38-.06 2.22h2.17l1.94-.07 1.47-.09c.41 0 .68-.06.8-.08l-.31 1.79h-1.88c-.57 0-1.21 0-1.94-.05h-2.25v11.96a5.4 5.4 0 00.24 1.77 2.7 2.7 0 00.62 1.06 1.86 1.86 0 00.86.53 3.29 3.29 0 001.02.14zm23.15-10.81a5.18 5.18 0 00-.93-3.43 3.16 3.16 0 00-2.5-1.09 4 4 0 00-1.29.24 9.15 9.15 0 00-1.46.64 13.6 13.6 0 00-1.49.94 15.54 15.54 0 00-1.37 1.13V22c0 .75.06 1.38.1 1.92s.1 1 .16 1.35a8.57 8.57 0 00.19.92v.07h-4.06v-.07c.07-.25.14-.55.21-.92s.11-.81.15-1.35.08-1.18.11-1.92 0-1.62 0-2.61V4.26c0-.75-.06-1.38-.11-1.92s-.09-1-.15-1.36-.14-.66-.21-.91V0H346v.07a8.87 8.87 0 00-.19.91c-.06.37-.11.82-.16 1.36s-.08 1.18-.1 1.92 0 1.62 0 2.61v4.5c.47-.42 1-.83 1.56-1.25a17.16 17.16 0 011.7-1.12 10.48 10.48 0 011.87-.79 6.12 6.12 0 011.86-.3 5.29 5.29 0 012.33.47 4.41 4.41 0 011.56 1.25 4.9 4.9 0 01.88 1.77 7.23 7.23 0 01.28 2v8.61c0 .74.06 1.38.11 1.92s.1 1 .15 1.35a8.32 8.32 0 00.2.92v.07H354v-.07a8.32 8.32 0 00.2-.92c.06-.36.12-.81.16-1.35s.07-1.18.1-1.92 0-1.62 0-2.61zm10.54 6.66a4.84 4.84 0 01.57-2.4 5.62 5.62 0 011.52-1.69 8.15 8.15 0 012.16-1.17 16.18 16.18 0 012.52-.71 23.44 23.44 0 012.56-.35c.85-.06 1.62-.1 2.32-.11v-.9a6.25 6.25 0 00-.29-2 3.63 3.63 0 00-.85-1.4 3.49 3.49 0 00-1.31-.83 5 5 0 00-1.68-.27 7.33 7.33 0 00-1.24.11 6.64 6.64 0 00-1.28.35 8.32 8.32 0 00-1.39.67 13.77 13.77 0 00-1.57 1.07l-.18-.11 1.2-2.48c.39-.17.77-.31 1.14-.43s.76-.2 1.14-.27A11.72 11.72 0 01371.6 8h1.28a9.71 9.71 0 013.15.45 5.84 5.84 0 012.15 1.23 4.83 4.83 0 011.22 1.82 6.64 6.64 0 01.38 2.25v5.73c0 1 0 1.86.05 2.61s.06 1.38.1 1.92.1 1 .16 1.35.13.67.2.92v.07h-3.88v-.07a3.68 3.68 0 00.13-.63c0-.24.06-.52.08-.85a9.84 9.84 0 01-.87.65 6.11 6.11 0 01-1.14.61 7.75 7.75 0 01-1.43.44 8.26 8.26 0 01-1.71.17 7 7 0 01-4.73-1.44 5.07 5.07 0 01-1.67-4.14zM376.72 16a30.17 30.17 0 00-3.07.18 8.32 8.32 0 00-2.61.7 4.38 4.38 0 00-1.81 1.5 4.48 4.48 0 00-.68 2.59 4.43 4.43 0 001 3.17 3.77 3.77 0 002.86 1.09A4.65 4.65 0 00374 25a5 5 0 001.23-.6 4.42 4.42 0 00.91-.79 4.18 4.18 0 00.56-.83V16zm18.34 9.24a2.9 2.9 0 001-.19 4.58 4.58 0 001-.53 7.45 7.45 0 00.94-.76 11.94 11.94 0 00.83-.91l.18.09-1.15 2.83c-.14.07-.31.16-.52.25a5.28 5.28 0 01-.73.29 9.18 9.18 0 01-1 .22 8 8 0 01-1.38.1 5 5 0 01-3.66-1.27 5.36 5.36 0 01-1.31-4V9.65l-3 .11V8.21h2.95c0-.83 0-1.57-.06-2.21s-.07-1.19-.11-1.67-.04-.8-.04-1.13a8 8 0 00-.17-.83V2.3h4.06v.07a5.75 5.75 0 00-.19.83c-.06.33-.11.73-.15 1.19s-.08 1-.11 1.67-.05 1.38-.06 2.22h2.17l1.93-.07 1.48-.09.8-.08-.32 1.79h-1.88c-.56 0-1.2 0-1.93-.05h-2.25v11.96a5.4 5.4 0 00.24 1.77 2.69 2.69 0 00.61 1.06 1.91 1.91 0 00.86.53 3.36 3.36 0 00.97.14zM8.28 94.31a8 8 0 002.41-.31 4.45 4.45 0 001.62-.85 3.64 3.64 0 001-1.31 7.16 7.16 0 00.51-1.68 13.15 13.15 0 00.19-2v-2.72a10.55 10.55 0 01-2.08.78 10.45 10.45 0 01-2.74.33A10.71 10.71 0 015.41 86a8.32 8.32 0 01-2.91-1.92 8.23 8.23 0 01-1.85-2.94 11.11 11.11 0 01-.65-3.9 10.37 10.37 0 01.64-3.69 8.85 8.85 0 011.81-3 8.33 8.33 0 012.8-2 8.92 8.92 0 013.59-.71 7.51 7.51 0 011.55.14 7.4 7.4 0 011.31.38 8.52 8.52 0 011.14.54q.54.32 1.05.66l-.18-1.3v-.07h3.89v.07c-.07.25-.14.55-.21.91s-.11.82-.16 1.36-.07 1.18-.1 1.92 0 1.62 0 2.61v12a11.52 11.52 0 01-.44 3.15A6.92 6.92 0 0115.2 93a7.26 7.26 0 01-2.72 1.92 10.7 10.7 0 01-4.2.72 9 9 0 01-1.78-.17 16.92 16.92 0 01-1.7-.4 12.27 12.27 0 01-1.46-.52c-.43-.19-.78-.35-1-.49l-.54-3.38.2-.08a5.1 5.1 0 001.15 1.61 7.7 7.7 0 001.59 1.16 8.16 8.16 0 001.78.71 7.35 7.35 0 001.76.23zm1.72-9a6 6 0 002.29-.42 7.15 7.15 0 001.74-1V71.92a5.74 5.74 0 00-1-1.15 6.28 6.28 0 00-1.18-.85 5.83 5.83 0 00-1.28-.52 4.41 4.41 0 00-1.28-.19 5.86 5.86 0 00-2.41.49 5 5 0 00-1.82 1.42 6.28 6.28 0 00-1.14 2.25 10.66 10.66 0 00-.39 3 14.2 14.2 0 00.42 3.54 8.81 8.81 0 001.24 2.83 5.91 5.91 0 002 1.89 5.65 5.65 0 002.81.68zm24 1.29a10.68 10.68 0 01-3.68-.6 8.46 8.46 0 01-3-1.8 8.33 8.33 0 01-2-2.94 10.41 10.41 0 01-.73-4 10.07 10.07 0 01.67-3.68 9.07 9.07 0 011.85-2.94 8.36 8.36 0 012.75-2 8.22 8.22 0 013.4-.71 8.81 8.81 0 013.36.63 7.57 7.57 0 012.68 1.81 8.67 8.67 0 011.79 2.93 12 12 0 01.71 4H28.06a13.67 13.67 0 00.57 3.31A8.07 8.07 0 0030 83.14a5.52 5.52 0 002 1.61 6 6 0 002.64.56 8 8 0 001.93-.23 6.86 6.86 0 001.64-.66 6.64 6.64 0 001.32-1 6.13 6.13 0 001-1.24l.21.11-1.3 3.13a11 11 0 01-2.27.83 12.62 12.62 0 01-3.17.35zm-2.36-10.73h3.52q1.77 0 3.21-.06a11.9 11.9 0 00-.6-2.74A7.22 7.22 0 0036.65 71 4.93 4.93 0 0035 69.7a4.68 4.68 0 00-2-.45 4.06 4.06 0 00-1.87.44A4.34 4.34 0 0029.62 71a6.51 6.51 0 00-1 2.06 10.91 10.91 0 00-.46 2.79h1.67zm29.66-1.44a5.18 5.18 0 00-.93-3.43 3.1 3.1 0 00-2.49-1.09 4 4 0 00-1.27.24 9.86 9.86 0 00-1.44.63 16.16 16.16 0 00-1.48.92 17.1 17.1 0 00-1.39 1.13V82c0 .74.06 1.38.11 1.92s.1 1 .16 1.35a8.57 8.57 0 00.19.92v.07H48.7v-.07a8.32 8.32 0 00.2-.92 12 12 0 00.16-1.35c0-.54.08-1.18.11-1.92s0-1.62 0-2.61v-6.85c0-.75-.07-1.38-.11-1.92a12.49 12.49 0 00-.16-1.36 8.61 8.61 0 00-.2-.91v-.07h4.06v.07a6.92 6.92 0 00-.22 1.12c0 .45-.11 1-.16 1.76.48-.4 1-.79 1.55-1.19A14.15 14.15 0 0155.66 69a11 11 0 011.83-.75 5.92 5.92 0 011.83-.29 5.32 5.32 0 012.33.47 4.41 4.41 0 011.56 1.25 4.9 4.9 0 01.88 1.77 7.61 7.61 0 01.27 2v8.61c0 .75.06 1.38.1 1.92s.1 1 .16 1.35a8.32 8.32 0 00.2.92v.07h-4.03v-.07a8.08 8.08 0 00.21-.92c.06-.36.12-.81.16-1.35s.07-1.18.1-1.92 0-1.62 0-2.61zm18.32 10.81a2.9 2.9 0 001-.19 4.89 4.89 0 001-.53 8.14 8.14 0 00.93-.76 10.17 10.17 0 00.83-.91l.18.09-1.15 2.83L82 86a5.45 5.45 0 01-.74.29 9.18 9.18 0 01-1 .22 7.91 7.91 0 01-1.37.1 5.06 5.06 0 01-3.67-1.27 5.36 5.36 0 01-1.31-4V69.65l-2.95.11v-1.55l1.3.05h1.65c0-.83 0-1.57-.06-2.21s-.06-1.19-.1-1.67-.1-.87-.15-1.2-.12-.6-.18-.83v-.05h4.06v.07a7.49 7.49 0 00-.19.83c-.06.33-.11.73-.15 1.19s-.08 1-.11 1.67 0 1.38-.06 2.22h2.17l1.86-.11 1.47-.09c.41 0 .67-.06.8-.08L83 69.79l-1.88-.05h-4.18v12a5.4 5.4 0 00.24 1.77 2.82 2.82 0 00.61 1.06 2 2 0 00.86.53 3.4 3.4 0 00.97.14zm11.16-18.37v-2.61c0-.75-.06-1.38-.1-1.92s-.1-1-.16-1.36-.13-.66-.2-.91V60h4.06v.07a8.61 8.61 0 00-.2.91c0 .37-.11.82-.15 1.36s-.09 1.18-.11 1.92 0 1.62 0 2.61v15.15c0 .75.06 1.38.11 1.92s.1 1 .15 1.35a8.32 8.32 0 00.2.92v.07h-4.11v-.07c.07-.25.13-.55.2-.92s.12-.81.16-1.35.07-1.18.1-1.92 0-1.62 0-2.61zm17.82 19.2l-6.19-13.54c-.22-.51-.46-1-.72-1.48s-.5-.9-.73-1.28-.43-.68-.61-.94-.29-.41-.35-.48v-.07h4.61v.07a1.12 1.12 0 00-.06.26v.32a5 5 0 00.16 1.2 9.48 9.48 0 00.63 1.65l4.85 10.54 4.43-10.4c.19-.44.38-.91.57-1.43a4.44 4.44 0 00.29-1.56 2 2 0 000-.38 1 1 0 00-.07-.2v-.07h3.16v.07a6.39 6.39 0 00-.8 1.19 20.53 20.53 0 00-1 2.13l-8.38 20c-.19.43-.38.91-.58 1.42a4.53 4.53 0 00-.28 1.57 2 2 0 000 .38.73.73 0 00.07.2v.07h-3.29v-.07a5.46 5.46 0 00.82-1.17 20.73 20.73 0 001-2.1zm44.99-3.53l-1.3 3.12a9.08 9.08 0 01-1.09.39 12.39 12.39 0 01-1.27.3c-.44.08-.89.14-1.33.18a11.43 11.43 0 01-1.27.07 11.86 11.86 0 01-3.93-.6 8.78 8.78 0 01-3.11-1.82 8.37 8.37 0 01-2-2.93 10.16 10.16 0 01-.73-4 8.79 8.79 0 012.89-6.62 9.84 9.84 0 013.21-2 11.1 11.1 0 014-.71 14.59 14.59 0 012.11.17 13.8 13.8 0 012 .43l1.24 3-.21.12a5.78 5.78 0 00-1-1 7.31 7.31 0 00-1.34-.77 8.39 8.39 0 00-1.54-.49 7.58 7.58 0 00-1.65-.17 6.28 6.28 0 00-2.49.48 5.4 5.4 0 00-1.94 1.4 6.24 6.24 0 00-1.25 2.24 9.34 9.34 0 00-.45 3 13.74 13.74 0 00.43 3.54 8.64 8.64 0 001.28 2.83 6 6 0 002.15 1.89 6.45 6.45 0 003 .67 6.34 6.34 0 001.61-.2 6.74 6.74 0 001.51-.58 6.92 6.92 0 001.31-.9 5.19 5.19 0 001-1.2zm5.69-5.3a9.16 9.16 0 01.74-3.68 9 9 0 012-2.94 9.21 9.21 0 013-2 10 10 0 013.78-.71 10.55 10.55 0 013.74.66 9.24 9.24 0 013 1.87 8.68 8.68 0 012.05 3 10.23 10.23 0 01.12 7.38 8.77 8.77 0 01-1.87 3 9 9 0 01-3 2 10.35 10.35 0 01-4.11.77 10.6 10.6 0 01-3.71-.65 9.18 9.18 0 01-3-1.87 8.83 8.83 0 01-2.02-2.93 9.56 9.56 0 01-.72-3.9zm10 8.07a5.26 5.26 0 002.29-.49 5 5 0 001.8-1.42 6.69 6.69 0 001.18-2.27 10.06 10.06 0 00.42-3 14.62 14.62 0 00-.4-3.53 8.87 8.87 0 00-1.2-2.81 5.55 5.55 0 00-4.85-2.52 5.35 5.35 0 00-2.28.48 5.17 5.17 0 00-1.8 1.4 6.46 6.46 0 00-1.19 2.24 10 10 0 00-.42 3 14.69 14.69 0 00.41 3.54 9 9 0 001.22 2.83 5.88 5.88 0 002 1.89 5.61 5.61 0 002.79.66zm18.37-17.03v.07a1.2 1.2 0 00-.05.26 1.89 1.89 0 000 .32 5 5 0 00.16 1.2 11.08 11.08 0 00.56 1.65l4.2 10 4.25-9.86c.18-.44.37-.91.57-1.43a4.24 4.24 0 00.3-1.56 1.92 1.92 0 000-.38.62.62 0 00-.07-.2v-.07h3.16v.07a6.46 6.46 0 00-.79 1.19 18.68 18.68 0 00-1 2.13l-6.49 14.86h-1l-6-14c-.21-.51-.43-1-.68-1.48s-.46-.9-.68-1.28l-.57-.94c-.17-.25-.28-.41-.34-.48v-.07zm26.96 18.32A10.64 10.64 0 01211 86a8.59 8.59 0 01-3-1.8 8.31 8.31 0 01-2-2.94 10.23 10.23 0 01-.73-4 9.87 9.87 0 01.67-3.68 9 9 0 011.84-2.94 8.46 8.46 0 012.75-2 8.26 8.26 0 013.41-.71 8.8 8.8 0 013.35.63A7.48 7.48 0 01220 70.4a8.53 8.53 0 011.8 2.93 12.22 12.22 0 01.71 4h-13.73a13.67 13.67 0 00.57 3.31 7.87 7.87 0 001.28 2.52 5.44 5.44 0 002 1.61 5.92 5.92 0 002.64.56 8 8 0 001.93-.23 6.86 6.86 0 001.64-.66 6.94 6.94 0 001.32-1 6.08 6.08 0 001-1.24l.21.11-1.37 3.11a10.94 10.94 0 01-2.26.83 12.67 12.67 0 01-3.13.35zm-2.34-10.73h3.53q1.75 0 3.21-.06a11.9 11.9 0 00-.6-2.74 7 7 0 00-1.13-2.07 4.79 4.79 0 00-1.61-1.3 4.71 4.71 0 00-2.06-.45 4 4 0 00-1.87.44 4.37 4.37 0 00-1.49 1.3 7 7 0 00-1 2.06 10.51 10.51 0 00-.45 2.79h1.67zm17.58-.72v-2.61c0-.75-.06-1.38-.1-1.92s-.1-1-.16-1.36a8.61 8.61 0 00-.2-.91v-.07h4.06v.07a6.11 6.11 0 00-.24 1q-.09.58-.15 1.5c.44-.36.89-.72 1.36-1.07a10.16 10.16 0 011.44-.94 9 9 0 011.5-.65 5.1 5.1 0 011.54-.24 6.61 6.61 0 01.82 0 4.89 4.89 0 01.64.12l.51.18.44.19-.87 3.35-.29-.07a2.34 2.34 0 00-.8-1.24 2.44 2.44 0 00-1.58-.46 3.68 3.68 0 00-1.14.19 6.72 6.72 0 00-1.21.54 12.1 12.1 0 00-1.23.79c-.41.3-.81.61-1.2.94V82c0 .74.06 1.38.11 1.92s.1 1 .16 1.35a6.66 6.66 0 00.19.92v.07h-4.06v-.07a8.32 8.32 0 00.2-.92c.06-.36.12-.81.16-1.35s.07-1.18.1-1.92 0-1.62 0-2.61zm25.66-3.34h-.25a3.78 3.78 0 00-.39-.86 3.53 3.53 0 00-.71-.85 3.75 3.75 0 00-1-.64 3.61 3.61 0 00-1.4-.25 3.47 3.47 0 00-1 .15 2.65 2.65 0 00-.84.47 2.27 2.27 0 00-.57.76 2.45 2.45 0 00-.22 1.08 2.84 2.84 0 00.54 1.64A9.91 9.91 0 00251 74.9c.53.51 1.12 1 1.75 1.54a20.59 20.59 0 011.74 1.61 9.41 9.41 0 011.35 1.8 4.14 4.14 0 01.53 2.07 5 5 0 01-.31 1.75 4.27 4.27 0 01-1 1.52 4.77 4.77 0 01-1.68 1.08 6.53 6.53 0 01-2.46.41 7.82 7.82 0 01-1.57-.15 9.21 9.21 0 01-1.34-.4 7.36 7.36 0 01-1.09-.53c-.32-.19-.6-.38-.85-.55l.18-3.34h.28a5.63 5.63 0 00.53 1.51 4 4 0 00.87 1.17 4 4 0 001.18.76 3.87 3.87 0 001.46.27 2.9 2.9 0 002.07-.72 2.46 2.46 0 00.76-1.88 3 3 0 00-.52-1.72 7.83 7.83 0 00-1.31-1.5c-.52-.48-1.09-1-1.69-1.44a16.63 16.63 0 01-1.7-1.54 7.84 7.84 0 01-1.31-1.79 4.73 4.73 0 01-.52-2.23 4.6 4.6 0 01.38-1.87 4.16 4.16 0 011.06-1.46 4.8 4.8 0 011.6-.94 6.06 6.06 0 012-.33 8.09 8.09 0 012.44.31 8.76 8.76 0 011.48.58zm28.43 14.26l-6.19-13.54c-.22-.51-.46-1-.72-1.48s-.5-.9-.73-1.28-.43-.68-.6-.94-.29-.41-.35-.48v-.07H280v.07a1.2 1.2 0 00-.05.26v.32a5 5 0 00.17 1.2 10.19 10.19 0 00.62 1.65l4.85 10.54 4.41-10.4c.19-.44.38-.91.58-1.43a4.44 4.44 0 00.29-1.56 1.92 1.92 0 000-.38.62.62 0 00-.07-.2v-.07h3.16v.07a6.93 6.93 0 00-.8 1.19 20.7 20.7 0 00-1 2.13l-8.39 20c-.19.43-.38.91-.57 1.42a4.54 4.54 0 00-.29 1.57 2 2 0 000 .38.67.67 0 00.08.2v.07h-3.29v-.07a6.29 6.29 0 00.82-1.17 20.9 20.9 0 001-2.1zm14.52-8.83a9.16 9.16 0 01.74-3.68 9 9 0 012-2.94 9.21 9.21 0 013-2 10 10 0 013.78-.71 10.5 10.5 0 013.73.66 9.29 9.29 0 013 1.87 8.68 8.68 0 012.05 3 9.76 9.76 0 01.75 3.9 9.55 9.55 0 01-.64 3.48 8.59 8.59 0 01-1.86 3 9 9 0 01-3 2 10.27 10.27 0 01-4.1.77 10.6 10.6 0 01-3.71-.65 9.18 9.18 0 01-3-1.87 8.86 8.86 0 01-2.06-2.94 9.72 9.72 0 01-.68-3.89zm10 8.07a5.29 5.29 0 002.29-.49 5 5 0 001.8-1.42 6.69 6.69 0 001.18-2.27 10.06 10.06 0 00.42-3 14.62 14.62 0 00-.4-3.53 8.88 8.88 0 00-1.21-2.81 5.77 5.77 0 00-2-1.86 5.83 5.83 0 00-2.83-.66 5.43 5.43 0 00-2.29.48 5.17 5.17 0 00-1.8 1.4 6.45 6.45 0 00-1.18 2.24 9.94 9.94 0 00-.43 3 14.2 14.2 0 00.42 3.54 8.78 8.78 0 001.22 2.83 5.94 5.94 0 002 1.89 5.64 5.64 0 002.78.66zm19.67-5.18a5.2 5.2 0 00.92 3.41 3.11 3.11 0 002.49 1.09 4 4 0 001.26-.24 10.45 10.45 0 001.45-.63 13.58 13.58 0 001.5-.93 11.81 11.81 0 001.38-1.12v-9.17c0-.75-.07-1.38-.11-1.92a12.49 12.49 0 00-.16-1.36 8.61 8.61 0 00-.2-.91v-.07h4.06v.07a8.87 8.87 0 00-.19.91c-.06.37-.11.82-.16 1.36s-.08 1.18-.1 1.92 0 1.62 0 2.61v6.87c0 .75.05 1.38.1 1.92s.1 1 .16 1.35a8.57 8.57 0 00.19.92v.07h-4.06v-.07c.07-.29.15-.67.22-1.13a15.81 15.81 0 00.17-1.79c-.48.41-1 .82-1.56 1.21a14.05 14.05 0 01-1.74 1.08 11.34 11.34 0 01-1.82.76 6.22 6.22 0 01-1.82.29 5.29 5.29 0 01-2.33-.47 4.65 4.65 0 01-1.57-1.25 5 5 0 01-.88-1.76 7.62 7.62 0 01-.27-2v-8.61c0-.74-.06-1.38-.11-1.92s-.1-1-.16-1.36a8.87 8.87 0 00-.19-.91v-.07h4.06v.07a6.81 6.81 0 00-.19.91c-.06.37-.12.82-.16 1.36s-.08 1.18-.11 1.92 0 1.62 0 2.61zm21.09-4.98c0-1 0-1.86-.05-2.61s-.06-1.38-.1-1.92-.1-1-.16-1.36a8.61 8.61 0 00-.2-.91v-.07h4.06v.07a6.11 6.11 0 00-.24 1q-.09.58-.15 1.5c.43-.36.89-.72 1.35-1.07a10.85 10.85 0 011.45-.94 9 9 0 011.5-.65 5.1 5.1 0 011.54-.24 6.61 6.61 0 01.82 0 4.89 4.89 0 01.64.12l.51.18.43.19-.86 3.35-.3-.07a2.32 2.32 0 00-.79-1.24 2.44 2.44 0 00-1.58-.46 3.68 3.68 0 00-1.14.19 6.72 6.72 0 00-1.21.54 12.1 12.1 0 00-1.23.79c-.41.3-.81.61-1.2.94V82c0 .74.06 1.38.11 1.92s.1 1 .15 1.35a8.32 8.32 0 00.2.92v.07h-4.06v-.07a8.32 8.32 0 00.2-.92c.06-.36.12-.81.16-1.35s.07-1.18.1-1.92.05-1.62.05-2.61zm35.16-5.97a10 10 0 012.38-.91 11.11 11.11 0 012.58-.31 9.66 9.66 0 013.61.66 8.25 8.25 0 014.78 4.83 10.71 10.71 0 01.68 3.9 10 10 0 01-.62 3.48 8.47 8.47 0 01-1.87 3 8.94 8.94 0 01-3.07 2 11.07 11.07 0 01-4.27.77h-.74c-.31 0-.66 0-1-.07l-1.2-.14c-.42-.06-.83-.14-1.23-.23-.56-.13-1.12-.27-1.69-.43s-1.11-.34-1.63-.54a4.85 4.85 0 00.12-.89c0-.41.07-.86.08-1.34s0-1 .05-1.42 0-.83 0-1.11V66.87c0-1 0-1.86-.05-2.61s-.06-1.38-.1-1.92-.1-1-.16-1.36-.13-.66-.2-.91V60h4.06v.07a8.61 8.61 0 00-.2.91c-.06.37-.11.82-.16 1.36s-.08 1.18-.1 1.92 0 1.62 0 2.61zm0 10.95v2.35c0 .62 0 1.12.08 1.5a6.54 6.54 0 002 1 9.78 9.78 0 002.78.38 5.29 5.29 0 002.29-.49 5 5 0 001.77-1.42 6.83 6.83 0 001.15-2.27 10.06 10.06 0 00.42-3 16.36 16.36 0 00-.36-3.53 8.54 8.54 0 00-1.09-2.81 5.48 5.48 0 00-1.88-1.86 5.35 5.35 0 00-2.72-.66 5.88 5.88 0 00-2.5.54 5.37 5.37 0 00-2 1.58zm20.09-2.89a9.16 9.16 0 01.74-3.68 9 9 0 012-2.94 9.21 9.21 0 013.05-2 10 10 0 013.78-.71 10.46 10.46 0 013.73.66 9.33 9.33 0 013.06 1.87 8.79 8.79 0 012 3 10.23 10.23 0 01.12 7.38 8.61 8.61 0 01-1.87 3 9 9 0 01-3 2 10.34 10.34 0 01-4.1.77 10.56 10.56 0 01-3.71-.65 9.08 9.08 0 01-3-1.87 8.72 8.72 0 01-2.06-2.94 9.56 9.56 0 01-.74-3.89zm10 8.07a5.26 5.26 0 002.29-.49 5.17 5.17 0 001.81-1.42 6.86 6.86 0 001.17-2.27 10.06 10.06 0 00.42-3 14.62 14.62 0 00-.4-3.53 8.87 8.87 0 00-1.2-2.81 5.89 5.89 0 00-2-1.86 5.8 5.8 0 00-2.83-.66 5.35 5.35 0 00-2.28.48 5.17 5.17 0 00-1.8 1.4 6.46 6.46 0 00-1.19 2.24 10 10 0 00-.42 3 14.21 14.21 0 00.41 3.54 9 9 0 001.22 2.83 5.94 5.94 0 002 1.89 5.67 5.67 0 002.77.66zM439.2 68a7.79 7.79 0 011.44.13 9.68 9.68 0 011.41.35 8 8 0 011.3.56 5.88 5.88 0 011.11.76v-5.54c0-.75-.05-1.38-.1-1.92s-.1-1-.16-1.36a8.87 8.87 0 00-.19-.91V60H448v.07a8.61 8.61 0 00-.2.91 12.49 12.49 0 00-.16 1.36c0 .54-.08 1.18-.11 1.92s0 1.62 0 2.61v15.15c0 .75.07 1.38.11 1.92a12 12 0 00.16 1.35 8.32 8.32 0 00.2.92v.07h-3.89v-.07a1.49 1.49 0 00.09-.41c0-.19 0-.41.09-.68a11.36 11.36 0 01-2.25 1 10 10 0 01-3.15.46 10.71 10.71 0 01-3.8-.65 8 8 0 01-4.76-4.81 11.11 11.11 0 01-.65-3.9 9.68 9.68 0 01.7-3.68 8.89 8.89 0 012-2.94 9 9 0 013-2 10.05 10.05 0 013.82-.6zm5.26 4.89a5.5 5.5 0 00-2-2.72 5.17 5.17 0 00-2.95-.88 6.55 6.55 0 00-2.53.48 5.58 5.58 0 00-2 1.4 6.46 6.46 0 00-1.29 2.24 9.06 9.06 0 00-.46 3 14.2 14.2 0 00.42 3.54 8.81 8.81 0 001.24 2.83 5.91 5.91 0 002 1.89 5.65 5.65 0 002.79.67 5.93 5.93 0 001.55-.19 7.08 7.08 0 001.32-.49 5.9 5.9 0 001.05-.66 5.31 5.31 0 00.76-.71c0-.51 0-1.08.05-1.73s0-1.35 0-2.12zm17.71 13.18L456 72.53c-.23-.51-.47-1-.72-1.48s-.5-.9-.73-1.28-.43-.68-.61-.94-.29-.41-.35-.48v-.07h4.6v.07a1.2 1.2 0 00-.05.26v.32a5 5 0 00.17 1.2 10.19 10.19 0 00.62 1.65l4.86 10.54 4.43-10.4c.18-.44.37-.91.57-1.43a4.44 4.44 0 00.29-1.56 1.38 1.38 0 000-.38.62.62 0 00-.07-.2v-.07h3.17v.07a5.93 5.93 0 00-.8 1.19 18.68 18.68 0 00-1 2.13l-8.39 20c-.18.43-.37.91-.57 1.42a4.54 4.54 0 00-.29 1.57 1.38 1.38 0 000 .38.5.5 0 00.07.2v.07h-3.29v-.07a5.84 5.84 0 00.82-1.17 23.09 23.09 0 001-2.1zm28.98-4.98a4.84 4.84 0 01.57-2.4 5.66 5.66 0 011.53-1.69 8 8 0 012.16-1.17 16.06 16.06 0 012.51-.71 23.28 23.28 0 012.57-.35 41 41 0 012.32-.11v-.9a6 6 0 00-.3-2 3.74 3.74 0 00-.84-1.4 3.57 3.57 0 00-1.31-.83 5 5 0 00-1.68-.27 7.36 7.36 0 00-1.25.11 6.64 6.64 0 00-1.28.35 7.89 7.89 0 00-1.38.67 13 13 0 00-1.58 1.07l-.19-.16 1.19-2.48c.39-.17.77-.31 1.14-.43a11.38 11.38 0 012.33-.42h1.28a9.71 9.71 0 013.15.45 5.76 5.76 0 012.15 1.23 4.83 4.83 0 011.22 1.82 6.41 6.41 0 01.39 2.25v8.34c0 .75.06 1.38.11 1.92s.09 1 .15 1.35.14.67.21.92v.07h-3.89v-.07a3.68 3.68 0 00.13-.63c0-.24.06-.52.08-.85a7.57 7.57 0 01-.87.65 6.11 6.11 0 01-1.14.61 7.89 7.89 0 01-1.42.44 8.43 8.43 0 01-1.72.17 7 7 0 01-4.73-1.44 5.07 5.07 0 01-1.61-4.11zM502.81 76a30.37 30.37 0 00-3.08.18 8.47 8.47 0 00-2.61.7 4.44 4.44 0 00-1.81 1.5 4.48 4.48 0 00-.68 2.59 4.43 4.43 0 001 3.17 3.8 3.8 0 002.87 1.09 4.63 4.63 0 001.53-.24 5 5 0 001.23-.6 4.42 4.42 0 00.91-.79 3.79 3.79 0 00.56-.83V76zm24.06-1.57a5.18 5.18 0 00-.93-3.41 3.12 3.12 0 00-2.5-1.09 3.92 3.92 0 00-1.26.24 10.45 10.45 0 00-1.45.63 14.79 14.79 0 00-1.47.92 15.54 15.54 0 00-1.39 1.13v9.17c0 .75.06 1.38.1 1.92s.1 1 .16 1.35a8.32 8.32 0 00.2.92v.07h-4.06v-.07c.07-.25.13-.55.2-.92s.11-.81.15-1.35.08-1.18.11-1.92 0-1.62 0-2.61v-6.87c0-.75-.06-1.38-.11-1.92s-.09-1-.15-1.36-.13-.66-.2-.91v-.07h4.06v.07a5.27 5.27 0 00-.22 1.12c-.06.45-.11 1-.17 1.76.48-.4 1-.79 1.55-1.19a14.27 14.27 0 011.74-1.04 10.58 10.58 0 011.82-.75 6 6 0 011.83-.29 5.29 5.29 0 012.33.47 4.53 4.53 0 011.57 1.25 5.05 5.05 0 01.87 1.77 7.23 7.23 0 01.28 2v8.61c0 .74.06 1.38.11 1.92s.1 1 .16 1.35a8.57 8.57 0 00.19.92v.07h-4.06v-.07a8.32 8.32 0 00.2-.92c.06-.36.12-.81.16-1.35s.07-1.18.1-1.92 0-1.62 0-2.61zM546.83 68a8 8 0 011.45.13 9.55 9.55 0 011.4.35A8 8 0 01551 69a5.88 5.88 0 011.11.76v-5.5c0-.75 0-1.38-.1-1.92s-.1-1-.16-1.36a8.87 8.87 0 00-.19-.91V60h4.06v.07a8.61 8.61 0 00-.2.91 12.49 12.49 0 00-.16 1.36c0 .54-.08 1.18-.11 1.92s0 1.62 0 2.61v15.15c0 .75.07 1.38.11 1.92a12 12 0 00.16 1.35 8.32 8.32 0 00.2.92v.07h-3.89v-.07a1.49 1.49 0 00.09-.41c0-.19 0-.41.09-.68a11.36 11.36 0 01-2.25 1 10 10 0 01-3.15.46 10.61 10.61 0 01-3.79-.65 8.15 8.15 0 01-2.91-1.87 8.25 8.25 0 01-1.91-2.92 11.11 11.11 0 01-.65-3.9 9.68 9.68 0 01.7-3.68 8.89 8.89 0 012-2.94 9 9 0 013-2 10.05 10.05 0 013.78-.62zm5.26 4.89a5.5 5.5 0 00-2-2.72 5.17 5.17 0 00-3-.88 6.59 6.59 0 00-2.53.48 5.46 5.46 0 00-2 1.4 6.33 6.33 0 00-1.3 2.24 9.06 9.06 0 00-.46 3 14.2 14.2 0 00.42 3.54 8.81 8.81 0 001.24 2.83 5.91 5.91 0 002 1.89 5.65 5.65 0 002.79.67 5.93 5.93 0 001.55-.19 7.08 7.08 0 001.32-.49 5.9 5.9 0 001-.66 5.31 5.31 0 00.76-.71c0-.51 0-1.08.05-1.73s0-1.35 0-2.12zM36.3 141.09a4.74 4.74 0 01.58-2.4 5.59 5.59 0 011.51-1.69 8.22 8.22 0 012.17-1.17 16.06 16.06 0 012.51-.71 23.28 23.28 0 012.57-.35 41 41 0 012.32-.11v-.9a6 6 0 00-.3-2 3.63 3.63 0 00-.85-1.4 3.45 3.45 0 00-1.3-.83 5 5 0 00-1.68-.27 7.36 7.36 0 00-1.25.11 6.64 6.64 0 00-1.28.35 8.25 8.25 0 00-1.38.67 13 13 0 00-1.58 1.07l-.17-.11 1.19-2.48c.39-.17.77-.31 1.14-.43a11.38 11.38 0 012.33-.42h1.28a9.71 9.71 0 013.15.45 5.76 5.76 0 012.15 1.23 4.83 4.83 0 011.22 1.82 6.41 6.41 0 01.39 2.25v8.34c0 .75.06 1.38.11 1.92s.09 1 .15 1.35.14.67.21.92v.07h-3.85v-.07a3.68 3.68 0 00.13-.63c0-.24.06-.52.08-.85a7.57 7.57 0 01-.87.65 6.11 6.11 0 01-1.14.61 7.89 7.89 0 01-1.42.44 8.43 8.43 0 01-1.72.17 7 7 0 01-4.7-1.53 5.07 5.07 0 01-1.7-4.07zM48 136a30.37 30.37 0 00-3.08.18 8.47 8.47 0 00-2.61.7 4.44 4.44 0 00-1.81 1.5 4.48 4.48 0 00-.68 2.59 4.43 4.43 0 001 3.17 3.8 3.8 0 002.87 1.09 4.63 4.63 0 001.53-.24 5.29 5.29 0 001.24-.6 4.63 4.63 0 00.9-.79 3.79 3.79 0 00.56-.83V136zm15-6.82a10 10 0 012.38-.91 11.11 11.11 0 012.58-.31 9.66 9.66 0 013.61.66 8.25 8.25 0 014.78 4.83 10.71 10.71 0 01.68 3.9 10 10 0 01-.62 3.48 8.47 8.47 0 01-1.87 2.95 8.94 8.94 0 01-3.07 2.05 11.07 11.07 0 01-4.27.77h-.74c-.31 0-.66 0-1-.07l-1.2-.14c-.42-.06-.83-.14-1.23-.23-.56-.13-1.12-.27-1.69-.43s-1.11-.34-1.63-.54a4.85 4.85 0 00.12-.89c0-.41.07-.86.08-1.34s0-.95 0-1.42v-17.28c0-.75-.06-1.38-.1-1.92s-.1-1-.16-1.36-.13-.66-.2-.91V120h4.06v.07a8.61 8.61 0 00-.2.91c-.06.37-.11.82-.16 1.36s-.08 1.18-.1 1.92 0 1.62 0 2.61zm0 10.95v2.35c0 .62 0 1.12.08 1.5a6.54 6.54 0 002 1 9.78 9.78 0 002.78.38 5.29 5.29 0 002.29-.49 5 5 0 001.77-1.42 6.83 6.83 0 001.15-2.27 10.06 10.06 0 00.42-3 16.36 16.36 0 00-.36-3.53 8.54 8.54 0 00-1.09-2.81 5.48 5.48 0 00-1.88-1.86 5.35 5.35 0 00-2.72-.66 5.88 5.88 0 00-2.5.54 5.37 5.37 0 00-2 1.58zm29.49-8.32h-.24a3.85 3.85 0 00-.4-.86 3.48 3.48 0 00-.7-.85 3.81 3.81 0 00-1-.64 3.57 3.57 0 00-1.4-.25 3.4 3.4 0 00-1 .15 2.59 2.59 0 00-.85.47 2.27 2.27 0 00-.57.76 2.6 2.6 0 00-.21 1.08 2.84 2.84 0 00.54 1.64 9.32 9.32 0 001.34 1.55c.54.51 1.12 1 1.75 1.54a19.3 19.3 0 011.75 1.61 9 9 0 011.34 1.8 4.15 4.15 0 01.54 2.07 5 5 0 01-.32 1.75 4.24 4.24 0 01-1 1.52 4.73 4.73 0 01-1.69 1.08 6.48 6.48 0 01-2.45.41 7.92 7.92 0 01-1.58-.15 9.07 9.07 0 01-1.33-.4 6.5 6.5 0 01-1.09-.53c-.32-.19-.61-.38-.85-.55l.17-3.34h.28a6.41 6.41 0 00.53 1.51 4.15 4.15 0 00.87 1.17 4.1 4.1 0 001.19.76 3.83 3.83 0 001.46.27 2.89 2.89 0 002.06-.72 2.47 2.47 0 00.77-1.88 3.1 3.1 0 00-.52-1.72 8.19 8.19 0 00-1.31-1.5c-.53-.48-1.09-1-1.7-1.44a16.52 16.52 0 01-1.69-1.54 7.55 7.55 0 01-1.31-1.79 4.62 4.62 0 01-.52-2.23 4.44 4.44 0 01.38-1.87 4.26 4.26 0 011-1.46 4.85 4.85 0 011.61-.94 6.06 6.06 0 012-.33 8 8 0 012.43.31 8.93 8.93 0 011.49.58zm6.93 5.43a9.08 9.08 0 015.81-8.57A10.12 10.12 0 01109 128a10.51 10.51 0 013.74.66 9.39 9.39 0 013 1.87 8.68 8.68 0 012 3 9.93 9.93 0 01.74 3.9 9.75 9.75 0 01-.63 3.48 8.59 8.59 0 01-1.86 2.95 9 9 0 01-3 2.05 10.3 10.3 0 01-4.1.77 10.6 10.6 0 01-3.71-.65 9.18 9.18 0 01-3-1.87 8.86 8.86 0 01-2.06-2.94 9.72 9.72 0 01-.7-3.98zm10 8.07a5.33 5.33 0 002.3-.49 5.23 5.23 0 001.8-1.42 6.87 6.87 0 001.18-2.27 10.06 10.06 0 00.42-3 14.61 14.61 0 00-.41-3.53 8.87 8.87 0 00-1.2-2.81 5.77 5.77 0 00-2-1.86 5.83 5.83 0 00-2.83-.66 5.37 5.37 0 00-2.29.48 5.17 5.17 0 00-1.8 1.4 6.46 6.46 0 00-1.19 2.24 10 10 0 00-.42 3 14.69 14.69 0 00.41 3.54 9 9 0 001.23 2.83 5.94 5.94 0 002 1.89 5.63 5.63 0 002.76.66zm16.71-10.16v-2.61c0-.75-.07-1.38-.11-1.92a12.49 12.49 0 00-.16-1.36 8.61 8.61 0 00-.2-.91v-.07h4.06v.07a7.41 7.41 0 00-.24 1q-.09.58-.15 1.5c.44-.36.89-.72 1.36-1.07a11.44 11.44 0 011.44-.94 9 9 0 011.5-.65 5.15 5.15 0 011.54-.24 6.78 6.78 0 01.83 0 5 5 0 01.63.12l.51.18.44.19-.86 3.35-.3-.07a2.38 2.38 0 00-.79-1.24A2.48 2.48 0 00134 130a3.69 3.69 0 00-1.15.19 6.72 6.72 0 00-1.21.54 12.1 12.1 0 00-1.23.79c-.41.3-.81.61-1.2.94v9.52c0 .74.06 1.38.11 1.92s.1 1 .16 1.35a8.57 8.57 0 00.19.92v.07h-4.06v-.07a8.32 8.32 0 00.2-.92 12 12 0 00.16-1.35c0-.54.08-1.18.11-1.92s0-1.62 0-2.61zm20.77-5.97a10 10 0 012.38-.91 11.11 11.11 0 012.58-.31 9.66 9.66 0 013.61.66 8.25 8.25 0 014.78 4.83 10.71 10.71 0 01.68 3.9 10 10 0 01-.62 3.48 8.59 8.59 0 01-1.86 2.95 9.08 9.08 0 01-3.08 2.05 11.05 11.05 0 01-4.26.77h-.75c-.31 0-.65 0-1-.07l-1.2-.14c-.42-.06-.83-.14-1.23-.23-.56-.13-1.12-.27-1.69-.43s-1.11-.34-1.63-.54a5.62 5.62 0 00.13-.89c0-.41.06-.86.08-1.34s0-.95 0-1.42v-17.28c0-.75-.06-1.38-.1-1.92s-.1-1-.16-1.36-.13-.66-.2-.91V120h4.06v.07a8.61 8.61 0 00-.2.91c-.06.37-.11.82-.16 1.36s-.08 1.18-.1 1.92 0 1.62 0 2.61zm0 10.95v2.35c0 .62 0 1.12.08 1.5a6.54 6.54 0 002 1 9.78 9.78 0 002.78.38 5.29 5.29 0 002.29-.49 5 5 0 001.77-1.42 6.83 6.83 0 001.15-2.27 10.06 10.06 0 00.42-3 16.36 16.36 0 00-.36-3.53 8.54 8.54 0 00-1.09-2.81 5.08 5.08 0 00-4.6-2.52 5.88 5.88 0 00-2.5.54 5.37 5.37 0 00-2 1.58zm29.52-8.32h-.25a3.45 3.45 0 00-.4-.86 3.48 3.48 0 00-.7-.85 3.81 3.81 0 00-1-.64 3.55 3.55 0 00-1.39-.25 3.42 3.42 0 00-1 .15 2.7 2.7 0 00-.85.47 2.27 2.27 0 00-.57.76 2.6 2.6 0 00-.21 1.08 2.84 2.84 0 00.54 1.64 9.82 9.82 0 001.34 1.55c.54.51 1.12 1 1.75 1.54a19.3 19.3 0 011.75 1.61 9.41 9.41 0 011.35 1.8 4.25 4.25 0 01.53 2.07 4.8 4.8 0 01-.32 1.75 4.24 4.24 0 01-1 1.52 4.73 4.73 0 01-1.69 1.08 6.45 6.45 0 01-2.45.41 7.75 7.75 0 01-1.57-.15 8.85 8.85 0 01-1.34-.4 6.91 6.91 0 01-1.09-.53c-.32-.19-.61-.38-.85-.55l.17-3.34h.29a6 6 0 00.52 1.51 4.35 4.35 0 00.87 1.17 4.1 4.1 0 001.19.76 3.83 3.83 0 001.46.27 2.87 2.87 0 002.06-.72 2.47 2.47 0 00.77-1.88 3 3 0 00-.52-1.72 8.19 8.19 0 00-1.31-1.5c-.53-.48-1.09-1-1.7-1.44a16.52 16.52 0 01-1.69-1.54 7.55 7.55 0 01-1.31-1.79 4.93 4.93 0 01-.14-4.1 4.26 4.26 0 011-1.46 4.85 4.85 0 011.61-.94 6.06 6.06 0 012-.33 8 8 0 012.43.31 8.93 8.93 0 011.49.58zm22.79 2.99c0-1 0-1.87-.05-2.61s-.06-1.39-.1-1.92-.1-1-.16-1.36-.13-.67-.2-.91v-.07h4.06v.07a5.1 5.1 0 00-.16.6 6.56 6.56 0 00-.12.75 12.28 12.28 0 012.29-1 9.08 9.08 0 012.79-.41 9.33 9.33 0 013.56.66 7.81 7.81 0 012.76 1.89 8.65 8.65 0 011.78 3 11.4 11.4 0 01.63 3.9 10 10 0 01-.62 3.48 8.69 8.69 0 01-4.79 5 10 10 0 01-4 .77 12.78 12.78 0 01-2.5-.22 14.17 14.17 0 01-2.07-.54v5.18c0 .74.06 1.38.11 1.92s.1 1 .15 1.35a8.32 8.32 0 00.2.92v.07h-4.07v-.07c.07-.25.13-.55.2-.92s.12-.81.16-1.35.07-1.18.1-1.92.05-1.62.05-2.61zm7.73-5.55a5.15 5.15 0 00-1.22.15 6.87 6.87 0 00-1.23.42 6.18 6.18 0 00-1.16.68 5.89 5.89 0 00-1 .94c0 .45-.05.95-.06 1.52s0 1.17 0 1.84v9.2a4.62 4.62 0 00.79.49 6.55 6.55 0 001 .42 7.69 7.69 0 001.25.29 10.3 10.3 0 001.54.1 6 6 0 002.47-.49 5.07 5.07 0 001.88-1.42 6.5 6.5 0 001.17-2.27 10.06 10.06 0 00.42-3 18.6 18.6 0 00-.32-3.53 9 9 0 00-1-2.81 4.84 4.84 0 00-4.51-2.52zm17-2.38c0-1 0-1.86-.05-2.61s-.06-1.38-.1-1.92-.1-1-.16-1.36-.13-.66-.2-.91V120h4.06v.07a8.61 8.61 0 00-.2.91c-.06.37-.11.82-.16 1.36s-.08 1.18-.1 1.92 0 1.62 0 2.61v15.15c0 .75.06 1.38.1 1.92s.1 1 .16 1.35a8.32 8.32 0 00.2.92v.07h-4.06v-.07c.07-.25.13-.55.2-.92s.12-.81.16-1.35.07-1.18.1-1.92.05-1.62.05-2.61zM244 146.6a10.74 10.74 0 01-3.66-.62 8.64 8.64 0 01-3-1.8 8.31 8.31 0 01-2-2.94 10.23 10.23 0 01-.73-4 10.07 10.07 0 01.66-3.68 9.24 9.24 0 011.85-2.94 8.46 8.46 0 012.75-2 8.22 8.22 0 013.4-.71 8.81 8.81 0 013.36.63 7.48 7.48 0 012.68 1.81 8.36 8.36 0 011.79 2.93 12.21 12.21 0 01.72 4l-4-.05h-7.13l-2.61.05a13.67 13.67 0 00.57 3.31 8.09 8.09 0 001.29 2.52 5.4 5.4 0 002 1.61 6 6 0 002.65.56 7.89 7.89 0 001.92-.23 6.43 6.43 0 003-1.66 6.44 6.44 0 001-1.24l.21.11-1.3 3.13a10.82 10.82 0 01-2.27.83 12.59 12.59 0 01-3.15.38zm-2.34-10.73h3.53c1.17 0 2.24 0 3.2-.06a11.41 11.41 0 00-.59-2.74 7.23 7.23 0 00-1.13-2.06 4.93 4.93 0 00-1.62-1.3 4.63 4.63 0 00-2-.45 4 4 0 00-1.87.44 4.37 4.37 0 00-1.49 1.3 7 7 0 00-1 2.06 10.91 10.91 0 00-.46 2.79h1.67zm29.66-1.44a5.18 5.18 0 00-.93-3.41 3.12 3.12 0 00-2.5-1.09 3.92 3.92 0 00-1.26.24 10.45 10.45 0 00-1.45.63 14.79 14.79 0 00-1.47.92 15.54 15.54 0 00-1.39 1.13v9.17c0 .75.06 1.38.1 1.92s.1 1 .16 1.35a8.32 8.32 0 00.2.92v.07h-4.06v-.07c.07-.25.13-.55.2-.92s.12-.81.16-1.35.07-1.18.1-1.92.05-1.62.05-2.61v-4.26c0-1 0-1.86-.05-2.61s-.06-1.38-.1-1.92-.1-1-.16-1.36-.13-.66-.2-.91v-.07h4.06v.07a5.27 5.27 0 00-.22 1.12c-.06.45-.11 1-.17 1.76.48-.4 1-.79 1.56-1.19a13.43 13.43 0 011.73-1.07 10.58 10.58 0 011.82-.75 6 6 0 011.83-.29 5.29 5.29 0 012.33.47 4.53 4.53 0 011.57 1.25 5.25 5.25 0 01.88 1.77 7.61 7.61 0 01.27 2v8.61c0 .74.06 1.38.11 1.92s.1 1 .16 1.35a8.57 8.57 0 00.19.92v.07h-4.06v-.07a8.32 8.32 0 00.2-.92 12 12 0 00.16-1.35c0-.54.08-1.18.11-1.92s0-1.62 0-2.61zm18.31 10.81a3 3 0 001.05-.19 4.82 4.82 0 001-.53 8.14 8.14 0 00.93-.76 10.29 10.29 0 00.84-.91l.17.09-1.14 2.83c-.14.07-.31.16-.52.25a5 5 0 01-.74.29 8.25 8.25 0 01-1 .22 7.76 7.76 0 01-1.37.1 5 5 0 01-3.66-1.27 5.32 5.32 0 01-1.31-4v-11.71l-3 .11v-1.55h2.96c0-.83 0-1.57-.07-2.21s-.06-1.19-.1-1.67-.09-.87-.15-1.2-.12-.6-.17-.83v-.07h4.06v.07a7.29 7.29 0 00-.2.83c-.06.33-.11.73-.15 1.19s-.07 1-.1 1.67-.05 1.38-.06 2.22h2.17l1.93-.07 1.48-.09c.4 0 .67-.06.8-.08l-.32 1.79h-1.88c-.56 0-1.21 0-1.93-.05h-2.25v12.09a5.43 5.43 0 00.23 1.77 2.83 2.83 0 00.62 1.06 1.91 1.91 0 00.86.53 3.29 3.29 0 001.02.08zm16.7.83l-6.19-13.54c-.22-.51-.46-1-.72-1.48s-.5-.9-.73-1.28-.43-.68-.61-.94-.29-.41-.35-.48v-.07h4.61v.07a.8.8 0 000 .26 1.89 1.89 0 000 .32 5 5 0 00.16 1.2 9.48 9.48 0 00.63 1.65l4.85 10.54 4.43-10.4c.19-.44.38-.91.57-1.43a4.44 4.44 0 00.29-1.56 2 2 0 000-.38 1 1 0 00-.07-.2v-.07h3.16v.07a6.39 6.39 0 00-.8 1.19 20.53 20.53 0 00-1 2.13l-8.38 20c-.19.43-.38.91-.58 1.42a4.53 4.53 0 00-.28 1.57 2 2 0 000 .38.73.73 0 00.07.2v.07H302v-.07a5.46 5.46 0 00.82-1.17 20.73 20.73 0 001-2.1zm28.91-8.83a9.11 9.11 0 015.81-8.57 10.12 10.12 0 013.78-.71 10.51 10.51 0 013.74.66 9.29 9.29 0 013.05 1.87 8.68 8.68 0 012.05 3 10.3 10.3 0 01.11 7.38 8.59 8.59 0 01-1.86 2.95 9 9 0 01-3 2.05 10.3 10.3 0 01-4.1.77 10.6 10.6 0 01-3.71-.65 9.18 9.18 0 01-3-1.87 8.86 8.86 0 01-2.06-2.94 9.72 9.72 0 01-.81-3.94zm10 8.07a5.3 5.3 0 002.3-.49 5.14 5.14 0 001.8-1.42 6.87 6.87 0 001.18-2.27 10.06 10.06 0 00.42-3 14.61 14.61 0 00-.41-3.53 8.87 8.87 0 00-1.2-2.81 5.77 5.77 0 00-2-1.86 5.83 5.83 0 00-2.83-.66 5.4 5.4 0 00-2.29.48 5.17 5.17 0 00-1.8 1.4 6.63 6.63 0 00-1.19 2.24 10 10 0 00-.42 3 14.2 14.2 0 00.42 3.54 8.78 8.78 0 001.22 2.83 5.94 5.94 0 002 1.89 5.63 5.63 0 002.76.66zm23.22-24.2a3 3 0 00-.94.16 2.11 2.11 0 00-.93.58 3.31 3.31 0 00-.7 1.16 5.51 5.51 0 00-.28 1.93v3.34l1.75-.05 1.47-.07 1.09-.08.63-.08-.32 1.79h-1.33c-.41 0-.9 0-1.46-.05h-1.83v12.37c0 .75.07 1.38.11 1.92a12 12 0 00.16 1.35 8.32 8.32 0 00.2.92v.07h-4.06v-.07a8.57 8.57 0 00.19-.92c.06-.36.11-.81.16-1.35s.08-1.18.1-1.92 0-1.62 0-2.61v-9.76l-2.95.11v-1.55h2.95v-3a6.56 6.56 0 01.4-2.4 5 5 0 011.09-1.76 4.54 4.54 0 011.69-1.08 6 6 0 012.16-.37 7.77 7.77 0 011.22.09c.37.06.71.13 1 .21a7.45 7.45 0 01.79.25l.57.24.69 3-.22.11c-.18-.28-.39-.57-.61-.87a5.36 5.36 0 00-.76-.82 4 4 0 00-.94-.61 2.92 2.92 0 00-1.09-.18zm34.86 8.79l4.7 11.81 3.92-9.79c.08-.21.17-.45.28-.71s.2-.54.28-.81.15-.54.21-.79a3 3 0 00.09-.68 1.38 1.38 0 000-.38.44.44 0 00-.07-.2v-.07h3.17v.07a6.34 6.34 0 00-.77 1.1 20 20 0 00-1.06 2.22l-6.24 14.86h-1l-4.54-11-4.53 11h-1l-5.76-14c-.21-.51-.44-1-.68-1.48s-.47-.9-.68-1.28l-.57-.94c-.17-.25-.28-.41-.34-.48v-.07h4.68v.07a1.12 1.12 0 00-.06.26v.32a5 5 0 00.16 1.2 14 14 0 00.56 1.65l3.92 9.93 4.73-11.81zm17.37 11.19a4.84 4.84 0 01.57-2.4 5.62 5.62 0 011.52-1.74 8 8 0 012.16-1.17 16.18 16.18 0 012.52-.71 23.11 23.11 0 012.56-.35c.85-.06 1.62-.1 2.32-.11v-.9a6 6 0 00-.3-2 3.74 3.74 0 00-.84-1.4 3.49 3.49 0 00-1.31-.83 5 5 0 00-1.68-.27 7.45 7.45 0 00-1.25.11 6.55 6.55 0 00-1.27.35 8.32 8.32 0 00-1.39.67 12.94 12.94 0 00-1.57 1.07l-.18-.11 1.2-2.48a9.33 9.33 0 012.28-.7 11.37 11.37 0 011.19-.15h1.27a9.82 9.82 0 013.16.45 5.71 5.71 0 012.14 1.23 4.61 4.61 0 011.22 1.82 6.41 6.41 0 01.39 2.25v8.34c0 .75.07 1.38.11 1.92a12 12 0 00.16 1.35 8.32 8.32 0 00.2.92v.07H432v-.07a5 5 0 00.13-.63c0-.24 0-.52.08-.85a9.84 9.84 0 01-.87.65 6.55 6.55 0 01-1.15.61 7.64 7.64 0 01-1.42.44 8.26 8.26 0 01-1.71.17 7 7 0 01-4.73-1.44 5 5 0 01-1.64-4.11zm11.65-5.09a30.17 30.17 0 00-3.07.18 8.32 8.32 0 00-2.61.7 4.07 4.07 0 00-2.49 4.09 4.39 4.39 0 001 3.17 3.77 3.77 0 002.86 1.09 4.69 4.69 0 001.54-.24 5.41 5.41 0 001.23-.6 4.11 4.11 0 00.9-.79 3.86 3.86 0 00.57-.83V136zm18.33 9.24a3 3 0 001.05-.19 4.82 4.82 0 001-.53 8.14 8.14 0 00.93-.76 10.29 10.29 0 00.84-.91l.17.09-1.14 2.83c-.14.07-.31.16-.52.25a5 5 0 01-.74.29 8.25 8.25 0 01-1 .22 7.76 7.76 0 01-1.37.1 5 5 0 01-3.66-1.27 5.32 5.32 0 01-1.31-4v-11.71l-3 .11v-1.55h2.96c0-.83 0-1.57-.06-2.21s-.07-1.19-.11-1.67-.09-.87-.15-1.2-.12-.6-.18-.83v-.07h4.06v.07a7.49 7.49 0 00-.19.83c-.06.33-.11.73-.15 1.19s-.07 1-.1 1.67 0 1.38-.07 2.22h2.18l1.93-.07 1.48-.09.8-.08-.32 1.79h-1.88c-.56 0-1.21 0-1.94-.05h-2.25v12.09a5.4 5.4 0 00.24 1.77 2.83 2.83 0 00.62 1.06 1.91 1.91 0 00.86.53 3.29 3.29 0 001.02.08zm18.93 1.36a10.74 10.74 0 01-3.66-.62 8.64 8.64 0 01-3-1.8 8.31 8.31 0 01-2-2.94 10.23 10.23 0 01-.73-4 9.87 9.87 0 01.67-3.68 9 9 0 011.84-2.94 8.46 8.46 0 012.75-2 8.26 8.26 0 013.41-.71 8.8 8.8 0 013.35.63 7.48 7.48 0 012.77 1.86 8.53 8.53 0 011.8 2.93 12.22 12.22 0 01.71 4l-4-.05h-7.14l-2.62.05a13.66 13.66 0 00.58 3.31 7.87 7.87 0 001.28 2.52 5.44 5.44 0 002 1.61 5.92 5.92 0 002.64.56 8 8 0 001.93-.23 6.86 6.86 0 001.64-.66 6.94 6.94 0 001.32-1 6.44 6.44 0 001-1.24l.21.11-1.3 3.13a10.82 10.82 0 01-2.27.83 12.53 12.53 0 01-3.18.33zm-2.34-10.73h3.53q1.75 0 3.21-.06a11.9 11.9 0 00-.6-2.74 7.23 7.23 0 00-1.13-2.06 4.79 4.79 0 00-1.61-1.3 4.71 4.71 0 00-2.06-.45 4 4 0 00-1.87.44 4.37 4.37 0 00-1.49 1.3 7 7 0 00-1 2.06 10.91 10.91 0 00-.46 2.79h1.67zm17.58-.72v-2.61c0-.75-.06-1.38-.1-1.92s-.1-1-.16-1.36-.13-.66-.2-.91v-.07h4.06v.07a5.2 5.2 0 00-.24 1q-.09.58-.15 1.5c.44-.36.89-.72 1.36-1.07a10.16 10.16 0 011.44-.94 9 9 0 011.5-.65 5.1 5.1 0 011.54-.24 6.61 6.61 0 01.82 0 4.89 4.89 0 01.64.12l.51.18.44.19-.87 3.35-.29-.07a2.34 2.34 0 00-.8-1.24 2.44 2.44 0 00-1.58-.46 3.68 3.68 0 00-1.14.19 6.72 6.72 0 00-1.21.54 12.1 12.1 0 00-1.23.79c-.41.3-.81.61-1.2.94V142c0 .74.06 1.38.11 1.92s.1 1 .16 1.35a6.66 6.66 0 00.19.92v.07h-4.06v-.07c.07-.25.13-.55.2-.92s.12-.81.16-1.35.07-1.18.1-1.92 0-1.62 0-2.61zm16.8 9.58a1.8 1.8 0 01.15-.73 1.87 1.87 0 01.4-.59 1.94 1.94 0 01.6-.41 1.8 1.8 0 01.73-.15 1.86 1.86 0 01.75.15 2 2 0 01.59.41 1.89 1.89 0 01.41.59 1.8 1.8 0 01.15.73 1.86 1.86 0 01-1.9 1.9 1.8 1.8 0 01-.73-.15 1.84 1.84 0 01-1-1 1.86 1.86 0 01-.15-.75z" fill="#fff" data-name="レイヤー 1"/></g></svg>