<svg xmlns="http://www.w3.org/2000/svg" viewBox="0 0 531.72 386.05"><g data-name="レイヤー 2"><path d="M32.15 6.1a4.11 4.11 0 01-2.15 1v36.8c-.05.35-1.65 1.3-2.9 1.3h-.5V41H3.3v3.1c0 .5-1.2 1.35-2.75 1.35H0V3.25L3.6 5h22.5l1.95-2.2zM3.3 6.45V22h23.3V6.45zm23.3 33.1V23.4H3.3v16.15zM79.19 13.3c4.55 8.8 12.9 16.55 20.7 20.15l-.1.5a4.08 4.08 0 00-3.3 2.75C88.89 32.05 82 23.7 78 13.3v20.5h4.55l2.35-3.15s2.65 2.2 4.35 3.8c-.15.55-.65.8-1.35.8H78v9.35c0 .5-1.4 1.25-2.7 1.25h-.65v-10.6H64.14l-.4-1.45h10.95V16.2a51.1 51.1 0 01-20.9 21l-.5-.75A55.72 55.72 0 0072 13.3H54.29l-.46-1.5h20.86V0l5.2.6c-.15.75-.55 1.25-1.85 1.45v9.75h13.8l2.6-3.25s2.9 2.25 4.65 3.95c-.1.55-.6.8-1.3.8zm58.9 27.7c12.25-2.15 18.15-8.45 18.15-17.5s-6.6-14.6-14.85-14.6c-.6 0-1.2 0-1.8.1a9.33 9.33 0 012.15 5.3 25.06 25.06 0 01-1.55 8.05c-2.1 6-7.9 15.7-13 15.7-3.35 0-6.85-5.3-6.85-11.45a19.21 19.21 0 016.65-14 21.62 21.62 0 0114.6-5.35c10.3 0 18.25 6.75 18.25 17.1 0 8.3-5.2 16.8-21.55 17.85zm-.35-31.7a19 19 0 00-9.45 4.95 16.09 16.09 0 00-5.15 11.55c0 4.8 2.2 8.45 4.25 8.45 3.3 0 7.9-7.9 10-12.65a23.54 23.54 0 001.8-7.7 8.73 8.73 0 00-1.45-4.6zm64.01 1.75A84.1 84.1 0 00212 9.9c1.4-.25 1.7-1.15 2.55-1.15 1.25 0 4.25 2.15 4.25 3.45 0 1-1.7 1.3-2.3 2.55a76.33 76.33 0 01-7.6 11.5c3.05 2.3 5.6 4.85 5.6 6.75a1.57 1.57 0 01-1.65 1.8c-1.4.05-2.3-2.15-6.1-6a61 61 0 01-22.45 15.5l-.71-1.15A69.74 69.74 0 00204.5 26.7a42.38 42.38 0 00-10.6-6.8 46.76 46.76 0 01-9.9 7.5l-.79-1c7.7-5.55 16.2-17 16.2-19.9 0-.9-1.3-1.65-3-2.4l.25-.95a10.56 10.56 0 013 .2c2 .45 4.5 1.9 4.5 2.85s-.75 1.3-1.45 2.6c-.45.75-.95 1.55-1.45 2.3zm10.9.85c-1.75.15-6.4.9-8.15 1.3a15.43 15.43 0 01-2.75.6 3.72 3.72 0 01-1.85-.8 71.27 71.27 0 01-5.05 6 69 69 0 0111.4 5.5 43.24 43.24 0 006.95-11.8c.25-.65 0-.8-.55-.8zm47.07-7.7a12 12 0 013.65-.75c2.2 0 4.9 1.65 4.9 2.45 0 1.15-.7 1.2-.9 3.1-.15 1.45-.25 3.7-.25 5.5 8.35-.9 8.4-1.65 9.25-1.65 1.8 0 4.45 1.25 4.45 2.55a1.21 1.21 0 01-1.25 1.25 107.77 107.77 0 00-12.45.15c-.05 4.65 0 12.6.1 16.3.1 3 .4 4.2.4 5.45 0 2.05-1.5 4.25-2.95 4.25s-1.35-1.7-2.35-2.6a29.5 29.5 0 00-5.4-3l.4-.9c2 .5 4.55 1.1 5.9 1.3.65.1 1-.15 1-.7.2-2.1.1-9.95 0-15.9-4.6 6.9-14.1 14.65-22.75 18.5l-.75-1c8.3-5.15 17.55-13.7 21.65-21.15-3.65.4-7.2 1.05-9.75 1.5-2.15.4-3.1 1.1-4.55 1.1s-3.6-2.2-4.05-3.35a8.62 8.62 0 01-.36-2.8l1-.4c1.15 2 2.1 3 3.4 3 3.1-.05 10.85-1 16.15-1.5 0-2.65-.05-5.65-.1-7.4 0-.9-.35-1.2-1.25-1.55a12.14 12.14 0 00-3.2-.6zm46.61 10.65v-1a8.32 8.32 0 012.89-.35c1.76.15 5.31 2.05 5.31 3.55 0 1.05-.95 1.4-1.2 2.65A33.3 33.3 0 01297.92 41l-.85-1c8-6.2 13-16.6 13-22.65.01-1.6-2.54-2.2-3.74-2.5zm9.79-6.4a9.16 9.16 0 013.31-.6c2 0 5.25 1.8 5.25 3s-1 1.1-1.15 2.65c-.25 2.3-.65 15.9-.65 19.65 0 .7.3.8.8.65a58.34 58.34 0 0018.85-13.5l1.05.85c-4.3 6.15-11.6 12-18.45 15.85-1.15.7-1.8 2.1-2.8 2.1s-3.1-2.4-3.1-3.35.55-1.2.7-3.2c.25-2.85.55-16.3.25-21.1-.05-1.25-1.4-1.7-3.95-1.95zm52.42 13.05c0 6.65-.59 17.1-8 24.3l-.65-.6c4.86-7.4 5.4-16.25 5.4-23.7v-7.65l3.86 1.6h-.61v.05h19.16a63.28 63.28 0 003.1-8.25l4.95 1.4c-.2.6-.85 1-1.9.95a41.29 41.29 0 01-4.9 5.9H399l2.4-2.95s2.75 2.15 4.45 3.65c-.15.55-.65.8-1.35.8h-36zm-5.15-15.7h18.26V0l4.9.5c-.1.65-.5 1.1-1.6 1.3v4h12.25l2.35-2.95s2.65 2.05 4.35 3.6c-.15.5-.65.75-1.35.75h-38.7zm38 33.9s2.7 2 4.4 3.6c-.15.5-.65.75-1.35.75H368.2l-.45-1.4h16.85V34.5H374l-.4-1.45h11V26h-8.75a25.78 25.78 0 01-5.9 6.5l-.75-.55a34.7 34.7 0 006.6-13.7l4.6 1.45c-.2.55-.75 1-1.8 1a39.23 39.23 0 01-1.85 3.85h7.85V18.2l4.8.55c0 .6-.45 1.05-1.6 1.25v4.45h7.85l2.3-2.8a52 52 0 014.2 3.5c-.15.55-.55.8-1.25.8h-13.1v7.1h7.05l2.25-2.75s2.5 1.95 4.1 3.4c-.15.55-.6.8-1.3.8h-12.1v8.15H399zM374.15 7.25c8.65 3.8 5.15 10 2.15 7.4a16 16 0 00-2.75-7.1zm77.74 24.2c4.7 4.75 13.05 8.65 19.95 10.4l-.1.55A3.4 3.4 0 00469 45c-7-2.6-14.25-7.5-18.45-13.55h-.4v13.4c0 .25-1.1.95-2.75.95h-.55v-13c-5.1 5.15-12.55 9.35-20.71 12.1l-.44-.85a54.31 54.31 0 0017.95-12.55h-16.32l-.45-1.5h20v-4.9h-14.69l-.4-1.5h15V19h-17.1l-.41-1.5h12.36a13.65 13.65 0 00-3.5-6.5h-11.51l-.44-1.45h16.9V.1l4.6.5c-.05.65-.5 1.1-1.5 1.25V9.5h5.1V.1l4.7.5c-.1.65-.55 1.1-1.6 1.3v7.6h1.8a60 60 0 005.25-8.4L466 2.8c-.3.6-1 .9-2.05.75a40.75 40.75 0 01-6.35 6h7.15L467 6.7s2.6 2 4.25 3.5c-.15.55-.65.75-1.35.75h-12.01l2.65.8a1.74 1.74 0 01-2 .9 42.89 42.89 0 01-4.75 4.85h8.45l2.2-2.7a52 52 0 014.1 3.4c-.1.55-.6.8-1.3.8h-17.1v4.6h9.6l2.15-2.55s2.35 1.85 3.9 3.25c-.15.55-.65.8-1.35.8h-14.3V30h14l2.35-2.85s2.6 2 4.25 3.55c-.15.55-.65.75-1.35.75zm-19.15-30.2c9.55 3.25 7 9.75 4 7.5-.45-2.4-2.61-5.45-4.61-7.1zm7.2 9.7c4.65 2.25 5.1 5.35 4.1 6.55h8a52.53 52.53 0 003.6-6.55zM510 41c12.25-2.15 18.15-8.45 18.15-17.5s-6.6-14.6-14.85-14.6c-.6 0-1.2 0-1.8.1a9.33 9.33 0 012.15 5.3 25.06 25.06 0 01-1.55 8.05c-2.1 6-7.9 15.7-13 15.7-3.35 0-6.85-5.3-6.85-11.45a19.21 19.21 0 016.65-14 21.62 21.62 0 0114.6-5.35c10.3 0 18.25 6.75 18.25 17.1 0 8.3-5.2 16.8-21.55 17.85zm-.35-31.7a19 19 0 00-9.45 4.95A16.09 16.09 0 00495 25.8c0 4.8 2.2 8.45 4.25 8.45 3.3 0 7.9-7.9 10-12.65a23.54 23.54 0 001.8-7.7 8.73 8.73 0 00-1.43-4.6zM167.82 126.15c1.15.35 1.45.75 1.45 1.45 0 1.45-1.55 2-9 2h-4.9c-3.8 0-4.65-.85-4.65-3.4v-11.1h-7.85c-.8 5.85-4.1 11.9-16.5 15.7l-.37-.8c9.8-4.3 12.9-9.45 13.65-14.9h-12.58l-.45-1.45h13.2c0-.6.05-1.25.05-1.85v-6.65H134l-.4-1.35a40 40 0 01-9.1 4.7l-.45-.7a38.84 38.84 0 0017.65-18h-11.83l-.45-1.45h12.35l2.25-2 3.65 3.25c-.4.5-.95.6-2.15.65a35.33 35.33 0 01-11.85 13.55h20.9l2.1-2.75s2.4 2 3.9 3.35a1.2 1.2 0 01-1.3.8H154v8.5h6.9l2.35-3s2.6 2 4.3 3.6c-.15.55-.6.8-1.3.8H154v10.35c0 .85.2 1.15 2.05 1.15h8.6a1.08 1.08 0 001-.6c.3-.75.9-3.45 1.45-6.1h.6zm-39.5-33.85c10.25 1.9 8 8.85 4.5 6.7-.5-2.25-2.9-4.85-4.95-6.25zm22.45 21.35v-8.5h-7.65v6.6c0 .65 0 1.25-.05 1.9zm18.95-20.1c-.35.45-.8.65-1.85.4a53.28 53.28 0 01-8 4.6 39.47 39.47 0 0010.8 5.55l-.1.55a3.79 3.79 0 00-3.1 2.7 34.92 34.92 0 01-19.2-21.85l.85-.5a27.88 27.88 0 004.65 7.9 54.46 54.46 0 006.3-6.9l4.15 2.5c-.35.5-.75.65-1.85.35a50.41 50.41 0 01-7.8 5 31.83 31.83 0 004.25 4 55.42 55.42 0 006.65-6.7zm38.86 2.65a4.37 4.37 0 01-2.25.5 43.31 43.31 0 01-5.4 8c9.6 3 7.6 9 4.45 7.15a18.76 18.76 0 00-4.65-6v23.85c0 .3-1.1 1.15-2.7 1.15h-.5v-22.5a52.73 52.73 0 01-8.65 7l-.65-.55c5.7-4.65 11.75-12.4 14.5-18.6h-12.85l-.4-1.4h8v-9.6l4.95.55c-.1.7-.55 1.2-1.8 1.35v7.7h2.3l2.2-2.1zm22.86 17.35s2.6 2 4.19 3.5a1.16 1.16 0 01-1.25.8h-11.84v11.8c0 .25-1.06 1.1-2.76 1.1h-.55v-12.9h-12l-.4-1.45h12.45v-9.5h-9.7l-.4-1.5h10.1v-8.05h-10l-.4-1.45H223a85.2 85.2 0 003.81-11l5.15 1.45a1.66 1.66 0 01-1.81 1 66 66 0 01-6 8.5h4.45l2.25-2.75s2.55 2 4.11 3.4c-.15.55-.61.8-1.31.8h-11.11v8.05h5l2.25-2.7s2.5 1.9 4.09 3.4c-.14.55-.59.8-1.3.8h-10v9.5h6.59zm-20.16-28.2c9.95 5.05 6.75 12.05 3.4 9.3-.3-3-2.3-6.65-4-9zm62.8 40.65c12.25-2.15 18.15-8.45 18.15-17.5s-6.6-14.6-14.85-14.6c-.6 0-1.2 0-1.8.1a9.33 9.33 0 012.15 5.3 25.06 25.06 0 01-1.55 8c-2.1 6-7.9 15.7-13 15.7-3.35 0-6.85-5.3-6.85-11.45a19.21 19.21 0 016.65-14 21.62 21.62 0 0114.6-5.35c10.3 0 18.25 6.75 18.25 17.1 0 8.3-5.2 16.8-21.55 17.85zm-.35-31.7a19 19 0 00-9.45 5 16.09 16.09 0 00-5.15 11.55c0 4.8 2.2 8.45 4.25 8.45 3.3 0 7.9-7.9 9.95-12.65a23.54 23.54 0 001.8-7.7 8.73 8.73 0 00-1.4-4.65zm51.87 23.2c2.4-1 4.95-2.2 7.55-3.35l.3.7c-3.5 2.25-8.4 5.65-14.75 9.45a2.11 2.11 0 01-.95 1.35l-2-4.25c1.4-.45 3.8-1.35 6.7-2.55v-17.2h-5.9l-.35-1.5h6.25V86.1l5 .55c-.15.7-.55 1.15-1.85 1.3v12.2h1.75l2-2.9s2.45 2.15 3.85 3.6a1.14 1.14 0 01-1.25.8h-6.4zm35.15 7.85c1.36.45 1.71.85 1.71 1.55 0 1.8-2.16 2.25-13 2.25h-7.6c-5 0-6.6-1-6.6-4.5V104.8l-6.2 2.35-1-1.2 7.15-2.7V88.9l4.95.6c-.1.65-.6 1.2-1.8 1.4v11.15l6.75-2.5V85.1l4.85.6c-.1.7-.5 1.2-1.75 1.4v11.25l6.8-2.55.45-.15 1.75-2 3.75 3a3 3 0 01-1.94.8c-.15 13.15-.75 18-2.36 19.75a5.48 5.48 0 01-4.15 1.6 3 3 0 00-.6-2.3 6.16 6.16 0 00-2.6-1v-.9c1.15.1 3 .25 3.75.25a1.46 1.46 0 001.31-.45c.94-1 1.34-5.9 1.54-17.45l-7.7 2.9v20.95c0 .45-1.35 1.25-2.55 1.25h-.55v-21l-6.75 2.55V124c0 1.5.55 2 3.7 2h7.45c3.5 0 6 0 7.11-.15a1.62 1.62 0 001.39-.75 49 49 0 001.9-7.6h.65zm21.35-7.05c6 1.9 9.15 4.45 10.8 6.85a5.5 5.5 0 011.2 3.35 2 2 0 01-2.05 2.25c-1.05 0-1.7-.6-2.4-2.1a23.11 23.11 0 00-8.1-9.5zM25.34 186.25c1.8 9.45 7.1 19.55 22 26.35l-.1.55c-1.75.2-2.95.85-3.45 2.75-13.9-7.65-17.9-19.6-19.35-29.6-1.4 11.65-6 22-23.15 29.55l-.6-.85c14.6-7.8 18.9-17.55 20.2-28.7H1.64l-.45-1.45H21c.4-4.65.4-9.55.4-14.65l5.35.55c-.15.75-.55 1.25-1.7 1.45-.1 4.3-.15 8.55-.55 12.65h14.4l2.75-3.45s3.05 2.4 4.9 4.1c-.1.55-.55.8-1.3.8zM83.7 175c-.4.4-1.1.5-2.25.55a120.36 120.36 0 01-6.7 11.35c5 3.75 6.75 7.85 6.75 11.55 0 4.55-1.7 6.75-6.4 7a5 5 0 00-.6-2.6 5.43 5.43 0 00-2.45-.75v-.75h3.45a2.17 2.17 0 001.35-.3c.85-.45 1.3-1.5 1.3-3.35 0-3.4-1.2-7-4.6-10.65 1.2-3 3-8.6 4.25-12.4h-7v40.2a2.89 2.89 0 01-2.6 1.15h-.5v-44.4l3.75 1.6h6.2l2.15-2.05zm25.7 11.65c-.35.4-.9.55-2 .65a45.17 45.17 0 01-7.5 16.6 32.79 32.79 0 0012.4 8.45l-.15.5a4 4 0 00-3.45 2.65 31 31 0 01-10.7-9.25 36.85 36.85 0 01-14.2 9.35l-.5-.7a36.64 36.64 0 0013.2-10.85c-2.85-4.65-4.75-10.35-5.8-17.3h-2.6v2.45c0 9.55-1.2 19.9-11.55 26.7l-.7-.6c7.75-7 9.1-16 9.1-26.05V172.1l3.8 1.6h15.65l2.4-2.95s2.65 2.1 4.35 3.65c-.15.55-.65.8-1.35.8H88.05v10.1h15.55l2.15-2.05zm-17.7.15a37.14 37.14 0 006.4 14.9 44.45 44.45 0 005.75-14.9zm49.9 10.75a4.6 4.6 0 114.6-4.6 4.59 4.59 0 01-4.6 4.6zm49.25 1.05c-.4.45-.9.55-2 .6-3 6.45-8.4 12-16.9 15.1l-.45-.7a28.47 28.47 0 0013.7-14.7h-12.4l-.45-1.45h12.85l2.15-1.95zm25.85-2.85c-.4.5-.8.7-1.9.35a64.31 64.31 0 01-11.3 7.1 40.22 40.22 0 0014.2 7.5l-.1.55a3.73 3.73 0 00-2.75 2.8c-8.15-3.7-15.1-9.2-18.8-19.6V211c0 2.55-.65 4.35-5.45 4.75a2.75 2.75 0 00-1.15-2.2c-.8-.55-2.25-1-4.75-1.25v-.75s5.7.35 6.9.35c1 0 1.2-.25 1.2-1v-19h-10.2v1.2a4 4 0 01-2.75 1.05h-.5v-20l3.5 1.65h8.35c.45-1.75 1.15-4.3 1.45-6l5.6 1.2c-.2.7-.85 1.1-1.85 1.1-.9 1.05-2.3 2.55-3.35 3.75h13l1.85-2 4 3.1a4.1 4.1 0 01-2.15 1v14.8a4.3 4.3 0 01-2.75 1.1h-.5v-1.9H196v.75-.05a24.9 24.9 0 006.55 9.85 64.49 64.49 0 009.9-9.35zm-34.1-18.5v5.85h24v-5.85zm0 13.2h24v-5.9h-24zm60.72-7.7c2.15 7.5-.15 12-2.15 13.95-1.35 1.25-3.35 1.6-4 .55s-.05-2.05.9-2.85c2.6-1.75 4.9-6.3 4.4-11.6zM252 172.2c-.15.65-.5 1.15-1.8 1.35v16.55c-.05 10.2-2.25 19.7-12.25 25.65l-.65-.7c8-6.15 9.75-15.05 9.75-25V171.7zm3.6 23.75c.2-3.65-1.85-8.35-3.75-11.25l.65-.35c9.82 6.7 6.27 14.75 3.12 11.65zm10.2-23c-.15.7-.55 1.2-1.8 1.4v39.45c0 .5-1.4 1.3-2.55 1.3h-.65v-42.65zm4.75 23.25c-.05-3.95-2.85-8.75-5.45-11.7l.6-.35c11.62 6.4 8.3 15.15 4.87 12.05zm9.8-23.95c-.1.65-.5 1.2-1.8 1.4v40.85c0 .5-1.35 1.3-2.55 1.3h-.65v-44.1zm40.65 8.8a84.1 84.1 0 0010.2-1.15c1.4-.25 1.7-1.15 2.55-1.15 1.25 0 4.25 2.15 4.25 3.45 0 1-1.7 1.3-2.3 2.55a76.33 76.33 0 01-7.6 11.5c3 2.3 5.6 4.85 5.6 6.75a1.57 1.57 0 01-1.65 1.8c-1.4 0-2.3-2.15-6.1-6.05a61 61 0 01-22.45 15.5l-.71-1.15a69.74 69.74 0 0020.91-16.45 42.38 42.38 0 00-10.55-6.75 46.76 46.76 0 01-9.86 7.5l-.79-1.05c7.7-5.55 16.2-17 16.2-19.9 0-.9-1.3-1.65-3.05-2.4l.25-1a10.56 10.56 0 013 .2c2 .45 4.5 1.9 4.5 2.85s-.75 1.3-1.45 2.6c-.45.75-.95 1.55-1.45 2.3zm10.9.85c-1.75.15-6.4.9-8.15 1.3a15.43 15.43 0 01-2.75.6 3.72 3.72 0 01-1.85-.85 71.27 71.27 0 01-5 6 69 69 0 0111.4 5.5 43.24 43.24 0 006.95-11.75c.2-.65-.05-.8-.6-.8zm47.1-7.7a12 12 0 013.65-.75c2.2 0 4.9 1.65 4.9 2.45 0 1.15-.7 1.2-.9 3.1-.15 1.45-.25 3.7-.25 5.5 8.35-.9 8.4-1.65 9.25-1.65 1.8 0 4.45 1.25 4.45 2.55a1.21 1.21 0 01-1.25 1.25 107.77 107.77 0 00-12.45.15c-.05 4.65 0 12.6.1 16.3.1 3.05.4 4.2.4 5.45 0 2-1.5 4.25-2.95 4.25s-1.35-1.7-2.35-2.6a29.5 29.5 0 00-5.4-3l.4-.9c2 .5 4.55 1.1 5.9 1.3.65.1 1-.15 1-.7.2-2.1.1-10 0-15.9-4.6 6.9-14.1 14.65-22.75 18.5l-.75-1.05c8.3-5.15 17.55-13.7 21.65-21.15-3.65.4-7.2 1-9.75 1.5-2.15.4-3.1 1.1-4.55 1.1s-3.6-2.2-4.05-3.35a8.62 8.62 0 01-.36-2.8l1-.4c1.15 2 2.1 3 3.4 3 3.1-.05 10.85-1 16.15-1.5 0-2.65-.05-5.65-.1-7.4 0-.9-.35-1.2-1.25-1.55a12.14 12.14 0 00-3.2-.6zm46.58 10.65v-1a8.38 8.38 0 012.9-.35c1.75.15 5.3 2.05 5.3 3.55 0 1.05-.95 1.4-1.2 2.65a33.32 33.32 0 01-15.4 21.3l-.85-1.05c7.95-6.2 13-16.6 13-22.65 0-1.55-2.55-2.15-3.75-2.45zm9.8-6.4a9.07 9.07 0 013.3-.6c2 0 5.25 1.8 5.25 3s-1 1.1-1.15 2.65c-.25 2.3-.65 15.9-.65 19.65 0 .7.3.8.8.65a58.34 58.34 0 0018.85-13.5l1.05.85c-4.3 6.15-11.6 12-18.45 15.85-1.15.7-1.8 2.1-2.8 2.1s-3.1-2.4-3.1-3.35.55-1.2.7-3.2c.25-2.85.55-16.3.25-21.1-.05-1.25-1.4-1.7-3.95-1.95zM501.13 211c12.25-2.15 18.15-8.45 18.15-17.5 0-8.9-6.6-14.6-14.85-14.6-.6 0-1.2 0-1.8.1a9.33 9.33 0 012.15 5.3 25.06 25.06 0 01-1.55 8c-2.1 6-7.9 15.7-13 15.7-3.35 0-6.85-5.3-6.85-11.45a19.21 19.21 0 016.65-14 21.62 21.62 0 0114.6-5.35c10.3 0 18.25 6.75 18.25 17.1 0 8.3-5.2 16.8-21.55 17.85zm-.35-31.7a19 19 0 00-9.45 4.95 16.09 16.09 0 00-5.15 11.55c0 4.8 2.2 8.45 4.25 8.45 3.3 0 7.9-7.9 9.95-12.65a23.54 23.54 0 001.8-7.7 8.73 8.73 0 00-1.4-4.6zM70.47 256.7c-.25.55-.85.95-2 .9a71.1 71.1 0 01-4.8 10.65l2 .75c-.15.45-.6.8-1.5.95v29.75a3.74 3.74 0 01-2.65 1.1H61v-27.9a47 47 0 01-6.25 7.7l-.7-.5c4.35-6.05 8.7-15.55 11.25-25.05zm25.8 14.8s2.75 2.15 4.4 3.7a1.17 1.17 0 01-1.25.8H83a175.59 175.59 0 01-8.45 18.35c5.25-.45 11.9-1.1 18.85-1.85a68.21 68.21 0 00-6.05-9.2l.7-.4c14.55 10.3 12.1 19.85 8.15 16.55a26.87 26.87 0 00-2.25-5.95c-5.9 1.35-13.6 2.95-24.15 4.95a2 2 0 01-1.3 1l-2-4.55c1.6 0 3.85-.2 6.55-.45 1.8-4.8 4.3-12.9 5.7-18.45H66.87l-.35-1.5h27.3zM71 262.25l-.35-1.45h19.6l2.35-3.05s2.75 2.15 4.4 3.75q-.23.75-1.35.75zm48.65 34.1a56.06 56.06 0 002.95-13l4.5 1.2a1.72 1.72 0 01-1.8 1.05c-1.1 4-2.75 8.35-4.85 11.15zm12.8-39.45c-.2.55-.8.9-1.85.85a59.86 59.86 0 01-5.5 7.65c3.6 2.9 1.7 6.35-.7 4.7-.45-2.3-2.75-5.05-4.65-6.65l.5-.4a15.22 15.22 0 013.8 1.6c1.15-2.7 2.5-6.35 3.5-9.6zm0 14.6c8.7 5.2 5.7 11.35 2.8 8.8a13.62 13.62 0 00-.8-3.2c-1.05.25-2.2.5-3.5.75v21.95c0 .25-1.1 1-2.65 1h-.45v-22.3c-1.65.35-3.45.7-5.45 1.1a1.66 1.66 0 01-1.2 1l-1.35-3.75c1.15 0 2.85-.1 4.9-.2a177.32 177.32 0 008.15-15.85l4.6 2.2c-.3.55-.95.85-2 .7a129.08 129.08 0 01-9.3 12.9c2.35-.15 5-.35 7.8-.55a33.39 33.39 0 00-2.2-4.25zm.75 11.65c7.8 5.75 4.55 11.9 1.85 9.2 0-2.85-1.35-6.55-2.55-9zm1.1 17c9.45-5.1 11.1-13.9 10.6-23.1l5.2.4c-.1.8-.7 1.2-1.7 1.35-.25 8.95-2.45 17.45-13.65 22.05zm3.5-37.9h11.1v-6.75l4.9.5c-.1.65-.5 1.1-1.6 1.3v4.95h7.1l2.3-2.9s2.65 2.1 4.25 3.55c-.15.55-.6.8-1.3.8H151.8a79.15 79.15 0 01-5.65 8.55c3.55-.2 7.75-.45 12.15-.75a43.54 43.54 0 00-4.25-4.95l.6-.4c12.4 5.65 10.2 13.4 6.6 11a14.9 14.9 0 00-2.2-4.5c-4.5.85-10.45 1.85-18.1 3a1.64 1.64 0 01-1.2 1.05l-1.65-4.1c1.45 0 3.6-.1 6.2-.25a79.81 79.81 0 003.35-8.65h-9.5zm27.5 33.9c1 .35 1.15.75 1.15 1.4 0 1.3-1.3 2-6.35 2H157c-3 0-3.6-.85-3.6-3.05v-19.7l4.65.55c-.1.6-.55 1-1.45 1.2v17.1c0 .65.1.9 1.1.9h2.4c1.1 0 1.9 0 2.25-.05s.55-.15.75-.6c.25-.8.85-4.2 1.35-7.2h.65zm37.22-21.45c-1.85 1.15-4.1 2.6-6.7 4.2v17.15c0 2.7-.5 4.3-4.8 4.75a3.32 3.32 0 00-1-2.35c-.6-.6-1.75-.95-3.71-1.2v-.85s4.36.35 5.31.35 1.09-.25 1.09-1V280.8c-1.69 1-3.5 2.1-5.44 3.2a2 2 0 01-.9 1.4l-1.91-4.15c1.6-.5 4.6-1.7 8.25-3.2V268h-7.15l-.35-1.5h7.5v-11.4l5 .55c-.1.7-.6 1.2-1.85 1.35v9.5h1.65l2.05-2.75s2.4 2 3.8 3.45c-.15.55-.65.8-1.35.8h-6.15v8.8c2.05-.85 4.25-1.75 6.4-2.7zm26.65 1.3c-.4.5-.9.6-2.1.65a37.94 37.94 0 01-8.9 13.8A40.76 40.76 0 00232 297.5l-.1.5a4 4 0 00-3.3 2.7 36 36 0 01-12.7-8.25 46 46 0 01-17.85 8.4l-.35-.85a43.24 43.24 0 0016.45-9.5 37.18 37.18 0 01-7.2-14.4h-3l-.45-1.45h10.6v-8.9H203l-.4-1.45h11.5v-9l5 .55c-.1.7-.55 1.2-1.8 1.4v7.05h7.15l2.35-2.95s2.7 2 4.35 3.6a1.2 1.2 0 01-1.3.8h-12.53v8.9h5.8l2.35-2.1zm-21.15.1a30.93 30.93 0 008 12.45 34.89 34.89 0 007.2-12.45zm55.57-7.7c-.3.55-.75.75-1.9.55a58.49 58.49 0 01-3.69 5.65l2 .75c-.15.45-.65.8-1.5.9v23.5a3.46 3.46 0 01-2.5 1.05h-.6v-22.75a49.36 49.36 0 01-5.75 5.9l-.65-.6a63.45 63.45 0 009.85-17.3zm-.5-10.8c-.3.55-.75.75-1.85.55a49.5 49.5 0 01-11.24 11.5l-.5-.6a52.75 52.75 0 009-13.75zm-2 34.55c2.2-5.2 3.7-12.5 4.2-19.8l4.8.8c-.15.7-.65 1.15-1.75 1.25-1.2 7.05-3.25 13.75-6.45 18.25zm12.8-25v32.15c0 .45-1.35 1.25-2.55 1.25h-.6v-33.4H263l-.4-1.45h8.1v-9.95l4.9.55c-.15.7-.55 1.2-1.75 1.35v8.05h3.5l2.15-2.45s2.45 1.75 4 3.1a1.14 1.14 0 01-1.25.8zm2.5 4.75c8.8 10.7 4.85 19.4 2.55 16-.15-3.7-.8-10.8-3.35-15.6zm.2-14.85c7.55 2.85 4.85 7.85 2.25 5.8a12.91 12.91 0 00-2.8-5.45zm15.1 11.2s2.65 2.1 4.3 3.65a1.2 1.2 0 01-1.3.8h-4.2v23.4c0 2.55-.6 4.35-4.9 4.8a3 3 0 00-.9-2.3c-.65-.55-1.8-1-3.9-1.2v-.75s4.55.3 5.45.3 1.05-.25 1.05-.95v-23.3h-6.1l-.4-1.5h8.6zm-8.9-6.8l-.4-1.45h6.45l2.2-2.9s2.65 2 4.2 3.55c-.1.55-.55.8-1.25.8zm44.5 17.3c-1.05 2.6-3.35 8.25-3.91 10.15a13.19 13.19 0 00-.84 3.6c0 1.45 1 3.05 1 4.25a1.33 1.33 0 01-1.45 1.5c-.9 0-1.71-.8-2.35-1.85a22.59 22.59 0 01-2.91-11.2c0-5.95 1.61-10.2 2.41-13.2a30.63 30.63 0 001.25-5.8c.05-1.8-1.15-3.45-2.8-5.25l.8-.65a11.79 11.79 0 012.55 1.5c1 .85 3.25 3.15 3.25 5.25 0 1.15-.7 2.05-1.91 5.05-1.29 2.8-3.19 7.3-3.19 12.25 0 2.65.4 3.65.8 4.3s.64.7 1.1.05c1.1-1.75 3.9-8 5-10.55zm5 4.3a19.32 19.32 0 001.45 4.35c1.7 3 4.35 4.7 10.5 4.7 5.4 0 7.3-.9 8.5-.9s2.65.45 2.65 1.6c0 2-4.65 2.6-10.05 2.6-7.8 0-12-2.6-13.55-7.7a16 16 0 01-.65-4.45zm.55-15.65a25.63 25.63 0 0112-3.1c3.45 0 5.35.35 6.95 1.05 1.05.45 1.5 1.15 1.5 1.75s-.3 1.1-1.35 1.25a13.54 13.54 0 00-4.1.95 81.46 81.46 0 00-8.2 4.55l-.85-.9c2.25-1.6 5.8-4.2 6.85-5.1.6-.55.55-.9-2.75-.9a31.33 31.33 0 00-9.5 1.65zm64.1 5.25c0 2.3.2 8.9.5 12.85.05.45.1.9.15 1.3a29.67 29.67 0 017.2 2.3c3.1 1.4 7.35 4 7.35 6.6a1.32 1.32 0 01-1.45 1.45c-1.5 0-3.1-2.85-7.9-5.55a21 21 0 00-4.85-2c.05.65.1 1.35.1 2.2 0 4.2-3.15 7-9.25 7-5.2 0-8.85-2.25-8.85-5.8 0-4.65 5.8-6.75 11.8-6.75 1.15 0 2.25.05 3.25.15-.15-3.8-.6-10.7-.6-14.1s-.1-8.8-.2-9.8a1.75 1.75 0 00-1.35-1.8 15.55 15.55 0 00-3.5-.5l-.1-1.05a11.34 11.34 0 013.7-.75c2.6 0 5.7 1.65 5.7 2.85s-.6 1.55-1 3.05a39.09 39.09 0 00-.65 6c.55.05 1.1.05 1.45.05a27.56 27.56 0 006.45-1c1.55-.5 2.45-1.1 3.15-1.1 1.95 0 2.9.65 2.9 1.75 0 .6-.55 1.2-1.85 1.6a35.42 35.42 0 01-8.8 1.35 9.13 9.13 0 01-3.35-.95zM395.09 289a30.23 30.23 0 00-4.85-.4c-4.8 0-8.3 1.8-8.3 4.2 0 1.75 1.85 3.15 5.6 3.15 6.15-.05 7.46-2.25 7.55-6.95zm43.61-31.9l.65-.65a7.61 7.61 0 012.4 1.1c1.85 1.25 3.3 3.5 3.3 4.6a11.68 11.68 0 01-.65 3 39.89 39.89 0 00-1.15 5c-.2 1.05.2 1.1.75.1 2.35-4.15 5.85-7.15 9.1-7.15 6 0 8.75 6.45 8.75 15.35 0 10.35-4.6 18.7-18 22.2l-.55-1.15c12.1-4.85 15.05-12.45 15.05-21.4 0-8.15-2.25-13-5.75-13-2.35 0-5.5 2.25-7.25 5.6a20.11 20.11 0 00-2.6 9.55c0 2 .3 3.45.3 5.1a1.43 1.43 0 01-1.4 1.6 1.77 1.77 0 01-1.75-1.25 14 14 0 01-.75-4.65c0-5.4 2.4-15.05 2.4-17.75s-.75-3.8-2.85-6.2zM112.73 379.05s3 2.2 4.75 3.9c-.15.55-.6.8-1.3.8H72l-.39-1.5h21V367.7h-15l-.4-1.4h15.4v-12.7H81.33a44.37 44.37 0 01-9.41 11.6l-.64-.5c4.34-5.4 8.7-13.9 11.1-22.9l5.25 1.65c-.2.6-.85 1.05-1.95 1a60.09 60.09 0 01-3.5 7.7h10.4v-12l5.2.6c-.15.7-.55 1.2-1.75 1.4v10h11.3l2.55-3.1a55.66 55.66 0 014.65 3.75c-.15.55-.65.8-1.35.8H96v12.7h9.45l2.6-3.15s2.85 2.2 4.65 3.8c-.1.5-.6.75-1.3.75H96v14.55h14.1zm44.74-17.45a41 41 0 007.2-1.55 20 20 0 013.15-1.1c1.05 0 2.35.5 2.35 1.55 0 .75-.55 1.25-1.45 1.6a57.11 57.11 0 01-11.15 2.2c.15 3.25.45 6.05.7 8.4a26.67 26.67 0 0111.9 5.3 3.75 3.75 0 011.7 2.75 1.29 1.29 0 01-1.35 1.45c-.9 0-1.45-.5-2.35-1.35a25.16 25.16 0 00-9.7-5.45c.05.7.1 1.35.1 2 0 4.25-3.5 6.7-9 6.7-4.9 0-8.5-2.25-8.5-5.8 0-3.95 5.15-6.15 11.4-6.15q1.65 0 3.15.15c-.1-2-.25-4.7-.35-7.75-2.05.2-4.1.3-6.1.3-7 0-10.45-3.25-5.1-8.55l1 .6c-3.2 4.15-1.1 5.35 3.9 5.35a51.3 51.3 0 006.15-.35v-7.1c-2.5.25-5.1.45-7.5.45-4.65 0-7.6-1.2-10.15-5.2l.85-.7c2.45 2 4.15 3.25 8.85 3.25a62.87 62.87 0 008-.6c.1-2.55.15-4.5.15-4.95 0-1-.2-1.25-1-1.55a19.55 19.55 0 00-3.65-.55l-.15-1.05a8.21 8.21 0 013.5-.8c2.15 0 5.25 1.4 5.25 2.7 0 1.05-.65 1.45-.9 2.75-.15.85-.3 1.85-.45 3.05a59.43 59.43 0 007.6-1.75 14.22 14.22 0 012.9-1c1.2 0 2.6.5 2.6 1.55 0 .85-.7 1.25-1.65 1.6a72.89 72.89 0 01-11.75 2.5c-.1 1.65-.2 3.65-.2 6zm-1.85 13.1a27 27 0 00-4.55-.4c-4.9 0-8 1.8-8 3.85 0 1.75 1.8 3.2 5.15 3.2 6 0 7.35-1.9 7.4-6.65zm85.38-.5c-2.2 3.1-6 6.2-10.25 6.2-3.55 0-6-2.15-6-6.55 0-5.55 2.1-11.35 2.1-16.75 0-3.15-.9-4.8-3.4-4.8-4.25 0-10.1 4.5-15.1 9.95a102.92 102.92 0 00.5 14.75c.1 1.25.25 2.3.25 3.4 0 1.7-.7 4.05-2.1 4.05-.9 0-1.4-.55-1.65-1.7a16.23 16.23 0 00-.85-3.15 43.36 43.36 0 00-3.7-6.5l-3.25 4.55c-.6.85-1.05 1.5-1.8 1.5s-1.3-.75-1.3-1.75a3.2 3.2 0 011.05-2.5 124.39 124.39 0 0010.95-14.2c.15-1.45.25-2.8.45-4.15-1.7.9-3.45 1.9-4.7 2.6-1 .65-1.55 1.8-2.4 1.8-1.45 0-3.6-1.9-4.1-3.55a6.58 6.58 0 01-.2-2.2l.9-.25c.75 1.5 1.5 2.35 2.4 2.35 1.25 0 6.4-2.45 8.45-3.55.4-3.2.75-5.8.8-7.25 0-1.15-.25-1.35-1.15-1.7a21.5 21.5 0 00-2.65-.7l-.05-1a9.22 9.22 0 013.05-.55c2.05 0 4.6 2.2 4.6 3.65 0 1.05-.6 1.5-1.15 3.5-.25.75-.6 2.05-1 3.7.8.55 1.8 1.5 1.8 2s-.55 1-1.15 1.8a19.15 19.15 0 00-1.6 2.1c4.75-4.3 10.65-8.85 15.75-8.85 3.45 0 5.6 2.1 5.6 6.75 0 3.9-2.15 11.05-2.15 16.15 0 2.7 1.15 3.8 3.55 3.8 3.3 0 5.7-1.2 8.6-3.85zm-34.85-8.9c-1.35 2.1-3 4.4-4.55 6.65 1.4 1.95 3.2 4.35 3.9 5.2.45.5.7.45.7-.35.08-2.4-.2-7-.02-11.5zm73.93-3.7a41 41 0 007.2-1.55 20 20 0 013.15-1.1c1.05 0 2.35.5 2.35 1.55 0 .75-.55 1.25-1.45 1.6a57.11 57.11 0 01-11.15 2.2c.15 3.25.45 6.05.7 8.4a26.67 26.67 0 0111.9 5.3 3.75 3.75 0 011.7 2.75 1.29 1.29 0 01-1.35 1.45c-.9 0-1.45-.5-2.35-1.35a25.16 25.16 0 00-9.7-5.45c.05.7.1 1.35.1 2 0 4.25-3.5 6.7-9.05 6.7-4.9 0-8.5-2.25-8.5-5.8 0-3.95 5.15-6.15 11.4-6.15q1.65 0 3.15.15c-.1-2-.25-4.7-.35-7.75-2.05.2-4.1.3-6.1.3-7 0-10.45-3.25-5.1-8.55l1.05.6c-3.2 4.15-1.1 5.35 3.9 5.35a51.3 51.3 0 006.15-.35v-7.1c-2.5.25-5.1.45-7.5.45-4.65 0-7.6-1.2-10.15-5.2l.85-.7c2.45 2 4.15 3.25 8.85 3.25a62.87 62.87 0 008-.6c.1-2.55.15-4.5.15-4.95 0-1-.2-1.25-1-1.55a19.55 19.55 0 00-3.65-.55l-.15-1.05a8.21 8.21 0 013.5-.8c2.15 0 5.25 1.4 5.25 2.7 0 1.05-.65 1.45-.9 2.75-.15.85-.3 1.85-.45 3.05a59.43 59.43 0 007.6-1.75 14.22 14.22 0 012.9-1c1.2 0 2.6.5 2.6 1.55 0 .85-.7 1.25-1.65 1.6a72.89 72.89 0 01-11.75 2.5c-.1 1.65-.2 3.65-.2 6zm-1.85 13.1a27 27 0 00-4.55-.4c-4.9 0-8.05 1.8-8.05 3.85 0 1.75 1.8 3.2 5.15 3.2 6.05 0 7.4-1.9 7.45-6.65zm40.6-28.9v-1.05a13.86 13.86 0 013.25-.35c2.35.1 5.8 2.65 5.8 4.05 0 1.05-.95 1.4-1.4 3.75a131.89 131.89 0 00-1.65 19.6c0 6.35 1.85 8.75 7.35 8.75 8.6 0 15.6-5.4 18.95-10.7l1.1.75c-3.7 7.85-11.2 13.3-20.05 13.3-6.7 0-10.15-3.25-10.15-11.8 0-7.75 1.2-19.5 1.2-22.4 0-1.8-.3-2.35-1.15-2.85a9.93 9.93 0 00-3.25-1.05zm62.77-2.55a10.69 10.69 0 013.15-.35c1.8.1 4.95 1.3 5 2.45 0 .85-.7 2.1-1.3 4-.25.9-.55 2.15-.95 3.55a46 46 0 006.3-2.65 4.63 4.63 0 011.7-.7c.85 0 2.15.5 2.15 1.4s-.55 1.45-2.4 2.25a70.74 70.74 0 01-8.65 2.8c-.7 2.45-1.55 5.15-2.45 7.55-2.35 6.75-5.55 14.8-7.7 18.3-.7 1.15-1.2 1.6-2.2 1.6s-1.46-.9-1.46-2.05.46-1.55 1.21-2.9a68.41 68.41 0 007.8-15.8c.65-1.85 1.3-3.95 1.9-6.05a31.6 31.6 0 01-5.75.6c-2.91 0-5.3-1.1-6.95-4.9l.85-.65c2.15 1.9 3.65 2.85 6.1 2.85a28.54 28.54 0 006.5-.8 49.14 49.14 0 001.25-6.5 1.65 1.65 0 00-1.05-2 22.51 22.51 0 00-3.15-.85zm8.8 27.95a14.35 14.35 0 001.7 4.75c1.75 2.7 4.8 3.85 9.1 3.85 5 0 6.6-.95 8.05-.95 1.15 0 2.45.55 2.45 1.7 0 1-1.3 1.55-2.75 1.85a31 31 0 01-6.7.65c-5.8 0-10.4-1.75-11.95-6.15a14.24 14.24 0 01-1.1-5.55zm2.85-11.7a25.52 25.52 0 019.05-1.8 16.62 16.62 0 016.75 1.2c1.15.6 1.8 1.35 1.8 2.2s-.85 1.15-2.05 1.25a9.37 9.37 0 00-2.95.8 60.79 60.79 0 00-5.6 2.6l-.65-.9a58.3 58.3 0 005.25-3.65c.4-.3.25-.55-.2-.7a13.58 13.58 0 00-4.4-.6 30.66 30.66 0 00-6.7.8zm41.14 19.5a7 7 0 117.06 7.05 7.07 7.07 0 01-7.06-7.05zm1.71 0a5.33 5.33 0 1010.65 0 5.33 5.33 0 00-10.65 0z" fill="#fff" data-name="レイヤー 1"/></g></svg>