<svg xmlns="http://www.w3.org/2000/svg" viewBox="0 0 209.99 106.02"><g data-name="レイヤー 2"><path d="M68.84 31.65a58.47 58.47 0 00-5.15-9.76 43.9 43.9 0 00-7.3-8.6 35.67 35.67 0 00-9.22-6.07 32.61 32.61 0 00-11.73-2.64c-8.14-.31-18.07 2.7-19.31 15.09a12.53 12.53 0 002.54 8.52 24.39 24.39 0 006.76 6.38A63.38 63.38 0 0035 39.64l11 4.69q5.61 2.39 11 5.15a44.19 44.19 0 019.61 6.6A30.3 30.3 0 0173.37 65a26.89 26.89 0 012.53 12.13 28.48 28.48 0 01-2.76 13 25.74 25.74 0 01-7.45 9 31.92 31.92 0 01-10.91 5.22A50.4 50.4 0 0141.49 106a46.6 46.6 0 01-8-.72q-4.16-.7-8-1.58l-7-1.59a23.92 23.92 0 00-5-.72 9.69 9.69 0 00-3.23.54c-1 .36-2.1.74-3.22 1.15Q5.69 94.37 3.84 86T0 69l2-1.07a111.34 111.34 0 006.68 11.15 68.16 68.16 0 008.84 10.63 48.46 48.46 0 0010.83 8A26.46 26.46 0 0041.18 101a36.35 36.35 0 008.6-1 21.82 21.82 0 007.3-3.14 15.52 15.52 0 005-5.6 18 18 0 001.84-8.52 17.1 17.1 0 00-4.46-12 42.92 42.92 0 00-11.06-8.53A128.6 128.6 0 0034 55.54a106.79 106.79 0 01-14.36-6.91A42 42 0 018.6 39.58q-4.45-5.2-4.45-13.19a25.13 25.13 0 018.53-19.26 27.85 27.85 0 019.06-5.29A32.3 32.3 0 0132.73 0 61.83 61.83 0 0143 .77q4.53.77 8.83 1.69 4.45.92 8.76 1.76a47.29 47.29 0 009.22.85q0 6.91.23 13.45t1 13.13zM200.9 10.31s-14.68-1.37-38.22-1.37-38.21 1.37-38.21 1.37V1.87s14.68 1.37 38.21 1.37 38.22-1.37 38.22-1.37zm-85.52 23.03c5.45.28 15.82.62 19.67.56 3.07 0 6.12 0 9.14-.16s6.07-.25 9.15-.46v1.85a37.27 37.27 0 00-8.15 1.53 11.79 11.79 0 00-5.07 3.08 11.34 11.34 0 00-2.61 5.14 33.45 33.45 0 00-.77 7.76v19.27a28.64 28.64 0 002.38 12.21c4.17 8.9 14.39 14.22 27.74 14.22a30.6 30.6 0 0022.77-10.07 25.53 25.53 0 006.45-17.59v-12.2a83.74 83.74 0 00-.54-10.37 17.75 17.75 0 00-2.15-6.92 10.29 10.29 0 00-4.53-4.07 25.88 25.88 0 00-7.53-2v-1.84q4.75.31 9.45.46t9.45.16c2.66 0 7.19 0 9.76-.16v1.61a9.71 9.71 0 00-4.54 2.76 13.6 13.6 0 00-2.84 5.77 50.67 50.67 0 00-1 11.22v15.12c0 16.27-8.45 24.14-12.29 27-5.61 4.24-13.22 8.76-26.15 8.76-19.07 0-32.87-9.42-36.88-18.9a36.65 36.65 0 01-3.38-14.6V47.8a21 21 0 00-.84-6.69 8.32 8.32 0 00-2.54-3.76 10.5 10.5 0 00-4.15-2z" fill="#fff" data-name="レイヤー 1"/></g></svg>