<svg xmlns="http://www.w3.org/2000/svg" viewBox="0 0 358.9 149.68"><g data-name="レイヤー 2"><path d="M72.32 130.09a3.1 3.1 0 00-3.07-2.27c-3.33 0-5 3.3-5.16 9.76a6.13 6.13 0 015.25-3.26c3.49 0 6 2.85 6 7.36 0 5-2.82 8-6.69 8-4.13 0-7.11-3.43-7.11-11 0-9.15 3-13 7.78-13a5.77 5.77 0 015.53 3.32zm-3.68 17.44c2.46 0 4-2 4-5.79 0-3.33-1.44-5.25-3.81-5.25-1.76 0-3.36 1.09-4.67 3.49 0 5.25 1.84 7.55 4.48 7.55zm28.75-9.98c0 8.48-2.5 12.13-7 12.13s-7-3.59-7-12.07 2.59-11.93 7.07-11.93 6.93 3.42 6.93 11.87zm-11.33 0c0 7.17 1.41 9.89 4.29 9.89s4.32-2.72 4.32-9.89-1.38-9.69-4.26-9.69-4.35 2.52-4.35 9.72zm30.26.51c-.48-2.37-1.82-3.49-3.64-3.49-2.72 0-4.42 2.31-4.42 6.5s1.7 6.56 4.42 6.56c2.14 0 3.36-1.18 3.84-3.58l2.46.76a6.13 6.13 0 01-6.34 4.84c-4.32 0-7-3.2-7-8.52s2.82-8.6 7-8.6a6 6 0 016.24 4.86zm13.68-2.17c1.5-2.12 3.2-3.33 5.34-3.33a3.89 3.89 0 014.1 3.29c1.44-2 3.29-3.29 5.44-3.29 2.59 0 4.38 1.69 4.38 4.67v12h-2.66v-11.1c0-2.31-1-3.33-2.69-3.33s-3.23 1.28-4.35 3.23v11.2H137v-11.1c0-2.37-1-3.33-2.56-3.33s-3.2 1.18-4.42 3.23v11.2h-2.56v-16.32H130zm31.86-6.21l6.88 6.85 6.88-6.85 1.15 1.12-6.91 6.88 6.91 6.88-1.15 1.12-6.88-6.85-6.88 6.88-1.15-1.12 6.91-6.91-6.91-6.88zm33.95 17.44h4.35v2.14h-11.55v-2.14h4.64v-18.5a21.74 21.74 0 01-4.61 2.31l-.44-2.34a21.9 21.9 0 005.44-2.75h2.17zm12.77-16.77a6.67 6.67 0 016.69-4.67c3.81 0 6.53 2.34 6.53 5.7a5.17 5.17 0 01-4.42 5.34v.28a5.75 5.75 0 014.93 5.88c0 4.1-2.85 6.79-7 6.79-3.58 0-5.92-1.41-7.13-4.64l2.56-1c.86 2.46 2.27 3.42 4.57 3.42 2.56 0 4.26-1.76 4.26-4.57 0-3-1.7-4.77-5.25-4.77h-1.79v-2.27h1.6c3.3 0 5-1.64 5-4.29a3.55 3.55 0 00-3.84-3.74 4.09 4.09 0 00-4.1 3.35zm35.98 7.2c0 8.48-2.5 12.13-7 12.13s-7-3.59-7-12.07 2.59-11.93 7.07-11.93 6.93 3.42 6.93 11.87zm-11.33 0c0 7.17 1.41 9.89 4.29 9.89s4.32-2.72 4.32-9.89-1.38-9.69-4.26-9.69-4.35 2.52-4.35 9.72zm30.26.51c-.48-2.37-1.82-3.49-3.64-3.49-2.72 0-4.42 2.31-4.42 6.5s1.7 6.56 4.42 6.56c2.14 0 3.36-1.18 3.84-3.58l2.46.76a6.13 6.13 0 01-6.34 4.84c-4.31 0-7-3.2-7-8.52s2.82-8.6 7-8.6a6 6 0 016.24 4.86zm13.64-2.17c1.5-2.12 3.2-3.33 5.34-3.33a3.89 3.89 0 014.1 3.29c1.44-2 3.29-3.29 5.44-3.29 2.59 0 4.38 1.69 4.38 4.67v12h-2.62v-11.1c0-2.31-1-3.33-2.69-3.33s-3.23 1.28-4.35 3.23v11.2h-2.56v-11.1c0-2.37-1-3.33-2.56-3.33s-3.2 1.18-4.42 3.23v11.2h-2.56v-16.32h2.5zM12 .68c6.08 0 9.4 2.84 9.4 7 0 3.12-2 5.88-6.84 6.92 5.84.76 8.32 3.64 8.32 7.28 0 4-3.24 7.92-11.16 7.92H0v-1.4l4.16-.4c.12-3.84.12-7.72.12-11.64v-2.2c0-3.84 0-7.76-.12-11.6L0 2.08V.68zM7.72 2.32c-.12 3.76-.12 7.6-.12 11.6h2.52c5.44 0 8-2 8-6.08C18.08 4 15.84 2.32 11 2.32zM11 28.2c5.56 0 8.4-2.24 8.4-6.28s-2.72-6.4-9-6.4H7.6c0 4.68 0 8.76.12 12.68zm51.49.2v1.44H50.93V28.4l4.4-.44-2.64-8H42.42l-2.6 7.88 4.18.56v1.44h-9.58V28.4l3.6-.48L47.25.4h2.24l9.4 27.6zm-10.36-10l-4.6-13.88L43 18.36zm33.8-15.96c-.12 3.8-.12 7.72-.12 11.72v2.2c0 3.84 0 7.76.12 11.6l4.6.44v1.44H77.77V28.4l4.64-.4c.08-3.8.08-7.68.08-11.6v-2.2c0-3.92 0-7.88-.08-11.72h-7.32L74 8.28h-2l.32-7.6H96l.4 7.6h-2l-1.15-5.84zm49.64.08c-.08 3.8-.08 7.68-.08 11.64v2.2c0 3.84 0 7.76.08 11.6l4.2.44v1.44h-11.92V28.4L132 28c.08-3.76.08-7.68.08-12.36h-15c0 4.64 0 8.56.12 12.32l4.16.44v1.44h-11.82V28.4l4.15-.44c.12-3.8.12-7.68.12-11.6v-2.2c0-3.88 0-7.8-.12-11.64l-4.15-.44V.68h11.87v1.4l-4.16.44c-.12 3.72-.12 7.56-.12 11.44h15c0-3.84 0-7.68-.08-11.44l-4.16-.44V.68h11.92v1.4zM187 2.44c-.12 3.8-.12 7.72-.12 11.72v2.2c0 3.84 0 7.76.12 11.6l4.6.44v1.44h-12.79V28.4l4.64-.44c.08-3.8.08-7.68.08-11.6v-2.2c0-3.92 0-7.88-.08-11.72h-7.32L175 8.28h-2l.32-7.6H197l.4 7.6h-2l-1.12-5.84zm49.47 12.8c0 9.48-6.28 15.23-13.08 15.23S210.2 25 210.2 15.24C210.2 5.8 216.55 0 223.39 0s13.08 5.48 13.08 15.24zm-13.08 13.48c6.24 0 9.2-6.56 9.2-13.48s-3-13.44-9.2-13.44-9.28 6.56-9.28 13.44 2.96 13.48 9.28 13.48zm64.55-26.64l-3.84.52-7.35 27.56h-1.56l-7.64-23.64-7.32 23.64h-1.52l-7.8-27.68-3.76-.4V.68h11.36v1.4l-4.12.48 5.76 21.68 7-21.68-4.4-.48V.68H274v1.4l-4.44.52 6.84 21.8 5.75-21.76-4.15-.56V.68h9.91zm35.69 20.2l-.28 7.56h-22.19V28.4l4.15-.44c.12-3.8.12-7.68.12-11.6v-2.2c0-3.88 0-7.8-.12-11.64l-4.15-.44V.68h21.39l.28 7.52h-2l-1.08-5.76h-10.88c-.12 3.76-.12 7.68-.12 11.76h7l.6-4.32H318V20h-1.64l-.56-4.2h-7c0 4.44 0 8.36.12 12.24h11.72l1-5.76zm35.27-.4l-.36 8h-21.32V28.4l4.16-.44c.12-3.84.12-7.72.12-11.56v-2.24c0-4 0-7.84-.12-11.64l-4.16-.44V.68h11.88v1.4l-4.16.44c-.12 3.84-.12 7.76-.12 11.84v2.8c0 3.24 0 7.08.12 10.88h10.56l1.28-6.16zM106.82 74.7a10.11 10.11 0 001-3.61 12.62 12.62 0 012.53 1c.45.26.35.61.06.9a5.5 5.5 0 00-1.12 1.82 33 33 0 01-7.23 10.53.69.69 0 01-1 .13 4.37 4.37 0 00-1.76-.84 27.29 27.29 0 007.52-9.93zm10.43-3.29c.29-.16.41-.2.67.06a42.35 42.35 0 018 11.49c.16.29.16.48-.13.67a12.19 12.19 0 01-1.5 1c-.29.16-.39.1-.52-.19a40.63 40.63 0 00-7.93-12.06c.54-.38 1.09-.78 1.41-.97zm3.58-4a.24.24 0 01.35 0 15.43 15.43 0 013.62 3.87.24.24 0 01-.06.35l-.93.77a.26.26 0 01-.42-.07 13.86 13.86 0 00-3.71-4.09zm2.69-2.12c.13-.09.22-.12.35 0a18.28 18.28 0 013.65 3.71c.09.16.06.25-.1.38l-.86.77c-.13.13-.26.13-.39-.07a15.34 15.34 0 00-3.67-4zm28.53 3.08a3.34 3.34 0 001.82-.26.54.54 0 01.64.1 8.59 8.59 0 011.32 1.31c.19.25.12.48-.16.73a4.24 4.24 0 00-.93 1.19 57.76 57.76 0 01-4.74 6.88 65.93 65.93 0 019.19 8c.28.25.28.35 0 .67a12.48 12.48 0 01-1.15 1.15c-.23.2-.36.2-.58-.06a59.09 59.09 0 00-8.8-8.08 49.08 49.08 0 01-11.42 8.93c-.36.19-.55.22-.8-.07a5.73 5.73 0 00-1.67-1.15A41.41 41.41 0 00146.55 79a40.55 40.55 0 006.08-8.57H143c-1.8 0-3.17.09-4.61.19-.29 0-.32-.1-.39-.35a13.15 13.15 0 01-.19-2.05c1.57.13 3 .13 5 .13zm34.19.7c1.08 0 1.44-.13 1.69-.35a.65.65 0 01.87-.07 7.72 7.72 0 011.37 1.28.55.55 0 01-.13.87 2.37 2.37 0 00-.76 1 46.39 46.39 0 01-5.09 8.48 34.34 34.34 0 013.81 3.48c.19.19.09.35 0 .57a4.39 4.39 0 01-1.06 1.09c-.26.19-.35.16-.51 0a33.06 33.06 0 00-3.59-3.52 38.83 38.83 0 01-11.1 8.73c-.35.2-.57.26-.86 0a5.69 5.69 0 00-1.8-1 38 38 0 0012-9 34.78 34.78 0 00-5-3.27 9.25 9.25 0 011.13-1.36.35.35 0 01.51-.09 41.35 41.35 0 014.77 3 35.68 35.68 0 004.67-8l-9.44.19a35.85 35.85 0 01-7 7.42c-.32.26-.54.32-.83.1a6.13 6.13 0 00-1.54-.9 33 33 0 009.15-10.33 10.78 10.78 0 001.28-3.17 8.48 8.48 0 012.27 1.09c.39.25.29.64-.06.89a4 4 0 00-.93 1.09c-.35.61-.64 1.09-1.15 1.86zm28.68 5.86a33.12 33.12 0 01-5.09 5.85 46.64 46.64 0 01-7.07 5c-.45.26-.67.26-.93 0a4.56 4.56 0 00-1.57-1 36.28 36.28 0 008.1-5.31 25.68 25.68 0 005-5.6h-6.88c-1.66 0-3.48.07-5.21.19-.26 0-.35-.09-.39-.41s-.12-1.28-.16-1.92c2 .16 3.88.16 5.73.16h8.1l-.16-3.07A16 16 0 00214 65a13.92 13.92 0 012.65.25c.36.1.36.42.2.74a8.7 8.7 0 00-.2 2.81l.13 3H220c2.08 0 3.64 0 5.79-.13.29 0 .42.1.42.32v1.57c0 .26-.13.35-.42.35-2.15-.06-3.81-.13-5.76-.13h-3.13l.61 12.22c.1 2-.42 2.88-1.41 3.4a10.84 10.84 0 01-3.9.83c-.42 0-.55-.1-.64-.39a4.28 4.28 0 00-1.35-1.84 13.7 13.7 0 004.1-.38c.8-.22 1.06-.54 1-2.18l-.31-8.08zm25.92-5.09c.35.13.38.41.22.8a7.54 7.54 0 00-.32 2.49 20.73 20.73 0 01-2 8.77 16.73 16.73 0 01-4.58 5.7c-.35.32-.64.35-.89.12a4.87 4.87 0 00-1.7-.8 15.07 15.07 0 005.15-6 18.67 18.67 0 001.73-8.28 13 13 0 00-.29-3.33 12 12 0 012.68.53zm6.65 14.53a40.58 40.58 0 005.44-3.4 29.81 29.81 0 005.67-5.34 5.36 5.36 0 00.54 2c.13.28.16.47-.19.83a43.78 43.78 0 01-5.06 4.54 59.91 59.91 0 01-5.53 3.58 4.73 4.73 0 00-1.06.7.61.61 0 01-.86 0 6.72 6.72 0 01-1.25-1.28.88.88 0 01-.06-.8 17.53 17.53 0 00.12-3.17V73a28.17 28.17 0 00-.32-5.6 23 23 0 012.66.42c.48.16.38.48.19.93a15.31 15.31 0 00-.29 4.22z" fill="#fff" data-name="レイヤー 1"/></g></svg>