<svg xmlns="http://www.w3.org/2000/svg" viewBox="0 0 213.66 23.82"><defs><style>.cls-1{fill:#fff;}</style></defs><g id="レイヤー_2" data-name="レイヤー 2"><g id="レイヤー_1-2" data-name="レイヤー 1"><path class="cls-1" d="M6,7.28c-.08.26-.34.42-.78.49V23.24a1.78,1.78,0,0,1-1.35.58H3.59V9.28a24.46,24.46,0,0,1-3.23,4L0,13.05A42.67,42.67,0,0,0,5.8,0L8.48.86c-.11.31-.42.52-1,.49A40.43,40.43,0,0,1,5,6.89Zm10,6.27a10.58,10.58,0,0,1-2,5.56,21.8,21.8,0,0,0,10.27,2.76v.28a2,2,0,0,0-1.51,1.67c-4.11-.55-7.31-1.72-9.67-3.7a16.25,16.25,0,0,1-7.23,3.7l-.21-.45a13.86,13.86,0,0,0,6.55-4.08,12.87,12.87,0,0,1-2.65-4l.39-.24A10.79,10.79,0,0,0,13,18.36a10.63,10.63,0,0,0,1.48-4.81H9.91v.91c0,.15-.73.54-1.41.54H8.27V6.5L10,7.31h4.47V4.45h-7l-.2-.78h7.2V.05l2.57.29c0,.36-.26.62-.91.73v2.6h4.37l1.25-1.56S23.22,3.22,24.1,4c-.07.29-.31.42-.67.42H16.17V7.31h4.24l1-1,2.11,1.58a2.09,2.09,0,0,1-1.15.52V14.3c0,.18-.83.6-1.4.6h-.26V13.55Zm-1.59-.76c0-.31,0-.65,0-1V8H9.91v4.76ZM16.17,8v3.75c0,.34,0,.67,0,1h4.52V8Z"/><path class="cls-1" d="M36.9,8.29c.42,1.07.89,1.64,1.48,1.64,1.15,0,4.55-2.1,7.34-2.1s4.55,2.13,4.55,5.59c0,5.74-4.48,8.94-11.5,10l-.2-.6c6.31-1.53,9.82-4.6,9.82-9.75,0-2.78-1.22-4.31-2.83-4.31s-4.24,1.61-5.23,2.26c-.57.39-1,.91-1.69.91a2.87,2.87,0,0,1-2.1-1.72,3.23,3.23,0,0,1-.11-1.79Zm2-7.07.31-.41a8.28,8.28,0,0,0,4.92,1.5c.75,0,1.66-.2,2.08-.2.93,0,2,.41,2,1.11,0,.34-.31.52-.88.55A8.64,8.64,0,0,0,45.51,4c-1.3.36-3.46,1.25-4.73,1.77l-.24-.5c1.09-.59,2.29-1.24,3-1.74A6.83,6.83,0,0,1,38.93,1.22Z"/><path class="cls-1" d="M65,1.9a6.26,6.26,0,0,1,1.42.83,4.88,4.88,0,0,1,1.67,2.81c0,.65-.52,1.14-1.17,2.81a22.32,22.32,0,0,0-1.61,7,5.2,5.2,0,0,0,.54,2.7c.16.37.39.39.6.06.52-.84,2-4.32,2.58-5.67l.59.28c-.49,1.43-1.58,4.37-1.92,5.44A7.47,7.47,0,0,0,67.31,20c0,.84.28,1.59.28,2.16a.67.67,0,0,1-.7.76c-.44,0-.83-.34-1.25-1a12.58,12.58,0,0,1-1.48-6.24,28.49,28.49,0,0,1,1.22-7.54,14.2,14.2,0,0,0,.71-3.07,5.16,5.16,0,0,0-1.51-2.83Zm8.34,1.43a4.88,4.88,0,0,0,3,1,18.4,18.4,0,0,0,4.92-.91,8.07,8.07,0,0,1,1.43-.55c.67,0,1.24.21,1.24.75,0,.32-.15.52-.46.68a23.71,23.71,0,0,1-4.19,1,3.57,3.57,0,0,1,.81.39c.28.21.33.44.2.91a12.09,12.09,0,0,0-.33,3,23.81,23.81,0,0,0,2.65-.86,9.66,9.66,0,0,1,1-.49c.41,0,1.32.21,1.32.81,0,.33-.23.65-.88.88A22.32,22.32,0,0,1,80,11.13c0,1.74.23,3.95.36,5.64a12.26,12.26,0,0,1,4.34,2.29,2.15,2.15,0,0,1,.94,1.64c0,.44-.21.78-.63.78s-.7-.32-1.06-.68a12.25,12.25,0,0,0-3.51-2.52c0,.26,0,.52,0,.7,0,2.24-1.69,3.33-4.37,3.33-2.33,0-4.08-.94-4.08-2.86s2.27-3.12,5.07-3.12a13,13,0,0,1,1.82.13c0-1.56-.18-3.59-.2-5.12a18.5,18.5,0,0,1-2.34.15,4.53,4.53,0,0,1-4.19-2.31l.39-.39a5.39,5.39,0,0,0,3.72,1.38,14.14,14.14,0,0,0,2.39-.24c0-1.19,0-2.55,0-3.2a1.38,1.38,0,0,0-.93-1.17c-.37,0-.7.06-1,.06A4,4,0,0,1,73,3.69Zm5.57,14.4a9,9,0,0,0-2.34-.31c-1.62,0-3.67.55-3.67,1.92,0,1,1,1.54,2.83,1.54,2.24,0,3.18-.94,3.18-2.71Z"/><path class="cls-1" d="M109.06,5.93a5.73,5.73,0,0,1,1.85.49A3.11,3.11,0,0,1,112.5,8.5c0,.52-.63.73-1.67,1.09a43,43,0,0,0-6.34,3c-2.08,1.19-4.94,3.38-4.94,5.8,0,1.53,1.45,2.75,5.51,2.75a37,37,0,0,0,6.4-.73c.91,0,1.71.24,1.71,1,0,.34-.42.65-.94.8a27.1,27.1,0,0,1-6.63.63c-4.55,0-7.28-1.48-7.28-4.19,0-2.94,3-5.46,4.74-6.68a4.53,4.53,0,0,1-1.54-2.21,30.47,30.47,0,0,1-1.14-5.43.92.92,0,0,0-.73-.86,10.17,10.17,0,0,0-1.43-.34l0-.55a6.2,6.2,0,0,1,1.67-.26c1.17,0,2.55.84,2.57,1.43a12.29,12.29,0,0,0-.18,1.36,17,17,0,0,0,.57,4,3.73,3.73,0,0,0,1.43,2.13c1.93-1.14,4.6-2.5,5.57-3,.41-.2.52-.39.33-.72a2.77,2.77,0,0,0-1.32-1.1Zm2.45-3.07a10.05,10.05,0,0,1,2.94,1.74,2.25,2.25,0,0,1,.88,1.56.6.6,0,0,1-.65.68c-.39,0-.65-.57-1.2-1.22a11.87,11.87,0,0,0-2.34-2.29Zm2.23-1.59a10.11,10.11,0,0,1,3,1.51,2.16,2.16,0,0,1,1,1.59.61.61,0,0,1-.65.7c-.39,0-.65-.65-1.25-1.25a12.44,12.44,0,0,0-2.34-2.1Z"/><path class="cls-1" d="M134.52,12.35c-.54,1.35-1.74,4.29-2,5.28a6.81,6.81,0,0,0-.44,1.87c0,.75.52,1.59.52,2.21a.69.69,0,0,1-.75.78c-.47,0-.89-.42-1.22-1a11.75,11.75,0,0,1-1.51-5.83,23.15,23.15,0,0,1,1.25-6.86,16.44,16.44,0,0,0,.65-3,4.25,4.25,0,0,0-1.46-2.73l.42-.33a5.81,5.81,0,0,1,1.32.78A4.35,4.35,0,0,1,133,6.27c0,.59-.36,1.06-1,2.62a15.57,15.57,0,0,0-1.66,6.37,4,4,0,0,0,.42,2.24c.15.31.33.36.57,0,.57-.91,2-4.16,2.6-5.48Zm2.6,2.24a10,10,0,0,0,.76,2.26c.88,1.53,2.26,2.44,5.46,2.44a25,25,0,0,0,4.42-.47c.7,0,1.37.24,1.37.84,0,1-2.41,1.35-5.22,1.35-4.06,0-6.27-1.35-7-4a8.45,8.45,0,0,1-.34-2.31Zm.29-8.14a13.24,13.24,0,0,1,6.21-1.61,8.77,8.77,0,0,1,3.62.54c.54.24.78.6.78.91s-.16.57-.71.65a7,7,0,0,0-2.13.5,43.43,43.43,0,0,0-4.26,2.36l-.44-.47c1.17-.83,3-2.18,3.56-2.65.31-.28.28-.47-1.43-.47a16.33,16.33,0,0,0-4.94.86Z"/><path class="cls-1" d="M179.67,1.61s1.41,1.09,2.27,1.87c-.06.29-.32.42-.68.42H169.72a35.07,35.07,0,0,1-2.92,3.48c2.63,0,5.78-.15,9.08-.26a19.81,19.81,0,0,0-3.17-2.18l.23-.29C180.87,6.4,180.43,11,178.3,10a8.11,8.11,0,0,0-1.77-2.31c-3.36.41-7.85.91-14,1.48a1.06,1.06,0,0,1-.7.54l-1-2.26c1.15,0,2.89,0,5,0a30.93,30.93,0,0,0,1.74-3.51h-8.29L159,3.17h10.55V0l2.66.29c-.05.36-.31.62-.94.7V3.17h7.15Zm-3.38,8.48,2.19,1.64a2.13,2.13,0,0,1-1.09.49v9.2c0,1.33-.32,2.14-2.81,2.4a1.57,1.57,0,0,0-.6-1.17,5.31,5.31,0,0,0-2.31-.63v-.41s2.78.2,3.38.2.65-.18.65-.54V18.72H165.4v4.45c0,.2-.68.59-1.4.59h-.29V10.3l1.82.83h9.91ZM165.4,11.91v2.57h10.3V11.91ZM175.7,18V15.26H165.4V18Z"/><path class="cls-1" d="M192.08,9.1a2.65,2.65,0,0,0,1.75,1,4.49,4.49,0,0,0,2.31-.8c2.44-1.25,6.45-3.54,10.32-3.54,4.76,0,7.2,2.94,7.2,6.16,0,3.38-2,5.57-4.86,6.89-2.31,1.12-6.06,1.69-10.11,1.49l-.06-.71a22.54,22.54,0,0,0,8.87-1.89c2.94-1.38,4.32-3.31,4.32-6.09s-2-4.78-5.38-4.78c-3.18,0-6.69,2.31-8.64,3.53s-2.62,1.93-3.38,1.93a3.42,3.42,0,0,1-2.29-1.51,4.05,4.05,0,0,1-.41-1.46Z"/></g></g></svg>