<svg xmlns="http://www.w3.org/2000/svg" viewBox="0 0 300.4 45.95"><g data-name="レイヤー 2"><path d="M40 2.55s2.85 2.15 4.7 3.85c-.15.5-.65.75-1.35.75H.4L0 5.7h20.35V.1l5.1.55c-.1.7-.6 1.2-1.8 1.35v3.7h13.7zm-.35 19.7l4.25 3.15a3.92 3.92 0 01-2.15 1v14.9c0 2.5-.6 4.1-5.1 4.55a3.2 3.2 0 00-1.05-2.25 9.26 9.26 0 00-4.1-1.2v-.75s4.8.35 5.85.35 1.15-.3 1.15-1V25.75H5.9v18.9c0 .35-1.35 1.1-2.65 1.1H2.7v-23.1l3.55 1.6H38zM31 22v-2.2H13.25v1.45c0 .3-1.4 1.05-2.7 1.05h-.5V9.5L13.5 11h17l1.85-1.95 4 3a4.31 4.31 0 01-2.15 1V21c0 .3-1.75 1-2.75 1zm.55 17.9C31.5 40.25 30 41 28.9 41h-.5v-2.15H15.75v1.95a3.78 3.78 0 01-2.65 1h-.5V28.2l3.4 1.45h12l1.65-1.8 3.75 2.85a3 3 0 01-1.85.85zM31 18.35V12.5H13.25v5.85zm-2.6 19v-6.2H15.75v6.25zM67.13 15.1c0-2.7-.35-3.95-3.9-6.45l.45-.8a13.81 13.81 0 013.15.8c1.8.85 4.4 3.1 4.4 5.15s-1.7 5.35-1.7 10.5c0 6.35 2.9 9.6 5 10.7a1.18 1.18 0 001.75-.35A81.63 81.63 0 0081 25.5l1.3.6c-1.15 3.3-2.75 7.5-3 9-.45 2.25.35 2.5.35 3.55 0 1.35-1.35 2.15-3.4 1.3-3.9-1.7-9.1-6-9.25-15.6-.17-3.55.13-7 .13-9.25zm23.3-1.25l.45-1.2a15.55 15.55 0 019.4 5 17.8 17.8 0 014.35 11.25c0 1.95-.65 2.8-2 2.8-.8 0-1.4-.6-1.6-1.75-.35-2.2-.75-6.45-2.85-10a14.47 14.47 0 00-7.75-6.1zm38.92 15.6v6.2c0 .4-1 1.2-2.45 1.2h-.55V3.5l3.25 1.6h6.1l1.75-2 3.9 3.1a3.57 3.57 0 01-2.1.95V32.7a3.57 3.57 0 01-2.55 1.2h-.5v-4.45zm0-22.9V28h6.85V6.55zm41.05 10.6c-.35.45-.85.55-2.05.65a41.63 41.63 0 01-8.85 16.85 36.35 36.35 0 0012.05 7.65l-.1.55a4 4 0 00-2.95 2.95 35.56 35.56 0 01-11.15-9c-4.3 3.9-9.9 7-17.35 9.15l-.4-.8a40.91 40.91 0 0016.25-10.4c-3.1-4.65-5.35-10.65-6.7-19-.9 11.75-4.05 22.05-16.3 29.9l-.8-.85C146 34.1 146.25 20 146.35 4.7h-5.65l-.45-1.5h17.85l1.65-1.9 4 3.2a4 4 0 01-2.15.8c-.55 2.55-1.5 6.65-2.4 10.5h5.5l2.15-2.05zM149.6 4.7c0 2.5-.1 4.9-.2 7.3 1.4 9.45 4.3 16 8.2 20.65a39.72 39.72 0 007.3-15.35h-6.1l-.65 2.7a5.42 5.42 0 01-3.4.05c1.4-4.75 2.7-11 3.55-15.3zm60.18 10.7c-.35.45-.85.6-1.95.65-2.4 9.6-7.15 19.3-17.15 25.25l-.55-.65c7.75-6.1 12.3-15.6 14.2-25h-12.85L191 14.2h13.05l2.1-2zm25.35-3.35c-.3.5-.75.65-1.9.4a77.44 77.44 0 01-12.15 9.65 42 42 0 0016.15 15.6l-.2.5a4 4 0 00-3.15 2.8c-8.6-6.35-15.35-15-18.65-31.3v31.2c0 2.75-.55 4.5-5.6 5a3.15 3.15 0 00-1.3-2.45c-.85-.6-2.2-1.05-4.8-1.35v-.8s5.9.45 7.1.45c1 0 1.25-.3 1.25-1.15V.15L217 .7c-.15.7-.55 1.15-1.75 1.35V5.8a51 51 0 005.35 15.4 80.61 80.61 0 0010-11.95zm23.12-1.8c1.3 5.25.35 9.35-.9 11.2-.85 1.25-2.6 1.75-3.4.85-.6-.85-.2-2 .6-2.9 1.4-1.55 2.9-5.6 2.85-9.15zM266.1.6c-.15.7-.55 1.2-1.85 1.4v42.6c0 .5-1.35 1.25-2.5 1.25h-.65V0zm-.35 8c7.65 4.65 4.55 10.45 1.9 7.9a17.38 17.38 0 00-2.55-7.6zm30.35 31s2.7 2.1 4.3 3.65c-.1.5-.6.75-1.25.75h-30.8l-.4-1.4h14.25V27.85h-9.95l-.4-1.45h10.35V14.3h-7.65a35.33 35.33 0 01-5.45 9.5l-.8-.5c2.65-5 4.85-12.5 5.85-20l4.9 1.25a1.6 1.6 0 01-1.75 1.1 66 66 0 01-2.2 7.15h7.1V.4l4.8.5c-.1.7-.4 1.15-1.55 1.3v10.6h6.9l2.35-3s2.6 2.2 4.3 3.7c-.15.55-.6.8-1.3.8h-12.2v12.1h5.6l2.3-3s2.65 2.15 4.2 3.7c-.1.5-.6.75-1.3.75h-10.8V42.6h8.3z" fill="#fff" data-name="レイヤー 1"/></g></svg>