<svg xmlns="http://www.w3.org/2000/svg" viewBox="0 0 415.89 46"><g data-name="レイヤー 2"><path d="M16.9 9.6c-.25.5-.7.75-1.9.65A49.6 49.6 0 01.55 26.6L0 26A55.21 55.21 0 0012 7.4zm22.25 14c-.35.6-.9.7-2.1.45-8.25 13.6-19 18.8-33.4 22l-.3-1c13.2-4.1 23.7-9.75 31-23.95zM26.3.8c-.15.7-.6 1.15-1.75 1.3V26c0 2.7-.6 4.4-5.45 4.95a3.74 3.74 0 00-1.2-2.55c-.8-.55-2.15-.95-4.6-1.25v-.8s5.65.4 6.75.4c.95 0 1.2-.25 1.2-1.05V.25zm15.05 21.9C39.7 18.1 34.05 11.8 30 8.05l.6-.45c16.65 8.6 14.85 17.8 10.75 15.1zM72.36 3.2a9.38 9.38 0 013-.6 7.43 7.43 0 013.64.85c.85.5.65 1.4-1.2 7.8 4.8-1.5 5.8-2.7 6.75-2.7a1.7 1.7 0 011.85 1.5c0 .9-1.15 1.6-1.7 1.9a34.75 34.75 0 01-7.9 2.55c-1.8 5.4-5.39 14.6-9.49 20.55-.7 1-1.31 1.8-2.25 1.8s-1.45-1.05-1.45-2a3.84 3.84 0 01.89-2.4c3.06-4 7.26-10.15 9.5-17.45a27.29 27.29 0 01-4 .3c-3.75 0-5.45-1.4-7.06-5l.91-.7c2.15 1.8 3.25 2.9 6.7 2.9a19 19 0 004.31-.5 41.57 41.57 0 00.9-5.4c0-1-.2-1.45-1.05-1.8a14.49 14.49 0 00-2.35-.8zm17.9 8.6a14.17 14.17 0 016.9.6c3 1.15 4.6 3.1 4.6 5.1 0 1.15-.5 1.8-1.45 1.8-1.15 0-2-.8-4.15-.65a7.72 7.72 0 00-4.65 2c-1.1 1.1-1.3 2.7-1.25 4.5 0 1.5.55 4.65.95 7.65a23.13 23.13 0 017.8 3.5c2.4 1.55 3.45 3 3.45 4.2 0 1-.45 1.6-1.25 1.6s-1.55-.85-2.65-1.85a20 20 0 00-7-4.55c0 .75.1 1.4.1 2 0 4.15-3 6.55-8.15 6.55s-8-2.55-8-5.45c0-3.8 4.05-6.6 10.7-6.6.8 0 1.55.05 2.25.1-.15-2.2-.4-4.45-.4-6.4a8.1 8.1 0 012.4-6.25C92 18 94.21 17.15 96 16.4c1.05-.55.85-1.2 0-1.85a9.65 9.65 0 00-5.75-1.5zm-1.65 23.05a23.27 23.27 0 00-4.3-.4c-4.55 0-7 1.9-7 3.7s1.7 3.15 5.35 3.15c4.8 0 5.9-2.4 5.9-5.35zm37.78-19.7c0-2.7-.35-4-3.9-6.45l.44-.8a13.54 13.54 0 013.15.8c1.81.85 4.41 3.1 4.41 5.15 0 2.2-1.7 5.35-1.7 10.5 0 6.35 2.9 9.6 5 10.7a1.18 1.18 0 001.75-.35 81.63 81.63 0 004.7-9.15l1.3.6c-1.15 3.3-2.75 7.5-3 9.05-.45 2.25.35 2.5.35 3.55 0 1.35-1.35 2.15-3.4 1.3-3.9-1.7-9.11-6-9.25-15.6-.16-3.6.15-7.05.15-9.3zm23.3-1.25l.45-1.2a15.55 15.55 0 019.4 4.95 17.8 17.8 0 014.35 11.25c0 2-.65 2.8-2 2.8-.8 0-1.4-.6-1.6-1.75-.35-2.2-.75-6.45-2.85-10a14.47 14.47 0 00-7.75-6.05zm57.4 14.95v10.5c0 1.4.5 1.9 3.45 1.9h7.15c3.35 0 5.7 0 6.75-.15a1.5 1.5 0 001.4-.85 62.79 62.79 0 001.85-7.8h.65l.15 8.1c1.3.4 1.7.85 1.7 1.55 0 1.7-2.1 2.2-12.6 2.2h-7.35c-4.9 0-6.45-.85-6.45-4.3V29.25l-18.55 2.15-.55-1.4 19.1-2.25v-9.2l-16.5 2.05-.55-1.35 17-2.15V8.3a159.71 159.71 0 01-16.9 2.35l-.2-1c12.2-1.75 26.65-5.75 34-9.15l4 3.35c-.45.45-1.4.5-2.65 0a143.82 143.82 0 01-14.85 3.8v9l12.2-1.55 2.3-3.6s3.3 1.95 5.3 3.3a1.23 1.23 0 01-1.15 1l-18.65 2.35v9.2l16-1.85 2.4-3.65s3.4 1.95 5.4 3.4a1.14 1.14 0 01-1.15.95zm57.74-3.7C262 27.6 258 31.4 252.77 35.7a2 2 0 01-.69 1.5l-3-3.7c2.55-1.3 8.91-5.05 15.26-9zm7-20.3a3.22 3.22 0 01-1.9.9v35c0 2.7-.6 4.5-5.9 5a3.38 3.38 0 00-1.4-2.4 14.33 14.33 0 00-5.3-1.4v-.8s6.6.5 7.9.5c1.1 0 1.45-.35 1.45-1.25V5.3h-16.06l-.45-1.5h16.06l1.6-2zm-19.45 5.75c11.4 4.4 9 13.15 5.7 10.4-1-2.75-2.75-7.2-6.16-9.95zm34.95 13.2c-2.8 2.6-6.85 6.4-12.2 10.85a1.74 1.74 0 01-.65 1.45l-3-3.6c2.65-1.25 9-5.2 15.4-9.3zm6.7-19a3.23 3.23 0 01-1.95.9v35.1c0 2.7-.6 4.5-5.9 5a3.18 3.18 0 00-1.45-2.4c-1-.6-2.55-1.1-5.45-1.5v-.75s6.75.5 8.05.5 1.5-.35 1.5-1.25V5.3h-15.6l-.45-1.5h15.6l1.65-2zm-19.65 5.5c11.7 3.55 9.4 12.65 5.9 9.9-1-2.7-2.85-6.9-6.25-9.4zm39.28 8.3c10.1 1.7 8.2 8.2 4.9 6.35-.8-2-3.35-4.55-5.35-5.9zm.1-11.55l-.25-1.45h14V0l4.95.5c0 .7-.5 1.2-1.75 1.35V5.6h11V0l5 .5c-.05.7-.5 1.2-1.75 1.35V5.6h7.6l2.35-3s2.7 2.2 4.25 3.7c-.1.5-.55.75-1.25.75h-13v3.75c0 .3-1.15.9-2.7.95h-.55v-4.7h-11v4c0 .35-1.4.9-2.7.9h-.5v-4.9zM330 15c-2.35 4.9-7.55 15.05-8.3 17a11.64 11.64 0 00-1 3.85c0 1.85 1.25 3.75 1.15 7.1-.05 1.9-1 3-2.65 3-.85 0-1.4-.8-1.5-2.15.55-4.5.25-7.5-.8-8.1a5.65 5.65 0 00-2.4-.6v-1.2h2.35c.6 0 .8 0 1.3-.9 1-1.55 1-1.55 10.95-18.35zm-12.59-3.9c10 2.1 8.15 8.2 4.85 6.55a24.8 24.8 0 00-5.35-6.15zm37.3 5.1c-.4.45-1 .55-2.25.6a38.1 38.1 0 01-7.46 7.9 50.79 50.79 0 0014.9 5.3l-.05.55a3.47 3.47 0 00-2.75 2.6 35.43 35.43 0 01-4.75-1.65l1.35 1a2.58 2.58 0 01-1.7.8v11.1a4.29 4.29 0 01-2.7 1h-.5v-2.55h-13.2v1.9a3 3 0 01-2.6 1.1h-.5V32a72.31 72.31 0 01-8.05 2.65l-.4-.8A56.84 56.84 0 00341 24.6a25.87 25.87 0 01-5.2-6.45 31.87 31.87 0 01-8.3 7.5l-.6-.6c4.15-3.45 8-9.6 9.85-14.8l4.85 1.25c-.2.55-.6.75-1.85.65a24 24 0 01-1.65 2.8h10.8l2.3-2zm-5.1 14.15A36.86 36.86 0 01343 26.3a47.43 47.43 0 01-8.19 4.7l1.4.6h12.2zm-.8 11V33h-13.2v8.4zm-12.35-24.1a23.3 23.3 0 006.15 5.95 34.16 34.16 0 005.95-6.8h-11.45zM388.29 3.4a14.69 14.69 0 013.15-.5c2.25 0 5.15 1.5 5.15 2.65s-1 1.3-1.4 2.85c-.35 1.1-.65 2.4-1.1 4.15a34.58 34.58 0 008.7-2.65c1.85-1 2.85-1.6 3.65-1.6 1.05 0 2.5.35 2.5 1.55 0 .85-1.35 1.7-3.15 2.4a66.56 66.56 0 01-12.4 3.1c-1 3.9-2.7 10-3.45 12.8-.3 1.15-.3 1.4.8.5 4.65-3.55 9.1-5.9 14.35-5.9 7.35 0 10.8 4.45 10.8 9.5 0 9-12.8 12.55-24.2 11.8l-.15-1.25a42.38 42.38 0 009.8-1.45c8.85-2.4 11.15-6.4 11.15-10 0-4.4-3.45-6.95-7.6-6.95-5.55 0-11.1 4.3-14.7 8.4-.75.85-1.5 2.75-2.45 2.75s-2.1-1.85-2.1-3.4c0-.8.35-1 1.1-2.8 1.05-2.7 2.95-9.8 3.9-13.75-1.1.1-2.2.15-3.31.15-4.19 0-5.69-.4-8.54-5.45l.89-.65c2.9 2.8 4.9 3.5 8.16 3.5a27.43 27.43 0 003.4-.2 54.35 54.35 0 001.1-6.3c.1-1-.2-1.25-1-1.5a15.72 15.72 0 00-3-.7z" fill="#fff" data-name="レイヤー 1"/></g></svg>