<svg xmlns="http://www.w3.org/2000/svg" viewBox="0 0 346.62 149.68"><g data-name="レイヤー 2"><path d="M65.52 130.35a6.67 6.67 0 016.69-4.67c3.81 0 6.53 2.34 6.53 5.7a5.16 5.16 0 01-4.42 5.34v.28a5.74 5.74 0 014.93 5.88c0 4.1-2.85 6.79-7 6.79-3.58 0-5.92-1.41-7.13-4.64l2.56-1c.86 2.46 2.27 3.42 4.57 3.42 2.56 0 4.26-1.76 4.26-4.57 0-3-1.7-4.77-5.25-4.77h-1.8v-2.27h1.6c3.3 0 5-1.64 5-4.29a3.55 3.55 0 00-3.84-3.74 4.09 4.09 0 00-4.1 3.35zm33.3 11.36h3.23v2.11h-3.23v5.44h-2.4v-5.44h-9.28v-2l8-16h3.65zm-2.4-8.13c0-1.85.07-3.55.13-5.63H96c-.77 1.76-1.44 3.39-2.24 5l-4.26 8.74h6.91zm24.24 4.48c-.48-2.37-1.82-3.49-3.65-3.49-2.72 0-4.41 2.31-4.41 6.5s1.69 6.56 4.41 6.56c2.15 0 3.36-1.18 3.84-3.58l2.46.76a6.12 6.12 0 01-6.33 4.84c-4.32 0-7-3.2-7-8.52s2.82-8.6 7-8.6a6 6 0 016.24 4.86zm13.63-2.17c1.51-2.12 3.2-3.33 5.35-3.33a3.88 3.88 0 014.09 3.29c1.44-2 3.3-3.29 5.44-3.29 2.6 0 4.39 1.69 4.39 4.67v12h-2.63v-11.1c0-2.31-1-3.33-2.68-3.33s-3.24 1.28-4.36 3.23v11.2h-2.56v-11.1c0-2.37-1-3.33-2.56-3.33s-3.2 1.18-4.41 3.23v11.2h-2.56v-16.32h2.49zm31.91-6.21l6.88 6.85 6.88-6.85 1.15 1.12-6.91 6.88 6.91 6.88-1.11 1.12-6.88-6.85-6.88 6.88-1.15-1.12 6.91-6.91-6.91-6.88zm40.28 13.63c0 4-2.91 6.37-7.23 6.37s-7.2-2.34-7.2-6.27c0-2.76 1.5-4.45 5-6.08-3.17-1.57-4.32-3.33-4.32-5.89 0-3.27 2.65-5.76 6.56-5.76s6.65 2.37 6.65 5.66c0 2.56-1.24 4.16-4.38 5.54 3.67 1.69 4.92 3.55 4.92 6.43zm-7.58-5.06c-3.08 1.44-4.29 2.88-4.29 5 0 2.59 1.79 4.32 4.64 4.32s4.67-1.63 4.67-4.23c0-2-1-3.39-4.35-4.83zm.76-2.27c2.88-1.25 3.72-2.59 3.72-4.57 0-2.18-1.7-3.65-4.13-3.65s-4 1.44-4 3.68c0 1.79.86 2.94 3.8 4.25zm25.7-5.89a3.1 3.1 0 00-3.08-2.27c-3.32 0-5 3.3-5.15 9.76a6.12 6.12 0 015.25-3.26c3.49 0 6 2.85 6 7.36 0 5-2.81 8-6.68 8-4.13 0-7.11-3.43-7.11-11 0-9.15 3-13 7.78-13a5.74 5.74 0 015.53 3.29zm-3.68 17.44c2.46 0 4-2 4-5.79 0-3.33-1.44-5.25-3.81-5.25-1.76 0-3.36 1.09-4.67 3.49 0 5.25 1.85 7.55 4.48 7.55zm25.48-9.47c-.48-2.37-1.83-3.49-3.65-3.49-2.72 0-4.42 2.31-4.42 6.5s1.7 6.56 4.42 6.56c2.14 0 3.36-1.18 3.84-3.58l2.46.76a6.12 6.12 0 01-6.33 4.84c-4.32 0-7-3.2-7-8.52s2.81-8.6 7-8.6a6 6 0 016.24 4.86zm13.63-2.17c1.51-2.12 3.2-3.33 5.35-3.33a3.88 3.88 0 014.09 3.29c1.44-2 3.3-3.29 5.44-3.29 2.59 0 4.39 1.69 4.39 4.67v12h-2.63v-11.1c0-2.31-1-3.33-2.69-3.33s-3.23 1.28-4.35 3.23v11.2h-2.56v-11.1c0-2.37-1-3.33-2.56-3.33s-3.2 1.18-4.41 3.23v11.2h-2.56v-16.32h2.49zM7.72 2.44C7.6 6.2 7.6 10.12 7.6 14.2h7.28l.52-4.32h1.68v10.48H15.4l-.56-4.56H7.6c0 4.4 0 8.32.12 12.16l4.28.44v1.44H0V28.4l4.16-.4c.12-3.8.12-7.68.12-11.6v-2.2c0-3.88 0-7.8-.12-11.64L0 2.08V.68h21.4l.32 7.52h-2l-1-5.76zM57.94 28.4v1.44H46.38V28.4l4.4-.44-2.64-8H37.86l-2.6 7.88 4.2.52v1.44h-9.6v-1.4l3.6-.48L42.7.4h2.24l9.4 27.6zm-10.36-10L43 4.52l-4.58 13.84zM91.63 22l-.12 6.32a17 17 0 01-8.68 2.15c-8.72 0-14.64-6.27-14.64-15.23S74.39 0 82.83 0a15.84 15.84 0 018.28 2.16l.16 6.28h-2.2l-1-5.4a10 10 0 00-4.8-1.24c-6.36 0-11.16 4.88-11.16 13.44S76.63 28.68 83 28.68a12.46 12.46 0 005.52-1.24l1-5.44zm36.26.28l-.28 7.56h-22.2V28.4l4.16-.44c.12-3.8.12-7.68.12-11.6v-2.2c0-3.88 0-7.8-.12-11.64l-4.16-.44V.68h21.4l.28 7.52h-2l-1.08-5.76h-10.88C113 6.2 113 10.12 113 14.2h7l.6-4.32h1.64V20h-1.64l-.56-4.2h-7c0 4.44 0 8.36.12 12.24h11.72l1-5.76zm46.8-19.84c-.12 3.8-.12 7.72-.12 11.72v2.2c0 3.84 0 7.76.12 11.6l4.6.44v1.44h-12.76V28.4l4.64-.44c.08-3.8.08-7.68.08-11.6v-2.2c0-3.92 0-7.88-.08-11.72h-7.32l-1.12 5.84h-2l.32-7.6h23.68l.4 7.6h-2L182 2.44zm49.5 12.8c0 9.48-6.28 15.23-13.08 15.23s-13.2-5.47-13.2-15.23c0-9.44 6.36-15.24 13.2-15.24s13.08 5.48 13.08 15.24zm-13.08 13.48c6.24 0 9.2-6.56 9.2-13.48s-3-13.44-9.2-13.44-9.28 6.56-9.28 13.44 2.96 13.48 9.28 13.48zm64.55-26.64l-3.84.52-7.36 27.56h-1.56l-7.64-23.64L248 30.16h-1.52l-7.8-27.68-3.76-.4V.68h11.36v1.4l-4.12.48 5.76 21.68 6.95-21.68-4.39-.48V.68h11.31v1.4l-4.44.52 6.84 21.8 5.71-21.76-4.16-.56V.68h9.92zm35.69 20.2l-.28 7.56h-22.2V28.4L293 28c.12-3.8.12-7.68.12-11.6v-2.2c0-3.88 0-7.8-.12-11.64l-4.16-.44V.68h21.4l.28 7.52h-2l-1.08-5.76h-10.85c-.12 3.76-.12 7.68-.12 11.76h7l.6-4.32h1.64V20h-1.64l-.56-4.2h-7c0 4.44 0 8.36.12 12.24h11.72l1-5.76zm35.27-.4l-.36 8h-21.32V28.4l4.16-.4c.12-3.84.12-7.72.12-11.56v-2.28c0-4 0-7.84-.12-11.64l-4.16-.44V.68h11.88v1.4l-4.16.44c-.12 3.84-.12 7.76-.12 11.84v2.8c0 3.24 0 7.08.12 10.88h10.56l1.28-6.16zM74.06 70.61c-1.88 0-3.64.06-5.37.19-.38 0-.51-.1-.58-.51s-.12-1.44-.16-2a61.26 61.26 0 006.15.26h11.32a2.91 2.91 0 001.6-.29.8.8 0 01.84 0 9.18 9.18 0 011.44 1.31.69.69 0 01-.1 1 2.77 2.77 0 00-.7 1.08 34.28 34.28 0 01-6.28 10.5 35 35 0 01-9.5 7.71.79.79 0 01-1.09-.06A5.43 5.43 0 0070 88.75a30.52 30.52 0 0010.33-7.9 29.91 29.91 0 006-10.24zm35.42 15.8h4.12c1.6 0 3 0 4.64-.09.26 0 .32.09.36.38v1.22c0 .35-.1.45-.39.45-1.57 0-3.07-.07-4.57-.07h-10.4c-1.54 0-2.82.07-4.13.13-.26 0-.35-.1-.39-.42a12.67 12.67 0 01-.09-1.72c1.63.09 2.94.12 4.61.12h4.12v-8.92h-2.24c-1.24 0-2.4 0-3.74.06-.26 0-.38-.1-.42-.42s-.09-1-.12-1.69c1.47.09 2.84.16 4.22.16h6.46c1.51 0 2.79-.07 4.32-.1.29 0 .36.1.36.38a8.69 8.69 0 010 1.25c0 .32-.1.39-.42.39-1.44 0-2.85-.07-4.26-.07h-2zm32.99-2.04c0 1.92 0 3.74.1 5.79 0 .28-.07.38-.32.38h-1.86c-.26 0-.32-.1-.32-.38.06-1.92.13-3.84.13-5.7V75a61.43 61.43 0 01-10 7.23.54.54 0 01-.73-.13 6.09 6.09 0 00-1.6-1 59.82 59.82 0 0010-6.75 53.09 53.09 0 006.2-6.18 10 10 0 002.21-3.61 9.39 9.39 0 012.11 1.44.51.51 0 01-.13.89 7.76 7.76 0 00-1.79 1.7 57.44 57.44 0 01-4 4.41zm32.29-16a3.34 3.34 0 001.82-.26.55.55 0 01.64.1 8.59 8.59 0 011.32 1.31c.19.25.12.48-.16.73a4.06 4.06 0 00-.93 1.19 57.76 57.76 0 01-4.74 6.88 65.29 65.29 0 019.18 8c.29.25.29.35 0 .67a12.57 12.57 0 01-1.16 1.15c-.22.2-.35.2-.57-.06a59.09 59.09 0 00-8.79-8.08 48.92 48.92 0 01-11.43 8.93c-.35.19-.54.22-.8-.07a5.54 5.54 0 00-1.66-1.15A41.41 41.41 0 00169.26 79a40.54 40.54 0 006.07-8.57h-9.63c-1.79 0-3.16.09-4.6.19-.29 0-.32-.1-.39-.35a13.15 13.15 0 01-.19-2.05c1.57.13 3 .13 5 .13zm34.18.7c1.09 0 1.44-.13 1.7-.35a.63.63 0 01.86-.07 7.44 7.44 0 011.38 1.28.55.55 0 01-.13.87 2.46 2.46 0 00-.77 1 45.79 45.79 0 01-5.08 8.48 34.34 34.34 0 013.84 3.52c.19.19.09.35 0 .57a4.19 4.19 0 01-1 1.09c-.26.19-.35.16-.51 0a33.06 33.06 0 00-3.59-3.52 38.83 38.83 0 01-11.1 8.73c-.35.2-.58.26-.86 0a5.8 5.8 0 00-1.8-1 37.81 37.81 0 0012-9 34.11 34.11 0 00-5-3.27 8.63 8.63 0 011.04-1.4.35.35 0 01.51-.09 42.22 42.22 0 014.77 3 35.68 35.68 0 004.67-8l-9.44.19a36.12 36.12 0 01-7 7.42c-.32.26-.55.32-.84.1a5.89 5.89 0 00-1.53-.9 33 33 0 009.15-10.33 11.06 11.06 0 001.28-3.17 8.48 8.48 0 012.27 1.09c.39.25.29.64-.06.89a3.83 3.83 0 00-.93 1.09c-.35.61-.64 1.09-1.15 1.86zm28.69 5.86a33.12 33.12 0 01-5.09 5.85 46.64 46.64 0 01-7.07 5c-.45.26-.68.26-.93 0a4.56 4.56 0 00-1.57-1 36.28 36.28 0 008.1-5.31 25.94 25.94 0 005.05-5.6h-6.88c-1.66 0-3.49.07-5.21.19-.26 0-.35-.09-.39-.41s-.12-1.28-.16-1.92c2 .16 3.88.16 5.73.16h8.1l-.16-3.07a16 16 0 00-.48-3.71 13.92 13.92 0 012.65.25c.35.1.35.42.19.74a9.16 9.16 0 00-.19 2.81l.13 3h3.3c2.08 0 3.64 0 5.79-.13.29 0 .41.1.41.32v1.57c0 .26-.12.35-.41.35-2.15-.06-3.81-.13-5.76-.13h-3.17l.61 12.11c.09 2-.42 2.88-1.41 3.4a10.89 10.89 0 01-3.9.83c-.42 0-.55-.1-.64-.39a4.28 4.28 0 00-1.35-1.84 13.7 13.7 0 004.1-.38c.8-.22 1-.54 1-2.18l-.35-8.12zm25.92-5.09c.35.13.38.41.22.8a7.54 7.54 0 00-.32 2.49 20.73 20.73 0 01-2 8.77 16.85 16.85 0 01-4.58 5.7c-.35.32-.64.35-.89.12a4.87 4.87 0 00-1.7-.8 15.15 15.15 0 005.15-6 18.67 18.67 0 001.73-8.28 13 13 0 00-.29-3.33 12 12 0 012.68.53zm6.65 14.53a41.23 41.23 0 005.44-3.4 29.49 29.49 0 005.66-5.34 5.57 5.57 0 00.55 2c.13.28.16.47-.19.83A43.78 43.78 0 01276.6 83a61.29 61.29 0 01-5.53 3.58 4.73 4.73 0 00-1.06.7.61.61 0 01-.86 0A6.72 6.72 0 01267.9 86a.91.91 0 01-.07-.8 16 16 0 00.13-3.17V73a28.17 28.17 0 00-.32-5.6 23 23 0 012.66.42c.48.16.38.48.19.93a15.31 15.31 0 00-.29 4.22z" fill="#fff" data-name="レイヤー 1"/></g></svg>