<svg xmlns="http://www.w3.org/2000/svg" viewBox="0 0 291.38 45.95"><g data-name="レイヤー 2"><path d="M19.4 31.15s2.4 2 4 3.4c-.1.55-.6.8-1.3.8h-9.3V45a3.33 3.33 0 01-2.7 1h-.5V35.35H.35L0 33.85h9.55V28h-3.8v1.4c0 .35-1.3 1.05-2.55 1.05h-.5v-19L6 13h3.6V8h-9L.2 6.55h9.4V.05l4.85.5c0 .65-.5 1.15-1.65 1.35v4.65h3.8l2.3-2.95s2.55 2.1 4.2 3.6c-.15.55-.65.8-1.35.8H12.8v5h3.45L18 11.05l3.9 3a3.92 3.92 0 01-2 .9v13.9c-.05.35-1.65 1.1-2.7 1.1h-.4V28h-4v5.85h4.5zM5.75 14.5v5.2h11v-5.2zm0 12.1h11v-5.4h-11zm15.85-9c3.1-4.2 5.7-10.7 7-17.6L34 1.55c-.15.6-.7 1-1.8 1A41.58 41.58 0 0129.45 9h10l2.25-2.95s2.65 2.1 4.3 3.65c-.15.55-.55.8-1.25.8H28.6a28.09 28.09 0 01-6.3 7.6zm23 23.4c1.25.35 1.6.6 1.6 1.25 0 1.45-2.6 2.2-7.85 2.2h-7.5c-5.35 0-7.7-1.1-8-4.3-.4-3.85 5.2-9.2 13.5-20.85h-11.3l-.4-1.45H37l1.5-1.75 3.7 3a3.12 3.12 0 01-2.2.7c-9.55 11.6-14.1 17.6-13.85 20 .15 1.35 1.65 1.75 4.9 1.75h7.25c3.3 0 3.75-.15 4.1-.85a27.1 27.1 0 001.7-6.6h.7zM77.86 3.7A7.62 7.62 0 0182 2.4c1.8 0 3.7.4 4 1.8.3 1.6.6 3.6 1.1 5.55 5.2-1.55 7.15-3.2 7.95-3.2 1.15 0 2.45.25 2.5 1.2 0 .5-.35.95-1.1 1.45a44.89 44.89 0 01-8.55 3.2 46.07 46.07 0 002.7 6.45c1.6-.5 3.1-1.05 4.4-1.6 3.2-1.3 3.75-2 4.55-2 1.25-.1 2.35.25 2.35 1.25 0 .5-.2 1.05-1.15 1.55A37 37 0 0192 21.5c3.9 6.45 6.8 7.85 6.8 9.15 0 1.55-.85 3.7-2 3.7s-2-.9-4-1.9a24.69 24.69 0 00-9.9-2.25c-5.35 0-9.35 2.25-9.35 5.55 0 4.65 6.35 5.25 11.1 5.25 3.75 0 5-.55 6.9-.55 1.5 0 2.55.65 2.55 1.6 0 1.5-3.1 2.3-9.55 2.3-6.25 0-13.45-2.1-13.45-8 0-4 4.1-7.95 12.55-7.95a43.46 43.46 0 0110.5 1.45c.65.2.7.05.35-.45a64.85 64.85 0 01-4.8-7.35 52.56 52.56 0 01-12.1 1.4c-7 0-9-4.35-3.55-8.15l.85.75c-3.1 2.75-2.45 4.75 3.1 4.75a40.74 40.74 0 0010.35-1.4c-1-1.95-1.9-4.15-2.85-6.5a33.12 33.12 0 01-7.79 1.1c-3.45 0-6.2-.4-8.8-4.75l.7-.55c2.45 1.85 4 2.8 7.9 2.8a34 34 0 007-1.05c-.55-1.35-1-2.7-1.5-4a2.24 2.24 0 00-2.4-1.8 21.71 21.71 0 00-2.55.05zM141 3c4 .4 6.45 1.85 7.75 3.3a5.65 5.65 0 011.65 3.55c0 1.15-.55 1.65-1.4 1.65s-1.7-.45-3.05-.55a53.75 53.75 0 00-9.35.1c-1.51.2-2.1.4-2.1 1.4s2 3.55 3.45 5.7c7-3.5 13.5-6.25 19.15-6.25 6.05 0 10 3.5 10 8.4 0 5.4-4.8 8.2-10.4 8.2-3.5 0-7.55-1.65-10.85-5.5l.9-.8c3.35 2.45 6.05 3.45 9.8 3.45 4.3 0 7.3-2.25 7.3-6 0-3.6-3-6-6.95-6-5.15 0-11.4 3-17.61 6.6a115.72 115.72 0 017.71 15.4 22.94 22.94 0 011.7 6.6c0 1.4-.65 2.4-1.75 2.4-.8 0-1.36-.5-1.75-1.85-.36-1-.86-3.85-1.86-7.1A67.66 67.66 0 00137 21.6c-1.46.85-2.91 1.75-4.3 2.6-2.46 1.5-3.11 2.55-4.51 2.55s-3.6-1.5-4.4-2.85a5.4 5.4 0 01-.7-2.8l1-.45c.75 1.1 1.8 2.4 3 2.4a11.55 11.55 0 004.3-1.55l4.2-2.15A29.44 29.44 0 00133 15.7c-.91-1.1-2-1.9-1.46-3.85.55-2.55 2.6-2.25 4.15-2.35 4.15-.35 8.31-.55 9.76-.7.7-.05.89-.4.55-1.2-.6-1.15-2.2-2.65-5.41-3.55zm64.4 1.1a7.78 7.78 0 013.4-1c2 0 5.15 1.1 5.15 2.35s-.75 1.95-.85 3.2c0 .65 0 1.65-.1 2.85 8.25-.9 11.45-1.35 12.5-1.35 1.75 0 4.35 1 4.35 2.55 0 .9-.45 1.3-1.4 1.3-1.6 0-5.4-1.2-15.45-.35 0 2.4.05 5.2.05 7.7 1.45 1.5 2.1 3.85 2.1 6.75 0 9.15-6.9 14.75-16.55 17.15L198 44c6.1-2.25 11.1-5.8 12.9-10.7-4.9 2.25-8.9-1.6-8.9-6.7 0-3.65 2.45-7 6.55-7a8.85 8.85 0 012.05.25c-.05-1.5-.15-3.65-.25-5.9a112.52 112.52 0 00-13.25 2.45c-2.25.55-3.25 1.35-4.55 1.35-1.65 0-4-2.25-4.55-3.65a9.67 9.67 0 01-.5-3l1-.35c1.1 1.65 2 3.25 3.75 3.25s12.15-1.5 18-2.15c0-1.8-.15-3.5-.25-4.75-.1-1-.35-1.3-1.15-1.55a20 20 0 00-3.3-.35zm6.45 22.35c0-3.25-1.6-4.9-3.75-4.9-2.5 0-4.1 2.2-4.1 4.75 0 2.85 1.75 4.8 4.05 4.8 2.5 0 3.8-1.2 3.8-4.65zm42.03-11.35c0-2.7-.35-3.95-3.9-6.45l.45-.8a13.81 13.81 0 013.15.8c1.8.85 4.4 3.1 4.4 5.15s-1.7 5.35-1.7 10.5c0 6.35 2.9 9.6 5 10.7a1.18 1.18 0 001.75-.35 81.63 81.63 0 004.7-9.15l1.3.6c-1.15 3.3-2.75 7.5-3 9-.45 2.25.35 2.5.35 3.55 0 1.35-1.35 2.15-3.4 1.3-3.9-1.7-9.1-6-9.25-15.6-.15-3.55.15-7 .15-9.25zm23.3-1.25l.45-1.2a15.55 15.55 0 019.4 5 17.8 17.8 0 014.35 11.25c0 1.95-.65 2.8-2 2.8-.8 0-1.4-.6-1.6-1.75-.35-2.2-.75-6.45-2.85-10a14.47 14.47 0 00-7.75-6.1z" fill="#fff" data-name="レイヤー 1"/></g></svg>