<svg xmlns="http://www.w3.org/2000/svg" viewBox="0 0 817.01 75.66"><g data-name="レイヤー 2"><path d="M181.38 3.69a2.47 2.47 0 01-1.29.57v22.11a2.47 2.47 0 01-1.74.78h-.3v-2.52h-14v1.86c0 .3-.72.81-1.65.81h-.33V2l2.16 1h13.5l1.17-1.32zm-17.31.21v9.3h14V3.9zm14 19.86v-9.69h-14v9.69zM209.87 8a28.49 28.49 0 0012.42 12.1l-.06.3a2.45 2.45 0 00-2 1.65A28.44 28.44 0 01209.18 8v12.3h2.73l1.41-1.89s1.59 1.32 2.61 2.28c-.09.33-.39.48-.81.48h-5.94v5.61c0 .3-.84.75-1.62.75h-.39v-6.35h-6.33l-.24-.87h6.57V9.75a30.66 30.66 0 01-12.54 12.57l-.3-.45A33.43 33.43 0 00205.58 8h-10.65l-.27-.9h12.51V0l3.12.36c-.09.45-.33.75-1.11.87v5.88h8.28L219 5.16s1.74 1.35 2.79 2.37c-.06.33-.36.48-.78.48zm35.58 16.63c7.35-1.29 10.89-5.07 10.89-10.5s-4-8.76-8.91-8.76c-.36 0-.72 0-1.08.06a5.6 5.6 0 011.29 3.18 15 15 0 01-.93 4.83c-1.26 3.6-4.74 9.42-7.8 9.42-2 0-4.11-3.18-4.11-6.87a11.52 11.52 0 014-8.43 13 13 0 018.76-3.21c6.18 0 10.95 4.05 10.95 10.26 0 5-3.12 10.08-12.93 10.71zm-.21-19a11.41 11.41 0 00-5.67 3 9.65 9.65 0 00-3.09 6.93c0 2.88 1.32 5.07 2.55 5.07 2 0 4.74-4.74 6-7.59a14.12 14.12 0 001.08-4.62 5.24 5.24 0 00-.87-2.81zm38.67 1.03A50.46 50.46 0 00290 6c.84-.15 1-.69 1.53-.69.75 0 2.55 1.29 2.55 2.07 0 .57-1 .78-1.38 1.53a45.8 45.8 0 01-4.56 6.9c1.83 1.38 3.36 2.91 3.36 4a.94.94 0 01-1 1.08c-.84 0-1.38-1.29-3.66-3.63a36.61 36.61 0 01-13.47 9.3l-.42-.69A41.89 41.89 0 00285.53 16a25.43 25.43 0 00-6.33-4 28 28 0 01-5.91 4.5l-.48-.63c4.62-3.33 9.72-10.2 9.72-11.94 0-.54-.78-1-1.83-1.44l.15-.57a6.33 6.33 0 011.8.12c1.2.27 2.7 1.14 2.7 1.71s-.45.78-.87 1.56c-.27.45-.57.93-.87 1.38zm6.54.51c-1.05.09-3.84.54-4.89.78a9.26 9.26 0 01-1.65.36 2.23 2.23 0 01-1.11-.51 42.76 42.76 0 01-3 3.6 41.4 41.4 0 016.84 3.3 25.94 25.94 0 004.17-7c.12-.44-.03-.53-.36-.53zM319 2.55a7.23 7.23 0 012.19-.45c1.32 0 2.94 1 2.94 1.47 0 .69-.42.72-.54 1.86-.09.87-.15 2.22-.15 3.3a26.22 26.22 0 005.55-1c1.08 0 2.67.75 2.67 1.53a.72.72 0 01-.75.75 64.66 64.66 0 00-7.47.09c0 2.79 0 7.56.06 9.78.06 1.83.24 2.52.24 3.27 0 1.23-.9 2.55-1.77 2.55s-.81-1-1.41-1.56a17.7 17.7 0 00-3.24-1.8l.24-.54c1.2.3 2.73.66 3.54.78.39.06.6-.09.63-.42.12-1.26.06-6 0-9.54-2.76 4.14-8.46 8.79-13.65 11.1l-.45-.63c5-3.09 10.53-8.22 13-12.69-2.19.24-4.32.63-5.85.9a19.26 19.26 0 01-2.73.66c-.81 0-2.16-1.32-2.43-2a5.17 5.17 0 01-.21-1.68L310 8c.69 1.17 1.26 1.8 2 1.77 1.86 0 6.51-.57 9.69-.9 0-1.59 0-3.39-.06-4.44 0-.54-.21-.72-.75-.93a7.28 7.28 0 00-1.88-.32zm28.29 6.39v-.63A5 5 0 01349 8.1c1.05.09 3.18 1.23 3.18 2.13 0 .63-.57.84-.72 1.59a20 20 0 01-9.24 12.81l-.51-.63c4.77-3.72 7.8-10 7.8-13.59.03-.93-1.51-1.29-2.22-1.47zm5.88-3.84a5.44 5.44 0 012-.36c1.2 0 3.15 1.08 3.15 1.8s-.6.66-.69 1.59c-.15 1.38-.39 9.54-.39 11.79 0 .42.18.48.48.39a35 35 0 0011.28-8.1l.63.51a35.11 35.11 0 01-11.07 9.51c-.69.42-1.08 1.26-1.68 1.26s-1.86-1.44-1.86-2 .33-.72.42-1.92c.15-1.71.33-9.78.15-12.66 0-.75-.84-1-2.37-1.17zm31.69 7.83c0 4-.36 10.26-4.8 14.58l-.39-.36c2.91-4.44 3.24-9.75 3.24-14.22V8.34l2.31 1h-.36 11.49a38 38 0 001.86-4.95l3 .84c-.12.36-.51.6-1.14.57a24.78 24.78 0 01-2.94 3.54h6l1.44-1.77s1.65 1.29 2.67 2.19c-.09.33-.39.48-.81.48h-21.57zm-3.09-9.42h11V0l2.94.3c-.06.39-.3.66-1 .78v2.4h7.35l1.41-1.77s1.58 1.29 2.6 2.19c-.09.3-.39.45-.81.45H382zm22.8 20.34s1.62 1.23 2.64 2.16c-.09.3-.39.45-.81.45h-21.75l-.27-.84h10.11v-4.89h-6.36l-.24-.87h6.6V15.6h-5.25a15.47 15.47 0 01-3.54 3.9l-.45-.33a20.82 20.82 0 004-8.22l2.76.87c-.12.33-.45.57-1.08.57a23.54 23.54 0 01-1.11 2.31h4.71V11l2.88.33c0 .36-.27.63-1 .75v2.62h4.71l1.38-1.7a31.19 31.19 0 012.52 2.1c-.09.33-.33.48-.75.48h-7.86v4.26h4.23l1.36-1.63s1.5 1.17 2.46 2c-.09.33-.36.48-.78.48h-7.26v4.89h6.72zM388.22 4.38c5.19 2.28 3.09 6 1.29 4.44a9.61 9.61 0 00-1.65-4.26zm46.84 14.52c2.82 2.85 7.83 5.19 12 6.24l-.06.33a2 2 0 00-1.68 1.53 24.11 24.11 0 01-11.07-8.13H434v8c0 .15-.66.57-1.65.57H432v-7.76a32.19 32.19 0 01-12.42 7.26l-.27-.51a32.59 32.59 0 0010.77-7.53h-9.78l-.27-.87h12v-2.94h-8.79l-.24-.9h9v-2.76h-10.23l-.24-.9h7.41a8.19 8.19 0 00-2.13-3.93h-6.9l-.27-.87h10.14V.09l2.76.3c0 .39-.3.66-.9.75v4.59h3.06V.09l2.82.3c-.06.39-.33.66-1 .78v4.56h1.08a36 36 0 003.15-5l2.76 1c-.18.36-.57.54-1.23.45a24.45 24.45 0 01-3.81 3.57h4.29l1.35-1.68s1.56 1.17 2.55 2.1c-.09.33-.39.45-.81.45h-7.23l1.59.48a1 1 0 01-1.17.54 25.73 25.73 0 01-2.85 2.91h5.07l1.32-1.62a31.22 31.22 0 012.46 2c-.06.33-.36.48-.78.48H434v2.76h5.76l1.29-1.53s1.41 1.11 2.34 1.95c-.09.33-.39.48-.81.48H434V18h8.4l1.41-1.71s1.56 1.2 2.55 2.13c-.09.33-.39.45-.81.45zM423.57.78c5.73 2 4.2 5.85 2.4 4.5A8.57 8.57 0 00423.21 1zm4.32 5.82c2.79 1.35 3.06 3.21 2.46 3.93h4.83a31.52 31.52 0 002.16-3.93zm42.26 18.03c7.35-1.29 10.85-5.07 10.85-10.5s-4-8.76-8.91-8.76c-.35 0-.72 0-1.08.06a5.6 5.6 0 011.29 3.18 15 15 0 01-.93 4.83c-1.26 3.6-4.74 9.42-7.79 9.42-2 0-4.11-3.18-4.11-6.87a11.52 11.52 0 014-8.43 13 13 0 018.75-3.21c6.18 0 10.95 4.05 10.95 10.26 0 5-3.12 10.08-12.92 10.71zm-.2-19a11.33 11.33 0 00-5.67 3 9.65 9.65 0 00-3.09 6.93c0 2.88 1.32 5.07 2.54 5.07 2 0 4.74-4.74 6-7.59a14.12 14.12 0 001.08-4.62 5.24 5.24 0 00-.81-2.81zm52.42 19.09c.69.21.87.45.87.87 0 .87-.93 1.2-5.37 1.2h-2.94c-2.28 0-2.79-.51-2.79-2v-6.7h-4.71c-.48 3.51-2.46 7.14-9.9 9.42l-.27-.48c5.88-2.58 7.74-5.67 8.19-8.94h-7.53l-.27-.87h7.92v-5.11h-3.51l-.24-.81a24 24 0 01-5.46 2.82l-.27-.42a23.31 23.31 0 0010.59-10.8h-7.08l-.27-.9h7.41l1.35-1.19 2.19 1.95c-.24.3-.57.36-1.29.39a21.2 21.2 0 01-7.11 8.13h12.54l1.26-1.65s1.44 1.17 2.34 2a.72.72 0 01-.78.48h-3.18v5.1h4.14l1.41-1.77s1.56 1.23 2.58 2.16c-.09.33-.36.48-.78.48h-7.35v6.22c0 .51.12.69 1.23.69h5.16a.65.65 0 00.6-.36c.18-.45.54-2.07.87-3.66h.36zm-23.7-20.31c6.15 1.14 4.77 5.31 2.7 4a7.49 7.49 0 00-3-3.75zm13.47 12.81v-5.1h-4.59v5.14zm11.37-12.06c-.21.27-.48.39-1.11.24a32 32 0 01-4.77 2.76 23.68 23.68 0 006.48 3.33l-.06.33a2.27 2.27 0 00-1.86 1.62A21 21 0 01510.67.33l.51-.3A16.73 16.73 0 00514 4.77a32.68 32.68 0 003.75-4.14l2.49 1.5c-.21.3-.45.39-1.11.21a30.24 30.24 0 01-4.68 3A19.1 19.1 0 00517 7.68a33.25 33.25 0 004-4zM547 6.75a2.62 2.62 0 01-1.35.3 26 26 0 01-3.24 4.8c5.76 1.77 4.56 5.43 2.67 4.29a11.26 11.26 0 00-2.79-3.6v14.31c0 .18-.66.69-1.62.69h-.3V14a31.64 31.64 0 01-5.19 4.17l-.39-.33a34.28 34.28 0 008.7-11.16h-7.71l-.24-.84h4.77V.12l3 .33c-.06.42-.33.72-1.08.81v4.62h1.38l1.32-1.26zm13.71 10.41s1.56 1.23 2.52 2.1a.7.7 0 01-.75.48h-7.11v7.08a1.87 1.87 0 01-1.65.66h-.33v-7.74h-7.19l-.24-.87h7.47v-5.7h-5.82l-.24-.9h6.06V7.44h-6l-.24-.87h8.52A50.18 50.18 0 00558 0l3.09.87a1 1 0 01-1.08.6 40.2 40.2 0 01-3.6 5.1H559l1.35-1.65s1.53 1.2 2.46 2c-.09.33-.36.48-.78.48h-6.66v4.83h3l1.35-1.62s1.5 1.14 2.46 2c-.09.33-.36.48-.78.48h-6v5.7h4zM548.66.24c6 3 4.05 7.23 2 5.58a12.91 12.91 0 00-2.4-5.4zm37.9 24.39c7.35-1.29 10.89-5.07 10.89-10.5s-4-8.76-8.91-8.76c-.36 0-.72 0-1.08.06a5.6 5.6 0 011.29 3.18 15 15 0 01-.93 4.83c-1.26 3.6-4.74 9.42-7.8 9.42-2 0-4.11-3.18-4.11-6.87a11.52 11.52 0 014-8.43 13 13 0 018.76-3.21c6.18 0 11 4.05 11 10.26 0 5-3.12 10.08-12.93 10.71zm-.21-19a11.41 11.41 0 00-5.67 3 9.65 9.65 0 00-3.09 6.93c0 2.88 1.32 5.07 2.55 5.07 2 0 4.74-4.74 6-7.59a14.12 14.12 0 001.08-4.62 5.24 5.24 0 00-.87-2.81zm31.37 13.9l4.53-2 .18.42c-2.1 1.35-5 3.39-8.85 5.67a1.27 1.27 0 01-.57.81l-1.2-2.55c.84-.27 2.28-.81 4-1.53V10h-3.54l-.21-.9h3.75V.69l3 .33c-.09.42-.33.69-1.11.78v7.32h1l1.3-1.74s1.47 1.29 2.31 2.16a.68.68 0 01-.75.48h-3.84zm21.09 4.71c.81.27 1 .51 1 .93 0 1.08-1.29 1.35-7.77 1.35h-4.54c-3 0-4-.57-4-2.7V11.91l-3.72 1.41-.57-.72 4.33-1.6V2.37l3 .36c-.06.39-.36.72-1.08.84v6.69l4.05-1.5V.09l2.91.36c-.06.42-.3.72-1 .84V8l4.08-1.53.27-.09 1-1.17L639 7.05a1.86 1.86 0 01-1.17.48c-.09 7.89-.45 10.83-1.41 11.85a3.3 3.3 0 01-2.49 1 1.81 1.81 0 00-.36-1.38 3.7 3.7 0 00-1.56-.57v-.54c.69.06 1.77.15 2.25.15s.6-.06.78-.27c.57-.63.81-3.54.93-10.47L631.34 9v12.51c0 .27-.81.75-1.53.75h-.33V9.69l-4.05 1.53v12.21c0 .9.33 1.23 2.22 1.23h4.47c2.1 0 3.6 0 4.26-.09a1 1 0 00.84-.45 29.42 29.42 0 001.14-4.56h.39zM651.62 20c3.6 1.14 5.49 2.67 6.48 4.11a3.3 3.3 0 01.72 2 1.2 1.2 0 01-1.23 1.35c-.63 0-1-.36-1.44-1.26a13.87 13.87 0 00-4.86-5.7zM14.79 57.78c1.08 5.67 4.26 11.73 13.21 15.81l-.06.33a2.08 2.08 0 00-2.07 1.65C17.49 71 15.09 63.81 14.22 57.81c-.84 7-3.6 13.2-13.89 17.73L0 75c8.76-4.68 11.34-10.53 12.12-17.22H.57l-.27-.87h11.91c.24-2.79.24-5.73.24-8.79l3.21.33c-.09.45-.33.75-1 .87-.06 2.58-.09 5.13-.33 7.59H23l1.65-2.07s1.83 1.44 2.94 2.46c-.06.33-.33.48-.78.48zM50 51c-.24.24-.66.3-1.35.33a72.22 72.22 0 01-4 6.81c3 2.25 4 4.71 4 6.93 0 2.73-1 4.05-3.84 4.2a3 3 0 00-.36-1.56 3.26 3.26 0 00-1.45-.45v-.45h2.07a1.3 1.3 0 00.81-.18c.51-.27.78-.9.78-2a9.16 9.16 0 00-2.76-6.39c.72-1.8 1.83-5.16 2.55-7.44H42.3v24.11a1.73 1.73 0 01-1.56.69h-.33V49l2.25 1h3.72l1.29-1.23zm15.42 7c-.21.24-.54.33-1.2.39a27.1 27.1 0 01-4.5 10 19.68 19.68 0 007.44 5.07l-.09.3A2.43 2.43 0 0065 75.3a18.61 18.61 0 01-6.45-5.52A22.11 22.11 0 0150 75.39l-.3-.42a22 22 0 007.92-6.51 27.47 27.47 0 01-3.48-10.38h-1.52v1.47c0 5.73-.72 11.94-6.93 16l-.42-.36c4.65-4.2 5.46-9.6 5.46-15.63V49.29l2.28 1h9.39l1.44-1.77s1.59 1.26 2.61 2.19c-.09.33-.39.48-.81.48h-13v6.06H62L63.24 56zm-10.62.09A22.28 22.28 0 0058.65 67a26.67 26.67 0 003.45-8.94zm29.95 6.47a2.76 2.76 0 112.76-2.76 2.75 2.75 0 01-2.76 2.76zm29.55.63c-.24.27-.54.33-1.23.36a17.22 17.22 0 01-10.14 9.06l-.27-.42a17.08 17.08 0 008.22-8.82h-7.44l-.27-.87h7.71l1.29-1.17zm15.51-1.71c-.24.3-.48.42-1.14.21a38.59 38.59 0 01-6.78 4.31 24.13 24.13 0 008.52 4.5l-.06.33a2.24 2.24 0 00-1.65 1.68c-4.89-2.22-9.06-5.52-11.28-11.76v9.93c0 1.53-.39 2.61-3.27 2.85a1.65 1.65 0 00-.69-1.32 6.82 6.82 0 00-2.85-.75V73s3.42.21 4.14.21c.57 0 .72-.15.72-.6V61.17h-6.12v.72a2.37 2.37 0 01-1.65.63h-.3v-12l2.1 1h5c.27-1 .69-2.58.87-3.63l3.36.72c-.12.42-.51.66-1.11.66-.54.63-1.38 1.53-2 2.25h7.8l1.11-1.23 2.47 1.88a2.46 2.46 0 01-1.29.6v8.88a2.58 2.58 0 01-1.65.66h-.3v-1.14h-6.3v.45a14.94 14.94 0 003.93 5.91 38.69 38.69 0 005.94-5.61zm-20.46-11.1v3.51h14.37v-3.51zm0 7.92h14.37v-3.54h-14.37zM146 55.68c1.29 4.5-.09 7.2-1.29 8.37-.81.75-2 1-2.43.33s0-1.23.54-1.71c1.56-1.05 2.94-3.78 2.64-7zm5.22-6.33c-.09.39-.3.69-1.08.81v9.93c0 6.12-1.35 11.82-7.35 15.39l-.39-.42c4.8-3.69 5.85-9 5.85-15v-11zm2.16 14.25c.12-2.19-1.11-5-2.25-6.75l.39-.21c5.87 4.02 3.74 8.85 1.85 6.96zm6.12-13.8c-.09.42-.33.72-1.08.84v23.67c0 .3-.84.78-1.53.78h-.39V49.5zm2.85 14c0-2.37-1.71-5.25-3.27-7l.36-.21c6.95 3.77 4.97 9.02 2.9 7.16zm5.88-14.37c-.06.39-.3.72-1.08.84v24.46c0 .3-.81.78-1.53.78h-.39V49.05zm24.65 5.23A50.69 50.69 0 00199 54c.83-.15 1-.69 1.53-.69.75 0 2.54 1.29 2.54 2.07 0 .57-1 .78-1.37 1.53a46.63 46.63 0 01-4.57 6.9c1.83 1.38 3.36 2.91 3.36 4a.94.94 0 01-1 1.08c-.83 0-1.38-1.29-3.65-3.63a36.7 36.7 0 01-13.47 9.3l-.42-.69A42 42 0 00194.5 64a25.43 25.43 0 00-6.33-4 28 28 0 01-5.91 4.5l-.48-.63c4.62-3.33 9.72-10.2 9.72-11.94 0-.54-.79-1-1.83-1.44l.15-.57a6.33 6.33 0 011.8.12c1.19.27 2.69 1.14 2.69 1.71s-.44.78-.86 1.56c-.27.45-.57.93-.87 1.38zm6.54.51c-1 .09-3.84.54-4.89.78a9.64 9.64 0 01-1.65.36 2.23 2.23 0 01-1.11-.51 42.76 42.76 0 01-3 3.6 41.8 41.8 0 016.84 3.3 25.94 25.94 0 004.17-7.05c.11-.39-.03-.48-.36-.48zM228 50.55a7.23 7.23 0 012.19-.45c1.32 0 2.94 1 2.94 1.47 0 .69-.42.72-.54 1.86-.09.87-.15 2.22-.15 3.3a26.22 26.22 0 005.55-1c1.08 0 2.67.75 2.67 1.53a.72.72 0 01-.75.75 64.66 64.66 0 00-7.47.09c0 2.79 0 7.56.06 9.78.06 1.83.24 2.52.24 3.27 0 1.23-.9 2.55-1.77 2.55s-.81-1-1.41-1.56a17.7 17.7 0 00-3.24-1.8l.24-.54c1.2.3 2.73.66 3.54.78.39.06.6-.09.63-.42.12-1.26.06-6 0-9.54-2.76 4.14-8.46 8.79-13.65 11.1l-.45-.63c5-3.09 10.53-8.22 13-12.69-2.19.24-4.32.63-5.85.9a19.26 19.26 0 01-2.78.7c-.81 0-2.16-1.32-2.43-2a5.17 5.17 0 01-.21-1.68l.57-.24c.69 1.17 1.26 1.8 2 1.77 1.86 0 6.51-.57 9.69-.9 0-1.59 0-3.39-.06-4.44 0-.54-.21-.72-.75-.93a7.28 7.28 0 00-1.92-.36zm28.26 6.39v-.63a5 5 0 011.74-.21c1.05.09 3.18 1.23 3.18 2.13 0 .63-.57.84-.72 1.59a20 20 0 01-9.24 12.81l-.51-.63c4.77-3.72 7.8-10 7.8-13.59 0-.93-1.51-1.29-2.25-1.47zm5.88-3.84a5.44 5.44 0 012-.36c1.2 0 3.15 1.08 3.15 1.8s-.6.66-.69 1.59c-.15 1.38-.39 9.54-.39 11.79 0 .42.18.48.48.39a35 35 0 0011.31-8.1l.63.51a35.11 35.11 0 01-11.07 9.51c-.69.42-1.08 1.26-1.68 1.26s-1.86-1.44-1.86-2 .33-.72.42-1.92c.15-1.71.33-9.78.15-12.66 0-.75-.84-1-2.37-1.17zm39.67 19.53c7.35-1.29 10.89-5.07 10.89-10.5s-4-8.76-8.91-8.76c-.36 0-.72 0-1.08.06a5.6 5.6 0 011.29 3.18 15 15 0 01-.93 4.83c-1.26 3.6-4.74 9.42-7.8 9.42-2 0-4.11-3.18-4.11-6.87a11.52 11.52 0 014-8.43 13 13 0 018.76-3.21c6.18 0 10.95 4 10.95 10.26 0 5-3.12 10.08-12.93 10.71zm-.21-19a11.41 11.41 0 00-5.67 3 9.65 9.65 0 00-3.09 6.93c0 2.88 1.32 5.07 2.55 5.07 2 0 4.74-4.74 6-7.59a14.12 14.12 0 001.08-4.62 5.24 5.24 0 00-.87-2.81zm36.07-4.58c-.15.33-.51.57-1.17.54a42.66 42.66 0 01-2.88 6.41l1.2.45c-.09.27-.36.48-.9.57v17.83a2.24 2.24 0 01-1.59.66H332V58.77a28.21 28.21 0 01-3.75 4.62l-.42-.3a49.49 49.49 0 006.75-15zm15.48 8.88s1.65 1.29 2.64 2.22a.7.7 0 01-.75.48h-9.87a105.35 105.35 0 01-5.07 11c3.15-.27 7.14-.66 11.31-1.11a40.93 40.93 0 00-3.63-5.52l.42-.24c8.73 6.18 7.26 11.91 4.89 9.93a16.12 16.12 0 00-1.35-3.57c-3.54.81-8.16 1.77-14.49 3a1.18 1.18 0 01-.78.6L335.24 72c1 0 2.31-.12 3.93-.27 1.08-2.88 2.58-7.74 3.42-11.07h-7.08l-.21-.9h16.38zM338 52.38l-.21-.87h11.76l1.41-1.83s1.65 1.29 2.64 2.25q-.13.45-.81.45zm29.37 20.46a33.63 33.63 0 001.77-7.8l2.7.72a1 1 0 01-1.08.63 21 21 0 01-2.91 6.69zm7.68-23.67c-.12.33-.48.54-1.11.51a35.92 35.92 0 01-3.3 4.59c2.16 1.74 1 3.81-.42 2.82a8.46 8.46 0 00-2.79-4l.3-.24a9.13 9.13 0 012.28 1c.69-1.62 1.5-3.81 2.1-5.76zm0 8.76c5.22 3.12 3.42 6.81 1.68 5.28a8.17 8.17 0 00-.48-1.92c-.63.15-1.32.3-2.1.45v13.17a1.9 1.9 0 01-1.59.6h-.27V62.13c-1 .21-2.07.42-3.27.66a1 1 0 01-.72.63l-.81-2.25c.69 0 1.71-.06 2.94-.12a106.39 106.39 0 004.89-9.51l2.79 1.29c-.18.33-.57.51-1.2.42A77.45 77.45 0 01371.3 61l4.68-.33a20 20 0 00-1.32-2.55zm.45 7c4.68 3.45 2.73 7.14 1.11 5.52a13.7 13.7 0 00-1.53-5.37zm.66 10.2c5.67-3.06 6.66-8.34 6.36-13.86l3.12.24c-.06.48-.42.72-1 .81-.15 5.37-1.47 10.47-8.19 13.23zm2.1-22.74h6.69v-4.06l2.94.3c-.06.39-.3.66-1 .78v3h4.26l1.38-1.74s1.59 1.26 2.55 2.13c-.09.33-.36.48-.78.48h-7.65a47.49 47.49 0 01-3.39 5.13c2.13-.12 4.65-.27 7.29-.45A26.12 26.12 0 00388 55l.36-.24c7.44 3.39 6.12 8 4 6.57a8.94 8.94 0 00-1.32-2.7c-2.7.51-6.27 1.11-10.86 1.83a1 1 0 01-.72.63l-1-2.46c.87 0 2.16-.06 3.72-.15a47.89 47.89 0 002-5.19h-5.7zm16.5 20.34c.6.21.69.45.69.84 0 .78-.78 1.2-3.81 1.2h-1.83c-1.8 0-2.16-.51-2.16-1.83V61.11l2.79.33c-.06.36-.33.63-.87.72v10.26c0 .39.06.54.66.54h2.79c.21 0 .33-.09.45-.36.15-.48.51-2.52.81-4.32h.39zm22.53-12.88c-1.12.69-2.47 1.56-4 2.52v10.29c0 1.62-.3 2.58-2.88 2.85a2 2 0 00-.59-1.41 4 4 0 00-2.23-.72v-.51s2.61.21 3.18.21.66-.15.66-.6v-9c-1 .6-2.1 1.26-3.27 1.92a1.17 1.17 0 01-.54.84l-1.13-2.49c1-.3 2.75-1 4.94-1.92V55.8h-4.28l-.22-.9h4.5v-6.84l3 .33c-.07.42-.37.72-1.12.81v5.7h1l1.23-1.65s1.44 1.2 2.28 2.07c-.09.33-.38.48-.8.48h-3.7v5.28c1.23-.51 2.55-1 3.84-1.62zm16 .78c-.24.3-.54.36-1.26.39a22.76 22.76 0 01-5.34 8.28 24.45 24.45 0 008.31 4.23l-.06.3a2.37 2.37 0 00-2 1.62 21.62 21.62 0 01-7.62-5 27.61 27.61 0 01-10.7 5l-.22-.45a25.87 25.87 0 009.87-5.7 22.16 22.16 0 01-4.27-8.61h-1.81l-.27-.87h6.36v-5.34h-6.66l-.24-.87h6.9v-5.4l3 .33c-.06.42-.33.72-1.08.84v4.23h4.29l1.41-1.77s1.62 1.23 2.61 2.16a.72.72 0 01-.78.48h-7.53v5.34h3.48l1.41-1.26zm-12.69.06a18.56 18.56 0 004.8 7.47 20.94 20.94 0 004.32-7.47zm33.55-4.62c-.19.33-.45.45-1.14.33a35.09 35.09 0 01-2.19 3.39l1.2.45c-.09.27-.4.48-.9.54v14.1a2.08 2.08 0 01-1.53.63h-.36V61.86a29.62 29.62 0 01-3.45 3.54l-.39-.36a37.76 37.76 0 005.9-10.38zm-.3-6.48c-.18.33-.45.45-1.11.33a29.9 29.9 0 01-6.75 6.9l-.3-.36a31.65 31.65 0 005.4-8.25zm-1.2 20.73a39.43 39.43 0 002.52-11.88l2.87.48c-.08.42-.38.69-1 .75-.72 4.23-2 8.25-3.88 11zm7.68-15v19.29c0 .27-.81.75-1.54.75h-.35v-20h-4.62l-.24-.87h4.86v-6l2.94.33c-.09.42-.34.72-1.05.81v4.83h2.1l1.28-1.46s1.48 1.05 2.41 1.86a.69.69 0 01-.75.48zm1.5 2.85c5.28 6.42 2.9 11.64 1.53 9.6-.09-2.22-.48-6.48-2-9.36zm.12-8.91c4.52 1.71 2.91 4.71 1.34 3.48a7.84 7.84 0 00-1.67-3.27zM471 56s1.59 1.26 2.58 2.19a.71.71 0 01-.78.48h-2.51v14c0 1.53-.37 2.61-3 2.88a1.79 1.79 0 00-.54-1.38 4.46 4.46 0 00-2.34-.72V73s2.74.18 3.27.18.64-.15.64-.57v-14h-3.66l-.25-.9h5.16zm-5.33-4.08l-.25-.87h3.87l1.33-1.74s1.59 1.23 2.51 2.13c-.06.33-.33.48-.75.48zm26.94 10.36c-.63 1.56-2 5-2.34 6.09a8 8 0 00-.51 2.16c0 .87.6 1.83.6 2.55a.8.8 0 01-.87.9c-.54 0-1-.48-1.41-1.11a13.62 13.62 0 01-1.74-6.72 26.88 26.88 0 011.44-7.92 18.38 18.38 0 00.75-3.48c0-1.08-.69-2.07-1.68-3.15l.48-.39a7.07 7.07 0 011.53.9c.63.51 1.95 1.89 1.95 3.15 0 .69-.42 1.23-1.14 3a17.81 17.81 0 00-1.92 7.35 4.61 4.61 0 00.48 2.58c.18.36.39.42.66 0 .66-1 2.34-4.8 3-6.33zm3 2.58a11.59 11.59 0 00.87 2.61c1 1.77 2.61 2.82 6.3 2.82a28.67 28.67 0 005.1-.54c.81 0 1.59.27 1.59 1 0 1.2-2.79 1.56-6 1.56-4.68 0-7.23-1.56-8.13-4.62a9.58 9.58 0 01-.39-2.67zm.33-9.39a15.38 15.38 0 017.17-1.86 10 10 0 014.17.63c.63.27.9.69.9 1s-.18.66-.81.75a8.13 8.13 0 00-2.46.57 48.87 48.87 0 00-4.91 2.78l-.51-.54c1.35-1 3.48-2.52 4.11-3.06.36-.33.33-.54-1.65-.54a18.8 18.8 0 00-5.7 1zm38.76 3.15c0 1.38.12 5.34.3 7.71 0 .27.06.54.09.78a17.8 17.8 0 014.32 1.38c1.86.84 4.41 2.4 4.41 4a.79.79 0 01-.87.87c-.9 0-1.86-1.71-4.74-3.33a12.61 12.61 0 00-2.91-1.2c0 .39.06.81.06 1.32 0 2.52-1.89 4.2-5.55 4.2-3.12 0-5.31-1.35-5.31-3.48 0-2.79 3.48-4 7.08-4 .69 0 1.35 0 1.95.09-.09-2.28-.36-6.42-.36-8.46s-.06-5.28-.12-5.88a1.05 1.05 0 00-.81-1.08 9.33 9.33 0 00-2.1-.3l-.06-.63a6.8 6.8 0 012.22-.45c1.56 0 3.42 1 3.42 1.71s-.36.93-.6 1.83a23.45 23.45 0 00-.39 3.6h.87a16.54 16.54 0 003.87-.6 11.08 11.08 0 011.89-.66c1.17 0 1.74.39 1.74 1.05 0 .36-.33.72-1.11 1a21.25 21.25 0 01-5.28.81 5.48 5.48 0 01-2-.57zm-1.11 9.78a18.14 18.14 0 00-2.91-.24c-2.88 0-5 1.08-5 2.52 0 1 1.11 1.89 3.36 1.89 3.71 0 4.52-1.32 4.55-4.17zm26.57-19.11l.39-.39a4.88 4.88 0 013.45 3.42 7 7 0 01-.39 1.77 23.93 23.93 0 00-.69 3c-.12.63.12.66.45.06 1.41-2.49 3.51-4.29 5.46-4.29 3.6 0 5.25 3.87 5.25 9.21 0 6.21-2.76 11.22-10.8 13.32l-.33-.69c7.26-2.91 9-7.47 9-12.84 0-4.89-1.35-7.8-3.45-7.8-1.41 0-3.3 1.35-4.35 3.36a12.07 12.07 0 00-1.56 5.73c0 1.2.18 2.07.18 3.06a.86.86 0 01-.84 1 1.06 1.06 0 01-1-.75 8.37 8.37 0 01-.45-2.79c0-3.24 1.44-9 1.44-10.65s-.5-2.29-1.76-3.73zM614 71.46s1.77 1.32 2.85 2.34c-.09.33-.36.48-.78.48h-26.49l-.24-.9h12.6v-8.73h-9l-.24-.84h9.24v-7.62h-6.75a26.61 26.61 0 01-5.64 7l-.39-.3a39.14 39.14 0 006.66-13.74l3.15 1c-.12.36-.51.63-1.17.6a36.06 36.06 0 01-2.1 4.62h6.24v-7.28l3.12.36c-.09.42-.33.72-1 .84v6h6.78l1.53-1.86a33.39 33.39 0 012.79 2.25c-.09.33-.39.48-.81.48H604v7.62h5.67l1.56-1.89S613 63.24 614 64.2c-.06.3-.36.45-.78.45H604v8.73h8.46zM641.17 61a24.57 24.57 0 004.32-.93 12 12 0 011.89-.66c.63 0 1.41.3 1.41.93 0 .45-.33.75-.87 1a34.26 34.26 0 01-6.69 1.32c.09 2 .27 3.63.42 5a16 16 0 017.14 3.18 2.25 2.25 0 011 1.65.77.77 0 01-.81.87c-.54 0-.87-.3-1.41-.81a15.1 15.1 0 00-5.82-3.27c0 .42.06.81.06 1.2 0 2.55-2.1 4-5.43 4-2.94 0-5.1-1.35-5.1-3.48 0-2.37 3.09-3.69 6.84-3.69q1 0 1.89.09c-.06-1.2-.15-2.82-.21-4.65-1.23.12-2.46.18-3.66.18-4.2 0-6.27-1.95-3.06-5.13l.63.36c-1.92 2.49-.66 3.21 2.34 3.21a30.78 30.78 0 003.69-.21v-4.22c-1.5.15-3.06.27-4.5.27-2.79 0-4.56-.72-6.09-3.12l.51-.42a6.81 6.81 0 005.31 2 37.72 37.72 0 004.8-.36c.06-1.53.09-2.7.09-3 0-.6-.12-.75-.6-.93a11.73 11.73 0 00-2.19-.33l-.09-.63a4.93 4.93 0 012.1-.48c1.29 0 3.15.84 3.15 1.62s-.39.87-.54 1.65c-.09.51-.18 1.11-.27 1.83a35.66 35.66 0 004.58-1.1 8.53 8.53 0 011.74-.6c.72 0 1.56.3 1.56.93s-.42.75-1 1a43.73 43.73 0 01-7.05 1.5c-.06 1-.12 2.19-.12 3.6zm-1.11 7.86a16.21 16.21 0 00-2.73-.24c-2.94 0-4.83 1.08-4.83 2.31 0 1 1.08 1.92 3.09 1.92 3.63-.01 4.41-1.15 4.47-4zm51.51-.31c-1.32 1.86-3.6 3.72-6.15 3.72-2.13 0-3.6-1.29-3.6-3.93 0-3.33 1.26-6.81 1.26-10.05 0-1.89-.54-2.88-2-2.88-2.55 0-6.06 2.7-9.06 6a60 60 0 00.31 8.85c.05.75.14 1.38.14 2 0 1-.42 2.43-1.26 2.43-.54 0-.84-.33-1-1a8.5 8.5 0 00-.51-1.89 26.72 26.72 0 00-2.21-3.9l-2 2.73c-.36.51-.62.9-1.08.9s-.78-.45-.78-1a1.9 1.9 0 01.64-1.5 74.77 74.77 0 006.56-8.52c.09-.87.15-1.68.28-2.49-1 .54-2.08 1.14-2.83 1.56s-.92 1.08-1.43 1.08a3.36 3.36 0 01-2.47-2.13 4.22 4.22 0 01-.11-1.32l.53-.15c.45.9.9 1.41 1.44 1.41.75 0 3.84-1.47 5.07-2.13.24-1.92.45-3.48.48-4.35 0-.69-.15-.81-.68-1a14 14 0 00-1.59-.42v-.6a5.53 5.53 0 011.83-.33c1.23 0 2.76 1.32 2.76 2.19 0 .63-.36.9-.69 2.1-.15.45-.35 1.23-.6 2.22.48.33 1.09.9 1.09 1.2s-.34.6-.7 1.08a11.49 11.49 0 00-1 1.26c2.85-2.58 6.39-5.31 9.45-5.31 2.07 0 3.36 1.26 3.36 4.05 0 2.34-1.29 6.63-1.29 9.69 0 1.62.69 2.28 2.13 2.28A7.15 7.15 0 00691 68zm-20.91-5.34c-.81 1.26-1.79 2.64-2.73 4 .85 1.17 1.92 2.61 2.35 3.12.26.3.42.27.42-.21.02-1.45-.13-4.21-.04-6.91zM715.29 61a24.57 24.57 0 004.32-.93 12 12 0 011.89-.66c.63 0 1.41.3 1.41.93 0 .45-.33.75-.87 1a34.26 34.26 0 01-6.69 1.32c.09 2 .27 3.63.42 5a16 16 0 017.14 3.18 2.25 2.25 0 011 1.65.77.77 0 01-.81.87c-.54 0-.87-.3-1.41-.81a15.1 15.1 0 00-5.82-3.27c0 .42.06.81.06 1.2 0 2.55-2.1 4-5.43 4-2.94 0-5.1-1.35-5.1-3.48 0-2.37 3.09-3.69 6.84-3.69q1 0 1.89.09c-.06-1.2-.15-2.82-.21-4.65-1.23.12-2.46.18-3.66.18-4.2 0-6.27-1.95-3.06-5.13l.63.36c-1.92 2.49-.66 3.21 2.34 3.21a30.78 30.78 0 003.69-.21v-4.22c-1.5.15-3.06.27-4.5.27-2.79 0-4.56-.72-6.09-3.12l.51-.42a6.81 6.81 0 005.31 2 37.72 37.72 0 004.8-.36c.06-1.53.09-2.7.09-3 0-.6-.12-.75-.6-.93a11.73 11.73 0 00-2.19-.33l-.09-.63a4.93 4.93 0 012.1-.48c1.29 0 3.15.84 3.15 1.62s-.39.87-.54 1.65c-.09.51-.18 1.11-.27 1.83a35.66 35.66 0 004.56-1.05 8.53 8.53 0 011.74-.6c.72 0 1.56.3 1.56.93s-.42.75-1 1a43.73 43.73 0 01-7.05 1.5c-.06 1-.12 2.19-.12 3.6zm-1.11 7.86a16.21 16.21 0 00-2.73-.24c-2.94 0-4.83 1.08-4.83 2.31 0 1 1.08 1.92 3.09 1.92 3.63-.01 4.44-1.15 4.47-4zm24.74-17.35v-.63a8.31 8.31 0 012-.21c1.41.06 3.48 1.59 3.48 2.43 0 .63-.57.84-.84 2.25a79.13 79.13 0 00-1 11.76c0 3.81 1.11 5.25 4.41 5.25a13.92 13.92 0 0011.37-6.42l.66.45a13.39 13.39 0 01-12 8c-4 0-6.09-2-6.09-7.08 0-4.65.72-11.7.72-13.44 0-1.08-.18-1.41-.69-1.71a6 6 0 00-2.02-.65zM776.9 50a6.41 6.41 0 011.89-.21c1.08.06 3 .78 3 1.47a13.77 13.77 0 01-.78 2.4c-.15.54-.33 1.29-.57 2.13a27.61 27.61 0 003.78-1.59 2.78 2.78 0 011-.42c.51 0 1.29.3 1.29.84s-.33.87-1.44 1.35a42.44 42.44 0 01-5.19 1.68c-.42 1.47-.93 3.09-1.47 4.53a72.4 72.4 0 01-4.62 11c-.42.69-.72 1-1.32 1s-.87-.54-.87-1.23.27-.93.72-1.74a40.81 40.81 0 004.68-9.56c.39-1.11.78-2.37 1.14-3.63a19 19 0 01-3.45.36c-1.74 0-3.18-.66-4.17-2.94l.51-.39c1.29 1.14 2.19 1.71 3.66 1.71a17.12 17.12 0 003.9-.48 29.48 29.48 0 00.75-3.9 1 1 0 00-.63-1.2 13.51 13.51 0 00-1.89-.51zm5.28 16.77a8.61 8.61 0 001 2.85c1 1.62 2.88 2.31 5.46 2.31a28.28 28.28 0 004.83-.57c.69 0 1.47.33 1.47 1s-.78.93-1.65 1.11a18.58 18.58 0 01-4 .39c-3.48 0-6.24-1-7.17-3.69a8.55 8.55 0 01-.66-3.33zm1.71-7a15.31 15.31 0 015.43-1.08 10 10 0 014 .72c.69.36 1.08.81 1.08 1.32s-.51.69-1.23.75a5.62 5.62 0 00-1.77.48 36.48 36.48 0 00-3.36 1.56l-.39-.54a35 35 0 003.15-2.19c.24-.18.15-.33-.12-.42a8.15 8.15 0 00-2.64-.36 18.4 18.4 0 00-4 .48zm24.69 11.66a4.22 4.22 0 114.23 4.23 4.24 4.24 0 01-4.23-4.23zm1 0a3.2 3.2 0 106.39 0 3.2 3.2 0 00-6.39 0z" fill="#fff" data-name="レイヤー 1"/></g></svg>