<svg xmlns="http://www.w3.org/2000/svg" viewBox="0 0 454.56 51.6"><g data-name="レイヤー 2"><path d="M11.28 14.6a1 1 0 000-.15v-.17a2.82 2.82 0 00-.09-.67 5.44 5.44 0 00-.31-.91L9.74 10h-6.2l-1.13 2.58c-.1.24-.2.5-.31.79a2.45 2.45 0 00-.17.87 1.25 1.25 0 000 .21v.11H0a3.33 3.33 0 00.44-.66A12.2 12.2 0 001 12.71L6.61.3h.78l5.31 11.94c.12.28.25.55.38.81s.26.5.38.71.22.38.31.53a2 2 0 00.19.27zM5 9.14h4.38L6.59 2.9 3.9 9.14zM28.79 14a1.74 1.74 0 00.59-.1 2.7 2.7 0 00.55-.3 4 4 0 00.52-.42 5.34 5.34 0 00.46-.5h.1l-.63 1.58-.29.14a2.74 2.74 0 01-.41.15 3.57 3.57 0 01-.56.13 4.33 4.33 0 01-.76 0 2.79 2.79 0 01-2-.7 2.94 2.94 0 01-.73-2.21V5.36L24 5.42v-.86h1.64V3.33c0-.35 0-.66-.06-.92s-.05-.49-.08-.67-.07-.34-.1-.46h2.25c0 .12-.07.27-.1.46s-.06.4-.09.66 0 .57-.06.92 0 .77 0 1.24h3.1a3.88 3.88 0 00.45 0l-.18 1h-3.33v6.72a3 3 0 00.13 1 1.58 1.58 0 00.34.59 1.11 1.11 0 00.48.3 2.08 2.08 0 00.4-.17zm5.33-4.42a5.06 5.06 0 011.53-3.68 5.45 5.45 0 011.7-1.09 5.6 5.6 0 012.1-.39 5.93 5.93 0 012.07.37 5.09 5.09 0 011.7 1 4.76 4.76 0 011.13 1.64 5.42 5.42 0 01.42 2.17 5.5 5.5 0 01-.35 1.93 4.77 4.77 0 01-1 1.64 4.86 4.86 0 01-1.67 1.14 5.79 5.79 0 01-2.28.43 5.62 5.62 0 01-2.06-.37 4.92 4.92 0 01-1.69-1 4.79 4.79 0 01-1.14-1.64 5.17 5.17 0 01-.46-2.15zm5.53 4.48a3 3 0 001.28-.27 2.92 2.92 0 001-.79 3.76 3.76 0 00.65-1.26 5.5 5.5 0 00.24-1.68 8.1 8.1 0 00-.23-2 4.81 4.81 0 00-.67-1.56 3.07 3.07 0 00-1.12-1 3.14 3.14 0 00-1.57-.37 3 3 0 00-1.23.28 2.75 2.75 0 00-1 .77 3.81 3.81 0 00-.66 1.25 5.71 5.71 0 00-.23 1.67 7.64 7.64 0 00.23 2 4.84 4.84 0 00.66 1.54 3.27 3.27 0 001.11 1 3.16 3.16 0 001.54.42zm15.9-8.56l2.61 6.56 2.17-5.44.16-.39c.06-.15.11-.3.16-.45s.08-.3.11-.44a1.37 1.37 0 00.05-.34.68.68 0 000-.21.23.23 0 000-.11h1.76a3.1 3.1 0 00-.42.61 9 9 0 00-.59 1.23L58 14.74h-.56L55 8.62l-2.52 6.12h-.55L48.67 7c-.11-.28-.24-.56-.37-.82s-.26-.5-.38-.71-.23-.38-.32-.52a2 2 0 00-.19-.27H50a1 1 0 000 .15V5a2.82 2.82 0 00.09.67c.07.24.17.55.31.91l2.18 5.52 2.6-6.6zm14.8 9.28a5.89 5.89 0 01-2-.35 4.59 4.59 0 01-2.76-2.63 5.74 5.74 0 01-.4-2.22 5.49 5.49 0 01.37-2 4.87 4.87 0 012.55-2.72A4.57 4.57 0 0170 4.42a5 5 0 011.87.35 4.2 4.2 0 011.48 1 4.67 4.67 0 011 1.63 6.75 6.75 0 01.4 2.21h-7.66a7.27 7.27 0 00.32 1.84 4.5 4.5 0 00.71 1.4 3.16 3.16 0 001.1.89 3.37 3.37 0 001.47.31 4.08 4.08 0 001.07-.13 3.77 3.77 0 00.92-.37A3.44 3.44 0 0074 12.32l.12.06-.72 1.74a5.74 5.74 0 01-1.26.46 6.88 6.88 0 01-1.79.2zm-1.3-6h3.78a6.56 6.56 0 00-.33-1.52 4.06 4.06 0 00-.62-1.15 2.81 2.81 0 00-.9-.72 2.58 2.58 0 00-1.15-.25 2.19 2.19 0 00-1 .25 2.4 2.4 0 00-.82.71 4.26 4.26 0 00-.57 1.15 5.91 5.91 0 00-.25 1.55h.93zm9.83-4.96V2.37c0-.45 0-.77-.06-1.07a5.94 5.94 0 00-.12-.75 3.67 3.67 0 00-.11-.55h2.26a3.67 3.67 0 00-.11.51q0 .3-.09.75c0 .3 0 .66-.06 1.07s0 .89 0 1.45v8.45c0 .45 0 .77.06 1.07s.06.55.09.75a4 4 0 00.11.51h-2.26a4 4 0 00.11-.51 5.94 5.94 0 00.09-.75c0-.3 0-.66.06-1.07s0-.9 0-1.45zM97.17 14a1.65 1.65 0 00.58-.1 2.77 2.77 0 00.56-.3 4 4 0 00.52-.42c.16-.16.32-.33.46-.5h.1l-.64 1.58-.29.14a2.38 2.38 0 01-.41.15 3.11 3.11 0 01-.56.13 4.2 4.2 0 01-.76 0 2.78 2.78 0 01-2-.7 2.94 2.94 0 01-.73-2.1V5.36l-1.64.06v-.86H94V3.33c0-.36 0-.66-.05-.92s0-.49-.09-.67-.06-.34-.09-.46H96a4.53 4.53 0 00-.11.46c0 .18-.06.4-.08.66s0 .57-.06.92 0 .77 0 1.24h3.1a3.62 3.62 0 00.44 0l-.17 1L98 5.41h-2.32v6.72a3 3 0 00.13 1 1.58 1.58 0 00.34.59 1.11 1.11 0 00.48.3 2 2 0 00.54-.02zM110 8a2.87 2.87 0 00-.52-1.9 1.72 1.72 0 00-1.38-.6 2.2 2.2 0 00-.72.13 5.16 5.16 0 00-.81.36 7.55 7.55 0 00-.83.52 9.41 9.41 0 00-.76.63v5.07c0 .45 0 .77.06 1.07s0 .55.09.75a4 4 0 00.11.51H103a4 4 0 00.11-.51 5.94 5.94 0 00.09-.75c0-.3 0-.66.06-1.07s0-.9 0-1.45V2.31c0-.45 0-.77-.06-1.07a5.94 5.94 0 00-.09-.75A3.67 3.67 0 00103 0h2.26a3.67 3.67 0 00-.11.51c0 .2-.06.45-.09.75S105 2 105 2.37v3.95a9.16 9.16 0 01.87-.7 8.93 8.93 0 011-.61 6.13 6.13 0 011-.44 3.48 3.48 0 011-.17 2.8 2.8 0 011.29.27 2.4 2.4 0 01.87.69 2.82 2.82 0 01.49 1 4.26 4.26 0 01.15 1.12v4.77c0 .45 0 .77.06 1.07a5.94 5.94 0 00.09.75 4.19 4.19 0 00.1.51h-2.25c0-.14.07-.31.11-.51s.06-.45.09-.75 0-.66.06-1.07 0-.9 0-1.45zm5.89 3.72a2.61 2.61 0 01.32-1.34 3.12 3.12 0 01.84-1 4.92 4.92 0 011.2-.65 10.7 10.7 0 011.4-.39 12 12 0 011.42-.19q.71-.06 1.29-.06v-.5a3.44 3.44 0 00-.16-1.12 2 2 0 00-.47-.77 1.85 1.85 0 00-.73-.46 2.75 2.75 0 00-.93-.15 3.85 3.85 0 00-.69.06 3.26 3.26 0 00-.71.19 6 6 0 00-.78.37 8.61 8.61 0 00-.87.6l-.1-.06.67-1.38a4.06 4.06 0 01.63-.24c.21-.06.42-.11.64-.15a6.62 6.62 0 01.66-.08h.7a5.65 5.65 0 011.76.25 3.36 3.36 0 011.19.69 2.66 2.66 0 01.68 1 3.69 3.69 0 01.21 1.25v5.7c0 .3.06.55.09.75s.08.37.12.51h-2.16a2.7 2.7 0 00.07-.35v-.47a3.33 3.33 0 01-.48.36 3.77 3.77 0 01-.63.34 4.42 4.42 0 01-.8.24 4.54 4.54 0 01-1 .1 3.89 3.89 0 01-2.62-.8 2.81 2.81 0 01-.76-2.25zm6.47-2.84a15.72 15.72 0 00-1.71.1 4.54 4.54 0 00-1.45.39 2.4 2.4 0 00-1 .83 2.48 2.48 0 00-.38 1.44 2.43 2.43 0 00.58 1.76 2.09 2.09 0 001.6.6 2.53 2.53 0 00.85-.13 3.15 3.15 0 00.69-.33 2.39 2.39 0 00.5-.44 2 2 0 00.31-.46V8.88zM132.55 14a1.69 1.69 0 00.58-.1 2.7 2.7 0 00.55-.3 3.42 3.42 0 00.52-.42c.17-.16.32-.33.47-.5h.09l-.63 1.58-.29.14a2.38 2.38 0 01-.41.15 3.57 3.57 0 01-.56.13 4.33 4.33 0 01-.76 0 2.81 2.81 0 01-2-.7 3 3 0 01-.73-2.21V5.36l-1.64.06v-.86h1.64V3.33c0-.35 0-.66-.06-.92s-.05-.49-.08-.67-.07-.34-.1-.46h2.26a2.84 2.84 0 00-.11.46q0 .27-.09.66v2.16h3.1a3.6 3.6 0 00.45 0l-.18 1h-3.33v6.72a3.27 3.27 0 00.13 1 1.59 1.59 0 00.35.59 1.14 1.14 0 00.47.3 2.1 2.1 0 00.36-.17zm17.91 5.06a4.33 4.33 0 001.34-.17 2.4 2.4 0 00.9-.47 2.07 2.07 0 00.55-.73 3.74 3.74 0 00.28-.93 6.19 6.19 0 00.11-1.09v-1.51a5.54 5.54 0 01-1.16.43 5.85 5.85 0 01-1.52.19 5.7 5.7 0 01-2.11-.37 4.54 4.54 0 01-1.62-1 4.67 4.67 0 01-1-1.64 6.12 6.12 0 01-.36-2.16 5.7 5.7 0 01.36-2 5 5 0 011-1.64 4.77 4.77 0 011.56-1.09 5 5 0 012-.4 4.46 4.46 0 01.85.08 3.89 3.89 0 01.73.21A4.21 4.21 0 01153 5c.2.11.39.23.58.36l-.1-.72h2.16a3.67 3.67 0 00-.11.51 5.94 5.94 0 00-.09.75c0 .3 0 .65-.06 1.07s0 .89 0 1.45v6.64a6.43 6.43 0 01-.24 1.75 3.81 3.81 0 01-.82 1.52 4 4 0 01-1.5 1.06 6 6 0 01-2.34.4 5.5 5.5 0 01-1-.09 7.9 7.9 0 01-1.76-.51l-.58-.27-.3-1.88h.16a3 3 0 00.63.9 4.55 4.55 0 00.89.64 4.63 4.63 0 001 .39 3.73 3.73 0 00.94.09zm1-5a3.42 3.42 0 001.27-.23 4 4 0 001-.55V6.61a3.38 3.38 0 00-.55-.64 3.7 3.7 0 00-.65-.47 3.92 3.92 0 00-.71-.29 2.53 2.53 0 00-.71-.1 3.21 3.21 0 00-1.34.27 2.68 2.68 0 00-1 .79 3.42 3.42 0 00-.77 1.26 5.73 5.73 0 00-.22 1.67 7.64 7.64 0 00.23 2 5.07 5.07 0 00.69 1.58 3.24 3.24 0 001.13 1 3.12 3.12 0 001.59.38zm13.28.72a5.89 5.89 0 01-2-.35A4.59 4.59 0 01160 11.8a5.74 5.74 0 01-.41-2.22 5.7 5.7 0 01.37-2 5.08 5.08 0 011-1.63 4.91 4.91 0 011.53-1.09 4.57 4.57 0 011.89-.39 4.93 4.93 0 011.86.35 4.23 4.23 0 011.49 1 4.83 4.83 0 011 1.63 6.75 6.75 0 01.39 2.21h-7.65a7.76 7.76 0 00.31 1.84 4.51 4.51 0 00.72 1.4 3.16 3.16 0 001.1.89 3.31 3.31 0 001.47.31 4.13 4.13 0 001.07-.13 3.69 3.69 0 00.91-.37 3.11 3.11 0 00.73-.55 3.27 3.27 0 00.55-.69l.12.06-.72 1.74a6.15 6.15 0 01-1.26.46 6.93 6.93 0 01-1.73.16zm-1.3-6h3.78a6.56 6.56 0 00-.33-1.52 4.07 4.07 0 00-.63-1.15 2.61 2.61 0 00-.9-.72 2.51 2.51 0 00-1.14-.25 2.16 2.16 0 00-1 .25 2.4 2.4 0 00-.82.71 3.75 3.75 0 00-.57 1.15 5.91 5.91 0 00-.25 1.55h.92zM179.92 8a2.87 2.87 0 00-.52-1.9 1.72 1.72 0 00-1.38-.6 2.19 2.19 0 00-.71.13 5.41 5.41 0 00-.8.35c-.27.15-.54.32-.82.51a9.58 9.58 0 00-.77.63v5.09c0 .45 0 .77.06 1.07s.06.55.09.75a4 4 0 00.11.51h-2.26a4 4 0 00.11-.51 5.94 5.94 0 00.09-.75c0-.3 0-.66.06-1.07s0-.9 0-1.45V6.97c0-.45 0-.77-.06-1.07a5.94 5.94 0 00-.09-.75 3.67 3.67 0 00-.11-.51h2.26a2.78 2.78 0 00-.13.62c0 .25-.06.58-.09 1 .27-.22.56-.44.86-.66a7 7 0 011-.59 5.15 5.15 0 011-.42 3.4 3.4 0 011-.17 2.8 2.8 0 011.29.27 2.4 2.4 0 01.87.69 2.66 2.66 0 01.49 1 4.26 4.26 0 01.15 1.12v4.77c0 .45 0 .77.06 1.07a5.94 5.94 0 00.09.75c0 .2.07.37.1.51h-2.25c0-.14.07-.31.11-.51a5.94 5.94 0 00.09-.75c0-.3 0-.66.06-1.07s0-.9 0-1.45zm10.18 6a1.73 1.73 0 00.58-.1 2.7 2.7 0 00.55-.3 4 4 0 00.52-.42 5.34 5.34 0 00.46-.5h.1l-.63 1.58-.29.14a2.38 2.38 0 01-.41.15 3.57 3.57 0 01-.56.13 4.33 4.33 0 01-.76 0 2.79 2.79 0 01-2-.7 2.94 2.94 0 01-.73-2.21V5.36l-1.64.06v-.86h1.64V3.33c0-.36 0-.66-.06-.92s-.05-.49-.08-.67-.07-.34-.1-.46h2.26a2.84 2.84 0 00-.11.46c0 .18-.06.4-.09.66s0 .57-.06.92 0 .77 0 1.24h3.1a3.88 3.88 0 00.45 0l-.18 1h-3.33v6.72a3 3 0 00.13 1 1.58 1.58 0 00.34.59 1.17 1.17 0 00.48.3 2.1 2.1 0 00.42-.17zm6.19-10.18V2.37c0-.45 0-.77-.06-1.07a5.94 5.94 0 00-.09-.75A3.67 3.67 0 00196 0h2.26a3.67 3.67 0 00-.11.51q0 .3-.09.75c0 .3 0 .66-.06 1.07s0 .89 0 1.45v8.45c0 .45 0 .77.06 1.07s.06.55.09.75a4 4 0 00.11.51H196a4 4 0 00.11-.51 5.94 5.94 0 00.09-.75c0-.3 0-.66.06-1.07s0-.9 0-1.45zm9.91 10.66L202.76 7c-.13-.28-.26-.56-.4-.82s-.28-.5-.41-.71l-.33-.52-.2-.27H204a.43.43 0 000 .15 1 1 0 000 .17 2.82 2.82 0 00.09.67 5.26 5.26 0 00.35.91l2.69 5.86 2.47-5.78c.1-.24.2-.5.31-.79A2.43 2.43 0 00210 5a.68.68 0 000-.21.53.53 0 000-.11h1.75a3.84 3.84 0 00-.44.66 11 11 0 00-.57 1.18L206 17.58c-.11.24-.21.5-.32.79a2.43 2.43 0 00-.16.87 1.25 1.25 0 000 .21.43.43 0 000 .11h-1.83a3 3 0 00.46-.65 10.76 10.76 0 00.57-1.17zm24.99-1.96l-.72 1.74a3.94 3.94 0 01-.61.21 7.373 7.373 0 01-1.44.27c-.25.02-.48 0-.71 0a6.69 6.69 0 01-2.18-.35 5 5 0 01-1.73-1 4.63 4.63 0 01-1.13-1.63 5.51 5.51 0 01-.41-2.21 4.87 4.87 0 011.6-3.68 5.84 5.84 0 011.78-1.09 6.26 6.26 0 012.23-.39 8.16 8.16 0 011.17.1 7.53 7.53 0 011.12.24l.69 1.66-.12.06a3.06 3.06 0 00-.58-.55 3.55 3.55 0 00-.74-.42 4.81 4.81 0 00-.86-.28 4.6 4.6 0 00-.91-.09 3.48 3.48 0 00-1.39.27 2.75 2.75 0 00-1.07.77 3.53 3.53 0 00-.7 1.25 5.1 5.1 0 00-.25 1.67 7.63 7.63 0 00.24 2 4.67 4.67 0 00.71 1.58 3.33 3.33 0 001.19 1 3.6 3.6 0 001.69.37 3.73 3.73 0 001.73-.43 3.68 3.68 0 00.73-.51 2.69 2.69 0 00.55-.66zm3.16-2.94a5 5 0 011.54-3.68 5.33 5.33 0 011.7-1.09 5.6 5.6 0 012.1-.39 5.93 5.93 0 012.07.37 5.09 5.09 0 011.7 1 4.76 4.76 0 011.13 1.64 5.42 5.42 0 01.41 2.21 5.5 5.5 0 01-.35 1.93 4.77 4.77 0 01-1 1.64 4.86 4.86 0 01-1.65 1.14 5.79 5.79 0 01-2.28.43 5.62 5.62 0 01-2.06-.37 4.92 4.92 0 01-1.69-1 4.81 4.81 0 01-1.15-1.64 5.34 5.34 0 01-.47-2.19zm5.54 4.48a3 3 0 001.27-.27 2.86 2.86 0 001-.79 4 4 0 00.65-1.26 5.51 5.51 0 00.23-1.68 8.12 8.12 0 00-.22-2 4.81 4.81 0 00-.67-1.56 3.09 3.09 0 00-2.69-1.4 3 3 0 00-1.27.27 2.75 2.75 0 00-1 .77 3.81 3.81 0 00-.66 1.25 5.4 5.4 0 00-.23 1.67 7.64 7.64 0 00.23 2 5.05 5.05 0 00.67 1.58 3.3 3.3 0 001.12 1 3.16 3.16 0 001.57.42zm10.22-9.46a1 1 0 000 .15v.17a2.82 2.82 0 00.09.67 6.55 6.55 0 00.31.91l2.34 5.56 2.36-5.48c.1-.24.2-.5.31-.79a2.45 2.45 0 00.17-.87 1.25 1.25 0 000-.21.43.43 0 000-.11h1.76a3.27 3.27 0 00-.45.66c-.17.31-.36.71-.57 1.18l-3.6 8.26h-.58L248.81 7c-.11-.28-.24-.56-.37-.82s-.26-.5-.38-.71-.23-.38-.32-.52a2 2 0 00-.19-.27zm14.98 10.18a5.89 5.89 0 01-2-.35 4.59 4.59 0 01-2.76-2.63 5.74 5.74 0 01-.4-2.22 5.49 5.49 0 01.37-2 4.87 4.87 0 012.55-2.72 4.57 4.57 0 011.89-.39 5 5 0 011.87.35 4.2 4.2 0 011.48 1 4.67 4.67 0 011 1.63 6.75 6.75 0 01.4 2.21h-7.64a7.27 7.27 0 00.32 1.84 4.5 4.5 0 00.71 1.4 3.16 3.16 0 001.1.89 3.37 3.37 0 001.47.31 4.08 4.08 0 001.07-.13 3.77 3.77 0 00.92-.37 3.44 3.44 0 001.27-1.24l.12.06-.72 1.74a5.74 5.74 0 01-1.26.46 6.88 6.88 0 01-1.76.16zm-1.3-6h3.78a6.56 6.56 0 00-.33-1.52 4.06 4.06 0 00-.62-1.15 2.81 2.81 0 00-.9-.72 2.57 2.57 0 00-1.14-.25 2.2 2.2 0 00-1.05.25 2.4 2.4 0 00-.82.71 4.26 4.26 0 00-.57 1.15 6.36 6.36 0 00-.25 1.55h.93zm9.77-.36V6.97c0-.45 0-.77-.06-1.07a5.94 5.94 0 00-.09-.75 3.67 3.67 0 00-.11-.51h2.26a3 3 0 00-.13.55 6.77 6.77 0 00-.09.83c.24-.21.5-.4.76-.6a5.75 5.75 0 01.8-.52 4.63 4.63 0 01.83-.36 2.82 2.82 0 01.86-.14 3.23 3.23 0 01.46 0l.35.07.28.09.24.11-.47 1.86h-.17a1.33 1.33 0 00-.44-.69 1.38 1.38 0 00-.88-.25 2.06 2.06 0 00-.63.1 3.63 3.63 0 00-.68.3 6.51 6.51 0 00-.68.44c-.23.17-.45.34-.66.52a6.12 6.12 0 000 .62v4.67c0 .45 0 .77.05 1.07s.06.55.09.75a4 4 0 00.11.51h-2.26a4 4 0 00.11-.51 5.94 5.94 0 00.09-.75c0-.3 0-.66.06-1.07s0-.9 0-1.45zm14.25-1.86h-.13a2.5 2.5 0 00-.22-.48 2.5 2.5 0 00-.4-.47 2 2 0 00-1.35-.49 2.12 2.12 0 00-.57.08 1.54 1.54 0 00-.47.26 1.22 1.22 0 00-.31.43 1.38 1.38 0 00-.12.59 1.6 1.6 0 00.3.92 5.15 5.15 0 00.74.86c.3.28.63.56 1 .85a12.16 12.16 0 011 .9 5 5 0 01.74 1 2.3 2.3 0 01.3 1.15 3 3 0 01-.17 1 2.31 2.31 0 01-.55.84 2.58 2.58 0 01-.93.6 3.58 3.58 0 01-1.37.23 4.77 4.77 0 01-.87-.08 5.94 5.94 0 01-.74-.22 3.85 3.85 0 01-.61-.3c-.18-.1-.33-.21-.47-.3l.1-1.86h.15a3.09 3.09 0 00.3.84 2.44 2.44 0 00.48.65 2.06 2.06 0 00.66.42 2.16 2.16 0 00.81.15 1.61 1.61 0 001.15-.4 1.37 1.37 0 00.42-1 1.72 1.72 0 00-.29-1 4.55 4.55 0 00-.72-.83c-.3-.27-.61-.54-.95-.8a9.58 9.58 0 01-.94-.86 4.37 4.37 0 01-.73-1 2.64 2.64 0 01-.34-1.24 2.54 2.54 0 01.21-1 2.49 2.49 0 01.59-.81 2.71 2.71 0 01.89-.52 3.25 3.25 0 011.14-.19 4.67 4.67 0 011.35.17 5.25 5.25 0 01.82.33zm15.8 7.92L300.17 7c-.12-.28-.26-.56-.4-.82s-.28-.5-.4-.71-.24-.38-.34-.52a3.11 3.11 0 00-.2-.27h2.56a1 1 0 000 .15V5a2.42 2.42 0 00.1.67 5.09 5.09 0 00.34.91l2.7 5.86L307 6.62c.1-.24.21-.5.32-.79a2.67 2.67 0 00.16-.87 1.25 1.25 0 000-.21v-.11h1.76a3.27 3.27 0 00-.45.66 11 11 0 00-.57 1.18l-4.66 11.1c-.1.24-.21.5-.32.79a2.67 2.67 0 00-.16.87 1.25 1.25 0 000 .21v.11h-1.82a3.44 3.44 0 00.45-.65 10.76 10.76 0 00.57-1.17zm8.06-4.9a5 5 0 011.54-3.68 5.33 5.33 0 011.7-1.09 5.6 5.6 0 012.1-.39 5.93 5.93 0 012.07.37 5.09 5.09 0 011.7 1 4.76 4.76 0 011.13 1.64 5.42 5.42 0 01.42 2.17 5.5 5.5 0 01-.35 1.93 4.77 4.77 0 01-1 1.64 4.86 4.86 0 01-1.67 1.14 5.79 5.79 0 01-2.28.43 5.62 5.62 0 01-2.06-.37 4.92 4.92 0 01-1.69-1 4.81 4.81 0 01-1.15-1.64 5.34 5.34 0 01-.46-2.15zm5.54 4.48a3 3 0 001.27-.27 2.86 2.86 0 001-.79 4 4 0 00.65-1.26 5.5 5.5 0 00.24-1.68 8.1 8.1 0 00-.23-2 4.81 4.81 0 00-.67-1.56 3.09 3.09 0 00-2.69-1.4 3 3 0 00-1.27.27 2.75 2.75 0 00-1 .77 3.81 3.81 0 00-.66 1.25 5.71 5.71 0 00-.23 1.67 7.64 7.64 0 00.23 2 4.84 4.84 0 00.68 1.58 3 3 0 002.67 1.42zm10.95-2.88a2.93 2.93 0 00.51 1.9 1.72 1.72 0 001.38.6 2.13 2.13 0 00.7-.13 6.84 6.84 0 00.81-.35 9.29 9.29 0 00.83-.51 8.09 8.09 0 00.77-.63V7.01c0-.45 0-.77-.06-1.07a5.94 5.94 0 00-.09-.75 3.67 3.67 0 00-.11-.51h2.26a3.67 3.67 0 00-.11.51q0 .3-.09.75c0 .3 0 .65-.06 1.07s0 .89 0 1.45v3.81c0 .45 0 .77.06 1.07s.06.55.09.75a4 4 0 00.11.51h-2.26c0-.16.08-.37.12-.62a7.44 7.44 0 00.1-1c-.27.23-.56.45-.87.67a9.6 9.6 0 01-1 .6 6.28 6.28 0 01-1 .42 3.27 3.27 0 01-1 .16 2.8 2.8 0 01-1.29-.26 2.4 2.4 0 01-.87-.69 2.66 2.66 0 01-.49-1 4.2 4.2 0 01-.15-1.12V6.97c0-.45 0-.77-.06-1.07s-.06-.55-.09-.75a3.67 3.67 0 00-.11-.51h2.26a3.67 3.67 0 00-.11.51q0 .3-.09.75c0 .3 0 .65-.05 1.07s0 .89 0 1.45zm11.71-2.76V6.97c0-.45 0-.77-.06-1.07a5.94 5.94 0 00-.09-.75 3.67 3.67 0 00-.11-.51h2.26a2.92 2.92 0 00-.14.55c0 .21-.06.49-.08.83.24-.21.49-.4.75-.6a6.41 6.41 0 01.8-.52 4.72 4.72 0 01.84-.36 2.8 2.8 0 01.85-.14 3 3 0 01.46 0l.35.07.29.09.24.11-.48 1.86h-.16a1.4 1.4 0 00-.44-.69 1.39 1.39 0 00-.88-.25 2.13 2.13 0 00-.64.1 3.55 3.55 0 00-.67.3 5.61 5.61 0 00-.68.44l-.67.52v5.29c0 .45 0 .77.06 1.07s.06.55.09.75a4 4 0 00.11.51h-2.26a4 4 0 00.11-.51 5.94 5.94 0 00.09-.75c0-.3 0-.66.06-1.07s0-.9 0-1.45zm19.54-3.32a5.83 5.83 0 011.32-.51 6.28 6.28 0 011.43-.17 5.48 5.48 0 012 .37 4.57 4.57 0 011.6 1 4.72 4.72 0 011.05 1.64 5.78 5.78 0 01.38 2.17 5.49 5.49 0 01-.34 1.93 4.77 4.77 0 01-1 1.64 4.93 4.93 0 01-1.71 1.14 6.19 6.19 0 01-2.37.43h-.98l-.67-.08c-.23 0-.46-.08-.68-.13s-.63-.15-.94-.24-.62-.19-.91-.3a2.64 2.64 0 00.07-.49c0-.23 0-.48.05-.75s0-.53 0-.78v-9.6c0-.45 0-.77-.06-1.07s-.05-.55-.09-.75-.07-.37-.11-.51V0h2.25a3.84 3.84 0 00-.1.51 5.94 5.94 0 00-.09.75c0 .3-.05.66-.06 1.07s0 .89 0 1.45zm0 6.08v1.31c0 .31 0 .62.05.83a3.59 3.59 0 001.11.53 5.36 5.36 0 001.54.21 2.92 2.92 0 001.27-.27 2.71 2.71 0 001-.79 3.93 3.93 0 00.64-1.26 5.83 5.83 0 00.23-1.68 9.29 9.29 0 00-.2-2 5 5 0 00-.6-1.56 2.86 2.86 0 00-2.56-1.4 3.28 3.28 0 00-1.39.3 2.89 2.89 0 00-1.09.88zm11.16-1.6a5.14 5.14 0 01.41-2 5 5 0 011.13-1.63 5.4 5.4 0 011.69-1.09 5.6 5.6 0 012.1-.39 6 6 0 012.08.37 5 5 0 011.69 1 4.93 4.93 0 011.14 1.64 5.42 5.42 0 01.41 2.17 5.28 5.28 0 01-.35 1.93 4.75 4.75 0 01-1 1.64 5 5 0 01-1.68 1.14 5.79 5.79 0 01-2.28.43 5.66 5.66 0 01-2.06-.37 5 5 0 01-1.69-1 4.93 4.93 0 01-1.16-1.68 5.34 5.34 0 01-.43-2.16zm5.54 4.48a3 3 0 001.27-.27 2.83 2.83 0 001-.79 4 4 0 00.66-1.26 5.83 5.83 0 00.23-1.68 8.12 8.12 0 00-.22-2 5 5 0 00-.67-1.56 3.09 3.09 0 00-2.69-1.4 2.92 2.92 0 00-1.27.27 2.67 2.67 0 00-1 .77 3.47 3.47 0 00-.66 1.25 5.39 5.39 0 00-.24 1.67 8.1 8.1 0 00.23 2 5.06 5.06 0 00.68 1.58 3.21 3.21 0 001.12 1 3.13 3.13 0 001.56.42zm13.76-9.64a5.52 5.52 0 01.8.07 5.58 5.58 0 01.78.2 4.6 4.6 0 01.72.31 3.38 3.38 0 01.62.42V2.37c0-.45 0-.77-.06-1.07s-.06-.55-.09-.75a3.67 3.67 0 00-.11-.51V0h2.26c0 .14-.08.3-.12.51s-.06.45-.08.75-.05.66-.06 1.07 0 .89 0 1.45v8.45c0 .45 0 .77.06 1.07s.05.55.08.75.08.37.12.51h-2.16a1.7 1.7 0 00.05-.23v-.37a6.43 6.43 0 01-1.25.56 5.46 5.46 0 01-1.75.26 5.66 5.66 0 01-2.11-.37 4.54 4.54 0 01-1.62-1 4.67 4.67 0 01-1-1.64 6.12 6.12 0 01-.36-2.16 5.31 5.31 0 01.39-2 4.94 4.94 0 011.1-1.63 5.09 5.09 0 011.67-1.09 5.59 5.59 0 012.12-.47zm2.92 2.72a3.21 3.21 0 00-1.12-1.52 2.92 2.92 0 00-1.67-.48 3.62 3.62 0 00-1.41.27 3 3 0 00-1.1.77 3.73 3.73 0 00-.72 1.25 5.09 5.09 0 00-.26 1.67 7.63 7.63 0 00.24 2 4.85 4.85 0 00.69 1.58 3.24 3.24 0 001.13 1 3.09 3.09 0 001.55.37A3.44 3.44 0 00391 14a4.82 4.82 0 00.73-.28 3.7 3.7 0 00.59-.36 4.11 4.11 0 00.42-.4v-2.18zm9.84 7.34L399.19 7c-.12-.28-.26-.56-.4-.82s-.28-.5-.41-.71-.24-.38-.33-.52l-.2-.27h2.56a1 1 0 000 .15 1 1 0 000 .17 2.82 2.82 0 00.09.67 6.23 6.23 0 00.35.91l2.7 5.86L406 6.62c.1-.24.21-.5.31-.79a2.45 2.45 0 00.17-.87 1.25 1.25 0 000-.21v-.11h1.75a3.84 3.84 0 00-.44.66 11 11 0 00-.57 1.18l-4.66 11.1c-.1.24-.21.5-.32.79a2.43 2.43 0 00-.16.87 1.25 1.25 0 000 .21.43.43 0 000 .11h-1.83a3 3 0 00.46-.65 10.76 10.76 0 00.57-1.17zm16.1-2.76a2.71 2.71 0 01.31-1.34 3.15 3.15 0 01.85-1 4.92 4.92 0 011.2-.65 10.28 10.28 0 011.4-.39 11.78 11.78 0 011.42-.19q.7-.06 1.29-.06v-.5a3.44 3.44 0 00-.2-1.09 2.18 2.18 0 00-.47-.77 1.93 1.93 0 00-.73-.46 2.83 2.83 0 00-.93-.15 4 4 0 00-.7.06 3.42 3.42 0 00-.71.19 5.92 5.92 0 00-.77.37 8.61 8.61 0 00-.87.6l-.1-.06.67-1.38a4.06 4.06 0 01.63-.24c.21-.06.42-.11.64-.15s.43-.06.65-.08.46 0 .71 0a5.54 5.54 0 011.75.25 3.32 3.32 0 011.2.69 2.66 2.66 0 01.68 1 3.69 3.69 0 01.21 1.25v4.63c0 .45 0 .77.06 1.07s.06.55.09.75.07.37.11.51H425a2.7 2.7 0 00.07-.35v-.47a4 4 0 01-.48.36 3.51 3.51 0 01-.64.34 4.08 4.08 0 01-.79.24 4.62 4.62 0 01-1 .1 3.94 3.94 0 01-2.63-.8 2.83 2.83 0 01-.8-2.28zm6.47-2.84a15.72 15.72 0 00-1.71.1 4.54 4.54 0 00-1.45.39 2.4 2.4 0 00-1 .83 2.48 2.48 0 00-.38 1.44 2.43 2.43 0 00.58 1.76 2.09 2.09 0 001.59.6 2.57 2.57 0 00.85-.13 3.15 3.15 0 00.69-.33 2.67 2.67 0 00.5-.44 2 2 0 00.31-.46V8.88zM438.57 8a2.87 2.87 0 00-.52-1.9 1.74 1.74 0 00-1.39-.6 2.18 2.18 0 00-.7.13 5 5 0 00-.8.35 9.16 9.16 0 00-.82.51 9.58 9.58 0 00-.77.63v5.09c0 .45 0 .77.06 1.07s.05.55.08.75.07.37.11.51h-2.25c0-.14.07-.31.11-.51s.06-.45.09-.75 0-.66.05-1.07 0-.9 0-1.45V6.97c0-.45 0-.77-.05-1.07s-.06-.55-.09-.75-.07-.37-.11-.51h2.25a3.59 3.59 0 00-.12.62c0 .25-.06.58-.09 1 .26-.22.55-.44.86-.66a6.88 6.88 0 011-.59 5.23 5.23 0 011-.42 3.29 3.29 0 011-.17 2.87 2.87 0 011.3.27 2.59 2.59 0 01.87.69 3 3 0 01.49 1 4.26 4.26 0 01.15 1.12v4.77c0 .45 0 .77.06 1.07s0 .55.08.75.07.37.11.51h-2.25c0-.14.07-.31.11-.51s.06-.45.08-.75 0-.66.06-1.07 0-.9 0-1.45zm11.09-3.58a5.4 5.4 0 01.8.07 5 5 0 01.78.2A3.91 3.91 0 01452 5a3.07 3.07 0 01.62.42V2.37c0-.45 0-.77-.06-1.07a5.94 5.94 0 00-.09-.75 3.84 3.84 0 00-.1-.51V0h2.25c0 .14-.07.3-.11.51a5.94 5.94 0 00-.09.75c0 .3 0 .66-.06 1.07s0 .89 0 1.45v8.45c0 .45 0 .77.06 1.07a5.94 5.94 0 00.09.75c0 .2.07.37.11.51h-2.22a.89.89 0 00.05-.23c0-.1 0-.23.05-.37a6.43 6.43 0 01-1.25.56 5.42 5.42 0 01-1.75.26 5.74 5.74 0 01-2.11-.37 4.41 4.41 0 01-1.61-1 4.53 4.53 0 01-1-1.64 6.12 6.12 0 01-.36-2.16 5.31 5.31 0 01.39-2 4.91 4.91 0 011.09-1.63 5.31 5.31 0 011.67-1.09 5.63 5.63 0 012.09-.47zm2.92 2.72a3.09 3.09 0 00-1.12-1.52 2.89 2.89 0 00-1.63-.48 3.62 3.62 0 00-1.41.27 2.85 2.85 0 00-1.1.77 3.57 3.57 0 00-.72 1.25 5.09 5.09 0 00-.26 1.67 8.1 8.1 0 00.23 2 5.07 5.07 0 00.69 1.58 3.24 3.24 0 001.13 1 3.14 3.14 0 001.55.37 3.33 3.33 0 00.86-.1 5 5 0 00.74-.28 3.59 3.59 0 00.58-.36 3.28 3.28 0 00.42-.4v-2.18zM97.54 43.72a2.61 2.61 0 01.32-1.34 3.12 3.12 0 01.84-1 4.92 4.92 0 011.2-.65 10.7 10.7 0 011.4-.39 11.78 11.78 0 011.42-.19q.7-.06 1.29-.06v-.5a3.44 3.44 0 00-.16-1.12 2 2 0 00-.47-.77 1.85 1.85 0 00-.73-.46 2.75 2.75 0 00-.93-.15 4 4 0 00-.7.06 3.34 3.34 0 00-.7.19 5.44 5.44 0 00-.78.37 8.61 8.61 0 00-.87.6l-.1-.06.67-1.38a4.06 4.06 0 01.63-.24c.21-.06.42-.11.64-.15a6.62 6.62 0 01.66-.08h.7a5.65 5.65 0 011.76.25 3.36 3.36 0 011.19.69 2.66 2.66 0 01.68 1 3.69 3.69 0 01.21 1.25v4.63c0 .45 0 .77.05 1.07s.06.55.09.75.08.37.11.51h-2.15a2.7 2.7 0 00.07-.35v-.47a3.33 3.33 0 01-.48.36 3.41 3.41 0 01-.63.34 4.42 4.42 0 01-.8.24 4.62 4.62 0 01-1 .1 3.94 3.94 0 01-2.63-.8 2.83 2.83 0 01-.8-2.25zm6.46-2.84a15.72 15.72 0 00-1.71.1 4.54 4.54 0 00-1.45.39 2.4 2.4 0 00-1 .83 2.48 2.48 0 00-.38 1.44 2.43 2.43 0 00.58 1.76 2.09 2.09 0 001.59.6 2.53 2.53 0 00.85-.13 3.15 3.15 0 00.69-.33 2.39 2.39 0 00.5-.44 2 2 0 00.31-.46v-3.76zm8.36-3.78a5.83 5.83 0 011.32-.51 6.22 6.22 0 011.43-.17 5.45 5.45 0 012 .37 4.57 4.57 0 011.6 1 4.72 4.72 0 011 1.64 5.78 5.78 0 01.38 2.17 5.49 5.49 0 01-.34 1.93 4.63 4.63 0 01-1 1.64 4.93 4.93 0 01-1.71 1.14 6.19 6.19 0 01-2.37.43h-.98l-.67-.08c-.23 0-.46-.08-.68-.13s-.63-.15-.94-.24-.62-.19-.91-.3a2.64 2.64 0 00.07-.49V34.37c0-.45 0-.77-.06-1.07s0-.55-.09-.75-.07-.37-.11-.51h2.25a3.84 3.84 0 00-.1.51 5.94 5.94 0 00-.09.75c0 .3 0 .66-.06 1.07s0 .89 0 1.45zm0 6.08v2.14a3.59 3.59 0 001.11.53 5.36 5.36 0 001.54.21 2.92 2.92 0 001.27-.27 2.71 2.71 0 001-.79 3.93 3.93 0 00.64-1.26 5.83 5.83 0 00.23-1.68 9.29 9.29 0 00-.2-2 5 5 0 00-.6-1.56 3 3 0 00-1.05-1 2.89 2.89 0 00-1.51-.37 3.28 3.28 0 00-1.39.3 2.89 2.89 0 00-1.09.88zm16.39-4.62h-.13a2.5 2.5 0 00-.22-.48 2.12 2.12 0 00-.39-.47 2 2 0 00-.58-.35 1.87 1.87 0 00-.78-.14 2.12 2.12 0 00-.57.08 1.38 1.38 0 00-.46.26 1.24 1.24 0 00-.32.43 1.38 1.38 0 00-.12.59 1.6 1.6 0 00.3.92 6.29 6.29 0 00.74.86c.3.28.63.56 1 .85s.67.59 1 .9a5 5 0 01.75 1 2.39 2.39 0 01.29 1.15 3 3 0 01-.17 1 2.42 2.42 0 01-.54.84 2.71 2.71 0 01-.94.6 3.52 3.52 0 01-1.36.23 4.79 4.79 0 01-.88-.08 5.94 5.94 0 01-.74-.22 4.33 4.33 0 01-.61-.3c-.18-.1-.33-.21-.47-.3l.1-1.86h.15a3.47 3.47 0 00.3.84 2.44 2.44 0 00.48.65 2.06 2.06 0 00.66.42 2.16 2.16 0 00.81.15 1.6 1.6 0 001.15-.4 1.37 1.37 0 00.42-1 1.71 1.71 0 00-.28-1 5.05 5.05 0 00-.73-.83c-.3-.27-.61-.54-.94-.8a8.67 8.67 0 01-1-.86 4.32 4.32 0 01-.72-1 2.74 2.74 0 01-.08-2.28 2.46 2.46 0 01.58-.81 2.66 2.66 0 01.9-.52 3.15 3.15 0 011.13-.19 4.67 4.67 0 011.35.17 5.91 5.91 0 01.83.33zm3.85 3.02a5.14 5.14 0 01.41-2 5 5 0 011.13-1.63 5.4 5.4 0 011.69-1.09 5.6 5.6 0 012.1-.39 6 6 0 012.08.37 4.87 4.87 0 012.83 2.68 5.42 5.42 0 01.41 2.17 5.28 5.28 0 01-.35 1.93 4.75 4.75 0 01-1 1.64 5 5 0 01-1.68 1.14 5.79 5.79 0 01-2.28.43 5.66 5.66 0 01-2.06-.37 5 5 0 01-1.69-1 4.93 4.93 0 01-1.19-1.72 5.34 5.34 0 01-.4-2.16zm5.54 4.48a3 3 0 001.27-.27 2.83 2.83 0 001-.79 4 4 0 00.66-1.26 5.83 5.83 0 00.23-1.68 8.12 8.12 0 00-.22-2 5 5 0 00-.67-1.56 3.09 3.09 0 00-2.69-1.4 2.92 2.92 0 00-1.27.27 2.67 2.67 0 00-1 .77 3.47 3.47 0 00-.66 1.25 5.39 5.39 0 00-.24 1.67 8.1 8.1 0 00.23 2 5.06 5.06 0 00.68 1.58 3.21 3.21 0 001.12 1 3.13 3.13 0 001.56.42zm9.3-5.64v-1.45c0-.45 0-.77-.06-1.07a5.94 5.94 0 00-.09-.75 3.67 3.67 0 00-.11-.51h2.25a4.09 4.09 0 00-.13.55c0 .21-.06.49-.08.83.24-.21.49-.4.75-.6a6.41 6.41 0 01.8-.52 4.72 4.72 0 01.84-.36 2.8 2.8 0 01.85-.14 3 3 0 01.46 0 2.7 2.7 0 01.35.07l.29.09.24.11-.48 1.86h-.17a1.32 1.32 0 00-.43-.69 1.39 1.39 0 00-.88-.25 2.13 2.13 0 00-.64.1 3.55 3.55 0 00-.67.3 6.62 6.62 0 00-.69.44l-.66.52v5.29c0 .45 0 .77.06 1.07s.05.55.09.75.07.37.1.51h-2.25a4 4 0 00.11-.51 5.94 5.94 0 00.09-.75c0-.3 0-.66.06-1.07s0-.9 0-1.45zM159 37.1a5.83 5.83 0 011.32-.51 6.3 6.3 0 011.44-.17 5.43 5.43 0 012 .37 4.57 4.57 0 011.6 1 4.72 4.72 0 011 1.64 5.78 5.78 0 01.39 2.17 5.5 5.5 0 01-.35 1.93 4.63 4.63 0 01-1 1.64 4.8 4.8 0 01-1.7 1.14 6.26 6.26 0 01-2.37.43h-.99l-.66-.08c-.24 0-.47-.08-.69-.13l-.94-.24q-.48-.14-.9-.3a4 4 0 00.07-.49V34.37c0-.45 0-.77-.06-1.07a5.94 5.94 0 00-.09-.75A3.67 3.67 0 00157 32h2.26a3.67 3.67 0 00-.11.51q0 .3-.09.75c0 .3 0 .66-.06 1.07s0 .89 0 1.45zm0 6.08v2.14a3.7 3.7 0 001.11.53 5.43 5.43 0 001.55.21 3 3 0 001.27-.27 2.76 2.76 0 001-.79 3.74 3.74 0 00.64-1.26 5.51 5.51 0 00.23-1.68 9.31 9.31 0 00-.19-2 5 5 0 00-.61-1.56 2.83 2.83 0 00-2.56-1.4 3.23 3.23 0 00-1.38.3 2.92 2.92 0 00-1.1.88zm16.38-4.62h-.14a2 2 0 00-.22-.48 2.12 2.12 0 00-.39-.47 2 2 0 00-.58-.35 1.86 1.86 0 00-.77-.14 2.12 2.12 0 00-.57.08 1.43 1.43 0 00-.47.26 1.24 1.24 0 00-.32.43 1.38 1.38 0 00-.12.59 1.6 1.6 0 00.3.92 5.76 5.76 0 00.75.86c.3.28.62.56 1 .85a12 12 0 011 .9 5 5 0 01.75 1 2.3 2.3 0 01.3 1.15 2.73 2.73 0 01-.18 1 2.42 2.42 0 01-.54.84 2.62 2.62 0 01-.94.6 3.49 3.49 0 01-1.36.23 4.68 4.68 0 01-.87-.08 6.12 6.12 0 01-.75-.22 4.2 4.2 0 01-.6-.3c-.18-.1-.34-.21-.48-.3l.1-1.86h.16a3.08 3.08 0 00.29.84 2.44 2.44 0 00.48.65 2.31 2.31 0 00.66.42 2.16 2.16 0 00.81.15 1.58 1.58 0 001.15-.4 1.38 1.38 0 00.43-1 1.72 1.72 0 00-.29-1 4.62 4.62 0 00-.73-.83c-.29-.27-.61-.54-.94-.8a9.7 9.7 0 01-1-.86 4.32 4.32 0 01-.72-1 2.64 2.64 0 01-.29-1.24 2.54 2.54 0 01.21-1 2.49 2.49 0 01.59-.81 2.61 2.61 0 01.89-.52 3.15 3.15 0 011.13-.19 4.8 4.8 0 011.36.17 5.69 5.69 0 01.82.33zM188 40.22v-1.45c0-.45 0-.77-.06-1.07s-.06-.55-.09-.75-.08-.37-.11-.51H190c0 .1-.06.21-.09.34s0 .26-.06.42a6.7 6.7 0 011.27-.57 5 5 0 011.55-.23 5.29 5.29 0 012 .37 4.27 4.27 0 011.53 1 4.72 4.72 0 011 1.65 6.46 6.46 0 01.35 2.17 5.49 5.49 0 01-.34 1.93 4.84 4.84 0 01-2.67 2.78 5.63 5.63 0 01-2.24.43 7.42 7.42 0 01-1.39-.12 8.35 8.35 0 01-1.15-.3v2.87c0 .45 0 .77.06 1.07s.05.55.08.75.07.37.11.51h-2.25c0-.14.07-.31.11-.51s.06-.45.09-.75 0-.66.06-1.07 0-.9 0-1.45zm4.3-3.08a2.68 2.68 0 00-.68.08 4.65 4.65 0 00-.69.23 3.85 3.85 0 00-.64.38 3.07 3.07 0 00-.55.53v6.96a2.72 2.72 0 00.44.27 3.5 3.5 0 00.55.23 4.37 4.37 0 00.69.16 5.61 5.61 0 00.86.06 3.35 3.35 0 001.37-.27 2.92 2.92 0 001-.79 3.76 3.76 0 00.65-1.26 5.83 5.83 0 00.23-1.68 10.05 10.05 0 00-.18-2 4.72 4.72 0 00-.56-1.56 2.7 2.7 0 00-2.5-1.4zm9.48-1.32v-1.45c0-.45 0-.77-.05-1.07s-.06-.55-.09-.75-.08-.37-.12-.51h2.26c0 .14-.07.3-.11.51s-.06.45-.09.75 0 .66-.05 1.07 0 .89 0 1.45v8.45c0 .45 0 .77.05 1.07s.06.55.09.75.07.37.11.51h-2.26q.06-.21.12-.51t.09-.75c0-.3 0-.66.05-1.07s0-.9 0-1.45zm11.14 10.96a5.89 5.89 0 01-2-.35 4.59 4.59 0 01-2.76-2.63 6 6 0 010-4.27 5.08 5.08 0 011-1.63 5 5 0 011.53-1.09 4.57 4.57 0 011.89-.39 4.93 4.93 0 011.86.35 4.15 4.15 0 011.49 1 4.83 4.83 0 011 1.63 6.75 6.75 0 01.39 2.21h-7.65a7.29 7.29 0 00.31 1.84 4.51 4.51 0 00.72 1.4 3.16 3.16 0 001.1.89 3.31 3.31 0 001.47.31 4.13 4.13 0 001.07-.13 3.69 3.69 0 00.91-.37A3.11 3.11 0 00216 45a3.27 3.27 0 00.55-.69l.12.06-.72 1.74a6.15 6.15 0 01-1.26.46 6.93 6.93 0 01-1.77.21zm-1.3-6h3.78a6.56 6.56 0 00-.33-1.52 3.84 3.84 0 00-.63-1.15 2.61 2.61 0 00-.9-.72 2.51 2.51 0 00-1.14-.25 2.16 2.16 0 00-1 .25 2.4 2.4 0 00-.82.71 3.75 3.75 0 00-.57 1.15 5.91 5.91 0 00-.25 1.55h.92zM228.1 40a2.87 2.87 0 00-.52-1.9 1.72 1.72 0 00-1.38-.6 2.19 2.19 0 00-.71.13 5.41 5.41 0 00-.8.35c-.27.15-.54.32-.82.51a9.58 9.58 0 00-.77.63v5.09c0 .45 0 .77.06 1.07s.06.55.09.75a4 4 0 00.11.51h-2.26a4 4 0 00.11-.51 5.94 5.94 0 00.09-.75c0-.3 0-.66.06-1.07s0-.9 0-1.45v-3.79c0-.45 0-.77-.06-1.07a5.94 5.94 0 00-.09-.75 3.67 3.67 0 00-.11-.51h2.26a2.78 2.78 0 00-.13.62c0 .25-.06.58-.09 1q.41-.33.87-.66a5.89 5.89 0 011-.59 5.15 5.15 0 011-.42 3.4 3.4 0 011-.17 2.8 2.8 0 011.29.27 2.4 2.4 0 01.87.69 2.66 2.66 0 01.49 1 4.26 4.26 0 01.15 1.12v4.77c0 .45 0 .77.06 1.07s.05.55.09.75.07.37.1.51h-2.25a4 4 0 00.11-.51 5.94 5.94 0 00.09-.75c0-.3 0-.66.06-1.07s0-.9 0-1.45zm10.18 6a1.69 1.69 0 00.58-.1 2.7 2.7 0 00.55-.3 3.42 3.42 0 00.52-.42 5.34 5.34 0 00.46-.5h.1l-.63 1.58-.29.14a2.38 2.38 0 01-.41.15 3.57 3.57 0 01-.56.13 4.33 4.33 0 01-.76 0 2.81 2.81 0 01-2-.7 3 3 0 01-.73-2.21v-6.41l-1.64.06v-.86h1.64v-1.23c0-.36 0-.66-.06-.92s0-.49-.08-.67-.07-.34-.1-.46h2.25c0 .12-.07.27-.1.46s-.06.4-.08.66-.05.57-.06.92 0 .77 0 1.24h3.1a3.6 3.6 0 00.45-.05l-.18 1h-3.33v6.72a3.27 3.27 0 00.13 1 1.59 1.59 0 00.35.59 1.08 1.08 0 00.47.3 2.1 2.1 0 00.41-.12zm9.27.48L244.11 39a7.77 7.77 0 00-.4-.82 10.649 10.649 0 00-.74-1.23l-.19-.27h2.55a1 1 0 000 .15V37a2.86 2.86 0 00.1.67 6 6 0 00.34.91l2.7 5.86 2.46-5.78c.11-.24.21-.5.32-.79a2.43 2.43 0 00.16-.87 1.25 1.25 0 000-.21.43.43 0 000-.11h1.76a3.27 3.27 0 00-.45.66c-.17.31-.37.71-.57 1.18l-4.66 11.1c-.1.24-.2.5-.31.79a2.43 2.43 0 00-.16.87.68.68 0 000 .21.53.53 0 000 .11h-1.82a3.44 3.44 0 00.45-.65 10.76 10.76 0 00.57-1.17zm16.06-4.9a5.14 5.14 0 01.41-2 5 5 0 011.13-1.63 5.4 5.4 0 011.69-1.09 5.68 5.68 0 012.1-.39 6 6 0 012.08.37 5 5 0 011.69 1 4.79 4.79 0 011.14 1.64 5.42 5.42 0 01.42 2.17 5.29 5.29 0 01-.36 1.93 4.75 4.75 0 01-1 1.64 5 5 0 01-1.67 1.14 5.88 5.88 0 01-2.29.43 5.7 5.7 0 01-2.06-.37 5.12 5.12 0 01-1.69-1 4.93 4.93 0 01-1.2-1.68 5.34 5.34 0 01-.39-2.16zm5.54 4.48a3 3 0 001.27-.27 2.83 2.83 0 001-.79 4 4 0 00.66-1.26 5.83 5.83 0 00.23-1.68 8.12 8.12 0 00-.22-2 4.81 4.81 0 00-.67-1.56 3.09 3.09 0 00-2.69-1.4 3 3 0 00-1.27.27 2.75 2.75 0 00-1 .77 3.81 3.81 0 00-.66 1.25 5.39 5.39 0 00-.24 1.67 8.1 8.1 0 00.23 2 5.06 5.06 0 00.68 1.58 3.3 3.3 0 001.12 1 3.16 3.16 0 001.56.42zm12.92-13.44a1.71 1.71 0 00-.53.08 1.31 1.31 0 00-.54.3 1.94 1.94 0 00-.39.64 3.22 3.22 0 00-.16 1.07v1.89h2.42a3.16 3.16 0 00.35-.05l-.18 1h-2.55v6.87c0 .45 0 .77.06 1.07a5.94 5.94 0 00.09.75 4 4 0 00.11.51h-2.26a4 4 0 00.11-.51q0-.3.09-.75c0-.3 0-.66.06-1.07s0-.9 0-1.45v-5.61l-1.65.06v-.86h1.65V35a3.64 3.64 0 01.22-1.33 2.63 2.63 0 01.61-1 2.66 2.66 0 01.93-.6 3.36 3.36 0 011.2-.21 4.72 4.72 0 01.68.05 3.91 3.91 0 01.61.09l.44.14.32.13.38 1.68-.14.05-.34-.48a3.7 3.7 0 00-.42-.46 2.18 2.18 0 00-.52-.33 1.59 1.59 0 00-.65-.11zm19.37 4.88l2.6 6.56 2.18-5.44.16-.39c.06-.15.11-.3.16-.45s.08-.3.11-.44a1.37 1.37 0 00.05-.38.68.68 0 000-.21.23.23 0 000-.11h1.76a3.1 3.1 0 00-.42.61 10.19 10.19 0 00-.6 1.23l-3.46 8.26h-.56l-2.52-6.12-2.52 6.12h-.55L294.56 39c-.11-.28-.24-.56-.37-.82s-.26-.5-.38-.71-.23-.38-.32-.52a2 2 0 00-.19-.27h2.6a1 1 0 000 .15V37a2.42 2.42 0 00.1.67 7.88 7.88 0 00.3.91l2.18 5.52 2.63-6.56zm9.64 6.22a2.71 2.71 0 01.32-1.34 3 3 0 01.85-1 4.92 4.92 0 011.2-.65 10.56 10.56 0 011.39-.39 12.21 12.21 0 011.43-.19q.71-.06 1.29-.06v-.5a3.43 3.43 0 00-.17-1.12 1.93 1.93 0 00-.47-.77 1.82 1.82 0 00-.72-.46 2.85 2.85 0 00-.94-.15 4 4 0 00-.69.06 3.42 3.42 0 00-.71.19 5.92 5.92 0 00-.77.37 8.61 8.61 0 00-.87.6l-.1-.06.66-1.38a4.59 4.59 0 01.64-.24q.31-.09.63-.15c.22 0 .44-.06.66-.08s.46 0 .71 0a5.58 5.58 0 011.75.25 3.32 3.32 0 011.2.69 2.63 2.63 0 01.67 1 3.46 3.46 0 01.22 1.25v4.63c0 .45 0 .77.06 1.07a5.94 5.94 0 00.09.75 4 4 0 00.11.51h-2.16a1.64 1.64 0 00.08-.35v-.47a5 5 0 01-.48.36 3.51 3.51 0 01-.64.34 4.31 4.31 0 01-.79.24 4.69 4.69 0 01-.95.1A3.94 3.94 0 01312 46a2.81 2.81 0 01-.92-2.28zm6.48-2.84a15.72 15.72 0 00-1.71.1 4.47 4.47 0 00-1.45.39 2.43 2.43 0 00-1 .83 3 3 0 00.2 3.2 2.13 2.13 0 001.6.6 2.57 2.57 0 00.85-.13 2.87 2.87 0 00.68-.33 2.45 2.45 0 00.51-.44 2.32 2.32 0 00.31-.46v-3.76zM327.74 46a1.65 1.65 0 00.58-.1 2.52 2.52 0 00.56-.3 4 4 0 00.52-.42c.16-.16.32-.33.46-.5h.1l-.64 1.58-.28.14a2.74 2.74 0 01-.41.15 3.46 3.46 0 01-.57.13 4.2 4.2 0 01-.76 0 2.78 2.78 0 01-2-.7 2.94 2.94 0 01-.73-2.21v-6.41l-1.64.06v-.86h1.64v-1.23c0-.35 0-.66-.06-.92s-.05-.49-.09-.67-.06-.34-.09-.46h2.25a4.53 4.53 0 00-.11.46c0 .18-.06.4-.08.66s0 .57-.06.92 0 .77 0 1.24h3.1a3.62 3.62 0 00.44-.05l-.17 1h-3.37v6.72a3 3 0 00.13 1 1.58 1.58 0 00.34.59 1.11 1.11 0 00.48.3 2 2 0 00.46-.12zm10.52.78a5.89 5.89 0 01-2-.35 4.54 4.54 0 01-1.65-1 4.62 4.62 0 01-1.11-1.63 6 6 0 010-4.27 5.08 5.08 0 011-1.63 5 5 0 011.5-1.09 4.57 4.57 0 011.89-.39 4.93 4.93 0 011.86.35 4.15 4.15 0 011.49 1 4.83 4.83 0 011 1.63 6.75 6.75 0 01.39 2.21h-7.6a7.29 7.29 0 00.31 1.84 4.51 4.51 0 00.72 1.4 3.16 3.16 0 001.1.89 3.31 3.31 0 001.47.31 4.13 4.13 0 001.07-.13 3.69 3.69 0 00.91-.37 3.11 3.11 0 00.73-.55 3.27 3.27 0 00.55-.69l.12.06-.72 1.74a6.15 6.15 0 01-1.26.46 6.93 6.93 0 01-1.77.21zm-1.3-6h3.78a6.56 6.56 0 00-.33-1.52 3.84 3.84 0 00-.63-1.15 2.61 2.61 0 00-.9-.72 2.51 2.51 0 00-1.14-.25 2.16 2.16 0 00-1 .25 2.4 2.4 0 00-.82.71 3.75 3.75 0 00-.57 1.15 5.91 5.91 0 00-.35 1.55h.92zm9.76-.36v-1.45c0-.45 0-.77-.06-1.07a5.94 5.94 0 00-.09-.75 3.67 3.67 0 00-.11-.51h2.26a2.92 2.92 0 00-.14.55c0 .21-.06.49-.08.83.24-.21.49-.4.75-.6a6.41 6.41 0 01.8-.52 5.06 5.06 0 01.84-.36 2.8 2.8 0 01.85-.14 3 3 0 01.46 0 2.7 2.7 0 01.35.07l.29.09.24.11-.48 1.86h-.16a1.22 1.22 0 00-1.32-.94 2.13 2.13 0 00-.64.1 3.55 3.55 0 00-.67.3 5.61 5.61 0 00-.68.44l-.67.52v5.29c0 .45 0 .77.06 1.07s.06.55.09.75a4 4 0 00.11.51h-2.26a4 4 0 00.11-.51 5.94 5.94 0 00.09-.75c0-.3 0-.66.06-1.07s0-.9 0-1.45zm9.34 5.32a1 1 0 01.08-.41 1.23 1.23 0 01.23-.33 1 1 0 01.33-.22.9.9 0 01.4-.08 1 1 0 01.42.08 1 1 0 01.55.55 1 1 0 01.09.41 1 1 0 01-.31.75 1 1 0 01-.75.3.9.9 0 01-.4-.08 1 1 0 01-.33-.22 1.23 1.23 0 01-.23-.33 1 1 0 01-.08-.42z" fill="#fff" data-name="レイヤー 1"/></g></svg>