<svg xmlns="http://www.w3.org/2000/svg" viewBox="0 0 221.52 29.08"><g data-name="レイヤー 2"><path d="M23.85 4.77l-.18.07A11.57 11.57 0 0020 2.6a12.76 12.76 0 00-4.7-.84 12.82 12.82 0 00-4.51.77 9.69 9.69 0 00-3.51 2.24A10 10 0 005 8.36a13.31 13.31 0 00-.82 4.84 19.25 19.25 0 00.78 5.58 12.9 12.9 0 002.33 4.48 10.74 10.74 0 003.85 3 12.69 12.69 0 005.4 1.08 10.49 10.49 0 002.23-.23 11.14 11.14 0 002.14-.69 10.91 10.91 0 001.93-1.12 9.35 9.35 0 001.65-1.49l.22.14-1.57 4a16.35 16.35 0 01-3.23.87 21.21 21.21 0 01-3.56.3 20.14 20.14 0 01-6.61-1 15.39 15.39 0 01-5.16-3 13.38 13.38 0 01-3.36-4.6 14.47 14.47 0 01-1.2-6 14.35 14.35 0 011.86-7.08 14 14 0 012.26-3 14.42 14.42 0 013.08-2.33A15.77 15.77 0 0111 .56 17.33 17.33 0 0115.53 0a20.59 20.59 0 017 1.15zM48.24 0a16.6 16.6 0 016 1.06 14.3 14.3 0 014.78 3 13.67 13.67 0 013.14 4.62 15.15 15.15 0 011.13 6 15.44 15.44 0 01-.43 3.65 14.56 14.56 0 01-3.3 6.36A12.92 12.92 0 0156.82 27a13.88 13.88 0 01-3.43 1.55 14.19 14.19 0 01-4 .55 17.08 17.08 0 01-6-1 14.18 14.18 0 01-4.77-3 13.66 13.66 0 01-3.15-4.6 15.31 15.31 0 01-1.13-6A15.56 15.56 0 0136 7.44a14.39 14.39 0 012-3 13 13 0 012.76-2.35A13.37 13.37 0 0144.18.56 14.33 14.33 0 0148.24 0zm1.11 27.32a9.82 9.82 0 004-.78 8.65 8.65 0 003.1-2.26 10.46 10.46 0 002-3.63 15.13 15.13 0 00.72-4.85 21.54 21.54 0 00-.69-5.58 13.51 13.51 0 00-2.08-4.45A9.77 9.77 0 0053 2.82a10.14 10.14 0 00-4.75-1.06 10 10 0 00-4 .77 8.6 8.6 0 00-3.1 2.24 10.34 10.34 0 00-2 3.59 15.06 15.06 0 00-.72 4.84 22 22 0 00.68 5.58 13.38 13.38 0 002.06 4.48 9.86 9.86 0 003.41 3 10.11 10.11 0 004.77 1.06zM76 .47l20.12 21.41V5.22c0-.83-.12-1.54-.12-2.14s-.15-1.08-.22-1.52a9.19 9.19 0 00-.23-1V.47H99v.08a9.44 9.44 0 00-.22 1c-.06.41-.12.91-.17 1.52s-.09 1.32-.12 2.14 0 1.8 0 2.9v20.76h-.69L77.68 7.48v16.26c0 .83.07 1.54.12 2.14s.2 1.12.2 1.5a9.69 9.69 0 00.22 1v.08h-3.47v-.06a9.43 9.43 0 00.23-1q.1-.6.18-1.5c0-.6.09-1.31.12-2.14s0-1.79 0-2.9V5.22c0-.83-.07-1.54-.12-2.14S75.05 2 75 1.56a9.19 9.19 0 00-.23-1V.47zm58.31 4.3l-.17.07a11.8 11.8 0 00-3.66-2.24 13.58 13.58 0 00-9.21-.07 9.81 9.81 0 00-3.53 2.24 10 10 0 00-2.29 3.59 13.31 13.31 0 00-.82 4.84 19.25 19.25 0 00.78 5.58 12.89 12.89 0 002.32 4.48 10.86 10.86 0 003.86 3 12.63 12.63 0 005.4 1.08 10.62 10.62 0 002.23-.23 10.49 10.49 0 004.07-1.81 10.11 10.11 0 001.65-1.49l.21.14-1.56 4a16.35 16.35 0 01-3.23.87 21.33 21.33 0 01-3.57.3 20.18 20.18 0 01-6.61-1 15.35 15.35 0 01-5.15-3 13.38 13.38 0 01-3.36-4.6 14.47 14.47 0 01-1.2-6 14.21 14.21 0 014.14-10 14.61 14.61 0 013.07-2.35 16.1 16.1 0 013.81-1.61A17.44 17.44 0 01126 0a20.6 20.6 0 017 1.15zM150.78.45h4.43c1.34 0 2.48-.05 3.43-.09a17.83 17.83 0 001.94-.15l-1 2.59c-.43-.11-.93-.22-1.5-.31s-1.1-.15-1.81-.22-1.53-.11-2.45-.11h-1.12l-1.26.07-1.43.08V13q2 0 3.63-.12c1.08-.06 2-.13 2.76-.19s1.66-.17 2.34-.28l-.61 2.84-2.75-.34q-1.21-.13-2.64-.24c-.95-.07-1.86-.11-2.73-.11v12.2a42.35 42.35 0 004.24-.2c1.29-.13 2.41-.28 3.38-.45a29.73 29.73 0 003.06-.64l-.56 3.16h-14.19v-.23a9.69 9.69 0 00.22-1c.07-.4.14-.9.19-1.5s.09-1.31.12-2.14 0-1.79 0-2.9V5.22c0-.83-.07-1.54-.12-2.14s-.12-1.11-.19-1.52a9.44 9.44 0 00-.22-1V.47zm21.96.02l.82.08h1.83a16.38 16.38 0 002.01-.13 24.62 24.62 0 013.31-.19 10.68 10.68 0 013.46.55 8 8 0 012.77 1.6A7.29 7.29 0 01188.76 5a8.56 8.56 0 01.66 3.45 9.22 9.22 0 01-1 4.49 8.63 8.63 0 01-2.81 3.06 10.5 10.5 0 01-4 1.59 14.25 14.25 0 01-4.75.05v6.14c0 .83.07 1.54.12 2.14a14.39 14.39 0 00.17 1.5 9.43 9.43 0 00.23 1v.08h-4.69v-.1a9.69 9.69 0 00.22-1c.07-.4.14-.9.19-1.5s.09-1.31.12-2.14 0-1.79 0-2.9V5.22c0-.83-.07-1.54-.12-2.14S173 2 173 1.56a9.44 9.44 0 00-.22-1zm4.12 15.6a9.71 9.71 0 003.51.07 5.87 5.87 0 002.73-1.21 6.11 6.11 0 001.78-2.51 10.45 10.45 0 00.63-3.87 11.74 11.74 0 00-.33-2.88 6.36 6.36 0 00-1-2.2 4.33 4.33 0 00-1.65-1.41 5.15 5.15 0 00-2.32-.5c-.56 0-1.05 0-1.47.07l-1.05.15a5.11 5.11 0 00-.84.21zm30.93-13.88a40 40 0 00-4.16.2c-1.24.14-2.3.29-3.2.44-1.05.2-2 .41-2.8.65l.57-3.17h22.65l.57 3.17c-.83-.24-1.77-.45-2.81-.65s-2-.3-3.21-.44a39.86 39.86 0 00-4.16-.2v21.55c0 .83.07 1.54.12 2.14s.11 1.1.18 1.5a9.69 9.69 0 00.22 1v.08h-4.67v-.06a9.69 9.69 0 00.22-1c.06-.4.12-.9.17-1.5s.09-1.31.12-2.14 0-1.79 0-2.9z" fill="#fff" data-name="レイヤー 1"/></g></svg>