<svg xmlns="http://www.w3.org/2000/svg" viewBox="0 0 224.69 29.08"><g data-name="レイヤー 2"><path d="M0 .47l.82.08h1.83A16.23 16.23 0 004.66.42 24.73 24.73 0 018 .23a10.74 10.74 0 013.47.55 8 8 0 012.76 1.6A7.44 7.44 0 0116 5a8.73 8.73 0 01.65 3.45 9.11 9.11 0 01-1 4.49A8.53 8.53 0 0112.87 16a10.5 10.5 0 01-4 1.59 14.24 14.24 0 01-4.75.05v6.14c0 .83.07 1.54.12 2.14a14.39 14.39 0 00.17 1.5c.08.41.15.74.23 1v.08H0v-.1a9.69 9.69 0 00.22-1 13.76 13.76 0 00.19-1.5c.05-.6.09-1.31.12-2.14s0-1.79 0-2.9V5.22c0-.83-.07-1.54-.12-2.14a14.21 14.21 0 00-.19-1.52A9.44 9.44 0 000 .55zm4.12 15.6a9.71 9.71 0 003.51.07 5.87 5.87 0 002.73-1.21 6 6 0 001.78-2.51 10.45 10.45 0 00.63-3.87 11.74 11.74 0 00-.33-2.88 6.54 6.54 0 00-1-2.2A4.43 4.43 0 009.8 2.06a5.12 5.12 0 00-2.32-.5c-.56 0-1.05 0-1.46.07L5 1.78a5.11 5.11 0 00-.88.22zm27.69 4.77c0 1.11 0 2.07.05 2.9s.07 1.54.12 2.14a14.39 14.39 0 00.17 1.5 9.43 9.43 0 00.23 1v.08h-4.69v-.06a9.69 9.69 0 00.22-1q.11-.6.18-1.5t.12-2.13c0-.82.05-1.79.05-2.91V8.12c0-1.1 0-2.07-.05-2.9s-.08-1.53-.12-2.13S28 2 27.91 1.57a9.16 9.16 0 00-.22-1v-.1l.82.08h1.78a16.38 16.38 0 002.06-.13 24.62 24.62 0 013.31-.19 11.26 11.26 0 013.46.51 8.11 8.11 0 012.77 1.49 6.71 6.71 0 011.82 2.39 7.49 7.49 0 01.66 3.21 9 9 0 01-.37 2.61 7.93 7.93 0 01-1 2.18 8.31 8.31 0 01-1.57 1.73 9.25 9.25 0 01-2.05 1.26l6.85 9.62c.34.49.66.9 1 1.25a8.52 8.52 0 00.84.91 6.5 6.5 0 00.77.63 3.6 3.6 0 00.76.38v.08h-5.7a3.64 3.64 0 00-.38-1 12.14 12.14 0 00-.75-1.22l-6.92-9.75-.89.07h-2.03a11 11 0 01-1.12-.13zm0-5.92a7.69 7.69 0 001.07.17c.37 0 .72.05 1.06.05a7.89 7.89 0 002.68-.44 5.41 5.41 0 002.06-1.34A6.17 6.17 0 0040 11.12 9.25 9.25 0 0040.46 8a10 10 0 00-.33-2.66 5.61 5.61 0 00-1-2A4.4 4.4 0 0037.49 2a5.58 5.58 0 00-2.32-.46A13.4 13.4 0 0033 1.7a7.19 7.19 0 00-1.19.3zM71.29 0a16.61 16.61 0 016 1.06 14.3 14.3 0 014.78 3 13.67 13.67 0 013.14 4.62 15.15 15.15 0 011.13 6 15.44 15.44 0 01-.43 3.65 14.56 14.56 0 01-3.3 6.36A12.92 12.92 0 0179.88 27a13.88 13.88 0 01-3.43 1.55 14.19 14.19 0 01-4 .55 17.08 17.08 0 01-6-1 14.18 14.18 0 01-4.77-3 13.66 13.66 0 01-3.15-4.6 15.31 15.31 0 01-1.13-6A15.56 15.56 0 0159 7.44a14.39 14.39 0 012-3 13.2 13.2 0 012.8-2.33A13.6 13.6 0 0167.24.56 14.31 14.31 0 0171.29 0zm1.12 27.32a9.82 9.82 0 004-.78 8.65 8.65 0 003.1-2.26 10.46 10.46 0 002-3.63 15.13 15.13 0 00.72-4.85 21.54 21.54 0 00-.69-5.58 13.51 13.51 0 00-2.06-4.45 9.77 9.77 0 00-3.41-2.95 10.12 10.12 0 00-4.76-1.06 10 10 0 00-4 .77 8.6 8.6 0 00-3.1 2.24 10.5 10.5 0 00-2 3.59 15.06 15.06 0 00-.72 4.84 22 22 0 00.68 5.58 13.57 13.57 0 002 4.48 10 10 0 003.42 3 10.11 10.11 0 004.82 1.06zM98 .39h3.33l2-.08 2.31-.08h2.26a20.16 20.16 0 015.39.71 11.83 11.83 0 014.49 2.3 11.18 11.18 0 013.07 4.2 16.06 16.06 0 011.13 6.39 18.7 18.7 0 01-.59 4.88 13.92 13.92 0 01-1.67 3.83 11.86 11.86 0 01-2.57 2.84 14 14 0 01-3.3 1.94 17.77 17.77 0 01-3.86 1.12 25.54 25.54 0 01-4.24.35c-.52 0-1.15 0-1.88-.05l-2.22-.11-2.1-.1c-.66 0-1.17-.05-1.53-.05v-.08c.07-.28.15-.61.22-1s.14-.9.19-1.5.09-1.31.11-2.14 0-1.79 0-2.9V5.21c0-.83-.11-1.57-.16-2.21s-.12-1.12-.19-1.54S98 .74 98 .47zm4.27 1.76c0 1.46 0 2.87-.07 4.24V20.1c0 1.3 0 2.55.08 3.75s.09 2.19.14 3l.73.08c.31 0 .63.06 1 .08l1 .05h.82a20.8 20.8 0 002.8-.19 11.83 11.83 0 002.77-.69 9.75 9.75 0 002.52-1.4 8.36 8.36 0 002.07-2.29 11.68 11.68 0 001.4-3.39 18.92 18.92 0 00.51-4.68 17.73 17.73 0 00-.73-5.32 10.53 10.53 0 00-2.12-3.93 8.93 8.93 0 00-3.45-2.44A12.69 12.69 0 00107 1.9h-1.19l-1.39.1-1.23.08zm51.49 5.97v-2.9c0-.83-.06-1.54-.11-2.14s-.12-1.11-.18-1.52a9.44 9.44 0 00-.22-1V.47h3.48v.08a9.44 9.44 0 00-.22 1 14.52 14.52 0 00-.18 1.52c0 .6-.08 1.32-.12 2.14s0 1.8 0 2.9v10.56a12.6 12.6 0 01-.8 4.77 8.47 8.47 0 01-2.22 3.23 8.83 8.83 0 01-3.42 1.84 15.81 15.81 0 01-4.36.57 17.17 17.17 0 01-4.4-.54 9.56 9.56 0 01-3.55-1.77A8.3 8.3 0 01135 23.6a11.69 11.69 0 01-.86-4.73V5.22c0-.83-.14-1.54-.14-2.14s-.12-1.11-.19-1.52-.15-.74-.22-1V.47h4.68v.08c-.07.27-.15.61-.22 1s-.14.91-.19 1.52-.09 1.32-.11 2.14 0 1.8 0 2.9v11a9.29 9.29 0 00.69 3.84 6.24 6.24 0 001.83 2.4 6.45 6.45 0 002.58 1.24 12.57 12.57 0 005.89 0 6.41 6.41 0 002.57-1.24 6.32 6.32 0 001.82-2.4 9.29 9.29 0 00.69-3.84zM192 4.77l-.18.07a11.68 11.68 0 00-3.66-2.24 13.58 13.58 0 00-9.21-.07 9.81 9.81 0 00-3.53 2.24 10.1 10.1 0 00-2.29 3.59 13.31 13.31 0 00-.82 4.84 19.25 19.25 0 00.78 5.58 13.06 13.06 0 002.32 4.48 10.86 10.86 0 003.86 3 12.66 12.66 0 005.4 1.08 10.56 10.56 0 002.23-.23 11.37 11.37 0 002.1-.71 10.91 10.91 0 002-1.12 9.35 9.35 0 001.65-1.49l.22.14-1.57 4a16.35 16.35 0 01-3.23.87 21.21 21.21 0 01-3.56.3 20.14 20.14 0 01-6.61-1 15.39 15.39 0 01-5.16-3 13.38 13.38 0 01-3.36-4.6 14.47 14.47 0 01-1.2-6 14.07 14.07 0 01.48-3.65 14.2 14.2 0 016.74-8.75 15.86 15.86 0 013.8-1.55 17.46 17.46 0 014.46-.55 20.59 20.59 0 017 1.15zm19-2.58a40.2 40.2 0 00-4.17.2c-1.23.14-2.3.29-3.2.44s-2 .41-2.79.65l.57-3.17h22.7l.57 3.17c-.84-.24-1.78-.45-2.82-.65s-2-.3-3.2-.44a40.14 40.14 0 00-4.16-.2v18.65c0 1.11 0 2.07.05 2.9s.07 1.54.12 2.14a14.39 14.39 0 00.17 1.5 9.43 9.43 0 00.23 1v.08h-4.67v-.06a7.84 7.84 0 00.21-1q.1-.6.18-1.5c0-.6.09-1.31.12-2.14s0-1.79 0-2.9z" fill="#fff" data-name="レイヤー 1"/></g></svg>