<svg xmlns="http://www.w3.org/2000/svg" viewBox="0 0 250 20.8"><g data-name="レイヤー 2"><path d="M10.59 4.87a8.66 8.66 0 00-.79-1.5A7.24 7.24 0 008.68 2a5.8 5.8 0 00-1.42-.93 4 4 0 00-1.7-.31 4.38 4.38 0 00-2.21.49A1.87 1.87 0 002.48 3a2.23 2.23 0 00.39 1.31 3.92 3.92 0 001 1 10.77 10.77 0 001.48.78l1.69.72c.57.24 1.14.51 1.69.79a7.07 7.07 0 011.48 1 4.65 4.65 0 011 1.37 4.13 4.13 0 01.39 1.87 4.26 4.26 0 01-.43 2 4 4 0 01-1.14 1.39 4.93 4.93 0 01-1.68.8 7.94 7.94 0 01-2 .26 7.69 7.69 0 01-1.23-.11q-.6-.08-1.2-.18l-1.07-.25a3.9 3.9 0 00-.77-.11 1.69 1.69 0 00-.5.08l-.49.18C1 15 .78 14.09.59 13.24S.2 11.51 0 10.61l.31-.16a15.6 15.6 0 001 1.72 10.63 10.63 0 001.38 1.63A7.39 7.39 0 004.36 15a4.09 4.09 0 002 .49 5.81 5.81 0 001.32-.15 3.35 3.35 0 001.12-.49 2.37 2.37 0 00.75-.85 2.73 2.73 0 00.28-1.31 2.6 2.6 0 00-.68-1.85 6.65 6.65 0 00-1.7-1.3 21.59 21.59 0 00-2.21-1A14.6 14.6 0 013 7.48a6.58 6.58 0 01-1.68-1.39 3.05 3.05 0 01-.68-2A4 4 0 011 2.38 4 4 0 012 1.1 4.17 4.17 0 013.35.28 4.91 4.91 0 015 0a9.37 9.37 0 011.61.12c.46.08.92.16 1.39.26l1.31.27a7.14 7.14 0 001.42.13v2.07c0 .67.07 1.34.15 2zM20.8 14.92l.52.09.66.1.74.08h.71A13 13 0 0026 15a7.17 7.17 0 002-.77 8.44 8.44 0 001.76-1.32 16 16 0 001.7-1.91l.26.21-2.15 4.75-.83-.07H17.63l-1.37.07v-.28a4.7 4.7 0 001.32-.26 1.39 1.39 0 00.71-.59 2.51 2.51 0 00.3-1.05c0-.44.05-1 .05-1.65V4.21c0-.66 0-1.21-.05-1.65a2.51 2.51 0 00-.3-1 1.45 1.45 0 00-.73-.59 5.46 5.46 0 00-1.32-.31V.38H29.5v2.01c0 .35 0 .7.05 1.05s.06.75.1 1.17l-.31.1a6 6 0 00-.82-1.86 3.91 3.91 0 00-1.18-1.12 4.39 4.39 0 00-1.48-.55A10.17 10.17 0 0024.11 1c-1.1 0-2.2.05-3.31.14V7h1.82a4.57 4.57 0 002.59-.65A3.18 3.18 0 0026.38 4h.28v6.79h-.28a6.57 6.57 0 00-.52-1.62 2.43 2.43 0 00-.77-1A2.73 2.73 0 0024 7.73a9.61 9.61 0 00-1.63-.12H20.8zM34.3.38l1.57.07h2.74l1-.07q.31.42 1 1.29l1.62 2c.6.74 1.25 1.53 1.95 2.36l2 2.45L48 10.67c.55.69 1 1.25 1.29 1.69V6.81c0-1 0-1.89-.1-2.64a6.87 6.87 0 00-.43-1.88A2.59 2.59 0 0048 1.13a3.14 3.14 0 00-1.57-.47V.38l1.66.07h3.21l1.53-.07v.28a3.13 3.13 0 00-2 .86 3.22 3.22 0 00-.56 2.07v12.53h-.87q-1.3-2-2.76-4c-1-1.27-1.93-2.49-2.88-3.64S41.84 6.32 41 5.33l-2.4-2.64v6.55c0 1.41 0 2.51.08 3.32a5.07 5.07 0 00.4 1.87 1.64 1.64 0 00.95.88 7.83 7.83 0 001.74.34v.28l-2.34-.07h-3.69l-1.35.07v-.28c.54-.08 1-.15 1.41-.23a2.62 2.62 0 001-.35 1.53 1.53 0 00.59-.71 3.57 3.57 0 00.22-1.29l.19-10.85a6.45 6.45 0 00-1.66-1A16.43 16.43 0 0034.3.66zm32.86 4.49a9.41 9.41 0 00-.79-1.5A6.91 6.91 0 0065.24 2a5.62 5.62 0 00-1.42-.93 4 4 0 00-1.7-.35 4.41 4.41 0 00-2.21.49A1.88 1.88 0 0059.05 3a2.23 2.23 0 00.39 1.31 3.92 3.92 0 001 1A10.22 10.22 0 0062 6.1l1.69.72c.57.24 1.14.51 1.69.79a6.75 6.75 0 011.47 1 4.68 4.68 0 011 1.37 4.27 4.27 0 01.39 1.87 4.39 4.39 0 01-.43 2 4 4 0 01-1.15 1.39 4.84 4.84 0 01-1.68.8 7.86 7.86 0 01-2 .26 7.69 7.69 0 01-1.23-.11c-.42-.07-.84-.15-1.23-.24l-1.07-.25a4 4 0 00-.77-.11 1.64 1.64 0 00-.5.08l-.5.18c-.14-.89-.3-1.77-.49-2.62s-.39-1.73-.59-2.63l.3-.16a19.49 19.49 0 001 1.72 11.3 11.3 0 001.36 1.63A7.39 7.39 0 0060.93 15a4.05 4.05 0 002 .49 5.83 5.83 0 001.33-.15 3.35 3.35 0 001.12-.49 2.37 2.37 0 00.77-.86 2.73 2.73 0 00.28-1.31 2.64 2.64 0 00-.68-1.85A6.54 6.54 0 0064 9.57a19.77 19.77 0 00-2.21-1 15.58 15.58 0 01-2.21-1.06 6.7 6.7 0 01-1.7-1.39 3 3 0 01-.68-2 3.89 3.89 0 01.35-1.68 4 4 0 011-1.28 4.13 4.13 0 011.36-.88A5 5 0 0161.6 0a9.2 9.2 0 011.57.12c.47.08.92.16 1.36.26l1.35.27a7.07 7.07 0 001.42.13v2.07c0 .67.07 1.34.15 2zm19-.66q0-1-.06-1.65a2.51 2.51 0 00-.3-1 1.55 1.55 0 00-.75-.59A5.46 5.46 0 0083.7.66V.38l1.93.07h3.49l1.53-.07v.28a5.1 5.1 0 00-1.3.26 1.49 1.49 0 00-.71.59 2.67 2.67 0 00-.29 1.05q-.06.66-.06 1.65v7.89q0 1 .06 1.65a2.37 2.37 0 00.31 1.05 1.42 1.42 0 00.74.59 5.12 5.12 0 001.37.26v.28L89 15.86h-3.53l-1.7.07v-.28a4.79 4.79 0 001.33-.26 1.5 1.5 0 00.72-.59 2.51 2.51 0 00.3-1.05q.06-.66.06-1.65V7.85h-8.79v4.25q0 1 .06 1.65a2.37 2.37 0 00.31 1.05 1.42 1.42 0 00.74.59 5.12 5.12 0 001.37.26v.28l-1.79-.07h-3.52l-1.71.07v-.28a4.79 4.79 0 001.33-.26 1.5 1.5 0 00.72-.59 2.5 2.5 0 00.31-1.05c0-.44.05-1 .05-1.65V4.21c0-.66 0-1.21-.05-1.65a2.5 2.5 0 00-.31-1 1.55 1.55 0 00-.75-.59 5.47 5.47 0 00-1.34-.31V.38l1.92.07h3.49l1.54-.07v.28a4.92 4.92 0 00-1.3.26 1.4 1.4 0 00-.71.59 2.51 2.51 0 00-.3 1.05q-.06.66-.06 1.65v2.88h8.77zM97 2.77a3.07 3.07 0 00-.13-1 1.15 1.15 0 00-.39-.58 1.53 1.53 0 00-.64-.31L95 .66V.38l2 .07h3.36l1.4-.07v.28a5.9 5.9 0 00-1.25.24 1.87 1.87 0 00-.78.47 1.79 1.79 0 00-.4.79 5.11 5.11 0 00-.12 1.2v7.7a4.26 4.26 0 00.37 1.88 3.46 3.46 0 001 1.26 4.31 4.31 0 001.48.7 6.83 6.83 0 001.78.23 6 6 0 002.49-.45 4.63 4.63 0 001.53-1.1 3.59 3.59 0 00.78-1.39 5 5 0 00.21-1.32V4.25a12 12 0 00-.08-1.59 2.55 2.55 0 00-.33-1.06 1.53 1.53 0 00-.7-.63 4.21 4.21 0 00-1.15-.31V.38l1.41.07h2.66l1.2-.07v.28a7.28 7.28 0 00-.91.19 1.47 1.47 0 00-.69.43 2 2 0 00-.44.88 6.54 6.54 0 00-.15 1.57v7.07a5.47 5.47 0 01-.51 2.45 4.75 4.75 0 01-1.42 1.75 5.76 5.76 0 01-2 1 9.13 9.13 0 01-2.49.33 8.44 8.44 0 01-2.32-.32 5.76 5.76 0 01-2-1 4.84 4.84 0 01-1.39-1.62 4.72 4.72 0 01-.54-2.23zm27.55 5.39a8 8 0 01.7-3.43 7.6 7.6 0 011.88-2.57 8.13 8.13 0 012.78-1.6 10.54 10.54 0 016.78 0 8.23 8.23 0 012.78 1.6 7.74 7.74 0 011.88 2.57 8.18 8.18 0 01.65 3.43 8.16 8.16 0 01-.69 3.42 7.74 7.74 0 01-1.88 2.57 8.25 8.25 0 01-2.78 1.61 10.72 10.72 0 01-6.78 0 8.15 8.15 0 01-2.78-1.61 7.6 7.6 0 01-1.88-2.57 8 8 0 01-.66-3.42zm19.12 9c-.44.57-.84 1.08-1.21 1.54a5.83 5.83 0 01-1.2 1.14 4.67 4.67 0 01-1.45.71 6.65 6.65 0 01-2 .25 5.4 5.4 0 01-1.67-.25 10.23 10.23 0 01-1.55-.62c-.5-.25-1-.53-1.5-.83s-1-.58-1.5-.83a10 10 0 00-1.57-.62 5.67 5.67 0 00-1.69-.25 3.24 3.24 0 00-1.11.19 6 6 0 00-1 .45l-.33-.38a5.6 5.6 0 013.35-1 9.07 9.07 0 012.61.39c.88.26 1.73.54 2.57.85s1.64.59 2.42.84a7.21 7.21 0 002.19.38 5.1 5.1 0 001.35-.16 3.71 3.71 0 001.08-.46 5.36 5.36 0 00.94-.74 11.59 11.59 0 00.88-1zm-16.61-9a9 9 0 00.42 2.76 7.51 7.51 0 001.23 2.33 6.11 6.11 0 002 1.61 6 6 0 005.25 0 6 6 0 002-1.61 7.11 7.11 0 001.23-2.33 8.76 8.76 0 00.43-2.76 8.78 8.78 0 00-.43-2.77 7.11 7.11 0 00-1.23-2.33 6.14 6.14 0 00-2-1.61 6 6 0 00-5.25 0 6.25 6.25 0 00-2 1.61 7.51 7.51 0 00-1.23 2.33 9.07 9.07 0 00-.42 2.77zm21.46-5.39a3.07 3.07 0 00-.13-1 1.3 1.3 0 00-.39-.58 1.59 1.59 0 00-.64-.31l-.87-.19V.38l1.95.07h3.35l1.41-.07v.28a5.9 5.9 0 00-1.2.24 1.87 1.87 0 00-.78.47 1.69 1.69 0 00-.4.79 5.11 5.11 0 00-.12 1.2v7.7a4.41 4.41 0 00.36 1.88 3.48 3.48 0 001 1.26 4.22 4.22 0 001.48.7 6.83 6.83 0 001.78.23 5.88 5.88 0 002.48-.45 4.58 4.58 0 001.54-1.1 3.59 3.59 0 00.78-1.39 5 5 0 00.21-1.32V4.25a14 14 0 00-.08-1.59 2.88 2.88 0 00-.33-1.06 1.58 1.58 0 00-.7-.63A4.19 4.19 0 00158 .66V.38l1.46.07h2.66l1.2-.07v.28a7.28 7.28 0 00-.91.19 1.5 1.5 0 00-.7.43 2.13 2.13 0 00-.43.88 6 6 0 00-.16 1.57v7.07a5.61 5.61 0 01-.5 2.45 4.75 4.75 0 01-1.37 1.75 5.76 5.76 0 01-2 1 9.16 9.16 0 01-2.5.33 8.42 8.42 0 01-2.35-.33 5.9 5.9 0 01-2-1 4.93 4.93 0 01-1.4-1.6 4.6 4.6 0 01-.52-2.24zM171.83 9l-1.56 4.27-.13.34a.73.73 0 00-.06.3 1.12 1.12 0 00.25.74 2 2 0 00.6.5 3.6 3.6 0 00.73.32 5.21 5.21 0 00.64.17v.28l-1.42-.07h-2.82l-1.43.07v-.28a3.27 3.27 0 001.21-.51 3.32 3.32 0 00.82-.81 6.6 6.6 0 00.58-1.05c.16-.37.33-.77.48-1.18l4.09-10 .13-.31a.69.69 0 00.06-.26 1.4 1.4 0 00-.08-.36 2.71 2.71 0 00-.2-.42 5.15 5.15 0 001.06-.34l1-.4 4.91 13.52a3.56 3.56 0 00.92 1.46 3.24 3.24 0 001.75.67v.28l-1.85-.07h-5.37v-.28a4.33 4.33 0 001.66-.51 1.18 1.18 0 00.68-1.05.88.88 0 00-.09-.38l-.13-.35L176.77 9zm2.55-6.72l-2.32 6h4.45zM194.21.66a11.16 11.16 0 00-1.77.38 2.13 2.13 0 00-.93.53 1.45 1.45 0 00-.37.81 8 8 0 00-.07 1.19v11.35l1.24.21a8.25 8.25 0 001.22.09 9.22 9.22 0 002.43-.28 6 6 0 001.87-.85 7.29 7.29 0 001.52-1.43 18.58 18.58 0 001.41-2h.36l-1.82 5.29-1.72-.07h-9.89l-1.19.07v-.28a5.22 5.22 0 001.24-.24 2.19 2.19 0 00.73-.41 1.29 1.29 0 00.34-.6 4.1 4.1 0 00.08-.83V4.21q0-1-.06-1.65a2.67 2.67 0 00-.29-1 1.49 1.49 0 00-.71-.59 5.18 5.18 0 00-1.33-.26V.38l1.84.07h3.83l2-.07zm10.26 14.99a4.79 4.79 0 001.33-.26 1.5 1.5 0 00.72-.59 2.51 2.51 0 00.3-1.05q.06-.66.06-1.65V4.21q0-1-.06-1.65a2.51 2.51 0 00-.3-1 1.55 1.55 0 00-.75-.59 5.46 5.46 0 00-1.35-.26V.38l1.93.07h3.49l1.53-.07v.28a5.1 5.1 0 00-1.3.26 1.42 1.42 0 00-.7.59 2.51 2.51 0 00-.3 1.05q-.06.66-.06 1.65v7.89q0 1 .06 1.65a2.37 2.37 0 00.31 1.05 1.42 1.42 0 00.74.59 5.12 5.12 0 001.37.26v.28l-1.79-.07h-3.53l-1.7.07zm14.61 0a4.63 4.63 0 001.32-.26 1.42 1.42 0 00.72-.59 2.37 2.37 0 00.31-1.05q.06-.66.06-1.65v-11a19.87 19.87 0 00-2.09.1 3.41 3.41 0 00-1.46.48 3.43 3.43 0 00-1.07 1.2 11.53 11.53 0 00-.91 2.2l-.31-.1.35-4.6 2 .07h9.42l1.78-.07.33 4.62-.31.1a11.53 11.53 0 00-.91-2.2 3.43 3.43 0 00-1.07-1.2 3.41 3.41 0 00-1.48-.48 20.92 20.92 0 00-2.14-.1v11q0 1 .06 1.65a2.37 2.37 0 00.32 1.03 1.42 1.42 0 00.74.59 5.12 5.12 0 001.37.26v.28l-1.8-.07h-3.52l-1.7.07zM232.13.38l1.94.07h3.79l1.86-.07v.28c-.19 0-.4.08-.63.14a3.3 3.3 0 00-.64.26 1.53 1.53 0 00-.48.43 1 1 0 00-.19.64 1.42 1.42 0 00.25.68 10 10 0 00.72 1.07l3.36 4.54L244.89 4a3.53 3.53 0 00.62-1.82 1.31 1.31 0 00-.57-1.1 2.42 2.42 0 00-1.28-.46V.38l1.67.07h3.17l1.5-.07v.28a4.13 4.13 0 00-1.51.6 7.77 7.77 0 00-1.2 1 8.6 8.6 0 00-.94 1.17c-.28.41-.53.78-.77 1.11l-3.24 4.73v3.47a6 6 0 00.14 1.41 1.89 1.89 0 00.46.84 2 2 0 00.87.45 9.29 9.29 0 001.37.21v.28l-2.11-.07h-3.85l-1.75.07v-.28a8.77 8.77 0 001.31-.21 2 2 0 00.85-.45 1.63 1.63 0 00.45-.84 6 6 0 00.13-1.41V9l-4.28-5.48c-.22-.29-.44-.58-.68-.87a7.62 7.62 0 00-.79-.82 5.5 5.5 0 00-1-.71 4.47 4.47 0 00-1.32-.49z" fill="#fff" data-name="レイヤー 1"/></g></svg>