<svg xmlns="http://www.w3.org/2000/svg" viewBox="0 0 340.67 35.2"><g data-name="レイヤー 2"><path d="M12.48 5h-.43a4.94 4.94 0 00-.5-1 4.24 4.24 0 00-.9-1.07 4.83 4.83 0 00-1.34-.83 4.84 4.84 0 00-1.87-.33 4.73 4.73 0 00-1.7.23 3.33 3.33 0 00-2 2.07 4.8 4.8 0 00-.25 1.6 5 5 0 00.79 2.69 15.74 15.74 0 002 2.53c.79.83 1.65 1.66 2.58 2.5A33.28 33.28 0 0111.43 16a14.69 14.69 0 012 2.82A6.57 6.57 0 0114.2 22a7.86 7.86 0 01-.44 2.55 6.64 6.64 0 01-1.36 2.3 7 7 0 01-2.4 1.64 8.56 8.56 0 01-3.44.63 11.13 11.13 0 01-2.12-.2 14.1 14.1 0 01-1.85-.51 11 11 0 01-1.53-.66A11.67 11.67 0 010 27.11l.45-4.32h.49a6.29 6.29 0 00.7 1.75A6.55 6.55 0 002.84 26a5.79 5.79 0 001.63 1 5.07 5.07 0 002 .38 5 5 0 001.79-.3 4 4 0 001.36-.84A3.64 3.64 0 0010.5 25a4.25 4.25 0 00.3-1.62 5.73 5.73 0 00-.45-2.28 9.17 9.17 0 00-1.18-2 16.38 16.38 0 00-1.66-1.81c-.62-.59-1.25-1.18-1.9-1.77s-1.29-1.2-1.91-1.83a14.33 14.33 0 01-1.66-2A10.13 10.13 0 01.86 9.4a7.65 7.65 0 01-.45-2.68A6.27 6.27 0 011 3.94a6.44 6.44 0 011.59-2.12A7 7 0 014.82.47 7.4 7.4 0 017.4 0a9.2 9.2 0 011.8.16 9.84 9.84 0 011.47.37 10.46 10.46 0 011.15.47l.8.35zm13.9 23.44a7.84 7.84 0 00.21-1q.11-.6.18-1.5c.05-.6.09-1.31.12-2.14s0-1.79 0-2.9V5.26c0-.83-.07-1.54-.12-2.14S26.66 2 26.59 1.6a7.65 7.65 0 00-.21-1V.51h4.67v.08a9.19 9.19 0 00-.23 1 14.53 14.53 0 00-.17 1.52c0 .6-.09 1.32-.12 2.14s-.05 1.8-.05 2.9v12.73c0 1.11 0 2.07.05 2.9s.07 1.54.12 2.14a14.39 14.39 0 00.17 1.5 9.43 9.43 0 00.23 1v.08h-4.67zM47 26.8h8.36a42.23 42.23 0 004.22-.2q1.95-.2 3.39-.45c1.12-.18 2.15-.4 3.07-.64l-1 3.16H41.67V28l19-25.8h-7.33a39.69 39.69 0 00-4.24.2c-1.3.14-2.43.28-3.39.44-1.12.2-2.14.41-3.05.65L44 .35h22.06V1zM81.75.49h4.42c1.34 0 2.49 0 3.44-.09a17.57 17.57 0 001.93-.2l-1 2.59c-.42-.11-.93-.22-1.5-.31s-1.1-.15-1.81-.22a22.25 22.25 0 00-2.45-.11h-1.12l-1.26.07-1.4.1V13c1.34 0 2.56-.05 3.64-.12s2-.13 2.75-.19 1.67-.17 2.35-.28l-.61 2.83-2.75-.33q-1.22-.13-2.64-.24c-1-.07-1.86-.11-2.74-.11V26.8a42.35 42.35 0 004.24-.2c1.29-.13 2.42-.28 3.38-.45 1.12-.18 2.14-.4 3.07-.64l-.57 3.16H76.89v-.08a9.43 9.43 0 00.23-1q.1-.6.18-1.5c0-.6.09-1.31.12-2.14s0-1.79 0-2.9V5.26c0-.83-.07-1.54-.12-2.14S77.19 2 77.12 1.6a9.19 9.19 0 00-.23-1V.51zM145.18 18a13.32 13.32 0 01-3.09 6.56 51.64 51.64 0 004.09 3.68 38.57 38.57 0 004.11 2.94 21.75 21.75 0 003.89 1.95 9.88 9.88 0 003.44.71 6.62 6.62 0 001.25-.12v.45c-.16.06-.36.16-.61.27a6 6 0 01-.94.33 10.55 10.55 0 01-1.31.28 10.91 10.91 0 01-1.71.12 9.9 9.9 0 01-3.29-.64 20.94 20.94 0 01-3.66-1.76 35.51 35.51 0 01-3.84-2.66 47.44 47.44 0 01-3.8-3.38 13.86 13.86 0 01-3.71 1.81 15.41 15.41 0 01-4.46.62 13 13 0 01-3.94-.55 8.44 8.44 0 01-3-1.56 6.92 6.92 0 01-1.86-2.46 7.72 7.72 0 01-.66-3.24 7 7 0 01.65-3.06 9 9 0 011.69-2.41 13.19 13.19 0 012.39-2c.9-.59 1.82-1.16 2.75-1.7a20.41 20.41 0 01-.87-2.85 12.12 12.12 0 01-.32-2.66 7.4 7.4 0 01.5-2.78 6.15 6.15 0 011.36-2.1 5.87 5.87 0 012-1.33 6.61 6.61 0 012.52-.46 6.16 6.16 0 011.84.27 4.21 4.21 0 011.49.81 4 4 0 011 1.34 4.47 4.47 0 01.37 1.86 5 5 0 01-.56 2.38 7.68 7.68 0 01-1.46 1.93 13.32 13.32 0 01-2.08 1.64c-.79.51-1.59 1-2.43 1.49a29.58 29.58 0 001.5 3c.58 1 1.21 2 1.9 3s1.43 2 2.23 2.94 1.61 1.9 2.46 2.82a10.22 10.22 0 001.47-2.89A11.26 11.26 0 00143 17a17.4 17.4 0 00-.18-2.74q-.19-1.11-.39-1.89v-.08H146v.08a5.94 5.94 0 00-.2 1c-.05.38-.1.8-.15 1.27s-.11 1-.18 1.52-.17 1.23-.29 1.84zM133 27.4a10.63 10.63 0 003-.4 9.33 9.33 0 002.67-1.25c-.89-.93-1.75-1.9-2.58-2.9s-1.62-2-2.35-3-1.4-2.08-2-3.13a31.74 31.74 0 01-1.61-3.1 21.35 21.35 0 00-1.71 1.31 8.93 8.93 0 00-1.38 1.51 6.83 6.83 0 00-.92 1.78 6.29 6.29 0 00-.34 2.12 7.4 7.4 0 00.53 2.84 6.87 6.87 0 001.5 2.26 6.71 6.71 0 002.27 1.5 7.73 7.73 0 002.92.46zm-1.49-21.72a11.23 11.23 0 00.25 2.32 22.46 22.46 0 00.7 2.49c.64-.41 1.24-.82 1.79-1.25a8.79 8.79 0 001.45-1.4 6.18 6.18 0 001-1.61 4.86 4.86 0 00.3-1.87 4 4 0 00-.15-1.11 3.13 3.13 0 00-.44-.92 2.15 2.15 0 00-.75-.62 2.41 2.41 0 00-1.07-.23 2.65 2.65 0 00-2.33 1.12 5.3 5.3 0 00-.75 3.08zm71.19-.88l-.17.08a11.8 11.8 0 00-3.66-2.24 12.76 12.76 0 00-4.7-.84 12.56 12.56 0 00-4.51.77 9.93 9.93 0 00-3.53 2.23 10.1 10.1 0 00-2.29 3.6 13.31 13.31 0 00-.82 4.84 19.3 19.3 0 00.78 5.58 12.89 12.89 0 002.32 4.48 10.86 10.86 0 003.86 3 12.63 12.63 0 005.4 1.08 10.62 10.62 0 002.23-.23 10.49 10.49 0 004.07-1.81 10.11 10.11 0 001.65-1.49l.21.13L202 28a16.54 16.54 0 01-3.23.87 21.33 21.33 0 01-3.57.3 20.18 20.18 0 01-6.61-1 15.44 15.44 0 01-5.15-3 13.38 13.38 0 01-3.36-4.6 14.47 14.47 0 01-1.2-6 14.2 14.2 0 011.87-7.07 14.08 14.08 0 012.27-3 14.61 14.61 0 013.07-2.35A15.69 15.69 0 01189.88.6a17 17 0 014.5-.56 20.6 20.6 0 017 1.15zM227.09 0a16.65 16.65 0 016 1.06 14.25 14.25 0 014.77 3A13.64 13.64 0 01241 8.71a15.33 15.33 0 011.13 6 15.5 15.5 0 01-.43 3.65 15.22 15.22 0 01-1.26 3.4 14.19 14.19 0 01-2 3 13.16 13.16 0 01-6.19 3.88 13.84 13.84 0 01-4 .56 17 17 0 01-6-1 14.18 14.18 0 01-4.77-3 13.37 13.37 0 01-3.15-4.6 15.13 15.13 0 01-1.13-6 15.44 15.44 0 01.43-3.65 14.61 14.61 0 011.26-3.42 14.39 14.39 0 012-3A13.06 13.06 0 01223 .6a14 14 0 014.09-.6zm1.12 27.32a9.85 9.85 0 004-.78 8.65 8.65 0 003.1-2.26 10.62 10.62 0 002-3.63 15.13 15.13 0 00.72-4.85 21.48 21.48 0 00-.69-5.58 13.72 13.72 0 00-2.06-4.45 9.76 9.76 0 00-3.41-2.95 10.15 10.15 0 00-4.76-1.06 9.85 9.85 0 00-4 .77A8.69 8.69 0 00220 4.8a10.48 10.48 0 00-2 3.6 15.06 15.06 0 00-.72 4.84 21.66 21.66 0 00.68 5.58A13.57 13.57 0 00220 23.3a9.8 9.8 0 003.42 3 10.11 10.11 0 004.79 1.06zm29.68-.52a42.29 42.29 0 004.23-.2c1.29-.13 2.42-.28 3.38-.45 1.12-.18 2.14-.4 3.07-.64l-.57 3.16h-14.24v-.08a9.43 9.43 0 00.23-1q.1-.6.18-1.5c.06-.6.1-1.31.12-2.14s0-1.79 0-2.9V5.26c0-.83-.06-1.54-.12-2.14S254.06 2 254 1.6a9.19 9.19 0 00-.23-1V.51h4.69v.08a9.44 9.44 0 00-.22 1c-.07.4-.13.91-.18 1.52s-.08 1.32-.12 2.14 0 1.8 0 2.9zM292.14 0a16.6 16.6 0 016 1.06 14.3 14.3 0 014.78 3 13.47 13.47 0 013.14 4.62 15.15 15.15 0 011.13 6 16 16 0 01-.42 3.65 15.22 15.22 0 01-1.26 3.4 14.62 14.62 0 01-2 3 13 13 0 01-2.79 2.27 13.35 13.35 0 01-3.43 1.54 13.8 13.8 0 01-4 .56 17.12 17.12 0 01-6-1 14.18 14.18 0 01-4.77-3 13.66 13.66 0 01-3.15-4.6 15.31 15.31 0 01-1.13-6 16 16 0 01.43-3.65 15.57 15.57 0 011.26-3.42 14.79 14.79 0 012-3A13.2 13.2 0 01288.08.6a14 14 0 014.06-.6zm1.11 27.32a9.79 9.79 0 004-.78 8.65 8.65 0 003.1-2.26 10.46 10.46 0 002-3.63 15.13 15.13 0 00.72-4.85 21.48 21.48 0 00-.69-5.58 13.51 13.51 0 00-2.06-4.45 9.67 9.67 0 00-3.41-2.95 10.11 10.11 0 00-4.75-1.06 9.87 9.87 0 00-4 .77 8.57 8.57 0 00-3.09 2.23 10.5 10.5 0 00-2 3.6 15.06 15.06 0 00-.72 4.84 21.65 21.65 0 00.69 5.58 13.37 13.37 0 002.05 4.48 9.86 9.86 0 003.41 3 10.11 10.11 0 004.75 1.1zm29.68-6.44c0 1.11 0 2.07.05 2.9s.07 1.54.12 2.14a14.39 14.39 0 00.17 1.5 9.43 9.43 0 00.23 1v.08h-4.69v-.08a9.69 9.69 0 00.22-1 14.07 14.07 0 00.18-1.5q.06-.9.12-2.13c0-.82.05-1.79.05-2.91V8.16c0-1.1 0-2.07-.05-2.9s-.08-1.54-.12-2.14a15 15 0 00-.21-1.51 9.16 9.16 0 00-.22-1v-.1l.82.08h1.83a15.89 15.89 0 002.06-.18 23.06 23.06 0 013.31-.19 11.37 11.37 0 013.47.51A8 8 0 01333 2.27a6.62 6.62 0 011.82 2.39 7.49 7.49 0 01.66 3.21 9 9 0 01-.36 2.61 8.07 8.07 0 01-1 2.18 7.77 7.77 0 01-1.57 1.72 8.56 8.56 0 01-2.05 1.26l6.85 9.63c.34.48.66.9 1 1.25a8.52 8.52 0 00.84.91 6.5 6.5 0 00.77.63 3.44 3.44 0 00.77.38v.08H335a3.64 3.64 0 00-.38-1 12.14 12.14 0 00-.75-1.22L327 16.56l-.89.07h-2.03a11.05 11.05 0 01-1.12-.14zm0-5.92a9.53 9.53 0 001.07.17h1.06a7.89 7.89 0 002.68-.44 5.41 5.41 0 002.06-1.34 6.26 6.26 0 001.31-2.24 9.29 9.29 0 00.47-3.11 10 10 0 00-.33-2.66 5.61 5.61 0 00-1-2 4.4 4.4 0 00-1.65-1.29 5.43 5.43 0 00-2.32-.46 13.4 13.4 0 00-2.15.14 7.19 7.19 0 00-1.21.29z" fill="#fff" data-name="レイヤー 1"/></g></svg>