<svg xmlns="http://www.w3.org/2000/svg" viewBox="0 0 93.86 14.6"><g data-name="レイヤー 2"><path d="M0 14.26a3.3 3.3 0 00.24-.47A3.1 3.1 0 00.46 13c.07-.46.15-1 .24-1.54s.18-1.15.3-1.77.19-1.27.28-1.92.19-1.3.28-1.94.14-1.24.22-1.83.16-1.13.22-1.62.12-.91.16-1.27.08-.63.1-.82H3.5l6.14 11.49L15.73.29h.93l1.6 11.6c0 .37.1.68.15.94s.1.49.15.67.11.34.16.46a1.4 1.4 0 00.14.3H16.4a1.88 1.88 0 00.09-.35 3.42 3.42 0 000-.59 2.35 2.35 0 000-.26 1.59 1.59 0 000-.29l-1.24-9.35-5.76 10.84-.67-.08L3 3.32c-.23 1.54-.43 3-.6 4.28l-.19 1.67c-.07.56-.14 1.08-.19 1.56s-.1.91-.14 1.27 0 .64 0 .82a5.34 5.34 0 000 .59v.43l.12.36H0zm34.34.04a.28.28 0 000-.15 1 1 0 000-.17 3.3 3.3 0 00-.08-.67 5.69 5.69 0 00-.32-.92L32.8 9.7h-6.2l-1.12 2.58c-.1.24-.21.5-.32.79a2.35 2.35 0 00-.16.87.68.68 0 000 .21.23.23 0 000 .11h-2a3.51 3.51 0 00.44-.66c.18-.32.37-.71.58-1.19L29.67 0h.79l5.3 11.93a14.601 14.601 0 001.07 2.05 2.91 2.91 0 00.19.28zM28 8.84h4.4L29.66 2.6 27 8.84zm13.82 5.42a4 4 0 00.11-.51A5.94 5.94 0 0042 13c0-.3 0-.66.06-1.07s0-.9 0-1.45V2.67c0-.45 0-.77-.06-1.07a5.89 5.89 0 00-.09-.76 4 4 0 00-.11-.51h2.34c0 .14-.07.31-.11.51s-.03.45-.03.76 0 .66-.06 1.07 0 .9 0 1.45V6.3l5.7-4.66q1-.78 1-1.35h2.74a3.82 3.82 0 00-1.16.52 14.35 14.35 0 00-1.26 1L45.82 6l6.07 6.66.65.65c.18.17.33.31.47.42a3.86 3.86 0 00.38.29l.35.22h-2.86a1.14 1.14 0 00-.13-.23l-.21-.28c-.09-.1-.17-.2-.27-.3s-.18-.21-.27-.3l-6.12-6.66v5.45c0 .45 0 .77.06 1.07s0 .55.09.75.07.37.11.51h-2.32zM60.77.28L63 .26l1.7-.05a7 7 0 001-.07l-.48 1.3a7.37 7.37 0 00-.75-.16c-.25 0-.55-.08-.9-.11a11.12 11.12 0 00-1.23-.06h-1.9v5.42c.67 0 1.27 0 1.82-.06l1.37-.09c.45 0 .84-.09 1.17-.14l-.3 1.42-1.38-.17c-.4 0-.84-.09-1.31-.12s-.94-.06-1.37-.06v6.13a19.85 19.85 0 002.12-.1c.64-.07 1.21-.14 1.69-.22s1.07-.2 1.53-.33l-.28 1.59h-7.16a4 4 0 00.11-.51 5.94 5.94 0 00.09-.75c0-.3.05-.66.06-1.07s0-.9 0-1.45V2.67c0-.45 0-.77-.06-1.07a5.89 5.89 0 00-.09-.76 4 4 0 00-.11-.51zm13.03 10.2v1.45c0 .45 0 .77.06 1.07a5.94 5.94 0 00.09.75 4 4 0 00.11.51h-2.32q.06-.21.12-.51c0-.2.06-.45.08-.75s0-.66.06-1.07 0-.89 0-1.45V2.67c0-.45 0-.77-.06-1.07s0-.55-.08-.76-.08-.37-.12-.51H73a7.8 7.8 0 001-.09 12.61 12.61 0 011.73-.06 5.65 5.65 0 011.73.25 4.16 4.16 0 011.38.74 3.5 3.5 0 01.92 1.2A3.91 3.91 0 0180.08 4a4.56 4.56 0 01-.18 1.31 4.34 4.34 0 01-.5 1.09 4 4 0 01-.79.86 4.66 4.66 0 01-1 .63L81 12.68c.17.24.33.44.48.62a3.08 3.08 0 00.42.45 2.58 2.58 0 00.38.32 1.93 1.93 0 00.38.19h-2.81a1.68 1.68 0 00-.19-.5 6 6 0 00-.38-.61l-3.45-4.83h-1.46a5.54 5.54 0 01-.57-.07zm0-3a3.35 3.35 0 00.54.08h.53a4.09 4.09 0 001.34-.22 2.74 2.74 0 001-.67 3.17 3.17 0 00.66-1.12 5 5 0 00.23-1.57 4.61 4.61 0 00-.1-1.26 2.88 2.88 0 00-.49-1 2.25 2.25 0 00-.82-.64 2.84 2.84 0 00-1.21-.24 6.13 6.13 0 00-1.07.07 3.3 3.3 0 00-.61.14zM93 2.52h-.21a3.92 3.92 0 00-.25-.52 2.76 2.76 0 00-.45-.53 2.3 2.3 0 00-.68-.42 2.38 2.38 0 00-.93-.15 2.48 2.48 0 00-.85.14 1.75 1.75 0 00-1 1 2.58 2.58 0 00.27 2.14 8.59 8.59 0 001 1.27c.4.42.83.83 1.29 1.25A14.36 14.36 0 0192.47 8a7.22 7.22 0 011 1.41 3.24 3.24 0 01.4 1.59 3.82 3.82 0 01-.22 1.27 3.28 3.28 0 01-.65 1.19 3.32 3.32 0 01-1.18.82 4.29 4.29 0 01-1.72.32 5.22 5.22 0 01-1.1-.1 7.11 7.11 0 01-1.69-.58 5.67 5.67 0 01-.55-.33l.24-2.15h.25a3.24 3.24 0 00.35.87 2.82 2.82 0 00.6.73 3 3 0 00.82.51 2.51 2.51 0 001 .19 2.57 2.57 0 00.9-.15 1.91 1.91 0 00.67-.42 1.79 1.79 0 00.44-.64 2.16 2.16 0 00.15-.81 3 3 0 00-.22-1.14 4.22 4.22 0 00-.6-1 7.77 7.77 0 00-.83-.91c-.3-.29-.62-.59-1-.88s-.64-.6-1-.92a6.58 6.58 0 01-.83-1 5.13 5.13 0 01-.59-1.14A3.85 3.85 0 0187 3.4a3.12 3.12 0 01.26-1.4 3.38 3.38 0 01.79-1 3.47 3.47 0 011.12-.73A3.81 3.81 0 0190.46 0a4.94 4.94 0 01.9.08 6.18 6.18 0 01.74.22c.22.07.4.15.57.22l.4.17z" fill="#fff" data-name="レイヤー 1"/></g></svg>