<svg xmlns="http://www.w3.org/2000/svg" viewBox="0 0 100.66 16.42"><g data-name="レイヤー 2"><path d="M4.46 10.32c2.12.78 2.92 1.74 2.92 3.08 0 1.58-1.38 3-4.1 3a7.07 7.07 0 01-3.2-.78L0 13.3h1l.44 1.94a4.5 4.5 0 001.88.38c1.78 0 2.62-.74 2.62-1.82s-.62-1.48-2.08-2l-1-.38C1.22 10.82.18 10 .18 8.5s1.3-2.92 3.66-2.92a5.58 5.58 0 013 .86L6.76 8.6h-.88l-.36-1.78a3.4 3.4 0 00-1.68-.44c-1.46 0-2.2.68-2.2 1.66s.56 1.44 2 2zm18.25 5.18v.64h-4.88v-.64l1.7-.24V9.58c0-2.08-.62-2.76-1.92-2.76a4.66 4.66 0 00-3.32 1.6v6.84l1.71.24v.64h-4.9v-.64l1.72-.26V1.58L11 1.46V.84L14.05 0l.3.18-.08 3.08v4.42a5.84 5.84 0 014.06-2.1c1.82 0 2.74 1.08 2.74 3.92v5.74zm14.18 0v.64l-2.84.18-.16-2a5.08 5.08 0 01-3.9 2.1c-1.8 0-2.86-1-2.84-4l.06-5.56-1.66-.28V6l3-.26.2.22-.1 3v3.36c0 2.08.64 2.8 1.94 2.8a4.54 4.54 0 003.26-1.6V6.88l-1.64-.28V6l3-.26.22.22-.08 3v6.28zm22.8 0v.64h-4.88v-.64l1.7-.24V9.58c0-2.08-.62-2.76-1.92-2.76a4.66 4.66 0 00-3.32 1.6v6.84l1.58.24v.64H48v-.64l1.72-.26V1.58L48 1.46V.84L51 0l.3.18-.08 3.08v4.42a5.84 5.84 0 014.06-2.1c1.82 0 2.74 1.08 2.74 3.92v5.74zm13.66-.12a2 2 0 01-1.74 1 1.84 1.84 0 01-1.84-1.78c-1.22 1.24-2 1.82-3.32 1.82a2.61 2.61 0 01-2.88-2.64c0-1.34.78-2.32 3.5-3.3.78-.24 1.74-.52 2.66-.72v-.64c0-2.2-.66-2.74-2.18-2.74a4.14 4.14 0 00-1.4.22l-.44 1.48c-.16.58-.46.88-1 .88a.8.8 0 01-.88-.76c.42-1.64 2-2.62 4.1-2.62s3.3 1 3.3 3.6v4.74c0 1.16.32 1.52.86 1.52A1.17 1.17 0 0073 15zm-3.62-5a21.4 21.4 0 00-2.24.72c-1.94.74-2.3 1.58-2.3 2.38A1.63 1.63 0 0067 15.24c.84 0 1.42-.36 2.7-1.38zm17.54-1.96c.72-1.76 2-2.84 3.26-2.84a1.73 1.73 0 011.52.72c0 .86-.34 1.36-1.12 1.36a1.94 1.94 0 01-1.28-.58l-.28-.24a5.48 5.48 0 00-2.08 2.92v5.48l1.84.26v.64h-5.1v-.64l1.64-.24c0-1.12.06-2.66.06-3.68v-1.1c0-1.28 0-2.1-.08-3l-1.74-.18v-.64l2.88-1.06.28.2zm13.39 7.08v.64h-4.88v-.64l1.72-.26V7.46l-1.84-.16v-.66l3.14-1 .3.2-.1 2.8v6.6zM97 1.66a1.27 1.27 0 012.54 0 1.27 1.27 0 01-2.54 0z" fill="#fff" data-name="レイヤー 1"/></g></svg>