<svg xmlns="http://www.w3.org/2000/svg" viewBox="0 0 299.98 24.03"><g data-name="レイヤー 2"><path d="M1.64 16.38v2.5c0 .15-.52.62-1.38.62H0V1.4l2 .81h4.27l1-1 2 1.61a2.19 2.19 0 01-1.12.55v14.47a1.92 1.92 0 01-1.37.65h-.25v-2.11zM1.64 3v5.8h4.89V3zm4.89 12.63V9.57H1.64v6.06zm16-13.26a2.09 2.09 0 01-1.14.52v18.48c0 1.41-.31 2.29-2.92 2.58a1.61 1.61 0 00-.7-1.25 6.56 6.56 0 00-2.62-.7v-.42s3.25.24 3.87.24.73-.16.73-.63v-6.6h-7A12.46 12.46 0 016.11 24l-.36-.31c4.7-3.56 5.59-8.14 5.59-13.57V.94l1.95.85h6.16L20.31.7zm-2.82 11.49V8.5H13v1.56a31.91 31.91 0 01-.2 3.8zM13 2.55v5.2h6.74v-5.2zm15.59 3.69c5.72.7 4.73 4.55 2.83 3.54a8 8 0 00-3.06-3.28zm8.29-1.59c-1.27 3.35-3.74 9.57-4.16 10.82a7.87 7.87 0 00-.44 2.26c0 1.15.76 2.32.68 4.42-.05 1.1-.57 1.8-1.48 1.8-.5 0-.78-.47-.84-1.28.34-2.65.19-4.65-.39-5a2.29 2.29 0 00-1.32-.37v-.57h1.19c.34 0 .42 0 .65-.52.55-1 .55-1 5.65-11.67zM30.57.44c5.9.81 5 4.71 3 3.69A9 9 0 0030.31.7zm15.91 3.75c7.49 3.58 6.21 8.47 4.18 7a8.16 8.16 0 00-1.06-2.58c-2.94.54-6.81 1.14-12.12 1.87a1 1 0 01-.67.54l-1-2.41c.86 0 2.08 0 3.53-.08 1-2.6 2.06-5.93 2.68-8.37l3 .7c-.11.34-.42.57-1 .57a62.36 62.36 0 01-3.86 7.07c2.55-.1 5.75-.28 9.1-.47a20.64 20.64 0 00-3.09-3.61zm2.81 8.11l1.92 1.48a1.43 1.43 0 01-1 .44v9a1.93 1.93 0 01-1.45.51h-.26v-1.84h-9v1.49c0 .15-.55.52-1.41.52h-.28V12.51l2 .83h8.61zm-.78 8.81v-7h-9v7zM69.08 10.4a.85.85 0 01-1 .26 25.47 25.47 0 01-2.49 2.05c3.72 1.8 2.88 4.42 1.35 3.57a10.05 10.05 0 00-3.28-3.77v10.87a1.67 1.67 0 01-1.37.52H62V13.08a26.69 26.69 0 01-4.32 3.43l-.34-.34A33 33 0 0065.5 5.72h-7.29L58 5h4V.21l2.57.28c0 .37-.31.63-.91.71V5h1.82l1.12-1 1.84 1.66c-.2.21-.49.26-1.11.29a28.16 28.16 0 01-3.7 5.46V12a11.61 11.61 0 011.3.44 30.55 30.55 0 002.27-3.2zm12.74-6.32a1.59 1.59 0 01-1.09.44c-.18 10-.75 16.2-2 17.79a3.75 3.75 0 01-3.07 1.32 1.5 1.5 0 00-.46-1.3 7.68 7.68 0 00-2.6-.8v-.47c1.2.13 3.07.34 3.7.34a1.17 1.17 0 001-.42c1.06-1 1.55-7.38 1.76-16.69h-4.78c-.31 8.22-.91 15.16-9 19.68l-.28-.36c6.76-5.23 7.38-11.88 7.56-19.32H68l-.23-.75h11.1l1-1.15zm8.83 11.78V5h-2.28l-.21-.78h2.49V.47l2.5.28c-.08.34-.31.58-.86.68v2.76H97V.44l2.55.29c-.06.36-.29.62-.91.7v2.76H99l1-1.3s1.09.93 1.77 1.66c-.06.29-.32.42-.65.42h-2.48v10.89h.41l1.07-1.43s1.17 1 1.9 1.79c-.06.26-.32.39-.68.39H87.9l-.21-.75zm-2.93 7.75a15.67 15.67 0 004.08-6.27l2.47 1.09a.93.93 0 01-1 .37 13.5 13.5 0 01-5.22 5.2zM92.29 5v2.88H97V5zm0 6.81H97V8.66h-4.71zm0 4.08H97v-3.36h-4.71zm3.64 1.64c5.28 1.77 4 5.33 2.29 4.11a9 9 0 00-2.6-3.9zm15.91-15.22a1.86 1.86 0 01-1.11.52V21.4c0 1.38-.29 2.21-2.66 2.47a1.7 1.7 0 00-.57-1.22 4.28 4.28 0 00-2.16-.65v-.45s2.58.21 3.12.21.63-.15.63-.57v-7h-5c-.31 3.64-1.4 7.18-4.83 9.7l-.39-.29c3.3-3.4 3.74-7.9 3.74-12.82V.91l1.93.83h4.34l.83-1.06zm-2.75 11.08v-5.2h-4.92v2.55c0 .88 0 1.77-.07 2.65zm-4.92-10.87v4.94h4.92V2.52zm18.07 3.12a20.08 20.08 0 01-4.57 3.3l-.29-.31A24 24 0 00124.27 0l2.73.81c-.11.28-.37.44-1 .46 8.09 2.16 6.61 6.06 4.89 5.05a12.68 12.68 0 00-5.15-4.76 24.81 24.81 0 01-3.4 4H127l1-1.32s1.2.93 2 1.64c-.07.28-.31.41-.67.41h-6.87zm8 1.56l2.08 1.56a2.43 2.43 0 01-1.11.55v5.56a2.3 2.3 0 01-1.38.52h-.26v-.83H122a13.1 13.1 0 01-.21 1.59l1.46.62h6.11l.88-1 2 1.48a1.74 1.74 0 01-1 .5V23a2.3 2.3 0 01-1.41.52h-.23v-1.44h-6.68v1.3a1.53 1.53 0 01-1.33.54h-.26v-6a10.84 10.84 0 01-3.48 5.1l-.31-.29c2.62-3.33 3-7.31 3-10.87V7.38l1.92.84h6.84zm-.67 6.63v-2.08h-7.41v2.11zM122.14 9v2h7.41V9zm.78 8.55v3.77h6.68v-3.8zm12.74.6c0 .26-.68.57-1.28.57h-.31V2.42l2.52.26c-.07.36-.31.62-.93.7zM141.27.91c-.07.36-.33.6-1 .68v19.89c0 1.37-.28 2.23-2.57 2.47a1.84 1.84 0 00-.55-1.23 4.08 4.08 0 00-2.05-.62v-.44s2.44.21 3 .21.57-.16.57-.55V.62zm19.51 15.55c2.44 2.47 6.78 4.5 10.37 5.41l-.05.28a1.78 1.78 0 00-1.43 1.35 21 21 0 01-9.6-7h-.2v7c0 .13-.58.49-1.43.49h-.29v-6.86a27.91 27.91 0 01-10.76 6.3l-.24-.44a28.34 28.34 0 009.34-6.53H148l-.23-.75h10.37v-2.55h-7.62l-.21-.78h7.83V10h-8.89l-.21-.78h6.42a7 7 0 00-1.84-3.4h-6l-.21-.82h8.79V.16l2.39.26c0 .33-.26.57-.78.65V5h2.65V.16l2.45.26c0 .33-.29.57-.83.67V5h.92a30.65 30.65 0 002.74-4.32l2.39.88c-.15.31-.49.47-1.06.39a21 21 0 01-3.3 3.05h3.71l1.18-1.45s1.35 1 2.21 1.82c-.08.28-.34.39-.71.39h-6.26l1.37.41a.89.89 0 01-1 .47 21.48 21.48 0 01-2.47 2.52h4.39l1.15-1.4a26.25 26.25 0 012.13 1.77c-.05.28-.31.41-.67.41h-8.92v2.4h5l1.12-1.29s1.22 1 2 1.69c-.07.29-.33.42-.7.42h-7.43v2.55h7.28l1.22-1.49s1.35 1 2.21 1.85c-.08.28-.34.39-.7.39zM150.82.75c5 1.69 3.64 5.07 2.08 3.9A7.5 7.5 0 00150.51 1zm3.74 5.05c2.44 1.2 2.65 2.78 2.13 3.4h4.19a26.37 26.37 0 001.87-3.4zm53.15-2.11c-.19.21-.6.26-1.2.31-4 4.92-9.72 8-18.28 9.73l-.23-.47c7.3-2 12.71-4.86 16.38-9.54h-7.13c-.78.54-1.61 1.09-2.49 1.61 4.86.78 4.47 3.77 2.81 3.15A10.72 10.72 0 00194 5.75 28 28 0 01188.75 8l-.26-.33A29 29 0 00198.68 0l2.79.83c-.11.26-.45.42-1.17.39-.6.57-1.28 1.15-2 1.74h6.5l1-1zm3.74 9.23c-.18.24-.6.29-1.25.31-4.37 6.35-10.71 9.31-21 10.67l-.15-.47c9-1.85 15.1-4.53 19.08-10.51h-7.51c-1 .68-2.11 1.35-3.28 2 5.59 1.12 5.07 4.81 3.2 3.9a10 10 0 00-4-3.49 34.51 34.51 0 01-6.13 2.37l-.21-.42c5.3-2 10.09-5.48 12.45-8.42l2.89.73c-.13.28-.5.44-1.22.41a29.64 29.64 0 01-2.66 2.19h6.74l1.06-1zm28.03-9.38a2.33 2.33 0 01-1.14.52v18.61a2 2 0 01-1.43.63h-.26v-2.06h-16v1.56c0 .21-.6.65-1.38.65h-.29V2.08l1.85.88h15.6l1-1.11zm-18.87.18v7.8h7v-7.8zm0 16.77h7v-8.24h-7zm8.76-16.77v7.8h7.28v-7.8zm7.28 16.77v-8.24h-7.28v8.24zM267 17c-.18.24-.39.32-1 .19a22.82 22.82 0 01-3.77 2 21.83 21.83 0 007.52 2.92v.31a1.85 1.85 0 00-1.51 1.45c-4.7-1.48-8.37-4.08-10.27-8.26a18.55 18.55 0 01-3.59 2.23v3.41c2-.29 4.19-.65 6.4-1l.08.42c-2.58.8-6 1.82-10.45 2.83a.91.91 0 01-.6.58l-1-2.14c.91-.07 2.26-.23 3.87-.44v-2.94a38.72 38.72 0 01-6.83 2l-.21-.44a30.74 30.74 0 009.64-4.58h-9l-.21-.75H257v-2.13l2.55.26c0 .34-.26.58-.83.68v1.17H266l1.19-1.43s1.33 1 2.19 1.77c-.08.28-.31.41-.68.41h-10.16a11.84 11.84 0 003.09 3.23 21.64 21.64 0 003.15-3.12zM252.2 3.25h-3.15a8.81 8.81 0 01-1.85 1.9l-.36-.26a15.28 15.28 0 001.85-4.68l2.36.8c-.1.29-.39.5-.91.45-.18.33-.36.7-.55 1h2.61V.13l2.49.29c-.08.33-.26.59-.91.67v1.38H256l1.07-1.33a25.75 25.75 0 012 1.69c-.08.29-.32.42-.68.42h-4.63V5.3h3.15L258 4s1.22 1 2 1.69c0 .26-.31.39-.67.39h-5.57v1.8h2.89l.83-.94 2.08 1.54a2.09 2.09 0 01-1.09.49v1.56c0 1.12-.26 1.69-2.08 1.85a1.1 1.1 0 00-.34-.78 3.1 3.1 0 00-1.4-.39v-.42s1.4.1 1.84.1.42-.15.42-.41V8.66h-3.15v4.42c0 .21-.7.6-1.3.6h-.28v-5h-3v3.56c0 .16-.67.49-1.27.49h-.23V7.18l1.63.7h2.92V6h-6l-.23-.7h6.19zm10.53 6.63c0 .18-.71.49-1.3.49h-.29V1.3l2.5.26c-.06.36-.29.6-.91.7zm-.19 1.69s2.53.21 3 .21.54-.16.54-.55V.36l2.55.29c-.08.39-.34.6-.94.68v10c0 1.27-.28 2.05-2.54 2.28a1.6 1.6 0 00-.55-1.09 5.26 5.26 0 00-2.11-.54zm27.32-6.03c-.05.26-.36.41-1 .47 2.21 3.06 6.63 5.51 11.16 6.76v.41a2.13 2.13 0 00-1.61 1.49c-4.42-1.72-8.22-4.71-10-8.35-2.29 3.56-7.18 7.15-12.43 8.92l-.18-.39c4.7-2.06 9.72-6.5 11-10zM276.13 4l-.13-.78h6.81V.16l2.57.26c0 .36-.26.62-.88.7v2.1h6.6V.16l2.6.26c-.05.36-.28.62-.91.7v2.1h3.46l1.28-1.61s1.4 1.17 2.18 2c0 .26-.29.39-.65.39h-6.27v2.08c0 .19-.59.5-1.43.5h-.26V4h-6.6v2.21c0 .21-.73.47-1.43.47h-.26V4zm1.2 18.57a18.55 18.55 0 005.72-6.19l2.37 1.14c-.16.26-.39.39-1 .26a18.34 18.34 0 01-6.86 5.12zm11.36-7.73v8.64c0 .18-.75.49-1.35.49H287v-9.18h-6.43l-.18-.75H287V10.5l2.54.26c-.07.34-.28.58-.83.68V14h3.12l1.17-1.31s1.28 1 2.13 1.69c-.07.29-.33.41-.7.41zm2.13 1.82c8 2.24 7.36 6.89 5.18 5.8-.81-1.92-3.43-4.24-5.46-5.53z" fill="#fff" data-name="レイヤー 1"/></g></svg>