<svg xmlns="http://www.w3.org/2000/svg" viewBox="0 0 63.84 8.56"><g data-name="レイヤー 2"><path d="M4.45 4.35H0V3.28h4.45zm17.26-1.98A1.75 1.75 0 0019.94 1c-1.06 0-1.67.48-1.67 1.17s.35 1.1 1.68 1.42l.66.16c1.87.45 2.56 1.08 2.56 2.42s-1 2.43-3.15 2.43a3.12 3.12 0 01-3.25-2L18 6.13a2 2 0 002 1.47c1.34 0 1.86-.62 1.86-1.34s-.31-1.14-1.8-1.52l-.65-.15c-1.84-.46-2.4-1.1-2.4-2.37S18 0 20 0a2.9 2.9 0 013 2zm6.5-.23A3.09 3.09 0 0131.46 0c2 0 3 .86 3 2.72v3a20.37 20.37 0 00.16 2.66H33.4a10.19 10.19 0 01-.18-1.3 3.26 3.26 0 01-2.8 1.49 2.28 2.28 0 01-2.51-2.38c0-1.39.8-2.35 2.69-2.69a22.3 22.3 0 012.56-.26V2.8c0-1.31-.5-1.82-1.73-1.82a1.93 1.93 0 00-2 1.55zm4.95 2a12.48 12.48 0 00-2.27.26c-1.2.25-1.72.81-1.72 1.72a1.41 1.41 0 001.57 1.48A2.91 2.91 0 0033.16 6zm8.15-2.46A3.79 3.79 0 0144.17 0a2.14 2.14 0 012.28 2.33v6h-1.33V2.82c0-1.17-.5-1.67-1.38-1.67a3.24 3.24 0 00-2.38 1.62v5.6h-1.3V.19h1.25zm22.53 2.67h-4.45V3.28h4.45z" fill="#fff" data-name="レイヤー 1"/></g></svg>