<svg xmlns="http://www.w3.org/2000/svg" viewBox="0 0 66.36 12.2"><g data-name="レイヤー 2"><path d="M4.45 8H0V6.92h4.45zM18.9 2.26h-1.61V.67h1.61zM18.75 12h-1.31V3.83h1.31zM29.3 6.4c-.24-1.18-.92-1.74-1.83-1.74-1.36 0-2.21 1.15-2.21 3.25s.85 3.28 2.21 3.28c1.07 0 1.68-.59 1.92-1.79l1.24.38a3.07 3.07 0 01-3.17 2.42c-2.16 0-3.53-1.6-3.53-4.26s1.41-4.31 3.53-4.31a3 3 0 013.12 2.44zm7.6-1.12a3.7 3.7 0 012.81-1.65A2.17 2.17 0 0142 6v6h-1.34V6.45c0-1.17-.5-1.66-1.38-1.66A3.28 3.28 0 0036.9 6.4V12h-1.3V0h1.3zm12.16-3.02h-1.6V.67h1.6zM48.92 12h-1.31V3.83h1.31zm17.44-4h-4.45V6.92h4.45z" fill="#fff" data-name="レイヤー 1"/></g></svg>