<svg xmlns="http://www.w3.org/2000/svg" viewBox="0 0 604.8 19.76"><g data-name="レイヤー 2"><path d="M10.84 2.6l3.91 9.48 3.79-9.31a9.74 9.74 0 00.34-1 2.79 2.79 0 00.1-.69 1.09 1.09 0 000-.18.46.46 0 000-.14h1.93a3.23 3.23 0 00-.43.68c-.15.32-.33.7-.53 1.17l-5.24 12.45H14l-3.83-9.22-3.47 9.22H6L1.18 3.12C1.06 2.83 1 2.57.83 2.3s-.24-.49-.35-.7-.2-.38-.29-.53L0 .79h2.71a.59.59 0 000 .17v.13a3.56 3.56 0 00.07.71 5 5 0 00.29.9L6.72 12l3.5-9.33zm19.23 12.33a5.94 5.94 0 01-2-.34 4.59 4.59 0 01-2.8-2.59 5.74 5.74 0 01-.4-2.22 5.49 5.49 0 01.37-2 5.13 5.13 0 011-1.64A4.68 4.68 0 0127.79 5a4.63 4.63 0 011.89-.39 5 5 0 011.87.35 4.21 4.21 0 011.49 1 4.75 4.75 0 011 1.63 6.6 6.6 0 01.4 2.22h-7.62a7.75 7.75 0 00.32 1.83 4.39 4.39 0 00.71 1.4 3.11 3.11 0 001.11.9 3.45 3.45 0 001.47.31 4.68 4.68 0 001.07-.13 3.66 3.66 0 001.64-.92 3.27 3.27 0 00.55-.69l.12.06-.73 1.74a6.31 6.31 0 01-1.26.46 6.89 6.89 0 01-1.75.16zm-1.3-6h3.74a6.15 6.15 0 00-.34-1.53 3.87 3.87 0 00-.62-1.14 2.61 2.61 0 00-.9-.72 2.55 2.55 0 00-1.14-.26 2.25 2.25 0 00-1 .25 2.57 2.57 0 00-.83.72 3.85 3.85 0 00-.56 1.15 5.9 5.9 0 00-.3 1.6h1.95zM40.19 4V1.49c0-.29-.14-.58-.19-.79s-.08-.37-.11-.5h2.25c0 .13-.07.3-.11.5s-.06.46-.08.76 0 .65-.06 1.06 0 .9 0 1.45v8.45c0 .45 0 .77.06 1.07s.05.55.08.75.07.37.11.51h-2.23c0-.14.07-.31.11-.51s.06-.45.09-.75 0-.66 0-1.07v-1.45zm16.48 8.68L56 14.41a5.31 5.31 0 01-.61.22c-.23.06-.46.12-.71.16a6.13 6.13 0 01-.73.11h-.71a6.43 6.43 0 01-2.24-.32 4.82 4.82 0 01-1.73-1 4.69 4.69 0 01-1.14-1.63 5.64 5.64 0 01-.41-2.2 5 5 0 01.43-2 4.91 4.91 0 011.18-1.64A5.51 5.51 0 0151.12 5a6.26 6.26 0 012.23-.39 8.31 8.31 0 011.17.09 7.12 7.12 0 011.11.24l.7 1.66-.12.07a3 3 0 00-.58-.55 3.87 3.87 0 00-.74-.43 5.75 5.75 0 00-.89-.3 4.63 4.63 0 00-.92-.1 3.43 3.43 0 00-1.38.27 3 3 0 00-1.08.78A3.47 3.47 0 0050 7.58a5.12 5.12 0 00-.25 1.68 7.63 7.63 0 00.24 2 4.57 4.57 0 00.71 1.58 3.31 3.31 0 001.19 1 3.59 3.59 0 001.68.38 4 4 0 00.9-.11 4.31 4.31 0 00.84-.33 3.94 3.94 0 00.73-.5 2.88 2.88 0 00.55-.66zm4.76-2.94a5.14 5.14 0 01.41-2A5.06 5.06 0 0163 6.05 5.2 5.2 0 0164.66 5a5.6 5.6 0 012.1-.39 5.73 5.73 0 012.08.39 5 5 0 011.69 1 4.83 4.83 0 011.14 1.64 5.33 5.33 0 01.41 2.16 5.29 5.29 0 01-.35 1.94 4.84 4.84 0 01-1 1.64A5.31 5.31 0 0169 14.51a5.8 5.8 0 01-2.28.42 5.87 5.87 0 01-2.06-.36 5.29 5.29 0 01-1.69-1 4.93 4.93 0 01-1.14-1.64 5.34 5.34 0 01-.4-2.19zM67 14.22a3 3 0 001.24-.22 2.86 2.86 0 001-.8 3.76 3.76 0 00.66-1.26 5.73 5.73 0 00.23-1.68 8 8 0 00-.22-2 4.77 4.77 0 00-.67-1.57 3.24 3.24 0 00-1.12-1 3.28 3.28 0 00-1.57-.37 3 3 0 00-1.27.27 2.8 2.8 0 00-1 .78 3.58 3.58 0 00-.66 1.24 5.41 5.41 0 00-.24 1.68 8.1 8.1 0 00.23 2 5.17 5.17 0 00.68 1.58 3.27 3.27 0 001.12 1 3.16 3.16 0 001.59.35zm17.39-6.05a4 4 0 00-.14-1.11 2 2 0 00-.38-.78 1.49 1.49 0 00-.6-.45 1.78 1.78 0 00-.78-.16 2.09 2.09 0 00-.65.12 4.68 4.68 0 00-.75.32 7.81 7.81 0 00-.77.46 8.36 8.36 0 00-.73.57v5.25c0 .45 0 .77.06 1.07s.06.55.09.75a4 4 0 00.11.51h-2.26a4 4 0 00.11-.51 5.94 5.94 0 00.09-.75c0-.3 0-.66.06-1.07s0-.9 0-1.45V7.12c0-.45 0-.77-.06-1.07a5.94 5.94 0 00-.09-.75 4 4 0 00-.11-.51h2.26a2.39 2.39 0 00-.13.58q0 .34-.09.87c.26-.21.54-.41.84-.62a7.79 7.79 0 01.92-.53 5.47 5.47 0 011-.38 3.13 3.13 0 01.94-.15 3 3 0 011 .15 2.24 2.24 0 01.75.4 2.32 2.32 0 01.54.59 2.77 2.77 0 01.34.74c.27-.23.56-.46.87-.68a7.15 7.15 0 011-.6 6.08 6.08 0 011-.43 3.3 3.3 0 011-.17 3 3 0 011.29.26 2.43 2.43 0 01.87.7 2.74 2.74 0 01.49 1 4.26 4.26 0 01.15 1.12v4.77c0 .45 0 .77.06 1.07s.06.55.09.75.07.37.11.51h-2.26c0-.14.07-.31.11-.51s.07-.45.09-.75 0-.66.06-1.07 0-.9 0-1.45V8.17a2.83 2.83 0 00-.52-1.89A1.74 1.74 0 0089 5.67a2.11 2.11 0 00-.67.12 5.38 5.38 0 00-.76.32 8.21 8.21 0 00-.78.48 7.09 7.09 0 00-.73.57 1.79 1.79 0 010 .23v5c0 .45 0 .77.06 1.07a5.94 5.94 0 00.09.75 4 4 0 00.11.51h-2.21a4 4 0 00.11-.51q0-.3.09-.75c0-.3 0-.66.06-1.07s0-.9 0-1.45zm19.13 6.76a5.89 5.89 0 01-2-.34 4.78 4.78 0 01-1.65-1A4.62 4.62 0 0198.73 12a5.74 5.74 0 01-.4-2.22 5.49 5.49 0 01.37-2 5.13 5.13 0 011-1.64A4.68 4.68 0 01101.25 5a4.63 4.63 0 011.89-.39 5 5 0 011.87.35 4.21 4.21 0 011.49 1 4.75 4.75 0 011 1.63 6.6 6.6 0 01.4 2.22h-7.66a7.75 7.75 0 00.32 1.83 4.39 4.39 0 00.71 1.4 3 3 0 001.11.9 3.45 3.45 0 001.47.31 4.52 4.52 0 001.06-.13 3.77 3.77 0 00.92-.37 3.68 3.68 0 00.73-.55 3.27 3.27 0 00.55-.69l.11.06-.72 1.74a6.31 6.31 0 01-1.26.46 6.92 6.92 0 01-1.72.16zm-1.29-6h3.79a6.15 6.15 0 00-.34-1.53 3.87 3.87 0 00-.68-1.13 2.71 2.71 0 00-.9-.72 2.58 2.58 0 00-1.1-.26 2.25 2.25 0 00-1 .25 2.57 2.57 0 00-.83.72 3.85 3.85 0 00-.56 1.15 5.9 5.9 0 00-.33 1.59h2zm24.49 5.25a1.66 1.66 0 00.58-.11 2.71 2.71 0 00.56-.29 4.09 4.09 0 00.52-.43 4.4 4.4 0 00.46-.5l.1.05-.64 1.57-.29.14a2.34 2.34 0 01-.41.16 4.71 4.71 0 01-.56.13 5.47 5.47 0 01-.76 0 2.83 2.83 0 01-2-.71 3 3 0 01-.72-2.21V5.52l-1.64.06v-.86h1.64V3.49c0-.35 0-.66-.06-.93s0-.48-.08-.67a3.61 3.61 0 00-.1-.46h2.26a3.48 3.48 0 00-.11.46c0 .19-.06.41-.08.67s0 .57-.06.92 0 .77 0 1.24h2.28l.82-.05h.44l-.18 1h-3.32v6.72a3 3 0 00.13 1 1.58 1.58 0 00.34.59 1.09 1.09 0 00.48.29 2 2 0 00.4-.09zm6.92-4.44a5.14 5.14 0 01.41-2 5.06 5.06 0 011.13-1.64 5.2 5.2 0 011.69-1.1 5.6 5.6 0 012.1-.39 5.73 5.73 0 012.08.37 5 5 0 011.69 1 4.83 4.83 0 011.14 1.64 5.33 5.33 0 01.41 2.16 5.29 5.29 0 01-.35 1.94 4.84 4.84 0 01-1 1.64 5.31 5.31 0 01-1.68 1.14 5.8 5.8 0 01-2.28.42 5.87 5.87 0 01-2.06-.36 5.19 5.19 0 01-1.69-1 4.93 4.93 0 01-1.14-1.64 5.34 5.34 0 01-.45-2.18zm5.54 4.48a3 3 0 001.27-.27 2.86 2.86 0 001-.8 3.76 3.76 0 00.66-1.26 5.73 5.73 0 00.23-1.68 8 8 0 00-.22-2 5 5 0 00-.67-1.57 3.24 3.24 0 00-1.12-1 3.28 3.28 0 00-1.57-.37 2.92 2.92 0 00-1.27.27 2.8 2.8 0 00-1 .78 3.42 3.42 0 00-.66 1.24 5.41 5.41 0 00-.24 1.68 8.1 8.1 0 00.23 2 5.17 5.17 0 00.68 1.58 3.27 3.27 0 001.12 1 3.13 3.13 0 001.56.4zm24.03-.04a1.66 1.66 0 00.58-.11 2.48 2.48 0 00.56-.29 4.09 4.09 0 00.52-.43 4.4 4.4 0 00.46-.5l.1.05-.63 1.57-.29.14a2.7 2.7 0 01-.41.16 5.22 5.22 0 01-.56.13 5.63 5.63 0 01-.77 0 2.79 2.79 0 01-2-.71A2.94 2.94 0 01160 12V5.52l-1.64.06v-.86H160V3.49q0-.53-.06-.93c0-.26 0-.48-.09-.67s-.06-.33-.09-.46H162a3.61 3.61 0 00-.1.46c0 .19-.06.41-.09.67s0 .57-.06.92 0 .77 0 1.24h2.28l.82-.05h.44l-.17 1h-3.37v6.72a3 3 0 00.13 1 1.58 1.58 0 00.34.59 1.09 1.09 0 00.48.29 2 2 0 00.51-.09zm14.46-6.01a2.88 2.88 0 00-.51-1.89 1.76 1.76 0 00-1.39-.61 2.23 2.23 0 00-.72.14 4.61 4.61 0 00-.81.35 8.16 8.16 0 00-1.59 1.15v5.08c0 .45 0 .77.06 1.07s.06.55.09.75a4 4 0 00.11.51h-2.26a4 4 0 00.11-.51 5.94 5.94 0 00.09-.75c0-.3 0-.66.06-1.07s0-.9 0-1.45V2.55c0-.45 0-.77-.06-1.06a6.37 6.37 0 00-.09-.76 3.49 3.49 0 00-.11-.5h2.26a3.49 3.49 0 00-.11.5c0 .21-.06.46-.09.76s0 .65-.06 1.06 0 .9 0 1.45v2.5a11 11 0 01.87-.69 7.63 7.63 0 011-.61 5.41 5.41 0 011-.44 3.53 3.53 0 011-.17 2.93 2.93 0 011.29.26 2.43 2.43 0 01.87.7 2.59 2.59 0 01.49 1 4.26 4.26 0 01.15 1.12v4.77c0 .45 0 .77.06 1.07s.05.55.09.75a4 4 0 00.11.51h-2.26a4 4 0 00.11-.51 5.94 5.94 0 00.09-.75c0-.3 0-.66.06-1.07s0-.9 0-1.45zm12.62 6.76a5.94 5.94 0 01-2-.34A4.54 4.54 0 01185.5 12a5.74 5.74 0 01-.41-2.22 5.49 5.49 0 01.37-2 5.13 5.13 0 011-1.64A4.62 4.62 0 01188 5a4.57 4.57 0 011.89-.39 4.93 4.93 0 011.86.35 4.21 4.21 0 011.49 1 4.93 4.93 0 011 1.63 6.87 6.87 0 01.39 2.22h-7.61a7.75 7.75 0 00.32 1.83 4.39 4.39 0 00.71 1.4 3.2 3.2 0 001.11.9 3.45 3.45 0 001.47.31 4.68 4.68 0 001.07-.13 3.66 3.66 0 001.64-.92 3.27 3.27 0 00.55-.69l.12.06-.73 1.74a6.31 6.31 0 01-1.26.46 6.83 6.83 0 01-1.73.16zM189 9h3.78a6.65 6.65 0 00-.33-1.53 4.12 4.12 0 00-.63-1.14 2.61 2.61 0 00-.9-.72 2.52 2.52 0 00-1.14-.26 2.25 2.25 0 00-1 .25 2.57 2.57 0 00-.83.72 3.85 3.85 0 00-.56 1.15A6.34 6.34 0 00187 9h2zm21-.62V6.93c0-.45 0-.77-.06-1.07s-.05-.55-.08-.75-.08-.37-.12-.51H212q0 .15-.09.33c0 .13-.05.27-.07.42a6.78 6.78 0 011.16-.56 5.39 5.39 0 013.52.14A4.22 4.22 0 01218.1 6a4.84 4.84 0 011 1.65 6.35 6.35 0 01.35 2.16 5.51 5.51 0 01-.35 1.94 5 5 0 01-1 1.64 5.17 5.17 0 01-1.65 1.14 5.63 5.63 0 01-2.24.42 7.42 7.42 0 01-1.39-.12 6.22 6.22 0 01-1.15-.3v2.88c0 .45 0 .77.05 1.07s.06.55.09.75a4 4 0 00.11.51h-2.26q.06-.21.12-.51c0-.2.06-.45.08-.75s0-.66.06-1.07 0-.9 0-1.45zm4.29-3.09a2.63 2.63 0 00-.67.09 3.44 3.44 0 00-1.33.61 3 3 0 00-.55.52v6.99a4.24 4.24 0 00.44.27 4.15 4.15 0 00.55.23 3.91 3.91 0 00.69.16 5.61 5.61 0 00.86.06 3.38 3.38 0 001.37-.27 2.82 2.82 0 001-.8 3.59 3.59 0 00.66-1.26 5.73 5.73 0 00.23-1.68 10 10 0 00-.18-2 4.92 4.92 0 00-.56-1.57 2.91 2.91 0 00-1-1 2.94 2.94 0 00-1.56-.35zm10.94 3.28V7.12c0-.45 0-.77-.06-1.07s0-.55-.08-.75-.08-.37-.12-.51h2.26a3.19 3.19 0 00-.13.55 5.55 5.55 0 00-.08.83c.24-.2.49-.4.75-.59a5.75 5.75 0 01.8-.52 4.63 4.63 0 01.83-.36 2.87 2.87 0 01.86-.14h.46l.35.07a1.83 1.83 0 01.28.1l.25.1-.48 1.87h-.17a1.26 1.26 0 00-.44-.69 1.38 1.38 0 00-.88-.26 2.09 2.09 0 00-.63.11 3.63 3.63 0 00-.68.3 6 6 0 00-.68.44 8.38 8.38 0 00-.66.52 5.92 5.92 0 000 .61v4.68c0 .45 0 .77.05 1.07s.06.55.09.75a4 4 0 00.11.51h-2.26q.06-.21.12-.51c0-.2.06-.45.08-.75s.05-.66.06-1.07 0-.9 0-1.45zm10.62 1.17a5.14 5.14 0 01.41-2 5.06 5.06 0 011.13-1.64 5.2 5.2 0 011.69-1.1 5.6 5.6 0 012.1-.39 5.73 5.73 0 012.08.37A5 5 0 01245 6a4.83 4.83 0 011.14 1.64 5.51 5.51 0 01.41 2.16 5.29 5.29 0 01-.35 1.94 4.84 4.84 0 01-1 1.64 5.31 5.31 0 01-1.68 1.14 5.8 5.8 0 01-2.28.42 5.87 5.87 0 01-2.06-.36 5.19 5.19 0 01-1.69-1 4.93 4.93 0 01-1.14-1.64 5.34 5.34 0 01-.5-2.2zm5.54 4.48a3 3 0 001.27-.27 2.86 2.86 0 001-.8 3.76 3.76 0 00.66-1.26 5.73 5.73 0 00.23-1.68 8 8 0 00-.22-2 5.24 5.24 0 00-.67-1.57 3.24 3.24 0 00-1.12-1 3.28 3.28 0 00-1.54-.35 2.92 2.92 0 00-1.27.27 2.8 2.8 0 00-1 .78 3.42 3.42 0 00-.73 1.24 5.41 5.41 0 00-.24 1.68 8.1 8.1 0 00.23 2 4.94 4.94 0 00.68 1.58 3.27 3.27 0 001.12 1 3.11 3.11 0 001.6.38zM255.9.77a1.72 1.72 0 00-.52.09 1.33 1.33 0 00-.51.32 1.7 1.7 0 00-.39.65 2.94 2.94 0 00-.16 1.07v1.86h1.82l.6-.05h.36l-.18 1h-2.55v6.87c0 .45 0 .77.05 1.07s.06.55.09.75.08.37.11.51h-2.25c0-.14.07-.31.11-.51s.06-.45.08-.75.05-.66.06-1.07 0-.9 0-1.45V5.52l-1.62.06v-.86h1.64v-1.6a3.92 3.92 0 01.22-1.34 2.72 2.72 0 01.61-1 2.37 2.37 0 01.94-.6 3.32 3.32 0 011.2-.21 4.57 4.57 0 01.67.05 4.06 4.06 0 01.57.12 3.81 3.81 0 01.44.14l.31.13.4 1.71-.11.06c-.11-.16-.22-.32-.35-.49a3 3 0 00-.42-.45 2 2 0 00-.52-.34 1.69 1.69 0 00-.7-.13zm5.57 8.97a5 5 0 01.41-2A5.2 5.2 0 01263 6.05 5.25 5.25 0 01264.7 5a5.6 5.6 0 012.1-.39 5.67 5.67 0 012.07.37 5 5 0 011.7 1 4.83 4.83 0 011.14 1.64 5.73 5.73 0 01.06 4.1 4.87 4.87 0 01-1 1.64 5.15 5.15 0 01-1.67 1.14 6.24 6.24 0 01-4.34.06 5.08 5.08 0 01-1.69-1 4.93 4.93 0 01-1.14-1.64 5.34 5.34 0 01-.46-2.18zm5.53 4.48a3 3 0 001.28-.27 2.86 2.86 0 001-.8 3.58 3.58 0 00.65-1.26 5.41 5.41 0 00.24-1.68 8 8 0 00-.23-2 4.77 4.77 0 00-.67-1.57 3.21 3.21 0 00-1.11-1 3.32 3.32 0 00-1.58-.37 2.86 2.86 0 00-2.27 1 3.76 3.76 0 00-.66 1.24 5.73 5.73 0 00-.23 1.68 8.1 8.1 0 00.23 2 4.94 4.94 0 00.68 1.58 3.27 3.27 0 001.12 1 3.1 3.1 0 001.55.45zm12.55-2.88a2.88 2.88 0 00.51 1.89 1.7 1.7 0 001.38.61 2.49 2.49 0 00.71-.13 5.52 5.52 0 00.8-.36 6.19 6.19 0 00.83-.51 6.73 6.73 0 00.77-.62V7.17c0-.45 0-.77-.05-1.07s-.06-.55-.09-.75-.08-.37-.11-.51h2.25c0 .14-.07.31-.11.51s-.06.45-.08.75-.05.66-.06 1.07 0 .9 0 1.45v3.82c0 .45 0 .77.06 1.07s0 .55.08.75.07.37.11.51h-2.25c0-.17.07-.37.12-.63a9.45 9.45 0 00.09-1c-.27.22-.56.45-.86.67a9.74 9.74 0 01-1 .6 6.85 6.85 0 01-1 .42 3.27 3.27 0 01-1 .16 2.93 2.93 0 01-1.29-.26 2.43 2.43 0 01-.87-.7 2.62 2.62 0 01-.49-1 4.28 4.28 0 01-.15-1.13V7.12c0-.45 0-.77-.06-1.07a5.94 5.94 0 00-.09-.75 4.19 4.19 0 00-.1-.51h2.25c0 .14-.07.31-.11.51s-.06.45-.08.75-.05.66-.06 1.07 0 .9 0 1.45zm20.03-3.17a2.88 2.88 0 00-.51-1.89 1.76 1.76 0 00-1.39-.61 2.17 2.17 0 00-.7.14 4.23 4.23 0 00-.8.35 5.54 5.54 0 00-.82.51 9.65 9.65 0 00-.78.62v5.1c0 .45 0 .77.06 1.07s.06.55.09.75a4 4 0 00.11.51h-2.26a4 4 0 00.11-.51 5.94 5.94 0 00.09-.75c0-.3.05-.66.06-1.07s0-.9 0-1.45V7.12c0-.45 0-.77-.06-1.07a5.94 5.94 0 00-.09-.75 4 4 0 00-.11-.51h2.26a3.73 3.73 0 00-.12.63c0 .25-.06.57-.1 1 .27-.23.56-.45.87-.67a8 8 0 011-.59 6.44 6.44 0 011-.42 3.27 3.27 0 011-.16 2.93 2.93 0 011.29.26 2.43 2.43 0 01.87.7 2.59 2.59 0 01.49 1 4.26 4.26 0 01.15 1.12v4.77c0 .45 0 .77.06 1.07s.06.55.09.75a4 4 0 00.11.51h-2.25a4 4 0 00.11-.51 5.94 5.94 0 00.09-.75c0-.3 0-.66.06-1.07s0-.9 0-1.45zm12.7-3.59a4.4 4.4 0 01.8.07 5.53 5.53 0 01.78.19 4.64 4.64 0 01.72.32 3.38 3.38 0 01.62.42V2.55c0-.45 0-.77-.06-1.06s-.08-.58-.14-.79a3.49 3.49 0 00-.11-.5h2.26a3.49 3.49 0 00-.11.5 6.37 6.37 0 00-.09.76c0 .29 0 .65-.06 1.06s0 .9 0 1.45v8.45c0 .45 0 .77.06 1.07a5.94 5.94 0 00.09.75 4 4 0 00.11.51H315a.89.89 0 00.05-.23c0-.1 0-.23.05-.38a5.87 5.87 0 01-1.25.57 5.47 5.47 0 01-1.75.25 5.87 5.87 0 01-2.11-.36 4.38 4.38 0 01-2.65-2.67 6.12 6.12 0 01-.34-2.19 5.31 5.31 0 01.39-2A4.92 4.92 0 01310.16 5a5.59 5.59 0 012.12-.42zm2.92 2.71a3.12 3.12 0 00-1.12-1.51 2.93 2.93 0 00-1.64-.49 3.57 3.57 0 00-1.4.27 3.11 3.11 0 00-1.11.78 3.86 3.86 0 00-.72 1.24 5.12 5.12 0 00-.21 1.68 7.64 7.64 0 00.23 2 5.18 5.18 0 00.69 1.58 3.3 3.3 0 001.13 1 3.12 3.12 0 001.55.38 3.37 3.37 0 00.86-.11 3.69 3.69 0 00.73-.27 3.12 3.12 0 00.59-.37 2.68 2.68 0 00.42-.39V10.9zm24.49-1.64l2.61 6.57 2.18-5.44c0-.12.09-.25.15-.4a4.72 4.72 0 00.16-.45l.12-.44a1.73 1.73 0 000-.37.62.62 0 000-.21.5.5 0 000-.12h1.75a4.55 4.55 0 00-.42.62 10.42 10.42 0 00-.59 1.23l-3.47 8.25h-.56l-2.52-6.11-2.51 6.11H336l-3.2-7.77c-.12-.29-.25-.56-.38-.83s-.26-.5-.38-.7-.23-.39-.32-.53l-.18-.27h2.59v.33a2.94 2.94 0 00.1.67 8.57 8.57 0 00.3.91l2.18 5.52 2.63-6.57zm11.21 4.09a5.14 5.14 0 01.41-2 5.06 5.06 0 011.13-1.64 5.2 5.2 0 011.69-1.1 5.6 5.6 0 012.1-.39 5.73 5.73 0 012.08.37A5 5 0 01360 6a4.83 4.83 0 011.14 1.64 5.33 5.33 0 01.41 2.16 5.29 5.29 0 01-.35 1.94 4.84 4.84 0 01-1 1.64 5.31 5.31 0 01-1.68 1.14 6.24 6.24 0 01-4.34.06 5.19 5.19 0 01-1.69-1 4.93 4.93 0 01-1.14-1.64 5.34 5.34 0 01-.45-2.2zm5.54 4.48a3 3 0 001.27-.27 2.86 2.86 0 001-.8 3.76 3.76 0 00.66-1.26 5.73 5.73 0 00.23-1.68 8.56 8.56 0 00-.22-2 5 5 0 00-.67-1.57 3.24 3.24 0 00-1.12-1 3.31 3.31 0 00-1.59-.35 2.92 2.92 0 00-1.27.27 2.8 2.8 0 00-1 .78 3.42 3.42 0 00-.66 1.24 5.41 5.41 0 00-.24 1.68 8.1 8.1 0 00.23 2 4.94 4.94 0 00.68 1.58 3.27 3.27 0 001.12 1 3.11 3.11 0 001.58.38zm10.9-5.65V7.12c0-.45 0-.77-.06-1.07s-.05-.55-.09-.75-.07-.37-.11-.51h2.25a4.5 4.5 0 00-.13.55c0 .22-.06.49-.08.83.24-.2.49-.4.75-.59a6.41 6.41 0 01.8-.52 4.43 4.43 0 01.84-.36 2.75 2.75 0 01.85-.14h.46a2.7 2.7 0 01.35.07 1.83 1.83 0 01.28.1l.25.1-.48 1.87h-.17a1.2 1.2 0 00-.44-.69 1.35 1.35 0 00-.87-.26 2.1 2.1 0 00-.64.11 3.29 3.29 0 00-.67.3 5.3 5.3 0 00-.69.44c-.22.16-.45.34-.66.52v5.29c0 .45 0 .77.06 1.07a5.94 5.94 0 00.09.75 4.19 4.19 0 00.1.51h-2.25c0-.14.07-.31.11-.51s.06-.45.09-.75 0-.66.06-1.07 0-.9 0-1.45zM378.84 4V2.55c0-.45 0-.77-.06-1.06a6.37 6.37 0 00-.09-.76c0-.2-.07-.37-.11-.5h2.25a3.65 3.65 0 00-.1.5 6.37 6.37 0 00-.09.76c0 .29-.05.65-.06 1.06s0 .9 0 1.45v8.45c0 .45 0 .77.06 1.07a5.94 5.94 0 00.09.75 4.19 4.19 0 00.1.51h-2.25c0-.14.07-.31.11-.51a5.94 5.94 0 00.09-.75c0-.3 0-.66.06-1.07s0-.9 0-1.45zm12.82.58a4.33 4.33 0 01.8.07 4.94 4.94 0 01.78.19 3.93 3.93 0 01.72.32 3.07 3.07 0 01.62.42V2.55c0-.45 0-.77-.06-1.06a6.37 6.37 0 00-.09-.76c0-.2-.07-.37-.1-.5h2.25c0 .13-.07.3-.11.5a6.37 6.37 0 00-.09.76c0 .29 0 .65-.06 1.06s0 .9 0 1.45v8.45c0 .45 0 .77.06 1.07a5.94 5.94 0 00.09.75c0 .2.07.37.11.51h-2.18a.89.89 0 00.05-.23c0-.1 0-.23.05-.38a5.87 5.87 0 01-1.25.57 5.43 5.43 0 01-1.75.25 5.91 5.91 0 01-2.11-.36 4.4 4.4 0 01-2.64-2.67 6.12 6.12 0 01-.36-2.16 5.31 5.31 0 01.39-2 5 5 0 011.09-1.64A5.11 5.11 0 01389.54 5a5.59 5.59 0 012.12-.42zm2.92 2.71a3.06 3.06 0 00-1.12-1.51 2.9 2.9 0 00-1.63-.49 3.62 3.62 0 00-1.41.27 3 3 0 00-1.1.78 3.52 3.52 0 00-.72 1.24 4.86 4.86 0 00-.26 1.68 8.1 8.1 0 00.23 2 5.18 5.18 0 00.69 1.58 3.3 3.3 0 001.13 1 3.15 3.15 0 001.55.38 3.37 3.37 0 00.86-.11 3.69 3.69 0 00.73-.27 3.12 3.12 0 00.59-.37 2.68 2.68 0 00.42-.39V10.9zm17.08 2.45a5.14 5.14 0 01.41-2A5 5 0 01414.89 5a5.94 5.94 0 014.18 0 5 5 0 011.69 1 4.69 4.69 0 011.14 1.64 5.34 5.34 0 01.42 2.16 5.3 5.3 0 01-.36 1.94 4.69 4.69 0 01-1 1.64 5.2 5.2 0 01-1.68 1.14 5.8 5.8 0 01-2.28.42 5.91 5.91 0 01-2.06-.36 5.29 5.29 0 01-1.69-1 4.93 4.93 0 01-1.14-1.64 5.34 5.34 0 01-.45-2.2zm5.54 4.48a3 3 0 001.27-.27 2.86 2.86 0 001-.8 3.76 3.76 0 00.66-1.26 5.42 5.42 0 00.23-1.68 8 8 0 00-.22-2 4.77 4.77 0 00-.67-1.57 3.24 3.24 0 00-1.12-1 3.28 3.28 0 00-1.57-.37 3 3 0 00-1.27.27 2.89 2.89 0 00-1 .78 3.76 3.76 0 00-.66 1.24 5.42 5.42 0 00-.23 1.68 8.12 8.12 0 00.22 2 5.17 5.17 0 00.68 1.58 3.36 3.36 0 001.12 1 3.16 3.16 0 001.56.4zM431.72.77a1.73 1.73 0 00-.53.09 1.41 1.41 0 00-.51.32 2 2 0 00-.39.65 3.2 3.2 0 00-.15 1.07v1.86h1.81l.61-.05h.35l-.18 1h-2.55v6.87c0 .45 0 .77.06 1.07a5.94 5.94 0 00.09.75 4 4 0 00.11.51h-2.26a4 4 0 00.11-.51q0-.3.09-.75c0-.3 0-.66.06-1.07s0-.9 0-1.45V5.52l-1.64.06v-.86h1.64v-1.6a3.69 3.69 0 01.22-1.34 2.59 2.59 0 01.61-1 2.41 2.41 0 01.93-.6 3.38 3.38 0 011.21-.18 4.68 4.68 0 01.67.05 3.91 3.91 0 01.56.12 3.27 3.27 0 01.44.14l.32.13.38 1.68-.12.06c-.1-.16-.22-.32-.34-.49a3 3 0 00-.42-.45 2.22 2.22 0 00-.52-.34 1.76 1.76 0 00-.66-.13zm17.85 11.96a8.56 8.56 0 01-.27 2.27 6.2 6.2 0 01-.75 1.71 6.37 6.37 0 01-1.14 1.34c-.44.39-.92.77-1.44 1.15l-.18-.25a5.6 5.6 0 001.07-1.27 6 6 0 00.61-1.43 8 8 0 00.27-1.63c0-.58.05-1.22.05-1.91V2.06c0-.3-.06-.56-.1-.76a4 4 0 00-.11-.51h2.34c0 .14-.07.31-.11.51s-.07.45-.09.76 0 .66-.06 1.07 0 .9 0 1.45zm5.93-.85a2.71 2.71 0 01.31-1.34 3.15 3.15 0 01.85-1 4.6 4.6 0 011.2-.65 8.18 8.18 0 011.39-.39c.49-.09 1-.16 1.43-.2l1.32-.03v-.5a3.09 3.09 0 00-.17-1.11 2 2 0 00-.47-.78 2.07 2.07 0 00-.72-.46 2.81 2.81 0 00-.94-.15 4 4 0 00-.69.06 4.25 4.25 0 00-.71.2 4.85 4.85 0 00-.77.37 7.06 7.06 0 00-.87.59h-.1l.66-1.38a4.59 4.59 0 01.64-.24l.63-.15q.33-.06.66-.09h.71a5.31 5.31 0 011.75.25 3.31 3.31 0 011.2.68 2.67 2.67 0 01.67 1 3.41 3.41 0 01.22 1.24v4.64c0 .45 0 .77.06 1.07s.05.55.09.75.07.37.11.51h-2.16a1.8 1.8 0 00.08-.35v-.47l-.48.36a4.25 4.25 0 01-.64.33 3.49 3.49 0 01-.79.25 4.65 4.65 0 01-.95.09 3.93 3.93 0 01-2.63-.79 2.81 2.81 0 01-.89-2.31zM462 9a15.68 15.68 0 00-1.71.11 4.74 4.74 0 00-1.45.38 2.49 2.49 0 00-1 .84 2.41 2.41 0 00-.38 1.44 2.44 2.44 0 00.57 1.75 2.1 2.1 0 001.6.61 2.57 2.57 0 00.85-.13 3.15 3.15 0 00.69-.33 3.08 3.08 0 00.5-.44 2.37 2.37 0 00.31-.47V9zm8.22-.62V6.93c0-.45 0-.77-.05-1.07s-.06-.55-.09-.75-.08-.37-.11-.51h2.25q0 .15-.09.33c0 .13-.05.27-.06.42a6.41 6.41 0 011.27-.56 5.39 5.39 0 013.52.14A4.22 4.22 0 01478.37 6a4.84 4.84 0 011 1.65 6.35 6.35 0 01.35 2.16 5.51 5.51 0 01-.35 1.94 5 5 0 01-1 1.64 5.17 5.17 0 01-1.65 1.14 5.63 5.63 0 01-2.24.42 7.42 7.42 0 01-1.39-.12 6.22 6.22 0 01-1.15-.3v2.88c0 .45 0 .77.06 1.07s.05.55.08.75.07.37.11.51h-2.25c0-.14.07-.31.11-.51s.06-.45.09-.75 0-.66.05-1.07 0-.9 0-1.45zm4.3-3.09a2.65 2.65 0 00-.68.09 3.73 3.73 0 00-.69.23 3.48 3.48 0 00-.64.38 3 3 0 00-.55.52v6.99a4.24 4.24 0 00.44.27 4.15 4.15 0 00.55.23 3.91 3.91 0 00.69.16 5.61 5.61 0 00.86.06 3.38 3.38 0 001.37-.27 2.82 2.82 0 001-.8 3.43 3.43 0 00.66-1.26 5.73 5.73 0 00.23-1.68 10 10 0 00-.18-2 4.92 4.92 0 00-.58-1.52 2.7 2.7 0 00-2.5-1.4zm10.2 6.59a2.71 2.71 0 01.31-1.34 3.29 3.29 0 01.85-1 4.6 4.6 0 011.2-.65 8.29 8.29 0 011.4-.39 14.25 14.25 0 011.42-.2l1.29-.06v-.5a3.34 3.34 0 00-.19-1.08 2.17 2.17 0 00-.47-.78 2.11 2.11 0 00-.73-.46 2.75 2.75 0 00-.93-.15 4 4 0 00-.7.06 4.15 4.15 0 00-.7.2 4.55 4.55 0 00-.78.37 7.06 7.06 0 00-.87.59h-.1l.67-1.38a4.06 4.06 0 01.63-.24 7.249 7.249 0 011.29-.24h.71a5.37 5.37 0 011.76.25 3.35 3.35 0 011.19.68 2.69 2.69 0 01.68 1 3.63 3.63 0 01.21 1.24v4.64c0 .45 0 .77.05 1.07s.06.55.09.75.08.37.11.51H491a3.09 3.09 0 00.07-.35v-.47c-.13.11-.3.23-.48.36a4.25 4.25 0 01-.64.33 3.49 3.49 0 01-.79.25 4.65 4.65 0 01-1 .09 3.89 3.89 0 01-2.62-.79 2.82 2.82 0 01-.82-2.31zM491.19 9a15.68 15.68 0 00-1.71.11 4.82 4.82 0 00-1.45.38 2.31 2.31 0 00-1.38 2.28 2.4 2.4 0 00.58 1.75 2.06 2.06 0 001.59.61 2.53 2.53 0 00.85-.13 3.15 3.15 0 00.69-.33 2.71 2.71 0 00.5-.44 2 2 0 00.31-.47V9zm14.97-.83a2.83 2.83 0 00-.52-1.89 1.75 1.75 0 00-1.39-.61 2.22 2.22 0 00-.7.14 4.23 4.23 0 00-.8.35 6.11 6.11 0 00-.82.51 9.48 9.48 0 00-.77.62v5.1c0 .45 0 .77.06 1.07a5.94 5.94 0 00.09.75 4.19 4.19 0 00.1.51h-2.25c0-.14.07-.31.11-.51s.06-.45.09-.75 0-.66.06-1.07 0-.9 0-1.45V7.12c0-.45 0-.77-.06-1.07s-.05-.55-.09-.75-.07-.37-.11-.51h2.25a3.73 3.73 0 00-.12.63c0 .25-.06.57-.09 1 .27-.23.55-.45.86-.67a8 8 0 011-.59 6.85 6.85 0 011-.42 3.34 3.34 0 011-.16 3 3 0 011.29.26 2.61 2.61 0 01.87.7 2.74 2.74 0 01.49 1 4.26 4.26 0 01.15 1.12v4.77c0 .45 0 .77.06 1.07s.05.55.08.75.07.37.11.51h-2.25c0-.14.07-.31.11-.51s.06-.45.09-.75 0-.66.05-1.07 0-.9 0-1.45zm12.61 6.76a5.89 5.89 0 01-2-.34 4.78 4.78 0 01-1.65-1A4.62 4.62 0 01514 12a5.74 5.74 0 01-.4-2.22 5.49 5.49 0 01.37-2 5.28 5.28 0 011-1.64A4.83 4.83 0 01516.5 5a4.57 4.57 0 011.89-.39 5 5 0 011.87.35 4.21 4.21 0 011.49 1 4.75 4.75 0 011 1.63 6.6 6.6 0 01.4 2.22h-7.6a7.27 7.27 0 00.32 1.83 4.39 4.39 0 00.71 1.4 3.08 3.08 0 001.1.9 3.52 3.52 0 001.47.31 4.54 4.54 0 001.07-.13 3.77 3.77 0 00.92-.37 4 4 0 00.73-.55 3.63 3.63 0 00.55-.69l.11.06-.72 1.74a6.31 6.31 0 01-1.26.46 6.92 6.92 0 01-1.78.16zm-1.3-6h3.78a6.16 6.16 0 00-.33-1.53 3.87 3.87 0 00-.62-1.14 2.81 2.81 0 00-.9-.72 2.58 2.58 0 00-1.14-.26 2.25 2.25 0 00-1 .25 2.47 2.47 0 00-.83.72 4.12 4.12 0 00-.57 1.15 6.36 6.36 0 00-.33 1.6h1.94zm15.78-2.21h-.14a2 2 0 00-.21-.48 2.22 2.22 0 00-.4-.47 2.31 2.31 0 00-.57-.36 2.13 2.13 0 00-.78-.14 1.79 1.79 0 00-.57.09 1.54 1.54 0 00-.47.26 1.34 1.34 0 00-.32.42 1.59 1.59 0 00.21 1.53 4.78 4.78 0 00.74.86c.3.29.63.57 1 .86a9.34 9.34 0 011 .9 5.07 5.07 0 01.74 1 2.26 2.26 0 01.3 1.14 2.74 2.74 0 01-.18 1 2.24 2.24 0 01-.54.84 2.58 2.58 0 01-.93.6 3.78 3.78 0 01-1.37.23 4 4 0 01-.87-.09 4.62 4.62 0 01-.74-.22 3.85 3.85 0 01-.61-.29 5.49 5.49 0 01-.47-.31l.09-1.85h.16a3.79 3.79 0 00.29.84 2.47 2.47 0 00.49.65 2.25 2.25 0 00.66.42 2.09 2.09 0 00.81.15 1.66 1.66 0 001.15-.4 1.39 1.39 0 00.42-1.05 1.71 1.71 0 00-.29-.95 4.31 4.31 0 00-.73-.84c-.29-.26-.6-.53-.94-.8a9.49 9.49 0 01-.94-.85 4.42 4.42 0 01-.73-1 2.6 2.6 0 01-.29-1.23 2.51 2.51 0 01.21-1 2.29 2.29 0 01.59-.81 2.55 2.55 0 01.89-.52A3.25 3.25 0 01531 4.6a4.67 4.67 0 011.35.17 4 4 0 01.82.33zm10.64 8.21a5.89 5.89 0 01-2-.34 4.78 4.78 0 01-1.65-1A4.62 4.62 0 01539.1 12a5.74 5.74 0 01-.4-2.22 5.49 5.49 0 01.37-2 5.28 5.28 0 011-1.64A4.83 4.83 0 01541.62 5a4.57 4.57 0 011.89-.39 5 5 0 011.87.35 4.21 4.21 0 011.49 1 4.75 4.75 0 011 1.63 6.6 6.6 0 01.4 2.22h-7.62a7.75 7.75 0 00.32 1.83 4.39 4.39 0 00.71 1.4 3.08 3.08 0 001.1.9 3.52 3.52 0 001.47.31 4.54 4.54 0 001.07-.13 3.77 3.77 0 00.92-.37 4 4 0 00.73-.55 3.63 3.63 0 00.55-.69l.11.06-.72 1.74a6.31 6.31 0 01-1.26.46 6.92 6.92 0 01-1.76.16zm-1.3-6h3.78a5.74 5.74 0 00-.37-1.52 3.87 3.87 0 00-.62-1.14 2.81 2.81 0 00-.9-.72 2.58 2.58 0 00-1.14-.26 2.25 2.25 0 00-1 .25 2.57 2.57 0 00-.83.72 4.12 4.12 0 00-.57 1.15 6.36 6.36 0 00-.29 1.59h1.94zm24.5 5.25a1.7 1.7 0 00.58-.11 2.71 2.71 0 00.56-.29 3.42 3.42 0 00.51-.43 3.71 3.71 0 00.47-.5l.1.05-.64 1.57-.29.14a2.34 2.34 0 01-.41.16 4.71 4.71 0 01-.56.13 5.47 5.47 0 01-.76 0 2.83 2.83 0 01-2-.71 3 3 0 01-.72-2.21V5.52l-1.64.06v-.86h1.64V3.49c0-.35 0-.66-.06-.93s0-.48-.08-.67a3.61 3.61 0 00-.1-.46h2.26a3.48 3.48 0 00-.11.46c0 .19-.06.41-.08.67s0 .57-.06.92 0 .77 0 1.24h2.29l.82-.05h.44l-.18 1h-3.33v6.72a3 3 0 00.14 1 1.46 1.46 0 00.34.59 1.09 1.09 0 00.48.29 2 2 0 00.39-.09zm12.11.75a5.89 5.89 0 01-2-.34 4.78 4.78 0 01-1.65-1 4.62 4.62 0 01-1.14-1.59 5.74 5.74 0 01-.4-2.22 5.49 5.49 0 01.37-2 5.13 5.13 0 011-1.64A4.68 4.68 0 01576.93 5a4.63 4.63 0 011.89-.39 5 5 0 011.87.35 4.21 4.21 0 011.49 1 4.75 4.75 0 011 1.63 6.6 6.6 0 01.4 2.22h-7.66a7.75 7.75 0 00.32 1.83A4.39 4.39 0 00577 13a3 3 0 001.11.9 3.45 3.45 0 001.47.31 4.52 4.52 0 001.06-.13 3.77 3.77 0 00.92-.37 3.68 3.68 0 00.73-.55 3.27 3.27 0 00.55-.69l.11.06-.72 1.74a6.31 6.31 0 01-1.26.46 6.92 6.92 0 01-1.77.2zm-1.29-6h3.79a6.15 6.15 0 00-.34-1.53 3.87 3.87 0 00-.62-1.14 2.71 2.71 0 00-.9-.72 2.58 2.58 0 00-1.14-.26 2.25 2.25 0 00-1 .25 2.57 2.57 0 00-.83.72 3.85 3.85 0 00-.56 1.15A5.9 5.9 0 00576 9h1.95zm10.58 2.95a2.61 2.61 0 01.32-1.34 3.12 3.12 0 01.84-1 4.6 4.6 0 011.2-.65 8.29 8.29 0 011.4-.39 14.25 14.25 0 011.42-.2l1.33-.03v-.5a3.34 3.34 0 00-.16-1.11 2.17 2.17 0 00-.47-.78 2.11 2.11 0 00-.73-.46 2.75 2.75 0 00-.93-.15 4 4 0 00-.7.06 4.67 4.67 0 00-1.47.57 6.44 6.44 0 00-.88.59h-.1l.67-1.38a4.06 4.06 0 01.63-.24c.21-.06.42-.11.64-.15a6.57 6.57 0 01.66-.09h.7a5.37 5.37 0 011.76.25 3.35 3.35 0 011.19.68 2.69 2.69 0 01.68 1 3.63 3.63 0 01.21 1.24v4.64c0 .45 0 .77.06 1.07s0 .55.08.75.08.37.11.51h-2.15a3.09 3.09 0 00.07-.35v-.47a6 6 0 01-.48.36 4.12 4.12 0 01-.63.33 3.84 3.84 0 01-.79.25 4.75 4.75 0 01-1 .09 3.89 3.89 0 01-2.62-.79 2.82 2.82 0 01-.86-2.31zM595 9a15.68 15.68 0 00-1.71.11 4.82 4.82 0 00-1.45.38 2.31 2.31 0 00-1.38 2.28 2.4 2.4 0 00.58 1.75 2.06 2.06 0 001.59.61 2.53 2.53 0 00.85-.13 3.15 3.15 0 00.69-.33 2.71 2.71 0 00.5-.44 2 2 0 00.31-.47V9zm7.7 4.9a1 1 0 01.09-.41 1 1 0 01.22-.33 1.09 1.09 0 01.33-.23 1.11 1.11 0 01.41-.08 1.07 1.07 0 01.41.08 1.13 1.13 0 01.34.23 1 1 0 01.22.33 1.11 1.11 0 01.08.41 1 1 0 01-1 1 1.11 1.11 0 01-.41-.08 1.09 1.09 0 01-.33-.23 1 1 0 01-.22-.33 1 1 0 01-.14-.36z" fill="#fff" data-name="レイヤー 1"/></g></svg>