<svg xmlns="http://www.w3.org/2000/svg" viewBox="0 0 280 46.33"><g data-name="レイヤー 2"><path d="M13.34 17.09a26 26 0 014.89 1.17c.94.31 1.55-.63 1.85-1.27a.12.12 0 01.23.06l.22 7.89a.12.12 0 01-.23 0 11.29 11.29 0 00-7-7.66.12.12 0 01.04-.19zm-7 28.68C3.17 44.46 1.84 43 .52 38.32a.12.12 0 00-.23 0l.51 7.19a.12.12 0 00.22.05c.27-.4.79-1 1.5-.85A36.29 36.29 0 006.25 46a.12.12 0 00.07-.23zM.25 22.5c-1.43 5.49 3.52 8.21 9 10.42s6.94 4.3 6.54 7.81A6 6 0 0111 45.89a.12.12 0 000 .23c5.66-.27 10.62-2.14 11.17-7.44.49-4.65-2.83-7.92-8-10.17C10.66 27 5.36 24.66 5.56 21A4.24 4.24 0 019 17.26a.12.12 0 000-.24c-2.31.08-7.52.78-8.75 5.48zm43 22.75c-1.43-.42-2.25-1.32-2.25-3.66V.12a.12.12 0 00-.11-.12l-10.1.94a.12.12 0 000 .24c2.93.31 4 1.4 4 4.88v35.53c0 2.34-.8 3.24-2.21 3.66a.12.12 0 000 .24H43.2a.12.12 0 00.03-.24zm18.12 0c-1.41-.42-2.22-1.32-2.22-3.66V26.52c0-5.29-1.09-9.31-7-9.93-4.11-.44-7.12 2.32-8.35 3.7a.12.12 0 00.16.18 6.63 6.63 0 015-1c3.63.82 4 4.24 4 7.07v15.05c0 2.34-.81 3.24-2.21 3.66a.12.12 0 000 .24h10.56a.12.12 0 00.04-.24zm87.89 0c-1.41-.42-2.21-1.32-2.21-3.66V.12a.12.12 0 00-.15-.12l-10.1.94a.12.12 0 000 .24c2.93.31 4 1.4 4 4.88v35.53c0 2.34-.8 3.24-2.21 3.66a.12.12 0 000 .24h10.62a.12.12 0 00.03-.24zm18.11 0c-1.41-.42-2.21-1.32-2.21-3.66V26.52c0-5.29-1.1-9.31-7-9.93-4.12-.44-7.12 2.32-8.35 3.7a.12.12 0 00.15.18 6.66 6.66 0 015-1c3.63.82 3.95 4.24 3.95 7.07v15.05c0 2.34-.8 3.24-2.21 3.66a.12.12 0 000 .24h10.61a.12.12 0 00.04-.24zm-68.29-1.09c-2.93-.3-4-1.4-4-4.88V17.1A.11.11 0 0095 17l-8.46.36a.12.12 0 000 .24c1.49.4 2.35 1.28 2.35 3.7v23.92a.11.11 0 00.13.12l10.1-.94a.12.12 0 00-.04-.24zm-13.14-1.77a6.61 6.61 0 01-5 1c-3.63-.82-4-4.24-4-7.07V17.1a.12.12 0 00-.13-.12l-8.45.36a.12.12 0 000 .24c1.5.4 2.35 1.28 2.35 3.7v15.07c0 5.29 1.1 9.31 7 9.93 4.12.43 7.13-2.32 8.36-3.71a.12.12 0 00-.13-.18zm118-.27a3.24 3.24 0 01-3.08 1.32c-1.33-.29-2-1.32-2-3V26.52c0-5.73-1.56-8.91-7.3-9.76a15.79 15.79 0 00-5.91.17.12.12 0 000 .24 9.73 9.73 0 013.85.54c3.12 1.2 3.07 4.62 3.07 8.81V40c0 2.72 1.09 5.58 5 6a6.29 6.29 0 006.54-3.84.12.12 0 00-.21-.04zm-25.89-19.18a3.29 3.29 0 006.46-1.14 3.27 3.27 0 00-2.06-2.49c-.57-.27-.49-.66-.3-.94a.12.12 0 00-.15-.18 9.28 9.28 0 00-2.82 1.67l-.22.2a3.25 3.25 0 00-.91 2.88zm12.45 18.11c-1.17 1-3.31 2.5-5 2-2.49-.71-3.06-4.06-2.1-7.65 1.06-4 3.49-5.51 6.91-6.89a.12.12 0 00-.06-.24c-5.55.88-12.43 2.36-13.44 9.82-.71 5.36 2.36 8 5.69 8 3.87 0 6.89-3.26 8.17-4.92a.12.12 0 00-.17-.12zm60.25 4.2c-1.41-.42-2.21-1.32-2.21-3.66V17.1a.12.12 0 00-.12-.12l-8.46.36a.12.12 0 000 .24c1.49.4 2.34 1.28 2.34 3.7v20.31c0 2.34-.8 3.24-2.21 3.66a.12.12 0 000 .24h10.61a.12.12 0 00.05-.24zM259 16.58c-3.88-.89-6.83 1.91-8 3.28a.12.12 0 00.16.18 4.76 4.76 0 012.9-1.15c1.3.12 1.54 1.11 1.42 2.16-.28 2.27.64 3.22 2.11 3.42a4.07 4.07 0 004.24-3.6 3.65 3.65 0 00-2.83-4.29zm20.93 28.67c-1.41-.42-2.21-1.32-2.21-3.66V17.1a.12.12 0 00-.12-.12l-8.46.36a.12.12 0 000 .24c1.49.4 2.34 1.28 2.34 3.7v20.31c0 2.34-.8 3.24-2.21 3.66a.12.12 0 000 .24h10.61a.12.12 0 00.03-.24zm-5.34-34.31a3.65 3.65 0 10-3.64-3.64 3.65 3.65 0 003.62 3.64z" fill="#fff" data-name="レイヤー 1"/></g></svg>