<svg xmlns="http://www.w3.org/2000/svg" viewBox="0 0 200.22 32.83"><g data-name="レイヤー 2"><path d="M8.92 20.64c4.24 1.56 5.84 3.48 5.84 6.15 0 3.17-2.76 6-8.2 6a14.13 14.13 0 01-6.4-1.56L0 26.6h1.92l.88 3.87a8.84 8.84 0 003.76.76c3.56 0 5.24-1.48 5.24-3.64 0-1.95-1.24-2.95-4.16-4l-2-.76C2.44 21.64.36 20 .36 17c0-3.12 2.6-5.84 7.32-5.84a11.16 11.16 0 016 1.72l-.16 4.32h-1.76L11 13.64a6.81 6.81 0 00-3.36-.88c-2.92 0-4.4 1.36-4.4 3.32s1.12 2.88 4.08 4zM45.14 31v1.28h-9.76V31l3.4-.48c0-2.23.08-5.27.08-7.35v-4c0-4.16-1.24-5.52-3.84-5.52-2 0-4 .72-6.64 3.2v6.32c0 2 0 5.12.08 7.35l3.16.48v1.28h-9.8V31l3.44-.52c0-2.19.08-5.27.08-7.31V3.24l-3.63-.32V1.68L27.82 0l.6.36-.16 6.16v8.84c2.32-2.56 5.36-4.2 8.12-4.2 3.64 0 5.48 2.16 5.48 7.84v4.16c0 2.08 0 5.12.08 7.31zm28.03 0v1.28l-5.68.36-.32-4c-2.23 2.76-5 4.2-7.79 4.2-3.6 0-5.72-2-5.68-7.91l.12-11.12-3.32-.56V12l6-.52.4.44-.2 6.08v6.72c0 4.15 1.28 5.59 3.88 5.59a9.05 9.05 0 006.51-3.19l.08-13.28-3.28-.56V12l5.92-.52.44.44-.16 6.08v12.51zm45.6 0v1.28H109V31l3.4-.48c0-2.23.08-5.27.08-7.35v-4c0-4.16-1.24-5.52-3.84-5.52-2 0-4 .72-6.63 3.2v6.32c0 2 0 5.12.07 7.35l3.16.48v1.28h-9.78V31l3.43-.52c0-2.19.08-5.27.08-7.31V3.24l-3.63-.32V1.68L101.46 0l.59.36-.16 6.16v8.84c2.32-2.56 5.36-4.2 8.12-4.2 3.64 0 5.48 2.16 5.48 7.84v4.16c0 2.08 0 5.12.08 7.31zm27.06-.25a3.92 3.92 0 01-3.48 2c-2 0-3.32-1.36-3.68-3.55-2.44 2.47-4 3.63-6.64 3.63-3.2 0-5.76-1.84-5.76-5.27 0-2.68 1.56-4.64 7-6.6 1.56-.48 3.48-1 5.32-1.44v-1.28c0-4.4-1.32-5.48-4.36-5.48a8.27 8.27 0 00-2.8.44l-.88 3c-.32 1.16-.92 1.76-2 1.76a1.61 1.61 0 01-1.76-1.52c.84-3.28 4-5.24 8.2-5.24 4.44 0 6.6 2 6.6 7.2v9.47c0 2.32.64 3.05 1.72 3.05a2.37 2.37 0 001.8-1zm-7.24-9.95a42.8 42.8 0 00-4.48 1.44c-3.88 1.48-4.6 3.16-4.6 4.76 0 2.39 1.52 3.47 3.68 3.47 1.68 0 2.84-.72 5.4-2.76zm35.08-3.96c1.44-3.52 4-5.68 6.52-5.68a3.46 3.46 0 013 1.44c0 1.72-.68 2.72-2.24 2.72a3.88 3.88 0 01-2.56-1.16l-.56-.48a11 11 0 00-4.16 5.84v3.64c0 2 0 5.08.08 7.31l3.68.52v1.28h-10.2V31l3.28-.48c.08-2.23.12-5.31.12-7.35V21c0-2.56-.08-4.2-.16-6.08L167 14.6v-1.28l5.76-2.12.56.4zM200.22 31v1.28h-9.76V31l3.44-.52c0-2.19.08-5.27.08-7.31v-2.25c0-2.48 0-4.08-.08-6.08l-3.68-.24v-1.32l6.28-2.08.6.4-.1 5.68v5.88c0 2 0 5.12.08 7.31zm-7.36-27.68a2.54 2.54 0 015.08 0 2.54 2.54 0 01-5.08 0z" fill="#fff" data-name="レイヤー 1"/></g></svg>