<svg xmlns="http://www.w3.org/2000/svg" viewBox="0 0 624.85 95.28"><g data-name="レイヤー 2"><path d="M174.47 4.39l7 17.07 6.84-16.75a17.64 17.64 0 00.6-1.76 5.28 5.28 0 00.19-1.23V1.4a1.2 1.2 0 00-.05-.26v-.07h3.48v.07a5.51 5.51 0 00-.77 1.23c-.27.57-.59 1.26-1 2.09l-9.39 22.36h-1.34l-6.83-16.59-6.2 16.59h-1.3l-8.62-21.49c-.21-.51-.42-1-.64-1.46S156 3 155.83 2.6s-.37-.69-.53-1a4.72 4.72 0 00-.34-.51v-.02h4.87v.07a1.37 1.37 0 000 .3v.25a6.27 6.27 0 00.09 1.31 9 9 0 00.52 1.62l6.61 16.7 6.31-16.81zm31.72 22.21a10.64 10.64 0 01-3.65-.62 8.46 8.46 0 01-3-1.8 8.33 8.33 0 01-2-2.94 10.23 10.23 0 01-.73-4 9.87 9.87 0 01.67-3.68 9.07 9.07 0 011.85-2.94 8.36 8.36 0 012.75-1.95 8.22 8.22 0 013.4-.71 8.89 8.89 0 013.36.63 7.57 7.57 0 012.68 1.81 8.67 8.67 0 011.79 2.93 12 12 0 01.71 4h-13.74a13.67 13.67 0 00.57 3.31 8.07 8.07 0 001.28 2.52 5.52 5.52 0 002 1.61 6 6 0 002.64.56 8 8 0 001.93-.23 6.86 6.86 0 001.64-.66 6.94 6.94 0 001.32-1 5.75 5.75 0 001-1.24l.22.11-1.31 3.13a10.72 10.72 0 01-2.26.83 12.67 12.67 0 01-3.12.33zm-2.33-10.73h3.52q1.77 0 3.21-.06a11.9 11.9 0 00-.6-2.74 7.22 7.22 0 00-1.12-2.07 4.93 4.93 0 00-1.62-1.3 4.68 4.68 0 00-2.06-.45 4.06 4.06 0 00-1.87.44 4.46 4.46 0 00-1.49 1.3 7 7 0 00-1 2.06 11 11 0 00-.45 2.79h1.67zm17.68-9V4.26c0-.75-.06-1.38-.1-1.92s-.1-1-.16-1.36-.13-.66-.2-.91V0h4.06v.07a8.61 8.61 0 00-.2.91c-.06.37-.11.82-.16 1.36s-.08 1.18-.1 1.92 0 1.62 0 2.61v15.15c0 .75.06 1.38.1 1.92s.1 1 .16 1.35a8.32 8.32 0 00.2.92v.07H221v-.07c.07-.25.13-.55.2-.92s.12-.81.16-1.35.07-1.18.1-1.92 0-1.62 0-2.61zm26.78 15.67L247 25.66a9.08 9.08 0 01-1.09.39 12.39 12.39 0 01-1.27.3c-.44.08-.89.14-1.33.18a11.43 11.43 0 01-1.27.07 11.86 11.86 0 01-3.93-.63 8.78 8.78 0 01-3.11-1.82 8.37 8.37 0 01-2-2.93 10.16 10.16 0 01-.73-4 8.79 8.79 0 012.89-6.62 9.84 9.84 0 013.21-1.95 11.1 11.1 0 014-.71 14.59 14.59 0 012.11.17 13.8 13.8 0 012 .43l1.25 3-.22.12a5.78 5.78 0 00-1-1 6.77 6.77 0 00-1.34-.77 8.39 8.39 0 00-1.54-.49 7.51 7.51 0 00-1.65-.17 6.28 6.28 0 00-2.49.48 5.4 5.4 0 00-1.94 1.4 6.4 6.4 0 00-1.25 2.24 9.34 9.34 0 00-.45 3 13.74 13.74 0 00.43 3.54 8.64 8.64 0 001.28 2.83 6.1 6.1 0 002.15 1.89 6.45 6.45 0 003 .67 6.34 6.34 0 001.61-.2 6.74 6.74 0 001.51-.58 6.53 6.53 0 001.31-.91 5 5 0 001-1.19zm5.68-5.3a9.16 9.16 0 01.74-3.68 9 9 0 012-2.94 9.21 9.21 0 013.05-1.95 10 10 0 013.82-.67 10.55 10.55 0 013.74.66 9.39 9.39 0 013 1.87 8.65 8.65 0 012 3 9.76 9.76 0 01.75 3.9 9.75 9.75 0 01-.63 3.48 8.61 8.61 0 01-1.87 3 9 9 0 01-3 2 10.34 10.34 0 01-4.1.77 10.56 10.56 0 01-3.71-.65 9.08 9.08 0 01-3-1.87 8.72 8.72 0 01-2.06-2.94 9.56 9.56 0 01-.73-3.98zm10 8.07a5.26 5.26 0 002.29-.49 5.17 5.17 0 001.81-1.42 6.86 6.86 0 001.17-2.27 10.06 10.06 0 00.42-3 14.62 14.62 0 00-.4-3.53 8.87 8.87 0 00-1.2-2.81 5.89 5.89 0 00-2-1.86 5.8 5.8 0 00-2.83-.66 5.35 5.35 0 00-2.28.48 5.17 5.17 0 00-1.8 1.4 6.46 6.46 0 00-1.18 2.22 10 10 0 00-.42 3 14.69 14.69 0 00.41 3.54 9 9 0 001.22 2.83 5.88 5.88 0 002 1.89 5.61 5.61 0 002.79.68zm28.45-10.88a7.35 7.35 0 00-.24-2 3.74 3.74 0 00-.68-1.4 2.91 2.91 0 00-1.08-.83 3.55 3.55 0 00-1.45-.27 3.82 3.82 0 00-1.17.21 8.5 8.5 0 00-1.35.57 12.85 12.85 0 00-1.39.84 14.76 14.76 0 00-1.31 1V22c0 .74.06 1.38.11 1.92s.1 1 .16 1.35a6.66 6.66 0 00.19.92v.07h-4.06v-.07a8.32 8.32 0 00.2-.92c.06-.36.12-.81.16-1.35s.07-1.18.1-1.92.05-1.62.05-2.61v-4.24c0-1 0-1.86-.05-2.61s-.06-1.38-.1-1.92-.1-1-.16-1.36a8.61 8.61 0 00-.2-.91v-.07h4.06v.07a5.21 5.21 0 00-.22 1c-.05.41-.11.94-.17 1.57.47-.37 1-.74 1.51-1.11a15.48 15.48 0 011.66-1 12.35 12.35 0 011.72-.69 6 6 0 011.7-.26 5.7 5.7 0 011.78.26 4.41 4.41 0 012.37 1.88 5.66 5.66 0 01.61 1.32c.48-.41 1-.81 1.57-1.22a16 16 0 011.76-1.1 10.87 10.87 0 011.84-.77 6 6 0 011.84-.3 5.32 5.32 0 012.33.47 4.41 4.41 0 011.56 1.25 4.9 4.9 0 01.88 1.77 7.61 7.61 0 01.27 2v8.61c0 .75.06 1.38.1 1.92s.11 1 .17 1.35a8.32 8.32 0 00.2.92v.07h-4.07v-.07c.07-.25.13-.55.2-.92s.12-.81.16-1.35.09-1.18.11-1.92 0-1.62 0-2.61v-5a5.18 5.18 0 00-.94-3.41 3.13 3.13 0 00-2.49-1.09 4 4 0 00-1.21.21 9.09 9.09 0 00-1.36.58 13.32 13.32 0 00-1.41.86 14.76 14.76 0 00-1.31 1 3 3 0 010 .43v8.99c0 .75.07 1.38.11 1.92a12 12 0 00.16 1.35 8.32 8.32 0 00.2.92v.07H292v-.07a6.66 6.66 0 00.19-.92c.06-.36.12-.81.16-1.35s.08-1.18.11-1.92 0-1.62 0-2.61zM324 26.6a10.74 10.74 0 01-3.66-.62 8.64 8.64 0 01-3-1.8 8.31 8.31 0 01-2-2.94 10.23 10.23 0 01-.73-4 9.87 9.87 0 01.67-3.68 9 9 0 011.84-2.94 8.46 8.46 0 012.75-1.95 8.25 8.25 0 013.4-.71 8.81 8.81 0 013.36.63 7.48 7.48 0 012.68 1.81 8.53 8.53 0 011.8 2.93 12.49 12.49 0 01.71 4h-13.74a13.67 13.67 0 00.57 3.31 8.09 8.09 0 001.35 2.5 5.49 5.49 0 002 1.61 6 6 0 002.65.56 7.89 7.89 0 001.92-.23 6.77 6.77 0 001.65-.66 6.94 6.94 0 001.32-1 6.44 6.44 0 001-1.24l.21.11-1.3 3.13a10.82 10.82 0 01-2.27.83 12.59 12.59 0 01-3.18.35zm-2.34-10.73h3.53c1.17 0 2.24 0 3.2-.06a11.41 11.41 0 00-.59-2.74 7.23 7.23 0 00-1.11-2.07 4.83 4.83 0 00-1.62-1.3 4.63 4.63 0 00-2.07-.45 4 4 0 00-1.87.44 4.37 4.37 0 00-1.49 1.3 7 7 0 00-1 2.06 11 11 0 00-.46 2.79h1.67zM360 25.24a3 3 0 001.05-.19 4.82 4.82 0 001-.53 8.14 8.14 0 00.93-.76 10.29 10.29 0 00.84-.91l.17.09-1.14 2.83c-.14.07-.31.16-.52.25a5 5 0 01-.74.29 8.25 8.25 0 01-1 .22 7.76 7.76 0 01-1.37.1 5 5 0 01-3.66-1.27 5.32 5.32 0 01-1.31-4V9.65l-3 .11V8.21h2.96c0-.83 0-1.57-.06-2.21s-.07-1.19-.11-1.67-.09-.87-.15-1.2-.12-.6-.18-.83h4.06v.07a7.49 7.49 0 00-.19.83c-.06.33-.11.73-.15 1.19s-.07 1-.1 1.67-.05 1.38-.07 2.22h2.18l1.93-.07 1.48-.09c.4 0 .67-.06.8-.08l-.32 1.79h-1.88c-.56 0-1.21 0-1.94-.05h-2.25v11.96a5.4 5.4 0 00.24 1.77 2.83 2.83 0 00.62 1.06 1.91 1.91 0 00.86.53 3.29 3.29 0 001.02.14zm9.59-8a9.09 9.09 0 012.77-6.62 9.21 9.21 0 013.05-1.95 10 10 0 013.78-.67 10.46 10.46 0 013.73.66 9.29 9.29 0 013.08 1.83 8.68 8.68 0 012 3 9.76 9.76 0 01.75 3.9 9.55 9.55 0 01-.64 3.48 8.59 8.59 0 01-1.86 3 9 9 0 01-3 2 10.35 10.35 0 01-4.11.77 10.6 10.6 0 01-3.71-.65 9.18 9.18 0 01-3-1.87 8.86 8.86 0 01-2.06-2.94 9.72 9.72 0 01-.78-3.94zm10 8.07a5.29 5.29 0 002.29-.49 5 5 0 001.8-1.42 6.69 6.69 0 001.18-2.27 10.06 10.06 0 00.42-3 14.62 14.62 0 00-.4-3.53 8.66 8.66 0 00-1.21-2.81 5.77 5.77 0 00-2-1.86 5.83 5.83 0 00-2.83-.66 5.43 5.43 0 00-2.29.48 5.17 5.17 0 00-1.8 1.4 6.45 6.45 0 00-1.18 2.24 9.94 9.94 0 00-.43 3 14.2 14.2 0 00.42 3.54 8.78 8.78 0 001.22 2.83 5.94 5.94 0 002 1.89 5.64 5.64 0 002.78.66zm37.47-.07a3 3 0 001.05-.19 4.82 4.82 0 001-.53 8.14 8.14 0 00.93-.76 10.29 10.29 0 00.84-.91l.17.09-1.14 2.83-.52.25a5.45 5.45 0 01-.74.29 8.69 8.69 0 01-1 .22 7.83 7.83 0 01-1.37.1 5.06 5.06 0 01-3.67-1.27 5.36 5.36 0 01-1.31-4V9.65l-3 .11V8.21h2.95c0-.83 0-1.57-.06-2.21s-.06-1.19-.1-1.67-.09-.8-.09-1.13-.12-.6-.18-.83V2.3h4.06v.07a7.49 7.49 0 00-.19.83c-.06.33-.11.73-.15 1.19s-.08 1-.1 1.67-.05 1.38-.07 2.22h2.17l1.94-.07 1.47-.09c.41 0 .68-.06.8-.08l-.31 1.79h-1.88c-.57 0-1.21 0-1.94-.05h-2.25v11.96a5.4 5.4 0 00.24 1.77 2.7 2.7 0 00.62 1.06 1.91 1.91 0 00.86.53 3.29 3.29 0 00.97.14zm23.15-10.81a5.18 5.18 0 00-.93-3.41 3.16 3.16 0 00-2.5-1.09 4 4 0 00-1.29.24 9.15 9.15 0 00-1.46.64 13.6 13.6 0 00-1.49.94 15.54 15.54 0 00-1.37 1.13v9.14c0 .75.06 1.38.1 1.92s.1 1 .16 1.35a8.57 8.57 0 00.19.92v.07h-4.02v-.07c.07-.25.14-.55.21-.92s.11-.81.15-1.35.08-1.18.11-1.92 0-1.62 0-2.61V4.26c0-.75-.07-1.38-.07-1.92s-.09-1-.15-1.36-.14-.66-.21-.91V0h4.06v.07a8.87 8.87 0 00-.19.91c-.06.37-.11.82-.16 1.36s-.08 1.18-.1 1.92 0 1.62 0 2.61v4.5c.47-.42 1-.83 1.56-1.25A16.14 16.14 0 01434.49 9a10.48 10.48 0 011.87-.79 6.12 6.12 0 011.86-.3 5.32 5.32 0 012.33.47 4.53 4.53 0 011.57 1.25 5.05 5.05 0 01.87 1.77 7.23 7.23 0 01.28 2v8.61c0 .74.06 1.38.11 1.92s.1 1 .15 1.35a8.32 8.32 0 00.2.92v.07h-4.03v-.07a8.32 8.32 0 00.2-.92c.06-.36.12-.81.16-1.35s.07-1.18.1-1.92 0-1.62 0-2.61zM460 26.6a10.64 10.64 0 01-3.65-.62 8.59 8.59 0 01-3-1.8 8.44 8.44 0 01-2-2.94 10.23 10.23 0 01-.73-4 9.87 9.87 0 01.67-3.68 9 9 0 011.84-2.94A8.5 8.5 0 01456 8.67a8.18 8.18 0 013.4-.71 8.8 8.8 0 013.35.63 7.48 7.48 0 012.68 1.81 8.53 8.53 0 011.8 2.93 12.22 12.22 0 01.71 4H454.2a13.67 13.67 0 00.57 3.31 8.07 8.07 0 001.28 2.52 5.52 5.52 0 002 1.61 6 6 0 002.64.56 8 8 0 001.93-.23 6.86 6.86 0 001.64-.66 6.94 6.94 0 001.32-1 6.08 6.08 0 001-1.24l.21.11-1.3 3.13a10.94 10.94 0 01-2.26.83 12.67 12.67 0 01-3.23.33zm-2.34-10.73h3.53c1.18 0 2.24 0 3.21-.06a11.9 11.9 0 00-.6-2.74 7 7 0 00-1.1-2.07 4.79 4.79 0 00-1.61-1.3 4.71 4.71 0 00-2.09-.45 4.06 4.06 0 00-1.87.44 4.37 4.37 0 00-1.49 1.3 7 7 0 00-1 2.06 10.58 10.58 0 00-.45 2.79h1.67zM.51 74.8v-2.61c0-.74-.11-1.39-.15-1.92a12.49 12.49 0 00-.16-1.36A8.08 8.08 0 000 68v-.07h4.06V68a5.1 5.1 0 00-.16.6c0 .22-.09.47-.12.75a12.58 12.58 0 012.29-1 9.08 9.08 0 012.79-.41 9.29 9.29 0 013.56.66 7.81 7.81 0 012.76 1.89 8.5 8.5 0 011.78 3 11.39 11.39 0 01.64 3.9 9.75 9.75 0 01-.6 3.44 8.51 8.51 0 01-1.83 3 8.76 8.76 0 01-3 2 10 10 0 01-4 .77 12.78 12.78 0 01-2.5-.22 14.17 14.17 0 01-2.07-.54v5.18c0 .74.06 1.38.11 1.92s.1 1 .16 1.35a8.57 8.57 0 00.19.92v.07H0v-.07a8.32 8.32 0 00.2-.92 12 12 0 00.16-1.35c0-.54.08-1.18.11-1.92s0-1.62 0-2.61zm7.73-5.55A5.28 5.28 0 007 69.4a7.45 7.45 0 00-1.23.42 6.51 6.51 0 00-1.16.68 5.89 5.89 0 00-1 .94c0 .45 0 1-.05 1.52s0 1.17 0 1.84V84a5 5 0 00.79.49 6.55 6.55 0 001 .42 8 8 0 001.25.29 10.39 10.39 0 001.54.1 6 6 0 002.48-.49 5 5 0 001.87-1.42 6.69 6.69 0 001.18-2.27 10.41 10.41 0 00.41-3 18.6 18.6 0 00-.32-3.53 8.72 8.72 0 00-1-2.81A5.18 5.18 0 0011 69.91a5.21 5.21 0 00-2.76-.66zm16.89 5.9v-2.61c0-.75-.13-1.38-.13-1.92s-.09-1-.15-1.36-.14-.66-.21-.91v-.07h4.06v.07a6.19 6.19 0 00-.23 1 12.15 12.15 0 00-.15 1.5c.43-.36.88-.72 1.35-1.07a11.44 11.44 0 011.44-.94 9 9 0 011.51-.65 5.09 5.09 0 011.53-.24A6.67 6.67 0 0135 68a4.72 4.72 0 01.63.12l.51.18.44.19-.86 3.35-.3-.07a2.32 2.32 0 00-.79-1.24A2.46 2.46 0 0033 70a3.63 3.63 0 00-1.14.19 6.8 6.8 0 00-1.22.54 12.1 12.1 0 00-1.23.79c-.41.3-.81.61-1.19.94v9.52c0 .75.06 1.38.1 1.92s.1 1 .16 1.35a8.57 8.57 0 00.19.92v.07h-4.05v-.07c.07-.25.14-.55.21-.92s.11-.81.15-1.35.08-1.18.11-1.92 0-1.62 0-2.61zm16.24 2.09a9.16 9.16 0 01.74-3.68 9 9 0 012-2.94 9.21 9.21 0 013-2A10 10 0 0151 68a10.55 10.55 0 013.74.66 9.39 9.39 0 013 1.87 8.79 8.79 0 012 3 10.23 10.23 0 01.12 7.38 8.47 8.47 0 01-1.87 3 9 9 0 01-3 2 10.34 10.34 0 01-4.1.77 10.56 10.56 0 01-3.66-.68 9.08 9.08 0 01-3-1.87 8.72 8.72 0 01-2.06-2.94 9.56 9.56 0 01-.8-3.95zm10 8.07a5.26 5.26 0 002.29-.49 5.17 5.17 0 001.81-1.42 6.86 6.86 0 001.17-2.27 10.05 10.05 0 00.43-3 14.61 14.61 0 00-.41-3.53 8.87 8.87 0 00-1.2-2.81 5.89 5.89 0 00-2-1.86 5.8 5.8 0 00-2.83-.66 5.35 5.35 0 00-2.28.48 5.17 5.17 0 00-1.8 1.4 6.46 6.46 0 00-1.19 2.24 10 10 0 00-.42 3 14.69 14.69 0 00.41 3.54 9 9 0 001.22 2.83 5.88 5.88 0 002 1.89 5.61 5.61 0 002.77.66zm23.22-24.2a3 3 0 00-.94.16 2.14 2.14 0 00-.92.58A3.17 3.17 0 0072 63a5.49 5.49 0 00-.29 1.93v3.34h1.75l1.54-.11 1.09-.08.63-.08-.31 1.79-1.41-.05h-3.29v9.76c0 1 0 1.86.05 2.61s.06 1.38.1 1.92.1 1 .16 1.35.13.67.2.92v.07h-4.03v-.07a8.32 8.32 0 00.2-.92q.09-.54.15-1.35c0-.54.09-1.18.11-1.92s0-1.62 0-2.61v-9.85l-3 .11v-1.55l1.3.05h1.66v-3a6.79 6.79 0 01.39-2.4 4.84 4.84 0 011.1-1.76 4.46 4.46 0 011.69-1.08 6 6 0 012.21-.3 7.64 7.64 0 011.21.09 9.87 9.87 0 011 .21 7.45 7.45 0 01.79.25l.58.24.68 3-.21.11c-.19-.28-.39-.57-.62-.87a5.29 5.29 0 00-.75-.82 4.21 4.21 0 00-.94-.61 3 3 0 00-1.15-.21zm7.13 16.13a9.1 9.1 0 015.82-8.57 10 10 0 013.78-.67 10.51 10.51 0 013.74.66 9.39 9.39 0 013 1.87 8.82 8.82 0 012 3 9.93 9.93 0 01.74 3.9 9.75 9.75 0 01-.63 3.48 8.59 8.59 0 01-1.86 3 9 9 0 01-3 2 10.34 10.34 0 01-4.1.77 10.56 10.56 0 01-3.63-.68 9.08 9.08 0 01-3-1.87 8.72 8.72 0 01-2.06-2.94 9.72 9.72 0 01-.8-3.95zm10 8.07a5.33 5.33 0 002.3-.49 5.23 5.23 0 001.8-1.42A6.86 6.86 0 0097 81.13a9.75 9.75 0 00.43-3 14.61 14.61 0 00-.43-3.55 8.87 8.87 0 00-1.2-2.81 5.51 5.51 0 00-4.84-2.52 5.37 5.37 0 00-2.29.48 5.17 5.17 0 00-1.8 1.4 6.46 6.46 0 00-1.19 2.24 10 10 0 00-.42 3 14.69 14.69 0 00.41 3.54 9 9 0 001.23 2.83 5.76 5.76 0 002 1.89 5.61 5.61 0 002.79.68zm19.67-5.18a5.2 5.2 0 00.93 3.41 3.09 3.09 0 002.48 1.09 4 4 0 001.27-.24 10.45 10.45 0 001.45-.63 12.61 12.61 0 001.49-.93 11.81 11.81 0 001.38-1.12v-6.56c0-1 0-1.86-.05-2.61s-.06-1.38-.1-1.92a12.49 12.49 0 00-.16-1.36 8.61 8.61 0 00-.2-.91v-.07H124v.07a6.81 6.81 0 00-.19.91c-.06.37-.12.82-.16 1.36s-.09 1.18-.11 1.92 0 1.62 0 2.61v6.87c0 .74.06 1.38.11 1.92s.1 1 .16 1.35a6.66 6.66 0 00.19.92v.07h-4.06v-.07c.07-.29.14-.67.22-1.13a16.18 16.18 0 00.16-1.79c-.48.41-1 .82-1.55 1.21a15.71 15.71 0 01-1.77 1.08 11.07 11.07 0 01-1.83.76 6.12 6.12 0 01-1.82.29 5.32 5.32 0 01-2.33-.47 4.52 4.52 0 01-1.56-1.25 4.86 4.86 0 01-.88-1.76 7.62 7.62 0 01-.27-2v-8.61c0-.75-.06-1.38-.1-1.92s-.1-1-.16-1.36a8.61 8.61 0 00-.2-.91v-.07h4.06v.07a8.87 8.87 0 00-.19.91c-.06.37-.11.82-.16 1.36s-.08 1.18-.1 1.92 0 1.62 0 2.61zm33.19-5.7a5.18 5.18 0 00-.93-3.41 3.16 3.16 0 00-2.5-1.09 4 4 0 00-1.27.24 10.35 10.35 0 00-1.44.63 14.79 14.79 0 00-1.47.92 14.24 14.24 0 00-1.39 1.13v9.17c0 .75.06 1.38.1 1.92s.1 1 .16 1.35a8.57 8.57 0 00.19.92v.07H132v-.07c.07-.25.14-.55.21-.92s.11-.81.15-1.35.08-1.18.11-1.92 0-1.62 0-2.61v-6.87c0-.75-.06-1.38-.11-1.92s-.09-1-.15-1.36-.14-.66-.21-.91v-.07h4v.07a6.92 6.92 0 00-.22 1.12c-.05.45-.1 1-.16 1.76.48-.4 1-.79 1.55-1.19a15 15 0 011.76-1.04 11 11 0 011.83-.75 5.92 5.92 0 011.83-.29 5.32 5.32 0 012.33.47 4.41 4.41 0 011.56 1.25 4.9 4.9 0 01.88 1.77 7.62 7.62 0 01.28 2v8.61c0 .74.06 1.38.11 1.92s.1 1 .15 1.35a8.32 8.32 0 00.2.92v.07h-4.06v-.07a8.32 8.32 0 00.2-.92c.06-.36.12-.81.16-1.35s.07-1.18.1-1.92.05-1.62.05-2.61zM164.54 68a7.79 7.79 0 011.44.13 9.68 9.68 0 011.41.35 8 8 0 011.3.56 5.88 5.88 0 011.11.76v-5.54c0-.75 0-1.38-.1-1.92s-.1-1-.16-1.36a8.87 8.87 0 00-.19-.91V60h4.06v.07c-.07.25-.14.55-.21.91s-.11.82-.15 1.36-.08 1.18-.11 1.92 0 1.62 0 2.61v15.15c0 .75.06 1.38.11 1.92s.09 1 .15 1.35.14.67.21.92v.07h-3.89v-.07a1.49 1.49 0 00.09-.41c0-.19.05-.41.09-.68a11.36 11.36 0 01-2.25 1 10 10 0 01-3.15.46 10.71 10.71 0 01-3.8-.65 8.32 8.32 0 01-2.91-1.87 8.23 8.23 0 01-1.85-2.94 11.11 11.11 0 01-.65-3.9 9.68 9.68 0 01.7-3.68 8.89 8.89 0 012-2.94 9 9 0 013-2 10.05 10.05 0 013.75-.6zm5.26 4.89a5.57 5.57 0 00-2-2.73 5.24 5.24 0 00-2.95-.87 6.55 6.55 0 00-2.53.48 5.58 5.58 0 00-2 1.4 6.46 6.46 0 00-1.32 2.2 9.06 9.06 0 00-.46 3 14.2 14.2 0 00.42 3.54 8.81 8.81 0 001.24 2.83 5.91 5.91 0 002 1.89 5.65 5.65 0 002.79.67 5.93 5.93 0 001.55-.19 7.08 7.08 0 001.32-.49A5.9 5.9 0 00169 84a5.31 5.31 0 00.76-.71c0-.51 0-1.08.05-1.73s0-1.35 0-2.12zm38.33-2.99l4.69 11.81 3.92-9.79.28-.71c.11-.27.2-.54.28-.81s.16-.54.22-.79a3.65 3.65 0 00.08-.68 2 2 0 000-.38 1 1 0 00-.07-.2v-.07h3.16v.07a6.41 6.41 0 00-.76 1.1 19.74 19.74 0 00-1.07 2.22l-6.24 14.86h-1l-4.53-11-4.54 11h-1l-5.77-14a22.165 22.165 0 00-1.36-2.76l-.57-.94c-.16-.25-.28-.41-.33-.48v-.07h4.67v.07a1.2 1.2 0 000 .26v.32a5 5 0 00.17 1.2 13.71 13.71 0 00.55 1.65l3.92 9.93 4.73-11.81zm17.29 7.34a9.16 9.16 0 01.74-3.68 9 9 0 012-2.94 9.21 9.21 0 013.05-2A10 10 0 01235 68a10.55 10.55 0 013.74.66 9.24 9.24 0 013 1.87 8.54 8.54 0 012 3 10.23 10.23 0 01.12 7.38 8.77 8.77 0 01-1.87 3 9 9 0 01-3 2 10.35 10.35 0 01-4.11.77 10.55 10.55 0 01-3.7-.65 9.22 9.22 0 01-3.05-1.87 8.83 8.83 0 01-2-2.94 9.56 9.56 0 01-.71-3.98zm10 8.07a5.26 5.26 0 002.29-.49 5 5 0 001.8-1.42 6.69 6.69 0 001.18-2.27 10.06 10.06 0 00.42-3 14.62 14.62 0 00-.4-3.53 8.87 8.87 0 00-1.2-2.81 5.55 5.55 0 00-4.85-2.52 5.35 5.35 0 00-2.28.48 5.17 5.17 0 00-1.8 1.4 6.46 6.46 0 00-1.19 2.24 10 10 0 00-.42 3 14.69 14.69 0 00.41 3.54 9 9 0 001.22 2.83 5.88 5.88 0 002 1.89 5.61 5.61 0 002.79.66zm16.72-10.16v-2.61c0-.75-.06-1.38-.1-1.92s-.1-1-.16-1.36a8.61 8.61 0 00-.2-.91v-.07h4.06v.07a6.11 6.11 0 00-.24 1q-.09.58-.15 1.5c.44-.36.89-.72 1.36-1.07a10.16 10.16 0 011.44-.94 9 9 0 011.5-.65 5.1 5.1 0 011.54-.24 6.61 6.61 0 01.82 0 4.89 4.89 0 01.64.12l.51.18.44.19-.87 3.35-.29-.07a2.34 2.34 0 00-.8-1.24A2.44 2.44 0 00260 70a3.68 3.68 0 00-1.14.19 6.72 6.72 0 00-1.21.54 12.1 12.1 0 00-1.23.79c-.41.3-.81.61-1.2.94v9.52c0 .74.06 1.38.11 1.92s.1 1 .16 1.35a6.66 6.66 0 00.19.92v.07h-4.06v-.07a8.32 8.32 0 00.2-.92c.06-.36.12-.81.16-1.35s.07-1.18.1-1.92 0-1.62 0-2.61zM270 66.87v-2.61c0-.75-.06-1.38-.1-1.92s-.1-1-.16-1.36a8.61 8.61 0 00-.2-.91V60h4.06v.07a8.87 8.87 0 00-.19.91c-.06.37-.11.82-.16 1.36s-.08 1.18-.11 1.92 0 1.62 0 2.61v15.15c0 .74.06 1.38.11 1.92s.1 1 .16 1.35a8.57 8.57 0 00.19.92v.07h-4.06v-.07a8.32 8.32 0 00.2-.92c.06-.36.12-.81.16-1.35s.07-1.18.1-1.92 0-1.62 0-2.61zM290.15 68a7.79 7.79 0 011.44.13 9.68 9.68 0 011.41.35 8 8 0 011.3.56 5.88 5.88 0 011.11.76v-5.54c0-.75-.06-1.38-.1-1.92s-.1-1-.16-1.36a8.87 8.87 0 00-.19-.91V60H299v.07c-.07.25-.14.55-.21.91s-.11.82-.15 1.36-.08 1.18-.11 1.92 0 1.62 0 2.61v15.15c0 .75.06 1.38.11 1.92s.09 1 .15 1.35.14.67.21.92v.07h-3.89v-.07a1.49 1.49 0 00.09-.41c0-.19.05-.41.09-.68a11.36 11.36 0 01-2.25 1 10 10 0 01-3.15.46 10.71 10.71 0 01-3.8-.65 8.32 8.32 0 01-2.91-1.87 8.23 8.23 0 01-1.85-2.94 11.11 11.11 0 01-.65-3.9 9.5 9.5 0 01.7-3.68 8.89 8.89 0 012-2.94 9 9 0 013-2 10.05 10.05 0 013.77-.6zm5.26 4.89a5.53 5.53 0 00-2-2.73 5.18 5.18 0 00-2.94-.87 6.55 6.55 0 00-2.53.48 5.49 5.49 0 00-2 1.4 6.46 6.46 0 00-1.29 2.24 9.06 9.06 0 00-.46 3 14.2 14.2 0 00.42 3.54 8.81 8.81 0 001.24 2.83 5.91 5.91 0 002 1.89 5.65 5.65 0 002.79.67 5.93 5.93 0 001.55-.19 7.08 7.08 0 001.32-.49 5.9 5.9 0 001.05-.66 5.31 5.31 0 00.76-.71c0-.51 0-1.08.05-1.73s0-1.35 0-2.12zm24.99 4.35a9.11 9.11 0 015.81-8.57A10.12 10.12 0 01330 68a10.51 10.51 0 013.74.66 9.29 9.29 0 013 1.87 8.68 8.68 0 012.05 3 10.3 10.3 0 01.11 7.38 8.59 8.59 0 01-1.86 3 9 9 0 01-3 2 10.27 10.27 0 01-4.1.77 10.6 10.6 0 01-3.71-.65 9.18 9.18 0 01-3-1.87 8.86 8.86 0 01-2.06-2.94 9.72 9.72 0 01-.77-3.98zm10 8.07a5.3 5.3 0 002.3-.49 5 5 0 001.8-1.42 6.87 6.87 0 001.18-2.27 10.06 10.06 0 00.42-3 14.61 14.61 0 00-.41-3.53 8.87 8.87 0 00-1.2-2.81 5.77 5.77 0 00-2-1.86 5.83 5.83 0 00-2.83-.66 5.4 5.4 0 00-2.29.48 5.17 5.17 0 00-1.8 1.4 6.63 6.63 0 00-1.19 2.24 10 10 0 00-.42 3 14.2 14.2 0 00.42 3.54 8.78 8.78 0 001.22 2.83 5.94 5.94 0 002 1.89 5.63 5.63 0 002.76.66zm23.22-24.2a3 3 0 00-.94.16 2.11 2.11 0 00-.93.58 3.31 3.31 0 00-.7 1.16 5.51 5.51 0 00-.28 1.93v3.34h1.75l1.47-.07 1.09-.08.63-.08-.32 1.79-1.33-.05h-3.29v12.37c0 .75.07 1.38.11 1.92a12 12 0 00.16 1.35 8.32 8.32 0 00.2.92v.07h-4.06v-.07a8.57 8.57 0 00.19-.92c.06-.36.11-.81.16-1.35s.08-1.18.1-1.92 0-1.62 0-2.61v-9.9l-2.95.11v-1.55l1.3.05h1.65v-3a6.56 6.56 0 01.4-2.4 5 5 0 011.09-1.76 4.54 4.54 0 011.69-1.08 6 6 0 012.16-.37 7.77 7.77 0 011.22.09c.37.06.71.13 1 .21a7.45 7.45 0 01.79.25l.57.24.69 3-.22.11c-.18-.28-.39-.57-.61-.87a5.36 5.36 0 00-.76-.82 4 4 0 00-.94-.61 2.92 2.92 0 00-1.09-.14zM380 82.64a15.57 15.57 0 01-.48 4.11 11.13 11.13 0 01-1.35 3.09 11.57 11.57 0 01-2.06 2.4c-.79.7-1.65 1.39-2.59 2.07l-.32-.44a10.35 10.35 0 001.93-2.3 11 11 0 001.08-2.57 14.7 14.7 0 00.48-2.93c.07-1 .1-2.2.1-3.44V65.39c0-.74-.06-1.39-.11-1.93s-.1-1-.16-1.36-.13-.67-.2-.92v-.07h4.21v.07c-.07.25-.13.55-.2.92s-.12.81-.17 1.36-.08 1.19-.1 1.93S380 67 380 68zm7.78-1.55a4.84 4.84 0 01.57-2.4 5.62 5.62 0 011.52-1.69 8 8 0 012.13-1.22 16.38 16.38 0 012.51-.71 23.61 23.61 0 012.57-.35c.85-.06 1.62-.1 2.32-.11v-.9a6 6 0 00-.3-2 3.74 3.74 0 00-.84-1.4 3.49 3.49 0 00-1.31-.83 5 5 0 00-1.68-.27 7.45 7.45 0 00-1.25.11 6.55 6.55 0 00-1.27.35 8.32 8.32 0 00-1.39.67 12.94 12.94 0 00-1.57 1.07l-.18-.11 1.2-2.48a9.33 9.33 0 012.28-.7 11.37 11.37 0 011.19-.15h1.27a9.82 9.82 0 013.16.45 5.71 5.71 0 012.14 1.23 4.61 4.61 0 011.22 1.82 6.41 6.41 0 01.39 2.25v8.34c0 .75.07 1.38.11 1.92a12 12 0 00.16 1.35 8.32 8.32 0 00.2.92v.07h-3.88v-.07a5 5 0 00.13-.63c0-.24.05-.52.08-.85a9.84 9.84 0 01-.87.65 6.55 6.55 0 01-1.15.61 7.64 7.64 0 01-1.42.44 8.26 8.26 0 01-1.71.17 7 7 0 01-4.73-1.44 5 5 0 01-1.6-4.11zM399.43 76a30.17 30.17 0 00-3.07.18 8.32 8.32 0 00-2.61.7 4.88 4.88 0 00-1.46 7.26 3.81 3.81 0 002.87 1.09 4.69 4.69 0 001.54-.23 5.41 5.41 0 001.23-.6 4.11 4.11 0 00.9-.79 3.86 3.86 0 00.57-.83V76zm11.97-1.2v-2.61c0-.74-.07-1.39-.11-1.92a12.49 12.49 0 00-.16-1.36 8.08 8.08 0 00-.2-.91v-.07H415V68a5.1 5.1 0 00-.16.6 6.56 6.56 0 00-.12.75 12.28 12.28 0 012.29-1 9.08 9.08 0 012.79-.41 9.29 9.29 0 013.56.66 7.81 7.81 0 012.76 1.89 8.5 8.5 0 011.78 3 11.4 11.4 0 01.63 3.9 9.74 9.74 0 01-.62 3.48 8.51 8.51 0 01-1.83 3 8.76 8.76 0 01-3 2 10 10 0 01-4 .77 12.78 12.78 0 01-2.5-.22 14.17 14.17 0 01-2.07-.54v5.18c0 .74.06 1.38.11 1.92s.1 1 .16 1.35a6.66 6.66 0 00.19.92v.07h-4.06v-.07a8.32 8.32 0 00.2-.92 12 12 0 00.16-1.35c0-.54.08-1.18.11-1.92s0-1.62 0-2.61zm7.73-5.55a5.22 5.22 0 00-1.22.15 7.45 7.45 0 00-1.23.42 6.51 6.51 0 00-1.16.68 5.89 5.89 0 00-1 .94c0 .45 0 1-.06 1.52s0 1.17 0 1.84V84a5 5 0 00.79.49 6.55 6.55 0 001 .42 8 8 0 001.25.29 10.3 10.3 0 001.54.1 6 6 0 002.48-.49 5.12 5.12 0 001.87-1.42 6.69 6.69 0 001.18-2.27 10.41 10.41 0 00.41-3 18.6 18.6 0 00-.32-3.53 8.72 8.72 0 00-1-2.81 4.84 4.84 0 00-4.51-2.52zm15.49 11.84a4.84 4.84 0 01.57-2.4 5.62 5.62 0 011.52-1.69 8 8 0 012.16-1.17 16.38 16.38 0 012.51-.71 23.61 23.61 0 012.57-.35c.84-.06 1.62-.1 2.32-.11v-.9a6 6 0 00-.3-2 3.74 3.74 0 00-.84-1.4 3.57 3.57 0 00-1.31-.83 5 5 0 00-1.68-.27 7.45 7.45 0 00-1.25.11 6.55 6.55 0 00-1.27.35 8 8 0 00-1.39.67 12.94 12.94 0 00-1.57 1.07l-.18-.11 1.19-2.48a11.6 11.6 0 011.15-.43 10.52 10.52 0 011.14-.27 11.37 11.37 0 011.19-.15h1.27a9.82 9.82 0 013.16.45 5.79 5.79 0 012.14 1.23 4.72 4.72 0 011.22 1.82 6.41 6.41 0 01.39 2.25v8.34c0 .75.07 1.38.11 1.92a12 12 0 00.16 1.35 8.32 8.32 0 00.2.92v.07H446v-.07a3.66 3.66 0 00.14-.63c0-.24.05-.52.08-.85a8.77 8.77 0 01-.88.65 6.11 6.11 0 01-1.14.61 7.89 7.89 0 01-1.42.44 8.29 8.29 0 01-1.72.17 7 7 0 01-4.72-1.44 5 5 0 01-1.72-4.16zM446.27 76a30.37 30.37 0 00-3.08.18 8.47 8.47 0 00-2.61.7 4.89 4.89 0 00-1.45 7.26 3.81 3.81 0 002.87 1.07 4.74 4.74 0 001.54-.24 5.41 5.41 0 001.23-.6 4.36 4.36 0 00.9-.79 3.86 3.86 0 00.57-.83V76zm24.06-1.57a5.18 5.18 0 00-.93-3.43 3.13 3.13 0 00-2.5-1.09 4 4 0 00-1.26.24 9.86 9.86 0 00-1.44.63 14.91 14.91 0 00-1.48.92 17.1 17.1 0 00-1.39 1.13V82c0 .74.06 1.38.11 1.92s.1 1 .16 1.35a6.66 6.66 0 00.19.92v.07h-4.06v-.07a8.32 8.32 0 00.2-.92c.06-.36.12-.81.16-1.35s.07-1.18.1-1.92.05-1.62.05-2.61v-4.24c0-1 0-1.86-.05-2.61s-.06-1.38-.1-1.92-.1-1-.16-1.36a8.61 8.61 0 00-.2-.91v-.07h4.06v.07a6 6 0 00-.22 1.12c-.05.45-.11 1-.17 1.76.48-.4 1-.79 1.56-1.19a13.43 13.43 0 011.73-1.04 11 11 0 011.83-.75 5.92 5.92 0 011.83-.29 5.24 5.24 0 012.32.47 4.53 4.53 0 011.57 1.25 5.07 5.07 0 01.88 1.77 7.61 7.61 0 01.27 2v8.61c0 .75.05 1.38.1 1.92s.1 1 .16 1.35a8.57 8.57 0 00.19.92v.07h-4.06v-.07a8.32 8.32 0 00.2-.92 12 12 0 00.16-1.35c0-.54.08-1.18.11-1.92s0-1.62 0-2.61zm19.83 12.17a10.74 10.74 0 01-3.66-.6 8.26 8.26 0 01-5-4.74 10.41 10.41 0 01-.73-4 10.07 10.07 0 01.67-3.68 9.07 9.07 0 011.85-2.94 8.36 8.36 0 012.75-2 8.22 8.22 0 013.4-.71 8.81 8.81 0 013.36.63 7.57 7.57 0 012.68 1.81 8.67 8.67 0 011.79 2.93 12 12 0 01.71 4h-13.74a13.67 13.67 0 00.57 3.31 8.07 8.07 0 001.28 2.52 5.52 5.52 0 002 1.61 6 6 0 002.65.56 7.89 7.89 0 001.92-.23 7.11 7.11 0 001.65-.66 6.57 6.57 0 001.31-1 6.13 6.13 0 001-1.24l.21.11-1.3 3.13a10.82 10.82 0 01-2.27.83 12.59 12.59 0 01-3.1.36zm-2.34-10.73h3.52q1.77 0 3.21-.06a10.94 10.94 0 00-.6-2.74 7 7 0 00-1.12-2.07 4.93 4.93 0 00-1.62-1.3 4.68 4.68 0 00-2.06-.45 4.06 4.06 0 00-1.87.44A4.34 4.34 0 00485.8 71a7 7 0 00-1 2.06 11 11 0 00-.46 2.79h1.67zm25.52-4.06h-.25A3.7 3.7 0 00511 69.5a3.61 3.61 0 00-1.4-.25 3.47 3.47 0 00-1 .15 2.65 2.65 0 00-.84.47 2.27 2.27 0 00-.57.76 2.45 2.45 0 00-.22 1.08 2.84 2.84 0 00.54 1.64 9.91 9.91 0 001.35 1.55c.53.51 1.12 1 1.74 1.54a19.3 19.3 0 011.75 1.61 9.41 9.41 0 011.35 1.8 4.14 4.14 0 01.53 2.07 5 5 0 01-.31 1.75 4.27 4.27 0 01-1 1.52 4.73 4.73 0 01-1.69 1.08 6.45 6.45 0 01-2.45.41 7.82 7.82 0 01-1.57-.15 9.21 9.21 0 01-1.34-.4 7.36 7.36 0 01-1.09-.53c-.32-.19-.6-.38-.85-.55l.18-3.34h.28a6 6 0 00.53 1.51 4 4 0 00.87 1.17 4 4 0 001.18.76 3.87 3.87 0 001.46.27 2.9 2.9 0 002.07-.72 2.46 2.46 0 00.76-1.88 3 3 0 00-.52-1.72 7.83 7.83 0 00-1.31-1.5c-.52-.48-1.09-1-1.69-1.44a16.63 16.63 0 01-1.7-1.54 7.84 7.84 0 01-1.31-1.79 4.93 4.93 0 01-.14-4.1 4.26 4.26 0 011-1.46 5 5 0 011.61-.94 6.06 6.06 0 012-.33 8.09 8.09 0 012.44.31 8.76 8.76 0 011.48.58zm16.27 14.79A10.64 10.64 0 01526 86a8.59 8.59 0 01-3-1.8 8.44 8.44 0 01-2-2.94 10.23 10.23 0 01-.73-4 9.87 9.87 0 01.67-3.68 9 9 0 011.84-2.94 8.5 8.5 0 012.76-2 8.18 8.18 0 013.4-.71 8.8 8.8 0 013.35.63A7.48 7.48 0 01535 70.4a8.53 8.53 0 011.8 2.93 12.22 12.22 0 01.71 4h-13.74a13.67 13.67 0 00.57 3.31 8.07 8.07 0 001.28 2.52 5.52 5.52 0 002 1.61 6 6 0 002.64.56 8 8 0 001.93-.23 6.86 6.86 0 001.64-.66 6.94 6.94 0 001.32-1 6.08 6.08 0 001-1.24l.21.11-1.36 3.11a10.94 10.94 0 01-2.26.83 12.67 12.67 0 01-3.13.35zm-2.34-10.73h3.53c1.18 0 2.24 0 3.21-.06a11.9 11.9 0 00-.6-2.74 7 7 0 00-1.13-2.07 4.79 4.79 0 00-1.61-1.3 4.71 4.71 0 00-2.06-.45 4.06 4.06 0 00-1.87.44 4.37 4.37 0 00-1.49 1.3 7 7 0 00-1 2.06 10.58 10.58 0 00-.45 2.79h1.67zm38.34 9.37a2.94 2.94 0 001-.19 4.58 4.58 0 001-.53 7.36 7.36 0 00.93-.76 10.29 10.29 0 00.84-.91l.18.09-1.15 2.83c-.14.07-.31.16-.52.25a5.28 5.28 0 01-.73.29 9.18 9.18 0 01-1 .22 8 8 0 01-1.38.1 5 5 0 01-3.66-1.27 5.36 5.36 0 01-1.31-4V69.65l-3 .11v-1.55l1.3.05h1.65c0-.83 0-1.57-.06-2.21s-.07-1.19-.11-1.67-.09-.87-.15-1.2-.11-.6-.17-.83v-.05h4.06v.07a7.29 7.29 0 00-.2.83c-.05.33-.1.73-.15 1.19s-.07 1-.1 1.67-.05 1.38-.06 2.22h2.17l1.93-.07 1.48-.09c.4 0 .67-.06.8-.08l-.2 1.75-1.88-.05h-4.18v12a5.71 5.71 0 00.23 1.77 2.83 2.83 0 00.62 1.06 1.91 1.91 0 00.86.53 3.36 3.36 0 00.96.14zm18.92 1.36a10.64 10.64 0 01-3.65-.62 8.46 8.46 0 01-3-1.8 8.33 8.33 0 01-2-2.94 10.23 10.23 0 01-.73-4 9.87 9.87 0 01.67-3.68 8.9 8.9 0 011.85-2.94 8.36 8.36 0 012.75-2 8.18 8.18 0 013.4-.71 8.89 8.89 0 013.36.63 7.44 7.44 0 012.67 1.81 8.53 8.53 0 011.8 2.93 12 12 0 01.71 4h-13.74a13.67 13.67 0 00.57 3.31 8.07 8.07 0 001.28 2.52 5.52 5.52 0 002 1.61 6 6 0 002.64.56 8 8 0 001.93-.23 6.86 6.86 0 001.64-.66 6.94 6.94 0 001.32-1 5.75 5.75 0 001-1.24l.22.11-1.22 3.16a10.72 10.72 0 01-2.26.83 12.67 12.67 0 01-3.21.35zm-2.33-10.73h3.52q1.77 0 3.21-.06a11.9 11.9 0 00-.6-2.74 7.22 7.22 0 00-1.12-2.07 4.93 4.93 0 00-1.62-1.3 4.68 4.68 0 00-2.06-.45 4.06 4.06 0 00-1.87.44 4.46 4.46 0 00-1.49 1.3 7 7 0 00-1 2.06 11 11 0 00-.45 2.79h1.67zm16.16 5.22a4.84 4.84 0 01.57-2.4 5.53 5.53 0 011.53-1.69 8 8 0 012.16-1.17 16.06 16.06 0 012.51-.71 23.28 23.28 0 012.57-.35 41 41 0 012.32-.11v-.9a6 6 0 00-.3-2 3.74 3.74 0 00-.84-1.4 3.61 3.61 0 00-1.32-.83 5 5 0 00-1.67-.27 7.36 7.36 0 00-1.25.11 6.64 6.64 0 00-1.28.35 8.32 8.32 0 00-1.39.67 13.77 13.77 0 00-1.57 1.07l-.17-.11 1.19-2.48c.39-.17.77-.31 1.14-.43a11.38 11.38 0 012.33-.42h1.28a9.71 9.71 0 013.15.45 5.76 5.76 0 012.15 1.23 4.83 4.83 0 011.22 1.82 6.41 6.41 0 01.39 2.25v8.34c0 .75.06 1.38.1 1.92s.1 1 .16 1.35.14.67.21.92v.07h-3.85v-.07a3.68 3.68 0 00.13-.63c0-.24.06-.52.08-.85a7.57 7.57 0 01-.87.65 6.11 6.11 0 01-1.14.61 7.75 7.75 0 01-1.43.44 8.26 8.26 0 01-1.71.17 7 7 0 01-4.76-1.53 5.07 5.07 0 01-1.64-4.07zM610 76a30.37 30.37 0 00-3.08.18 8.47 8.47 0 00-2.61.7 4.38 4.38 0 00-1.81 1.5 4.48 4.48 0 00-.68 2.59 4.43 4.43 0 001 3.17 3.8 3.8 0 002.87 1.09 4.63 4.63 0 001.53-.24 5 5 0 001.23-.6 4.42 4.42 0 00.91-.79 3.79 3.79 0 00.56-.83V76zm11.07 8.73a1.8 1.8 0 01.15-.73 2 2 0 01.4-.59 1.94 1.94 0 01.6-.41 1.8 1.8 0 01.73-.15 1.86 1.86 0 01.75.15 1.94 1.94 0 01.6.41 1.87 1.87 0 01.4.59 1.8 1.8 0 01.15.73 1.86 1.86 0 01-1.9 1.9 1.8 1.8 0 01-.73-.15 1.91 1.91 0 01-.6-.4 2.1 2.1 0 01-.4-.6 1.86 1.86 0 01-.15-.75z" fill="#fff" data-name="レイヤー 1"/></g></svg>