<svg xmlns="http://www.w3.org/2000/svg" viewBox="0 0 440.43 47.69"><g data-name="レイヤー 2"><path d="M16.22 27.72c4.37-2.24 9.16-4 14.41-4 6 0 10.24 3.75 10.24 9.52 0 5.3-4 9.62-10.55 9.62a11.9 11.9 0 01-9.78-5.2l.83-.83a12.78 12.78 0 008.22 3.12c5.15 0 8-3.28 8-7.39 0-3.9-2.5-6.91-8.06-6.91-4.32 0-9.16 2.18-13.26 4.52.2 7.07.78 9 .78 10.87 0 2.34-1.41 4.73-3 4.73-1.19 0-1.3-1.61-3-3.12a62.5 62.5 0 00-5.57-4.11C4 40 3.33 40.41 2.6 40.41a2.53 2.53 0 01-1.66-.89A2.83 2.83 0 010 37.39c0-1.2.31-1.61 1.46-1.51a3.84 3.84 0 003-.57c1.92-1.14 6-4.32 9.46-6.29V19a27.62 27.62 0 01-5.72.94c-2.54 0-4.73-.47-6.86-5.2l.84-.74c2.66 2.6 3.44 3.12 6.19 3a26 26 0 005.51-.94c0-3.85.06-7.33 0-8.58s-.2-1.35-1-1.61a10 10 0 00-3.27-.37l-.16-1a7.83 7.83 0 013.64-1c2 0 5.31 1.66 5.31 2.91s-.78 2-1.15 3.69a35.51 35.51 0 00-.62 5.1c4.05-1.51 5.77-3.23 6.86-3.28s2.29.21 2.34 1.35c0 .89-.57 1.51-1.66 2a56.86 56.86 0 01-7.7 2.86c-.15 2.34-.21 4.84-.21 7.23zm-2.34 3.9a62.71 62.71 0 00-7.33 6c1.93 1 4.27 2.18 5.88 2.91 1.09.47 1.45.05 1.45-.94zm15.66-21.53a17.34 17.34 0 016.91-.26c4 .78 7.75 4.21 7.91 7.49 0 1-.31 1.92-1.3 2-1.2.26-1.67-1.09-3.33-.78a19.86 19.86 0 00-4 1.56l-.58-.93a39.18 39.18 0 004.16-2.86c.58-.62.63-1 .06-1.87-2.08-2.92-6.09-3.28-9.73-3zm55.24-5.77a8.12 8.12 0 013.54-1.1c2.13 0 5.35 1.15 5.35 2.45s-.78 2-.88 3.33c-.05.67-.05 1.71-.1 3 8.58-.94 11.9-1.4 13-1.4 1.82 0 4.52 1 4.52 2.65 0 .93-.47 1.35-1.46 1.35-1.66 0-5.61-1.25-16.06-.36v8c1.51 1.55 2.18 4 2.18 7 0 9.52-7.17 15.35-17.21 17.84L77 45.76c6.35-2.34 11.55-6 13.42-11.13-5.1 2.34-9.26-1.66-9.26-7 0-3.8 2.55-7.34 6.81-7.34a9.57 9.57 0 012.14.26c-.06-1.56-.16-3.79-.26-6.13A116.57 116.57 0 0076.1 17c-2.34.58-3.38 1.41-4.74 1.41-1.71 0-4.16-2.34-4.73-3.8a10.4 10.4 0 01-.52-3.12l1-.36c1.15 1.71 2.13 3.38 3.9 3.38 1.92.05 12.64-1.56 18.77-2.24 0-1.87-.15-3.64-.26-4.94-.1-1-.36-1.35-1.19-1.61a20.24 20.24 0 00-3.43-.36zm6.71 23.24c0-3.38-1.66-5.1-3.9-5.1-2.6 0-4.26 2.29-4.26 4.95 0 3 1.82 5 4.21 5 2.6-.01 3.95-1.26 3.95-4.85zm59.57-23.24a8 8 0 013.53-1.1c2.13 0 5.36 1.15 5.36 2.45s-.78 2-.89 3.33c-.05.67-.05 1.71-.1 3 8.58-.94 11.91-1.4 13-1.4 1.82 0 4.52 1 4.52 2.65 0 .93-.46 1.35-1.45 1.35-1.67 0-5.62-1.25-16.07-.36v8c1.51 1.55 2.19 4 2.19 7 0 9.52-7.18 15.35-17.22 17.84l-.67-1.3c6.34-2.34 11.54-6 13.41-11.13-5.09 2.34-9.25-1.66-9.25-7 0-3.8 2.55-7.34 6.81-7.34a9.48 9.48 0 012.13.26c0-1.56-.15-3.79-.26-6.13A117 117 0 00142.37 17c-2.34.58-3.38 1.41-4.73 1.41-1.72 0-4.16-2.34-4.73-3.8a9.81 9.81 0 01-.52-3.12l1-.36c1.14 1.71 2.13 3.38 3.9 3.38s12.63-1.56 18.77-2.24c-.05-1.87-.16-3.64-.26-4.94-.11-1-.37-1.35-1.2-1.61a20.24 20.24 0 00-3.43-.36zm6.7 23.24c0-3.38-1.66-5.1-3.9-5.1-2.6 0-4.26 2.29-4.26 4.95 0 3 1.82 5 4.21 5 2.6-.01 3.95-1.26 3.95-4.85zM223.43 13c9.15.94 14.56 7.33 14.56 15.19 0 8.11-5.2 16-23.51 17.05l-.26-1.24c16.12-2.65 20.08-9.88 20.08-16.58A12.55 12.55 0 00222.75 15a71.59 71.59 0 01-4.57 10.66c-1 1.82-1.88 3.43-2.76 4.78.31.16.57.37.88.52 1 .52 1.88 1.2 1.88 2.24s-.68 1.35-1.62 1.35a5.91 5.91 0 01-3.17-1.35 25.21 25.21 0 01-4.21 4 11.86 11.86 0 01-7.38 3c-3 0-4.37-3.07-4.37-6.24 0-7.13 4.78-12.79 7.59-15.19a54.7 54.7 0 00-1.09-3.43c-.68-2-2.29-3.59-4.73-5.67l.67-.73a13.72 13.72 0 013.49 1.51c1.19.78 3 1.93 3.58 4.21l.58 2.29a23.08 23.08 0 0112.74-4 40 40 0 001.09-5.2c.1-1.2-.47-1.51-1.41-1.77a11.5 11.5 0 00-3.17-.37l-.1-1.09a8.37 8.37 0 013-.73c2.4 0 5.83 2 5.83 3.38 0 1-.78 1.77-1.25 3.18zM211.1 31.2a23.07 23.07 0 01-3.58-5.56 41.78 41.78 0 01-1.77-4.64c-3.64 3.69-5.62 8.53-5.62 11.54s1 4.11 2.5 4.11c2.08 0 3.38-.78 5.09-2.13a19.83 19.83 0 003.38-3.32zm8.53-16.2A19.87 19.87 0 00208 19a29.32 29.32 0 002.23 5.93 14.66 14.66 0 002.81 3.69 27.26 27.26 0 002.6-4.21 63.37 63.37 0 003.99-9.41zm60.45 27.69c12.74-2.23 18.92-8.78 18.92-18.2 0-9.25-6.87-15.18-15.45-15.18-.62 0-1.24 0-1.87.1a9.71 9.71 0 012.24 5.51 26.11 26.11 0 01-1.61 8.38c-2.19 6.24-8.22 16.32-13.52 16.32-3.49 0-7.13-5.51-7.13-11.9a20 20 0 016.92-14.62 22.5 22.5 0 0115.18-5.56c10.71 0 19 7 19 17.79 0 8.63-5.41 17.47-22.41 18.56zm-.36-33a19.8 19.8 0 00-9.83 5.15 16.75 16.75 0 00-5.36 12c0 5 2.29 8.79 4.42 8.79 3.44 0 8.22-8.21 10.35-13.15a24.45 24.45 0 001.87-8 9.13 9.13 0 00-1.45-4.76zm66.39-7.51c-.21.58-.68.89-2 .73-3.38 7.13-9.88 15.65-19 20.54l-.47-.67c7.75-5.67 13.62-15 16.23-22.62zm15.13 16.23l4 3.33a3.45 3.45 0 01-2.08.78C362.49 34 361 43 358.48 45.35a8.39 8.39 0 01-6.13 2 2.74 2.74 0 00-1.15-2.49c-.83-.57-3.58-1.2-5.92-1.56l.05-.89c2.65.26 7.28.68 8.58.68a2.64 2.64 0 002.13-.68c1.82-1.5 3.07-9.93 3.64-20.33H347c-.88 8.63-3.64 18.36-19.66 25.59l-.67-.84c14-7.74 16.12-17 16.59-24.75h-10.93l-.47-1.56h27.4zM354.22 0c3.28 8.06 11.49 15.34 19 19l-.16.57a3.85 3.85 0 00-3.22 2.71A42.85 42.85 0 01353.34.52zm81.58 41.91s2.86 2.24 4.63 3.8c-.1.57-.62.83-1.35.83H394l-.46-1.45h21.52v-4.27h-17.17l-.41-1.51h17.57v-3.9H405v1.36c0 .26-1.51 1-2.91 1h-.47v-16.4l3.71 1.63h22.88l1.92-2.14 4.27 3.28a4.65 4.65 0 01-2.24 1.09v10.6c-.1.36-1.77 1.09-2.91 1.09h-.52v-1.51h-10.3v3.9h12.12l2.24-2.8s2.6 2 4.16 3.48a1.16 1.16 0 01-1.25.83h-17.27v4.27h14.88zM394 19.71l-.46-1.56h39.78l2.44-2.91s2.66 2 4.37 3.64c-.1.57-.67.83-1.4.83zM405.49 16c0 .32-1.51 1.1-2.92 1.1h-.52V1.3l3.7 1.61h21.78l1.88-2.08 4.21 3.23a4.38 4.38 0 01-2.19 1V15.6c-.05.31-1.76 1.09-2.91 1.09H428v-1.87h-22.51zm-.49 8.54v3.91h10v-3.91zm10 9.31V30h-10v3.9zm-9.51-29.38V8H428V4.47zM428 13.26V9.57h-22.51v3.69zm-9.57 11.28v3.91h10.3v-3.91zm10.3 9.31V30h-10.3v3.9z" fill="#fff" data-name="レイヤー 1"/></g></svg>