<svg xmlns="http://www.w3.org/2000/svg" viewBox="0 0 385.17 151.32"><g data-name="レイヤー 2"><path d="M4.71 11c1.68 6.06 1 11-.36 13.14-1 1.5-3.06 2.16-4 1.08s-.3-2.4.66-3.42c1.5-2 2.88-6.84 2.58-10.86zM14.07.78c-.18.84-.66 1.44-2.16 1.68v51.18c0 .54-1.56 1.44-3 1.44h-.72V.06zm-.48 8.94c8.1 4.74 4.26 11 1.38 8.1A16.87 16.87 0 0012.75 10zm25.5-7.92c-.18.66-.72 1-2.28 1.08a45.81 45.81 0 0019.8 14.46l-.12.78a4.83 4.83 0 00-2.94 3.78A44.86 44.86 0 0136 3.42c-4.2 6.9-12.36 14.76-21.18 19.38l-.45-.8C22 16.62 29.73 7.32 32.73.06zm-7.56 20.28l4.68 3.42a4.25 4.25 0 01-2.4 1.14v22.62c0 3.06-.48 4.86-4.68 5.34a4.2 4.2 0 00-.78-2.76c-.54-.66-1.44-1-3.06-1.32v-1s3.3.24 4.08.24.9-.24.9-1v-7.54h-8.22v12.12c0 .42-1.38 1.26-2.88 1.26h-.6V22.5l3.72 1.74h7.44zm-9.48 4v6h8.22V26zm8.22 13.38v-5.7h-8.22v5.7zm9.84-25.66s3.06 2.34 5 4.14c-.18.6-.72.9-1.56.9h-18.2l-.42-1.74h12.6zm2.34 31.26c0 .42-1.5 1.2-2.7 1.2h-.66V24.18l5.46.66c-.12.78-.66 1.32-2.1 1.5zm5.76-22.68l5.7.6c-.12.84-.72 1.32-2.1 1.56v24.78c0 3.12-.6 5-5.58 5.52a4.33 4.33 0 00-1.14-2.76c-.72-.66-2.1-1.08-4.38-1.44v-.9s5.16.36 6.24.36 1.26-.3 1.26-1.14zM81.65 7V5.76a16.63 16.63 0 013.9-.42c2.82.12 7 3.18 7 4.86 0 1.26-1.14 1.68-1.68 4.5a158.26 158.26 0 00-2 23.52c0 7.62 2.22 10.5 8.82 10.5 10.32 0 18.72-6.48 22.74-12.84l1.32.9c-4.44 9.42-13.44 16-24.06 16-8 0-12.18-3.9-12.18-14.16 0-9.3 1.44-23.4 1.44-26.88 0-2.16-.36-2.82-1.38-3.42A11.91 11.91 0 0081.65 7zm103.6 15.56a8.13 8.13 0 013.18-.36c1.86.24 4.26 1.68 4.26 2.82a31.21 31.21 0 01-.48 3.3c-.18 1.14-.54 3.3-1 5.4a32.57 32.57 0 016.6 4.74 4.29 4.29 0 011.44 3.48 1.54 1.54 0 01-1.68 1.68c-1.5 0-3.12-2.52-7.62-5.76-3.36 8.28-10.74 13.74-21.66 16.2l-.9-1.38c9.54-2.94 16.38-9 19.38-17A34.83 34.83 0 00167 30h-.12c-2.64 5-5.7 11.58-7.44 14-1.86 2.7-3.6 4.2-6.36 4.2-3.36 0-5.22-5.1-4.38-9.36 1.26-5.82 8.34-10 16-11l.3-.54c2.82-5.16 8.22-13.8 9.66-16.56.48-1 .18-1.26-.6-1-2.16.72-5.88 2.16-8.16 3.12-1 .42-1.86 1.38-2.94 1.38-1.74 0-4.2-2.1-4.86-3.84a10.54 10.54 0 01-.36-3.18l1.14-.36c.9 1.62 1.5 3.12 3.24 3.12 2.46 0 8.46-1.74 10.62-2.4s2.4-1.62 3.36-1.62c1.62 0 5 2.4 5 3.78s-2.16 1.86-3.48 3.48a141.41 141.41 0 00-9.36 14.16l-.12.24h.3A46.25 46.25 0 01187.89 32a18.32 18.32 0 00.54-5.58 1.73 1.73 0 00-1-1.86 9.09 9.09 0 00-2.28-.84zm-22 7.74c-6.42 1-11.34 4.44-12.36 8.28-.66 2.58.54 5.28 2.16 5.28s2.4-.84 3.72-2.64 4.23-6.84 6.52-10.92zM267.36 7.8s3.48 2.64 5.52 4.56c-.18.66-.66.9-1.56.9h-29c-.3 3.9-.66 7.56-1.25 11h17.39l2.4-2.46 4.56 3.84a3.79 3.79 0 01-2.46 1c-.66 12.6-2.28 23.22-5.22 25.92a9.82 9.82 0 01-7.14 2.4 3 3 0 00-1.32-2.88c-1.08-.72-4.44-1.44-7.26-1.92v-1c3.24.3 9 .84 10.5.84a3.06 3.06 0 002.52-.78c2-1.68 3.36-11.58 4-23.1h-18.3c-2.52 12.72-8.22 22.32-21.83 29l-.54-.78C233 44.4 236.88 31 237.6 13.26h-19.13l-.47-1.68h25.26V0l6.17.66c-.12.84-.72 1.44-2.16 1.62v9.3h17.1zm30.69-2.52a9.17 9.17 0 013.06 1.8c1.26 1 4 4 4 6.54 0 1.32-.84 2.4-2.34 6-1.44 3.42-3.9 9.6-3.9 15.84 0 3.18.48 4.86 1.14 6.06.36.72.9.84 1.38 0 1.26-2 4.56-10 5.94-13.08l1.44.72c-1.14 3.12-3.72 10.14-4.5 12.3a18.86 18.86 0 00-1 4.14c0 1.86.84 3.72.84 5.16a1.63 1.63 0 01-1.68 1.86c-1.08 0-2-1-2.88-2.28-1.62-2.4-3.48-8-3.48-14 0-7.14 1.86-13.14 2.88-16.74.78-2.88 1.5-5 1.56-7 .06-2.16-1.38-4.08-3.48-6.54zm25.86 1.08a12.8 12.8 0 014.38-1.14c2.52 0 5.7 1.62 5.7 3.06 0 1.2-.54 1.56-1 4.2a45.26 45.26 0 00-.48 5 40.62 40.62 0 003.9-1.32c2.52-1 3.3-1.62 3.84-1.62 1.26.06 3.12.72 3.12 1.92s-.78 1.68-2.76 2.4a84.14 84.14 0 01-8.16 2.1c0 6.18.54 12.36.9 17a23.22 23.22 0 019.9 5.4 4.81 4.81 0 011.92 3.36c0 1.2-.54 1.92-1.56 1.92s-1.62-.72-2.76-1.8a25.17 25.17 0 00-7.26-5.22c.06.66.06 1.2.06 1.74 0 4.56-2.82 7.8-10.2 7.8-5.34 0-9.6-2.46-9.6-6.78 0-5.1 5.28-7.44 11.76-7.44a31.85 31.85 0 014.32.3c-.18-4.26-.54-10.5-.66-15.72a52.45 52.45 0 01-6.78.54c-3.72 0-6.18-.84-9.42-5.46l.9-.84a13.09 13.09 0 008.4 3.06 41 41 0 006.9-.6c-.06-2.94 0-6.48 0-8 0-1.38-.24-1.74-1.08-2a19.91 19.91 0 00-4.2-.54zm6.18 33.9a24.61 24.61 0 00-6.18-.72c-3.72 0-7.8 1.56-7.8 4.44 0 2.7 2.7 3.84 6.3 3.84 6.54 0 7.68-2.4 7.68-7.26zm40.68-.26c7.2 2.28 11 5.34 13 8.22a6.6 6.6 0 011.44 4 2.4 2.4 0 01-2.46 2.7c-1.26 0-2-.72-2.88-2.52a27.73 27.73 0 00-9.76-11.4zM89.84 114s3.6 2.82 5.76 4.86c-.18.6-.72.9-1.56.9H70.1v29.52c0 .66-1.73 1.62-3.35 1.62H66v-31.14H41.31l-.48-1.68H66V96.3l6.36.72c-.18.9-.66 1.56-2.23 1.8v19.26H86.6zm47.34-15.9c-.12.84-.54 1.38-2 1.62 1.32 22.08 6.6 37.68 27.36 47.28l-.12.66c-2.1.24-3.6 1.08-4.32 3.3-16.08-8.88-21.48-22.74-23.4-40.56-1.14 14.4-5.46 29.52-26.76 40.62l-.72-1c23.82-14.88 23.64-34.32 23.7-52.62zm84.74 15.9s3.6 2.82 5.76 4.86c-.18.6-.72.9-1.56.9h-23.94v29.52c0 .66-1.74 1.62-3.36 1.62H198v-31.14h-24.62l-.48-1.68H198V96.3l6.36.72c-.18.9-.66 1.56-2.22 1.8v19.26h16.5zm81.41 30.6c2 .6 2.7.78 2.7 1.68 0 2-2.46 3.24-12.66 3.24h-24c-6.9 0-10.38-1.44-10.38-6.6V115.5a51.26 51.26 0 01-7.68 6.12l-.78-.78c7.2-5.88 14.22-16.26 17.52-25.14l6.24 1.68c-.24.72-.78 1-2.28.84-.78 1.5-1.68 3.06-2.7 4.62H283l2.58-2.58 4.56 4.2a4.16 4.16 0 01-2.4.6 61.54 61.54 0 01-8.64 8.58H294l2.16-2.46 4.92 3.72a4.47 4.47 0 01-2.58 1.26v16.62c-.06.36-2 1.2-3.3 1.2h-.6v-4h-31.71v13c0 2.34 2.22 2.82 6.12 2.82h24.06c4.08 0 5.76-.24 6.72-1.8.84-1.38 2-5.64 2.7-8.76h.78zm-35.16-40a64.4 64.4 0 01-6.54 8.22l2 .84h14.1a59.12 59.12 0 005.22-9.06zm-5.28 23.7h13.68v-12.9h-13.68zm17.52-12.9v12.9h14.16v-12.9zm49.5 27.46a8.43 8.43 0 118.46 8.46 8.48 8.48 0 01-8.46-8.46zm2 0a6.39 6.39 0 1012.78 0 6.39 6.39 0 00-12.78 0z" fill="#fff" data-name="レイヤー 1"/></g></svg>