<svg xmlns="http://www.w3.org/2000/svg" viewBox="0 0 449.78 216"><g data-name="レイヤー 2"><path d="M91.76 35.3v9.3c0 .3-1.05 1.1-2.65 1.1h-.5V35.3h-11.3L77 33.8h11.61v-5.75h-6v1.55a3 3 0 01-2.61 1h-.44V10.55l3.65 1.6h14.3l1.65-1.8 3.7 2.8a3.36 3.36 0 01-1.85.9V28.8c-.05.35-1.6 1.15-2.65 1.15h-.45v-1.9h-6.15v5.75h6.5l2.3-2.85s2.6 2 4.2 3.55c-.15.55-.6.8-1.3.8zm-13.1-34c8.8 4.65 5.8 11.05 2.84 8.5-.09-2.7-1.89-6.1-3.44-8.2zm4 12.35v5.65h6v-5.7zm6 13v-5.9h-6v5.85zM86.61.05c8 5.3 4.75 11.45 2 8.75 0-2.7-1.4-6.25-2.65-8.45zm5.15 13.55v5.65h6.15V13.6zm6.15 13v-5.85h-6.15v5.85zm4.8-24.3a1.74 1.74 0 01-1.85.75A43.29 43.29 0 0194 11.6l-.7-.55A64.3 64.3 0 0098 .35zm19 39.6c1.3 2 1.45 2.9.9 3.4-1.25 1.4-4.1-.3-5.9-2.15a26.86 26.86 0 01-5.4-8.5 41.2 41.2 0 01-11.85 10l-.55-.65a44.5 44.5 0 0011.45-11.9 70.72 70.72 0 01-2.9-15.75l-4.85.75-.6-1.35 5.35-.85c-.35-4.6-.5-9.55-.5-14.7l5.25.6c-.1.65-.55 1.2-1.85 1.4-.05 4.1 0 8.25.25 12.2l6-1 1.8-3s2.8 1.55 4.55 2.7a1.22 1.22 0 01-1.1 1.05l-11.2 1.7a72.8 72.8 0 002 12.7A49.1 49.1 0 00117.11 18l4.6 1.55c-.25.55-.7.85-2 .75a51.12 51.12 0 01-6.15 11.4 21.06 21.06 0 005 8.15c.7.85 1 .8 1.4-.2a43.15 43.15 0 002-5.55l.65.1zm-9-39.55c9.8 2.5 7.4 9.05 4.25 6.9-.55-2.25-2.75-4.95-4.75-6.5zm74.01 1.75a4.3 4.3 0 01-2.2 1v39.1a3.8 3.8 0 01-2.75 1.3h-.5v-3.3h-33.55v2.25c0 .45-1.2 1.3-2.6 1.3h-.6V1.3l3.55 1.7h32.7l1.9-2.15zm-5.45 36.65V4.45h-33.55v36.3zm-5.55-9.9s2.45 1.9 3.95 3.35a1.14 1.14 0 01-1.25.8h-27.95l-.35-1.45h12.55v-11.1h-9.15l-.4-1.5h9.55V12h-11.15l-.4-1.4h21.2l2.2-2.75s2.45 2 3.95 3.35c-.15.55-.6.8-1.3.8h-11.35v9h5.4l2.1-2.6s2.3 1.85 3.75 3.3c-.1.55-.6.8-1.3.8h-10v11.1h7.8zm-6.6-7.15c8.65 3.25 6.1 9 3.35 6.85-.45-2.15-2.35-4.85-3.95-6.5zm53.99-18.05a3.72 3.72 0 01-2.1 1V38.1c0 .4-1.6 1.2-2.7 1.2h-.45v-3.45h-7v4.6c0 .3-1 1.15-2.6 1.15h-.5V3l3.75 1.6h5.85l1.8-2zm-12.25.4V19.4h7V6.05zm7 28.4V20.9h-7v13.55zM222.21 18l-.4-1.45h12.35V9.2h-10.4l-.4-1.45h10.8V.15l5.05.55c-.1.7-.6 1.2-1.85 1.4v5.65h6.45l2.3-2.9s2.65 2 4.25 3.55c-.15.55-.65.8-1.35.8h-11.65v7.35h8l2.3-3A54.39 54.39 0 01252 17.2c-.1.55-.55.8-1.25.8zm26 4.05a48 48 0 014.1 3.45c-.1.55-.65.8-1.3.8h-7.35V41c0 2.7-.5 4.3-5.3 4.75a3 3 0 00-1.15-2.3c-.8-.6-2.1-.95-4.45-1.25v-.8s5.45.35 6.5.35 1.2-.25 1.2-1V26.3h-18l-.4-1.45h18.45V19l4.9.55c-.1.7-.6 1.05-1.7 1.25v4.05h2.4zm-21.95 6.1c11.1 4.05 8.2 11.45 4.74 8.85-.55-2.8-3.1-6.3-5.2-8.45zM289 1.8c-.15.55-.75 1-1.95.9a74.93 74.93 0 01-4.9 10.5l2.3.85c-.2.45-.65.75-1.55.85v29.75a3.61 3.61 0 01-2.65 1.15h-.65V17.4a49.48 49.48 0 01-7.15 8.6l-.7-.5c4.5-6.1 9.15-15.85 11.95-25.5zm27.9 40c1.5 1.9 1.7 2.65 1.25 3.2-1.15 1.65-4.3.25-6.7-1.45-7.8-5.5-11.9-14.8-13.7-25.95L285.81 19l-.55-1.4 12.3-1.35a103.64 103.64 0 01-1.05-15.6l5.3.65c-.1.6-.55 1.2-1.75 1.35a88.06 88.06 0 00.8 13.15l10.4-1.15 2.1-3.25s2.9 1.8 4.7 3.1a1.21 1.21 0 01-1.2.9l-15.8 1.8c1.5 9.75 5.1 18.35 12.1 22.85.9.75 1.25.75 1.65-.2a41.28 41.28 0 002.35-5.7l.55.15zM304.61 1.85c10.6 1.95 8.6 8.8 5.05 6.85-.9-2.1-3.55-4.85-5.55-6.4zm45.52 21.85c-1.05 2.6-3.35 8.25-3.9 10.15a13.28 13.28 0 00-.85 3.6c0 1.45 1 3 1 4.25a1.33 1.33 0 01-1.45 1.5c-.9 0-1.7-.8-2.35-1.85a22.7 22.7 0 01-2.91-11.2c0-5.95 1.61-10.2 2.41-13.2a30.63 30.63 0 001.25-5.8c.05-1.8-1.15-3.45-2.8-5.25l.8-.65a11.79 11.79 0 012.55 1.5c1.05.85 3.25 3.15 3.25 5.25 0 1.15-.7 2.05-1.9 5.05-1.3 2.8-3.2 7.3-3.2 12.25 0 2.65.4 3.65.8 4.3s.65.7 1.1 0c1.1-1.75 3.9-8 5-10.55zm5 4.3a19.32 19.32 0 001.45 4.35c1.7 2.95 4.35 4.7 10.5 4.7 5.4 0 7.3-.9 8.5-.9 1.35 0 2.65.45 2.65 1.6 0 2-4.65 2.6-10.05 2.6-7.8 0-12.05-2.6-13.55-7.7a16 16 0 01-.63-4.45zm.55-15.65a25.63 25.63 0 0111.95-3.1c3.45 0 5.35.35 6.95 1.05 1.05.45 1.5 1.15 1.5 1.75s-.3 1.1-1.35 1.25a13.54 13.54 0 00-4.1.95 81.46 81.46 0 00-8.2 4.55l-.85-.9c2.25-1.6 5.8-4.2 6.85-5.1.6-.55.55-.9-2.75-.9a31.33 31.33 0 00-9.5 1.65zM36.75 115.5c-.4.45-1 .55-2.3.6a32.56 32.56 0 01-8.55 7.2c5.45 2.25 12.25 3.45 19.55 4v.65a3.52 3.52 0 00-2.75 2.9c-7.75-1.05-14.3-2.9-19.45-6.05-6.25 3.1-14 5.05-22.9 6l-.35-.9c8-1.4 15.25-3.55 21.05-6.7a22.79 22.79 0 01-5.75-6.4 45.15 45.15 0 01-14.1 7.85L.75 124c6.5-3.15 13-8.45 16.35-13.7-2.25-.25-2.6-1-2.6-2.8v-7.2l4.25.5c-.05.6-.55 1-1.4 1.2v5c0 .6.15.75 1.95.75h9.6c.55 0 .75-.1 1-.4a14.62 14.62 0 001.2-3.4h.6l.15 3.45c1.05.3 1.3.6 1.3 1.1 0 1.4-1.35 1.9-8.9 1.9H18.7l2.95 1.5c-.25.45-.85.6-1.75.35-.5.65-1.1 1.35-1.7 2H31l2.3-1.9zM6.55 98.05A6.75 6.75 0 014 103.4c-1.1.75-2.8.85-3.35-.2s.2-1.9 1.2-2.5a7.07 7.07 0 003.3-6.45h.9a14.3 14.3 0 01.45 2.3H13a1.91 1.91 0 01-.9-.45 11.28 11.28 0 00-3-5.55l.55-.4c6.4 2 5.9 6 4.1 6.4H30a42 42 0 003.9-7.15l4.8 2a1.72 1.72 0 01-1.9.65 37.88 37.88 0 01-5 4.5h8l2.05-2 3.75 3.6c-.4.4-.9.45-1.9.5a28.8 28.8 0 01-5.6 4l-.65-.35a38.88 38.88 0 002.25-4.15zm12.9-8.3c-5 .25-10.3.4-15.25.4l-.15-1.05c11.6-.6 26.1-2.4 34-4.2l3.25 3.4c-.4.4-1.35.35-2.55-.2-5.2.65-11.75 1.2-18.6 1.6 7.3 3.25 4.25 8.55 1.6 6.2a12.62 12.62 0 00-2.55-6zM11.2 101c.85 4.55-1.4 7.2-3.25 8.25-1.25.65-2.95.65-3.4-.4-.4-.9.25-1.8 1.25-2.35a7 7 0 004.55-5.55zm4.9 15.2a21.46 21.46 0 007 5.85 28.7 28.7 0 007.35-6.35h-13.8zm3.5-16.9c9.85.6 8.6 7 5.3 5.5-.85-1.8-3.55-4-5.7-5zm12.3 1.5c11.85 2.6 10.1 10.1 6.55 8-1-2.65-4.35-5.8-7.05-7.55zm45.87-11A9.69 9.69 0 0182 88.55c1.85 0 3.85.6 4.1 1.5a52.26 52.26 0 002.75 7.4c5.55-2.1 7.05-3.9 8.5-4.6a2.89 2.89 0 013 .35c.45.55.15 1.4-.55 2a37.49 37.49 0 01-9.55 4.8A53.24 53.24 0 0099 110.8c1.2 1.15 1.6 1.6 1.65 2.45 0 1.4-.7 3.3-1.8 3.3s-1.8-.75-3.2-1.55a24.56 24.56 0 00-12.25-3.35c-5.6 0-10 3.1-10 7.2 0 3.85 4.45 6.5 12.25 6.5 3.8 0 5.45-.55 7.2-.55 1.5 0 2.6.6 2.6 1.65 0 1.3-2.4 2.25-8.65 2.25-8.35 0-15.95-2.65-15.95-9.45 0-5.4 5.8-9.45 13.45-9.45a36.32 36.32 0 0110.9 1.8c.5.1.6.05.25-.35a87.84 87.84 0 01-7.65-10.5 43.71 43.71 0 01-10.75 1.9c-4.75 0-6.6-1.7-9.35-5.55l.9-.8c3 2.45 4.5 3.5 8.45 3.5a38.42 38.42 0 009.3-1.55 70.39 70.39 0 00-3.45-6.35c-.85-1.3-2.1-1.2-5-1.15zm90.86 29.35c-2.2 3.1-6 6.2-10.25 6.2-3.55 0-6-2.15-6-6.55 0-5.55 2.1-11.35 2.1-16.75 0-3.15-.9-4.8-3.4-4.8-4.25 0-10.1 4.5-15.1 10a102.92 102.92 0 00.5 14.75c.1 1.25.25 2.3.25 3.4 0 1.7-.7 4.05-2.1 4.05-.9 0-1.4-.55-1.65-1.7a16.23 16.23 0 00-.85-3.15 43.36 43.36 0 00-3.7-6.5l-3.25 4.55c-.6.85-1.05 1.5-1.8 1.5s-1.3-.75-1.3-1.75a3.2 3.2 0 011-2.5 124.39 124.39 0 0011-14.2c.15-1.45.25-2.8.45-4.15-1.7.9-3.45 1.9-4.7 2.6-1.05.65-1.55 1.8-2.4 1.8-1.45 0-3.6-1.9-4.1-3.55a6.58 6.58 0 01-.2-2.2l.9-.25c.75 1.5 1.5 2.35 2.4 2.35 1.25 0 6.4-2.45 8.45-3.55.4-3.2.75-5.8.8-7.25 0-1.15-.25-1.35-1.15-1.7a21.5 21.5 0 00-2.65-.7v-1a9.22 9.22 0 013-.55c2.05 0 4.6 2.2 4.6 3.65 0 1-.6 1.5-1.15 3.5-.25.75-.6 2-1 3.7.8.55 1.8 1.5 1.8 2s-.55 1-1.15 1.8a19.15 19.15 0 00-1.6 2.1c4.75-4.3 10.65-8.85 15.75-8.85 3.45 0 5.6 2.1 5.6 6.75 0 3.9-2.15 11-2.15 16.15 0 2.7 1.15 3.8 3.55 3.8 3.3 0 5.7-1.2 8.6-3.85zm-34.85-8.9c-1.35 2.1-3 4.4-4.55 6.65 1.4 1.95 3.2 4.35 3.9 5.2.45.5.7.45.7-.35.05-2.4-.2-7-.05-11.5zm62.75-22.05a10.69 10.69 0 013.15-.35c1.8.1 4.95 1.3 5 2.45 0 .85-.7 2.1-1.3 4-.25.9-.55 2.15-.95 3.55a46 46 0 006.3-2.65 4.63 4.63 0 011.7-.7c.85 0 2.15.5 2.15 1.4s-.55 1.45-2.4 2.25a70.74 70.74 0 01-8.65 2.8c-.7 2.45-1.55 5.15-2.45 7.55-2.35 6.75-5.55 14.8-7.7 18.3-.71 1.15-1.21 1.6-2.21 1.6-.84 0-1.44-.9-1.44-2.05s.44-1.55 1.19-2.9a67.58 67.58 0 007.81-15.8c.65-1.85 1.3-4 1.9-6.05a31.6 31.6 0 01-5.75.6c-2.9 0-5.3-1.1-7-4.9l.85-.65c2.15 1.9 3.65 2.85 6.11 2.85a28.54 28.54 0 006.5-.8 49.14 49.14 0 001.25-6.5 1.65 1.65 0 00-1-2 22.28 22.28 0 00-3.16-.85zm8.8 28a14.35 14.35 0 001.7 4.75c1.75 2.7 4.8 3.85 9.1 3.85 5 0 6.6-1 8.05-1 1.15 0 2.45.55 2.45 1.7 0 1-1.3 1.55-2.75 1.85a31 31 0 01-6.7.65c-5.8 0-10.4-1.75-12-6.15a14.24 14.24 0 01-1.1-5.55zm2.85-11.7a25.52 25.52 0 019-1.8 16.62 16.62 0 016.75 1.2c1.15.6 1.8 1.35 1.8 2.2s-.85 1.15-2.05 1.25a9.37 9.37 0 00-2.95.8 60.79 60.79 0 00-5.6 2.6l-.65-.9a58.3 58.3 0 005.25-3.65c.4-.3.25-.55-.2-.7a13.58 13.58 0 00-4.4-.6 30.66 30.66 0 00-6.7.8zm55.18 7.05c4.2-2.15 8.8-3.85 13.85-3.85 5.75 0 9.85 3.6 9.85 9.15 0 5.1-3.85 9.25-10.15 9.25a11.45 11.45 0 01-9.4-5l.8-.8a12.27 12.27 0 007.9 3c5 0 7.7-3.15 7.7-7.1 0-3.75-2.4-6.65-7.75-6.65-4.15 0-8.8 2.1-12.75 4.35.2 6.8.75 8.65.75 10.45 0 2.25-1.35 4.55-2.85 4.55-1.15 0-1.25-1.55-2.85-3a59.94 59.94 0 00-5.35-4c-1.5 1.4-2.15 1.8-2.86 1.8a2.43 2.43 0 01-1.59-.85 2.72 2.72 0 01-.91-2.05c0-1.15.31-1.55 1.41-1.45a3.68 3.68 0 002.84-.55c1.86-1.1 5.76-4.15 9.11-6v-9.65a26.7 26.7 0 01-5.5.9c-2.45 0-4.55-.45-6.61-5l.86-.65c2.55 2.5 3.3 3 5.95 2.9a24.4 24.4 0 005.3-.9c0-3.7.05-7.05 0-8.25s-.2-1.3-1-1.55a9.6 9.6 0 00-3.15-.35l-.15-1a7.63 7.63 0 013.5-1c1.9 0 5.1 1.6 5.1 2.8s-.75 1.95-1.1 3.55a35 35 0 00-.6 4.9c3.9-1.45 5.55-3.1 6.6-3.15.9 0 2.2.2 2.25 1.3 0 .85-.55 1.45-1.6 2a54.78 54.78 0 01-7.4 2.75c-.15 2.25-.2 4.65-.2 7zm-2.25 3.75a60 60 0 00-7.05 5.75c1.85 1 4.1 2.1 5.65 2.8 1.05.45 1.4.05 1.4-.9zm15.05-20.7a16.77 16.77 0 016.65-.25c3.85.75 7.45 4.05 7.6 7.2 0 1-.3 1.85-1.25 2-1.15.25-1.6-1-3.2-.75a19 19 0 00-3.85 1.5l-.55-.9a37.19 37.19 0 004-2.75c.55-.6.6-1 .05-1.8-2-2.8-5.85-3.15-9.35-2.9zm59.53.8c-.1.5-.7.8-2 .9 4.25 5.9 12.75 10.6 21.45 13l-.05.8A4.1 4.1 0 00352 113c-8.5-3.3-15.8-9-19.25-16-4.4 6.85-13.8 13.75-23.9 17.15l-.35-.75c9.05-4 18.7-12.5 21.2-19.3zm-26.4-3.05L309 91h13.1v-5.9l5 .5c-.05.7-.5 1.2-1.7 1.35v4H338v-5.9l5 .5c-.1.7-.55 1.2-1.75 1.35v4h6.65l2.45-3.1s2.7 2.25 4.2 3.75c0 .5-.55.75-1.25.75h-12v4.1c0 .35-1.15 1-2.75 1H338v-5.05h-12.7v4.35c0 .4-1.4.9-2.75.9h-.5v-5.25zm2.3 35.7a35.58 35.58 0 0011-11.9l4.55 2.2c-.3.5-.75.75-1.85.5a35.55 35.55 0 01-13.2 9.85zm21.85-14.85v16.6c0 .35-1.45.95-2.6.95h-.7V113.2h-12.35l-.35-1.45h12.7V105l4.9.5c-.15.65-.55 1.1-1.6 1.3v5h6l2.25-2.6s2.45 1.85 4.1 3.25c-.15.55-.65.8-1.35.8zm4.1 3.5c15.4 4.3 14.15 13.25 9.95 11.15-1.55-3.7-6.6-8.15-10.5-10.65zm70.14-17.35a8.44 8.44 0 013.7 1.35c1.25.85 2.7 2.5 2.7 3.9 0 .9-.5 1.05-2.45 1.65a96.46 96.46 0 00-14.25 5.65c.15 2.85.15 6.5.15 8.1 0 1.2-.55 2-1.55 2s-1.65-.55-1.65-1.9c0-1.2.2-3.9.25-6.6-4.85 2.75-8.35 6-8.35 8.9s3.2 4 7.95 4c7.4 0 10.3-1.55 12.7-1.55 1.75 0 2.65.6 2.65 1.55 0 .75-.25 1.4-1.85 1.85a54.54 54.54 0 01-11.2 1.35c-9.3 0-12.35-2.9-12.35-6.85s4.55-8 10.4-11.65c-.2-4.25-1.15-5.8-3.75-5.8-2.8 0-6.1 2.8-8.2 5-1.75 1.9-3.15 4.25-4.35 4.3-1 0-1.7-.75-1.7-2s1.85-2.6 4.1-5a48.23 48.23 0 007-9.15 30.43 30.43 0 01-3.6.25c-4.1 0-4.95-1.1-6.95-5.05l1.05-.65c2 2.1 2.85 3.15 6.55 3.15a24.25 24.25 0 004.45-.5 19.56 19.56 0 001.65-4.4c.25-.9.1-1.25-.9-1.65a9.84 9.84 0 00-2.8-.7v-1a10.7 10.7 0 012.85-.5c1.55 0 4.8.85 4.8 2 0 .7-.4 1-1 2.15-.35.8-1 2.05-1.6 3.3a49.27 49.27 0 006.5-2.15c2.1-1 2.45-1.4 3.2-1.4 1.1 0 2.15.4 2.15 1.35 0 .65-.45 1.1-1.4 1.55a58.57 58.57 0 01-12 3.8 59.37 59.37 0 01-4.8 7c-.2.25 0 .5.3.3a12.68 12.68 0 015.5-1.7c3.15 0 5.05 2.15 5.55 5.9 4.05-2.2 9.15-4.25 12.15-5.85.85-.45 1-.9.25-1.7a7.09 7.09 0 00-2.45-1.7zm30.1 18.9c6 1.9 9.15 4.45 10.8 6.85a5.5 5.5 0 011.2 3.35 2 2 0 01-2 2.25c-1.05 0-1.7-.6-2.4-2.1a23.11 23.11 0 00-8.1-9.5zM140.64 200.9c-3.8 1.9-9.1 4.65-16.06 7.9a1.7 1.7 0 01-1 1.2l-1.69-4.1c1.54-.35 4.3-1.15 7.6-2.15V190.1h-6l-.41-1.4h6.41v-12.5H123l-.36-1.5h12.16l2.25-2.95s2.65 2.1 4.25 3.65c-.1.55-.6.8-1.3.8h-7.35v12.5h1.95l2-2.9s2.35 2.1 3.7 3.5a1.17 1.17 0 01-1.25.8h-6.4v12.6c2.45-.8 5.05-1.65 7.7-2.55zm27.25 10.55c.9.45 1.1.85 1.1 1.45 0 1.35-1.25 2-6.85 2h-3.45c-3.2 0-3.75-.8-3.75-3.05v-13.2h-3.55c-1.5 9.95-6.6 14.65-18.5 17.2l-.25-.8c10.25-3.35 14.05-7.9 15.05-16.4h-2.25v1.8c0 .35-1.3 1.1-2.65 1.1h-.55V171.7l3.45 1.55h15l1.9-2.05 4.1 3.15a4.29 4.29 0 01-2.2 1.05v24.5c-.1.4-1.65 1.15-2.8 1.15h-.45v-2.4h-3.05v12.5c0 .6.1.8 1.3.8h5.4a.74.74 0 00.75-.65c.3-.85.9-3.85 1.45-6.7h.65zm-22.45-36.7v6.35h15.8v-6.35zm15.8 7.85h-15.8v6.4h15.8zm-15.8 14.65h15.8v-6.75h-15.8zm57.69-25.45c-.15.55-.75.95-1.95.9a74.93 74.93 0 01-4.9 10.5l2.3.85c-.2.45-.65.75-1.55.85v29.75a3.61 3.61 0 01-2.65 1.15h-.65v-28.4a49.48 49.48 0 01-7.15 8.6l-.7-.5c4.5-6.1 9.15-15.85 12-25.5zm27.9 40c1.5 1.9 1.7 2.65 1.25 3.2-1.15 1.65-4.3.25-6.7-1.45-7.8-5.5-11.9-14.8-13.7-26L199.93 189l-.55-1.4 12.3-1.35a103.64 103.64 0 01-1.05-15.55l5.3.65c-.1.6-.55 1.2-1.75 1.35a88.06 88.06 0 00.8 13.15l10.4-1.15 2.1-3.25s2.9 1.8 4.7 3.1a1.21 1.21 0 01-1.2.9l-15.8 1.8c1.5 9.75 5.1 18.35 12.1 22.85.9.75 1.25.75 1.65-.2a41.28 41.28 0 002.35-5.7l.55.15zm-12.3-40c10.6 2 8.6 8.8 5.05 6.85-.9-2.1-3.55-4.85-5.55-6.4zm45.52 21.9c-1.05 2.6-3.35 8.25-3.9 10.15a13.28 13.28 0 00-.85 3.6c0 1.45 1 3.05 1 4.25a1.33 1.33 0 01-1.45 1.5c-.9 0-1.7-.8-2.35-1.85a22.71 22.71 0 01-2.9-11.2c0-6 1.6-10.2 2.4-13.2a30.63 30.63 0 001.25-5.8c.05-1.8-1.15-3.45-2.8-5.25l.8-.65a11.79 11.79 0 012.55 1.5c1.05.85 3.25 3.15 3.25 5.25 0 1.15-.7 2.05-1.9 5.05-1.3 2.8-3.2 7.3-3.2 12.25 0 2.65.4 3.65.8 4.3s.65.7 1.1.05c1.1-1.75 3.9-8 5-10.55zm5 4.3a19.32 19.32 0 001.45 4.35c1.7 3 4.35 4.7 10.5 4.7 5.4 0 7.3-.9 8.5-.9 1.35 0 2.65.45 2.65 1.6 0 2-4.65 2.6-10.05 2.6-7.8 0-12.05-2.6-13.55-7.7a16 16 0 01-.65-4.45zm.55-15.65a25.63 25.63 0 0111.95-3.1c3.45 0 5.35.35 6.95 1.05 1.05.45 1.5 1.15 1.5 1.75s-.3 1.1-1.35 1.25a13.54 13.54 0 00-4.1.95 81.46 81.46 0 00-8.2 4.55l-.85-.9c2.25-1.6 5.8-4.2 6.85-5.1.6-.55.55-.9-2.75-.9a31.33 31.33 0 00-9.5 1.65zM314.59 209a7 7 0 117.06 7.05 7.07 7.07 0 01-7.06-7.05zm1.71 0a5.33 5.33 0 1010.7 0 5.33 5.33 0 00-10.65 0z" fill="#fff" data-name="レイヤー 1"/></g></svg>