<svg xmlns="http://www.w3.org/2000/svg" viewBox="0 0 400 66.18"><g data-name="レイヤー 2"><path d="M19.05 24.41a37.7 37.7 0 017 1.68c1.34.44 2.22-.9 2.65-1.81a.17.17 0 01.32.07l.32 11.28a.17.17 0 01-.33 0A16.16 16.16 0 0019 24.74a.17.17 0 01.05-.33zm-10 41c-4.5-1.87-6.41-3.9-8.28-10.65a.17.17 0 00-.34 0L1.14 65a.17.17 0 00.32.08c.38-.58 1.13-1.45 2.14-1.22 1.42.32 2.68 1.32 5.33 1.85a.17.17 0 00.07-.32zM.36 32.14c-2 7.85 5 11.73 12.87 14.89 7.7 3.1 9.91 6.14 9.34 11.16-.38 3.3-2.65 6.25-6.85 7.36a.17.17 0 000 .34c8.09-.39 15.17-3.06 16-10.64.7-6.64-4-11.3-11.41-14.51C15.22 38.51 7.66 35.23 7.94 30c.18-3.39 3-4.78 4.88-5.34a.17.17 0 00-.05-.34c-3.22.11-10.66 1.1-12.41 7.82zm61.4 32.51c-2-.61-3.16-1.89-3.16-5.24V.17a.17.17 0 00-.19-.17L44 1.34a.18.18 0 000 .35c4.18.44 5.67 2 5.67 7v50.72c0 3.35-1.15 4.63-3.16 5.24a.17.17 0 000 .33h15.2a.17.17 0 00.05-.33zm25.88 0c-2-.61-3.16-1.89-3.16-5.24V37.88c0-7.55-1.57-13.3-10-14.18-5.9-.62-10.19 3.3-11.95 5.3a.17.17 0 00.22.26 9.5 9.5 0 017.14-1.47c5.18 1.17 5.65 6.06 5.65 10.1v21.52c0 3.35-1.15 4.63-3.16 5.24a.17.17 0 00.05.33h15.16a.17.17 0 00.05-.33zm125.56 0c-2-.61-3.16-1.89-3.16-5.24V.17a.17.17 0 00-.19-.17l-14.42 1.34a.18.18 0 000 .35c4.18.44 5.67 2 5.67 7v50.72c0 3.35-1.15 4.63-3.16 5.24a.17.17 0 00.06.35h15.16a.17.17 0 00.04-.35zm25.88 0c-2-.61-3.16-1.89-3.16-5.24V37.88c0-7.55-1.57-13.3-10-14.18C220 23.08 215.72 27 214 29a.17.17 0 00.22.26 9.5 9.5 0 017.14-1.47C226.51 29 227 33.84 227 37.88v21.53c0 3.35-1.15 4.63-3.16 5.24a.17.17 0 00.05.33H239a.17.17 0 00.08-.33zm-97.54-1.56c-4.19-.44-5.68-2-5.68-7V24.42a.18.18 0 00-.18-.17l-12.08.52a.17.17 0 000 .34c2.13.58 3.35 1.84 3.35 5.29v34.21a.17.17 0 00.19.17l14.43-1.34a.18.18 0 00-.03-.35zm-18.77-2.53a9.45 9.45 0 01-7.14 1.44c-5.18-1.14-5.63-6-5.63-10.07V24.42a.18.18 0 00-.18-.17l-12.08.52a.17.17 0 000 .34c2.08.58 3.26 1.89 3.26 5.29v21.53c0 7.55 1.57 13.3 10 14.19 5.88.61 10.18-3.32 11.94-5.3a.18.18 0 00-.17-.26zm168.52-.4a4.62 4.62 0 01-4.4 1.9c-1.9-.42-2.93-1.88-2.93-4.33V37.88c0-8.19-2.23-12.72-10.44-13.94a22.77 22.77 0 00-8.43.24.17.17 0 00.05.34 13.89 13.89 0 015.5.78C275.1 27 275 31.9 275 37.88v19.31c0 3.9 1.57 8 7.22 8.64a9 9 0 009.34-5.49.17.17 0 00-.27-.18zm-36.93-27.38a4.7 4.7 0 009.23-1.63 4.67 4.67 0 00-2.95-3.56c-.81-.39-.69-.94-.43-1.35A.17.17 0 00260 26a13.21 13.21 0 00-4 2.38c-.12.09-.22.19-.33.29v.05a4.66 4.66 0 00-1.31 4.06zm17.78 25.86c-1.66 1.4-4.73 3.58-7.15 2.89-3.54-1-4.36-5.8-3-10.93 1.52-5.71 5-7.87 9.88-9.85a.17.17 0 00-.09-.33c-7.93 1.25-17.77 3.37-19.2 14-1 7.65 3.37 11.45 8.12 11.45 5.54 0 9.85-4.66 11.67-7a.17.17 0 00-.23-.23zm86.08 6c-2-.61-3.16-1.89-3.16-5.24v-35a.18.18 0 00-.18-.17l-12.08.52a.17.17 0 000 .34c2.13.58 3.35 1.84 3.35 5.29v29c0 3.35-1.15 4.63-3.16 5.24a.17.17 0 00.01.38h15.16a.17.17 0 00.06-.35zm11.75-41c-5.54-1.28-9.76 2.72-11.45 4.69a.17.17 0 00.23.25A6.85 6.85 0 01362.9 27c1.85.16 2.2 1.58 2 3.08-.39 3.25.93 4.6 3 4.88a5.8 5.8 0 006.1-5.15c.41-3.5-1.58-5.55-4-6.12zm29.91 41c-2-.61-3.16-1.89-3.16-5.24v-35a.18.18 0 00-.18-.17l-12.08.52a.17.17 0 000 .34c2.14.58 3.36 1.84 3.36 5.29v29c0 3.35-1.15 4.63-3.16 5.24a.17.17 0 00.05.33h15.16a.17.17 0 00.01-.3zm-7.63-49a5.21 5.21 0 10-5.25-5.22 5.2 5.2 0 005.25 5.21z" fill="#fff" data-name="レイヤー 1"/></g></svg>