<svg xmlns="http://www.w3.org/2000/svg" viewBox="0 0 414.46 131.74"><g data-name="レイヤー 2"><path d="M120.92 21.22l3.28-4.32s3.8 3.1 6.08 5.25c-.16.63-.73.84-1.56.84H83.48L83 21.22zM167.21 43c0 2.66-.47 4.32-4.73 4.74a3.62 3.62 0 00-1-2.34c-.62-.58-1.72-.94-3.64-1.2v-.83s4.26.31 5.2.31 1.09-.31 1.09-1V22.46c-2.76.79-5.88 1.62-9.31 2.5-.1 7.7-.78 16.59-6.45 22.78l-.78-.57c3.54-6.09 4.06-13.78 4.16-21.43l-2.28.57a1.94 1.94 0 01-1.3 1.2l-.58-4.11c1 0 2.45-.26 4.16-.47V5.46l3.7 1.61h1.3c.36-2 .88-5 1.19-7.07l5.41 1.09c-.15.73-.83 1.15-1.92 1.2-.78 1.4-2 3.27-3 4.78h5.2l1.56-2 4.27 3.13a3.5 3.5 0 01-2.24 1v11.24l2.44-.42.16.89-2.6.72zm-12.38-20.54c2.76-.41 5.93-.93 9.31-1.5V8.63h-9.31zm2.6-11.64c7.39 5.4 3.28 11.18 1.36 8.42-.11-2-.58-5.62-2.08-8zm3 27.61c0 .36-1.15 1-2.14 1h-.52V26.11l4 .46c-.05.58-.42 1-1.35 1.15zm32.5-13.68c-.42.47-.94.58-2.08.68a36.4 36.4 0 01-7.44 12.32 34.7 34.7 0 0012.85 6.71l-.11.57a3.67 3.67 0 00-3.07 2.6 32.46 32.46 0 01-11.75-7.8 38.83 38.83 0 01-14.14 7.86l-.47-.78a37.49 37.49 0 0012.95-9A36.24 36.24 0 01173.55 25h-4l-.42-1.51H187l2.24-2.08zm-23.45-2.54c3.69-4.06 4.05-9 4.05-13.63V1.51l3.8 1.66h6.39l1.77-1.87L189 4.42a3 3 0 01-1.72.73v10.56c0 .57.11.67.94.67h1.92a14.4 14.4 0 001.72-.05c.31 0 .52 0 .67-.52.26-.68.78-3.54 1.25-6.14h.78l.11 6.29c.93.37 1 .79 1 1.41 0 1.3-1.25 2-5.67 2h-2.65c-2.76 0-3.23-.77-3.23-2.91V4.68h-7.49v3.85c0 4.42-.57 10.4-6.6 14.4zM174.7 25a28.41 28.41 0 006.65 10.87A33.72 33.72 0 00187.07 25zm57.73-14.34a4.46 4.46 0 01-2.29 1v30.67a4.12 4.12 0 01-2.75 1.2h-.47v-3.75h-9.36v3.85c0 .42-1.2 1.25-2.7 1.25h-.52v-37l3.43 1.67h2c.63-2.5 1.51-6.61 2-9.42l5.41 1.25c-.21.78-.83 1.15-1.92 1.15-1 2.08-2.76 4.94-4 7h5.15l1.87-2.14zm-14.87.42V23.5h9.36V11.08zm9.36 27.14V25h-9.36v13.22zM260 10.56a3.35 3.35 0 01-2.18.83c-.73 18.41-2.55 30.32-5.41 33.44a7.9 7.9 0 01-6.34 2.49 2.83 2.83 0 00-1-2.49 15.61 15.61 0 00-5.3-1.62l.1-.88c2.39.26 6.29.62 7.49.62a2.73 2.73 0 002.34-.83c2.34-2.08 3.9-14 4.68-31.2h-15.19a41.48 41.48 0 01-7.64 10.87l-.73-.47A64.48 64.48 0 00239.19.1l5.31 1.56c-.21.63-.78 1-1.93 1a63.72 63.72 0 01-2.65 6.71h14L256 7zm-22.36 8.52c13.11 5.57 10.14 14 6.35 11.08-.73-3.54-4.16-8-6.92-10.66zm50.8-15.8a9.53 9.53 0 013.07-.63 7.68 7.68 0 013.8.89c.88.52.67 1.45-1.25 8.11 5-1.56 6-2.81 7-2.81A1.77 1.77 0 01303 10.4c0 .94-1.19 1.66-1.77 2A36.33 36.33 0 01293 15c-1.82 5.62-5.57 15.18-9.83 21.37-.73 1-1.35 1.87-2.34 1.87s-1.51-1.09-1.51-2a3.92 3.92 0 01.94-2.5c3.17-4.21 7.54-10.61 9.88-18.2a28.18 28.18 0 01-4.11.31c-3.9 0-5.67-1.45-7.33-5.15l.93-.73c2.24 1.88 3.38 3 7 3a19.85 19.85 0 004.42-.57 43.91 43.91 0 00.95-5.59c0-1.09-.21-1.51-1.1-1.87a15.27 15.27 0 00-2.44-.83zm18.62 8.94a14.75 14.75 0 017.17.62c3.18 1.2 4.79 3.23 4.79 5.31 0 1.19-.52 1.87-1.51 1.87-1.2 0-2.08-.83-4.32-.68a8.05 8.05 0 00-4.83 2c-1.15 1.15-1.35 2.81-1.3 4.68.05 1.56.57 4.84 1 8a24.11 24.11 0 018.11 3.64c2.49 1.61 3.59 3.07 3.59 4.37 0 1-.47 1.66-1.3 1.66-1 0-1.62-.88-2.76-1.92a20.72 20.72 0 00-7.34-4.77c.05.78.1 1.45.1 2.08 0 4.31-3.17 6.81-8.47 6.81s-8.32-2.65-8.32-5.67c0-4 4.21-6.86 11.12-6.86.84 0 1.62 0 2.34.1-.15-2.29-.41-4.63-.41-6.66a8.45 8.45 0 012.49-6.5c1.62-1.71 4-2.54 5.78-3.33 1.09-.57.88-1.24 0-1.92a10.06 10.06 0 00-6-1.56zm-1.72 24a24.18 24.18 0 00-4.47-.41c-4.73 0-7.23 2-7.23 3.85s1.77 3.27 5.57 3.27c5 0 6.13-2.49 6.13-5.56zM33.44 90.34a4.3 4.3 0 01-2.24 1v38.33c-.05.36-1.72 1.35-3 1.35h-.51v-4.37H3.43v3.23c0 .52-1.25 1.4-2.86 1.4H0v-43.9l3.74 1.82h23.4l2-2.29zm-30 .37v16.12h24.23V90.71zm24.24 34.42v-16.79H3.43v16.79zm51.51-27.3c4.73 9.16 13.41 17.22 21.52 21l-.1.52a4.25 4.25 0 00-3.43 2.86c-7.91-4.84-15-13.52-19.19-24.34v21.32h4.73l2.45-3.27s2.75 2.29 4.52 4c-.15.57-.68.83-1.4.83H78v9.73c0 .52-1.46 1.3-2.81 1.3h-.67v-11h-11l-.41-1.51h11.4v-18.3a53.16 53.16 0 01-21.74 21.79l-.52-.78a58 58 0 0019.5-24H53.29l-.47-1.56h21.69V84l5.4.62c-.15.78-.57 1.3-1.92 1.51v10.14h14.35l2.71-3.38s3 2.34 4.83 4.11c-.1.57-.62.83-1.35.83zM144 94.87c-.1.52-.72.83-2.08.93 4.42 6.14 13.27 11 22.31 13.53l-.05.83a4.25 4.25 0 00-3.22 3c-8.84-3.43-16.43-9.41-20-16.69-4.58 7.12-14.36 14.3-24.86 17.84l-.36-.78c9.41-4.11 19.44-13 22-20.08zm-27.44-3.17l-.31-1.46h13.62V84.1l5.15.52c-.05.73-.52 1.25-1.77 1.41v4.21h13.21V84.1l5.2.52c-.11.73-.57 1.25-1.82 1.41v4.21h6.91L159.3 87s2.81 2.34 4.37 3.9c0 .52-.57.78-1.3.78h-12.53V96c0 .37-1.2 1-2.86 1h-.52v-5.3h-13.21v4.52c0 .42-1.46.94-2.86.94h-.52V91.7zm2.44 37.13a37.09 37.09 0 0011.44-12.38l4.73 2.29c-.31.52-.78.78-1.92.52a36.93 36.93 0 01-13.73 10.24zm22.72-15.45v17.27c0 .36-1.5 1-2.7 1h-.73v-18.27H125.4l-.37-1.51h13.21v-7.07l5.1.52c-.16.68-.57 1.14-1.67 1.35v5.2h6.25l2.33-2.7s2.55 1.92 4.27 3.38c-.16.57-.68.83-1.4.83zm4.27 3.64c16 4.47 14.72 13.78 10.35 11.6-1.62-3.85-6.87-8.48-10.92-11.08zm55.53 9.62c12.74-2.23 18.87-8.79 18.87-18.2 0-9.26-6.86-15.18-15.44-15.18-.63 0-1.25 0-1.87.1a9.71 9.71 0 012.23 5.51 26.11 26.11 0 01-1.61 8.38c-2.18 6.24-8.22 16.32-13.52 16.32-3.48 0-7.12-5.51-7.12-11.9A20 20 0 01190 97.05a22.52 22.52 0 0115.19-5.56c10.71 0 19 7 19 17.78 0 8.64-5.41 17.48-22.42 18.57zm-.37-33a19.84 19.84 0 00-9.83 5.15 16.76 16.76 0 00-5.35 12c0 5 2.29 8.79 4.42 8.79 3.43 0 8.21-8.21 10.35-13.16a24.6 24.6 0 001.87-8 9 9 0 00-1.46-4.75zM242 96.48c10.61 1.51 8.42 8.79 4.73 6.66-.62-2.24-3.12-4.73-5.25-6.19zm14.4-.94c-2 5.93-5.93 16.91-6.6 19.19a17.63 17.63 0 00-.73 4.37c0 2.24 1.46 4.73 1.25 9-.11 2.18-1.09 3.53-2.81 3.53-1 0-1.51-.93-1.61-2.54.62-5.36.41-9.52-.73-10.25a4.54 4.54 0 00-2.55-.78v-1.14H245c.57 0 .78 0 1.3-1 .83-1.77.83-1.77 9.15-20.59zm-11.05-10.71c11.12 1.82 9 9.26 5.3 7.13-.88-2.29-3.64-5.15-5.82-6.66zm30.89 8.58a23.73 23.73 0 0014.45 10.82l-.1.57a3.78 3.78 0 00-2.13 3 22.71 22.71 0 01-4.89-2.91 3 3 0 01-.78.2v16.18c0 .36-1.67 1.09-2.71 1.09h-.52v-2.19h-7.28V126c0 1 .32 1.35 2.29 1.35h9.47a1.05 1.05 0 001-.68 54 54 0 001.56-7h.67l.21 7.23c1.14.36 1.46.78 1.46 1.4 0 1.56-1.72 2.14-9.62 2.14h-5.31c-4 0-5-.89-5-3.64v-6.56h-6.81v2.19c0 .26-1.09 1.09-2.71 1.09h-.46v-18.93a34.78 34.78 0 01-5.41 3.59l-.58-.57a37.16 37.16 0 0011.55-14.2H255l-.42-1.56h10.82A43.71 43.71 0 00268 84l5.62 1.35c-.16.57-.58.83-1.93.78a41 41 0 01-2.5 5.72h13.27l2.44-2.91s2.7 2 4.42 3.64c-.1.57-.62.83-1.35.83zm-7.86 0a40.12 40.12 0 01-7.22 9.31l1.71.73h6.19V98l4.94.57c-.1.68-.57 1.15-1.72 1.3v3.59h6.92l1.25-1.35a29.45 29.45 0 01-5.67-8.69zm-6.13 17.68h6.81V105h-6.81zm6.81 7.6v-6.09h-6.81v6.09zm10.5-13.69h-7.28v6.13h7.28zm0 13.73v-6.13h-7.28v6.09zm75.82.84c-2.28 3.22-6.24 6.45-10.66 6.45-3.69 0-6.24-2.24-6.24-6.81 0-5.78 2.19-11.81 2.19-17.42 0-3.28-.94-5-3.54-5-4.42 0-10.5 4.68-15.7 10.35a107.63 107.63 0 00.52 15.34c.1 1.3.26 2.39.26 3.54 0 1.77-.73 4.21-2.19 4.21-.93 0-1.45-.57-1.71-1.77a16.58 16.58 0 00-.89-3.27 44.15 44.15 0 00-3.84-6.76l-3.38 4.73c-.63.88-1.1 1.56-1.88 1.56s-1.35-.78-1.35-1.82a3.35 3.35 0 011.09-2.6 129.43 129.43 0 0011.39-14.77c.16-1.51.26-2.91.47-4.32-1.77.94-3.59 2-4.89 2.71-1.09.67-1.61 1.87-2.49 1.87-1.51 0-3.75-2-4.27-3.69a6.86 6.86 0 01-.21-2.29l.94-.26c.78 1.56 1.56 2.44 2.5 2.44 1.3 0 6.65-2.55 8.78-3.69.42-3.33.78-6 .84-7.54 0-1.2-.26-1.4-1.2-1.77a22.31 22.31 0 00-2.76-.73l-.05-1a9.69 9.69 0 013.17-.57c2.14 0 4.79 2.29 4.79 3.8 0 1.09-.63 1.56-1.2 3.64-.26.78-.62 2.13-1 3.85.83.57 1.87 1.56 1.87 2.08s-.57 1-1.19 1.87a21 21 0 00-1.67 2.18c4.94-4.47 11.08-9.2 16.38-9.2 3.59 0 5.83 2.18 5.83 7 0 4.06-2.24 11.49-2.24 16.8 0 2.8 1.2 4 3.69 4 3.44 0 5.93-1.25 8.95-4zm-36.24-9.26c-1.4 2.19-3.12 4.58-4.73 6.92 1.45 2 3.33 4.52 4 5.41.47.52.73.47.73-.37.1-2.49-.14-7.27 0-11.96zm90.53-19.6s3 2.29 4.79 4c-.16.57-.58.78-1.36.78H388c-.26 3.38-.57 6.55-1.09 9.57H402l2.08-2.13 3.95 3.33a3.36 3.36 0 01-2.13.83c-.58 10.92-2 20.12-4.53 22.46a8.49 8.49 0 01-6.19 2.08 2.59 2.59 0 00-1.14-2.49c-.94-.63-3.85-1.25-6.29-1.67v-.88c2.81.26 7.8.73 9.1.73a2.65 2.65 0 002.18-.68c1.77-1.46 2.91-10 3.43-20h-15.88c-2.18 11-7.12 19.34-18.92 25.17l-.47-.68c12.74-8.63 16.07-20.23 16.69-35.62h-16.59l-.41-1.51h21.89V84l5.35.57c-.1.73-.62 1.25-1.87 1.4V94h14.82z" fill="#fff" data-name="レイヤー 1"/></g></svg>