<svg xmlns="http://www.w3.org/2000/svg" viewBox="0 0 187.72 29.2"><g data-name="レイヤー 2"><path d="M0 28.52a6.26 6.26 0 00.49-.93A7 7 0 00.92 26c.14-.92.3-1.94.48-3.08s.35-2.34.54-3.58.38-2.53.57-3.84.37-2.6.55-3.87.34-2.45.5-3.63.31-2.26.44-3.23.24-1.83.33-2.55L4.51.59H7l12.29 23 12.17-23h1.86l3.2 23.2c.09.73.19 1.35.3 1.87s.2 1 .31 1.34a7.68 7.68 0 00.3.92 5.86 5.86 0 00.28.6v.07h-4.92v-.07a3.12 3.12 0 00.19-.71 6.47 6.47 0 00.09-1.17v-.52c0-.18 0-.36-.06-.57l-2.5-18.71L19 28.52l-1.34-.16L6 6.64q-.69 4.64-1.2 8.56c-.14 1.12-.28 2.23-.43 3.34S4.14 20.7 4 21.66s-.2 1.81-.26 2.55-.1 1.28-.1 1.63v1.17c0 .34 0 .63.08.86s.08.52.12.72H0zm68.68.07v-.07a1 1 0 00.06-.3 2.18 2.18 0 000-.35 6.16 6.16 0 00-.16-1.34 11.25 11.25 0 00-.58-1.82l-2.4-5.32H53.2L51 24.55c-.2.48-.4 1-.62 1.58a4.68 4.68 0 00-.38 1.74 2.3 2.3 0 000 .42.83.83 0 00.08.23v.07h-4v-.07A7.42 7.42 0 0047 27.2c.36-.63.74-1.43 1.16-2.38L59.35 0h1.56l10.61 23.87c.24.56.5 1.1.77 1.63s.52 1 .75 1.41.44.77.63 1.06a5.25 5.25 0 00.37.55v.07zM56 17.68h8.77L59.31 5.2l-5.39 12.48zm27.64 10.84a10.28 10.28 0 00.22-1c.07-.4.14-.9.19-1.5s.09-1.32.12-2.14 0-1.8 0-2.9V5.34c0-.83-.07-1.54-.12-2.15s-.12-1.11-.19-1.51a10.28 10.28 0 00-.22-1V.59h4.69v.07a10 10 0 00-.23 1 14.62 14.62 0 00-.17 1.51c-.05.61-.09 1.33-.12 2.15s0 1.8 0 2.9v4.38l11.36-9.32c1.27-1 1.91-1.94 1.91-2.69h5.49v.07a7.53 7.53 0 00-2.34 1 27.69 27.69 0 00-2.51 1.88L91.65 12l12.13 13.32c.5.52.94 1 1.29 1.3s.68.63 1 .86a8.81 8.81 0 00.75.57l.72.44v.07h-5.73a4.28 4.28 0 00-.26-.45 6.48 6.48 0 00-.43-.56c-.16-.2-.34-.4-.53-.61l-.53-.58L87.76 13v10.9c0 .83.07 1.54.12 2.14a14.39 14.39 0 00.17 1.5 10 10 0 00.23 1v.07h-4.64zM121.53.57h4.43c1.34 0 2.48-.05 3.43-.09a14.94 14.94 0 001.94-.16l-1 2.6a13.51 13.51 0 00-1.5-.31c-.5-.08-1.1-.15-1.81-.23s-1.53-.1-2.45-.1h-1.13l-1.26.06-1.42.08v10.65q2 0 3.63-.12c1.08-.07 2-.13 2.76-.2s1.66-.17 2.34-.27l-.61 2.83c-.89-.11-1.81-.23-2.75-.33s-1.69-.17-2.64-.24-1.86-.11-2.73-.11v12.25c1.53 0 3-.07 4.24-.2s2.41-.28 3.38-.45c1.12-.18 2.14-.4 3.06-.64l-.56 3.16h-14.19v-.07a10.28 10.28 0 00.22-1c.07-.4.14-.9.19-1.5s.09-1.32.12-2.14 0-1.8 0-2.9V5.34c0-.83-.07-1.54-.12-2.15s-.12-1.11-.19-1.51a10.28 10.28 0 00-.22-1V.59zM147.61 21v2.9c0 .83.07 1.54.11 2.14s.11 1.1.18 1.5.15.74.22 1v.07h-4.68v-.07a10.28 10.28 0 00.22-1q.1-.6.18-1.5c0-.6.08-1.31.11-2.13s.05-1.79.05-2.91V8.24c0-1.1 0-2.07-.05-2.9s-.07-1.54-.11-2.14-.11-1.1-.18-1.51a9.94 9.94 0 00-.22-1v-.1l.82.07a6.73 6.73 0 00.83 0h.94a16 16 0 002.07-.18 23.06 23.06 0 013.31-.19 11.26 11.26 0 013.46.51 8.18 8.18 0 012.77 1.48 6.66 6.66 0 011.82 2.4 7.49 7.49 0 01.71 3.32 9 9 0 01-.36 2.61 8.17 8.17 0 01-1 2.17 7.84 7.84 0 01-1.57 1.73 9.25 9.25 0 01-2.05 1.26l6.81 9.58c.34.48.66.9.95 1.25a9.61 9.61 0 00.84.91 5.65 5.65 0 00.77.62 3.65 3.65 0 00.76.39v.07h-5.62a3.72 3.72 0 00-.38-1 12.14 12.14 0 00-.75-1.22l-6.92-9.75-.9.07h-2.02a11.05 11.05 0 01-1.12-.14zm0-5.92a9.53 9.53 0 001.07.17h1.06a7.59 7.59 0 002.67-.44 5.13 5.13 0 002.06-1.33 6.13 6.13 0 001.32-2.24 9.54 9.54 0 00.47-3.13 9.93 9.93 0 00-.33-2.66 5.61 5.61 0 00-1-2 4.21 4.21 0 00-1.65-1.29 5.43 5.43 0 00-2.28-.48 13.4 13.4 0 00-2.15.14 7.19 7.19 0 00-1.21.29zM186 5h-.43a5.25 5.25 0 00-.5-1 4.88 4.88 0 00-.9-1.06A4.6 4.6 0 00181 1.8a4.52 4.52 0 00-1.7.29 3.33 3.33 0 00-2 2.07 4.8 4.8 0 00-.25 1.6 5 5 0 00.79 2.69 15.74 15.74 0 002 2.53c.79.83 1.65 1.66 2.58 2.5a35 35 0 012.58 2.59 15.07 15.07 0 012 2.83 6.57 6.57 0 01.79 3.17 7.86 7.86 0 01-.44 2.55 6.51 6.51 0 01-1.36 2.29 6.75 6.75 0 01-2.36 1.65 8.42 8.42 0 01-3.44.64A10.37 10.37 0 01178 29a12.72 12.72 0 01-1.85-.5 12.32 12.32 0 01-1.53-.66 11.67 11.67 0 01-1.1-.64l.45-4.32h.49a6 6 0 00.7 1.75 6.28 6.28 0 001.2 1.46 5.6 5.6 0 001.63 1 5.25 5.25 0 002 .38 5 5 0 001.79-.3 4 4 0 001.36-.84 3.64 3.64 0 00.87-1.28 4.32 4.32 0 00.3-1.62 5.73 5.73 0 00-.45-2.28 8.93 8.93 0 00-1.18-2 16.46 16.46 0 00-1.68-1.79c-.62-.58-1.25-1.17-1.91-1.76s-1.28-1.21-1.9-1.83a14.93 14.93 0 01-1.66-2 10.13 10.13 0 01-1.18-2.29 7.69 7.69 0 01-.45-2.68 6.34 6.34 0 01.6-2.79 6.65 6.65 0 011.58-2.12 7 7 0 012.26-1.34 7.18 7.18 0 012.58-.47 10.08 10.08 0 011.8.15 11.16 11.16 0 011.47.38 10.46 10.46 0 011.15.43l.8.35z" fill="#fff" data-name="レイヤー 1"/></g></svg>