<svg xmlns="http://www.w3.org/2000/svg" viewBox="0 0 100.81 14.54"><g data-name="レイヤー 2"><path d="M9.69 7.54H2.06v4.35c0 .45 0 .77.06 1.07s.06.55.09.75.07.37.11.51H0a4 4 0 00.11-.51c0-.2.07-.45.1-.75s0-.66.05-1.07 0-.9 0-1.45V2.61c0-.45 0-.77-.05-1.07S.15 1 .11.78A4 4 0 000 .27h2.34c0 .14-.07.31-.11.51s-.06.46-.09.76 0 .66-.06 1.07 0 .9 0 1.45v2.5h2.48L6 6.57h3.68V2.61c0-.45 0-.77-.06-1.07s0-.56-.08-.76-.1-.37-.14-.51h2.35a4 4 0 00-.11.51c0 .2-.07.46-.1.76s0 .66-.06 1.07 0 .9 0 1.45v7.81c0 .45 0 .77.06 1.07s.06.55.1.75a4 4 0 00.11.51H9.4q.06-.21.12-.51c0-.2.06-.45.08-.75s.05-.66.06-1.07 0-.9 0-1.45zM24.53 0a8.39 8.39 0 013 .53A7.08 7.08 0 0129.93 2a6.81 6.81 0 011.57 2.34 7.52 7.52 0 01.57 3 7.51 7.51 0 01-.22 1.83 7.07 7.07 0 01-.63 1.7 6.73 6.73 0 01-1 1.48 6.48 6.48 0 01-1.38 1.17 6.62 6.62 0 01-1.71.77 7 7 0 01-2 .28 8.42 8.42 0 01-3-.52 7 7 0 01-2.39-1.48 6.86 6.86 0 01-1.57-2.3 7.57 7.57 0 01-.56-3 8 8 0 01.21-1.83 7.31 7.31 0 01.63-1.71 6.9 6.9 0 011-1.49 6.77 6.77 0 011.37-1.18A6.54 6.54 0 0122.5.28 7 7 0 0124.53 0zm.55 13.66a4.94 4.94 0 002-.39 4.31 4.31 0 001.54-1.13 5.4 5.4 0 001-1.81A7.62 7.62 0 0030 7.9a10.77 10.77 0 00-.35-2.79 6.59 6.59 0 00-1-2.22 4.93 4.93 0 00-1.7-1.48 5.15 5.15 0 00-2.42-.53 5.06 5.06 0 00-2 .38A4.32 4.32 0 0021 2.38a5.08 5.08 0 00-1 1.8 7.55 7.55 0 00-.36 2.42A10.77 10.77 0 0020 9.39a6.88 6.88 0 001 2.24 5 5 0 001.71 1.49 5.06 5.06 0 002.37.54zM47 2.08l3.91 9.48 3.8-9.3a9.41 9.41 0 00.33-1 2.87 2.87 0 00.11-.66 1.09 1.09 0 000-.18 1.3 1.3 0 000-.15H57a3 3 0 00-.42.69c-.15.31-.33.7-.53 1.16l-5.18 12.42h-.74l-3.8-9.22-3.47 9.22h-.73L37.35 2.6 37 1.79c-.12-.26-.23-.5-.34-.71l-.3-.52c-.09-.15-.16-.24-.19-.29h2.7a1.49 1.49 0 000 .17v.14a4.48 4.48 0 00.07.7 5.38 5.38 0 00.29.9l3.67 9.28 3.51-9.34zm28-.99a18.68 18.68 0 00-2.08.11c-.61.06-1.15.14-1.6.22a12.55 12.55 0 00-1.32.32l.23-1.58h11.38l.28 1.58a13.54 13.54 0 00-1.41-.32c-.45-.08-1-.16-1.6-.22a18.55 18.55 0 00-2.08-.11v10.78c0 .45 0 .77.06 1.07s0 .55.08.75.08.37.11.51h-2.3a4 4 0 00.11-.51q0-.3.09-.75v-2.52zM93.27 0a8.48 8.48 0 013 .53A7 7 0 0198.67 2a6.83 6.83 0 011.58 2.31 7.7 7.7 0 01.56 3 8 8 0 01-.21 1.83 7.28 7.28 0 01-1.6 3.18 7 7 0 01-1.38 1.17 6.54 6.54 0 01-1.72.77 6.9 6.9 0 01-2 .28 8.38 8.38 0 01-3-.52 7 7 0 01-2.39-1.48 6.86 6.86 0 01-1.57-2.3 7.57 7.57 0 01-.57-3 7.51 7.51 0 01.22-1.83 7.31 7.31 0 01.63-1.71 6.77 6.77 0 012.39-2.67 6.54 6.54 0 011.64-.75A7 7 0 0193.27 0zm.56 13.66a4.93 4.93 0 002-.39 4.34 4.34 0 001.55-1.13 5.38 5.38 0 001-1.81 7.62 7.62 0 00.36-2.43 10.77 10.77 0 00-.34-2.79 6.78 6.78 0 00-1-2.22 5 5 0 00-1.71-1.48 5.49 5.49 0 00-4.36-.15 4.4 4.4 0 00-1.55 1.12 5.24 5.24 0 00-1 1.8 7.55 7.55 0 00-.36 2.42 11.22 11.22 0 00.34 2.79 6.69 6.69 0 001 2.24 4.81 4.81 0 001.71 1.49 5 5 0 002.36.54z" fill="#fff" data-name="レイヤー 1"/></g></svg>