<svg xmlns="http://www.w3.org/2000/svg" viewBox="0 0 81.65 14.6"><g data-name="レイヤー 2"><path d="M11.28 14.3a1 1 0 000-.15 1 1 0 000-.17 3.3 3.3 0 00-.08-.67 6.86 6.86 0 00-.32-.92L9.74 9.7h-6.2l-1.13 2.58c-.1.24-.2.5-.31.79a2.36 2.36 0 00-.17.87 1.25 1.25 0 000 .21v.11H0a4.09 4.09 0 00.44-.66c.18-.32.37-.71.58-1.19L6.61 0h.78l5.31 11.93a14.601 14.601 0 001.07 2.05 1.75 1.75 0 00.19.28zM5 8.84h4.34L6.59 2.6 3.9 8.84zm14-4.72V1.6c0-.3-.1-.6-.13-.76s-.07-.37-.11-.51h1.3a8 8 0 001-.07c.4 0 .91-.06 1.55-.06a5.29 5.29 0 011.62.23 4 4 0 011.28.65 3.14 3.14 0 01.85 1.06 3.3 3.3 0 01.31 1.43 3.49 3.49 0 01-.19 1.21 2.91 2.91 0 01-.52.93 3.08 3.08 0 01-.81.66 4.83 4.83 0 01-1 .43 5.77 5.77 0 011.51.42 4.25 4.25 0 011.09.78 3.14 3.14 0 01.76 1 3.19 3.19 0 01.27 1.33 3.61 3.61 0 01-1.36 3.09 6.64 6.64 0 01-4.06 1h-1.48l-.8-.06h-1.32c0-.14.07-.31.11-.51s.07-.45.09-.75.05-.66.06-1.07 0-.9 0-1.45zm1.78 2.52h.94A3.63 3.63 0 0023 6.49a2.59 2.59 0 00.93-.57 2.57 2.57 0 00.6-1 3.93 3.93 0 00.21-1.34 4.16 4.16 0 00-.15-1.15 2.47 2.47 0 00-.47-.88 1.9 1.9 0 00-.77-.55 2.56 2.56 0 00-1-.2 6.18 6.18 0 00-.65 0 4.34 4.34 0 00-.47.07 1.6 1.6 0 00-.38.1zm1.8.73h-1.11c-.3 0-.53.07-.69.1v4.88c0 .49.06.9.1 1.21l.75.09a4.83 4.83 0 00.59 0 3.74 3.74 0 002.78-.76 3.33 3.33 0 00.85-2.51 3.57 3.57 0 00-.2-1.21A2.55 2.55 0 0024 7.59a4.2 4.2 0 00-1.38-.22zM40 .06a8.44 8.44 0 013 .53 7.17 7.17 0 012.38 1.49 7 7 0 011.58 2.31 7.79 7.79 0 01.56 3 8 8 0 01-.21 1.83 7.7 7.7 0 01-.63 1.7 7.5 7.5 0 01-1 1.48 7 7 0 01-1.38 1.17 6.54 6.54 0 01-1.72.77 6.9 6.9 0 01-2 .28 8.38 8.38 0 01-3-.52 7 7 0 01-2.39-1.48 6.72 6.72 0 01-1.57-2.3 7.59 7.59 0 01-.57-3 7.49 7.49 0 01.22-1.82 7.31 7.31 0 01.63-1.71 6.77 6.77 0 012.39-2.67 6.54 6.54 0 011.65-.78A7 7 0 0140 .06zm.56 13.66a4.93 4.93 0 002-.39 4.34 4.34 0 001.55-1.13 5.38 5.38 0 001-1.81A7.66 7.66 0 0045.42 8a10.77 10.77 0 00-.34-2.79 7.05 7.05 0 00-1-2.23 4.93 4.93 0 00-1.71-1.47A5.49 5.49 0 0038 1.32a4.4 4.4 0 00-1.55 1.12 5.24 5.24 0 00-1 1.8 7.51 7.51 0 00-.36 2.42 10.77 10.77 0 00.34 2.79 6.69 6.69 0 001 2.24 4.81 4.81 0 001.71 1.49 5 5 0 002.38.54zm22.76-9.6V2.67c0-.45 0-.77-.06-1.07a5.89 5.89 0 00-.09-.76c0-.2-.07-.37-.1-.51h1.73c0 .14-.07.31-.11.51s-.06.45-.09.76 0 .66 0 1.07v6.72a6.29 6.29 0 01-.4 2.39 4.37 4.37 0 01-1.2 1.61 4.42 4.42 0 01-1.71.92 7.93 7.93 0 01-2.18.29 8.56 8.56 0 01-2.2-.27 4.89 4.89 0 01-1.78-.89 4.16 4.16 0 01-1.19-1.58 6 6 0 01-.43-2.37V2.67c0-.45 0-.77-.06-1.07s-.06-.56-.1-.76a4 4 0 00-.11-.51h2.35q-.06.21-.12.51c0 .2-.06.45-.09.76s0 .66-.06 1.07 0 .9 0 1.45V9.6a4.67 4.67 0 00.35 1.92 3.29 3.29 0 00.91 1.2 3.36 3.36 0 001.29.62 6.13 6.13 0 003 0 3.25 3.25 0 001.28-.62 3.19 3.19 0 00.91-1.2 4.67 4.67 0 00.35-1.92zm11.46-2.97c-.77 0-1.46 0-2.08.1s-1.15.15-1.6.22-1 .21-1.4.33L70 .21h11.37l.29 1.59q-.63-.18-1.41-.33c-.45-.07-1-.15-1.6-.22s-1.31-.1-2.08-.1v10.78c0 .45 0 .77.06 1.07a5.94 5.94 0 00.09.75 4 4 0 00.11.51h-2.32a4.19 4.19 0 00.1-.51 5.94 5.94 0 00.09-.75c0-.3 0-.66.06-1.07s0-.9 0-1.45z" fill="#fff" data-name="レイヤー 1"/></g></svg>