<svg xmlns="http://www.w3.org/2000/svg" viewBox="0 0 283.13 23.89"><g data-name="レイヤー 2"><path d="M8.11 13.86a15.81 15.81 0 017.2-2c3 0 5.13 1.87 5.13 4.75 0 2.66-2 4.81-5.28 4.81a6 6 0 01-4.89-2.59l.42-.42a6.39 6.39 0 004.1 1.59c2.58 0 4-1.64 4-3.69s-1.25-3.46-4-3.46c-2.16 0-4.58 1.09-6.63 2.26.1 3.54.39 4.5.39 5.43 0 1.17-.7 2.37-1.48 2.37-.6 0-.65-.8-1.49-1.56A31.15 31.15 0 002.8 19.3c-.8.7-1.14.9-1.5.9a1.25 1.25 0 01-.83-.44A1.43 1.43 0 010 18.69c0-.59.16-.8.73-.75a1.9 1.9 0 001.48-.29c1-.57 3-2.15 4.73-3.14v-5a14 14 0 01-2.86.49C2.81 10 1.72 9.72.65 7.36L1.09 7c1.33 1.3 1.72 1.56 3.1 1.51a12.74 12.74 0 002.75-.47V3.75c0-.62-.1-.68-.52-.81a5.16 5.16 0 00-1.64-.18l-.07-.49a3.9 3.9 0 011.82-.5c1 0 2.65.84 2.65 1.46s-.39 1-.57 1.85a18 18 0 00-.32 2.54c2-.75 2.89-1.61 3.44-1.63s1.14.1 1.17.67-.29.76-.84 1a29.22 29.22 0 01-3.84 1.47c-.08 1.17-.11 2.41-.11 3.61zm-1.17 2a30 30 0 00-3.66 3c1 .49 2.13 1.09 2.93 1.45.55.24.73 0 .73-.46zM14.77 5a8.88 8.88 0 013.46-.13c2 .39 3.87 2.11 3.95 3.75 0 .52-.16 1-.65 1s-.83-.54-1.67-.39a9.86 9.86 0 00-2 .78l-.28-.47a18 18 0 002.08-1.43c.28-.31.31-.52 0-.93-1-1.46-3-1.64-4.86-1.51zm27.89-2.84a4 4 0 011.77-.55c1.06 0 2.67.57 2.67 1.22s-.39 1-.44 1.67v1.48c4.29-.47 6-.7 6.5-.7.91 0 2.26.49 2.26 1.32 0 .47-.23.68-.73.68a33.37 33.37 0 00-8-.18v4a5 5 0 011.09 3.51c0 4.76-3.59 7.67-8.61 8.92l-.34-.65c3.18-1.17 5.78-3 6.71-5.56-2.55 1.17-4.63-.84-4.63-3.49a3.46 3.46 0 013.41-3.66 4.54 4.54 0 011.07.13c0-.78-.08-1.9-.13-3.07a57.09 57.09 0 00-6.94 1.27 14.23 14.23 0 01-2.32.7 3.51 3.51 0 01-2.37-1.89 5.26 5.26 0 01-.26-1.56l.5-.19c.57.86 1.06 1.69 2 1.69s6.32-.78 9.38-1.11c0-.94-.07-1.82-.13-2.47s-.18-.68-.59-.81a10.75 10.75 0 00-1.72-.18zM46 13.78c0-1.69-.83-2.55-1.95-2.55a2.26 2.26 0 00-2.13 2.47A2.25 2.25 0 0044 16.2c1.34 0 2-.63 2-2.42zM76.05 2.16a4 4 0 011.77-.55c1.07 0 2.68.57 2.68 1.22s-.39 1-.44 1.67C80 4.84 80 5.36 80 6c4.29-.47 6-.7 6.5-.7.92 0 2.27.49 2.27 1.32 0 .47-.24.68-.73.68a33.48 33.48 0 00-8-.18v4a4.91 4.91 0 011.09 3.51c0 4.76-3.58 7.67-8.6 8.92l-.34-.65c3.17-1.17 5.77-3 6.71-5.56-2.55 1.17-4.63-.84-4.63-3.49a3.45 3.45 0 013.41-3.66 4.52 4.52 0 011.06.13c0-.78-.08-1.9-.13-3.07a57.47 57.47 0 00-6.9 1.25 14.23 14.23 0 01-2.37.7A3.49 3.49 0 0167 7.31a5 5 0 01-.26-1.56l.49-.19c.57.86 1.07 1.69 2 1.69s6.32-.78 9.39-1.11c0-.94-.08-1.82-.13-2.47s-.18-.68-.6-.81a10.75 10.75 0 00-1.72-.18zm3.36 11.62c0-1.69-.83-2.55-2-2.55a2.27 2.27 0 00-2.14 2.47 2.25 2.25 0 002.11 2.5c1.35 0 2.03-.63 2.03-2.42zm33.14-7.28c4.58.47 7.28 3.67 7.28 7.59s-2.6 8-11.75 8.53L108 22c8.06-1.33 10-4.94 10-8.3a6.28 6.28 0 00-5.78-6.19 35.79 35.79 0 01-2.28 5.33c-.5.91-.94 1.72-1.38 2.4.15.07.28.18.44.26.49.26.94.59.94 1.11s-.34.68-.81.68a3 3 0 01-1.59-.68 12.85 12.85 0 01-2.1 2 6 6 0 01-3.69 1.48c-1.51 0-2.19-1.54-2.19-3.12a10.61 10.61 0 013.8-7.59c-.18-.63-.37-1.23-.55-1.72a7 7 0 00-2.36-2.83l.33-.37a6.34 6.34 0 011.75.76 3.65 3.65 0 011.79 2.1c.08.31.18.73.29 1.15a11.54 11.54 0 016.37-2 19.9 19.9 0 00.54-2.6c0-.6-.23-.76-.7-.89a5.8 5.8 0 00-1.59-.18v-.54a4 4 0 011.51-.37c1.2 0 2.91 1 2.91 1.69 0 .52-.39.89-.62 1.59zm-6.16 9.1a11.63 11.63 0 01-1.79-2.78 22.06 22.06 0 01-.89-2.32 9.39 9.39 0 00-2.81 5.78c0 1.45.52 2 1.25 2a3.79 3.79 0 002.55-1.07 9.34 9.34 0 001.69-1.61zm4.26-8.11a9.92 9.92 0 00-5.79 2 14.79 14.79 0 001.11 3 7.28 7.28 0 001.41 1.85 14.23 14.23 0 001.3-2.11 31.16 31.16 0 001.97-4.74zm30.52 13.86c6.37-1.12 9.44-4.4 9.44-9.1a7.38 7.38 0 00-7.72-7.6c-.32 0-.63 0-.94.06a4.83 4.83 0 011.12 2.75 13 13 0 01-.81 4.19c-1.09 3.12-4.11 8.16-6.76 8.16-1.74 0-3.56-2.75-3.56-5.95a10 10 0 013.46-7.31 11.22 11.22 0 017.6-2.78c5.36 0 9.49 3.51 9.49 8.89 0 4.32-2.7 8.74-11.21 9.28zM141 4.86a10 10 0 00-4.92 2.58 8.35 8.35 0 00-2.67 6c0 2.5 1.14 4.4 2.21 4.4 1.71 0 4.1-4.11 5.17-6.58a12.4 12.4 0 00.94-4 4.57 4.57 0 00-.73-2.4zm24.66-.1c.73 2.62.42 4.76-.15 5.69-.42.65-1.33.94-1.72.47a1.15 1.15 0 01.29-1.48 8.22 8.22 0 001.11-4.71zm4.06-4.42c-.08.36-.29.62-.94.73v22.18c0 .23-.67.62-1.3.62h-.31V0zm-.21 3.87c3.51 2.06 1.85 4.76.6 3.51a7.43 7.43 0 00-1-3.38zM180.56.78c-.08.29-.31.42-1 .47a19.83 19.83 0 008.58 6.26l-.05.34a2.09 2.09 0 00-1.27 1.64 19.36 19.36 0 01-7.62-8 25.14 25.14 0 01-9.2 8.39l-.18-.34a25.36 25.36 0 008-9.51zm-3.28 8.79l2 1.48a1.77 1.77 0 01-1 .49v9.81c0 1.32-.21 2.1-2 2.31a1.86 1.86 0 00-.33-1.2 2.17 2.17 0 00-1.33-.57v-.41s1.43.1 1.77.1.39-.1.39-.44v-3.28h-3.56v5.26c0 .18-.6.54-1.25.54h-.26V9.75l1.61.75h3.22zm-4.1 1.71v2.6h3.56v-2.6zm3.56 5.8v-2.47h-3.56v2.47zM181 6s1.33 1 2.16 1.79c-.08.26-.31.39-.68.39h-7.87l-.19-.75h5.46zm1 13.55c0 .18-.65.52-1.17.52h-.29v-9.59l2.37.28c-.06.34-.29.58-.91.65zm2.49-9.83L187 10c0 .36-.31.57-.91.67v10.7c0 1.35-.26 2.16-2.42 2.39a1.83 1.83 0 00-.49-1.19 3.83 3.83 0 00-1.9-.63v-.39s2.24.16 2.71.16.54-.13.54-.49zM199.46 3v-.5a7.56 7.56 0 011.69-.19c1.22.06 3 1.38 3 2.11 0 .55-.5.73-.73 2a68 68 0 00-.86 10.19c0 3.3 1 4.55 3.82 4.55a12.1 12.1 0 009.86-5.56l.57.39a11.62 11.62 0 01-10.43 6.91c-3.48 0-5.28-1.68-5.28-6.13 0-4 .63-10.14.63-11.65 0-.94-.16-1.22-.6-1.48a5.24 5.24 0 00-1.67-.64zm45.27 6.78a3.59 3.59 0 011.38-.16c.8.1 1.85.73 1.85 1.22s-.14.83-.21 1.43-.24 1.43-.45 2.34a14.1 14.1 0 012.87 2.06 1.87 1.87 0 01.62 1.5.67.67 0 01-.73.73c-.65 0-1.35-1.09-3.3-2.49-1.46 3.59-4.66 5.95-9.39 7l-.39-.6c4.14-1.28 7.1-3.9 8.4-7.36A15.09 15.09 0 00236.8 13h-.05c-1.15 2.18-2.47 5-3.23 6.06s-1.56 1.82-2.75 1.82c-1.46 0-2.26-2.21-1.9-4.06.55-2.52 3.61-4.31 6.94-4.78l.13-.24c1.22-2.23 3.56-6 4.19-7.17.21-.42.08-.55-.26-.44-.94.31-2.55.93-3.54 1.35-.44.18-.8.6-1.27.6A2.88 2.88 0 01233 4.47a4.57 4.57 0 01-.15-1.38l.49-.15c.39.7.65 1.35 1.4 1.35a24 24 0 004.61-1c.91-.29 1-.7 1.45-.7.7 0 2.19 1 2.19 1.64s-.94.8-1.51 1.5a62.89 62.89 0 00-4.06 6.14l-.05.1h.13a20.09 20.09 0 018.43 1.93 8.13 8.13 0 00.23-2.42.76.76 0 00-.42-.81 3.89 3.89 0 00-1-.36zm-9.52 3.35c-2.78.42-4.91 1.92-5.35 3.59-.29 1.12.23 2.29.93 2.29s1-.37 1.62-1.15 1.82-2.96 2.8-4.73zm45.53-9.75s1.51 1.14 2.39 2c-.08.28-.28.39-.67.39H269.9c-.13 1.69-.29 3.27-.55 4.78h7.54l1-1.07 2 1.67a1.58 1.58 0 01-1.07.41c-.28 5.46-1 10.07-2.26 11.24a4.29 4.29 0 01-3.09 1 1.3 1.3 0 00-.57-1.25 11.64 11.64 0 00-3.15-.83v-.45c1.4.13 3.9.37 4.55.37a1.3 1.3 0 001.09-.34c.88-.73 1.46-5 1.72-10h-7.91c-1.1 5.51-3.57 9.67-9.47 12.58l-.23-.33c6.37-4.32 8-10.12 8.34-17.81h-8.29l-.21-.74h11V0l2.66.29c-.05.36-.32.62-.94.7V5h7.41z" fill="#fff" data-name="レイヤー 1"/></g></svg>