<svg xmlns="http://www.w3.org/2000/svg" viewBox="0 0 200 33.09"><g data-name="レイヤー 2"><path d="M9.53 12.2A19.41 19.41 0 0113 13c.67.22 1.11-.45 1.32-.9a.09.09 0 01.17 0l.16 5.63a.09.09 0 01-.17 0 8 8 0 00-5-5.47.09.09 0 01.05-.06zm-5 20.49c-2.26-.93-3.21-1.94-4.15-5.32a.09.09 0 00-.17 0l.37 5.11a.09.09 0 00.16 0 1.08 1.08 0 011.07-.62 24.13 24.13 0 002.66.93.09.09 0 00.05-.1zM.18 16.07c-1 3.93 2.51 5.86 6.43 7.44s5 3.07 4.67 5.59a4.31 4.31 0 01-3.42 3.68.09.09 0 000 .17c4-.2 7.58-1.54 8-5.32.34-3.33-2-5.66-5.71-7.26C7.61 19.26 3.83 17.62 4 15a3 3 0 012.44-2.67.09.09 0 000-.17c-1.66.05-5.39.55-6.26 3.91zm30.7 16.25c-1-.3-1.58-.94-1.58-2.62V.09a.09.09 0 00-.09-.09L22 .67a.09.09 0 000 .17c2.09.22 2.84 1 2.84 3.49V29.7c0 1.68-.57 2.32-1.58 2.62a.09.09 0 000 .17h7.59a.09.09 0 00.03-.17zm12.94 0c-1-.3-1.58-.94-1.58-2.62V18.94c0-3.78-.79-6.65-5-7.09a7.25 7.25 0 00-6 2.65.09.09 0 00.12.12 4.74 4.74 0 013.64-.73c2.59.59 2.82 3 2.82 5.05V29.7c0 1.68-.57 2.32-1.58 2.62a.09.09 0 000 .17h7.58a.09.09 0 000-.17zm62.78 0c-1-.3-1.58-.94-1.58-2.62V.09a.09.09 0 00-.09-.09l-7.22.67a.09.09 0 000 .17c2.09.22 2.84 1 2.84 3.49V29.7c0 1.68-.57 2.32-1.58 2.62a.09.09 0 000 .17h7.59a.09.09 0 00.04-.17zm12.94 0c-1-.3-1.58-.94-1.58-2.62V18.94c0-3.78-.79-6.65-5-7.09a7.25 7.25 0 00-6 2.65.09.09 0 00.12.12 4.74 4.74 0 013.57-.73c2.59.59 2.82 3 2.82 5.05V29.7c0 1.68-.57 2.32-1.58 2.62a.09.09 0 000 .17h7.58a.09.09 0 00.07-.17zm-48.77-.77c-2.09-.22-2.84-1-2.84-3.49V12.21a.08.08 0 00-.09-.08l-6 .25a.09.09 0 000 .17c1.07.29 1.68.92 1.68 2.65v17.1a.09.09 0 00.1.09l7.21-.67a.09.09 0 00-.06-.17zm-9.39-1.27a4.68 4.68 0 01-3.56.73C55.22 30.43 55 28 55 26V12.21a.08.08 0 00-.09-.08l-6 .25a.09.09 0 000 .17c1.06.29 1.67.92 1.67 2.65V26c0 3.78.79 6.65 5 7.1a7.25 7.25 0 006-2.65c-.01-.11-.11-.22-.2-.17zm84.26-.2a2.31 2.31 0 01-2.2 1 1.93 1.93 0 01-1.44-2.21v-9.93c0-4.09-1.11-6.36-5.22-7a11.41 11.41 0 00-4.22.12.09.09 0 000 .17 7 7 0 012.75.39c2.23.86 2.19 3.3 2.19 6.29v9.69c0 1.95.78 4 3.61 4.31a4.48 4.48 0 004.67-2.74.09.09 0 00-.14-.09zm-18.46-13.69a2.35 2.35 0 004.62-.82 2.35 2.35 0 00-1.48-1.78c-.41-.19-.35-.47-.21-.67A.09.09 0 00130 13a6.49 6.49 0 00-2 1.19l-.16.15a2.35 2.35 0 00-.66 2.05zm8.89 12.93c-.83.7-2.37 1.79-3.57 1.44-1.78-.5-2.18-2.9-1.5-5.46.76-2.86 2.49-3.93 4.94-4.92.09 0 .06-.19 0-.17-4 .63-8.89 1.68-9.6 7-.52 3.83 1.68 5.73 4 5.73 2.77 0 4.93-2.33 5.84-3.51.07-.07-.03-.18-.11-.11zm43 3c-1-.3-1.58-.94-1.58-2.62V12.21a.08.08 0 00-.09-.08l-6 .25a.09.09 0 000 .17c1.07.29 1.68.92 1.68 2.65v14.5c0 1.68-.57 2.32-1.58 2.62a.09.09 0 000 .17h7.59a.09.09 0 00.02-.17zM185 11.85c-2.76-.64-4.87 1.36-5.72 2.34a.09.09 0 00.12.12 3.42 3.42 0 012.07-.81c.93.08 1.1.79 1 1.53-.19 1.63.46 2.3 1.51 2.45a2.91 2.91 0 003-2.57 2.59 2.59 0 00-1.98-3.06zm15 20.47c-1-.3-1.58-.94-1.58-2.62V12.21a.08.08 0 00-.09-.08l-6 .25a.09.09 0 000 .17c1.07.29 1.68.92 1.68 2.65v14.5c0 1.68-.57 2.32-1.58 2.62a.09.09 0 000 .17h7.58a.09.09 0 00-.07-.17zm-3.88-24.51a2.6 2.6 0 10-2.6-2.6 2.6 2.6 0 002.6 2.6z" fill="#fff" data-name="レイヤー 1"/></g></svg>