<svg xmlns="http://www.w3.org/2000/svg" viewBox="0 0 365.65 27.81"><g data-name="レイヤー 2"><path d="M2.35 5.64c.85 3 .48 5.49-.18 6.57-.47.75-1.53 1.08-2 .54A1.31 1.31 0 01.53 11a9.45 9.45 0 001.28-5.39zM7 .54c-.06.46-.3.72-1 .84V27c0 .27-.78.72-1.5.72h-.41V.18zM6.79 5c4.05 2.37 2.13 5.49.69 4.05a8.43 8.43 0 00-1.11-3.9zm12.75-4c-.09.33-.36.48-1.14.54a22.91 22.91 0 009.9 7.23l-.06.39a2.41 2.41 0 00-1.47 1.89A22.43 22.43 0 0118 1.86a29 29 0 01-10.61 9.69l-.21-.39c3.81-2.7 7.68-7.35 9.18-11zm-3.78 10.19l2.34 1.71a2.13 2.13 0 01-1.2.57v11.31c0 1.53-.24 2.43-2.34 2.67a2.1 2.1 0 00-.39-1.38 2.43 2.43 0 00-1.53-.66v-.48s1.65.12 2 .12.45-.12.45-.51v-3.78H11v6.06c0 .21-.69.63-1.44.63h-.3v-16l1.86.87h3.72zm-4.74 2v3h4.11v-3zm4.11 6.69V17H11v2.85zm4.92-12.83s1.53 1.17 2.49 2.07c-.09.3-.36.45-.78.45h-9.09l-.21-.87h6.3zm1.17 15.63c0 .21-.75.6-1.35.6h-.33v-11l2.73.33c-.06.39-.33.66-1.05.75zm2.88-11.34l2.85.3c-.06.42-.36.66-1.05.78v12.39c0 1.56-.3 2.49-2.79 2.76a2.16 2.16 0 00-.57-1.38 4.43 4.43 0 00-2.19-.72V25s2.58.18 3.12.18.63-.15.63-.57zm17.19-7.68V3a8.31 8.31 0 012-.21c1.42.06 3.48 1.59 3.48 2.43 0 .63-.56.84-.84 2.25a80.5 80.5 0 00-1 11.76c0 3.81 1.11 5.25 4.41 5.25a13.92 13.92 0 0011.37-6.42l.66.45a13.39 13.39 0 01-12 8c-4 0-6.09-1.95-6.09-7.08 0-4.65.73-11.7.73-13.44 0-1.08-.19-1.41-.7-1.71a6 6 0 00-2.02-.62zm52.19 7.77a4.06 4.06 0 011.59-.18c.93.12 2.13.84 2.13 1.41a15.61 15.61 0 01-.2 1.65c-.09.57-.27 1.65-.51 2.7a16.29 16.29 0 013.3 2.37 2.15 2.15 0 01.72 1.74.77.77 0 01-.84.84c-.75 0-1.56-1.26-3.81-2.88-1.72 4.14-5.41 6.92-10.86 8.1l-.45-.69C89.31 25 92.73 22 94.23 18a17.41 17.41 0 00-9.9-2.85h-.06c-1.32 2.52-2.85 5.79-3.72 7s-1.8 2.1-3.18 2.1c-1.68 0-2.61-2.55-2.19-4.68.63-2.91 4.17-5 8-5.52l.15-.27c1.41-2.58 4.11-6.9 4.83-8.28.24-.48.09-.63-.3-.51-1.08.36-2.94 1.08-4.08 1.56-.51.21-.93.69-1.47.69a3.33 3.33 0 01-2.43-1.92 5.27 5.27 0 01-.18-1.59l.57-.18c.45.81.75 1.56 1.62 1.56a27.9 27.9 0 005.31-1.2c1.05-.33 1.2-.81 1.68-.81.81 0 2.52 1.2 2.52 1.89s-1.08.93-1.74 1.74A70.71 70.71 0 0085 13.8l-.06.12h.15a23.13 23.13 0 019.72 2.22 9.16 9.16 0 00.27-2.79.86.86 0 00-.48-.93 4.54 4.54 0 00-1.15-.42zm-11 3.87c-3.21.48-5.67 2.22-6.18 4.14-.33 1.29.27 2.64 1.08 2.64s1.2-.42 1.86-1.32 2.12-3.42 3.26-5.46zM135 4.05s1.74 1.32 2.76 2.28c-.09.33-.33.45-.78.45h-14.52c-.15 2-.33 3.78-.63 5.52h8.7l1.2-1.23L134 13a1.9 1.9 0 01-1.23.48c-.33 6.3-1.14 11.61-2.61 13a4.91 4.91 0 01-3.57 1.2 1.5 1.5 0 00-.66-1.44 13.59 13.59 0 00-3.63-1v-.51c1.62.15 4.5.42 5.25.42a1.53 1.53 0 001.26-.39c1-.84 1.68-5.79 2-11.55h-9.15c-1.26 6.36-4.11 11.16-10.92 14.52l-.27-.39c7.35-5 9.27-11.67 9.63-20.55h-9.57l-.24-.84h12.63V.15l3.08.33c-.06.42-.36.72-1.08.81v4.65h8.55zm15.72-1.26a4.58 4.58 0 011.53.9c.63.48 2 2 2 3.27 0 .66-.42 1.2-1.17 3a21.34 21.34 0 00-2 7.92 6 6 0 00.57 3c.18.36.45.42.69 0 .63-1 2.28-5 3-6.54l.72.36c-.57 1.56-1.86 5.07-2.25 6.15a9.43 9.43 0 00-.48 2.07c0 .93.42 1.86.42 2.58a.81.81 0 01-.84.93c-.54 0-1-.48-1.44-1.14a14.08 14.08 0 01-1.74-7 29.47 29.47 0 011.44-8.37 16.62 16.62 0 00.83-3.47c0-1.08-.69-2-1.74-3.27zm12.93.54a6.4 6.4 0 012.19-.57c1.26 0 2.85.81 2.85 1.53s-.27.78-.48 2.1a22.63 22.63 0 00-.21 2.49 20.31 20.31 0 001.95-.66 14.32 14.32 0 011.92-.81c.63 0 1.56.36 1.56 1s-.39.84-1.38 1.2a42.07 42.07 0 01-4.08 1c0 3.09.27 6.18.45 8.49a11.61 11.61 0 015 2.7 2.41 2.41 0 011 1.68c0 .6-.27 1-.78 1s-.81-.36-1.38-.9a12.59 12.59 0 00-3.63-2.61v.87c0 2.28-1.41 3.9-5.1 3.9-2.67 0-4.8-1.23-4.8-3.39 0-2.55 2.64-3.72 5.88-3.72a15.92 15.92 0 012.16.15c-.09-2.13-.27-5.25-.33-7.86a26.22 26.22 0 01-3.39.27c-1.86 0-3.09-.42-4.71-2.73l.36-.46a6.55 6.55 0 004.2 1.53 20.52 20.52 0 003.45-.3v-4c0-.76-.12-.87-.54-1a10 10 0 00-2.1-.27zm3.09 17a12.31 12.31 0 00-3.09-.36c-1.86 0-3.9.78-3.9 2.22s1.35 1.92 3.15 1.92c3.27 0 3.84-1.2 3.84-3.63zm20.34-.17c3.6 1.14 5.49 2.67 6.48 4.11a3.3 3.3 0 01.72 2 1.2 1.2 0 01-1.23 1.35c-.63 0-1-.36-1.44-1.26a13.87 13.87 0 00-4.86-5.7zm48.66-11.01s1.8 1.41 2.88 2.43c-.09.3-.36.45-.78.45h-12v14.76c0 .33-.87.81-1.68.81h-.39V12h-12.3l-.24-.84h12.57V.3l3.2.36c-.09.45-.33.78-1.11.9v9.63h8.25zM260 1.2c-.06.42-.27.69-1 .81.66 11 3.3 18.84 13.68 23.64l-.06.33a2.27 2.27 0 00-2.16 1.65c-8-4.44-10.74-11.37-11.7-20.28-.57 7.2-2.73 14.76-13.38 20.31l-.36-.51C256.88 19.71 256.79 10 256.82.84zm42.93 7.95s1.8 1.41 2.88 2.43c-.09.3-.36.45-.78.45h-12v14.76c0 .33-.87.81-1.68.81H291V12h-12.34l-.24-.84H291V.3l3.18.36c-.09.45-.33.78-1.11.9v9.63h8.25zm40.99 15.3c1 .3 1.36.39 1.36.84 0 1-1.24 1.62-6.33 1.62H327c-3.45 0-5.19-.72-5.19-3.3V9.9a25.63 25.63 0 01-3.89 3.1l-.39-.39A32.3 32.3 0 00326.29 0l3.12.84c-.12.36-.39.48-1.14.42-.39.75-.84 1.53-1.35 2.31h6.84l1.29-1.29 2.27 2.1a2 2 0 01-1.2.3A30.67 30.67 0 01331.81 9h7.43l1.08-1.23 2.46 1.86a2.2 2.2 0 01-1.29.63v8.31a2.66 2.66 0 01-1.64.6h-.31v-2h-15.83v6.51c0 1.17 1.11 1.41 3.06 1.41h12c2 0 2.88-.12 3.37-.9a22.08 22.08 0 001.34-4.38h.4zm-17.57-20a32.2 32.2 0 01-3.27 4.11l1 .42h7.05a29.56 29.56 0 002.61-4.53zm-2.64 11.85h6.84V9.84h-6.84zm8.76-6.45v6.45h7.07V9.84zm24.75 13.73a4.22 4.22 0 114.23 4.23 4.24 4.24 0 01-4.23-4.23zm1 0a3.2 3.2 0 106.39 0 3.2 3.2 0 00-6.39 0z" fill="#fff" data-name="レイヤー 1"/></g></svg>