<svg xmlns="http://www.w3.org/2000/svg" viewBox="0 0 355.4 23.89"><g data-name="レイヤー 2"><path d="M19 10.63l1.64-2.15s1.9 1.53 3 2.62c-.08.31-.36.42-.78.42H.26L0 10.63zM43.91 21.5c0 1.33-.24 2.16-2.37 2.37a1.81 1.81 0 00-.49-1.17 3.35 3.35 0 00-1.82-.6v-.42s2.13.16 2.6.16.54-.16.54-.52V11.26c-1.37.39-2.94.8-4.65 1.25 0 3.84-.39 8.29-3.22 11.38l-.4-.28c1.77-3 2-6.89 2.08-10.71l-1.18.28a1 1 0 01-.65.6l-.29-2c.5 0 1.23-.13 2.08-.24V2.76l1.85.8h.65c.18-1 .44-2.49.6-3.53L42 .57c-.07.37-.41.57-1 .6-.39.7-1 1.64-1.51 2.39h2.6l.78-1L45 4.11a1.78 1.78 0 01-1.12.52v5.61l1.22-.2.08.44-1.3.36zm-6.19-10.24c1.38-.21 3-.47 4.65-.76V4.34h-4.65zM39 5.43c3.69 2.71 1.64 5.59.68 4.22a9.27 9.27 0 00-1-4zm1.5 13.81c0 .18-.57.52-1.07.52h-.26v-6.68l2 .23c0 .29-.21.5-.68.57zm16.25-6.84c-.21.24-.47.29-1 .34A18.12 18.12 0 0152 18.9a17.46 17.46 0 006.43 3.36l-.06.28a1.83 1.83 0 00-1.53 1.3 16.15 16.15 0 01-5.84-3.9 19.3 19.3 0 01-7.07 3.93l-.23-.39A18.74 18.74 0 0050.12 19a18 18 0 01-3-6.45h-2l-.21-.75h8.92l1.12-1zM45 11.13c1.84-2 2-4.53 2-6.81V.78l1.9.83h3.2l.9-.93 1.8 1.56a1.51 1.51 0 01-.86.36v5.28c0 .28.06.34.47.34h1a6 6 0 00.86 0c.16 0 .26 0 .34-.26s.39-1.77.62-3.07h.39L57.64 8c.46.18.52.39.52.7 0 .65-.63 1-2.84 1H54c-1.38 0-1.62-.39-1.62-1.46V2.37h-3.74v1.92c0 2.21-.29 5.2-3.3 7.2zm2.62 1.4A14.27 14.27 0 0051 18a17.09 17.09 0 002.86-5.44zm30.7-7.17a2.34 2.34 0 01-1.15.49v15.34a2 2 0 01-1.38.6h-.23v-1.87h-4.68v1.92c0 .21-.6.62-1.35.62h-.26V4l1.73.78h1c.31-1.24.76-3.3 1-4.7l2.7.62c-.1.39-.42.57-1 .57-.52 1-1.38 2.47-2 3.51h2.6l.94-1.06zm-7.44.2v6.22h4.68V5.56zm4.68 13.58v-6.63h-4.68v6.63zM92.12 5.3a1.64 1.64 0 01-1.12.42c-.36 9.2-1.27 15.16-2.7 16.72a4 4 0 01-3.18 1.25 1.42 1.42 0 00-.49-1.25 7.84 7.84 0 00-2.63-.81v-.44c1.2.13 3.15.31 3.74.31a1.37 1.37 0 001.26-.41c1.17-1 2-7 2.34-15.6H81.7a21.05 21.05 0 01-3.83 5.43l-.36-.23A32.39 32.39 0 0081.7.08l2.65.78c-.11.31-.39.52-1 .52a32.45 32.45 0 01-1.33 3.35h7l1-1.19zM80.94 9.57c6.55 2.78 5.07 7 3.17 5.54-.36-1.77-2.08-4-3.45-5.33zm27.19-7.91a5 5 0 011.53-.31 3.92 3.92 0 011.9.44c.44.26.34.73-.63 4.06 2.5-.78 3-1.4 3.51-1.4a.89.89 0 011 .78c0 .46-.6.83-.89 1a17.44 17.44 0 01-4.11 1.33 46.78 46.78 0 01-4.91 10.69c-.36.52-.68.93-1.17.93s-.75-.54-.75-1a2 2 0 01.39-1.28 30.37 30.37 0 005-9.1 14.72 14.72 0 01-2 .16c-2 0-2.83-.73-3.67-2.58l.47-.36c1.12.93 1.69 1.51 3.49 1.51a9.67 9.67 0 002.21-.29 21.57 21.57 0 00.46-2.81c0-.54-.1-.75-.54-.93a6.79 6.79 0 00-1.22-.42zm9.3 4.48a7.26 7.26 0 013.59.31c1.59.6 2.4 1.61 2.4 2.65 0 .6-.26.94-.76.94s-1-.42-2.16-.34a4 4 0 00-2.42 1 3.07 3.07 0 00-.65 2.34c0 .78.29 2.42.5 4a12 12 0 014.07 1.81c1.24.81 1.79 1.53 1.79 2.19s-.24.83-.65.83-.81-.45-1.38-1a10.17 10.17 0 00-3.67-2.37c0 .39.06.73.06 1 0 2.16-1.59 3.41-4.24 3.41s-4.16-1.33-4.16-2.84c0-2 2.1-3.43 5.56-3.43.42 0 .81 0 1.17.05-.08-1.14-.21-2.31-.21-3.33a4.23 4.23 0 011.25-3.25 8.17 8.17 0 012.89-1.66c.54-.29.44-.63 0-1a5 5 0 00-3-.78zm-.85 12a12.12 12.12 0 00-2.24-.2c-2.37 0-3.61 1-3.61 1.92s.88 1.64 2.78 1.64c2.49 0 3.07-1.25 3.07-2.79zM153.9 3.2a2.09 2.09 0 01-1.12.49v19.16a2.1 2.1 0 01-1.51.68H151v-2.18h-12.1V23c0 .26-.63.7-1.43.7h-.29V1.72l1.87.91h11.7l1-1.15zm-15 .18v8.06H151V3.38zM151 20.59v-8.4h-12.1v8.4zm27.64-13.65a24.71 24.71 0 0010.76 10.48l-.05.26a2.11 2.11 0 00-1.71 1.43A24.62 24.62 0 01178 6.94V17.6h2.37l1.26-1.6s1.38 1.15 2.26 2c-.08.29-.34.42-.7.42H178v4.86c0 .26-.73.65-1.4.65h-.34v-5.57h-5.49l-.2-.76h5.69V8.45a26.51 26.51 0 01-10.87 10.89l-.26-.38a29 29 0 009.75-12h-9.23l-.23-.78h10.88V0l2.7.31c-.07.39-.28.65-1 .75v5.1h7.18l1.35-1.69s1.51 1.17 2.42 2.06c-.05.28-.31.41-.68.41zm34.22-1.48c-.05.26-.36.42-1 .47C214 9 218.45 11.44 223 12.69v.41a2.13 2.13 0 00-1.61 1.49c-4.42-1.72-8.22-4.71-10-8.35-2.29 3.56-7.18 7.15-12.43 8.92l-.18-.39c4.7-2.06 9.72-6.5 11-10zm-13.73-1.59l-.13-.72h6.81V.08l2.57.26c0 .36-.26.62-.88.7v2.11h6.6V.08l2.6.26c-.05.36-.28.62-.91.7v2.11h3.46l1.27-1.62s1.41 1.17 2.19 2c0 .26-.29.39-.65.39h-6.27V6c0 .18-.6.49-1.43.49h-.26V3.87h-6.6v2.27c0 .2-.73.46-1.43.46h-.26V3.87zm1.2 18.57a18.55 18.55 0 005.72-6.19l2.36 1.14c-.15.26-.39.39-1 .26a18.46 18.46 0 01-6.86 5.13zm11.36-7.72v8.63c0 .18-.75.49-1.35.49H210v-9.12h-6.42l-.18-.76h6.6v-3.53l2.55.26c-.08.33-.28.57-.83.67V14h3.12l1.16-1.39s1.27 1 2.13 1.69c-.08.29-.34.42-.7.42zm2.13 1.82c8 2.23 7.36 6.89 5.18 5.79-.81-1.92-3.44-4.23-5.46-5.53zm29.6 4.81c6.37-1.12 9.44-4.4 9.44-9.1a7.38 7.38 0 00-7.72-7.6c-.31 0-.62 0-.94.06a4.83 4.83 0 011.12 2.75 13 13 0 01-.8 4.19c-1.1 3.12-4.11 8.16-6.77 8.16-1.74 0-3.56-2.75-3.56-5.95a10 10 0 013.46-7.31 11.22 11.22 0 017.59-2.78c5.36 0 9.49 3.51 9.49 8.89 0 4.32-2.7 8.74-11.2 9.28zm-.18-16.49a9.91 9.91 0 00-4.91 2.58 8.32 8.32 0 00-2.68 6c0 2.5 1.14 4.4 2.21 4.4 1.72 0 4.11-4.11 5.17-6.58a12.14 12.14 0 00.94-4 4.57 4.57 0 00-.73-2.4zm22.27 1.41c5.3.75 4.21 4.39 2.37 3.32a6.86 6.86 0 00-2.63-3.09zm7.2-.47c-1 3-3 8.45-3.3 9.59a8.83 8.83 0 00-.36 2.19c0 1.11.72 2.36.62 4.5-.05 1.09-.55 1.76-1.4 1.76-.5 0-.76-.46-.81-1.27.31-2.68.21-4.76-.36-5.12a2.26 2.26 0 00-1.28-.39v-.58H267c.29 0 .39 0 .65-.49.42-.88.42-.88 4.58-10.3zM267.17.44c5.57.91 4.5 4.63 2.66 3.56a8.87 8.87 0 00-2.92-3.32zm15.45 4.29a11.88 11.88 0 007.23 5.41l-.06.29a1.9 1.9 0 00-1.06 1.5 11 11 0 01-2.45-1.45 1.23 1.23 0 01-.39.1v8.09c0 .18-.83.54-1.35.54h-.26v-1.09h-3.64V21c0 .52.16.67 1.15.67h4.73a.54.54 0 00.52-.34 26.86 26.86 0 00.78-3.48h.34l.1 3.61c.57.18.73.39.73.7 0 .78-.86 1.07-4.81 1.07h-2.65c-2 0-2.5-.44-2.5-1.82v-3.29h-3.41v1.09a1.55 1.55 0 01-1.35.55H274v-9.44a16.78 16.78 0 01-2.71 1.8l-.28-.29a18.61 18.61 0 005.77-7.1H272l-.2-.78h5.4A21.07 21.07 0 00278.51 0l2.81.67c-.08.29-.29.42-1 .39A21.75 21.75 0 01279.11 4h6.63L287 2.5s1.35 1 2.21 1.82c-.05.28-.31.41-.68.41zm-3.93 0a20.3 20.3 0 01-3.61 4.66l.86.36H279V7l2.47.29c-.05.33-.29.57-.86.65v1.81h3.46l.62-.68a14.72 14.72 0 01-2.83-4.34zm-3.07 8.84H279V10.5h-3.41zm3.41 3.8v-3h-3.41v3zm5.25-6.87h-3.64v3.07h3.64zm0 6.87v-3h-3.64v3zm39.72.44c-1.15 1.61-3.12 3.23-5.33 3.23-1.85 0-3.13-1.12-3.13-3.41 0-2.89 1.1-5.9 1.1-8.71 0-1.64-.47-2.5-1.77-2.5-2.21 0-5.25 2.34-7.85 5.18a52.36 52.36 0 00.26 7.67c.05.65.13 1.19.13 1.77 0 .88-.37 2.1-1.1 2.1-.46 0-.72-.29-.85-.88a7.93 7.93 0 00-.45-1.64 22.08 22.08 0 00-1.92-3.38l-1.69 2.36c-.31.45-.55.78-.94.78s-.67-.38-.67-.91a1.7 1.7 0 01.54-1.3 64.18 64.18 0 005.7-7.38c.08-.75.13-1.46.23-2.16-.88.47-1.79 1-2.44 1.35s-.81.94-1.25.94a2.91 2.91 0 01-2.13-1.85 3.4 3.4 0 01-.11-1.14l.47-.13c.39.78.78 1.22 1.25 1.22a20.45 20.45 0 004.39-1.84c.21-1.67.39-3 .42-3.77s-.13-.71-.6-.89a11 11 0 00-1.38-.36v-.52a4.68 4.68 0 011.58-.29c1.07 0 2.4 1.15 2.4 1.9 0 .55-.32.78-.6 1.82-.13.39-.31 1.07-.52 1.92.41.29.93.78.93 1s-.28.52-.59.94a10.33 10.33 0 00-.84 1.09c2.47-2.23 5.54-4.6 8.2-4.6 1.79 0 2.91 1.09 2.91 3.51 0 2-1.12 5.75-1.12 8.4 0 1.4.6 2 1.84 2a6.2 6.2 0 004.48-2zm-18.13-4.63c-.7 1.09-1.56 2.29-2.36 3.46.72 1 1.66 2.26 2 2.7.24.26.37.24.37-.18.04-1.24-.09-3.64-.01-5.98zM353 3.38s1.51 1.14 2.39 2c-.08.28-.29.39-.68.39h-12.54c-.13 1.69-.29 3.27-.55 4.78h7.54l1-1.07 2 1.67a1.61 1.61 0 01-1.07.41c-.29 5.46-1 10.07-2.26 11.24a4.3 4.3 0 01-3.1 1 1.3 1.3 0 00-.57-1.25 11.55 11.55 0 00-3.14-.83v-.45c1.4.13 3.9.37 4.55.37a1.31 1.31 0 001.09-.34c.88-.73 1.45-5 1.71-10h-7.93c-1.07 5.52-3.54 9.7-9.44 12.59l-.23-.33c6.37-4.32 8-10.12 8.34-17.81h-8.29l-.21-.75h10.95V0l2.67.29c-.05.36-.31.62-.93.7V5h7.41z" fill="#fff" data-name="レイヤー 1"/></g></svg>