<svg xmlns="http://www.w3.org/2000/svg" viewBox="0 0 606.78 27.66"><g data-name="レイヤー 2"><path d="M8.88 21.24v5.58c0 .18-.63.66-1.59.66H7v-6.24H.21l-.21-.9h7v-3.45H3.39v.93a1.8 1.8 0 01-1.56.63h-.27V6.39l2.19 1h8.58l1-1.08L15.54 8a2 2 0 01-1.11.54v8.85a2.31 2.31 0 01-1.59.69h-.27v-1.19H8.88v3.45h3.9l1.38-1.71s1.56 1.2 2.52 2.13c-.09.33-.36.48-.78.48zM1 .81c5.3 2.79 3.5 6.63 1.73 5.1A10.26 10.26 0 00.66 1zm2.39 7.41v3.39H7V8.22zM7 16v-3.49H3.39V16zM5.79.09C10.62 3.27 8.64 7 7 5.34A11.83 11.83 0 005.4.27zm3.09 8.13v3.39h3.69V8.22zM12.57 16v-3.49H8.88V16zm2.88-14.56a1 1 0 01-1.11.45A26 26 0 0110.2 7l-.42-.33A38.58 38.58 0 0012.6.27zm11.4 23.76c.78 1.2.87 1.74.54 2-.75.84-2.46-.18-3.54-1.29a16.12 16.12 0 01-3.24-5.1 24.72 24.72 0 01-7.11 6l-.33-.39a26.7 26.7 0 006.83-7.1 42.43 42.43 0 01-1.7-9.45l-2.91.45-.39-.81L18.24 9c-.21-2.76-.3-5.73-.3-8.82l3.15.36c-.06.39-.33.72-1.11.84 0 2.46 0 5 .15 7.32l3.63-.57 1.08-1.83s1.68.93 2.73 1.62a.73.73 0 01-.66.63l-6.72 1a43.68 43.68 0 001.17 7.62 29.46 29.46 0 002.73-6.33l2.76.93c-.15.33-.42.51-1.2.45A30.67 30.67 0 0122 19.08 12.63 12.63 0 0025 24c.42.51.57.48.84-.12A25.89 25.89 0 0027 20.52l.39.06zM21.42 1.47C27.3 3 25.86 6.9 24 5.61a8.36 8.36 0 00-2.85-3.9zm44.65 1.05a2.58 2.58 0 01-1.32.6v23.46a2.28 2.28 0 01-1.65.78h-.3v-2H42.67v1.35c0 .27-.72.78-1.56.78h-.36V.84l2.13 1H62.5L63.64.57zm-3.27 22V2.73H42.67v21.78zm-3.33-5.94s1.47 1.14 2.37 2a.68.68 0 01-.75.48H44.32l-.21-.87h7.53v-6.66h-5.49l-.24-.9h5.73v-5.4H45l-.24-.84h12.67l1.32-1.65s1.47 1.17 2.37 2c-.09.33-.36.48-.78.48h-6.81v5.4h3.24L58 11.07s1.38 1.11 2.25 2c-.06.33-.36.48-.78.48h-6v6.66h4.68zm-4-4.29c5.19 2 3.66 5.37 2 4.11a9.45 9.45 0 00-2.37-3.9zM88.12 3.45a2.23 2.23 0 01-1.26.6v18.87c0 .24-1 .72-1.62.72H85v-2.07h-4.2v2.76c0 .18-.6.69-1.56.69h-.3V1.83l2.25 1h3.51l1.08-1.23zm-7.35.24v8H85v-8zm4.2 17V12.6h-4.2v8.13zm2.61-9.87l-.24-.82h7.41V5.58h-6.24l-.24-.87h6.48V.15l3 .33c-.06.42-.36.72-1.11.84v3.39h3.87L101.92 3s1.59 1.2 2.55 2.13c-.09.33-.39.48-.81.48h-7V10h4.83l1.38-1.8a32.64 32.64 0 012.58 2.19c-.06.33-.33.48-.75.48zm15.63 2.43a28.82 28.82 0 012.46 2.07c-.06.33-.39.48-.78.48h-4.41v8.79c0 1.62-.3 2.58-3.18 2.85a1.77 1.77 0 00-.69-1.38 5.81 5.81 0 00-2.67-.75v-.48s3.27.21 3.9.21.72-.15.72-.6v-8.6H87.73l-.24-.84h11.07v-3.54l2.94.33c-.06.42-.36.63-1 .75V15h1.44zM90 17c6.63 2.43 4.89 6.87 2.79 5.31a12 12 0 00-3.12-5.07zm37.84-15.86c-.09.33-.45.57-1.17.54A45 45 0 01123.73 8l1.38.51c-.12.27-.39.45-.93.51v17.83a2.17 2.17 0 01-1.59.69h-.38v-17a29.73 29.73 0 01-4.3 5.16l-.42-.3A51.94 51.94 0 00124.66.06zm16.74 24c.9 1.14 1 1.59.75 1.92-.69 1-2.58.15-4-.87-4.68-3.3-7.14-8.88-8.22-15.57l-7.17.81-.33-.84 7.39-.81a62.18 62.18 0 01-.63-9.33l3.18.39c-.06.36-.33.72-1.05.81a52.83 52.83 0 00.5 7.89l6.24-.69 1.26-1.95s1.74 1.08 2.82 1.86a.73.73 0 01-.72.54l-9.48 1.08c.9 5.85 3.06 11 7.26 13.71.54.45.75.45 1-.12a24.77 24.77 0 001.41-3.42l.33.09zm-7.38-24c6.36 1.17 5.16 5.28 3 4.11a12.17 12.17 0 00-3.33-3.84zm27.56 13.14c-.63 1.56-2 5-2.34 6.09a8 8 0 00-.51 2.16c0 .87.6 1.83.6 2.55a.8.8 0 01-.87.9c-.54 0-1-.48-1.41-1.11a13.62 13.62 0 01-1.74-6.72 26.88 26.88 0 011.44-7.92 18.38 18.38 0 00.75-3.48c0-1.08-.69-2.07-1.68-3.15l.48-.39a7.07 7.07 0 011.53.9c.63.51 2 1.89 2 3.15 0 .69-.42 1.23-1.14 3a17.81 17.81 0 00-1.92 7.35 4.61 4.61 0 00.48 2.58c.18.36.39.42.66 0 .66-1.05 2.34-4.8 3-6.33zm3 2.58a11.59 11.59 0 00.87 2.61c1 1.77 2.61 2.82 6.3 2.82a28.67 28.67 0 005.1-.54c.81 0 1.59.27 1.59 1 0 1.2-2.79 1.56-6 1.56-4.68 0-7.23-1.56-8.13-4.62a9.58 9.58 0 01-.39-2.67zm.33-9.39a15.38 15.38 0 017.17-1.86 10 10 0 014.17.63c.63.27.9.69.9 1s-.18.66-.81.75a8.13 8.13 0 00-2.46.57 48.87 48.87 0 00-4.92 2.73l-.51-.54c1.35-1 3.48-2.52 4.11-3.06.36-.33.33-.54-1.65-.54a18.8 18.8 0 00-5.7 1zm48.25 10.89c-.24.27-.6.33-1.38.36a19.53 19.53 0 01-5.13 4.28 38.34 38.34 0 0011.73 2.37v.39a2.11 2.11 0 00-1.65 1.74c-4.65-.63-8.58-1.74-11.67-3.63a40.88 40.88 0 01-13.74 3.6l-.21-.51a42.23 42.23 0 0012.63-4 13.67 13.67 0 01-3.45-3.84 27.09 27.09 0 01-8.47 4.73l-.27-.42a25.65 25.65 0 009.81-8.22c-1.35-.15-1.56-.6-1.56-1.68V9.21l2.55.3c0 .36-.33.63-.84.72v3c0 .36.09.45 1.17.45h5.76c.33 0 .45-.06.57-.24a8.77 8.77 0 00.72-2h.36l.09 2.07c.63.18.78.36.78.66 0 .84-.81 1.14-5.34 1.14h-3.3l1.77.9c-.15.27-.51.36-1.05.21-.3.39-.66.81-1 1.2h7.68l1.38-1.14zM198.22 7.89a4 4 0 01-1.53 3.21c-.66.45-1.68.51-2-.12s.12-1.14.72-1.5a4.24 4.24 0 002-3.87h.54a8.58 8.58 0 01.24 1.39h3.9a1.15 1.15 0 01-.54-.27 6.77 6.77 0 00-1.83-3.33l.33-.24c3.84 1.23 3.54 3.6 2.46 3.84h9.78a25.23 25.23 0 002.34-4.29l2.88 1.2a1 1 0 01-1.14.39 22.73 22.73 0 01-3 2.7h4.8l1.23-1.23 2.25 2.16c-.24.24-.54.27-1.14.3a17.28 17.28 0 01-3.36 2.37l-.39-.21a23.33 23.33 0 001.35-2.49zm7.74-5c-3 .15-6.18.24-9.15.24l-.09-.63A141.05 141.05 0 00217.09 0L219 2c-.24.24-.81.21-1.53-.12-3.12.39-7 .72-11.16 1 4.38 2 2.55 5.13 1 3.72a7.57 7.57 0 00-1.53-3.6zm-5 6.72a4.45 4.45 0 01-1.95 4.95c-.75.39-1.77.39-2-.24s.15-1.08.75-1.41a4.21 4.21 0 002.74-3.31zm3.04 9.14a12.87 12.87 0 004.23 3.51 17.22 17.22 0 004.41-3.81h-8.31zm2.1-10.11c5.91.36 5.16 4.2 3.18 3.3a8 8 0 00-3.42-3zm7.38.9c7.11 1.56 6.06 6.06 3.93 4.83-.6-1.59-2.61-3.48-4.23-4.53zm27.71-6.6a5.81 5.81 0 012.52-.75c1.11 0 2.31.36 2.46.9a31.35 31.35 0 001.65 4.44 23.19 23.19 0 005.1-2.76 1.74 1.74 0 011.77.21c.27.33.09.84-.33 1.2a22.49 22.49 0 01-5.73 2.88 31.94 31.94 0 005.28 6.48c.72.69 1 1 1 1.47 0 .84-.42 2-1.08 2s-1.08-.45-1.92-.93a14.73 14.73 0 00-7.35-2c-3.36 0-6 1.86-6 4.32 0 2.31 2.67 3.9 7.35 3.9 2.28 0 3.27-.33 4.32-.33.9 0 1.56.36 1.56 1 0 .78-1.44 1.35-5.19 1.35-5 0-9.57-1.59-9.57-5.67 0-3.24 3.48-5.67 8.07-5.67a21.79 21.79 0 016.56 1.02c.3.06.36 0 .15-.21a52.71 52.71 0 01-4.59-6.3 26.23 26.23 0 01-6.45 1.14c-2.85 0-4-1-5.61-3.33l.54-.48c1.83 1.47 2.7 2.1 5.07 2.1a23.05 23.05 0 005.58-.92 42.23 42.23 0 00-2.07-3.81c-.51-.78-1.26-.72-3-.69zM296 20.55c-1.32 1.86-3.6 3.72-6.15 3.72-2.13 0-3.6-1.29-3.6-3.93 0-3.33 1.26-6.81 1.26-10 0-1.89-.54-2.88-2-2.88-2.55 0-6.06 2.7-9.06 6a61.75 61.75 0 00.3 8.85c.06.75.15 1.38.15 2 0 1-.42 2.43-1.26 2.43-.54 0-.84-.33-1-1a9.74 9.74 0 00-.51-1.89 26 26 0 00-2.22-3.9L270 22.62c-.36.51-.63.9-1.08.9s-.78-.45-.78-1.05a1.92 1.92 0 01.63-1.5 74.64 74.64 0 006.57-8.52c.09-.87.15-1.68.27-2.49-1 .54-2.07 1.14-2.82 1.56s-.93 1.08-1.44 1.08a3.35 3.35 0 01-2.46-2.13 4 4 0 01-.12-1.32l.54-.15c.45.9.9 1.41 1.44 1.41.75 0 3.84-1.47 5.07-2.13.24-1.92.45-3.48.48-4.35 0-.69-.15-.81-.69-1a12.9 12.9 0 00-1.61-.44v-.6a5.53 5.53 0 011.83-.33c1.23 0 2.76 1.32 2.76 2.19 0 .63-.36.9-.69 2.1-.15.45-.36 1.23-.6 2.22.48.33 1.08.9 1.08 1.2s-.33.6-.69 1.08a11.49 11.49 0 00-1 1.26c2.85-2.58 6.39-5.31 9.45-5.31 2.07 0 3.36 1.26 3.36 4.05 0 2.34-1.29 6.63-1.29 9.69 0 1.62.69 2.28 2.13 2.28A7.15 7.15 0 00295.5 20zm-20.91-5.34c-.81 1.26-1.8 2.64-2.73 4 .84 1.17 1.92 2.61 2.34 3.12.27.3.42.27.42-.21.07-1.45-.12-4.21.01-6.91zM313 2a6.41 6.41 0 011.89-.21c1.08.06 3 .78 3 1.47a13.77 13.77 0 01-.78 2.4c-.15.54-.33 1.29-.57 2.13a27.61 27.61 0 003.78-1.59 2.78 2.78 0 011-.42c.51 0 1.29.3 1.29.84s-.33.87-1.44 1.35A42.44 42.44 0 01316 9.63c-.42 1.47-.93 3.09-1.47 4.53a72.4 72.4 0 01-4.62 11c-.42.69-.72 1-1.32 1s-.87-.54-.87-1.23.27-.93.72-1.74a40.81 40.81 0 004.68-9.48c.39-1.11.78-2.37 1.14-3.63a19 19 0 01-3.45.36c-1.74 0-3.18-.66-4.17-2.94l.51-.39c1.29 1.14 2.19 1.71 3.66 1.71a17.12 17.12 0 003.9-.48 29.48 29.48 0 00.75-3.9 1 1 0 00-.63-1.2 13.51 13.51 0 00-1.83-.57zm5.28 16.77a8.61 8.61 0 001 2.85c1.05 1.62 2.88 2.31 5.46 2.31a28.28 28.28 0 004.83-.57c.69 0 1.47.33 1.47 1s-.78.93-1.65 1.11a18.58 18.58 0 01-4 .39c-3.48 0-6.24-1.05-7.17-3.69a8.55 8.55 0 01-.66-3.33zm1.71-7a15.31 15.31 0 015.43-1.08 10 10 0 014.05.72c.69.36 1.08.81 1.08 1.32s-.51.69-1.23.75a5.62 5.62 0 00-1.77.48 36.48 36.48 0 00-3.36 1.56l-.39-.54a35 35 0 003.2-2.23c.24-.18.15-.33-.12-.42a8.15 8.15 0 00-2.64-.36 18.4 18.4 0 00-4 .48zM353.38 16a18.23 18.23 0 018.31-2.31c3.45 0 5.91 2.16 5.91 5.49 0 3.06-2.31 5.55-6.09 5.55a6.87 6.87 0 01-5.64-3l.48-.48a7.36 7.36 0 004.74 1.8c3 0 4.62-1.89 4.62-4.26s-1.44-4-4.65-4c-2.49 0-5.28 1.26-7.65 2.61.12 4.08.45 5.19.45 6.27 0 1.35-.81 2.73-1.71 2.73-.69 0-.75-.93-1.71-1.8a36 36 0 00-3.21-2.37c-.9.84-1.29 1.08-1.71 1.08a1.46 1.46 0 01-1-.51 1.64 1.64 0 01-.54-1.23c0-.69.18-.93.84-.87a2.23 2.23 0 001.71-.33c1.11-.66 3.45-2.49 5.46-3.63V11a16 16 0 01-3.3.54c-1.47 0-2.73-.27-4-3l.51-.39c1.53 1.5 2 1.8 3.57 1.74A14.64 14.64 0 00352 9.3v-5c0-.77-.12-.78-.6-.93a5.76 5.76 0 00-1.89-.21l-.09-.57a4.58 4.58 0 012.1-.57c1.14 0 3.06 1 3.06 1.68s-.45 1.17-.66 2.13a21 21 0 00-.36 2.94c2.34-.87 3.33-1.86 4-1.89s1.32.12 1.35.78c0 .51-.33.87-1 1.17a32.87 32.87 0 01-4.44 1.65c-.09 1.35-.12 2.79-.12 4.17zM352 18.24a36 36 0 00-4.23 3.45c1.11.57 2.46 1.26 3.39 1.68.63.27.84 0 .84-.54zm9-12.42a10.06 10.06 0 014-.15c2.31.45 4.47 2.43 4.56 4.32 0 .6-.18 1.11-.75 1.17s-1-.63-1.92-.45a11.37 11.37 0 00-2.31.9l-.33-.54a22.32 22.32 0 002.4-1.65c.33-.36.36-.6 0-1.08-1.2-1.68-3.51-1.89-5.61-1.74zm36 .48c-.06.3-.42.48-1.2.54 2.55 3.54 7.65 6.36 12.87 7.8v.48a2.46 2.46 0 00-1.86 1.71c-5.1-2-9.48-5.43-11.55-9.63-2.64 4.11-8.28 8.25-14.34 10.29l-.22-.49c5.43-2.37 11.22-7.5 12.72-11.58zm-15.82-1.83l-.18-.84h7.86V.09l3 .3c0 .42-.3.72-1 .81v2.43h7.62V.09l3 .3c-.06.42-.33.72-1.05.81v2.43h4l1.47-1.86s1.62 1.35 2.52 2.25c0 .3-.33.45-.75.45h-7.23v2.46c0 .21-.69.57-1.65.57h-.3v-3h-7.62v2.58c0 .24-.84.54-1.65.54h-.3V4.47zm1.38 21.42a21.35 21.35 0 006.6-7.14l2.73 1.32c-.18.3-.45.45-1.11.3a21.33 21.33 0 01-7.92 5.91zM395.67 17v10c0 .21-.87.57-1.56.57h-.42V17h-7.41l-.21-.87h7.62V12l2.94.3c-.09.39-.33.66-1 .78v3h3.6l1.35-1.56s1.47 1.11 2.46 1.95c-.09.33-.39.48-.81.48zm2.46 2.1c9.24 2.58 8.49 8 6 6.69-.93-2.22-4-4.89-6.3-6.39zm42.33-10.43a5.06 5.06 0 012.22.81 3.5 3.5 0 011.62 2.34c0 .54-.3.63-1.47 1a57.88 57.88 0 00-8.55 3.39c.09 1.71.09 3.9.09 4.86 0 .72-.33 1.17-.93 1.17s-1-.33-1-1.14.12-2.34.15-4c-2.91 1.65-5 3.57-5 5.34s1.92 2.4 4.77 2.4c4.44 0 6.18-.93 7.62-.93 1 0 1.59.36 1.59.93s-.15.84-1.11 1.11a32.72 32.72 0 01-6.72.81c-5.58 0-7.41-1.74-7.41-4.11s2.73-4.77 6.24-7c-.12-2.55-.69-3.48-2.25-3.48s-3.66 1.68-4.92 3c-1 1.14-1.89 2.55-2.61 2.58s-1-.45-1-1.2 1.11-1.56 2.46-3a28.94 28.94 0 004.2-5.49 18.26 18.26 0 01-2.16.15c-2.46 0-3-.66-4.17-3l.63-.39c1.2 1.26 1.71 1.89 3.93 1.89a14.55 14.55 0 002.67-.3 11.74 11.74 0 001-2.64c.15-.54.06-.75-.54-1a5.91 5.91 0 00-1.68-.42V1.8a6.42 6.42 0 011.71-.3c.93 0 2.88.51 2.88 1.23 0 .42-.24.63-.57 1.29-.21.48-.6 1.23-1 2a29.56 29.56 0 003.9-1.29c1.26-.57 1.47-.84 1.92-.84.66 0 1.29.24 1.29.81 0 .39-.27.66-.84.93a35.14 35.14 0 01-7.23 2.22 35.62 35.62 0 01-2.88 4.23c-.12.15 0 .3.18.18a7.61 7.61 0 013.3-1c1.89 0 3 1.29 3.33 3.54 2.43-1.32 5.49-2.55 7.29-3.51.51-.27.57-.54.15-1a4.26 4.26 0 00-1.47-1zM458.52 20c3.6 1.14 5.49 2.67 6.48 4.11a3.3 3.3 0 01.72 2 1.2 1.2 0 01-1.23 1.35c-.63 0-1-.36-1.44-1.26a13.87 13.87 0 00-4.86-5.7zm34.98-1.4c-2.28 1.14-5.46 2.79-9.63 4.74a1 1 0 01-.6.72l-1-2.46c.93-.21 2.58-.69 4.56-1.29v-8.19h-3.6l-.24-.84h3.84v-7.5h-3.87l-.21-.9H490l1.35-1.77s1.65 1.26 2.57 2.19c-.06.33-.36.48-.78.48h-4.41v7.5h1.17l1.2-1.74s1.41 1.26 2.22 2.1a.7.7 0 01-.75.48h-3.84v7.56c1.47-.48 3-1 4.62-1.53zm16.35 6.33c.54.27.66.51.66.87 0 .81-.75 1.2-4.11 1.2h-2.07c-1.92 0-2.25-.48-2.25-1.83v-7.92H500c-.9 6-4 8.79-11.1 10.32l-.15-.48c6.15-2 8.43-4.74 9-9.84h-1.35v1.08c0 .21-.78.66-1.59.66h-.33V1.08l2.07.93h9l1.12-1.23 2.46 1.89a2.57 2.57 0 01-1.32.63V18a2.38 2.38 0 01-1.68.69h-.27v-1.44H504v7.5c0 .36.06.48.78.48h3.24a.45.45 0 00.45-.39c.18-.51.54-2.31.87-4h.39zm-13.47-22v3.79h9.48V2.91zm9.48 4.71h-9.48v3.84h9.48zm-9.48 8.79h9.48v-4.07h-9.48zm34.85-15.29c-.09.33-.45.57-1.17.54A45 45 0 01527.12 8l1.38.51c-.12.27-.39.45-.93.51v17.83a2.17 2.17 0 01-1.59.69h-.39v-17a29.69 29.69 0 01-4.29 5.16l-.42-.3A52.19 52.19 0 00528.05.06zm16.74 24c.9 1.14 1 1.59.75 1.92-.69 1-2.58.15-4-.87-4.68-3.3-7.14-8.88-8.22-15.57l-7.17.81-.33-.84 7.38-.81a62.18 62.18 0 01-.63-9.33l3.18.39c-.06.36-.33.72-1 .81a52.83 52.83 0 00.48 7.89l6.24-.69 1.26-1.95s1.74 1.08 2.82 1.86a.73.73 0 01-.72.54l-9.48 1.08c.9 5.85 3.06 11 7.26 13.71.54.45.75.45 1-.12a24.77 24.77 0 001.41-3.42l.33.09zm-7.38-24c6.36 1.17 5.16 5.28 3 4.11a12.17 12.17 0 00-3.33-3.84zm27.55 13.14c-.63 1.56-2 5-2.34 6.09a8 8 0 00-.51 2.16c0 .87.6 1.83.6 2.55a.8.8 0 01-.87.9c-.54 0-1-.48-1.41-1.11a13.62 13.62 0 01-1.74-6.72 26.88 26.88 0 011.44-7.92 18.38 18.38 0 00.75-3.48c0-1.08-.69-2.07-1.68-3.15l.48-.39a7.07 7.07 0 011.53.9c.63.51 2 1.89 2 3.15 0 .69-.42 1.23-1.14 3a17.81 17.81 0 00-1.92 7.35 4.61 4.61 0 00.48 2.58c.18.36.39.42.66 0 .66-1.05 2.34-4.8 3-6.33zm3 2.58a11.59 11.59 0 00.87 2.61c1 1.77 2.61 2.82 6.3 2.82a28.67 28.67 0 005.1-.54c.81 0 1.59.27 1.59 1 0 1.2-2.79 1.56-6 1.56-4.68 0-7.23-1.56-8.13-4.62a9.58 9.58 0 01-.39-2.67zm.33-9.39a15.38 15.38 0 017.17-1.86 10 10 0 014.17.63c.63.27.9.69.9 1s-.18.66-.81.75a8.13 8.13 0 00-2.46.57 48.87 48.87 0 00-4.92 2.73l-.52-.49c1.35-1 3.48-2.52 4.11-3.06.36-.33.33-.54-1.65-.54a18.8 18.8 0 00-5.7 1zm26.88 15.96a4.22 4.22 0 114.23 4.23 4.24 4.24 0 01-4.23-4.23zm1 0a3.2 3.2 0 106.39 0 3.2 3.2 0 00-6.39 0z" fill="#fff" data-name="レイヤー 1"/></g></svg>