<svg xmlns="http://www.w3.org/2000/svg" viewBox="0 0 201.4 21.9"><g data-name="レイヤー 2"><path d="M17.88 3.66l-.13.06A8.66 8.66 0 0015 2a9.59 9.59 0 00-3.53-.63A9.67 9.67 0 008.1 2a7.37 7.37 0 00-2.64 1.66 7.51 7.51 0 00-1.73 2.7A10 10 0 003.12 10a14.08 14.08 0 00.59 4.18 9.57 9.57 0 001.74 3.36 8 8 0 002.89 2.24 9.51 9.51 0 004.05.81 8.52 8.52 0 001.67-.17 7.59 7.59 0 001.61-.53 7.64 7.64 0 002.68-1.95l.17.1-1.18 3a12.74 12.74 0 01-2.42.65 16 16 0 01-2.67.23 15 15 0 01-5-.78 11.67 11.67 0 01-3.83-2.24A10.06 10.06 0 01.9 15.45 10.9 10.9 0 010 11a10.57 10.57 0 01.36-2.77 10.78 10.78 0 011-2.56 10.14 10.14 0 011.7-2.23 10.91 10.91 0 012.3-1.77A11.51 11.51 0 018.27.51a12.91 12.91 0 013.37-.42 15.63 15.63 0 015.25.91zM38.89.09a12.31 12.31 0 014.52.8A10.7 10.7 0 0147 3.13a10.27 10.27 0 012.36 3.46 11.56 11.56 0 01.85 4.47 11.48 11.48 0 01-.33 2.74 11.12 11.12 0 01-.94 2.55 11.24 11.24 0 01-1.53 2.22 9.91 9.91 0 01-2.07 1.75 10.07 10.07 0 01-2.58 1.16 10.47 10.47 0 01-3 .42 12.77 12.77 0 01-4.52-.78 10.82 10.82 0 01-3.58-2.22 10.33 10.33 0 01-2.36-3.45 11.57 11.57 0 01-.89-4.45 11.48 11.48 0 01.33-2.74 11.37 11.37 0 01.94-2.56 10.38 10.38 0 011.53-2.23 9.49 9.49 0 012.06-1.77A9.74 9.74 0 0135.85.51a10.59 10.59 0 013.04-.42zm.83 20.49a7.4 7.4 0 003-.58A6.7 6.7 0 0045 18.3a8 8 0 001.51-2.72 11.09 11.09 0 00.55-3.64 16.22 16.22 0 00-.52-4.18A10.19 10.19 0 0045 4.42a7.21 7.21 0 00-2.55-2.21A8.23 8.23 0 0035.91 2a6.65 6.65 0 00-2.32 1.68 7.68 7.68 0 00-1.51 2.7 11 11 0 00-.55 3.62 16.39 16.39 0 00.52 4.18 10 10 0 001.53 3.36 7.38 7.38 0 002.57 2.24 7.55 7.55 0 003.57.8zm21.28.81a4 4 0 00.36-.7 4.76 4.76 0 00.33-1.16q.15-1 .36-2.31c.13-.85.26-1.75.41-2.69s.28-1.9.42-2.88.28-1.94.41-2.9.26-1.87.38-2.75L64 3.57c.1-.73.18-1.36.24-1.91s.11-.95.14-1.22h1.86l9.22 17.23L84.58.44H86l2.4 17.4c.07.55.14 1 .22 1.41s.16.72.24 1a5.71 5.71 0 00.22.69l.21.45v.06h-3.72v-.06a2.28 2.28 0 00.14-.53 4.48 4.48 0 00.07-.88v-.82l-1.86-14-8.7 16.23-1-.12L65.5 5c-.34 2.31-.63 4.45-.89 6.42-.11.84-.21 1.67-.32 2.51s-.2 1.61-.29 2.34-.15 1.36-.19 1.91-.08 1-.08 1.22v.88c0 .26 0 .47.06.64s.06.39.09.55H61zM101.28.44l.61.06h1.34a10.43 10.43 0 001.54-.1 18.59 18.59 0 012.48-.14 8.11 8.11 0 012.61.41 6.11 6.11 0 012.07 1.21 5.47 5.47 0 011.37 1.92 6.43 6.43 0 01.49 2.59 6.91 6.91 0 01-.79 3.37 6.58 6.58 0 01-2.08 2.3 8 8 0 01-3 1.19 10.87 10.87 0 01-3.56 0v4.6c0 .62 0 1.16.08 1.61s.08.82.14 1.13.11.55.16.76v.06h-3.51v-.06c.06-.21.11-.46.17-.76s.1-.68.14-1.13.06-1 .08-1.61 0-1.34 0-2.17V4.01c0-.62 0-1.16-.08-1.62s-.09-.83-.14-1.13-.11-.56-.17-.76zm3.09 11.7a7.34 7.34 0 002.63.06 4.57 4.57 0 002-.91 4.58 4.58 0 001.33-1.89 7.72 7.72 0 00.48-2.9 8.54 8.54 0 00-.25-2.16 4.82 4.82 0 00-.74-1.65 3.33 3.33 0 00-1.24-1.06 3.84 3.84 0 00-1.74-.37c-.42 0-.79 0-1.1.05s-.58.07-.79.11a4.76 4.76 0 00-.63.16zm33.75 9.31v-.28a2.62 2.62 0 000-.27 4.75 4.75 0 00-.12-1 7.59 7.59 0 00-.48-1.37l-1.77-4h-9.3l-1.69 3.86c-.14.36-.3.76-.46 1.19a3.49 3.49 0 00-.25 1.3 1.39 1.39 0 000 .32.43.43 0 00.05.17v.06h-3v-.06a6.34 6.34 0 00.66-1c.26-.48.55-1.07.86-1.78L131.11 0h1.18l8 17.9c.18.42.38.83.58 1.22s.39.75.56 1.07.33.57.47.79.23.35.28.41v.06zm-9.5-8.19h6.58l-4.12-9.3-4 9.36zM154 .44l15.09 16V4.01c0-.62 0-1.16-.09-1.62a11.19 11.19 0 00-.14-1.13c-.05-.3-.11-.56-.16-.76V.44h2.6V.5a6.57 6.57 0 00-.16.76c-.05.3-.09.68-.13 1.13s-.07 1-.09 1.62 0 1.34 0 2.17v15.56h-.51l-15.09-16v12.17c0 .62 0 1.16.09 1.61s.08.82.13 1.13a7.05 7.05 0 00.16.76v.06H153v-.06a6.83 6.83 0 00.17-.76c.06-.31.1-.68.14-1.13s.07-1 .09-1.61 0-1.34 0-2.17V4.01c0-.62 0-1.16-.09-1.62a11.19 11.19 0 00-.14-1.13A6.35 6.35 0 00153 .5V.44zm39.28 10.93v6.52c0 .62 0 1.16.09 1.61s.09.82.14 1.13a6.83 6.83 0 00.17.76v.06h-3.52v-.06a6.83 6.83 0 00.17-.76 9.35 9.35 0 00.13-1.13c0-.45.07-1 .09-1.61s0-1.34 0-2.17v-4.06L184 2.75c-.22-.3-.45-.58-.67-.83s-.42-.48-.62-.67a5.13 5.13 0 00-.53-.47 3.68 3.68 0 00-.36-.28V.44h4.44a3.66 3.66 0 00.28 1.1 8.12 8.12 0 001 1.81l4.81 6.58 4.7-6.87c.17-.24.33-.49.5-.75a8.51 8.51 0 00.45-.73 4.92 4.92 0 00.33-.64 1.23 1.23 0 00.13-.5h2.85V.5c-.21.18-.5.46-.86.83a11.05 11.05 0 00-1.17 1.45z" fill="#fff" data-name="レイヤー 1"/></g></svg>